G04 #@! TF.GenerationSoftware,KiCad,Pcbnew,(6.99.0-1603-g82820d4b1c)*
G04 #@! TF.CreationDate,2022-06-17T10:58:42+02:00*
G04 #@! TF.ProjectId,Unifying,556e6966-7969-46e6-972e-6b696361645f,rev?*
G04 #@! TF.SameCoordinates,Original*
G04 #@! TF.FileFunction,Paste,Bot*
G04 #@! TF.FilePolarity,Positive*
%FSLAX46Y46*%
G04 Gerber Fmt 4.6, Leading zero omitted, Abs format (unit mm)*
G04 Created by KiCad (PCBNEW (6.99.0-1603-g82820d4b1c)) date 2022-06-17 10:58:42*
%MOMM*%
%LPD*%
G01*
G04 APERTURE LIST*
%ADD10R,1.750000X0.400000*%
%ADD11R,0.700000X1.825000*%
%ADD12R,1.400000X2.000000*%
%ADD13R,2.000000X1.300000*%
%ADD14R,2.500000X1.425000*%
%ADD15R,0.300000X2.600000*%
%ADD16R,1.500000X2.000000*%
%ADD17R,1.100000X0.700000*%
%ADD18R,0.930000X0.900000*%
%ADD19R,0.780000X1.050000*%
%ADD20R,3.330000X0.700000*%
%ADD21R,1.830000X1.140000*%
%ADD22R,2.800000X0.860000*%
%ADD23R,0.700000X0.200000*%
%ADD24R,2.600000X0.300000*%
G04 APERTURE END LIST*
D10*
X101311999Y-113811999D03*
X101311999Y-113161999D03*
X101311999Y-112511999D03*
X101311999Y-111861999D03*
X101311999Y-111211999D03*
D11*
X100191999Y-115499499D03*
D12*
X101551999Y-115361999D03*
D13*
X99421999Y-115236999D03*
D14*
X98241999Y-113474499D03*
X98241999Y-111549499D03*
D13*
X99421999Y-109786999D03*
D12*
X101551999Y-109611999D03*
D11*
X100191999Y-109524499D03*
D15*
X132474999Y-89986749D03*
X131974999Y-89986749D03*
X131474999Y-89986749D03*
X130974999Y-89986749D03*
X130474999Y-89986749D03*
X129974999Y-89986749D03*
X129474999Y-89986749D03*
X128974999Y-89986749D03*
X128474999Y-89986749D03*
X127974999Y-89986749D03*
X127474999Y-89986749D03*
X126974999Y-89986749D03*
X126474999Y-89986749D03*
X125974999Y-89986749D03*
X125474999Y-89986749D03*
X124974999Y-89986749D03*
X124474999Y-89986749D03*
X123974999Y-89986749D03*
X123474999Y-89986749D03*
D16*
X208714999Y-136799999D03*
X208714999Y-129799999D03*
X205314999Y-136799999D03*
X201514999Y-129799999D03*
X199314999Y-129799999D03*
X199814999Y-136799999D03*
D17*
X210808999Y-88475999D03*
X210808999Y-87375999D03*
X210808999Y-86275999D03*
X210808999Y-85175999D03*
X210808999Y-84075999D03*
X210808999Y-82975999D03*
X210808999Y-81875999D03*
X210808999Y-80775999D03*
D18*
X198343999Y-90265999D03*
D19*
X198268999Y-86000999D03*
D20*
X199543999Y-92575999D03*
D21*
X210793999Y-92355999D03*
D22*
X210308999Y-79695999D03*
D20*
X199543999Y-79615999D03*
D23*
X177615999Y-99623999D03*
X174535999Y-99623999D03*
X177615999Y-100023999D03*
X174535999Y-100023999D03*
X177615999Y-100423999D03*
X174535999Y-100423999D03*
X177615999Y-100823999D03*
X174535999Y-100823999D03*
X177615999Y-101223999D03*
X174535999Y-101223999D03*
X177615999Y-101623999D03*
X174535999Y-101623999D03*
X177615999Y-102023999D03*
X174535999Y-102023999D03*
X177615999Y-102423999D03*
X174535999Y-102423999D03*
X177615999Y-102823999D03*
X174535999Y-102823999D03*
X177615999Y-103223999D03*
X174535999Y-103223999D03*
X177615999Y-103623999D03*
X174535999Y-103623999D03*
X177615999Y-104023999D03*
X174535999Y-104023999D03*
X177615999Y-104423999D03*
X174535999Y-104423999D03*
X177615999Y-104823999D03*
X174535999Y-104823999D03*
X177615999Y-105223999D03*
X174535999Y-105223999D03*
X177615999Y-105623999D03*
X174535999Y-105623999D03*
X177615999Y-106023999D03*
X174535999Y-106023999D03*
X177615999Y-106423999D03*
X174535999Y-106423999D03*
X177615999Y-106823999D03*
X174535999Y-106823999D03*
X177615999Y-107223999D03*
X174535999Y-107223999D03*
X177615999Y-107623999D03*
X174535999Y-107623999D03*
X177615999Y-108023999D03*
X174535999Y-108023999D03*
X177615999Y-108423999D03*
X174535999Y-108423999D03*
X177615999Y-108823999D03*
X174535999Y-108823999D03*
X177615999Y-109223999D03*
X174535999Y-109223999D03*
X177615999Y-109623999D03*
X174535999Y-109623999D03*
X177615999Y-110023999D03*
X174535999Y-110023999D03*
X177615999Y-110423999D03*
X174535999Y-110423999D03*
X177615999Y-110823999D03*
X174535999Y-110823999D03*
X177615999Y-111223999D03*
X174535999Y-111223999D03*
X177615999Y-111623999D03*
X174535999Y-111623999D03*
X177615999Y-112023999D03*
X174535999Y-112023999D03*
X177615999Y-112423999D03*
X174535999Y-112423999D03*
X177615999Y-112823999D03*
X174535999Y-112823999D03*
X177615999Y-113223999D03*
X174535999Y-113223999D03*
X177615999Y-113623999D03*
X174535999Y-113623999D03*
X177615999Y-114023999D03*
X174535999Y-114023999D03*
X177615999Y-114423999D03*
X174535999Y-114423999D03*
X177615999Y-114823999D03*
X174535999Y-114823999D03*
X177615999Y-115223999D03*
X174535999Y-115223999D03*
X177615999Y-115623999D03*
X174535999Y-115623999D03*
X177615999Y-116023999D03*
X174535999Y-116023999D03*
X177615999Y-116423999D03*
X174535999Y-116423999D03*
X177615999Y-116823999D03*
X174535999Y-116823999D03*
X177615999Y-117223999D03*
X174535999Y-117223999D03*
X177615999Y-117623999D03*
X174535999Y-117623999D03*
X177615999Y-118023999D03*
X174535999Y-118023999D03*
X177615999Y-118423999D03*
X174535999Y-118423999D03*
X177615999Y-118823999D03*
X174535999Y-118823999D03*
X177615999Y-119223999D03*
X174535999Y-119223999D03*
X143695999Y-99623999D03*
X140615999Y-99623999D03*
X143695999Y-100023999D03*
X140615999Y-100023999D03*
X143695999Y-100423999D03*
X140615999Y-100423999D03*
X143695999Y-100823999D03*
X140615999Y-100823999D03*
X143695999Y-101223999D03*
X140615999Y-101223999D03*
X143695999Y-101623999D03*
X140615999Y-101623999D03*
X143695999Y-102023999D03*
X140615999Y-102023999D03*
X143695999Y-102423999D03*
X140615999Y-102423999D03*
X143695999Y-102823999D03*
X140615999Y-102823999D03*
X143695999Y-103223999D03*
X140615999Y-103223999D03*
X143695999Y-103623999D03*
X140615999Y-103623999D03*
X143695999Y-104023999D03*
X140615999Y-104023999D03*
X143695999Y-104423999D03*
X140615999Y-104423999D03*
X143695999Y-104823999D03*
X140615999Y-104823999D03*
X143695999Y-105223999D03*
X140615999Y-105223999D03*
X143695999Y-105623999D03*
X140615999Y-105623999D03*
X143695999Y-106023999D03*
X140615999Y-106023999D03*
X143695999Y-106423999D03*
X140615999Y-106423999D03*
X143695999Y-106823999D03*
X140615999Y-106823999D03*
X143695999Y-107223999D03*
X140615999Y-107223999D03*
X143695999Y-107623999D03*
X140615999Y-107623999D03*
X143695999Y-108023999D03*
X140615999Y-108023999D03*
X143695999Y-108423999D03*
X140615999Y-108423999D03*
X143695999Y-108823999D03*
X140615999Y-108823999D03*
X143695999Y-109223999D03*
X140615999Y-109223999D03*
X143695999Y-109623999D03*
X140615999Y-109623999D03*
X143695999Y-110023999D03*
X140615999Y-110023999D03*
X143695999Y-110423999D03*
X140615999Y-110423999D03*
X143695999Y-110823999D03*
X140615999Y-110823999D03*
X143695999Y-111223999D03*
X140615999Y-111223999D03*
X143695999Y-111623999D03*
X140615999Y-111623999D03*
X143695999Y-112023999D03*
X140615999Y-112023999D03*
X143695999Y-112423999D03*
X140615999Y-112423999D03*
X143695999Y-112823999D03*
X140615999Y-112823999D03*
X143695999Y-113223999D03*
X140615999Y-113223999D03*
X143695999Y-113623999D03*
X140615999Y-113623999D03*
X143695999Y-114023999D03*
X140615999Y-114023999D03*
X143695999Y-114423999D03*
X140615999Y-114423999D03*
X143695999Y-114823999D03*
X140615999Y-114823999D03*
X143695999Y-115223999D03*
X140615999Y-115223999D03*
X143695999Y-115623999D03*
X140615999Y-115623999D03*
X143695999Y-116023999D03*
X140615999Y-116023999D03*
X143695999Y-116423999D03*
X140615999Y-116423999D03*
X143695999Y-116823999D03*
X140615999Y-116823999D03*
X143695999Y-117223999D03*
X140615999Y-117223999D03*
X143695999Y-117623999D03*
X140615999Y-117623999D03*
X143695999Y-118023999D03*
X140615999Y-118023999D03*
X143695999Y-118423999D03*
X140615999Y-118423999D03*
X143695999Y-118823999D03*
X140615999Y-118823999D03*
X143695999Y-119223999D03*
X140615999Y-119223999D03*
D10*
X101295999Y-104159999D03*
X101295999Y-103509999D03*
X101295999Y-102859999D03*
X101295999Y-102209999D03*
X101295999Y-101559999D03*
D11*
X100175999Y-105847499D03*
D12*
X101535999Y-105709999D03*
D13*
X99405999Y-105584999D03*
D14*
X98225999Y-103822499D03*
X98225999Y-101897499D03*
D13*
X99405999Y-100134999D03*
D12*
X101535999Y-99959999D03*
D11*
X100175999Y-99872499D03*
D24*
X107036749Y-84274999D03*
X107036749Y-84774999D03*
X107036749Y-85274999D03*
X107036749Y-85774999D03*
X107036749Y-86274999D03*
X107036749Y-86774999D03*
X107036749Y-87274999D03*
X107036749Y-87774999D03*
X107036749Y-88274999D03*
X107036749Y-88774999D03*
X107036749Y-89274999D03*
X107036749Y-89774999D03*
X107036749Y-90274999D03*
X107036749Y-90774999D03*
X107036749Y-91274999D03*
X107036749Y-91774999D03*
X107036749Y-92274999D03*
X107036749Y-92774999D03*
X107036749Y-93274999D03*
M02*
