G04 #@! TF.GenerationSoftware,KiCad,Pcbnew,(6.99.0-1603-g82820d4b1c)*
G04 #@! TF.CreationDate,2022-06-17T10:58:42+02:00*
G04 #@! TF.ProjectId,Unifying,556e6966-7969-46e6-972e-6b696361645f,rev?*
G04 #@! TF.SameCoordinates,Original*
G04 #@! TF.FileFunction,Soldermask,Top*
G04 #@! TF.FilePolarity,Negative*
%FSLAX46Y46*%
G04 Gerber Fmt 4.6, Leading zero omitted, Abs format (unit mm)*
G04 Created by KiCad (PCBNEW (6.99.0-1603-g82820d4b1c)) date 2022-06-17 10:58:42*
%MOMM*%
%LPD*%
G01*
G04 APERTURE LIST*
G04 Aperture macros list*
%AMRoundRect*
0 Rectangle with rounded corners*
0 $1 Rounding radius*
0 $2 $3 $4 $5 $6 $7 $8 $9 X,Y pos of 4 corners*
0 Add a 4 corners polygon primitive as box body*
4,1,4,$2,$3,$4,$5,$6,$7,$8,$9,$2,$3,0*
0 Add four circle primitives for the rounded corners*
1,1,$1+$1,$2,$3*
1,1,$1+$1,$4,$5*
1,1,$1+$1,$6,$7*
1,1,$1+$1,$8,$9*
0 Add four rect primitives between the rounded corners*
20,1,$1+$1,$2,$3,$4,$5,0*
20,1,$1+$1,$4,$5,$6,$7,0*
20,1,$1+$1,$6,$7,$8,$9,0*
20,1,$1+$1,$8,$9,$2,$3,0*%
%AMFreePoly0*
4,1,17,1.395000,0.765000,0.855000,0.765000,0.855000,0.535000,1.395000,0.535000,1.395000,0.115000,0.855000,0.115000,0.855000,-0.115000,1.395000,-0.115000,1.395000,-0.535000,0.855000,-0.535000,0.855000,-0.765000,1.395000,-0.765000,1.395000,-1.185000,-0.855000,-1.185000,-0.855000,1.185000,1.395000,1.185000,1.395000,0.765000,1.395000,0.765000,$1*%
G04 Aperture macros list end*
%ADD10R,0.300000X1.300000*%
%ADD11R,1.800000X2.200000*%
%ADD12RoundRect,0.135000X-0.185000X0.135000X-0.185000X-0.135000X0.185000X-0.135000X0.185000X0.135000X0*%
%ADD13RoundRect,0.135000X0.135000X0.185000X-0.135000X0.185000X-0.135000X-0.185000X0.135000X-0.185000X0*%
%ADD14RoundRect,0.135000X0.185000X-0.135000X0.185000X0.135000X-0.185000X0.135000X-0.185000X-0.135000X0*%
%ADD15C,2.700000*%
%ADD16R,0.400000X0.650000*%
%ADD17R,0.850000X0.850000*%
%ADD18O,0.850000X0.850000*%
%ADD19RoundRect,0.250000X0.475000X-0.250000X0.475000X0.250000X-0.475000X0.250000X-0.475000X-0.250000X0*%
%ADD20C,3.500000*%
%ADD21RoundRect,0.140000X0.140000X0.170000X-0.140000X0.170000X-0.140000X-0.170000X0.140000X-0.170000X0*%
%ADD22R,3.000000X3.000000*%
%ADD23C,3.000000*%
%ADD24RoundRect,0.150000X-0.587500X-0.150000X0.587500X-0.150000X0.587500X0.150000X-0.587500X0.150000X0*%
%ADD25RoundRect,0.250000X-0.475000X0.250000X-0.475000X-0.250000X0.475000X-0.250000X0.475000X0.250000X0*%
%ADD26RoundRect,0.135000X-0.135000X-0.185000X0.135000X-0.185000X0.135000X0.185000X-0.135000X0.185000X0*%
%ADD27R,0.700000X0.420000*%
%ADD28FreePoly0,180.000000*%
%ADD29RoundRect,0.250000X-0.450000X0.350000X-0.450000X-0.350000X0.450000X-0.350000X0.450000X0.350000X0*%
%ADD30R,1.800000X1.500000*%
%ADD31R,3.500000X2.950000*%
%ADD32RoundRect,0.250000X-1.025000X0.787500X-1.025000X-0.787500X1.025000X-0.787500X1.025000X0.787500X0*%
%ADD33RoundRect,0.140000X-0.170000X0.140000X-0.170000X-0.140000X0.170000X-0.140000X0.170000X0.140000X0*%
%ADD34R,0.900000X0.800000*%
%ADD35RoundRect,0.250000X0.250000X0.475000X-0.250000X0.475000X-0.250000X-0.475000X0.250000X-0.475000X0*%
%ADD36RoundRect,0.140000X0.170000X-0.140000X0.170000X0.140000X-0.170000X0.140000X-0.170000X-0.140000X0*%
%ADD37RoundRect,0.250000X0.450000X-0.350000X0.450000X0.350000X-0.450000X0.350000X-0.450000X-0.350000X0*%
%ADD38R,1.400000X0.300000*%
%ADD39R,1.700000X1.700000*%
%ADD40O,1.700000X1.700000*%
%ADD41RoundRect,0.079000X-0.079000X0.343500X-0.079000X-0.343500X0.079000X-0.343500X0.079000X0.343500X0*%
%ADD42RoundRect,0.140000X-0.140000X-0.170000X0.140000X-0.170000X0.140000X0.170000X-0.140000X0.170000X0*%
%ADD43RoundRect,0.150000X-0.150000X0.512500X-0.150000X-0.512500X0.150000X-0.512500X0.150000X0.512500X0*%
%ADD44R,2.710000X3.400000*%
%ADD45RoundRect,0.150000X-0.737500X-0.150000X0.737500X-0.150000X0.737500X0.150000X-0.737500X0.150000X0*%
%ADD46RoundRect,0.062500X-0.350000X-0.062500X0.350000X-0.062500X0.350000X0.062500X-0.350000X0.062500X0*%
%ADD47RoundRect,0.062500X-0.062500X-0.350000X0.062500X-0.350000X0.062500X0.350000X-0.062500X0.350000X0*%
%ADD48R,3.700000X3.700000*%
%ADD49RoundRect,0.218750X-0.256250X0.218750X-0.256250X-0.218750X0.256250X-0.218750X0.256250X0.218750X0*%
%ADD50RoundRect,0.218750X-0.381250X0.218750X-0.381250X-0.218750X0.381250X-0.218750X0.381250X0.218750X0*%
%ADD51R,0.650000X0.400000*%
%ADD52RoundRect,0.218750X0.381250X-0.218750X0.381250X0.218750X-0.381250X0.218750X-0.381250X-0.218750X0*%
%ADD53R,2.750000X1.200000*%
%ADD54R,1.550000X0.300000*%
%ADD55RoundRect,0.249999X-1.500001X1.025001X-1.500001X-1.025001X1.500001X-1.025001X1.500001X1.025001X0*%
%ADD56RoundRect,0.150000X0.587500X0.150000X-0.587500X0.150000X-0.587500X-0.150000X0.587500X-0.150000X0*%
%ADD57RoundRect,0.150000X-0.512500X-0.150000X0.512500X-0.150000X0.512500X0.150000X-0.512500X0.150000X0*%
%ADD58RoundRect,0.218750X0.256250X-0.218750X0.256250X0.218750X-0.256250X0.218750X-0.256250X-0.218750X0*%
%ADD59O,1.700000X1.300000*%
%ADD60O,1.400000X1.000000*%
%ADD61R,1.350000X1.350000*%
%ADD62O,1.350000X1.350000*%
%ADD63O,1.500000X2.300000*%
%ADD64O,1.500000X3.300000*%
%ADD65C,1.500000*%
%ADD66R,1.500000X1.600000*%
%ADD67C,1.600000*%
%ADD68O,2.300000X1.500000*%
%ADD69O,3.300000X1.500000*%
G04 APERTURE END LIST*
D10*
X154713999Y-88895999D03*
X154213999Y-88895999D03*
X153713999Y-88895999D03*
X153213999Y-88895999D03*
X152713999Y-88895999D03*
X152213999Y-88895999D03*
X151713999Y-88895999D03*
X151213999Y-88895999D03*
X150713999Y-88895999D03*
X150213999Y-88895999D03*
X149713999Y-88895999D03*
X149213999Y-88895999D03*
X148713999Y-88895999D03*
X148213999Y-88895999D03*
X147713999Y-88895999D03*
X147213999Y-88895999D03*
X146713999Y-88895999D03*
X146213999Y-88895999D03*
X145713999Y-88895999D03*
X145213999Y-88895999D03*
X144713999Y-88895999D03*
X144213999Y-88895999D03*
D11*
X156613999Y-85645999D03*
X142313999Y-85645999D03*
D12*
X187564000Y-128004000D03*
X187564000Y-129024000D03*
D13*
X204630000Y-89580000D03*
X203610000Y-89580000D03*
D12*
X165085000Y-130925000D03*
X165085000Y-131945000D03*
X138796000Y-129274000D03*
X138796000Y-130294000D03*
D14*
X187564000Y-132072000D03*
X187564000Y-131052000D03*
D15*
X182484000Y-131308000D03*
D16*
X177164999Y-121594999D03*
X176514999Y-121594999D03*
X175864999Y-121594999D03*
X175864999Y-123494999D03*
X177164999Y-123494999D03*
D17*
X172749999Y-120199999D03*
D18*
X172749999Y-119199999D03*
D19*
X161275000Y-123495000D03*
X161275000Y-121595000D03*
D20*
X111999000Y-102860000D03*
D21*
X166200000Y-128260000D03*
X165240000Y-128260000D03*
D22*
X99491999Y-120131999D03*
D23*
X99492000Y-125212000D03*
D24*
X178498500Y-125786000D03*
X178498500Y-127686000D03*
X180373500Y-126736000D03*
D19*
X129525000Y-124130000D03*
X129525000Y-122230000D03*
D13*
X136850000Y-132490000D03*
X135830000Y-132490000D03*
D25*
X147940000Y-129850000D03*
X147940000Y-131750000D03*
D26*
X183498000Y-119878000D03*
X184518000Y-119878000D03*
D13*
X180200000Y-110480000D03*
X179180000Y-110480000D03*
D10*
X174017999Y-88895999D03*
X173517999Y-88895999D03*
X173017999Y-88895999D03*
X172517999Y-88895999D03*
X172017999Y-88895999D03*
X171517999Y-88895999D03*
X171017999Y-88895999D03*
X170517999Y-88895999D03*
X170017999Y-88895999D03*
X169517999Y-88895999D03*
X169017999Y-88895999D03*
X168517999Y-88895999D03*
X168017999Y-88895999D03*
X167517999Y-88895999D03*
X167017999Y-88895999D03*
X166517999Y-88895999D03*
X166017999Y-88895999D03*
X165517999Y-88895999D03*
X165017999Y-88895999D03*
X164517999Y-88895999D03*
X164017999Y-88895999D03*
X163517999Y-88895999D03*
D11*
X175917999Y-85645999D03*
X161617999Y-85645999D03*
D26*
X175370000Y-128260000D03*
X176390000Y-128260000D03*
D12*
X126096000Y-124194000D03*
X126096000Y-125214000D03*
D19*
X131572000Y-124130000D03*
X131572000Y-122230000D03*
D27*
X127595999Y-122122999D03*
X127595999Y-121472999D03*
X127595999Y-120822999D03*
X127595999Y-120172999D03*
D28*
X125641000Y-121148000D03*
D25*
X158735000Y-129850000D03*
X158735000Y-131750000D03*
D19*
X158735000Y-123495000D03*
X158735000Y-121595000D03*
D29*
X170165000Y-115195000D03*
X170165000Y-117195000D03*
D30*
X166524999Y-122759999D03*
X168724999Y-122759999D03*
X168724999Y-121059999D03*
X166524999Y-121059999D03*
D19*
X139340000Y-124760000D03*
X139340000Y-122860000D03*
D13*
X135750000Y-125720000D03*
X134730000Y-125720000D03*
D31*
X143049999Y-127374999D03*
X143049999Y-132824999D03*
D32*
X154544000Y-126163500D03*
X154544000Y-132388500D03*
D33*
X166355000Y-130955000D03*
X166355000Y-131915000D03*
D34*
X127635999Y-128701999D03*
X129635999Y-127751999D03*
X127635999Y-126801999D03*
D14*
X208994000Y-88130000D03*
X208994000Y-87110000D03*
D17*
X186799999Y-119599999D03*
D18*
X186799999Y-118599999D03*
D35*
X206388000Y-83048000D03*
X204488000Y-83048000D03*
D36*
X179690000Y-124422000D03*
X179690000Y-123462000D03*
D19*
X150480000Y-128194000D03*
X150480000Y-126294000D03*
D33*
X138796000Y-131336000D03*
X138796000Y-132296000D03*
D26*
X165210000Y-125085000D03*
X166230000Y-125085000D03*
D36*
X164450000Y-122390000D03*
X164450000Y-121430000D03*
D33*
X124572000Y-124224000D03*
X124572000Y-125184000D03*
D37*
X172705000Y-117195000D03*
X172705000Y-115195000D03*
D25*
X182738000Y-123754000D03*
X182738000Y-125654000D03*
D13*
X180200000Y-98415000D03*
X179180000Y-98415000D03*
D19*
X160640000Y-127305000D03*
X160640000Y-125405000D03*
X141590000Y-124765000D03*
X141590000Y-122865000D03*
D38*
X161299999Y-119299999D03*
X161299999Y-118799999D03*
X161299999Y-118299999D03*
X161299999Y-117799999D03*
X161299999Y-117299999D03*
X156899999Y-117299999D03*
X156899999Y-117799999D03*
X156899999Y-118299999D03*
X156899999Y-118799999D03*
X156899999Y-119299999D03*
D39*
X193699999Y-129499999D03*
D40*
X191159999Y-129499999D03*
X193699999Y-126959999D03*
X191159999Y-126959999D03*
X193699999Y-124419999D03*
X191159999Y-124419999D03*
X193699999Y-121879999D03*
X191159999Y-121879999D03*
X193699999Y-119339999D03*
X191159999Y-119339999D03*
X193699999Y-116799999D03*
X191159999Y-116799999D03*
X193699999Y-114259999D03*
X191159999Y-114259999D03*
X193699999Y-111719999D03*
X191159999Y-111719999D03*
X193699999Y-109179999D03*
X191159999Y-109179999D03*
X193699999Y-106639999D03*
X191159999Y-106639999D03*
X193699999Y-104099999D03*
X191159999Y-104099999D03*
X193699999Y-101559999D03*
X191159999Y-101559999D03*
X193699999Y-99019999D03*
X191159999Y-99019999D03*
X193699999Y-96479999D03*
X191159999Y-96479999D03*
X193699999Y-93939999D03*
X191159999Y-93939999D03*
X193699999Y-91399999D03*
X191159999Y-91399999D03*
X193699999Y-88859999D03*
X191159999Y-88859999D03*
X193699999Y-86319999D03*
X191159999Y-86319999D03*
X193699999Y-83779999D03*
X191159999Y-83779999D03*
X193699999Y-81239999D03*
X191159999Y-81239999D03*
D41*
X181976000Y-120894000D03*
X181468000Y-120894000D03*
X180925000Y-120894000D03*
X180925000Y-122418000D03*
X181468000Y-122418000D03*
X181976000Y-122418000D03*
D21*
X128100000Y-124196000D03*
X127140000Y-124196000D03*
X184488000Y-121148000D03*
X183528000Y-121148000D03*
D19*
X144130000Y-124765000D03*
X144130000Y-122865000D03*
D33*
X170800000Y-121430000D03*
X170800000Y-122390000D03*
D20*
X130033000Y-102860000D03*
D26*
X158240000Y-115316000D03*
X159260000Y-115316000D03*
D36*
X172070000Y-123660000D03*
X172070000Y-122700000D03*
D19*
X163180000Y-127305000D03*
X163180000Y-125405000D03*
D13*
X134734000Y-132832000D03*
X133714000Y-132832000D03*
D15*
X182484000Y-82032000D03*
D19*
X177850000Y-136150000D03*
X177850000Y-134250000D03*
D13*
X180200000Y-93970000D03*
X179180000Y-93970000D03*
D42*
X110250000Y-94500000D03*
X111210000Y-94500000D03*
D14*
X188072000Y-94734000D03*
X188072000Y-93714000D03*
D43*
X206388000Y-85212500D03*
X205438000Y-85212500D03*
X204488000Y-85212500D03*
X204488000Y-87487500D03*
X206388000Y-87487500D03*
D21*
X129624000Y-130292000D03*
X128664000Y-130292000D03*
D12*
X196802000Y-84824000D03*
X196802000Y-85844000D03*
D44*
X134223999Y-129275999D03*
D45*
X131661500Y-127371000D03*
X131661500Y-128641000D03*
X131661500Y-129911000D03*
X131661500Y-131181000D03*
X136786500Y-131181000D03*
X136786500Y-129911000D03*
X136786500Y-128641000D03*
X136786500Y-127371000D03*
D46*
X167862500Y-126260000D03*
X167862500Y-126760000D03*
X167862500Y-127260000D03*
X167862500Y-127760000D03*
X167862500Y-128260000D03*
X167862500Y-128760000D03*
X167862500Y-129260000D03*
X167862500Y-129760000D03*
X167862500Y-130260000D03*
D47*
X168800000Y-131197500D03*
X169300000Y-131197500D03*
X169800000Y-131197500D03*
X170300000Y-131197500D03*
X170800000Y-131197500D03*
X171300000Y-131197500D03*
X171800000Y-131197500D03*
X172300000Y-131197500D03*
X172800000Y-131197500D03*
D46*
X173737500Y-130260000D03*
X173737500Y-129760000D03*
X173737500Y-129260000D03*
X173737500Y-128760000D03*
X173737500Y-128260000D03*
X173737500Y-127760000D03*
X173737500Y-127260000D03*
X173737500Y-126760000D03*
X173737500Y-126260000D03*
D47*
X172800000Y-125322500D03*
X172300000Y-125322500D03*
X171800000Y-125322500D03*
X171300000Y-125322500D03*
X170800000Y-125322500D03*
X170300000Y-125322500D03*
X169800000Y-125322500D03*
X169300000Y-125322500D03*
X168800000Y-125322500D03*
D48*
X170799999Y-128259999D03*
D19*
X153655000Y-123495000D03*
X153655000Y-121595000D03*
D14*
X162814000Y-118366000D03*
X162814000Y-117346000D03*
D21*
X133180000Y-125720000D03*
X132220000Y-125720000D03*
D49*
X210518000Y-82768500D03*
X210518000Y-84343500D03*
D12*
X208994000Y-82538000D03*
X208994000Y-83558000D03*
D15*
X114572000Y-131308000D03*
D12*
X180960000Y-123432000D03*
X180960000Y-124452000D03*
D39*
X186549999Y-109549999D03*
D40*
X186549999Y-112089999D03*
X186549999Y-114629999D03*
D50*
X177750000Y-129887500D03*
X177750000Y-132012500D03*
D33*
X179690000Y-121430000D03*
X179690000Y-122390000D03*
D51*
X201561999Y-84713999D03*
X201561999Y-84063999D03*
X201561999Y-83413999D03*
X199661999Y-83413999D03*
X199661999Y-84713999D03*
D26*
X183498000Y-122418000D03*
X184518000Y-122418000D03*
D25*
X185024000Y-123754000D03*
X185024000Y-125654000D03*
D14*
X173848000Y-123690000D03*
X173848000Y-122670000D03*
D19*
X146670000Y-124765000D03*
X146670000Y-122865000D03*
X156195000Y-123495000D03*
X156195000Y-121595000D03*
X147940000Y-128194000D03*
X147940000Y-126294000D03*
D52*
X175950000Y-133562500D03*
X175950000Y-131437500D03*
D53*
X176569999Y-92509999D03*
X176569999Y-113209999D03*
D54*
X177344999Y-93609999D03*
X169794999Y-93859999D03*
X177344999Y-94109999D03*
X169794999Y-94359999D03*
X177344999Y-94609999D03*
X169794999Y-94859999D03*
X177344999Y-95109999D03*
X169794999Y-95359999D03*
X177344999Y-95609999D03*
X169794999Y-95859999D03*
X177344999Y-96109999D03*
X169794999Y-96359999D03*
X177344999Y-96609999D03*
X169794999Y-96859999D03*
X177344999Y-97109999D03*
X169794999Y-97359999D03*
X177344999Y-97609999D03*
X169794999Y-97859999D03*
X177344999Y-98109999D03*
X169794999Y-98359999D03*
X177344999Y-98609999D03*
X169794999Y-98859999D03*
X177344999Y-99109999D03*
X169794999Y-99359999D03*
X177344999Y-99609999D03*
X169794999Y-99859999D03*
X177344999Y-100109999D03*
X169794999Y-100359999D03*
X177344999Y-100609999D03*
X169794999Y-100859999D03*
X177344999Y-101109999D03*
X169794999Y-101359999D03*
X177344999Y-101609999D03*
X169794999Y-101859999D03*
X177344999Y-102109999D03*
X169794999Y-102359999D03*
X177344999Y-102609999D03*
X169794999Y-102859999D03*
X177344999Y-103109999D03*
X169794999Y-103359999D03*
X177344999Y-103609999D03*
X169794999Y-103859999D03*
X177344999Y-104109999D03*
X169794999Y-104359999D03*
X177344999Y-104609999D03*
X169794999Y-104859999D03*
X177344999Y-105109999D03*
X169794999Y-105359999D03*
X177344999Y-105609999D03*
X169794999Y-105859999D03*
X177344999Y-106109999D03*
X169794999Y-106359999D03*
X177344999Y-106609999D03*
X169794999Y-106859999D03*
X177344999Y-107109999D03*
X169794999Y-107359999D03*
X177344999Y-107609999D03*
X169794999Y-107859999D03*
X177344999Y-108109999D03*
X169794999Y-108359999D03*
X177344999Y-108609999D03*
X169794999Y-108859999D03*
X177344999Y-109109999D03*
X169794999Y-109359999D03*
X177344999Y-109609999D03*
X169794999Y-109859999D03*
X177344999Y-110109999D03*
X169794999Y-110359999D03*
X177344999Y-110609999D03*
X169794999Y-110859999D03*
X177344999Y-111109999D03*
X169794999Y-111359999D03*
X177344999Y-111609999D03*
X169794999Y-111859999D03*
X177344999Y-112109999D03*
D55*
X134620000Y-117875000D03*
X134620000Y-123425000D03*
D42*
X175400000Y-125720000D03*
X176360000Y-125720000D03*
D56*
X119437500Y-95600000D03*
X119437500Y-93700000D03*
X117562500Y-94650000D03*
D14*
X167250000Y-96060000D03*
X167250000Y-95040000D03*
D21*
X166200000Y-126355000D03*
X165240000Y-126355000D03*
D13*
X180200000Y-111750000D03*
X179180000Y-111750000D03*
D57*
X160772500Y-129850000D03*
X160772500Y-130800000D03*
X160772500Y-131750000D03*
X163047500Y-131750000D03*
X163047500Y-130800000D03*
X163047500Y-129850000D03*
D26*
X175370000Y-129530000D03*
X176390000Y-129530000D03*
D58*
X210518000Y-87899500D03*
X210518000Y-86324500D03*
D12*
X178420000Y-123432000D03*
X178420000Y-124452000D03*
D39*
X182799999Y-109569999D03*
D40*
X182799999Y-112109999D03*
X182799999Y-114649999D03*
D15*
X114572000Y-82032000D03*
D25*
X150480000Y-129850000D03*
X150480000Y-131750000D03*
D26*
X175370000Y-126990000D03*
X176390000Y-126990000D03*
D36*
X121400000Y-95530000D03*
X121400000Y-94570000D03*
D59*
X98491999Y-115236999D03*
D60*
X101521999Y-114936999D03*
X101521999Y-110086999D03*
D59*
X98491999Y-109786999D03*
D61*
X104393999Y-131174999D03*
D62*
X104393999Y-133174999D03*
X104393999Y-135174999D03*
X104393999Y-137174999D03*
D63*
X120724999Y-83296749D03*
D64*
X120724999Y-89256749D03*
D63*
X135224999Y-83296749D03*
D64*
X135224999Y-89256749D03*
D65*
X201315000Y-133300000D03*
X208315000Y-133300000D03*
D66*
X199770999Y-116077999D03*
D67*
X199771000Y-118578000D03*
X199771000Y-120578000D03*
X199771000Y-123078000D03*
D23*
X202481000Y-113008000D03*
X202481000Y-126148000D03*
D61*
X104444999Y-99859999D03*
D62*
X104444999Y-101859999D03*
X104444999Y-103859999D03*
X104444999Y-105859999D03*
D59*
X98475999Y-105584999D03*
D60*
X101505999Y-105284999D03*
X101505999Y-100434999D03*
D59*
X98475999Y-100134999D03*
D68*
X100346749Y-96024999D03*
D69*
X106306749Y-96024999D03*
D68*
X100346749Y-81524999D03*
D69*
X106306749Y-81524999D03*
D66*
X199789999Y-98607999D03*
D67*
X199790000Y-101108000D03*
X199790000Y-103108000D03*
X199790000Y-105608000D03*
D23*
X202500000Y-95538000D03*
X202500000Y-108678000D03*
M02*
