G04 #@! TF.GenerationSoftware,KiCad,Pcbnew,(6.99.0-1603-g82820d4b1c)*
G04 #@! TF.CreationDate,2022-06-17T10:58:42+02:00*
G04 #@! TF.ProjectId,Unifying,556e6966-7969-46e6-972e-6b696361645f,rev?*
G04 #@! TF.SameCoordinates,Original*
G04 #@! TF.FileFunction,Copper,L4,Bot*
G04 #@! TF.FilePolarity,Positive*
%FSLAX46Y46*%
G04 Gerber Fmt 4.6, Leading zero omitted, Abs format (unit mm)*
G04 Created by KiCad (PCBNEW (6.99.0-1603-g82820d4b1c)) date 2022-06-17 10:58:42*
%MOMM*%
%LPD*%
G01*
G04 APERTURE LIST*
G04 #@! TA.AperFunction,ComponentPad*
%ADD10R,0.850000X0.850000*%
G04 #@! TD*
G04 #@! TA.AperFunction,ComponentPad*
%ADD11O,0.850000X0.850000*%
G04 #@! TD*
G04 #@! TA.AperFunction,ComponentPad*
%ADD12R,3.000000X3.000000*%
G04 #@! TD*
G04 #@! TA.AperFunction,ComponentPad*
%ADD13C,3.000000*%
G04 #@! TD*
G04 #@! TA.AperFunction,ComponentPad*
%ADD14R,1.700000X1.700000*%
G04 #@! TD*
G04 #@! TA.AperFunction,ComponentPad*
%ADD15O,1.700000X1.700000*%
G04 #@! TD*
G04 #@! TA.AperFunction,ComponentPad*
%ADD16C,0.500000*%
G04 #@! TD*
G04 #@! TA.AperFunction,SMDPad,CuDef*
%ADD17R,1.800000X4.400000*%
G04 #@! TD*
G04 #@! TA.AperFunction,SMDPad,CuDef*
%ADD18R,1.750000X0.400000*%
G04 #@! TD*
G04 #@! TA.AperFunction,SMDPad,CuDef*
%ADD19R,0.700000X1.825000*%
G04 #@! TD*
G04 #@! TA.AperFunction,SMDPad,CuDef*
%ADD20R,1.400000X2.000000*%
G04 #@! TD*
G04 #@! TA.AperFunction,ComponentPad*
%ADD21O,1.700000X1.300000*%
G04 #@! TD*
G04 #@! TA.AperFunction,SMDPad,CuDef*
%ADD22R,2.000000X1.300000*%
G04 #@! TD*
G04 #@! TA.AperFunction,ComponentPad*
%ADD23O,1.400000X1.000000*%
G04 #@! TD*
G04 #@! TA.AperFunction,SMDPad,CuDef*
%ADD24R,2.500000X1.425000*%
G04 #@! TD*
G04 #@! TA.AperFunction,ComponentPad*
%ADD25R,1.350000X1.350000*%
G04 #@! TD*
G04 #@! TA.AperFunction,ComponentPad*
%ADD26O,1.350000X1.350000*%
G04 #@! TD*
G04 #@! TA.AperFunction,SMDPad,CuDef*
%ADD27R,0.300000X2.600000*%
G04 #@! TD*
G04 #@! TA.AperFunction,ComponentPad*
%ADD28O,1.500000X2.300000*%
G04 #@! TD*
G04 #@! TA.AperFunction,ComponentPad*
%ADD29O,1.500000X3.300000*%
G04 #@! TD*
G04 #@! TA.AperFunction,SMDPad,CuDef*
%ADD30R,1.500000X2.000000*%
G04 #@! TD*
G04 #@! TA.AperFunction,ComponentPad*
%ADD31R,1.500000X1.600000*%
G04 #@! TD*
G04 #@! TA.AperFunction,ComponentPad*
%ADD32C,1.600000*%
G04 #@! TD*
G04 #@! TA.AperFunction,SMDPad,CuDef*
%ADD33R,1.100000X0.700000*%
G04 #@! TD*
G04 #@! TA.AperFunction,SMDPad,CuDef*
%ADD34R,0.930000X0.900000*%
G04 #@! TD*
G04 #@! TA.AperFunction,SMDPad,CuDef*
%ADD35R,0.780000X1.050000*%
G04 #@! TD*
G04 #@! TA.AperFunction,SMDPad,CuDef*
%ADD36R,3.330000X0.700000*%
G04 #@! TD*
G04 #@! TA.AperFunction,SMDPad,CuDef*
%ADD37R,1.830000X1.140000*%
G04 #@! TD*
G04 #@! TA.AperFunction,SMDPad,CuDef*
%ADD38R,2.800000X0.860000*%
G04 #@! TD*
G04 #@! TA.AperFunction,SMDPad,CuDef*
%ADD39R,0.700000X0.200000*%
G04 #@! TD*
G04 #@! TA.AperFunction,SMDPad,CuDef*
%ADD40R,2.600000X0.300000*%
G04 #@! TD*
G04 #@! TA.AperFunction,ComponentPad*
%ADD41O,2.300000X1.500000*%
G04 #@! TD*
G04 #@! TA.AperFunction,ComponentPad*
%ADD42O,3.300000X1.500000*%
G04 #@! TD*
G04 #@! TA.AperFunction,ViaPad*
%ADD43C,0.420000*%
G04 #@! TD*
G04 #@! TA.AperFunction,ViaPad*
%ADD44C,0.600000*%
G04 #@! TD*
G04 #@! TA.AperFunction,ViaPad*
%ADD45C,0.450000*%
G04 #@! TD*
G04 #@! TA.AperFunction,ViaPad*
%ADD46C,0.800000*%
G04 #@! TD*
G04 #@! TA.AperFunction,Conductor*
%ADD47C,0.127000*%
G04 #@! TD*
G04 #@! TA.AperFunction,Conductor*
%ADD48C,0.130000*%
G04 #@! TD*
G04 #@! TA.AperFunction,Conductor*
%ADD49C,0.200000*%
G04 #@! TD*
G04 #@! TA.AperFunction,Conductor*
%ADD50C,1.000000*%
G04 #@! TD*
G04 #@! TA.AperFunction,Conductor*
%ADD51C,0.500000*%
G04 #@! TD*
G04 #@! TA.AperFunction,Conductor*
%ADD52C,0.150000*%
G04 #@! TD*
G04 #@! TA.AperFunction,Conductor*
%ADD53C,0.230000*%
G04 #@! TD*
G04 APERTURE END LIST*
D10*
X172749999Y-120199999D03*
D11*
X172749999Y-119199999D03*
D12*
X99491999Y-120131999D03*
D13*
X99492000Y-125212000D03*
D10*
X186799999Y-119599999D03*
D11*
X186799999Y-118599999D03*
D14*
X193699999Y-129499999D03*
D15*
X191159999Y-129499999D03*
X193699999Y-126959999D03*
X191159999Y-126959999D03*
X193699999Y-124419999D03*
X191159999Y-124419999D03*
X193699999Y-121879999D03*
X191159999Y-121879999D03*
X193699999Y-119339999D03*
X191159999Y-119339999D03*
X193699999Y-116799999D03*
X191159999Y-116799999D03*
X193699999Y-114259999D03*
X191159999Y-114259999D03*
X193699999Y-111719999D03*
X191159999Y-111719999D03*
X193699999Y-109179999D03*
X191159999Y-109179999D03*
X193699999Y-106639999D03*
X191159999Y-106639999D03*
X193699999Y-104099999D03*
X191159999Y-104099999D03*
X193699999Y-101559999D03*
X191159999Y-101559999D03*
X193699999Y-99019999D03*
X191159999Y-99019999D03*
X193699999Y-96479999D03*
X191159999Y-96479999D03*
X193699999Y-93939999D03*
X191159999Y-93939999D03*
X193699999Y-91399999D03*
X191159999Y-91399999D03*
X193699999Y-88859999D03*
X191159999Y-88859999D03*
X193699999Y-86319999D03*
X191159999Y-86319999D03*
X193699999Y-83779999D03*
X191159999Y-83779999D03*
X193699999Y-81239999D03*
X191159999Y-81239999D03*
D16*
X133574000Y-127326000D03*
X133574000Y-128626000D03*
X133574000Y-129926000D03*
X133574000Y-131226000D03*
D17*
X134223999Y-129275999D03*
D16*
X134874000Y-127326000D03*
X134874000Y-128626000D03*
X134874000Y-129926000D03*
X134874000Y-131226000D03*
D14*
X186549999Y-109549999D03*
D15*
X186549999Y-112089999D03*
X186549999Y-114629999D03*
D14*
X182799999Y-109569999D03*
D15*
X182799999Y-112109999D03*
X182799999Y-114649999D03*
D18*
X101311999Y-113811999D03*
X101311999Y-113161999D03*
X101311999Y-112511999D03*
X101311999Y-111861999D03*
X101311999Y-111211999D03*
D19*
X100191999Y-115499499D03*
D20*
X101551999Y-115361999D03*
D21*
X98491999Y-115236999D03*
D22*
X99421999Y-115236999D03*
D23*
X101521999Y-114936999D03*
D24*
X98241999Y-113474499D03*
X98241999Y-111549499D03*
D23*
X101521999Y-110086999D03*
D21*
X98491999Y-109786999D03*
D22*
X99421999Y-109786999D03*
D20*
X101551999Y-109611999D03*
D19*
X100191999Y-109524499D03*
D25*
X104393999Y-131174999D03*
D26*
X104393999Y-133174999D03*
X104393999Y-135174999D03*
X104393999Y-137174999D03*
D27*
X132474999Y-89986749D03*
X131974999Y-89986749D03*
X131474999Y-89986749D03*
X130974999Y-89986749D03*
X130474999Y-89986749D03*
X129974999Y-89986749D03*
X129474999Y-89986749D03*
X128974999Y-89986749D03*
X128474999Y-89986749D03*
X127974999Y-89986749D03*
X127474999Y-89986749D03*
X126974999Y-89986749D03*
X126474999Y-89986749D03*
X125974999Y-89986749D03*
X125474999Y-89986749D03*
X124974999Y-89986749D03*
X124474999Y-89986749D03*
X123974999Y-89986749D03*
X123474999Y-89986749D03*
D28*
X120724999Y-83296749D03*
D29*
X120724999Y-89256749D03*
D28*
X135224999Y-83296749D03*
D29*
X135224999Y-89256749D03*
D30*
X208714999Y-136799999D03*
X208714999Y-129799999D03*
X205314999Y-136799999D03*
X201514999Y-129799999D03*
X199314999Y-129799999D03*
X199814999Y-136799999D03*
D31*
X199770999Y-116077999D03*
D32*
X199771000Y-118578000D03*
X199771000Y-120578000D03*
X199771000Y-123078000D03*
D13*
X202481000Y-113008000D03*
X202481000Y-126148000D03*
D33*
X210808999Y-88475999D03*
X210808999Y-87375999D03*
X210808999Y-86275999D03*
X210808999Y-85175999D03*
X210808999Y-84075999D03*
X210808999Y-82975999D03*
X210808999Y-81875999D03*
X210808999Y-80775999D03*
D34*
X198343999Y-90265999D03*
D35*
X198268999Y-86000999D03*
D36*
X199543999Y-92575999D03*
D37*
X210793999Y-92355999D03*
D38*
X210308999Y-79695999D03*
D36*
X199543999Y-79615999D03*
D39*
X177615999Y-99623999D03*
X174535999Y-99623999D03*
X177615999Y-100023999D03*
X174535999Y-100023999D03*
X177615999Y-100423999D03*
X174535999Y-100423999D03*
X177615999Y-100823999D03*
X174535999Y-100823999D03*
X177615999Y-101223999D03*
X174535999Y-101223999D03*
X177615999Y-101623999D03*
X174535999Y-101623999D03*
X177615999Y-102023999D03*
X174535999Y-102023999D03*
X177615999Y-102423999D03*
X174535999Y-102423999D03*
X177615999Y-102823999D03*
X174535999Y-102823999D03*
X177615999Y-103223999D03*
X174535999Y-103223999D03*
X177615999Y-103623999D03*
X174535999Y-103623999D03*
X177615999Y-104023999D03*
X174535999Y-104023999D03*
X177615999Y-104423999D03*
X174535999Y-104423999D03*
X177615999Y-104823999D03*
X174535999Y-104823999D03*
X177615999Y-105223999D03*
X174535999Y-105223999D03*
X177615999Y-105623999D03*
X174535999Y-105623999D03*
X177615999Y-106023999D03*
X174535999Y-106023999D03*
X177615999Y-106423999D03*
X174535999Y-106423999D03*
X177615999Y-106823999D03*
X174535999Y-106823999D03*
X177615999Y-107223999D03*
X174535999Y-107223999D03*
X177615999Y-107623999D03*
X174535999Y-107623999D03*
X177615999Y-108023999D03*
X174535999Y-108023999D03*
X177615999Y-108423999D03*
X174535999Y-108423999D03*
X177615999Y-108823999D03*
X174535999Y-108823999D03*
X177615999Y-109223999D03*
X174535999Y-109223999D03*
X177615999Y-109623999D03*
X174535999Y-109623999D03*
X177615999Y-110023999D03*
X174535999Y-110023999D03*
X177615999Y-110423999D03*
X174535999Y-110423999D03*
X177615999Y-110823999D03*
X174535999Y-110823999D03*
X177615999Y-111223999D03*
X174535999Y-111223999D03*
X177615999Y-111623999D03*
X174535999Y-111623999D03*
X177615999Y-112023999D03*
X174535999Y-112023999D03*
X177615999Y-112423999D03*
X174535999Y-112423999D03*
X177615999Y-112823999D03*
X174535999Y-112823999D03*
X177615999Y-113223999D03*
X174535999Y-113223999D03*
X177615999Y-113623999D03*
X174535999Y-113623999D03*
X177615999Y-114023999D03*
X174535999Y-114023999D03*
X177615999Y-114423999D03*
X174535999Y-114423999D03*
X177615999Y-114823999D03*
X174535999Y-114823999D03*
X177615999Y-115223999D03*
X174535999Y-115223999D03*
X177615999Y-115623999D03*
X174535999Y-115623999D03*
X177615999Y-116023999D03*
X174535999Y-116023999D03*
X177615999Y-116423999D03*
X174535999Y-116423999D03*
X177615999Y-116823999D03*
X174535999Y-116823999D03*
X177615999Y-117223999D03*
X174535999Y-117223999D03*
X177615999Y-117623999D03*
X174535999Y-117623999D03*
X177615999Y-118023999D03*
X174535999Y-118023999D03*
X177615999Y-118423999D03*
X174535999Y-118423999D03*
X177615999Y-118823999D03*
X174535999Y-118823999D03*
X177615999Y-119223999D03*
X174535999Y-119223999D03*
X143695999Y-99623999D03*
X140615999Y-99623999D03*
X143695999Y-100023999D03*
X140615999Y-100023999D03*
X143695999Y-100423999D03*
X140615999Y-100423999D03*
X143695999Y-100823999D03*
X140615999Y-100823999D03*
X143695999Y-101223999D03*
X140615999Y-101223999D03*
X143695999Y-101623999D03*
X140615999Y-101623999D03*
X143695999Y-102023999D03*
X140615999Y-102023999D03*
X143695999Y-102423999D03*
X140615999Y-102423999D03*
X143695999Y-102823999D03*
X140615999Y-102823999D03*
X143695999Y-103223999D03*
X140615999Y-103223999D03*
X143695999Y-103623999D03*
X140615999Y-103623999D03*
X143695999Y-104023999D03*
X140615999Y-104023999D03*
X143695999Y-104423999D03*
X140615999Y-104423999D03*
X143695999Y-104823999D03*
X140615999Y-104823999D03*
X143695999Y-105223999D03*
X140615999Y-105223999D03*
X143695999Y-105623999D03*
X140615999Y-105623999D03*
X143695999Y-106023999D03*
X140615999Y-106023999D03*
X143695999Y-106423999D03*
X140615999Y-106423999D03*
X143695999Y-106823999D03*
X140615999Y-106823999D03*
X143695999Y-107223999D03*
X140615999Y-107223999D03*
X143695999Y-107623999D03*
X140615999Y-107623999D03*
X143695999Y-108023999D03*
X140615999Y-108023999D03*
X143695999Y-108423999D03*
X140615999Y-108423999D03*
X143695999Y-108823999D03*
X140615999Y-108823999D03*
X143695999Y-109223999D03*
X140615999Y-109223999D03*
X143695999Y-109623999D03*
X140615999Y-109623999D03*
X143695999Y-110023999D03*
X140615999Y-110023999D03*
X143695999Y-110423999D03*
X140615999Y-110423999D03*
X143695999Y-110823999D03*
X140615999Y-110823999D03*
X143695999Y-111223999D03*
X140615999Y-111223999D03*
X143695999Y-111623999D03*
X140615999Y-111623999D03*
X143695999Y-112023999D03*
X140615999Y-112023999D03*
X143695999Y-112423999D03*
X140615999Y-112423999D03*
X143695999Y-112823999D03*
X140615999Y-112823999D03*
X143695999Y-113223999D03*
X140615999Y-113223999D03*
X143695999Y-113623999D03*
X140615999Y-113623999D03*
X143695999Y-114023999D03*
X140615999Y-114023999D03*
X143695999Y-114423999D03*
X140615999Y-114423999D03*
X143695999Y-114823999D03*
X140615999Y-114823999D03*
X143695999Y-115223999D03*
X140615999Y-115223999D03*
X143695999Y-115623999D03*
X140615999Y-115623999D03*
X143695999Y-116023999D03*
X140615999Y-116023999D03*
X143695999Y-116423999D03*
X140615999Y-116423999D03*
X143695999Y-116823999D03*
X140615999Y-116823999D03*
X143695999Y-117223999D03*
X140615999Y-117223999D03*
X143695999Y-117623999D03*
X140615999Y-117623999D03*
X143695999Y-118023999D03*
X140615999Y-118023999D03*
X143695999Y-118423999D03*
X140615999Y-118423999D03*
X143695999Y-118823999D03*
X140615999Y-118823999D03*
X143695999Y-119223999D03*
X140615999Y-119223999D03*
D25*
X104444999Y-99859999D03*
D26*
X104444999Y-101859999D03*
X104444999Y-103859999D03*
X104444999Y-105859999D03*
D18*
X101295999Y-104159999D03*
X101295999Y-103509999D03*
X101295999Y-102859999D03*
X101295999Y-102209999D03*
X101295999Y-101559999D03*
D19*
X100175999Y-105847499D03*
D20*
X101535999Y-105709999D03*
D21*
X98475999Y-105584999D03*
D22*
X99405999Y-105584999D03*
D23*
X101505999Y-105284999D03*
D24*
X98225999Y-103822499D03*
X98225999Y-101897499D03*
D23*
X101505999Y-100434999D03*
D21*
X98475999Y-100134999D03*
D22*
X99405999Y-100134999D03*
D20*
X101535999Y-99959999D03*
D19*
X100175999Y-99872499D03*
D40*
X107036749Y-84274999D03*
X107036749Y-84774999D03*
X107036749Y-85274999D03*
X107036749Y-85774999D03*
X107036749Y-86274999D03*
X107036749Y-86774999D03*
X107036749Y-87274999D03*
X107036749Y-87774999D03*
X107036749Y-88274999D03*
X107036749Y-88774999D03*
X107036749Y-89274999D03*
X107036749Y-89774999D03*
X107036749Y-90274999D03*
X107036749Y-90774999D03*
X107036749Y-91274999D03*
X107036749Y-91774999D03*
X107036749Y-92274999D03*
X107036749Y-92774999D03*
X107036749Y-93274999D03*
D41*
X100346749Y-96024999D03*
D42*
X106306749Y-96024999D03*
D41*
X100346749Y-81524999D03*
D42*
X106306749Y-81524999D03*
D31*
X199789999Y-98607999D03*
D32*
X199790000Y-101108000D03*
X199790000Y-103108000D03*
X199790000Y-105608000D03*
D13*
X202500000Y-95538000D03*
X202500000Y-108678000D03*
D43*
X141200000Y-116400000D03*
X142900000Y-104400000D03*
X141300000Y-106800000D03*
X142350000Y-119300000D03*
X178465988Y-100809427D03*
D44*
X163920500Y-121210471D03*
X165200000Y-128900000D03*
D45*
X208700000Y-79700000D03*
X102600000Y-111200000D03*
D43*
X176200000Y-104600000D03*
X176180000Y-112260000D03*
X176200000Y-103100000D03*
X176300000Y-96100000D03*
D44*
X176400000Y-125000000D03*
D43*
X173860000Y-99630000D03*
D45*
X132500000Y-88350000D03*
X204500000Y-83950000D03*
D43*
X145730000Y-89890000D03*
D45*
X210800000Y-91550000D03*
D44*
X177100000Y-128300000D03*
X165159694Y-124609955D03*
D43*
X141328388Y-110428005D03*
X142900000Y-106800000D03*
D45*
X199550000Y-91950000D03*
D43*
X175710000Y-106160000D03*
D44*
X125400000Y-125200000D03*
D43*
X178700000Y-132000000D03*
D45*
X205450000Y-84250000D03*
D43*
X173920000Y-105630000D03*
X141300000Y-108000000D03*
D45*
X111900000Y-94450000D03*
D44*
X155100000Y-121600000D03*
D45*
X105350000Y-84250000D03*
D43*
X147220000Y-89930000D03*
D45*
X130950000Y-88400000D03*
D43*
X155850000Y-119400000D03*
X175450923Y-112255779D03*
X141328388Y-114028005D03*
X172500000Y-87900000D03*
X145600000Y-100800000D03*
X141350000Y-117250000D03*
D46*
X140100000Y-121920000D03*
D44*
X169300000Y-126800000D03*
X169300000Y-128200000D03*
D45*
X108650000Y-85800000D03*
D43*
X176300000Y-94600000D03*
D45*
X122000000Y-94550000D03*
D44*
X123900000Y-125200000D03*
X129540000Y-121412000D03*
D43*
X141300000Y-109200000D03*
X143100000Y-115200000D03*
D45*
X128000000Y-91750000D03*
D43*
X178500000Y-109990000D03*
X151720000Y-89900000D03*
D44*
X172300000Y-126800000D03*
D43*
X143000000Y-116400000D03*
D44*
X166970500Y-132000000D03*
D45*
X98200000Y-111350000D03*
X199550000Y-80150000D03*
D43*
X174000000Y-87900000D03*
D44*
X128700000Y-130900000D03*
D43*
X142972821Y-112822790D03*
D45*
X108650000Y-87250000D03*
X98250000Y-103800000D03*
D43*
X176220000Y-108830000D03*
D44*
X162100000Y-125400000D03*
X149300000Y-131800000D03*
X146900000Y-126300000D03*
D43*
X178530000Y-111370000D03*
D44*
X165300000Y-127100000D03*
D45*
X211493351Y-83000142D03*
X132500000Y-91700000D03*
D43*
X176230000Y-111250000D03*
X141200000Y-112800000D03*
D45*
X128000000Y-88350000D03*
D44*
X165205480Y-119405480D03*
D43*
X165000000Y-87900000D03*
X143000000Y-110400000D03*
D45*
X108650000Y-84300000D03*
D44*
X138200000Y-132300000D03*
D45*
X129500000Y-88400000D03*
D43*
X178760000Y-112520000D03*
X178300000Y-113690000D03*
D44*
X165329500Y-121100000D03*
D46*
X145300000Y-122800000D03*
D44*
X173800000Y-122000000D03*
X159500000Y-125400000D03*
D43*
X153250000Y-89790000D03*
X141300000Y-100800000D03*
D44*
X177100000Y-127000000D03*
D43*
X166500000Y-87900000D03*
X178650000Y-103400000D03*
D44*
X149400000Y-126300000D03*
D43*
X173930000Y-107640000D03*
X150220000Y-89830000D03*
X141300000Y-115200000D03*
D45*
X105350000Y-88750000D03*
D44*
X146802536Y-131783982D03*
X160200000Y-121600000D03*
D43*
X169500000Y-87900000D03*
D44*
X159800000Y-130800000D03*
D43*
X171000000Y-87900000D03*
X143000000Y-117600000D03*
D44*
X157650000Y-131750000D03*
D43*
X178510000Y-102020000D03*
D45*
X126450000Y-91700000D03*
D43*
X168000000Y-87900000D03*
D44*
X176360020Y-130181459D03*
D45*
X105300000Y-87300000D03*
X105300000Y-90250000D03*
X126500000Y-88350000D03*
D44*
X175800000Y-120900000D03*
X169300000Y-129800000D03*
D43*
X144500000Y-102000000D03*
X141300000Y-105600000D03*
X173400000Y-114010000D03*
D44*
X138000000Y-128700000D03*
D43*
X175250000Y-119100000D03*
X141350000Y-118950000D03*
D45*
X108700000Y-88750000D03*
X119150000Y-94650000D03*
D43*
X173900000Y-100830000D03*
D45*
X108750000Y-90300000D03*
D44*
X170800000Y-128200000D03*
D43*
X176200000Y-100100000D03*
X178469502Y-99610000D03*
X173700000Y-110850000D03*
D44*
X169757000Y-122746858D03*
D43*
X139800000Y-102100000D03*
D44*
X170800000Y-126700000D03*
D45*
X131000000Y-91700000D03*
D44*
X164400000Y-132000000D03*
X170800000Y-129800000D03*
D43*
X139900000Y-104400000D03*
D46*
X152900000Y-132000000D03*
D45*
X98250000Y-113450000D03*
D44*
X172300000Y-129700000D03*
D45*
X202150000Y-83400000D03*
D43*
X176150000Y-107800000D03*
X144500000Y-103200000D03*
X142900000Y-105600000D03*
X176200000Y-101600000D03*
D45*
X102450000Y-101550000D03*
D44*
X157700000Y-121600000D03*
D45*
X98200000Y-101950000D03*
D44*
X170800000Y-123000000D03*
X172100000Y-122100000D03*
D46*
X142800000Y-122800000D03*
D45*
X105399413Y-85779999D03*
D43*
X143000000Y-111600000D03*
X141300000Y-111600000D03*
D45*
X129500000Y-91800000D03*
D46*
X147900000Y-122800000D03*
D43*
X154740000Y-89840000D03*
X173860000Y-102030000D03*
X176300000Y-94100000D03*
D44*
X131572000Y-121412000D03*
D43*
X139900000Y-103200000D03*
X176200000Y-106100000D03*
D44*
X152600000Y-121600000D03*
D43*
X143000000Y-114000000D03*
X148720000Y-89900000D03*
D44*
X133700000Y-133500000D03*
X172300000Y-128100000D03*
D43*
X162250000Y-117300000D03*
X173994078Y-109629097D03*
D45*
X123150000Y-122000000D03*
X123250000Y-120150000D03*
X123200000Y-121150000D03*
X110200000Y-95200000D03*
X120550000Y-93650000D03*
D44*
X157700000Y-129900000D03*
D43*
X178310000Y-116400000D03*
D44*
X131572000Y-124900000D03*
X143000000Y-124800000D03*
X130600000Y-129900000D03*
X145600000Y-124800000D03*
D43*
X176850000Y-116460000D03*
D44*
X138000000Y-124800000D03*
X160800000Y-129000000D03*
X129500000Y-124900000D03*
X128350000Y-120800000D03*
D43*
X176790000Y-115550000D03*
D44*
X130600000Y-128600000D03*
D43*
X176820000Y-116020000D03*
D44*
X177200000Y-122750000D03*
D43*
X178340000Y-115870000D03*
X178320000Y-115430000D03*
D44*
X140500000Y-124800000D03*
X128100000Y-125000000D03*
X129700000Y-127000000D03*
D45*
X122200000Y-95650000D03*
D44*
X127600000Y-122700000D03*
X133604000Y-121412000D03*
D45*
X144989080Y-105665512D03*
X145689080Y-105665512D03*
X146676512Y-105152512D03*
X147171488Y-105647488D03*
X148708512Y-105152512D03*
X149203488Y-105647488D03*
D43*
X142150000Y-118065000D03*
X142150000Y-118735000D03*
X144513119Y-119786881D03*
X144986881Y-119313119D03*
X145465000Y-117850000D03*
X146135000Y-117850000D03*
X146965000Y-116850000D03*
X147635000Y-116850000D03*
X148838119Y-115688119D03*
X149311881Y-116161881D03*
D45*
X209200000Y-85200000D03*
X180350000Y-121000000D03*
X178400000Y-118950000D03*
X176800000Y-119200000D03*
D43*
X143000000Y-109200000D03*
D45*
X126500000Y-92600000D03*
X125450000Y-92300000D03*
D43*
X142700000Y-108700000D03*
X142700000Y-108100000D03*
D45*
X124500000Y-92150000D03*
X123450000Y-88350000D03*
D43*
X142900000Y-107500000D03*
D45*
X198247000Y-119126000D03*
X176550000Y-120550000D03*
X175357144Y-111668719D03*
D43*
X166780964Y-129345000D03*
X166780964Y-128675000D03*
D45*
X103311716Y-102835000D03*
X103311716Y-103535000D03*
X173600000Y-110200000D03*
X175300000Y-109900000D03*
X187900000Y-114300000D03*
D43*
X144400000Y-110200000D03*
D45*
X109250000Y-93300000D03*
D43*
X144400000Y-109600000D03*
D45*
X109275000Y-90775000D03*
X179054537Y-109749352D03*
X188100000Y-115300000D03*
X187950000Y-112900000D03*
X175550000Y-111080000D03*
X175300000Y-109250000D03*
X176070000Y-109990000D03*
X188450000Y-112300000D03*
X181440000Y-111230000D03*
X173850000Y-108800000D03*
X188080000Y-110260000D03*
X175636082Y-108673593D03*
X178580000Y-109140000D03*
X178755500Y-108538161D03*
X186730000Y-106340000D03*
X173550000Y-108100000D03*
X173300000Y-107500000D03*
X188050000Y-105450000D03*
X178549748Y-107948994D03*
X175430000Y-107530000D03*
X187500000Y-103300000D03*
X186700000Y-104840000D03*
X179800000Y-108660000D03*
X179810000Y-107150000D03*
X186450000Y-101650000D03*
D43*
X169100000Y-132950000D03*
X170350000Y-132900000D03*
D45*
X175259550Y-105750682D03*
X178640000Y-105950000D03*
X186800000Y-100850000D03*
X172600000Y-105500000D03*
D43*
X173750000Y-116250000D03*
X172300000Y-124650000D03*
X168800000Y-131900000D03*
X175400000Y-125110000D03*
D44*
X166250000Y-119400000D03*
D43*
X172700000Y-123650000D03*
D44*
X209700000Y-84350000D03*
X162000000Y-127350000D03*
D43*
X168400000Y-125350000D03*
X173750000Y-115750000D03*
X167386000Y-111252000D03*
X174500000Y-128250000D03*
D44*
X209799414Y-86099414D03*
D43*
X166150000Y-128950000D03*
D45*
X205310000Y-89600000D03*
D44*
X159550000Y-127350000D03*
X199700000Y-85200000D03*
X167000000Y-130950000D03*
D43*
X175050000Y-133550000D03*
X162250000Y-119300000D03*
D44*
X169005480Y-115455480D03*
D43*
X174000000Y-125850000D03*
D44*
X207000000Y-87500000D03*
D43*
X171300000Y-131900000D03*
X167128865Y-128211548D03*
X166200000Y-127050000D03*
D44*
X197400000Y-84850000D03*
D43*
X125705273Y-111438392D03*
X126600000Y-111400000D03*
X171201572Y-123884057D03*
X155450000Y-117215000D03*
X155450000Y-117885000D03*
X171201572Y-124554057D03*
D45*
X176000000Y-102300000D03*
X179750000Y-105490000D03*
X179624687Y-118762191D03*
X185350000Y-93100000D03*
X179013276Y-118662389D03*
X173300000Y-105550000D03*
X184350000Y-100350000D03*
X173550000Y-104350000D03*
X183000000Y-98900000D03*
X179810000Y-104190000D03*
X183300000Y-100050000D03*
X173520000Y-103400000D03*
X182050000Y-99900000D03*
X182550000Y-91400000D03*
X178600000Y-104750000D03*
D43*
X175568038Y-117304440D03*
D45*
X196000000Y-81500000D03*
X182650000Y-88000000D03*
D44*
X152400000Y-123500000D03*
D46*
X136398000Y-118872000D03*
D44*
X163150000Y-128700000D03*
X170673672Y-134434632D03*
X155100000Y-123500000D03*
X157650000Y-123500000D03*
D45*
X102850000Y-104450000D03*
D44*
X160100000Y-123500000D03*
D45*
X188700000Y-81550000D03*
X192400000Y-80450000D03*
X202750000Y-86250000D03*
X172050000Y-110000000D03*
X202300000Y-86700000D03*
X188900000Y-80900000D03*
X183450000Y-87950000D03*
X196300000Y-83100000D03*
X189600000Y-97800000D03*
X202975000Y-89615000D03*
X203040000Y-88490000D03*
X180070000Y-115180000D03*
X175510000Y-114850000D03*
D44*
X171750000Y-115150000D03*
D43*
X208740000Y-135550000D03*
X160528000Y-116300000D03*
X159766000Y-116300000D03*
D44*
X171650000Y-117250000D03*
D43*
X175250000Y-116800000D03*
D45*
X176410000Y-117470000D03*
D43*
X174550000Y-120500000D03*
X163500000Y-89900000D03*
X144240000Y-89890000D03*
D45*
X173347488Y-101297488D03*
X172852512Y-100802512D03*
X172947488Y-103147488D03*
X172452512Y-102652512D03*
X148336000Y-100838000D03*
X168750000Y-105850000D03*
X145950000Y-101500000D03*
X172047488Y-100402512D03*
X171552512Y-100897488D03*
D43*
X205359000Y-135509000D03*
D44*
X186850000Y-129050000D03*
X185741591Y-128702764D03*
D45*
X197600000Y-90300000D03*
X197700000Y-86050000D03*
X178700000Y-90600000D03*
D43*
X179150000Y-121450000D03*
X178900000Y-122700000D03*
X181612368Y-123169297D03*
D44*
X186900000Y-128000000D03*
D43*
X180420000Y-128150000D03*
D44*
X186900000Y-131520500D03*
D43*
X166200000Y-125650000D03*
X169300000Y-124650000D03*
D45*
X207500000Y-83550000D03*
X199650000Y-82950000D03*
D43*
X168680000Y-111370000D03*
D46*
X146750000Y-128200000D03*
D45*
X180007000Y-97757000D03*
D46*
X145800000Y-131250000D03*
D43*
X168680000Y-110730000D03*
X168680000Y-112014000D03*
D46*
X151700000Y-129850000D03*
X152850000Y-126150000D03*
D44*
X168688330Y-94340352D03*
D46*
X146750000Y-129900000D03*
X151650000Y-128150000D03*
D45*
X180050000Y-94800000D03*
D46*
X180150000Y-113000000D03*
X171150000Y-94234000D03*
D43*
X199390000Y-131064000D03*
X202946000Y-132207000D03*
X202946000Y-137160000D03*
D44*
X157734000Y-115824000D03*
D43*
X161290000Y-115316000D03*
D47*
X174536000Y-100824000D02*
X173906000Y-100824000D01*
X178234000Y-113624000D02*
X178300000Y-113690000D01*
X141176000Y-116424000D02*
X141200000Y-116400000D01*
X127975000Y-89986750D02*
X127975000Y-91725000D01*
X174536000Y-99624000D02*
X173866000Y-99624000D01*
X173906000Y-100824000D02*
X173900000Y-100830000D01*
X177026000Y-108024000D02*
X176220000Y-108830000D01*
X178455502Y-99624000D02*
X178469502Y-99610000D01*
X140616000Y-116424000D02*
X141176000Y-116424000D01*
X127975000Y-89986750D02*
X127975000Y-88375000D01*
X177616000Y-100824000D02*
X178451415Y-100824000D01*
D48*
X107036750Y-84275000D02*
X105375000Y-84275000D01*
D47*
X143024000Y-110424000D02*
X143000000Y-110400000D01*
X98242000Y-113474500D02*
X98242000Y-113458000D01*
X143696000Y-100824000D02*
X145576000Y-100824000D01*
X174536000Y-118824000D02*
X174974000Y-118824000D01*
D48*
X107036750Y-87275000D02*
X105325000Y-87275000D01*
X105404412Y-85775000D02*
X105399413Y-85779999D01*
X105375000Y-88775000D02*
X105350000Y-88750000D01*
D47*
X140976000Y-117624000D02*
X141350000Y-117250000D01*
X173414000Y-114024000D02*
X173400000Y-114010000D01*
X173866000Y-102024000D02*
X173860000Y-102030000D01*
X177616000Y-112424000D02*
X178664000Y-112424000D01*
X141276000Y-109224000D02*
X141300000Y-109200000D01*
D48*
X210309000Y-79696000D02*
X208704000Y-79696000D01*
D47*
X174536000Y-103624000D02*
X174059000Y-103624000D01*
D48*
X107036750Y-85775000D02*
X108625000Y-85775000D01*
D47*
X177616000Y-111224000D02*
X178384000Y-111224000D01*
X141276000Y-100824000D02*
X141300000Y-100800000D01*
D48*
X107036750Y-87275000D02*
X108625000Y-87275000D01*
X108675000Y-88775000D02*
X108700000Y-88750000D01*
D47*
X178466000Y-110024000D02*
X178500000Y-109990000D01*
X141176000Y-112824000D02*
X141200000Y-112800000D01*
D49*
X199544000Y-92576000D02*
X199544000Y-91956000D01*
D47*
X140616000Y-109224000D02*
X141276000Y-109224000D01*
D48*
X107036750Y-88775000D02*
X105375000Y-88775000D01*
D47*
X141324383Y-114024000D02*
X141328388Y-114028005D01*
D48*
X105325000Y-87275000D02*
X105300000Y-87300000D01*
D47*
X143024000Y-114024000D02*
X143000000Y-114000000D01*
D50*
X202500000Y-108318000D02*
X202500000Y-108678000D01*
D47*
X143696000Y-116424000D02*
X143024000Y-116424000D01*
D48*
X105325000Y-90275000D02*
X105300000Y-90250000D01*
D47*
X139924000Y-104424000D02*
X139900000Y-104400000D01*
X143696000Y-103224000D02*
X144476000Y-103224000D01*
X141276000Y-115224000D02*
X141300000Y-115200000D01*
X142924000Y-104424000D02*
X142900000Y-104400000D01*
X130975000Y-91675000D02*
X131000000Y-91700000D01*
X173926000Y-105624000D02*
X173920000Y-105630000D01*
X175282702Y-112424000D02*
X175450923Y-112255779D01*
X177616000Y-102024000D02*
X178506000Y-102024000D01*
X140616000Y-112824000D02*
X141176000Y-112824000D01*
X126475000Y-89986750D02*
X126475000Y-91675000D01*
X173999175Y-109624000D02*
X173994078Y-109629097D01*
D48*
X105375000Y-84275000D02*
X105350000Y-84250000D01*
D47*
X140616000Y-111624000D02*
X141276000Y-111624000D01*
X98242000Y-111549500D02*
X98242000Y-111392000D01*
X140616000Y-117624000D02*
X140976000Y-117624000D01*
X130975000Y-89986750D02*
X130975000Y-91675000D01*
X142924000Y-105624000D02*
X142900000Y-105600000D01*
X143024000Y-116424000D02*
X143000000Y-116400000D01*
D48*
X98226000Y-103822500D02*
X98227500Y-103822500D01*
D50*
X202481000Y-125773000D02*
X202481000Y-126148000D01*
D48*
X101296000Y-101560000D02*
X102440000Y-101560000D01*
D47*
X140616000Y-104424000D02*
X139924000Y-104424000D01*
X174536000Y-109624000D02*
X173999175Y-109624000D01*
D48*
X108625000Y-85775000D02*
X108650000Y-85800000D01*
D47*
X129475000Y-88425000D02*
X129500000Y-88400000D01*
X177616000Y-99624000D02*
X178455502Y-99624000D01*
D48*
X107036750Y-90275000D02*
X108725000Y-90275000D01*
D47*
X143024000Y-117624000D02*
X143000000Y-117600000D01*
D50*
X199786000Y-123078000D02*
X202481000Y-125773000D01*
D47*
X132475000Y-88375000D02*
X132500000Y-88350000D01*
X141276000Y-105624000D02*
X141300000Y-105600000D01*
X142826000Y-118824000D02*
X142350000Y-119300000D01*
X141276000Y-106824000D02*
X141300000Y-106800000D01*
X143696000Y-102024000D02*
X144476000Y-102024000D01*
X178384000Y-111224000D02*
X178530000Y-111370000D01*
X98242000Y-113458000D02*
X98250000Y-113450000D01*
D48*
X199544000Y-80144000D02*
X199550000Y-80150000D01*
D47*
X174059000Y-103624000D02*
X173958001Y-103523001D01*
X132475000Y-89986750D02*
X132475000Y-91675000D01*
X130975000Y-88425000D02*
X130950000Y-88400000D01*
X140616000Y-118824000D02*
X141224000Y-118824000D01*
X140616000Y-105624000D02*
X141276000Y-105624000D01*
X139924000Y-103224000D02*
X139900000Y-103200000D01*
X129475000Y-91775000D02*
X129500000Y-91800000D01*
X141276000Y-108024000D02*
X141300000Y-108000000D01*
X143696000Y-105624000D02*
X142924000Y-105624000D01*
D48*
X102440000Y-101560000D02*
X102450000Y-101550000D01*
D47*
X140616000Y-102024000D02*
X139876000Y-102024000D01*
D48*
X108725000Y-90275000D02*
X108750000Y-90300000D01*
D47*
X139876000Y-102024000D02*
X139800000Y-102100000D01*
X140616000Y-108024000D02*
X141276000Y-108024000D01*
X102588000Y-111212000D02*
X102600000Y-111200000D01*
X132475000Y-91675000D02*
X132500000Y-91700000D01*
X143696000Y-104424000D02*
X142924000Y-104424000D01*
D48*
X211469209Y-82976000D02*
X211493351Y-83000142D01*
X107036750Y-90275000D02*
X105325000Y-90275000D01*
D47*
X178451415Y-100824000D02*
X178465988Y-100809427D01*
X143696000Y-114024000D02*
X143024000Y-114024000D01*
X173946000Y-107624000D02*
X173930000Y-107640000D01*
D50*
X199771000Y-123078000D02*
X199786000Y-123078000D01*
D48*
X107036750Y-85775000D02*
X105404412Y-85775000D01*
D47*
X173958001Y-102128001D02*
X173860000Y-102030000D01*
X140616000Y-103224000D02*
X139924000Y-103224000D01*
D48*
X98226000Y-101897500D02*
X98226000Y-101924000D01*
D47*
X177616000Y-110024000D02*
X178466000Y-110024000D01*
X174536000Y-112424000D02*
X175282702Y-112424000D01*
X140616000Y-110424000D02*
X141324383Y-110424000D01*
X177616000Y-106024000D02*
X175846000Y-106024000D01*
D49*
X210794000Y-91556000D02*
X210800000Y-91550000D01*
D48*
X108625000Y-87275000D02*
X108650000Y-87250000D01*
D47*
X143696000Y-111624000D02*
X143024000Y-111624000D01*
X140616000Y-100824000D02*
X141276000Y-100824000D01*
X174974000Y-118824000D02*
X175250000Y-119100000D01*
X173866000Y-99624000D02*
X173860000Y-99630000D01*
X174536000Y-114024000D02*
X173414000Y-114024000D01*
X142974031Y-112824000D02*
X142972821Y-112822790D01*
D48*
X98227500Y-103822500D02*
X98250000Y-103800000D01*
D47*
X178664000Y-112424000D02*
X178760000Y-112520000D01*
X129475000Y-89986750D02*
X129475000Y-91775000D01*
X143024000Y-111624000D02*
X143000000Y-111600000D01*
X178506000Y-102024000D02*
X178510000Y-102020000D01*
D48*
X208704000Y-79696000D02*
X208700000Y-79700000D01*
D47*
X141224000Y-118824000D02*
X141350000Y-118950000D01*
X144476000Y-103224000D02*
X144500000Y-103200000D01*
X127975000Y-91725000D02*
X128000000Y-91750000D01*
X126475000Y-88375000D02*
X126500000Y-88350000D01*
X101312000Y-111212000D02*
X102588000Y-111212000D01*
D48*
X210809000Y-82976000D02*
X211469209Y-82976000D01*
D50*
X199790000Y-105608000D02*
X202500000Y-108318000D01*
D47*
X143696000Y-110424000D02*
X143024000Y-110424000D01*
X143696000Y-112824000D02*
X142974031Y-112824000D01*
X174074000Y-111224000D02*
X173700000Y-110850000D01*
X140616000Y-114024000D02*
X141324383Y-114024000D01*
X141324383Y-110424000D02*
X141328388Y-110428005D01*
X143696000Y-117624000D02*
X143024000Y-117624000D01*
X173958001Y-103523001D02*
X173958001Y-102128001D01*
X174536000Y-102024000D02*
X173866000Y-102024000D01*
X174536000Y-105624000D02*
X173926000Y-105624000D01*
X98242000Y-111392000D02*
X98200000Y-111350000D01*
X145576000Y-100824000D02*
X145600000Y-100800000D01*
X143124000Y-115224000D02*
X143100000Y-115200000D01*
X143696000Y-115224000D02*
X143124000Y-115224000D01*
X177616000Y-104024000D02*
X178026000Y-104024000D01*
D49*
X199544000Y-91956000D02*
X199550000Y-91950000D01*
D47*
X143696000Y-118824000D02*
X142826000Y-118824000D01*
X143696000Y-106824000D02*
X142924000Y-106824000D01*
X177616000Y-113624000D02*
X178234000Y-113624000D01*
D48*
X98226000Y-101924000D02*
X98200000Y-101950000D01*
X108625000Y-84275000D02*
X108650000Y-84300000D01*
D47*
X174536000Y-107624000D02*
X173946000Y-107624000D01*
D48*
X107036750Y-84275000D02*
X108625000Y-84275000D01*
X107036750Y-88775000D02*
X108675000Y-88775000D01*
D47*
X142924000Y-106824000D02*
X142900000Y-106800000D01*
X141276000Y-111624000D02*
X141300000Y-111600000D01*
X144476000Y-102024000D02*
X144500000Y-102000000D01*
D48*
X199544000Y-79616000D02*
X199544000Y-80144000D01*
D47*
X129475000Y-89986750D02*
X129475000Y-88425000D01*
X174536000Y-111224000D02*
X174074000Y-111224000D01*
X178026000Y-104024000D02*
X178650000Y-103400000D01*
X140616000Y-115224000D02*
X141276000Y-115224000D01*
X177616000Y-108024000D02*
X177026000Y-108024000D01*
X132475000Y-89986750D02*
X132475000Y-88375000D01*
X140616000Y-106824000D02*
X141276000Y-106824000D01*
X130975000Y-89986750D02*
X130975000Y-88425000D01*
D49*
X210794000Y-92356000D02*
X210794000Y-91556000D01*
D47*
X126475000Y-91675000D02*
X126450000Y-91700000D01*
X127975000Y-88375000D02*
X128000000Y-88350000D01*
X126475000Y-89986750D02*
X126475000Y-88375000D01*
X175846000Y-106024000D02*
X175710000Y-106160000D01*
X109725000Y-92775000D02*
X107036750Y-92775000D01*
X110200000Y-93250000D02*
X109725000Y-92775000D01*
X120800000Y-93400000D02*
X123100000Y-93400000D01*
X123975000Y-92525000D02*
X123975000Y-89986750D01*
X120550000Y-93650000D02*
X120800000Y-93400000D01*
X123100000Y-93400000D02*
X123975000Y-92525000D01*
X110200000Y-95200000D02*
X110200000Y-93250000D01*
X176824000Y-116024000D02*
X176820000Y-116020000D01*
X177616000Y-115624000D02*
X178094000Y-115624000D01*
X177616000Y-116024000D02*
X176824000Y-116024000D01*
X177714000Y-114824000D02*
X178320000Y-115430000D01*
X177116000Y-115224000D02*
X176790000Y-115550000D01*
X177616000Y-115224000D02*
X177116000Y-115224000D01*
X177616000Y-116424000D02*
X178286000Y-116424000D01*
X177616000Y-116824000D02*
X177214000Y-116824000D01*
X177616000Y-114824000D02*
X177714000Y-114824000D01*
X178094000Y-115624000D02*
X178340000Y-115870000D01*
X177214000Y-116824000D02*
X176850000Y-116460000D01*
X178286000Y-116424000D02*
X178310000Y-116400000D01*
D48*
X144231001Y-105214000D02*
X144221001Y-105224000D01*
X144700166Y-105214000D02*
X144231001Y-105214000D01*
X144989080Y-105502914D02*
X144700166Y-105214000D01*
X144989080Y-105665512D02*
X144989080Y-105502914D01*
X144221001Y-105224000D02*
X143696000Y-105224000D01*
X145689080Y-105665512D02*
X144857568Y-104834000D01*
X144231001Y-104834000D02*
X144221001Y-104824000D01*
X144221001Y-104824000D02*
X143696000Y-104824000D01*
X144857568Y-104834000D02*
X144231001Y-104834000D01*
X146676512Y-105152512D02*
X145538000Y-104014000D01*
X144231001Y-104014000D02*
X144221001Y-104024000D01*
X144221001Y-104024000D02*
X143696000Y-104024000D01*
X145538000Y-104014000D02*
X144231001Y-104014000D01*
X147276023Y-105400839D02*
X147276023Y-104904185D01*
X146086339Y-103714501D02*
X143786501Y-103714501D01*
X147276023Y-104904185D02*
X146086339Y-103714501D01*
X147171488Y-105505374D02*
X147276023Y-105400839D01*
X147171488Y-105647488D02*
X147171488Y-105505374D01*
X143786501Y-103714501D02*
X143696000Y-103624000D01*
X148708512Y-105152512D02*
X146341499Y-102785499D01*
X143734501Y-102785499D02*
X143696000Y-102824000D01*
X146341499Y-102785499D02*
X143734501Y-102785499D01*
X149308023Y-104904185D02*
X148956839Y-104553001D01*
X148956839Y-104553001D02*
X148646403Y-104553001D01*
X144221001Y-102424000D02*
X143696000Y-102424000D01*
X149203488Y-105505374D02*
X149308023Y-105400839D01*
X144231001Y-102434000D02*
X144221001Y-102424000D01*
X148646403Y-104553001D02*
X146527402Y-102434000D01*
X149308023Y-105400839D02*
X149308023Y-104904185D01*
X149203488Y-105647488D02*
X149203488Y-105505374D01*
X146527402Y-102434000D02*
X144231001Y-102434000D01*
X142135000Y-118065000D02*
X141800000Y-118400000D01*
X141226000Y-118424000D02*
X140616000Y-118424000D01*
X141250000Y-118400000D02*
X141226000Y-118424000D01*
X141800000Y-118400000D02*
X141250000Y-118400000D01*
X142150000Y-118065000D02*
X142135000Y-118065000D01*
X142150000Y-118735000D02*
X142165000Y-118735000D01*
X141913000Y-117550000D02*
X141439000Y-118024000D01*
X141439000Y-118024000D02*
X140616000Y-118024000D01*
X142700000Y-117950000D02*
X142300000Y-117550000D01*
X142300000Y-117550000D02*
X141913000Y-117550000D01*
X142165000Y-118735000D02*
X142700000Y-118200000D01*
X142700000Y-118200000D02*
X142700000Y-117950000D01*
X144513119Y-118731821D02*
X144195298Y-118414000D01*
X144513119Y-119786881D02*
X144513119Y-118731821D01*
X144195298Y-118414000D02*
X143956000Y-118414000D01*
X143956000Y-118414000D02*
X143946000Y-118424000D01*
X143946000Y-118424000D02*
X143696000Y-118424000D01*
X143946000Y-118024000D02*
X143696000Y-118024000D01*
X144893120Y-118574418D02*
X144352702Y-118034000D01*
X143956000Y-118034000D02*
X143946000Y-118024000D01*
X144893120Y-119219358D02*
X144893120Y-118574418D01*
X144352702Y-118034000D02*
X143956000Y-118034000D01*
X144986881Y-119313119D02*
X144893120Y-119219358D01*
X145465000Y-117850000D02*
X145465000Y-117717402D01*
X145465000Y-117717402D02*
X144961598Y-117214000D01*
X144961598Y-117214000D02*
X144231001Y-117214000D01*
X144221001Y-117224000D02*
X143696000Y-117224000D01*
X144231001Y-117214000D02*
X144221001Y-117224000D01*
X144231001Y-116834000D02*
X144221001Y-116824000D01*
X144221001Y-116824000D02*
X143696000Y-116824000D01*
X146135000Y-117850000D02*
X145119000Y-116834000D01*
X145119000Y-116834000D02*
X144231001Y-116834000D01*
X144944000Y-116024000D02*
X144944000Y-116214000D01*
X144231001Y-116014000D02*
X144934000Y-116014000D01*
X145964000Y-116214000D02*
X145964000Y-116024000D01*
X145974000Y-116014000D02*
X146214000Y-116014000D01*
X145334000Y-116604000D02*
X145574000Y-116604000D01*
X144221001Y-116024000D02*
X144231001Y-116014000D01*
X143696000Y-116024000D02*
X144221001Y-116024000D01*
X146965000Y-116717402D02*
X146965000Y-116850000D01*
X146261598Y-116014000D02*
X146965000Y-116717402D01*
X146214000Y-116014000D02*
X146261598Y-116014000D01*
X145974000Y-116014000D02*
G75*
G03*
X145964000Y-116024000I0J-10000D01*
G01*
X144944000Y-116024000D02*
G75*
G03*
X144934000Y-116014000I-10000J0D01*
G01*
X144944000Y-116214000D02*
G75*
G03*
X145334000Y-116604000I390000J0D01*
G01*
X145574000Y-116604000D02*
G75*
G03*
X145964000Y-116214000I0J390000D01*
G01*
X144231001Y-115634000D02*
X144934000Y-115634000D01*
X145584000Y-116214000D02*
X145584000Y-116024000D01*
X145324000Y-116024000D02*
X145324000Y-116214000D01*
X145334000Y-116224000D02*
X145574000Y-116224000D01*
X144221001Y-115624000D02*
X144231001Y-115634000D01*
X146214000Y-115634000D02*
X146419000Y-115634000D01*
X145974000Y-115634000D02*
X146214000Y-115634000D01*
X143696000Y-115624000D02*
X144221001Y-115624000D01*
X146419000Y-115634000D02*
X147635000Y-116850000D01*
X145324000Y-116214000D02*
G75*
G03*
X145334000Y-116224000I10000J0D01*
G01*
X145574000Y-116224000D02*
G75*
G03*
X145584000Y-116214000I0J10000D01*
G01*
X145324000Y-116024000D02*
G75*
G03*
X144934000Y-115634000I-390000J0D01*
G01*
X145974000Y-115634000D02*
G75*
G03*
X145584000Y-116024000I0J-390000D01*
G01*
X144231001Y-114814000D02*
X144221001Y-114824000D01*
X148838119Y-115688119D02*
X148931880Y-115594358D01*
X144221001Y-114824000D02*
X143696000Y-114824000D01*
X148931880Y-115594358D02*
X148931880Y-115450582D01*
X148931880Y-115450582D02*
X148295298Y-114814000D01*
X148295298Y-114814000D02*
X144231001Y-114814000D01*
X149311881Y-115293179D02*
X148452702Y-114434000D01*
X144221001Y-114424000D02*
X143696000Y-114424000D01*
X148452702Y-114434000D02*
X144231001Y-114434000D01*
X144231001Y-114434000D02*
X144221001Y-114424000D01*
X149311881Y-116161881D02*
X149311881Y-115293179D01*
D51*
X209200000Y-85200000D02*
X210785000Y-85200000D01*
X210785000Y-85200000D02*
X210809000Y-85176000D01*
D47*
X185750000Y-118600000D02*
X186800000Y-118600000D01*
X185250000Y-121150000D02*
X185250000Y-119100000D01*
X178093000Y-118024000D02*
X178400000Y-118331000D01*
X178400000Y-118331000D02*
X178400000Y-118950000D01*
X185250000Y-119100000D02*
X185750000Y-118600000D01*
X180350000Y-121000000D02*
X180350000Y-121140000D01*
X184700000Y-121700000D02*
X185250000Y-121150000D01*
X180350000Y-121140000D02*
X180910000Y-121700000D01*
X180910000Y-121700000D02*
X184700000Y-121700000D01*
X177616000Y-118024000D02*
X178093000Y-118024000D01*
X177616000Y-119224000D02*
X176824000Y-119224000D01*
X179618305Y-119388001D02*
X177780001Y-119388001D01*
X185000000Y-111100000D02*
X185000000Y-115000000D01*
X184356033Y-115556729D02*
X182856250Y-117056511D01*
X177780001Y-119388001D02*
X177616000Y-119224000D01*
X185000000Y-115000000D02*
X184443271Y-115556729D01*
X182856250Y-117056511D02*
X181949795Y-117056511D01*
X184443271Y-115556729D02*
X184356033Y-115556729D01*
X181949795Y-117056511D02*
X179618305Y-119388001D01*
X186550000Y-109550000D02*
X185000000Y-111100000D01*
X176824000Y-119224000D02*
X176800000Y-119200000D01*
X177616000Y-117224000D02*
X178750959Y-117224000D01*
X183035041Y-113350000D02*
X183843011Y-112542030D01*
X183843011Y-112542030D02*
X183843011Y-111590011D01*
X182624959Y-113350000D02*
X183035041Y-113350000D01*
X182800000Y-110547000D02*
X182800000Y-109570000D01*
X183843011Y-111590011D02*
X182800000Y-110547000D01*
X178750959Y-117224000D02*
X182624959Y-113350000D01*
X182800000Y-114650000D02*
X181806511Y-115643489D01*
X178876000Y-117624000D02*
X177616000Y-117624000D01*
X180856511Y-115643489D02*
X178876000Y-117624000D01*
X181806511Y-115643489D02*
X180856511Y-115643489D01*
D48*
X134254669Y-96904669D02*
X134254670Y-96904670D01*
X132578823Y-94960121D02*
X132998097Y-94540844D01*
X134747563Y-98221973D02*
X134747563Y-98221974D01*
X133842464Y-97316874D02*
X133842464Y-97316875D01*
X134389021Y-96770319D02*
X134808295Y-96351042D01*
X132444472Y-95094472D02*
X132578823Y-94960121D01*
X131915000Y-91996751D02*
X131915000Y-94296298D01*
X134254670Y-96904670D02*
X134389021Y-96770319D01*
X131848419Y-95506678D02*
X131848419Y-95506677D01*
X133842464Y-97316875D02*
X134254669Y-96904669D01*
X135529548Y-97072295D02*
X135529548Y-97072294D01*
X132032266Y-95506676D02*
X132032266Y-95506677D01*
X132034350Y-95136899D02*
X132034350Y-95136900D01*
X133349570Y-95999570D02*
X133349571Y-95999571D01*
X132034350Y-95136900D02*
X131848419Y-95322830D01*
X134624449Y-96167196D02*
X134624449Y-96167195D01*
X135529548Y-97072294D02*
X134563716Y-98038127D01*
X139502702Y-108424000D02*
X140616000Y-108424000D01*
X132444471Y-95094471D02*
X132444472Y-95094472D01*
X138890000Y-107171298D02*
X138890000Y-107811298D01*
X132032266Y-95506677D02*
X132444471Y-95094471D01*
X134624449Y-96167195D02*
X133658617Y-97133028D01*
X133719350Y-95262096D02*
X132753518Y-96227929D01*
X133719350Y-95262097D02*
X133719350Y-95262096D01*
X132753519Y-96411776D02*
X132753518Y-96411776D01*
X132937365Y-96411776D02*
X133349570Y-95999570D01*
X137140000Y-105421298D02*
X138890000Y-107171298D01*
X131915000Y-94296298D02*
X132034350Y-94415649D01*
X138890000Y-107811298D02*
X139502702Y-108424000D01*
X137140000Y-99521298D02*
X137140000Y-105421298D01*
X134563717Y-98221974D02*
X134563716Y-98221974D01*
X134747563Y-98221974D02*
X134933493Y-98036043D01*
X133483922Y-95865220D02*
X133903196Y-95445943D01*
X135654745Y-98036043D02*
X135654744Y-98036043D01*
X135654744Y-98036043D02*
X137140000Y-99521298D01*
X133658618Y-97316875D02*
X133658617Y-97316875D01*
X133349571Y-95999571D02*
X133483922Y-95865220D01*
X131975000Y-89986750D02*
X131975000Y-91936751D01*
X132937365Y-96411775D02*
X132937365Y-96411776D01*
X131975000Y-91936751D02*
X131915000Y-91996751D01*
X132753477Y-96411817D02*
G75*
G03*
X132937365Y-96411775I91923J91917D01*
G01*
X134563666Y-98038077D02*
G75*
G03*
X134563717Y-98221974I91934J-91923D01*
G01*
X133719379Y-95262126D02*
G75*
G03*
X133719351Y-94540846I-360679J360626D01*
G01*
X131848465Y-95322876D02*
G75*
G03*
X131848419Y-95506678I91835J-91924D01*
G01*
X134563677Y-98222013D02*
G75*
G03*
X134747563Y-98221973I91923J92013D01*
G01*
X135529579Y-97072326D02*
G75*
G03*
X135529549Y-96351044I-360679J360626D01*
G01*
X135654744Y-98036044D02*
G75*
G03*
X134933494Y-98036044I-360625J-360626D01*
G01*
X134624428Y-95445967D02*
G75*
G03*
X133903196Y-95445943I-360628J-360633D01*
G01*
X133719328Y-94540869D02*
G75*
G03*
X132998097Y-94540844I-360628J-360631D01*
G01*
X132034375Y-95136924D02*
G75*
G03*
X132034349Y-94415650I-360675J360624D01*
G01*
X134624479Y-96167226D02*
G75*
G03*
X134624450Y-95445945I-360679J360626D01*
G01*
X131848378Y-95506718D02*
G75*
G03*
X132032265Y-95506675I91922J91918D01*
G01*
X133658667Y-97133078D02*
G75*
G03*
X133658619Y-97316874I91833J-91922D01*
G01*
X135529527Y-96351066D02*
G75*
G03*
X134808296Y-96351043I-360627J-360634D01*
G01*
X132753567Y-96227978D02*
G75*
G03*
X132753520Y-96411775I91833J-91922D01*
G01*
X133658578Y-97316914D02*
G75*
G03*
X133842463Y-97316873I91922J92014D01*
G01*
X131475000Y-91936751D02*
X131535000Y-91996751D01*
X131535000Y-94453702D02*
X131765649Y-94684350D01*
X134295015Y-98490676D02*
X134295014Y-98490676D01*
X135260846Y-96803592D02*
X134295014Y-97769425D01*
X135386042Y-98304745D02*
X136760000Y-99678702D01*
X131765649Y-94868198D02*
X131579718Y-95054128D01*
X138510000Y-107328702D02*
X138510000Y-107968702D01*
X135260846Y-96803593D02*
X135260846Y-96803592D01*
X134111166Y-97585576D02*
X134111166Y-97585577D01*
X136760000Y-105578702D02*
X138510000Y-107328702D01*
X135016265Y-98490675D02*
X135016265Y-98490676D01*
X133389916Y-97585577D02*
X133389915Y-97585577D01*
X135386043Y-98304745D02*
X135386042Y-98304745D01*
X131535000Y-91996751D02*
X131535000Y-94453702D01*
X134657723Y-97039022D02*
X135076999Y-96619746D01*
X133206067Y-96680478D02*
X133618272Y-96268272D01*
X135016265Y-98490676D02*
X135202195Y-98304745D01*
X131579718Y-95775380D02*
X131579718Y-95775379D01*
X132300969Y-95775378D02*
X132300969Y-95775379D01*
X132484817Y-96680478D02*
X132484816Y-96680478D01*
X134111166Y-97585577D02*
X134523371Y-97173371D01*
X133206067Y-96680477D02*
X133206067Y-96680478D01*
X134523371Y-97173371D02*
X134657723Y-97039022D01*
X134355747Y-95898493D02*
X133389915Y-96864326D01*
X131475000Y-89986750D02*
X131475000Y-91936751D01*
X133450648Y-94993395D02*
X133450648Y-94993394D01*
X132300969Y-95775379D02*
X132713173Y-95363173D01*
X136760000Y-99678702D02*
X136760000Y-105578702D01*
X133618272Y-96268272D02*
X133752624Y-96133923D01*
X134355747Y-95898494D02*
X134355747Y-95898493D01*
X132847525Y-95228824D02*
X133266801Y-94809548D01*
X133752624Y-96133923D02*
X134171900Y-95714647D01*
X139365298Y-108824000D02*
X140616000Y-108824000D01*
X132713173Y-95363173D02*
X132847525Y-95228824D01*
X138510000Y-107968702D02*
X139365298Y-108824000D01*
X133450648Y-94993394D02*
X132484816Y-95959227D01*
X133389965Y-96864376D02*
G75*
G03*
X133389917Y-97585576I360535J-360624D01*
G01*
X133389876Y-97585616D02*
G75*
G03*
X134111165Y-97585575I360624J360716D01*
G01*
X132484865Y-95959276D02*
G75*
G03*
X132484818Y-96680477I360535J-360624D01*
G01*
X134294975Y-98490715D02*
G75*
G03*
X135016265Y-98490675I360625J360715D01*
G01*
X135260877Y-96803624D02*
G75*
G03*
X135260847Y-96619746I-91977J91924D01*
G01*
X131765675Y-94868224D02*
G75*
G03*
X131765649Y-94684350I-91975J91924D01*
G01*
X132484775Y-96680519D02*
G75*
G03*
X133206067Y-96680477I360625J360619D01*
G01*
X131579675Y-95775422D02*
G75*
G03*
X132300969Y-95775378I360625J360622D01*
G01*
X134355777Y-95898524D02*
G75*
G03*
X134355748Y-95714647I-91977J91924D01*
G01*
X133450648Y-94809549D02*
G75*
G03*
X133266802Y-94809549I-91923J-91924D01*
G01*
X135260846Y-96619747D02*
G75*
G03*
X135077000Y-96619747I-91923J-91924D01*
G01*
X133450677Y-94993424D02*
G75*
G03*
X133450649Y-94809548I-91977J91924D01*
G01*
X131579764Y-95054174D02*
G75*
G03*
X131579718Y-95775380I360536J-360626D01*
G01*
X134294964Y-97769375D02*
G75*
G03*
X134295015Y-98490676I360636J-360625D01*
G01*
X134355747Y-95714648D02*
G75*
G03*
X134171901Y-95714648I-91923J-91924D01*
G01*
X135386042Y-98304746D02*
G75*
G03*
X135202196Y-98304746I-91923J-91924D01*
G01*
X133995395Y-99702502D02*
X134094391Y-99801498D01*
X131463945Y-97086201D02*
X131598295Y-96951850D01*
X131315452Y-96046751D02*
X131414449Y-96145748D01*
X135071600Y-102540000D02*
X135071600Y-102803200D01*
X133224647Y-98578200D02*
X133224647Y-98578201D01*
X130509350Y-95862904D02*
X130374999Y-95997254D01*
X130374998Y-96082105D02*
X130374999Y-96082106D01*
X131414449Y-96768003D02*
X131280098Y-96902353D01*
X134030748Y-98762047D02*
X134030749Y-98762048D01*
X132185197Y-97892304D02*
X132284193Y-97991300D01*
X137790000Y-107921298D02*
X137790000Y-108641298D01*
X133090296Y-98797403D02*
X133189292Y-98896399D01*
X132369045Y-97991300D02*
X132369044Y-97991300D01*
X135437897Y-100169194D02*
X135640000Y-100371298D01*
X136406800Y-101966800D02*
X136406800Y-102030000D01*
X130374999Y-96082106D02*
X130473995Y-96181102D01*
X133125650Y-97856949D02*
X133224647Y-97955946D01*
X132220551Y-96951850D02*
X132319548Y-97050847D01*
X130475000Y-89986750D02*
X130475000Y-91936751D01*
X135738400Y-101488400D02*
X135928400Y-101488400D01*
X137790000Y-108641298D02*
X138782702Y-109634000D01*
X130558847Y-96181102D02*
X130558846Y-96181102D01*
X135640000Y-105771298D02*
X137790000Y-107921298D01*
X133274144Y-98896399D02*
X133274143Y-98896399D01*
X135450000Y-102508400D02*
X135450000Y-102540000D01*
X131414449Y-96768002D02*
X131414449Y-96768003D01*
X131463946Y-97086201D02*
X131463945Y-97086201D01*
X138782702Y-109634000D02*
X140080999Y-109634000D01*
X131280097Y-96987204D02*
X131280098Y-96987205D01*
X134129746Y-99483300D02*
X133995395Y-99617650D01*
X135640000Y-100371298D02*
X135640000Y-101390000D01*
X130475000Y-91936751D02*
X130415000Y-91996751D01*
X133995394Y-99702501D02*
X133995395Y-99702502D01*
X132319548Y-97673102D02*
X132185197Y-97807452D01*
X132369044Y-97991300D02*
X132503394Y-97856949D01*
X135738400Y-102508400D02*
X135450000Y-102508400D01*
X135685383Y-99737859D02*
X135437897Y-99985346D01*
X132220550Y-96951849D02*
X132220551Y-96951850D01*
X135640000Y-104303954D02*
X135640000Y-105771298D01*
X132319548Y-97673101D02*
X132319548Y-97673102D01*
X133125649Y-97856948D02*
X133125650Y-97856949D01*
X140080999Y-109634000D02*
X140090999Y-109624000D01*
X131280098Y-96987205D02*
X131379094Y-97086201D01*
X130558846Y-96181102D02*
X130693196Y-96046751D01*
X134129746Y-99483299D02*
X134129746Y-99483300D01*
X140090999Y-109624000D02*
X140616000Y-109624000D01*
X131315451Y-96046750D02*
X131315452Y-96046751D01*
X133274143Y-98896399D02*
X133408493Y-98762048D01*
X130509350Y-95862903D02*
X130509350Y-95862904D01*
X135685383Y-99737860D02*
X135685383Y-99737859D01*
X134030749Y-98762048D02*
X134129746Y-98861045D01*
X134179242Y-99801498D02*
X134964130Y-99016607D01*
X132185196Y-97892303D02*
X132185197Y-97892304D01*
X134179243Y-99801498D02*
X134179242Y-99801498D01*
X133090295Y-98797402D02*
X133090296Y-98797403D01*
X130415000Y-91996751D02*
X130415000Y-95146298D01*
X135071600Y-102803200D02*
X135261600Y-102803200D01*
X133224647Y-98578201D02*
X133090296Y-98712551D01*
X135640000Y-103181600D02*
X135640000Y-104303954D01*
X135928400Y-102508400D02*
X135738400Y-102508400D01*
X130415000Y-95146298D02*
X130509350Y-95240649D01*
X135450000Y-102540000D02*
X135071600Y-102540000D01*
X130509374Y-95862927D02*
G75*
G03*
X130509350Y-95240649I-311174J311127D01*
G01*
X135928400Y-102508400D02*
G75*
G03*
X136406800Y-102030000I0J478400D01*
G01*
X135685427Y-99016566D02*
G75*
G03*
X134964131Y-99016608I-360627J-360634D01*
G01*
X131280119Y-96902374D02*
G75*
G03*
X131280097Y-96987204I42381J-42426D01*
G01*
X133125627Y-97856970D02*
G75*
G03*
X132503394Y-97856949I-311127J-311130D01*
G01*
X132284193Y-97991300D02*
G75*
G03*
X132369045Y-97991300I42426J42427D01*
G01*
X132319574Y-97673127D02*
G75*
G03*
X132319548Y-97050847I-311174J311127D01*
G01*
X135640000Y-103181600D02*
G75*
G03*
X135261600Y-102803200I-378400J0D01*
G01*
X132220526Y-96951873D02*
G75*
G03*
X131598296Y-96951851I-311126J-311127D01*
G01*
X130473995Y-96181102D02*
G75*
G03*
X130558847Y-96181102I42426J42427D01*
G01*
X133090319Y-98712574D02*
G75*
G03*
X133090295Y-98797402I42381J-42426D01*
G01*
X135640000Y-101390000D02*
G75*
G03*
X135738400Y-101488400I98400J0D01*
G01*
X133189292Y-98896399D02*
G75*
G03*
X133274144Y-98896399I42426J42427D01*
G01*
X135437927Y-99985376D02*
G75*
G03*
X135437897Y-100169194I91873J-91924D01*
G01*
X132185219Y-97807474D02*
G75*
G03*
X132185196Y-97892303I42381J-42426D01*
G01*
X136406800Y-101966800D02*
G75*
G03*
X135928400Y-101488400I-478400J0D01*
G01*
X131414474Y-96768027D02*
G75*
G03*
X131414449Y-96145748I-311174J311127D01*
G01*
X134030727Y-98762068D02*
G75*
G03*
X133408493Y-98762048I-311127J-311132D01*
G01*
X134129774Y-99483327D02*
G75*
G03*
X134129746Y-98861045I-311174J311127D01*
G01*
X133995419Y-99617674D02*
G75*
G03*
X133995394Y-99702501I42381J-42426D01*
G01*
X131315427Y-96046774D02*
G75*
G03*
X130693196Y-96046751I-311127J-311126D01*
G01*
X134094391Y-99801498D02*
G75*
G03*
X134179243Y-99801498I42426J42427D01*
G01*
X133224674Y-98578227D02*
G75*
G03*
X133224647Y-97955946I-311174J311127D01*
G01*
X130375019Y-95997274D02*
G75*
G03*
X130374998Y-96082105I42381J-42426D01*
G01*
X131379094Y-97086201D02*
G75*
G03*
X131463946Y-97086201I42426J42427D01*
G01*
X135685348Y-99737825D02*
G75*
G03*
X135685383Y-99016610I-360548J360625D01*
G01*
X134693200Y-102538400D02*
X134693200Y-102801600D01*
X131732649Y-97354903D02*
X131732648Y-97354903D01*
X132856949Y-98125651D02*
X132955946Y-98224647D01*
X133542846Y-99165101D02*
X133677196Y-99030750D01*
X136026800Y-101966800D02*
X136026800Y-102030000D01*
X134447945Y-100070200D02*
X134759071Y-99759071D01*
X140080999Y-110014000D02*
X140090999Y-110024000D01*
X131046751Y-96315453D02*
X131145748Y-96414449D01*
X131011396Y-97255906D02*
X131011397Y-97255907D01*
X131951849Y-97220551D02*
X131951850Y-97220552D01*
X133726693Y-99971203D02*
X133726694Y-99971204D01*
X130035000Y-95303702D02*
X130240649Y-95509350D01*
X138625298Y-110014000D02*
X140080999Y-110014000D01*
X137410000Y-108798702D02*
X138625298Y-110014000D01*
X131916495Y-98161005D02*
X131916496Y-98161006D01*
X135416681Y-99469158D02*
X135416681Y-99469157D01*
X135450000Y-102160000D02*
X135071600Y-102160000D01*
X131011397Y-97255907D02*
X131110393Y-97354903D01*
X135260000Y-105928702D02*
X137410000Y-108078702D01*
X135261600Y-103180000D02*
X135260000Y-104303954D01*
X130240649Y-95594202D02*
X130106298Y-95728552D01*
X137410000Y-108078702D02*
X137410000Y-108798702D01*
X135071600Y-103180000D02*
X135261600Y-103180000D01*
X131951850Y-97220552D02*
X132050847Y-97319548D01*
X131145748Y-96499301D02*
X131011397Y-96633651D01*
X132821594Y-99066104D02*
X132821595Y-99066105D01*
X140090999Y-110024000D02*
X140616000Y-110024000D01*
X133726694Y-99971204D02*
X133825690Y-100070200D01*
X131732648Y-97354903D02*
X131866998Y-97220552D01*
X130035000Y-91996751D02*
X130035000Y-95303702D01*
X132821595Y-99066105D02*
X132920591Y-99165101D01*
X131916496Y-98161006D02*
X132015492Y-98260002D01*
X133762047Y-99030749D02*
X133762048Y-99030750D01*
X133762048Y-99030750D02*
X133861045Y-99129746D01*
X135260000Y-104303954D02*
X135260000Y-105928702D01*
X135450000Y-102128400D02*
X135450000Y-102160000D01*
X135169195Y-100437896D02*
X135260000Y-100528702D01*
X129975000Y-89986750D02*
X129975000Y-91936751D01*
X132050847Y-97404400D02*
X131916496Y-97538750D01*
X130106297Y-96350807D02*
X130106298Y-96350808D01*
X135260000Y-100528702D02*
X135260000Y-101390000D01*
X132637748Y-98260002D02*
X132637747Y-98260002D01*
X129975000Y-91936751D02*
X130035000Y-91996751D01*
X132856948Y-98125650D02*
X132856949Y-98125651D01*
X132637747Y-98260002D02*
X132772097Y-98125651D01*
X131046750Y-96315452D02*
X131046751Y-96315453D01*
X130827549Y-96449804D02*
X130961899Y-96315453D01*
X135416681Y-99469157D02*
X135169195Y-99716644D01*
X130106298Y-96350808D02*
X130205294Y-96449804D01*
X134447946Y-100070200D02*
X134447945Y-100070200D01*
X130827550Y-96449804D02*
X130827549Y-96449804D01*
X135928400Y-102128400D02*
X135738400Y-102128400D01*
X135738400Y-102128400D02*
X135450000Y-102128400D01*
X132955946Y-98309499D02*
X132821595Y-98443849D01*
X135738400Y-101868400D02*
X135928400Y-101868400D01*
X133542847Y-99165101D02*
X133542846Y-99165101D01*
X134850996Y-99667149D02*
X135232834Y-99285311D01*
X133861045Y-99214598D02*
X133726694Y-99348948D01*
X134759071Y-99759071D02*
X134850996Y-99667149D01*
X131046725Y-96315477D02*
G75*
G03*
X130961899Y-96315453I-42425J-42423D01*
G01*
X130205294Y-96449804D02*
G75*
G03*
X130827550Y-96449804I311128J311129D01*
G01*
X133825690Y-100070200D02*
G75*
G03*
X134447946Y-100070200I311128J311129D01*
G01*
X132920591Y-99165101D02*
G75*
G03*
X133542847Y-99165101I311128J311129D01*
G01*
X134693200Y-102801600D02*
G75*
G03*
X135071600Y-103180000I378400J0D01*
G01*
X130240673Y-95594226D02*
G75*
G03*
X130240649Y-95509350I-42473J42426D01*
G01*
X131110393Y-97354903D02*
G75*
G03*
X131732649Y-97354903I311128J311129D01*
G01*
X135071600Y-102160000D02*
G75*
G03*
X134693200Y-102538400I0J-378400D01*
G01*
X135416681Y-99285312D02*
G75*
G03*
X135232835Y-99285312I-91923J-91924D01*
G01*
X132015492Y-98260002D02*
G75*
G03*
X132637748Y-98260002I311128J311129D01*
G01*
X130106319Y-95728573D02*
G75*
G03*
X130106298Y-96350806I311081J-311127D01*
G01*
X132050873Y-97404426D02*
G75*
G03*
X132050847Y-97319548I-42473J42426D01*
G01*
X132955973Y-98309526D02*
G75*
G03*
X132955946Y-98224647I-42473J42426D01*
G01*
X135260000Y-101390000D02*
G75*
G03*
X135738400Y-101868400I478400J0D01*
G01*
X135416646Y-99469123D02*
G75*
G03*
X135416681Y-99285312I-91846J91923D01*
G01*
X131145773Y-96499326D02*
G75*
G03*
X131145748Y-96414449I-42473J42426D01*
G01*
X135169225Y-99716674D02*
G75*
G03*
X135169195Y-100437896I360575J-360626D01*
G01*
X133726719Y-99348973D02*
G75*
G03*
X133726694Y-99971202I311081J-311127D01*
G01*
X131916519Y-97538773D02*
G75*
G03*
X131916496Y-98161004I311081J-311127D01*
G01*
X135928400Y-102128400D02*
G75*
G03*
X136026800Y-102030000I0J98400D01*
G01*
X132856925Y-98125673D02*
G75*
G03*
X132772097Y-98125651I-42425J-42427D01*
G01*
X131951825Y-97220575D02*
G75*
G03*
X131866998Y-97220552I-42425J-42425D01*
G01*
X131011419Y-96633673D02*
G75*
G03*
X131011397Y-97255905I311081J-311127D01*
G01*
X133762024Y-99030772D02*
G75*
G03*
X133677197Y-99030751I-42424J-42428D01*
G01*
X132821619Y-98443873D02*
G75*
G03*
X132821595Y-99066103I311081J-311127D01*
G01*
X136026800Y-101966800D02*
G75*
G03*
X135928400Y-101868400I-98400J0D01*
G01*
X133861073Y-99214626D02*
G75*
G03*
X133861045Y-99129746I-42473J42426D01*
G01*
X138172702Y-110834000D02*
X140080999Y-110834000D01*
X130771390Y-97452688D02*
X134340000Y-101021298D01*
X128205000Y-93355000D02*
X128405000Y-93355000D01*
X129866291Y-96547588D02*
X129866291Y-96547589D01*
X128405000Y-93095000D02*
X128205000Y-93095000D01*
X128949998Y-96558785D02*
X129073154Y-96681941D01*
X129855097Y-97463884D02*
X129978253Y-97587040D01*
X128915000Y-94375000D02*
X128205000Y-94375000D01*
X140080999Y-110834000D02*
X140090999Y-110824000D01*
X129084350Y-96363743D02*
X128949998Y-96498094D01*
X129133845Y-96681942D02*
X129133845Y-96681941D01*
X136590000Y-109251298D02*
X138172702Y-110834000D01*
X128949997Y-96558785D02*
X128949998Y-96558785D01*
X128915000Y-95145000D02*
X128915000Y-95596298D01*
X129133845Y-96681941D02*
X129268196Y-96547589D01*
X128205000Y-94635000D02*
X128405000Y-94635000D01*
X129245000Y-94375000D02*
X128915000Y-94375000D01*
X128975000Y-89986750D02*
X128975000Y-91936751D01*
X129989449Y-97268842D02*
X129855097Y-97403193D01*
X136590000Y-108621298D02*
X136590000Y-109251298D01*
X128975000Y-91936751D02*
X128915000Y-91996751D01*
X128405000Y-93355000D02*
X129245000Y-93355000D01*
X140090999Y-110824000D02*
X140616000Y-110824000D01*
X130038944Y-97587040D02*
X130173295Y-97452688D01*
X134340000Y-106371298D02*
X136590000Y-108621298D01*
X134340000Y-101021298D02*
X134340000Y-106371298D01*
X130771390Y-97452687D02*
X130771390Y-97452688D01*
X129855096Y-97463884D02*
X129855097Y-97463884D01*
X128915000Y-91996751D02*
X128915000Y-92585000D01*
X128915000Y-95596298D02*
X129084350Y-95765649D01*
X129866291Y-96547589D02*
X129989449Y-96670748D01*
X130038944Y-97587041D02*
X130038944Y-97587040D01*
X128075000Y-93225000D02*
G75*
G03*
X128205000Y-93355000I130000J0D01*
G01*
X129978255Y-97587038D02*
G75*
G03*
X130038943Y-97587040I30345J30338D01*
G01*
X129755000Y-93865000D02*
G75*
G03*
X129245000Y-93355000I-510000J0D01*
G01*
X128915000Y-95145000D02*
G75*
G03*
X128405000Y-94635000I-510000J0D01*
G01*
X129245000Y-94375000D02*
G75*
G03*
X129755000Y-93865000I0J510000D01*
G01*
X129855059Y-97403155D02*
G75*
G03*
X129855097Y-97463883I30341J-30345D01*
G01*
X129084354Y-96363747D02*
G75*
G03*
X129084350Y-95765649I-299054J299047D01*
G01*
X128205000Y-94375000D02*
G75*
G03*
X128075000Y-94505000I0J-130000D01*
G01*
X128949959Y-96498055D02*
G75*
G03*
X128949998Y-96558784I30341J-30345D01*
G01*
X130771346Y-97452731D02*
G75*
G03*
X130173296Y-97452689I-299046J-298969D01*
G01*
X128205000Y-93095000D02*
G75*
G03*
X128075000Y-93225000I0J-130000D01*
G01*
X128075000Y-94505000D02*
G75*
G03*
X128205000Y-94635000I130000J0D01*
G01*
X129866247Y-96547632D02*
G75*
G03*
X129268196Y-96547589I-299047J-298968D01*
G01*
X129073154Y-96681941D02*
G75*
G03*
X129133845Y-96681942I30346J30341D01*
G01*
X128405000Y-93095000D02*
G75*
G03*
X128915000Y-92585000I0J510000D01*
G01*
X129989454Y-97268847D02*
G75*
G03*
X129989449Y-96670748I-299054J299047D01*
G01*
X128535000Y-91996751D02*
X128535000Y-92585000D01*
X136210000Y-109408702D02*
X138015298Y-111214000D01*
X128405000Y-93735000D02*
X129245000Y-93735000D01*
X129586396Y-97732586D02*
X129709552Y-97855742D01*
X128475000Y-91936751D02*
X128535000Y-91996751D01*
X129720748Y-97000140D02*
X129586396Y-97134491D01*
X129597590Y-96816290D02*
X129597590Y-96816291D01*
X128205000Y-93735000D02*
X128405000Y-93735000D01*
X129597590Y-96816291D02*
X129720748Y-96939449D01*
X133960000Y-106528702D02*
X136210000Y-108778702D01*
X128815649Y-96095042D02*
X128815649Y-96095041D01*
X128681297Y-96827487D02*
X128804453Y-96950643D01*
X130307647Y-97855743D02*
X130307647Y-97855742D01*
X129402548Y-96950644D02*
X129402548Y-96950643D01*
X129720748Y-97000141D02*
X129720748Y-97000140D01*
X130307647Y-97855742D02*
X130441998Y-97721390D01*
X128405000Y-92715000D02*
X128205000Y-92715000D01*
X129586395Y-97732586D02*
X129586396Y-97732586D01*
X128475000Y-89986750D02*
X128475000Y-91936751D01*
X128535000Y-95753702D02*
X128815649Y-96034350D01*
X128915000Y-93995000D02*
X128205000Y-93995000D01*
X128535000Y-95145000D02*
X128535000Y-95753702D01*
X130625847Y-97844549D02*
X133960000Y-101178702D01*
X128815649Y-96095041D02*
X128681297Y-96229392D01*
X128205000Y-95015000D02*
X128405000Y-95015000D01*
X140080999Y-111214000D02*
X140090999Y-111224000D01*
X130502689Y-97721389D02*
X130502689Y-97721390D01*
X140090999Y-111224000D02*
X140616000Y-111224000D01*
X136210000Y-108778702D02*
X136210000Y-109408702D01*
X130502689Y-97721390D02*
X130625847Y-97844549D01*
X138015298Y-111214000D02*
X140080999Y-111214000D01*
X129402548Y-96950643D02*
X129536899Y-96816291D01*
X128681296Y-96827487D02*
X128681297Y-96827487D01*
X133960000Y-101178702D02*
X133960000Y-106528702D01*
X129245000Y-93995000D02*
X128915000Y-93995000D01*
X128205000Y-93995000D02*
G75*
G03*
X127695000Y-94505000I0J-510000D01*
G01*
X128804453Y-96950643D02*
G75*
G03*
X129402547Y-96950643I299047J299043D01*
G01*
X127695000Y-94505000D02*
G75*
G03*
X128205000Y-95015000I510000J0D01*
G01*
X129586357Y-97134452D02*
G75*
G03*
X129586395Y-97732586I299043J-299048D01*
G01*
X129375000Y-93865000D02*
G75*
G03*
X129245000Y-93735000I-130000J0D01*
G01*
X128405000Y-92715000D02*
G75*
G03*
X128535000Y-92585000I0J130000D01*
G01*
X128681257Y-96229352D02*
G75*
G03*
X128681296Y-96827487I299043J-299048D01*
G01*
X130502645Y-97721433D02*
G75*
G03*
X130441998Y-97721390I-30345J-30267D01*
G01*
X129597544Y-96816335D02*
G75*
G03*
X129536900Y-96816292I-30344J-30265D01*
G01*
X128535000Y-95145000D02*
G75*
G03*
X128405000Y-95015000I-130000J0D01*
G01*
X129245000Y-93995000D02*
G75*
G03*
X129375000Y-93865000I0J130000D01*
G01*
X129709552Y-97855742D02*
G75*
G03*
X130307647Y-97855743I299048J299042D01*
G01*
X128815653Y-96095046D02*
G75*
G03*
X128815649Y-96034350I-30353J30346D01*
G01*
X129720753Y-97000146D02*
G75*
G03*
X129720748Y-96939449I-30353J30346D01*
G01*
X127695000Y-93225000D02*
G75*
G03*
X128205000Y-93735000I510000J0D01*
G01*
X128205000Y-92715000D02*
G75*
G03*
X127695000Y-93225000I0J-510000D01*
G01*
X127475000Y-89986750D02*
X127475000Y-91936751D01*
X132990000Y-101621298D02*
X132990000Y-107071298D01*
X128589449Y-97941999D02*
X128420796Y-98110651D01*
X127699544Y-97389399D02*
X127699544Y-97389400D01*
X127684350Y-97036900D02*
X127515697Y-97205552D01*
X128604643Y-98294499D02*
X128773295Y-98125846D01*
X128589448Y-97220747D02*
X128589450Y-97220748D01*
X127475000Y-91936751D02*
X127415000Y-91996751D01*
X128589449Y-97941998D02*
X128589449Y-97941999D01*
X135390000Y-110121298D02*
X137292702Y-112024000D01*
X129494549Y-98125847D02*
X132990000Y-101621298D01*
X127415000Y-91996751D02*
X127415000Y-96046298D01*
X128604643Y-98294498D02*
X128604643Y-98294499D01*
X127699544Y-97389400D02*
X127868196Y-97220747D01*
X135390000Y-109471298D02*
X135390000Y-110121298D01*
X129494547Y-98125846D02*
X129494549Y-98125847D01*
X127684350Y-97036899D02*
X127684350Y-97036900D01*
X128589450Y-97220748D02*
X128589449Y-97220748D01*
X127415000Y-96046298D02*
X127684350Y-96315649D01*
X132990000Y-107071298D02*
X135390000Y-109471298D01*
X137292702Y-112024000D02*
X140616000Y-112024000D01*
X127515721Y-97205576D02*
G75*
G03*
X127515697Y-97389400I91879J-91924D01*
G01*
X128589475Y-97942024D02*
G75*
G03*
X128589448Y-97220749I-360675J360624D01*
G01*
X127684375Y-97036924D02*
G75*
G03*
X127684349Y-96315650I-360675J360624D01*
G01*
X128589447Y-97220748D02*
G75*
G03*
X127868197Y-97220748I-360625J-360626D01*
G01*
X129494546Y-98125847D02*
G75*
G03*
X128773296Y-98125847I-360625J-360626D01*
G01*
X128420777Y-98294518D02*
G75*
G03*
X128604643Y-98294498I91923J91918D01*
G01*
X128420821Y-98110676D02*
G75*
G03*
X128420796Y-98294499I91879J-91924D01*
G01*
X127515677Y-97389420D02*
G75*
G03*
X127699544Y-97389399I91923J91920D01*
G01*
X127035000Y-96203702D02*
X127415649Y-96584350D01*
X126975000Y-91936751D02*
X127035000Y-91996751D01*
X129225847Y-98394549D02*
X132610000Y-101778702D01*
X126975000Y-89986750D02*
X126975000Y-91936751D01*
X128320747Y-97489449D02*
X128320748Y-97489450D01*
X129225846Y-98394548D02*
X129225847Y-98394549D01*
X140090999Y-112424000D02*
X140616000Y-112424000D01*
X128320748Y-97673297D02*
X128152095Y-97841949D01*
X140080999Y-112414000D02*
X140090999Y-112424000D01*
X127968247Y-97658102D02*
X128136899Y-97489449D01*
X135010000Y-109628702D02*
X135010000Y-110278702D01*
X132610000Y-107228702D02*
X135010000Y-109628702D01*
X132610000Y-101778702D02*
X132610000Y-107228702D01*
X135010000Y-110278702D02*
X137145298Y-112414000D01*
X137145298Y-112414000D02*
X140080999Y-112414000D01*
X127035000Y-91996751D02*
X127035000Y-96203702D01*
X128873346Y-98563200D02*
X128873346Y-98563201D01*
X127415649Y-96768198D02*
X127246996Y-96936850D01*
X127968247Y-97658101D02*
X127968247Y-97658102D01*
X128320748Y-97489450D02*
X128320748Y-97489449D01*
X128873346Y-98563201D02*
X129041998Y-98394548D01*
X127247020Y-96936874D02*
G75*
G03*
X127246996Y-97658102I360580J-360626D01*
G01*
X128152120Y-97841974D02*
G75*
G03*
X128152095Y-98563201I360580J-360626D01*
G01*
X128320746Y-97489450D02*
G75*
G03*
X128136900Y-97489450I-91923J-91924D01*
G01*
X127246975Y-97658123D02*
G75*
G03*
X127968247Y-97658101I360625J360623D01*
G01*
X129225845Y-98394549D02*
G75*
G03*
X129041999Y-98394549I-91923J-91924D01*
G01*
X127415675Y-96768224D02*
G75*
G03*
X127415649Y-96584350I-91975J91924D01*
G01*
X128152076Y-98563220D02*
G75*
G03*
X128873345Y-98563199I360624J360620D01*
G01*
X128320775Y-97673324D02*
G75*
G03*
X128320748Y-97489449I-91975J91924D01*
G01*
D47*
X125975000Y-89986750D02*
X125975000Y-92175000D01*
X125975000Y-92175000D02*
X126400000Y-92600000D01*
X126400000Y-92600000D02*
X126500000Y-92600000D01*
X143024000Y-109224000D02*
X143000000Y-109200000D01*
X143696000Y-109224000D02*
X143024000Y-109224000D01*
X143208073Y-108824000D02*
X143084073Y-108700000D01*
X143696000Y-108824000D02*
X143208073Y-108824000D01*
X143084073Y-108700000D02*
X142700000Y-108700000D01*
X125475000Y-92275000D02*
X125450000Y-92300000D01*
X125475000Y-89986750D02*
X125475000Y-92275000D01*
X124975000Y-89986750D02*
X124975000Y-91675000D01*
X124975000Y-91675000D02*
X124500000Y-92150000D01*
X143024000Y-108424000D02*
X142700000Y-108100000D01*
X143696000Y-108424000D02*
X143024000Y-108424000D01*
X123450000Y-88350000D02*
X123475000Y-88375000D01*
X143219000Y-108024000D02*
X142900000Y-107705000D01*
X123475000Y-88375000D02*
X123475000Y-89986750D01*
X143696000Y-108024000D02*
X143219000Y-108024000D01*
X142900000Y-107705000D02*
X142900000Y-107500000D01*
D52*
X198247000Y-119126000D02*
X198247000Y-119888000D01*
X198937000Y-120578000D02*
X199771000Y-120578000D01*
X198247000Y-119888000D02*
X198937000Y-120578000D01*
D49*
X175086000Y-117624000D02*
X176325499Y-118863499D01*
D47*
X179774477Y-119950000D02*
X176750000Y-119950000D01*
X182411455Y-117313022D02*
X179774477Y-119950000D01*
D49*
X176700000Y-120400000D02*
X176550000Y-120550000D01*
D47*
X176750000Y-119950000D02*
X176700000Y-120000000D01*
X183866978Y-117313022D02*
X182411455Y-117313022D01*
D49*
X174536000Y-117624000D02*
X175086000Y-117624000D01*
X176700000Y-120000000D02*
X176700000Y-120400000D01*
X176325499Y-118863499D02*
X176325499Y-119625499D01*
X176325499Y-119625499D02*
X176700000Y-120000000D01*
D47*
X186550000Y-114630000D02*
X183866978Y-117313022D01*
X175111999Y-111423574D02*
X175357144Y-111668719D01*
X175111999Y-110922999D02*
X175111999Y-111423574D01*
X174536000Y-110824000D02*
X175013000Y-110824000D01*
X175013000Y-110824000D02*
X175111999Y-110922999D01*
D52*
X188550000Y-130532844D02*
X189716156Y-131699000D01*
X187177699Y-117860543D02*
X188550000Y-119232844D01*
X182822301Y-117860543D02*
X187177699Y-117860543D01*
X170882844Y-125750000D02*
X173332844Y-125750000D01*
X188550000Y-119232844D02*
X188550000Y-130532844D01*
X196900000Y-103455000D02*
X197247000Y-103108000D01*
X166915964Y-129210000D02*
X167622844Y-129210000D01*
X197247000Y-103108000D02*
X199790000Y-103108000D01*
X170432844Y-126200000D02*
X170882844Y-125750000D01*
X189716156Y-131699000D02*
X196233844Y-131699000D01*
X196233844Y-131699000D02*
X196900000Y-131032844D01*
X179732844Y-120950000D02*
X182822301Y-117860543D01*
X196900000Y-131032844D02*
X196900000Y-103455000D01*
X178132844Y-120950000D02*
X179732844Y-120950000D01*
X166780964Y-129345000D02*
X166915964Y-129210000D01*
X168982844Y-126200000D02*
X170432844Y-126200000D01*
X173332844Y-125750000D02*
X178132844Y-120950000D01*
X168300000Y-128532844D02*
X168300000Y-126882844D01*
X167622844Y-129210000D02*
X168300000Y-128532844D01*
X168300000Y-126882844D02*
X168982844Y-126200000D01*
X188950000Y-130367156D02*
X189900844Y-131318000D01*
X188950000Y-119067156D02*
X188950000Y-130367156D01*
X187463877Y-117581033D02*
X188950000Y-119067156D01*
X167900000Y-126717156D02*
X168817156Y-125800000D01*
X166915964Y-128810000D02*
X167457156Y-128810000D01*
X168817156Y-125800000D02*
X170267156Y-125800000D01*
X196049156Y-131318000D02*
X196500000Y-130867156D01*
X170267156Y-125800000D02*
X170717156Y-125350000D01*
X173167156Y-125350000D02*
X177967156Y-120550000D01*
X198541350Y-101108000D02*
X199790000Y-101108000D01*
X182536123Y-117581033D02*
X187463877Y-117581033D01*
X189900844Y-131318000D02*
X196049156Y-131318000D01*
X196500000Y-103149350D02*
X198541350Y-101108000D01*
X179567156Y-120550000D02*
X182536123Y-117581033D01*
X166780964Y-128675000D02*
X166915964Y-128810000D01*
X170717156Y-125350000D02*
X173167156Y-125350000D01*
X167457156Y-128810000D02*
X167900000Y-128367156D01*
X167900000Y-128367156D02*
X167900000Y-126717156D01*
X196500000Y-130867156D02*
X196500000Y-103149350D01*
X177967156Y-120550000D02*
X179567156Y-120550000D01*
X101296000Y-102860000D02*
X102608501Y-102860000D01*
X103161716Y-102985000D02*
X103311716Y-102835000D01*
X102733501Y-102985000D02*
X103161716Y-102985000D01*
X102608501Y-102860000D02*
X102733501Y-102985000D01*
X102733501Y-103385000D02*
X103161716Y-103385000D01*
X101296000Y-103510000D02*
X102608501Y-103510000D01*
X102608501Y-103510000D02*
X102733501Y-103385000D01*
X103161716Y-103385000D02*
X103311716Y-103535000D01*
D47*
X174536000Y-110424000D02*
X173824000Y-110424000D01*
X173824000Y-110424000D02*
X173600000Y-110200000D01*
X193700000Y-121880000D02*
X192203011Y-120383011D01*
X189856511Y-119511552D02*
X189856511Y-116443749D01*
X192203011Y-120383011D02*
X190727970Y-120383011D01*
X188538001Y-115125239D02*
X188538001Y-114938001D01*
X174536000Y-110024000D02*
X175176000Y-110024000D01*
X188538001Y-114938001D02*
X187900000Y-114300000D01*
X189856511Y-116443749D02*
X188538001Y-115125239D01*
X190727970Y-120383011D02*
X189856511Y-119511552D01*
X175176000Y-110024000D02*
X175300000Y-109900000D01*
X143696000Y-110024000D02*
X144224000Y-110024000D01*
X107036750Y-93275000D02*
X109225000Y-93275000D01*
X144224000Y-110024000D02*
X144400000Y-110200000D01*
X109225000Y-93275000D02*
X109250000Y-93300000D01*
X141850000Y-120450000D02*
X140100000Y-120450000D01*
X110850000Y-94850000D02*
X110850000Y-92500000D01*
X140100000Y-120450000D02*
X136450000Y-120450000D01*
X143076000Y-119224000D02*
X141850000Y-120450000D01*
X143696000Y-119224000D02*
X143076000Y-119224000D01*
X110850000Y-92500000D02*
X110125000Y-91775000D01*
X136450000Y-120450000D02*
X110850000Y-94850000D01*
X110125000Y-91775000D02*
X107036750Y-91775000D01*
X143696000Y-109624000D02*
X144376000Y-109624000D01*
D48*
X107036750Y-90775000D02*
X109275000Y-90775000D01*
D47*
X144376000Y-109624000D02*
X144400000Y-109600000D01*
D48*
X111496298Y-89898847D02*
X111107389Y-90287755D01*
X112230000Y-92490000D02*
X112530000Y-92490000D01*
X112660000Y-90878702D02*
X112660000Y-91340000D01*
X113315000Y-92750000D02*
X113125000Y-92750000D01*
X112530000Y-92490000D02*
X113315000Y-92490000D01*
X111107388Y-91009004D02*
X111107389Y-91009004D01*
X112401395Y-90620095D02*
X112660000Y-90878702D01*
X113481297Y-95505418D02*
X113765832Y-95789953D01*
X109046751Y-89715000D02*
X111496298Y-89714999D01*
X130410000Y-112078702D02*
X135545298Y-117214000D01*
X107036750Y-89775000D02*
X108986751Y-89775000D01*
X113400000Y-92575000D02*
X113400000Y-92665000D01*
X140090999Y-117224000D02*
X140616000Y-117224000D01*
X113615649Y-94934350D02*
X113481297Y-95068702D01*
X130410000Y-111728702D02*
X130410000Y-112078702D01*
X140080999Y-117214000D02*
X140090999Y-117224000D01*
X112660000Y-93215000D02*
X112660000Y-93978702D01*
X108986751Y-89775000D02*
X109046751Y-89715000D01*
X114336899Y-95655601D02*
X130410000Y-111728702D01*
X114202548Y-95789953D02*
X114336899Y-95655601D01*
X112530000Y-91470000D02*
X112230000Y-91470000D01*
X135545298Y-117214000D02*
X140080999Y-117214000D01*
X112401393Y-90620095D02*
X112401395Y-90620095D01*
X112660000Y-93978702D02*
X113615649Y-94934350D01*
X111828638Y-91009003D02*
X111828637Y-91009004D01*
X111828637Y-91009004D02*
X112217545Y-90620095D01*
X111107376Y-91009017D02*
G75*
G03*
X111828638Y-91009003I360624J360617D01*
G01*
X113481337Y-95068742D02*
G75*
G03*
X113481297Y-95505418I218363J-218358D01*
G01*
X113400000Y-92575000D02*
G75*
G03*
X113315000Y-92490000I-85000J0D01*
G01*
X112530000Y-91470000D02*
G75*
G03*
X112660000Y-91340000I0J130000D01*
G01*
X113125000Y-92750000D02*
G75*
G03*
X112660000Y-93215000I0J-465000D01*
G01*
X111496275Y-89898824D02*
G75*
G03*
X111496298Y-89714999I-91875J91924D01*
G01*
X112401392Y-90620096D02*
G75*
G03*
X112217546Y-90620096I-91923J-91924D01*
G01*
X113765832Y-95789953D02*
G75*
G03*
X114202548Y-95789953I218358J218357D01*
G01*
X111107410Y-90287776D02*
G75*
G03*
X111107389Y-91009003I360590J-360624D01*
G01*
X111720000Y-91980000D02*
G75*
G03*
X112230000Y-92490000I510000J0D01*
G01*
X112230000Y-91470000D02*
G75*
G03*
X111720000Y-91980000I0J-510000D01*
G01*
X113315000Y-92750000D02*
G75*
G03*
X113400000Y-92665000I0J85000D01*
G01*
X130790000Y-111921298D02*
X135702702Y-116834000D01*
X111653702Y-89335000D02*
X111764999Y-89446298D01*
X109046751Y-89335000D02*
X111653702Y-89335000D01*
X113040000Y-93821298D02*
X113884350Y-94665649D01*
X113040000Y-93215000D02*
X113040000Y-93821298D01*
X140090999Y-116824000D02*
X140616000Y-116824000D01*
X112670094Y-90351394D02*
X113040000Y-90721298D01*
X113040000Y-90721298D02*
X113040000Y-91340000D01*
X112670094Y-90351393D02*
X112670094Y-90351394D01*
X130790000Y-111571298D02*
X130790000Y-111921298D01*
X112530000Y-91850000D02*
X112230000Y-91850000D01*
X112230000Y-92110000D02*
X112530000Y-92110000D01*
X114789450Y-95570748D02*
X130790000Y-111571298D01*
X111559937Y-90740303D02*
X111948845Y-90351394D01*
X111559937Y-90740302D02*
X111559937Y-90740303D01*
X114034533Y-95521252D02*
X114168885Y-95386900D01*
X113780000Y-92575000D02*
X113780000Y-92665000D01*
X113749998Y-95236716D02*
X114034533Y-95521252D01*
X112530000Y-92110000D02*
X113315000Y-92110000D01*
X114605601Y-95386900D02*
X114789450Y-95570748D01*
X140080999Y-116834000D02*
X140090999Y-116824000D01*
X111764999Y-90167547D02*
X111376090Y-90556455D01*
X108986751Y-89275000D02*
X109046751Y-89335000D01*
X113315000Y-93130000D02*
X113125000Y-93130000D01*
X111764999Y-90167548D02*
X111764999Y-90167547D01*
X113884350Y-95102365D02*
X113749998Y-95236716D01*
X135702702Y-116834000D02*
X140080999Y-116834000D01*
X107036750Y-89275000D02*
X108986751Y-89275000D01*
X113315000Y-93130000D02*
G75*
G03*
X113780000Y-92665000I0J465000D01*
G01*
X112670124Y-90351363D02*
G75*
G03*
X111948845Y-90351394I-360624J-360637D01*
G01*
X111764976Y-90167525D02*
G75*
G03*
X111764999Y-89446298I-360576J360625D01*
G01*
X113884343Y-95102358D02*
G75*
G03*
X113884350Y-94665649I-218343J218358D01*
G01*
X112530000Y-91850000D02*
G75*
G03*
X113040000Y-91340000I0J510000D01*
G01*
X113125000Y-93130000D02*
G75*
G03*
X113040000Y-93215000I0J-85000D01*
G01*
X112230000Y-91850000D02*
G75*
G03*
X112100000Y-91980000I0J-130000D01*
G01*
X112100000Y-91980000D02*
G75*
G03*
X112230000Y-92110000I130000J0D01*
G01*
X113780000Y-92575000D02*
G75*
G03*
X113315000Y-92110000I-465000J0D01*
G01*
X111376111Y-90556476D02*
G75*
G03*
X111376090Y-90740303I91889J-91924D01*
G01*
X111376078Y-90740315D02*
G75*
G03*
X111559936Y-90740301I91922J91915D01*
G01*
X114605601Y-95386900D02*
G75*
G03*
X114168885Y-95386900I-218358J-218357D01*
G01*
X140090999Y-116024000D02*
X140616000Y-116024000D01*
X140080999Y-116014000D02*
X140090999Y-116024000D01*
X113320000Y-91060000D02*
X113320000Y-91150000D01*
X113836900Y-89134350D02*
X114049032Y-88922219D01*
X114232879Y-89106066D02*
X114232879Y-89106065D01*
X111420000Y-87510000D02*
X111420000Y-87700000D01*
X114060000Y-91790000D02*
X114060000Y-93628702D01*
X114060000Y-91700000D02*
X114060000Y-91790000D01*
X114431297Y-94732352D02*
X114431298Y-94732353D01*
X113836900Y-89134351D02*
X113836900Y-89134350D01*
X114060000Y-90078702D02*
X114060000Y-90510000D01*
X115194974Y-95032378D02*
X115329324Y-94898027D01*
X116184924Y-96022327D02*
X116184923Y-96022327D01*
X110135000Y-89055000D02*
X110385000Y-89055000D01*
X116651484Y-96220186D02*
X136445298Y-116014000D01*
X115329324Y-94898027D02*
X115555598Y-95124299D01*
X113785000Y-91615000D02*
X113975000Y-91615000D01*
X110900000Y-88350000D02*
X110900000Y-87510000D01*
X108986751Y-88275000D02*
X109046751Y-88215000D01*
X116184923Y-96022327D02*
X116319273Y-95887976D01*
X109046751Y-88215000D02*
X109485000Y-88215000D01*
X114020748Y-90039450D02*
X114060000Y-90078702D01*
X114565649Y-94134350D02*
X114431298Y-94268701D01*
X113975000Y-90595000D02*
X113785000Y-90595000D01*
X109620000Y-88350000D02*
X109620000Y-88540000D01*
X114060000Y-93628702D02*
X114565649Y-94134350D01*
X110900000Y-88540000D02*
X110900000Y-88350000D01*
X107036750Y-88275000D02*
X108986751Y-88275000D01*
X116319273Y-95887976D02*
X116651484Y-96220186D01*
X115421246Y-95722301D02*
X115421247Y-95722302D01*
X115421247Y-95722302D02*
X115721272Y-96022327D01*
X136445298Y-116014000D02*
X140080999Y-116014000D01*
X114020748Y-90039449D02*
X114020748Y-90039450D01*
X111935000Y-88215000D02*
X112196298Y-88215000D01*
X114232879Y-89106065D02*
X114020748Y-89318197D01*
X115555598Y-95124299D02*
X115421247Y-95258650D01*
X112196298Y-88215000D02*
X113115648Y-89134349D01*
X111035000Y-87375000D02*
X111285000Y-87375000D01*
X115194975Y-95032378D02*
X115194974Y-95032378D01*
X114431298Y-94732353D02*
X114731323Y-95032378D01*
X109620000Y-88350000D02*
G75*
G03*
X109485000Y-88215000I-135000J0D01*
G01*
X113785000Y-90595000D02*
G75*
G03*
X113320000Y-91060000I0J-465000D01*
G01*
X110385000Y-89055000D02*
G75*
G03*
X110900000Y-88540000I0J515000D01*
G01*
X113975000Y-90595000D02*
G75*
G03*
X114060000Y-90510000I0J85000D01*
G01*
X114020726Y-89318175D02*
G75*
G03*
X114020749Y-90039448I360674J-360625D01*
G01*
X111420000Y-87700000D02*
G75*
G03*
X111935000Y-88215000I515000J0D01*
G01*
X114431271Y-94268674D02*
G75*
G03*
X114431297Y-94732352I231829J-231826D01*
G01*
X114232879Y-88922220D02*
G75*
G03*
X114049033Y-88922220I-91923J-91924D01*
G01*
X114232837Y-89106024D02*
G75*
G03*
X114232880Y-88922219I-91837J91924D01*
G01*
X115721273Y-96022326D02*
G75*
G03*
X116184923Y-96022326I231825J231827D01*
G01*
X113115673Y-89134324D02*
G75*
G03*
X113836900Y-89134351I360627J360624D01*
G01*
X111035000Y-87375000D02*
G75*
G03*
X110900000Y-87510000I0J-135000D01*
G01*
X109620000Y-88540000D02*
G75*
G03*
X110135000Y-89055000I515000J0D01*
G01*
X111420000Y-87510000D02*
G75*
G03*
X111285000Y-87375000I-135000J0D01*
G01*
X114731324Y-95032377D02*
G75*
G03*
X115194974Y-95032377I231825J231827D01*
G01*
X114060000Y-91700000D02*
G75*
G03*
X113975000Y-91615000I-85000J0D01*
G01*
X115421271Y-95258674D02*
G75*
G03*
X115421246Y-95722301I231829J-231826D01*
G01*
X113320000Y-91150000D02*
G75*
G03*
X113785000Y-91615000I465000J0D01*
G01*
X140090999Y-115624000D02*
X140616000Y-115624000D01*
X114440000Y-93471298D02*
X114834350Y-93865649D01*
X115824299Y-95319248D02*
X115824299Y-95319249D01*
X114289449Y-89770747D02*
X114289450Y-89770748D01*
X113785000Y-91235000D02*
X113975000Y-91235000D01*
X115598026Y-94629325D02*
X115824299Y-94855598D01*
X114289450Y-89770748D02*
X114440000Y-89921298D01*
X115598027Y-94629325D02*
X115598026Y-94629325D01*
X115689948Y-95453599D02*
X115989973Y-95753625D01*
X110000000Y-88350000D02*
X110000000Y-88540000D01*
X110520000Y-88350000D02*
X110520000Y-87510000D01*
X116587976Y-95619274D02*
X116587975Y-95619274D01*
X116587975Y-95619274D02*
X116920186Y-95951484D01*
X114440000Y-91790000D02*
X114440000Y-93471298D01*
X136602702Y-115634000D02*
X140080999Y-115634000D01*
X114440000Y-89921298D02*
X114440000Y-90510000D01*
X113700000Y-91060000D02*
X113700000Y-91150000D01*
X108986751Y-87775000D02*
X109046751Y-87835000D01*
X114834350Y-94329299D02*
X114834350Y-94329300D01*
X114501582Y-89374769D02*
X114289449Y-89586899D01*
X140080999Y-115634000D02*
X140090999Y-115624000D01*
X109046751Y-87835000D02*
X109485000Y-87835000D01*
X114440000Y-91700000D02*
X114440000Y-91790000D01*
X115000024Y-94763676D02*
X115134375Y-94629325D01*
X111035000Y-86995000D02*
X111285000Y-86995000D01*
X112353702Y-87835000D02*
X113384349Y-88865648D01*
X114834350Y-94329300D02*
X114699999Y-94463650D01*
X111800000Y-87510000D02*
X111800000Y-87700000D01*
X116920186Y-95951484D02*
X136602702Y-115634000D01*
X111935000Y-87835000D02*
X112353702Y-87835000D01*
X107036750Y-87775000D02*
X108986751Y-87775000D01*
X110520000Y-88540000D02*
X110520000Y-88350000D01*
X110135000Y-88675000D02*
X110385000Y-88675000D01*
X115989973Y-95753625D02*
X116124324Y-95619274D01*
X113975000Y-90975000D02*
X113785000Y-90975000D01*
X113568199Y-88865650D02*
X113780329Y-88653517D01*
X114699999Y-94463650D02*
X115000024Y-94763676D01*
X115824299Y-95319249D02*
X115689948Y-95453599D01*
X114501580Y-89374768D02*
X114501582Y-89374769D01*
X110385000Y-88675000D02*
G75*
G03*
X110520000Y-88540000I0J135000D01*
G01*
X114501580Y-88653518D02*
G75*
G03*
X113780330Y-88653518I-360625J-360626D01*
G01*
X111800000Y-87510000D02*
G75*
G03*
X111285000Y-86995000I-515000J0D01*
G01*
X113975000Y-90975000D02*
G75*
G03*
X114440000Y-90510000I0J465000D01*
G01*
X114501537Y-89374725D02*
G75*
G03*
X114501580Y-88653518I-360537J360625D01*
G01*
X115598026Y-94629326D02*
G75*
G03*
X115134376Y-94629326I-231825J-231827D01*
G01*
X111800000Y-87700000D02*
G75*
G03*
X111935000Y-87835000I135000J0D01*
G01*
X114834376Y-94329325D02*
G75*
G03*
X114834350Y-93865649I-231876J231825D01*
G01*
X114440000Y-91700000D02*
G75*
G03*
X113975000Y-91235000I-465000J0D01*
G01*
X115824276Y-95319225D02*
G75*
G03*
X115824299Y-94855598I-231776J231825D01*
G01*
X110000000Y-88540000D02*
G75*
G03*
X110135000Y-88675000I135000J0D01*
G01*
X113700000Y-91150000D02*
G75*
G03*
X113785000Y-91235000I85000J0D01*
G01*
X113384375Y-88865622D02*
G75*
G03*
X113568198Y-88865649I91925J91922D01*
G01*
X113785000Y-90975000D02*
G75*
G03*
X113700000Y-91060000I0J-85000D01*
G01*
X111035000Y-86995000D02*
G75*
G03*
X110520000Y-87510000I0J-515000D01*
G01*
X110000000Y-88350000D02*
G75*
G03*
X109485000Y-87835000I-515000J0D01*
G01*
X116587975Y-95619275D02*
G75*
G03*
X116124325Y-95619275I-231825J-231827D01*
G01*
X114289426Y-89586876D02*
G75*
G03*
X114289449Y-89770747I91974J-91924D01*
G01*
X114940197Y-93141498D02*
X114940197Y-93061298D01*
X115445098Y-92556397D02*
X115635100Y-92556397D01*
X114238173Y-87688173D02*
X113799768Y-88126580D01*
X136645298Y-114814000D02*
X115760000Y-93928702D01*
X114853357Y-87072992D02*
X114330098Y-87596251D01*
X140080999Y-114814000D02*
X136645298Y-114814000D01*
X108986751Y-86775000D02*
X107036750Y-86775000D01*
X115760000Y-93928702D02*
X115759999Y-93771298D01*
X115760000Y-89478702D02*
X114648297Y-88366998D01*
X113290649Y-87009350D02*
X112996298Y-86715000D01*
X115037204Y-87256838D02*
X115037204Y-87256839D01*
X113078517Y-87405329D02*
X113290649Y-87193198D01*
X115037205Y-87072992D02*
X115037204Y-87072991D01*
X115950000Y-92516297D02*
X116279902Y-92516297D01*
X114940197Y-91681398D02*
X114940197Y-91601198D01*
X115950000Y-92086097D02*
X115950000Y-92186299D01*
X115950000Y-92186299D02*
X115445098Y-92186299D01*
X115760000Y-89899831D02*
X115760000Y-89478702D01*
X115445098Y-91096297D02*
X115635100Y-91096297D01*
X140090999Y-114824000D02*
X140080999Y-114814000D01*
X114330098Y-87596251D02*
X114238173Y-87688173D01*
X115759999Y-90971398D02*
X115760000Y-89899831D01*
X115950000Y-92556397D02*
X115950000Y-92516297D01*
X140616000Y-114824000D02*
X140090999Y-114824000D01*
X114648296Y-87645747D02*
X115037204Y-87256838D01*
X116279902Y-92516297D02*
X116279902Y-92086097D01*
X112996298Y-86715000D02*
X109046751Y-86715000D01*
X109046751Y-86715000D02*
X108986751Y-86775000D01*
X116279902Y-92086097D02*
X115950000Y-92086097D01*
X115635100Y-92556397D02*
X115950000Y-92556397D01*
X115635100Y-93646399D02*
X115445098Y-93646399D01*
X114648324Y-87645775D02*
G75*
G03*
X114648297Y-88366998I360576J-360625D01*
G01*
X115037189Y-87256824D02*
G75*
G03*
X115037205Y-87072992I-91889J91924D01*
G01*
X114940201Y-91681398D02*
G75*
G03*
X115445098Y-92186299I504899J-2D01*
G01*
X113078563Y-87405375D02*
G75*
G03*
X113078518Y-88126580I360537J-360625D01*
G01*
X114940201Y-93141498D02*
G75*
G03*
X115445098Y-93646399I504899J-2D01*
G01*
X115037223Y-87072972D02*
G75*
G03*
X114853357Y-87072992I-91923J-91928D01*
G01*
X113078475Y-88126623D02*
G75*
G03*
X113799768Y-88126580I360625J360623D01*
G01*
X115445098Y-92556397D02*
G75*
G03*
X114940197Y-93061298I2J-504903D01*
G01*
X115635100Y-91096299D02*
G75*
G03*
X115759999Y-90971398I0J124899D01*
G01*
X113290675Y-87193224D02*
G75*
G03*
X113290649Y-87009350I-91975J91924D01*
G01*
X115760001Y-93771298D02*
G75*
G03*
X115635100Y-93646399I-124901J-2D01*
G01*
X115445098Y-91096297D02*
G75*
G03*
X114940197Y-91601198I2J-504903D01*
G01*
X116279902Y-91806297D02*
X116140001Y-91806297D01*
X113559350Y-87461900D02*
X113559350Y-87461899D01*
X115305906Y-87525540D02*
X115305906Y-87525541D01*
X115635100Y-92936399D02*
X115950000Y-92936399D01*
X115445098Y-91476299D02*
X115635100Y-91476299D01*
X115320199Y-91681398D02*
X115320199Y-91601198D01*
X113531065Y-87857879D02*
X113531065Y-87857878D01*
X115320199Y-93141498D02*
X115320199Y-93061298D01*
X113559350Y-86740649D02*
X113153702Y-86335000D01*
X140080999Y-114434000D02*
X136802702Y-114434000D01*
X115950000Y-92896299D02*
X116279902Y-92896299D01*
X116140000Y-89899831D02*
X116140000Y-89321298D01*
X108986751Y-86275000D02*
X107036750Y-86275000D01*
X113347218Y-87674031D02*
X113559350Y-87461900D01*
X116140001Y-91806297D02*
X115445098Y-91806297D01*
X115950000Y-92936399D02*
X115950000Y-92896299D01*
X136802702Y-114434000D02*
X116140001Y-93771298D01*
X140616000Y-114424000D02*
X140090999Y-114424000D01*
X116140001Y-90971398D02*
X116140000Y-89899831D01*
X140090999Y-114424000D02*
X140080999Y-114434000D01*
X114916998Y-87914449D02*
X115305906Y-87525540D01*
X115305907Y-86804290D02*
X115305906Y-86804289D01*
X109046751Y-86335000D02*
X108986751Y-86275000D01*
X115635100Y-93266397D02*
X115445098Y-93266397D01*
X116609803Y-92566398D02*
X116609803Y-92136198D01*
X114584653Y-86804288D02*
X113531065Y-87857879D01*
X116140000Y-89321298D02*
X114916999Y-88098296D01*
X113153702Y-86335000D02*
X109046751Y-86335000D01*
X115445098Y-92936399D02*
X115635100Y-92936399D01*
X115445098Y-91476299D02*
G75*
G03*
X115320199Y-91601198I2J-124901D01*
G01*
X115320203Y-93141498D02*
G75*
G03*
X115445098Y-93266397I124897J-2D01*
G01*
X115305891Y-87525526D02*
G75*
G03*
X115305907Y-86804290I-360591J360626D01*
G01*
X114917026Y-87914477D02*
G75*
G03*
X114916999Y-88098296I91874J-91923D01*
G01*
X115305927Y-86804268D02*
G75*
G03*
X114584653Y-86804288I-360627J-360632D01*
G01*
X115320203Y-91681398D02*
G75*
G03*
X115445098Y-91806297I124897J-2D01*
G01*
X115635100Y-91476301D02*
G75*
G03*
X116140001Y-90971398I0J504901D01*
G01*
X116140003Y-93771298D02*
G75*
G03*
X115635100Y-93266397I-504903J-2D01*
G01*
X116279902Y-92896303D02*
G75*
G03*
X116609803Y-92566398I-2J329903D01*
G01*
X115445098Y-92936399D02*
G75*
G03*
X115320199Y-93061298I2J-124901D01*
G01*
X113559375Y-87461924D02*
G75*
G03*
X113559349Y-86740650I-360675J360624D01*
G01*
X116609803Y-92136198D02*
G75*
G03*
X116279902Y-91806297I-329903J-2D01*
G01*
X113347263Y-87674076D02*
G75*
G03*
X113347218Y-87857879I91837J-91924D01*
G01*
X113347177Y-87857920D02*
G75*
G03*
X113531065Y-87857878I91923J91920D01*
G01*
X116845898Y-89430000D02*
X117110000Y-89430000D01*
X117110000Y-89430000D02*
X118098204Y-89430000D01*
X117620000Y-88150000D02*
X118098204Y-88150000D01*
X115321298Y-85690000D02*
X117110000Y-87478702D01*
X109046751Y-85215000D02*
X110496298Y-85215000D01*
X140090999Y-113624000D02*
X140616000Y-113624000D01*
X116491796Y-90094102D02*
X116491796Y-90305898D01*
X107036750Y-85275000D02*
X108986751Y-85275000D01*
X117110000Y-90734102D02*
X117110000Y-91326981D01*
X108986751Y-85275000D02*
X109046751Y-85215000D01*
X110496298Y-85215000D02*
X110971298Y-85690000D01*
X117110000Y-91326981D02*
X117110000Y-93878702D01*
X116391796Y-88864102D02*
X116391796Y-88975898D01*
X118098204Y-89690000D02*
X117490000Y-89690000D01*
X117110000Y-87478702D02*
X117110000Y-87640000D01*
X117490000Y-89690000D02*
X116895898Y-89690000D01*
X110971298Y-85690000D02*
X115321298Y-85690000D01*
X116895898Y-90710000D02*
X117085898Y-90710000D01*
X136845298Y-113614000D02*
X140080999Y-113614000D01*
X140080999Y-113614000D02*
X140090999Y-113624000D01*
X117110000Y-93878702D02*
X136845298Y-113614000D01*
X118098204Y-88410000D02*
X117620000Y-88410000D01*
X117620000Y-88410000D02*
X116845898Y-88410000D01*
X117110000Y-87640000D02*
G75*
G03*
X117620000Y-88150000I510000J0D01*
G01*
X116845898Y-88409996D02*
G75*
G03*
X116391796Y-88864102I2J-454104D01*
G01*
X117110000Y-90734102D02*
G75*
G03*
X117085898Y-90710000I-24100J2D01*
G01*
X118228200Y-89560000D02*
G75*
G03*
X118098204Y-89430000I-130000J0D01*
G01*
X118228200Y-88280000D02*
G75*
G03*
X118098204Y-88150000I-130000J0D01*
G01*
X118098204Y-88410004D02*
G75*
G03*
X118228204Y-88280000I-4J130004D01*
G01*
X118098204Y-89690004D02*
G75*
G03*
X118228204Y-89560000I-4J130004D01*
G01*
X116391800Y-88975898D02*
G75*
G03*
X116845898Y-89430000I454100J-2D01*
G01*
X116895898Y-89689996D02*
G75*
G03*
X116491796Y-90094102I2J-404104D01*
G01*
X116491800Y-90305898D02*
G75*
G03*
X116895898Y-90710000I404100J-2D01*
G01*
X107036750Y-84775000D02*
X108986751Y-84775000D01*
X140090999Y-113224000D02*
X140616000Y-113224000D01*
X109046751Y-84835000D02*
X110653702Y-84835000D01*
X117490000Y-90070000D02*
X116895898Y-90070000D01*
X110653702Y-84835000D02*
X111128702Y-85310000D01*
X117490000Y-87321298D02*
X117490000Y-87640000D01*
X117620000Y-88790000D02*
X116845898Y-88790000D01*
X116771796Y-88864102D02*
X116771796Y-88975898D01*
X140080999Y-113234000D02*
X140090999Y-113224000D01*
X116871796Y-90094102D02*
X116871796Y-90305898D01*
X117490000Y-91326981D02*
X117490000Y-93721298D01*
X116895898Y-90330000D02*
X117085898Y-90330000D01*
X117490000Y-93721298D02*
X137002702Y-113234000D01*
X116845898Y-89050000D02*
X117110000Y-89050000D01*
X118098204Y-88790000D02*
X117620000Y-88790000D01*
X115478702Y-85310000D02*
X117490000Y-87321298D01*
X117620000Y-87770000D02*
X118098204Y-87770000D01*
X111128702Y-85310000D02*
X115478702Y-85310000D01*
X118098204Y-90070000D02*
X117490000Y-90070000D01*
X117110000Y-89050000D02*
X118098204Y-89050000D01*
X137002702Y-113234000D02*
X140080999Y-113234000D01*
X117490000Y-90734102D02*
X117490000Y-91326981D01*
X108986751Y-84775000D02*
X109046751Y-84835000D01*
X118608200Y-89560000D02*
G75*
G03*
X118098204Y-89050000I-510000J0D01*
G01*
X116771800Y-88975898D02*
G75*
G03*
X116845898Y-89050000I74100J-2D01*
G01*
X116845898Y-88789996D02*
G75*
G03*
X116771796Y-88864102I2J-74104D01*
G01*
X117490000Y-87640000D02*
G75*
G03*
X117620000Y-87770000I130000J0D01*
G01*
X117490000Y-90734102D02*
G75*
G03*
X117085898Y-90330000I-404100J2D01*
G01*
X116871800Y-90305898D02*
G75*
G03*
X116895898Y-90330000I24100J-2D01*
G01*
X118608200Y-88280000D02*
G75*
G03*
X118098204Y-87770000I-510000J0D01*
G01*
X116895898Y-90069996D02*
G75*
G03*
X116871796Y-90094102I2J-24104D01*
G01*
X118098204Y-90070004D02*
G75*
G03*
X118608204Y-89560000I-4J510004D01*
G01*
X118098204Y-88790004D02*
G75*
G03*
X118608204Y-88280000I-4J510004D01*
G01*
D47*
X191160000Y-121880000D02*
X189600000Y-120320000D01*
X177616000Y-110424000D02*
X178650073Y-110424000D01*
X178650073Y-110424000D02*
X179054537Y-110019536D01*
X189600000Y-120320000D02*
X189600000Y-117300000D01*
X189600000Y-117300000D02*
X189600000Y-116800000D01*
X179054537Y-110019536D02*
X179054537Y-109749352D01*
X189600000Y-116800000D02*
X188100000Y-115300000D01*
X187950000Y-113350000D02*
X187950000Y-112900000D01*
X177055428Y-109624000D02*
X175599428Y-111080000D01*
X177616000Y-109624000D02*
X177055428Y-109624000D01*
X190113022Y-118293022D02*
X190113022Y-115513022D01*
X190113022Y-115513022D02*
X187950000Y-113350000D01*
X191160000Y-119340000D02*
X190113022Y-118293022D01*
X175599428Y-111080000D02*
X175550000Y-111080000D01*
X175274000Y-109224000D02*
X175300000Y-109250000D01*
X174536000Y-109224000D02*
X175274000Y-109224000D01*
X191160000Y-116800000D02*
X191160000Y-116197238D01*
X191160000Y-116197238D02*
X188450000Y-113487238D01*
X188450000Y-113487238D02*
X188450000Y-112300000D01*
X177616000Y-109224000D02*
X176836000Y-109224000D01*
X176836000Y-109224000D02*
X176070000Y-109990000D01*
X174536000Y-108824000D02*
X173874000Y-108824000D01*
X173874000Y-108824000D02*
X173850000Y-108800000D01*
X192656989Y-110676989D02*
X189476989Y-110676989D01*
X188090000Y-110270000D02*
X188080000Y-110260000D01*
X189476989Y-110676989D02*
X189070000Y-110270000D01*
X189070000Y-110270000D02*
X188090000Y-110270000D01*
X193700000Y-111720000D02*
X192656989Y-110676989D01*
X175386489Y-108424000D02*
X175636082Y-108673593D01*
X174536000Y-108424000D02*
X175386489Y-108424000D01*
X178540000Y-109100000D02*
X178580000Y-109140000D01*
X177616000Y-108824000D02*
X178218502Y-108824000D01*
X178218502Y-108824000D02*
X178494502Y-109100000D01*
X178494502Y-109100000D02*
X178540000Y-109100000D01*
X178641339Y-108424000D02*
X178755500Y-108538161D01*
X177616000Y-108424000D02*
X178641339Y-108424000D01*
X188613011Y-105596989D02*
X187850000Y-106360000D01*
X192656989Y-105596989D02*
X188613011Y-105596989D01*
X174536000Y-108024000D02*
X174460000Y-108100000D01*
X174460000Y-108100000D02*
X173550000Y-108100000D01*
X193700000Y-106640000D02*
X192656989Y-105596989D01*
X186750000Y-106360000D02*
X186730000Y-106340000D01*
X187850000Y-106360000D02*
X186750000Y-106360000D01*
X174536000Y-107224000D02*
X174074000Y-107224000D01*
X173850000Y-107000000D02*
X173800000Y-107000000D01*
X173800000Y-107000000D02*
X173300000Y-107500000D01*
X174074000Y-107224000D02*
X173850000Y-107000000D01*
X177616000Y-107624000D02*
X178224754Y-107624000D01*
X189400000Y-104100000D02*
X188050000Y-105450000D01*
X191160000Y-104100000D02*
X189400000Y-104100000D01*
X178224754Y-107624000D02*
X178549748Y-107948994D01*
X193700000Y-101560000D02*
X192656989Y-100516989D01*
X175137685Y-106824000D02*
X175137685Y-107237685D01*
X192656989Y-100516989D02*
X190283011Y-100516989D01*
X174536000Y-106824000D02*
X175137685Y-106824000D01*
X190283011Y-100516989D02*
X187500000Y-103300000D01*
X175137685Y-107237685D02*
X175430000Y-107530000D01*
X179800000Y-108362762D02*
X179800000Y-108660000D01*
X177616000Y-107224000D02*
X178661238Y-107224000D01*
X178661238Y-107224000D02*
X179800000Y-108362762D01*
X187880000Y-104840000D02*
X186700000Y-104840000D01*
X191160000Y-101560000D02*
X187880000Y-104840000D01*
X191160000Y-99020000D02*
X188530000Y-101650000D01*
X188530000Y-101650000D02*
X186450000Y-101650000D01*
X179484000Y-106824000D02*
X179810000Y-107150000D01*
X177616000Y-106824000D02*
X179484000Y-106824000D01*
D49*
X170300000Y-132950000D02*
X170350000Y-132900000D01*
X169100000Y-132950000D02*
X170300000Y-132950000D01*
D47*
X175013000Y-106424000D02*
X175259550Y-106177450D01*
X174536000Y-106424000D02*
X175013000Y-106424000D01*
X175259550Y-106177450D02*
X175259550Y-105750682D01*
X191160000Y-96480000D02*
X188820000Y-96480000D01*
X186800000Y-98500000D02*
X186800000Y-100850000D01*
X178166000Y-106424000D02*
X178640000Y-105950000D01*
X177616000Y-106424000D02*
X178166000Y-106424000D01*
X188820000Y-96480000D02*
X186800000Y-98500000D01*
X173300000Y-106200000D02*
X172600000Y-105500000D01*
X173923978Y-106200000D02*
X173650000Y-106200000D01*
X173650000Y-106200000D02*
X173300000Y-106200000D01*
X174099978Y-106024000D02*
X173923978Y-106200000D01*
X174536000Y-106024000D02*
X174099978Y-106024000D01*
X174536000Y-116024000D02*
X174024000Y-116024000D01*
D49*
X165600000Y-118750000D02*
X166250000Y-119400000D01*
X163952000Y-118750000D02*
X165600000Y-118750000D01*
X163402000Y-119300000D02*
X163952000Y-118750000D01*
D47*
X174362000Y-116250000D02*
X173750000Y-116250000D01*
D49*
X162250000Y-119300000D02*
X163402000Y-119300000D01*
D47*
X174536000Y-116424000D02*
X174362000Y-116250000D01*
X174024000Y-116024000D02*
X173750000Y-115750000D01*
D52*
X109933000Y-111991494D02*
X109933000Y-112497000D01*
X107213000Y-111991494D02*
X107213000Y-112497000D01*
X125705273Y-111438392D02*
X123378764Y-111438392D01*
X121987000Y-112512000D02*
X121312000Y-112512000D01*
X111293000Y-111991494D02*
X111293000Y-112497000D01*
X122112000Y-112637000D02*
X121987000Y-112512000D01*
X114013000Y-111991494D02*
X114013000Y-112497000D01*
X102624501Y-112512000D02*
X101312000Y-112512000D01*
X108573000Y-111991494D02*
X108573000Y-112497000D01*
X123378764Y-111438392D02*
X122180156Y-112637000D01*
X121312000Y-112512000D02*
X121187000Y-112637000D01*
X121187000Y-112637000D02*
X116593000Y-112637000D01*
X105713000Y-112637000D02*
X102749501Y-112637000D01*
X108293000Y-112497000D02*
X108293000Y-111991494D01*
X115373000Y-111991494D02*
X115373000Y-112497000D01*
X105853000Y-111991494D02*
X105853000Y-112497000D01*
X102749501Y-112637000D02*
X102624501Y-112512000D01*
X113733000Y-112497000D02*
X113733000Y-111991494D01*
X112653000Y-111991494D02*
X112653000Y-112497000D01*
X111013000Y-112497000D02*
X111013000Y-111991494D01*
X116453000Y-112497000D02*
X116453000Y-111991494D01*
X109653000Y-112497000D02*
X109653000Y-111991494D01*
X122180156Y-112637000D02*
X122112000Y-112637000D01*
X115093000Y-112497000D02*
X115093000Y-111991494D01*
X112373000Y-112497000D02*
X112373000Y-111991494D01*
X106933000Y-112497000D02*
X106933000Y-111991494D01*
X111833000Y-111451500D02*
G75*
G03*
X111293000Y-111991494I0J-540000D01*
G01*
X111153000Y-112637000D02*
G75*
G03*
X111293000Y-112497000I0J140000D01*
G01*
X113873000Y-112637000D02*
G75*
G03*
X114013000Y-112497000I0J140000D01*
G01*
X106393000Y-111451500D02*
G75*
G03*
X105853000Y-111991494I0J-540000D01*
G01*
X113733000Y-112497000D02*
G75*
G03*
X113873000Y-112637000I140000J0D01*
G01*
X112373006Y-111991494D02*
G75*
G03*
X111833000Y-111451494I-540006J-6D01*
G01*
X109113000Y-111451500D02*
G75*
G03*
X108573000Y-111991494I0J-540000D01*
G01*
X108293006Y-111991494D02*
G75*
G03*
X107753000Y-111451494I-540006J-6D01*
G01*
X106933006Y-111991494D02*
G75*
G03*
X106393000Y-111451494I-540006J-6D01*
G01*
X114553000Y-111451500D02*
G75*
G03*
X114013000Y-111991494I0J-540000D01*
G01*
X112373000Y-112497000D02*
G75*
G03*
X112513000Y-112637000I140000J0D01*
G01*
X116453000Y-112497000D02*
G75*
G03*
X116593000Y-112637000I140000J0D01*
G01*
X113193000Y-111451500D02*
G75*
G03*
X112653000Y-111991494I0J-540000D01*
G01*
X109793000Y-112637000D02*
G75*
G03*
X109933000Y-112497000I0J140000D01*
G01*
X109653006Y-111991494D02*
G75*
G03*
X109113000Y-111451494I-540006J-6D01*
G01*
X115233000Y-112637000D02*
G75*
G03*
X115373000Y-112497000I0J140000D01*
G01*
X115913000Y-111451500D02*
G75*
G03*
X115373000Y-111991494I0J-540000D01*
G01*
X112513000Y-112637000D02*
G75*
G03*
X112653000Y-112497000I0J140000D01*
G01*
X113733006Y-111991494D02*
G75*
G03*
X113193000Y-111451494I-540006J-6D01*
G01*
X107753000Y-111451500D02*
G75*
G03*
X107213000Y-111991494I0J-540000D01*
G01*
X108433000Y-112637000D02*
G75*
G03*
X108573000Y-112497000I0J140000D01*
G01*
X109653000Y-112497000D02*
G75*
G03*
X109793000Y-112637000I140000J0D01*
G01*
X108293000Y-112497000D02*
G75*
G03*
X108433000Y-112637000I140000J0D01*
G01*
X111013000Y-112497000D02*
G75*
G03*
X111153000Y-112637000I140000J0D01*
G01*
X107073000Y-112637000D02*
G75*
G03*
X107213000Y-112497000I0J140000D01*
G01*
X115093000Y-112497000D02*
G75*
G03*
X115233000Y-112637000I140000J0D01*
G01*
X106933000Y-112497000D02*
G75*
G03*
X107073000Y-112637000I140000J0D01*
G01*
X111013006Y-111991494D02*
G75*
G03*
X110473000Y-111451494I-540006J-6D01*
G01*
X116453006Y-111991494D02*
G75*
G03*
X115913000Y-111451494I-540006J-6D01*
G01*
X105713000Y-112637000D02*
G75*
G03*
X105853000Y-112497000I0J140000D01*
G01*
X115093006Y-111991494D02*
G75*
G03*
X114553000Y-111451494I-540006J-6D01*
G01*
X110473000Y-111451500D02*
G75*
G03*
X109933000Y-111991494I0J-540000D01*
G01*
X114413000Y-111991494D02*
X114413000Y-112497000D01*
X126600000Y-111400000D02*
X126344000Y-111400000D01*
X121312000Y-113162000D02*
X121187000Y-113037000D01*
X106533000Y-112497000D02*
X106533000Y-111991494D01*
X113053000Y-111991494D02*
X113053000Y-112497000D01*
X110613000Y-112497000D02*
X110613000Y-111991494D01*
X121987000Y-113162000D02*
X121312000Y-113162000D01*
X126344000Y-111400000D02*
X125730000Y-112014000D01*
X122345844Y-113037000D02*
X122112000Y-113037000D01*
X123368844Y-112014000D02*
X122345844Y-113037000D01*
X113333000Y-112497000D02*
X113333000Y-111991494D01*
X105713000Y-113037000D02*
X102749501Y-113037000D01*
X125730000Y-112014000D02*
X123368844Y-112014000D01*
X121187000Y-113037000D02*
X116593000Y-113037000D01*
X111693000Y-111991494D02*
X111693000Y-112497000D01*
X107613000Y-111991494D02*
X107613000Y-112497000D01*
X102749501Y-113037000D02*
X102624501Y-113162000D01*
X108973000Y-111991494D02*
X108973000Y-112497000D01*
X111973000Y-112497000D02*
X111973000Y-111991494D01*
X115773000Y-111991494D02*
X115773000Y-112497000D01*
X110333000Y-111991494D02*
X110333000Y-112497000D01*
X109253000Y-112497000D02*
X109253000Y-111991494D01*
X102624501Y-113162000D02*
X101312000Y-113162000D01*
X114693000Y-112497000D02*
X114693000Y-111991494D01*
X106253000Y-111991494D02*
X106253000Y-112497000D01*
X107893000Y-112497000D02*
X107893000Y-111991494D01*
X122112000Y-113037000D02*
X121987000Y-113162000D01*
X116053000Y-112497000D02*
X116053000Y-111991494D01*
X110613006Y-111991494D02*
G75*
G03*
X110473000Y-111851494I-140006J-6D01*
G01*
X113873000Y-113037000D02*
G75*
G03*
X114413000Y-112497000I0J540000D01*
G01*
X111833000Y-111851500D02*
G75*
G03*
X111693000Y-111991494I0J-140000D01*
G01*
X111973006Y-111991494D02*
G75*
G03*
X111833000Y-111851494I-140006J-6D01*
G01*
X107073000Y-113037000D02*
G75*
G03*
X107613000Y-112497000I0J540000D01*
G01*
X115913000Y-111851500D02*
G75*
G03*
X115773000Y-111991494I0J-140000D01*
G01*
X109253006Y-111991494D02*
G75*
G03*
X109113000Y-111851494I-140006J-6D01*
G01*
X115233000Y-113037000D02*
G75*
G03*
X115773000Y-112497000I0J540000D01*
G01*
X107893000Y-112497000D02*
G75*
G03*
X108433000Y-113037000I540000J0D01*
G01*
X111973000Y-112497000D02*
G75*
G03*
X112513000Y-113037000I540000J0D01*
G01*
X110613000Y-112497000D02*
G75*
G03*
X111153000Y-113037000I540000J0D01*
G01*
X109253000Y-112497000D02*
G75*
G03*
X109793000Y-113037000I540000J0D01*
G01*
X110473000Y-111851500D02*
G75*
G03*
X110333000Y-111991494I0J-140000D01*
G01*
X114553000Y-111851500D02*
G75*
G03*
X114413000Y-111991494I0J-140000D01*
G01*
X109113000Y-111851500D02*
G75*
G03*
X108973000Y-111991494I0J-140000D01*
G01*
X113333006Y-111991494D02*
G75*
G03*
X113193000Y-111851494I-140006J-6D01*
G01*
X114693000Y-112497000D02*
G75*
G03*
X115233000Y-113037000I540000J0D01*
G01*
X114693006Y-111991494D02*
G75*
G03*
X114553000Y-111851494I-140006J-6D01*
G01*
X106533000Y-112497000D02*
G75*
G03*
X107073000Y-113037000I540000J0D01*
G01*
X107893006Y-111991494D02*
G75*
G03*
X107753000Y-111851494I-140006J-6D01*
G01*
X113193000Y-111851500D02*
G75*
G03*
X113053000Y-111991494I0J-140000D01*
G01*
X105713000Y-113037000D02*
G75*
G03*
X106253000Y-112497000I0J540000D01*
G01*
X107753000Y-111851500D02*
G75*
G03*
X107613000Y-111991494I0J-140000D01*
G01*
X106533006Y-111991494D02*
G75*
G03*
X106393000Y-111851494I-140006J-6D01*
G01*
X116053000Y-112497000D02*
G75*
G03*
X116593000Y-113037000I540000J0D01*
G01*
X116053006Y-111991494D02*
G75*
G03*
X115913000Y-111851494I-140006J-6D01*
G01*
X108433000Y-113037000D02*
G75*
G03*
X108973000Y-112497000I0J540000D01*
G01*
X109793000Y-113037000D02*
G75*
G03*
X110333000Y-112497000I0J540000D01*
G01*
X112513000Y-113037000D02*
G75*
G03*
X113053000Y-112497000I0J540000D01*
G01*
X113333000Y-112497000D02*
G75*
G03*
X113873000Y-113037000I540000J0D01*
G01*
X106393000Y-111851500D02*
G75*
G03*
X106253000Y-111991494I0J-140000D01*
G01*
X111153000Y-113037000D02*
G75*
G03*
X111693000Y-112497000I0J540000D01*
G01*
X171066572Y-124019057D02*
X171201572Y-123884057D01*
X162982844Y-121100000D02*
X165082844Y-123200000D01*
X162182844Y-121100000D02*
X162982844Y-121100000D01*
X155585000Y-117350000D02*
X158432844Y-117350000D01*
X170251901Y-124019057D02*
X171066572Y-124019057D01*
X155450000Y-117215000D02*
X155585000Y-117350000D01*
X165082844Y-123200000D02*
X169432844Y-123200000D01*
X169432844Y-123200000D02*
X170251901Y-124019057D01*
X158432844Y-117350000D02*
X162182844Y-121100000D01*
X170086213Y-124419057D02*
X171066572Y-124419057D01*
X158267156Y-117750000D02*
X162017156Y-121500000D01*
X162817156Y-121500000D02*
X164917156Y-123600000D01*
X155450000Y-117885000D02*
X155585000Y-117750000D01*
X171066572Y-124419057D02*
X171201572Y-124554057D01*
X169267156Y-123600000D02*
X170086213Y-124419057D01*
X155585000Y-117750000D02*
X158267156Y-117750000D01*
X164917156Y-123600000D02*
X169267156Y-123600000D01*
X162017156Y-121500000D02*
X162817156Y-121500000D01*
D47*
X174536000Y-105224000D02*
X175013000Y-105224000D01*
X175650000Y-104587000D02*
X175650000Y-103950000D01*
X175013000Y-105224000D02*
X175650000Y-104587000D01*
X175650000Y-103950000D02*
X175650000Y-102650000D01*
X175650000Y-102650000D02*
X176000000Y-102300000D01*
X181586878Y-116800000D02*
X179624687Y-118762191D01*
X182700000Y-116800000D02*
X181586878Y-116800000D01*
X191160000Y-91400000D02*
X187050000Y-91400000D01*
X185350000Y-110312762D02*
X184606511Y-111056251D01*
X184606511Y-111056251D02*
X184606511Y-114893489D01*
X177616000Y-105624000D02*
X178346572Y-105624000D01*
X184606511Y-114893489D02*
X182700000Y-116800000D01*
X185350000Y-93100000D02*
X185350000Y-110312762D01*
X187050000Y-91400000D02*
X185350000Y-93100000D01*
X178480572Y-105490000D02*
X179750000Y-105490000D01*
X178346572Y-105624000D02*
X178480572Y-105490000D01*
X183025041Y-115900000D02*
X181850000Y-115900000D01*
X174536000Y-104824000D02*
X174026000Y-104824000D01*
X184350000Y-114575041D02*
X183025041Y-115900000D01*
X174026000Y-104824000D02*
X173300000Y-105550000D01*
X181850000Y-115900000D02*
X179550000Y-118200000D01*
X179475665Y-118200000D02*
X179013276Y-118662389D01*
X184350000Y-100350000D02*
X184350000Y-114575041D01*
X179550000Y-118200000D02*
X179475665Y-118200000D01*
X174536000Y-104424000D02*
X173624000Y-104424000D01*
X183000000Y-91350000D02*
X183000000Y-98900000D01*
X173624000Y-104424000D02*
X173550000Y-104350000D01*
X193700000Y-86320000D02*
X192656989Y-85276989D01*
X192656989Y-85276989D02*
X189073011Y-85276989D01*
X189073011Y-85276989D02*
X183000000Y-91350000D01*
X188730000Y-86320000D02*
X183500000Y-91550000D01*
X191160000Y-86320000D02*
X188730000Y-86320000D01*
X178776000Y-105224000D02*
X179810000Y-104190000D01*
X177616000Y-105224000D02*
X178776000Y-105224000D01*
X183500000Y-91550000D02*
X183500000Y-99850000D01*
X183500000Y-99850000D02*
X183300000Y-100050000D01*
X189763011Y-82736989D02*
X182050000Y-90450000D01*
X182050000Y-90450000D02*
X182050000Y-99900000D01*
X174536000Y-104024000D02*
X174044000Y-104024000D01*
X192656989Y-82736989D02*
X189763011Y-82736989D01*
X173520000Y-103500000D02*
X173520000Y-103400000D01*
X174044000Y-104024000D02*
X173520000Y-103500000D01*
X193700000Y-83780000D02*
X192656989Y-82736989D01*
X189170000Y-83780000D02*
X191160000Y-83780000D01*
X177616000Y-104824000D02*
X178526000Y-104824000D01*
X182550000Y-90400000D02*
X189170000Y-83780000D01*
X178526000Y-104824000D02*
X178600000Y-104750000D01*
X182550000Y-91400000D02*
X182550000Y-90400000D01*
X177087598Y-118824000D02*
X175568038Y-117304440D01*
X177616000Y-118824000D02*
X177087598Y-118824000D01*
X179750000Y-99900000D02*
X179750000Y-102800000D01*
X179750000Y-102800000D02*
X179100000Y-103450000D01*
X178224000Y-104424000D02*
X177616000Y-104424000D01*
X179150000Y-89000000D02*
X179150000Y-98250000D01*
X178250000Y-104450000D02*
X178224000Y-104424000D01*
X179150000Y-98250000D02*
X179950000Y-99050000D01*
X189970000Y-80050000D02*
X188100000Y-80050000D01*
X179950000Y-99050000D02*
X179950000Y-99700000D01*
X188100000Y-80050000D02*
X179150000Y-89000000D01*
X191160000Y-81240000D02*
X189970000Y-80050000D01*
X178500000Y-104200000D02*
X178250000Y-104450000D01*
X178600000Y-104200000D02*
X178500000Y-104200000D01*
X179100000Y-103700000D02*
X178600000Y-104200000D01*
X179100000Y-103450000D02*
X179100000Y-103700000D01*
X179950000Y-99700000D02*
X179750000Y-99900000D01*
X210809000Y-80776000D02*
X196724000Y-80776000D01*
X181300000Y-89350000D02*
X182650000Y-88000000D01*
X180745488Y-110942322D02*
X181300000Y-110387810D01*
X178948607Y-112950000D02*
X180745488Y-111153119D01*
X196724000Y-80776000D02*
X196000000Y-81500000D01*
X180745488Y-111153119D02*
X180745488Y-110942322D01*
X177616000Y-112824000D02*
X178224000Y-112824000D01*
X178350000Y-112950000D02*
X178948607Y-112950000D01*
X181300000Y-110387810D02*
X181300000Y-89350000D01*
X178224000Y-112824000D02*
X178350000Y-112950000D01*
D49*
X101296000Y-104160000D02*
X102560000Y-104160000D01*
D51*
X163150000Y-128700000D02*
X163150000Y-129600000D01*
D49*
X102560000Y-104160000D02*
X102850000Y-104450000D01*
D51*
X163150000Y-129600000D02*
X167984632Y-134434632D01*
X167984632Y-134434632D02*
X170673672Y-134434632D01*
D47*
X192800000Y-80050000D02*
X192400000Y-80450000D01*
X195350000Y-81800000D02*
X195350000Y-80800000D01*
X179213001Y-112086999D02*
X180150000Y-111150000D01*
X199924000Y-81876000D02*
X199750000Y-82050000D01*
X186000000Y-84000000D02*
X186200000Y-84000000D01*
X199750000Y-82050000D02*
X195600000Y-82050000D01*
X194600000Y-80050000D02*
X192800000Y-80050000D01*
X177678999Y-112086999D02*
X179213001Y-112086999D01*
X195600000Y-82050000D02*
X195350000Y-81800000D01*
X180900000Y-110400000D02*
X180900000Y-109800000D01*
X195350000Y-80800000D02*
X194600000Y-80050000D01*
X180900000Y-89100000D02*
X181200000Y-88800000D01*
X177616000Y-112024000D02*
X177678999Y-112086999D01*
X186200000Y-84000000D02*
X186250000Y-84000000D01*
X210809000Y-81876000D02*
X199924000Y-81876000D01*
X180900000Y-109800000D02*
X180900000Y-89100000D01*
X186250000Y-84000000D02*
X188700000Y-81550000D01*
X180150000Y-111150000D02*
X180900000Y-110400000D01*
X181200000Y-88800000D02*
X186000000Y-84000000D01*
X179413999Y-89766573D02*
X188830572Y-80350000D01*
X189850000Y-81200000D02*
X189850000Y-81405041D01*
X180250000Y-98900000D02*
X179413999Y-98063999D01*
X188830572Y-80350000D02*
X189000000Y-80350000D01*
X209683000Y-83150000D02*
X210609000Y-84076000D01*
X180250000Y-109700000D02*
X180250000Y-98900000D01*
X210609000Y-84076000D02*
X210809000Y-84076000D01*
X189850000Y-81405041D02*
X190727970Y-82283011D01*
X194633011Y-82283011D02*
X194750000Y-82400000D01*
X179613999Y-110336001D02*
X180250000Y-109700000D01*
X178926000Y-110824000D02*
X179413999Y-110336001D01*
X194750000Y-82400000D02*
X202885593Y-82400000D01*
X190727970Y-82283011D02*
X194633011Y-82283011D01*
X179413999Y-110336001D02*
X179613999Y-110336001D01*
X179413999Y-98063999D02*
X179413999Y-89766573D01*
X207719428Y-83150000D02*
X209683000Y-83150000D01*
X202885593Y-82400000D02*
X203085593Y-82600000D01*
X203085593Y-82600000D02*
X207169428Y-82600000D01*
X189000000Y-80350000D02*
X189850000Y-81200000D01*
X207169428Y-82600000D02*
X207719428Y-83150000D01*
X177616000Y-110824000D02*
X178926000Y-110824000D01*
X173250000Y-110900000D02*
X172350000Y-110000000D01*
X210485000Y-86600000D02*
X210809000Y-86276000D01*
X202750000Y-86250000D02*
X208200000Y-86250000D01*
X173750000Y-111350000D02*
X173450000Y-111350000D01*
X174536000Y-111624000D02*
X174024000Y-111624000D01*
X172350000Y-110000000D02*
X172050000Y-110000000D01*
X208200000Y-86250000D02*
X208550000Y-86600000D01*
X174024000Y-111624000D02*
X173750000Y-111350000D01*
X173250000Y-111150000D02*
X173250000Y-110900000D01*
X208550000Y-86600000D02*
X210485000Y-86600000D01*
X173450000Y-111350000D02*
X173250000Y-111150000D01*
X202300000Y-86700000D02*
X202400000Y-86800000D01*
X180600000Y-110100000D02*
X180600000Y-89030572D01*
X178869512Y-111830488D02*
X180600000Y-110100000D01*
X209926000Y-87376000D02*
X210809000Y-87376000D01*
X188730572Y-80900000D02*
X188900000Y-80900000D01*
X209550000Y-87000000D02*
X209926000Y-87376000D01*
X207450000Y-87000000D02*
X209550000Y-87000000D01*
X202400000Y-86800000D02*
X207250000Y-86800000D01*
X178186762Y-111624000D02*
X178393250Y-111830488D01*
X177616000Y-111624000D02*
X178186762Y-111624000D01*
X178393250Y-111830488D02*
X178869512Y-111830488D01*
X207250000Y-86800000D02*
X207450000Y-87000000D01*
X180600000Y-89030572D02*
X188730572Y-80900000D01*
X181001999Y-111048573D02*
X181556511Y-110494061D01*
X181001999Y-111259370D02*
X181001999Y-111048573D01*
X197200000Y-83100000D02*
X196300000Y-83100000D01*
X199150000Y-86300000D02*
X199150000Y-85050000D01*
X181556511Y-89843489D02*
X183450000Y-87950000D01*
X179037369Y-113224000D02*
X181001999Y-111259370D01*
X210809000Y-88476000D02*
X210441251Y-88843749D01*
X199150000Y-85050000D02*
X197200000Y-83100000D01*
X177616000Y-113224000D02*
X179037369Y-113224000D01*
X203638001Y-87468573D02*
X203381427Y-87211999D01*
X203381427Y-87211999D02*
X200061999Y-87211999D01*
X210441251Y-88843749D02*
X204756511Y-88843749D01*
X203638001Y-87725239D02*
X203638001Y-87468573D01*
X181556511Y-110494061D02*
X181556511Y-89843489D01*
X200061999Y-87211999D02*
X199150000Y-86300000D01*
X204756511Y-88843749D02*
X203638001Y-87725239D01*
X197050000Y-91800000D02*
X197650000Y-91200000D01*
X203040000Y-88490000D02*
X203040000Y-89550000D01*
X197050000Y-95050000D02*
X197050000Y-91800000D01*
X201390000Y-91200000D02*
X202975000Y-89615000D01*
X197650000Y-91200000D02*
X201390000Y-91200000D01*
X194300000Y-97800000D02*
X197050000Y-95050000D01*
X202975000Y-89615000D02*
X203030000Y-89560000D01*
X179314000Y-114424000D02*
X180070000Y-115180000D01*
X189600000Y-97800000D02*
X194300000Y-97800000D01*
X203040000Y-89550000D02*
X203030000Y-89560000D01*
X177616000Y-114424000D02*
X179314000Y-114424000D01*
X175084000Y-114424000D02*
X175510000Y-114850000D01*
X174536000Y-114424000D02*
X175084000Y-114424000D01*
D49*
X173000000Y-115150000D02*
X171750000Y-115150000D01*
X173326000Y-114824000D02*
X173000000Y-115150000D01*
X174536000Y-114824000D02*
X173326000Y-114824000D01*
X208715000Y-136800000D02*
X208715000Y-135575000D01*
X208715000Y-135575000D02*
X208740000Y-135550000D01*
D48*
X160528000Y-116300000D02*
X160528000Y-114559298D01*
X144221001Y-100024000D02*
X143696000Y-100024000D01*
X144231001Y-100034000D02*
X144221001Y-100024000D01*
X160528000Y-114559298D02*
X146002702Y-100034000D01*
X146002702Y-100034000D02*
X144231001Y-100034000D01*
X143734501Y-100385499D02*
X145816797Y-100385499D01*
X145816797Y-100385499D02*
X159766000Y-114334702D01*
X159766000Y-114334702D02*
X159766000Y-116300000D01*
X143696000Y-100424000D02*
X143734501Y-100385499D01*
D47*
X174536000Y-117224000D02*
X174536000Y-116824000D01*
X171676000Y-117224000D02*
X171650000Y-117250000D01*
X175226000Y-116824000D02*
X175250000Y-116800000D01*
X174536000Y-116824000D02*
X175226000Y-116824000D01*
X174536000Y-117224000D02*
X171676000Y-117224000D01*
X177616000Y-118424000D02*
X177139000Y-118424000D01*
X176410000Y-117695000D02*
X176410000Y-117470000D01*
X177139000Y-118424000D02*
X176410000Y-117695000D01*
D49*
X174536000Y-120486000D02*
X174550000Y-120500000D01*
X174536000Y-119224000D02*
X174536000Y-120486000D01*
D48*
X159971570Y-101166860D02*
X160028430Y-101166860D01*
X152071298Y-101940000D02*
X154260000Y-101940000D01*
X142190000Y-98278702D02*
X143378702Y-97090000D01*
X156290000Y-101268430D02*
X156290000Y-101560000D01*
X172478701Y-101940000D02*
X173121213Y-101297488D01*
X156030000Y-102353140D02*
X156030000Y-101940000D01*
X154741570Y-101458430D02*
X154741570Y-101268430D01*
X141254702Y-102814000D02*
X142190000Y-101878702D01*
X157570000Y-101560000D02*
X157570000Y-102353140D01*
X161573483Y-101940000D02*
X172478701Y-101940000D01*
X140616000Y-102824000D02*
X140866000Y-102824000D01*
X158590000Y-101940000D02*
X158590000Y-101268430D01*
X143378702Y-97090000D02*
X147221298Y-97090000D01*
X158850000Y-101560000D02*
X158850000Y-102353140D01*
X157570000Y-101268430D02*
X157570000Y-101560000D01*
X156030000Y-101940000D02*
X156030000Y-101268430D01*
X155010000Y-101750000D02*
X155010000Y-102353140D01*
X160611570Y-101940000D02*
X161573483Y-101940000D01*
X156131570Y-101166860D02*
X156188430Y-101166860D01*
X173121213Y-101297488D02*
X173347488Y-101297488D01*
X157411570Y-101166860D02*
X157468430Y-101166860D01*
X160130000Y-101268430D02*
X160130000Y-101458430D01*
X156290000Y-101560000D02*
X156290000Y-102353140D01*
X140876000Y-102814000D02*
X141254702Y-102814000D01*
X147221298Y-97090000D02*
X152071298Y-101940000D01*
X159870000Y-102353140D02*
X159870000Y-101940000D01*
X140866000Y-102824000D02*
X140876000Y-102814000D01*
X158590000Y-102353140D02*
X158590000Y-101940000D01*
X158691570Y-101166860D02*
X158748430Y-101166860D01*
X155001570Y-101750000D02*
X155010000Y-101750000D01*
X158850000Y-101268430D02*
X158850000Y-101560000D01*
X157310000Y-102353140D02*
X157310000Y-101940000D01*
X154843140Y-101166860D02*
X154900000Y-101166860D01*
X142190000Y-101878702D02*
X142190000Y-98278702D01*
X155001570Y-101268430D02*
X155001570Y-101458430D01*
X155001570Y-101458430D02*
X155001570Y-101750000D01*
X157310000Y-101940000D02*
X157310000Y-101268430D01*
X159870000Y-101940000D02*
X159870000Y-101268430D01*
X157569960Y-102353140D02*
G75*
G03*
X158080000Y-102863140I510040J40D01*
G01*
X157411570Y-101166800D02*
G75*
G03*
X157310000Y-101268430I30J-101600D01*
G01*
X155520000Y-102863100D02*
G75*
G03*
X156030000Y-102353140I0J510000D01*
G01*
X159360000Y-102863100D02*
G75*
G03*
X159870000Y-102353140I0J510000D01*
G01*
X156800000Y-102863100D02*
G75*
G03*
X157310000Y-102353140I0J510000D01*
G01*
X160129940Y-101268430D02*
G75*
G03*
X160028430Y-101166860I-101540J30D01*
G01*
X160130000Y-101458430D02*
G75*
G03*
X160611570Y-101940000I481600J30D01*
G01*
X159971570Y-101166800D02*
G75*
G03*
X159870000Y-101268430I30J-101600D01*
G01*
X156289940Y-101268430D02*
G75*
G03*
X156188430Y-101166860I-101540J30D01*
G01*
X157569940Y-101268430D02*
G75*
G03*
X157468430Y-101166860I-101540J30D01*
G01*
X156131570Y-101166800D02*
G75*
G03*
X156030000Y-101268430I30J-101600D01*
G01*
X155009960Y-102353140D02*
G75*
G03*
X155520000Y-102863140I510040J40D01*
G01*
X155001540Y-101268430D02*
G75*
G03*
X154900000Y-101166860I-101540J30D01*
G01*
X158080000Y-102863100D02*
G75*
G03*
X158590000Y-102353140I0J510000D01*
G01*
X158691570Y-101166800D02*
G75*
G03*
X158590000Y-101268430I30J-101600D01*
G01*
X158849960Y-102353140D02*
G75*
G03*
X159360000Y-102863140I510040J40D01*
G01*
X158849940Y-101268430D02*
G75*
G03*
X158748430Y-101166860I-101540J30D01*
G01*
X156289960Y-102353140D02*
G75*
G03*
X156800000Y-102863140I510040J40D01*
G01*
X154843140Y-101166870D02*
G75*
G03*
X154741570Y-101268430I-40J-101530D01*
G01*
X154260000Y-101939970D02*
G75*
G03*
X154741570Y-101458430I0J481570D01*
G01*
X159490000Y-102353140D02*
X159490000Y-101940000D01*
X155390000Y-101750000D02*
X155390000Y-102353140D01*
X172321299Y-101560000D02*
X172852512Y-101028787D01*
X147378702Y-96710000D02*
X152228702Y-101560000D01*
X141810000Y-98121298D02*
X143221298Y-96710000D01*
X140876000Y-102434000D02*
X141097298Y-102434000D01*
X158210000Y-102353140D02*
X158210000Y-101940000D01*
X155381570Y-101458430D02*
X155381570Y-101750000D01*
X141097298Y-102434000D02*
X141810000Y-101721298D01*
X157411570Y-100786860D02*
X157468430Y-100786860D01*
X159490000Y-101940000D02*
X159490000Y-101268430D01*
X156930000Y-101940000D02*
X156930000Y-101268430D01*
X159971570Y-100786860D02*
X160028430Y-100786860D01*
X152228702Y-101560000D02*
X154260000Y-101560000D01*
X140616000Y-102424000D02*
X140866000Y-102424000D01*
X154361570Y-101458430D02*
X154361570Y-101268430D01*
X155650000Y-101940000D02*
X155650000Y-101268430D01*
X141810000Y-101721298D02*
X141810000Y-98121298D01*
X157950000Y-101268430D02*
X157950000Y-101560000D01*
X155381570Y-101750000D02*
X155390000Y-101750000D01*
X160510000Y-101268430D02*
X160510000Y-101458430D01*
X161573483Y-101560000D02*
X172321299Y-101560000D01*
X156131570Y-100786860D02*
X156188430Y-100786860D01*
X156930000Y-102353140D02*
X156930000Y-101940000D01*
X160611570Y-101560000D02*
X161573483Y-101560000D01*
X158210000Y-101940000D02*
X158210000Y-101268430D01*
X159230000Y-101560000D02*
X159230000Y-102353140D01*
X157950000Y-101560000D02*
X157950000Y-102353140D01*
X154843140Y-100786860D02*
X154900000Y-100786860D01*
X156670000Y-101268430D02*
X156670000Y-101560000D01*
X159230000Y-101268430D02*
X159230000Y-101560000D01*
X172852512Y-101028787D02*
X172852512Y-100802512D01*
X143221298Y-96710000D02*
X147378702Y-96710000D01*
X140866000Y-102424000D02*
X140876000Y-102434000D01*
X158691570Y-100786860D02*
X158748430Y-100786860D01*
X155381570Y-101268430D02*
X155381570Y-101458430D01*
X156670000Y-101560000D02*
X156670000Y-102353140D01*
X155650000Y-102353140D02*
X155650000Y-101940000D01*
X160509940Y-101268430D02*
G75*
G03*
X160028430Y-100786860I-481540J30D01*
G01*
X158691570Y-100786800D02*
G75*
G03*
X158210000Y-101268430I30J-481600D01*
G01*
X157949940Y-101268430D02*
G75*
G03*
X157468430Y-100786860I-481540J30D01*
G01*
X156669940Y-101268430D02*
G75*
G03*
X156188430Y-100786860I-481540J30D01*
G01*
X159360000Y-102483100D02*
G75*
G03*
X159490000Y-102353140I0J130000D01*
G01*
X160510000Y-101458430D02*
G75*
G03*
X160611570Y-101560000I101600J30D01*
G01*
X158080000Y-102483100D02*
G75*
G03*
X158210000Y-102353140I0J130000D01*
G01*
X156800000Y-102483100D02*
G75*
G03*
X156930000Y-102353140I0J130000D01*
G01*
X156669960Y-102353140D02*
G75*
G03*
X156800000Y-102483140I130040J40D01*
G01*
X157949960Y-102353140D02*
G75*
G03*
X158080000Y-102483140I130040J40D01*
G01*
X159971570Y-100786800D02*
G75*
G03*
X159490000Y-101268430I30J-481600D01*
G01*
X156131570Y-100786800D02*
G75*
G03*
X155650000Y-101268430I30J-481600D01*
G01*
X155389960Y-102353140D02*
G75*
G03*
X155520000Y-102483140I130040J40D01*
G01*
X154843140Y-100786870D02*
G75*
G03*
X154361570Y-101268430I-40J-481530D01*
G01*
X159229940Y-101268430D02*
G75*
G03*
X158748430Y-100786860I-481540J30D01*
G01*
X157411570Y-100786800D02*
G75*
G03*
X156930000Y-101268430I30J-481600D01*
G01*
X154260000Y-101559970D02*
G75*
G03*
X154361570Y-101458430I0J101570D01*
G01*
X155520000Y-102483100D02*
G75*
G03*
X155650000Y-102353140I0J130000D01*
G01*
X155381540Y-101268430D02*
G75*
G03*
X154900000Y-100786860I-481540J30D01*
G01*
X159229960Y-102353140D02*
G75*
G03*
X159360000Y-102483140I130040J40D01*
G01*
X166840000Y-103540000D02*
X166840000Y-102815833D01*
X166840000Y-103822084D02*
X166840000Y-103540000D01*
X164020000Y-102815833D02*
X164020000Y-103030000D01*
X164827917Y-104294167D02*
X164752083Y-104294167D01*
X141151001Y-104014000D02*
X141141001Y-104024000D01*
X165560000Y-103540000D02*
X165560000Y-102815833D01*
X168120000Y-103540000D02*
X168120000Y-102815833D01*
X164280000Y-103822084D02*
X164280000Y-103540000D01*
X169140000Y-102815833D02*
X169140000Y-103030000D01*
X143778702Y-98390000D02*
X142990000Y-99178702D01*
X168120000Y-104134167D02*
X168120000Y-103540000D01*
X165560000Y-103822084D02*
X165560000Y-103540000D01*
X166580000Y-103160000D02*
X166580000Y-103822084D01*
X151971298Y-103540000D02*
X146821298Y-98390000D01*
X165300000Y-102815833D02*
X165300000Y-103160000D01*
X169140000Y-103030000D02*
X169140000Y-104134167D01*
X172328701Y-103540000D02*
X169910000Y-103540000D01*
X163510000Y-103540000D02*
X162687666Y-103540000D01*
X167860000Y-102815833D02*
X167860000Y-103160000D01*
X141754702Y-104014000D02*
X141151001Y-104014000D01*
X165300000Y-103160000D02*
X165300000Y-103822084D01*
X142990000Y-99178702D02*
X142990000Y-102778702D01*
X164280000Y-103540000D02*
X164280000Y-102815833D01*
X142990000Y-102778702D02*
X141754702Y-104014000D01*
X167860000Y-103160000D02*
X167860000Y-103822084D01*
X172947488Y-103147488D02*
X172721213Y-103147488D01*
X146821298Y-98390000D02*
X143778702Y-98390000D01*
X166107917Y-104294167D02*
X166032083Y-104294167D01*
X172721213Y-103147488D02*
X172328701Y-103540000D01*
X141141001Y-104024000D02*
X140616000Y-104024000D01*
X169400000Y-103030000D02*
X169400000Y-102815833D01*
X166580000Y-102815833D02*
X166580000Y-103160000D01*
X167387917Y-104294167D02*
X167312083Y-104294167D01*
X162687666Y-103540000D02*
X151971298Y-103540000D01*
X164279967Y-102815833D02*
G75*
G03*
X164150000Y-102685833I-129967J33D01*
G01*
X169400000Y-103030000D02*
G75*
G03*
X169910000Y-103540000I510000J0D01*
G01*
X166710000Y-102685800D02*
G75*
G03*
X166580000Y-102815833I0J-130000D01*
G01*
X167387917Y-104294200D02*
G75*
G03*
X167860000Y-103822084I-17J472100D01*
G01*
X165560033Y-103822084D02*
G75*
G03*
X166032083Y-104294167I472067J-16D01*
G01*
X165430000Y-102685800D02*
G75*
G03*
X165300000Y-102815833I0J-130000D01*
G01*
X169399967Y-102815833D02*
G75*
G03*
X169270000Y-102685833I-129967J33D01*
G01*
X163510000Y-103540000D02*
G75*
G03*
X164020000Y-103030000I0J510000D01*
G01*
X168119967Y-102815833D02*
G75*
G03*
X167990000Y-102685833I-129967J33D01*
G01*
X166839967Y-102815833D02*
G75*
G03*
X166710000Y-102685833I-129967J33D01*
G01*
X169270000Y-102685800D02*
G75*
G03*
X169140000Y-102815833I0J-130000D01*
G01*
X164150000Y-102685800D02*
G75*
G03*
X164020000Y-102815833I0J-130000D01*
G01*
X164280033Y-103822084D02*
G75*
G03*
X164752083Y-104294167I472067J-16D01*
G01*
X166107917Y-104294200D02*
G75*
G03*
X166580000Y-103822084I-17J472100D01*
G01*
X164827917Y-104294200D02*
G75*
G03*
X165300000Y-103822084I-17J472100D01*
G01*
X168630000Y-104644200D02*
G75*
G03*
X169140000Y-104134167I0J510000D01*
G01*
X167990000Y-102685800D02*
G75*
G03*
X167860000Y-102815833I0J-130000D01*
G01*
X168120033Y-104134167D02*
G75*
G03*
X168630000Y-104644167I509967J-33D01*
G01*
X166840033Y-103822084D02*
G75*
G03*
X167312083Y-104294167I472067J-16D01*
G01*
X165559967Y-102815833D02*
G75*
G03*
X165430000Y-102685833I-129967J33D01*
G01*
X143621298Y-98010000D02*
X142610000Y-99021298D01*
X141597298Y-103634000D02*
X141151001Y-103634000D01*
X141141001Y-103624000D02*
X140616000Y-103624000D01*
X168760000Y-103030000D02*
X168760000Y-104134167D01*
X167220000Y-103540000D02*
X167220000Y-102815833D01*
X168500000Y-104134167D02*
X168500000Y-103540000D01*
X169780000Y-103030000D02*
X169780000Y-102815833D01*
X163640000Y-102815833D02*
X163640000Y-103030000D01*
X164920000Y-102815833D02*
X164920000Y-103160000D01*
X167387917Y-103914167D02*
X167312083Y-103914167D01*
X164660000Y-103822084D02*
X164660000Y-103540000D01*
X165940000Y-103822084D02*
X165940000Y-103540000D01*
X142610000Y-102621298D02*
X141597298Y-103634000D01*
X164660000Y-103540000D02*
X164660000Y-102815833D01*
X172452512Y-102878787D02*
X172171299Y-103160000D01*
X167220000Y-103822084D02*
X167220000Y-103540000D01*
X168760000Y-102815833D02*
X168760000Y-103030000D01*
X141151001Y-103634000D02*
X141141001Y-103624000D01*
X172452512Y-102652512D02*
X172452512Y-102878787D01*
X142610000Y-99021298D02*
X142610000Y-102621298D01*
X164827917Y-103914167D02*
X164752083Y-103914167D01*
X166200000Y-103160000D02*
X166200000Y-103822084D01*
X172171299Y-103160000D02*
X169910000Y-103160000D01*
X168500000Y-103540000D02*
X168500000Y-102815833D01*
X167480000Y-102815833D02*
X167480000Y-103160000D01*
X146978702Y-98010000D02*
X143621298Y-98010000D01*
X152128702Y-103160000D02*
X146978702Y-98010000D01*
X163510000Y-103160000D02*
X162687666Y-103160000D01*
X166200000Y-102815833D02*
X166200000Y-103160000D01*
X166107917Y-103914167D02*
X166032083Y-103914167D01*
X167480000Y-103160000D02*
X167480000Y-103822084D01*
X164920000Y-103160000D02*
X164920000Y-103822084D01*
X162687666Y-103160000D02*
X152128702Y-103160000D01*
X165940000Y-103540000D02*
X165940000Y-102815833D01*
X167220033Y-103822084D02*
G75*
G03*
X167312083Y-103914167I92067J-16D01*
G01*
X166107917Y-103914200D02*
G75*
G03*
X166200000Y-103822084I-17J92100D01*
G01*
X167990000Y-102305800D02*
G75*
G03*
X167480000Y-102815833I0J-510000D01*
G01*
X169270000Y-102305800D02*
G75*
G03*
X168760000Y-102815833I0J-510000D01*
G01*
X164660033Y-103822084D02*
G75*
G03*
X164752083Y-103914167I92067J-16D01*
G01*
X163510000Y-103160000D02*
G75*
G03*
X163640000Y-103030000I0J130000D01*
G01*
X168500033Y-104134167D02*
G75*
G03*
X168630000Y-104264167I129967J-33D01*
G01*
X165939967Y-102815833D02*
G75*
G03*
X165430000Y-102305833I-509967J33D01*
G01*
X164150000Y-102305800D02*
G75*
G03*
X163640000Y-102815833I0J-510000D01*
G01*
X169779967Y-102815833D02*
G75*
G03*
X169270000Y-102305833I-509967J33D01*
G01*
X169780000Y-103030000D02*
G75*
G03*
X169910000Y-103160000I130000J0D01*
G01*
X165430000Y-102305800D02*
G75*
G03*
X164920000Y-102815833I0J-510000D01*
G01*
X167219967Y-102815833D02*
G75*
G03*
X166710000Y-102305833I-509967J33D01*
G01*
X168499967Y-102815833D02*
G75*
G03*
X167990000Y-102305833I-509967J33D01*
G01*
X167387917Y-103914200D02*
G75*
G03*
X167480000Y-103822084I-17J92100D01*
G01*
X166710000Y-102305800D02*
G75*
G03*
X166200000Y-102815833I0J-510000D01*
G01*
X164827917Y-103914200D02*
G75*
G03*
X164920000Y-103822084I-17J92100D01*
G01*
X165940033Y-103822084D02*
G75*
G03*
X166032083Y-103914167I92067J-16D01*
G01*
X168630000Y-104264200D02*
G75*
G03*
X168760000Y-104134167I0J130000D01*
G01*
X164659967Y-102815833D02*
G75*
G03*
X164150000Y-102305833I-509967J33D01*
G01*
D47*
X145350000Y-101200000D02*
X145400000Y-101200000D01*
X167550000Y-104650000D02*
X168750000Y-105850000D01*
X143696000Y-101224000D02*
X144426000Y-101224000D01*
X152148000Y-104650000D02*
X167550000Y-104650000D01*
X145400000Y-101200000D02*
X145700000Y-101500000D01*
X145300000Y-101150000D02*
X145350000Y-101200000D01*
X144426000Y-101224000D02*
X144500000Y-101150000D01*
X145150000Y-101150000D02*
X145300000Y-101150000D01*
X148336000Y-100838000D02*
X152148000Y-104650000D01*
X145700000Y-101500000D02*
X145950000Y-101500000D01*
X144500000Y-101150000D02*
X145150000Y-101150000D01*
D48*
X153228702Y-100110000D02*
X148328702Y-95210000D01*
X165350000Y-99950000D02*
X165350000Y-99460000D01*
X139691498Y-101275908D02*
X140019581Y-101603991D01*
X140019581Y-101603991D02*
X140595991Y-101603991D01*
X162870000Y-99460000D02*
X162870000Y-100110000D01*
X148328702Y-95210000D02*
X142621298Y-95210000D01*
X164160000Y-100900000D02*
X164060000Y-100900000D01*
X163950000Y-100790000D02*
X163950000Y-100490000D01*
X171528701Y-100110000D02*
X165510000Y-100110000D01*
X156654773Y-100110000D02*
X153228702Y-100110000D01*
X164270000Y-99460000D02*
X164270000Y-99950000D01*
X139410000Y-99978702D02*
X139691498Y-100260200D01*
X162870000Y-100110000D02*
X162870000Y-100790000D01*
X171821213Y-100402512D02*
X171528701Y-100110000D01*
X140595991Y-101603991D02*
X140616000Y-101624000D01*
X172047488Y-100402512D02*
X171821213Y-100402512D01*
X162550000Y-100790000D02*
X162550000Y-100600000D01*
X139410000Y-98421298D02*
X139410000Y-99978702D01*
X162760000Y-100900000D02*
X162660000Y-100900000D01*
X142621298Y-95210000D02*
X139410000Y-98421298D01*
X139691498Y-100260200D02*
X139691498Y-101275908D01*
X164270000Y-99950000D02*
X164270000Y-100790000D01*
X163950000Y-100490000D02*
X163950000Y-99460000D01*
X162060000Y-100110000D02*
X156654773Y-100110000D01*
X163410000Y-98920000D02*
G75*
G03*
X162870000Y-99460000I0J-540000D01*
G01*
X162550000Y-100600000D02*
G75*
G03*
X162060000Y-100110000I-490000J0D01*
G01*
X162760000Y-100900000D02*
G75*
G03*
X162870000Y-100790000I0J110000D01*
G01*
X163950000Y-99460000D02*
G75*
G03*
X163410000Y-98920000I-540000J0D01*
G01*
X165350000Y-99950000D02*
G75*
G03*
X165510000Y-100110000I160000J0D01*
G01*
X162550000Y-100790000D02*
G75*
G03*
X162660000Y-100900000I110000J0D01*
G01*
X164160000Y-100900000D02*
G75*
G03*
X164270000Y-100790000I0J110000D01*
G01*
X164810000Y-98920000D02*
G75*
G03*
X164270000Y-99460000I0J-540000D01*
G01*
X163950000Y-100790000D02*
G75*
G03*
X164060000Y-100900000I110000J0D01*
G01*
X165350000Y-99460000D02*
G75*
G03*
X164810000Y-98920000I-540000J0D01*
G01*
X156654773Y-100490000D02*
X153071298Y-100490000D01*
X142778702Y-95590000D02*
X139790000Y-98578702D01*
X162060000Y-100490000D02*
X156654773Y-100490000D01*
X164650000Y-99460000D02*
X164650000Y-99950000D01*
X153071298Y-100490000D02*
X148171298Y-95590000D01*
X163250000Y-99460000D02*
X163250000Y-100110000D01*
X162760000Y-101280000D02*
X162660000Y-101280000D01*
X164970000Y-99950000D02*
X164970000Y-99460000D01*
X140071489Y-101118511D02*
X140616000Y-101118511D01*
X139790000Y-99821298D02*
X140071489Y-100102787D01*
X164650000Y-99950000D02*
X164650000Y-100790000D01*
X139790000Y-98578702D02*
X139790000Y-99821298D01*
X140616000Y-101118511D02*
X140616000Y-101224000D01*
X140071489Y-100102787D02*
X140071489Y-101118511D01*
X171552512Y-100897488D02*
X171552512Y-100671213D01*
X164160000Y-101280000D02*
X164060000Y-101280000D01*
X162170000Y-100790000D02*
X162170000Y-100600000D01*
X171552512Y-100671213D02*
X171371299Y-100490000D01*
X163570000Y-100490000D02*
X163570000Y-99460000D01*
X163570000Y-100790000D02*
X163570000Y-100490000D01*
X163250000Y-100110000D02*
X163250000Y-100790000D01*
X148171298Y-95590000D02*
X142778702Y-95590000D01*
X171371299Y-100490000D02*
X165510000Y-100490000D01*
X164970000Y-99950000D02*
G75*
G03*
X165510000Y-100490000I540000J0D01*
G01*
X164160000Y-101280000D02*
G75*
G03*
X164650000Y-100790000I0J490000D01*
G01*
X163570000Y-100790000D02*
G75*
G03*
X164060000Y-101280000I490000J0D01*
G01*
X164810000Y-99300000D02*
G75*
G03*
X164650000Y-99460000I0J-160000D01*
G01*
X163410000Y-99300000D02*
G75*
G03*
X163250000Y-99460000I0J-160000D01*
G01*
X163570000Y-99460000D02*
G75*
G03*
X163410000Y-99300000I-160000J0D01*
G01*
X162170000Y-100600000D02*
G75*
G03*
X162060000Y-100490000I-110000J0D01*
G01*
X162170000Y-100790000D02*
G75*
G03*
X162660000Y-101280000I490000J0D01*
G01*
X162760000Y-101280000D02*
G75*
G03*
X163250000Y-100790000I0J490000D01*
G01*
X164970000Y-99460000D02*
G75*
G03*
X164810000Y-99300000I-160000J0D01*
G01*
D49*
X205359000Y-135509000D02*
X205315000Y-135553000D01*
X205315000Y-135553000D02*
X205315000Y-136800000D01*
X186088827Y-129050000D02*
X185741591Y-128702764D01*
X189411000Y-132461000D02*
X199136000Y-132461000D01*
X187650000Y-129850000D02*
X187650000Y-130700000D01*
X186850000Y-129050000D02*
X186088827Y-129050000D01*
X186850000Y-129050000D02*
X187650000Y-129850000D01*
X187650000Y-130700000D02*
X189411000Y-132461000D01*
X199136000Y-132461000D02*
X201515000Y-130082000D01*
X201515000Y-130082000D02*
X201515000Y-129800000D01*
X197600000Y-90300000D02*
X198310000Y-90300000D01*
X198310000Y-90300000D02*
X198344000Y-90266000D01*
D53*
X197700000Y-86050000D02*
X198220000Y-86050000D01*
X198220000Y-86050000D02*
X198269000Y-86001000D01*
D47*
X177616000Y-103624000D02*
X178063238Y-103624000D01*
X179450000Y-99250000D02*
X178700000Y-98500000D01*
X178186999Y-103278928D02*
X179450000Y-102015927D01*
X178700000Y-98500000D02*
X178700000Y-90600000D01*
X179450000Y-102015927D02*
X179450000Y-99250000D01*
X178063238Y-103624000D02*
X178186999Y-103500239D01*
X178186999Y-103500239D02*
X178186999Y-103278928D01*
D49*
X179150000Y-121450000D02*
X179150000Y-122650000D01*
X178900000Y-122700000D02*
X179100000Y-122700000D01*
X179100000Y-122700000D02*
X179150000Y-122650000D01*
X179369297Y-123169297D02*
X178900000Y-122700000D01*
X181612368Y-123169297D02*
X179369297Y-123169297D01*
X186900000Y-131520500D02*
X188602500Y-133223000D01*
X199517000Y-133223000D02*
X201168000Y-131572000D01*
X188602500Y-133223000D02*
X199517000Y-133223000D01*
X206943000Y-131572000D02*
X208715000Y-129800000D01*
X184390000Y-128150000D02*
X184415000Y-128125000D01*
X184415000Y-128125000D02*
X184540000Y-128000000D01*
X180420000Y-128150000D02*
X184390000Y-128150000D01*
X184540000Y-128000000D02*
X186900000Y-128000000D01*
X186900000Y-131520500D02*
X186900000Y-130500000D01*
X185890000Y-129490000D02*
X185780000Y-129490000D01*
X201168000Y-131572000D02*
X206943000Y-131572000D01*
X185780000Y-129490000D02*
X184415000Y-128125000D01*
X186900000Y-130500000D02*
X185890000Y-129490000D01*
D47*
X167200000Y-124650000D02*
X166200000Y-125650000D01*
X169300000Y-124650000D02*
X167200000Y-124650000D01*
D53*
X205150000Y-83350000D02*
X203350000Y-83350000D01*
X199800000Y-82800000D02*
X199650000Y-82950000D01*
X205350000Y-83550000D02*
X205150000Y-83350000D01*
X203350000Y-83350000D02*
X202800000Y-82800000D01*
X202800000Y-82800000D02*
X199800000Y-82800000D01*
X207500000Y-83550000D02*
X205350000Y-83550000D01*
D49*
X199390000Y-129875000D02*
X199315000Y-129800000D01*
X202946000Y-137160000D02*
X202946000Y-132207000D01*
X199390000Y-131064000D02*
X199390000Y-129875000D01*
D51*
X105775000Y-131175000D02*
X104394000Y-131175000D01*
X199815000Y-136800000D02*
X199545000Y-136530000D01*
X111130000Y-136530000D02*
X105775000Y-131175000D01*
X199545000Y-136530000D02*
X111130000Y-136530000D01*
D49*
X135636000Y-120904000D02*
X150368000Y-120904000D01*
X101312000Y-113812000D02*
X128544000Y-113812000D01*
X155448000Y-115824000D02*
X157734000Y-115824000D01*
X150368000Y-120904000D02*
X155448000Y-115824000D01*
X128544000Y-113812000D02*
X135636000Y-120904000D01*
D47*
X140110000Y-119224000D02*
X140616000Y-119224000D01*
X111450000Y-94900000D02*
X135774000Y-119224000D01*
X135774000Y-119264000D02*
X136398000Y-119888000D01*
X107036750Y-91275000D02*
X110775000Y-91275000D01*
X110775000Y-91275000D02*
X111450000Y-91950000D01*
X111450000Y-91950000D02*
X111450000Y-94900000D01*
X135774000Y-119224000D02*
X135774000Y-119264000D01*
X139446000Y-119888000D02*
X140110000Y-119224000D01*
X136398000Y-119888000D02*
X139446000Y-119888000D01*
X161290000Y-114554000D02*
X146360000Y-99624000D01*
X161290000Y-115316000D02*
X161290000Y-114554000D01*
X146360000Y-99624000D02*
X143696000Y-99624000D01*
M02*
