G04 #@! TF.GenerationSoftware,KiCad,Pcbnew,(6.99.0-3780-g6ddc5c1a6e)*
G04 #@! TF.CreationDate,2022-10-07T14:26:14+02:00*
G04 #@! TF.ProjectId,Unifying,556e6966-7969-46e6-972e-6b696361645f,rev?*
G04 #@! TF.SameCoordinates,Original*
G04 #@! TF.FileFunction,Copper,L4,Bot*
G04 #@! TF.FilePolarity,Positive*
%FSLAX46Y46*%
G04 Gerber Fmt 4.6, Leading zero omitted, Abs format (unit mm)*
G04 Created by KiCad (PCBNEW (6.99.0-3780-g6ddc5c1a6e)) date 2022-10-07 14:26:14*
%MOMM*%
%LPD*%
G01*
G04 APERTURE LIST*
G04 Aperture macros list*
%AMRoundRect*
0 Rectangle with rounded corners*
0 $1 Rounding radius*
0 $2 $3 $4 $5 $6 $7 $8 $9 X,Y pos of 4 corners*
0 Add a 4 corners polygon primitive as box body*
4,1,4,$2,$3,$4,$5,$6,$7,$8,$9,$2,$3,0*
0 Add four circle primitives for the rounded corners*
1,1,$1+$1,$2,$3*
1,1,$1+$1,$4,$5*
1,1,$1+$1,$6,$7*
1,1,$1+$1,$8,$9*
0 Add four rect primitives between the rounded corners*
20,1,$1+$1,$2,$3,$4,$5,0*
20,1,$1+$1,$4,$5,$6,$7,0*
20,1,$1+$1,$6,$7,$8,$9,0*
20,1,$1+$1,$8,$9,$2,$3,0*%
G04 Aperture macros list end*
%ADD10C,0.300000*%
G04 #@! TA.AperFunction,NonConductor*
%ADD11C,0.300000*%
G04 #@! TD*
G04 #@! TA.AperFunction,NonConductor*
%ADD12C,0.200000*%
G04 #@! TD*
G04 #@! TA.AperFunction,ComponentPad*
%ADD13C,1.500000*%
G04 #@! TD*
G04 #@! TA.AperFunction,ComponentPad*
%ADD14C,2.500000*%
G04 #@! TD*
G04 #@! TA.AperFunction,ComponentPad*
%ADD15RoundRect,0.250500X-0.499500X0.499500X-0.499500X-0.499500X0.499500X-0.499500X0.499500X0.499500X0*%
G04 #@! TD*
G04 #@! TA.AperFunction,ComponentPad*
%ADD16O,1.700000X1.700000*%
G04 #@! TD*
G04 #@! TA.AperFunction,ComponentPad*
%ADD17R,1.700000X1.700000*%
G04 #@! TD*
G04 #@! TA.AperFunction,SMDPad,CuDef*
%ADD18R,0.550000X0.300000*%
G04 #@! TD*
G04 #@! TA.AperFunction,SMDPad,CuDef*
%ADD19R,0.550000X0.400000*%
G04 #@! TD*
G04 #@! TA.AperFunction,SMDPad,CuDef*
%ADD20RoundRect,0.135000X0.135000X0.185000X-0.135000X0.185000X-0.135000X-0.185000X0.135000X-0.185000X0*%
G04 #@! TD*
G04 #@! TA.AperFunction,ComponentPad*
%ADD21R,0.850000X0.850000*%
G04 #@! TD*
G04 #@! TA.AperFunction,ComponentPad*
%ADD22O,0.850000X0.850000*%
G04 #@! TD*
G04 #@! TA.AperFunction,ComponentPad*
%ADD23R,3.000000X3.000000*%
G04 #@! TD*
G04 #@! TA.AperFunction,ComponentPad*
%ADD24C,3.000000*%
G04 #@! TD*
G04 #@! TA.AperFunction,ComponentPad*
%ADD25C,0.500000*%
G04 #@! TD*
G04 #@! TA.AperFunction,SMDPad,CuDef*
%ADD26R,1.800000X4.400000*%
G04 #@! TD*
G04 #@! TA.AperFunction,SMDPad,CuDef*
%ADD27R,1.750000X0.400000*%
G04 #@! TD*
G04 #@! TA.AperFunction,SMDPad,CuDef*
%ADD28R,0.700000X1.825000*%
G04 #@! TD*
G04 #@! TA.AperFunction,SMDPad,CuDef*
%ADD29R,1.400000X2.000000*%
G04 #@! TD*
G04 #@! TA.AperFunction,ComponentPad*
%ADD30O,1.700000X1.300000*%
G04 #@! TD*
G04 #@! TA.AperFunction,SMDPad,CuDef*
%ADD31R,2.000000X1.300000*%
G04 #@! TD*
G04 #@! TA.AperFunction,ComponentPad*
%ADD32O,1.400000X1.000000*%
G04 #@! TD*
G04 #@! TA.AperFunction,SMDPad,CuDef*
%ADD33R,2.500000X1.425000*%
G04 #@! TD*
G04 #@! TA.AperFunction,ComponentPad*
%ADD34C,2.000000*%
G04 #@! TD*
G04 #@! TA.AperFunction,SMDPad,CuDef*
%ADD35R,1.900000X0.300000*%
G04 #@! TD*
G04 #@! TA.AperFunction,ComponentPad*
%ADD36R,1.350000X1.350000*%
G04 #@! TD*
G04 #@! TA.AperFunction,ComponentPad*
%ADD37O,1.350000X1.350000*%
G04 #@! TD*
G04 #@! TA.AperFunction,SMDPad,CuDef*
%ADD38R,1.500000X2.000000*%
G04 #@! TD*
G04 #@! TA.AperFunction,ComponentPad*
%ADD39R,1.500000X1.600000*%
G04 #@! TD*
G04 #@! TA.AperFunction,ComponentPad*
%ADD40C,1.600000*%
G04 #@! TD*
G04 #@! TA.AperFunction,SMDPad,CuDef*
%ADD41R,1.100000X0.700000*%
G04 #@! TD*
G04 #@! TA.AperFunction,SMDPad,CuDef*
%ADD42R,0.930000X0.900000*%
G04 #@! TD*
G04 #@! TA.AperFunction,SMDPad,CuDef*
%ADD43R,0.780000X1.050000*%
G04 #@! TD*
G04 #@! TA.AperFunction,SMDPad,CuDef*
%ADD44R,3.330000X0.700000*%
G04 #@! TD*
G04 #@! TA.AperFunction,SMDPad,CuDef*
%ADD45R,1.830000X1.140000*%
G04 #@! TD*
G04 #@! TA.AperFunction,SMDPad,CuDef*
%ADD46R,2.800000X0.860000*%
G04 #@! TD*
G04 #@! TA.AperFunction,SMDPad,CuDef*
%ADD47R,0.700000X0.200000*%
G04 #@! TD*
G04 #@! TA.AperFunction,SMDPad,CuDef*
%ADD48R,0.300000X1.900000*%
G04 #@! TD*
G04 #@! TA.AperFunction,ViaPad*
%ADD49C,0.450000*%
G04 #@! TD*
G04 #@! TA.AperFunction,ViaPad*
%ADD50C,0.420000*%
G04 #@! TD*
G04 #@! TA.AperFunction,ViaPad*
%ADD51C,0.600000*%
G04 #@! TD*
G04 #@! TA.AperFunction,ViaPad*
%ADD52C,0.800000*%
G04 #@! TD*
G04 #@! TA.AperFunction,Conductor*
%ADD53C,0.200000*%
G04 #@! TD*
G04 #@! TA.AperFunction,Conductor*
%ADD54C,0.127000*%
G04 #@! TD*
G04 #@! TA.AperFunction,Conductor*
%ADD55C,0.150000*%
G04 #@! TD*
G04 #@! TA.AperFunction,Conductor*
%ADD56C,0.130000*%
G04 #@! TD*
G04 #@! TA.AperFunction,Conductor*
%ADD57C,0.500000*%
G04 #@! TD*
G04 #@! TA.AperFunction,Conductor*
%ADD58C,1.000000*%
G04 #@! TD*
G04 APERTURE END LIST*
D10*
D11*
X222636883Y-118418204D02*
X222637390Y-117418205D01*
X222637390Y-117418205D02*
X224137064Y-118061822D01*
X224137715Y-116776108D02*
X224137860Y-116490394D01*
X224137860Y-116490394D02*
X224066504Y-116347500D01*
X224066504Y-116347500D02*
X223995111Y-116276036D01*
X223995111Y-116276036D02*
X223780898Y-116133070D01*
X223780898Y-116133070D02*
X223495220Y-116061497D01*
X223495220Y-116061497D02*
X222923791Y-116061207D01*
X222923791Y-116061207D02*
X222780898Y-116132563D01*
X222780898Y-116132563D02*
X222709433Y-116203956D01*
X222709433Y-116203956D02*
X222637932Y-116346777D01*
X222637932Y-116346777D02*
X222637788Y-116632491D01*
X222637788Y-116632491D02*
X222709144Y-116775384D01*
X222709144Y-116775384D02*
X222780536Y-116846849D01*
X222780536Y-116846849D02*
X222923357Y-116918350D01*
X222923357Y-116918350D02*
X223280500Y-116918531D01*
X223280500Y-116918531D02*
X223423393Y-116847175D01*
X223423393Y-116847175D02*
X223494858Y-116775782D01*
X223494858Y-116775782D02*
X223566359Y-116632961D01*
X223566359Y-116632961D02*
X223566504Y-116347247D01*
X223566504Y-116347247D02*
X223495147Y-116204354D01*
X223495147Y-116204354D02*
X223423755Y-116132889D01*
X223423755Y-116132889D02*
X223280934Y-116061388D01*
X224067010Y-115347501D02*
X224138439Y-115347537D01*
X224138439Y-115347537D02*
X224281260Y-115419038D01*
X224281260Y-115419038D02*
X224352652Y-115490503D01*
X222638909Y-114418206D02*
X222638982Y-114275348D01*
X222638982Y-114275348D02*
X222710483Y-114132527D01*
X222710483Y-114132527D02*
X222781947Y-114061135D01*
X222781947Y-114061135D02*
X222924841Y-113989779D01*
X222924841Y-113989779D02*
X223210591Y-113918495D01*
X223210591Y-113918495D02*
X223567734Y-113918676D01*
X223567734Y-113918676D02*
X223853412Y-113990249D01*
X223853412Y-113990249D02*
X223996233Y-114061750D01*
X223996233Y-114061750D02*
X224067625Y-114133215D01*
X224067625Y-114133215D02*
X224138982Y-114276108D01*
X224138982Y-114276108D02*
X224138909Y-114418965D01*
X224138909Y-114418965D02*
X224067408Y-114561786D01*
X224067408Y-114561786D02*
X223995943Y-114633179D01*
X223995943Y-114633179D02*
X223853050Y-114704535D01*
X223853050Y-114704535D02*
X223567300Y-114775819D01*
X223567300Y-114775819D02*
X223210157Y-114775638D01*
X223210157Y-114775638D02*
X222924479Y-114704065D01*
X222924479Y-114704065D02*
X222781658Y-114632564D01*
X222781658Y-114632564D02*
X222710266Y-114561099D01*
X222710266Y-114561099D02*
X222638909Y-114418206D01*
X224139944Y-112376109D02*
X223139944Y-112375602D01*
X223282801Y-112375675D02*
X223211409Y-112304210D01*
X223211409Y-112304210D02*
X223140053Y-112161317D01*
X223140053Y-112161317D02*
X223140161Y-111947031D01*
X223140161Y-111947031D02*
X223211662Y-111804210D01*
X223211662Y-111804210D02*
X223354556Y-111732854D01*
X223354556Y-111732854D02*
X224140270Y-111733252D01*
X223354556Y-111732854D02*
X223211735Y-111661353D01*
X223211735Y-111661353D02*
X223140378Y-111518460D01*
X223140378Y-111518460D02*
X223140487Y-111304174D01*
X223140487Y-111304174D02*
X223211988Y-111161353D01*
X223211988Y-111161353D02*
X223354881Y-111089997D01*
X223354881Y-111089997D02*
X224140595Y-111090395D01*
X224140957Y-110376109D02*
X223140957Y-110375603D01*
X223283814Y-110375675D02*
X223212422Y-110304210D01*
X223212422Y-110304210D02*
X223141066Y-110161317D01*
X223141066Y-110161317D02*
X223141174Y-109947031D01*
X223141174Y-109947031D02*
X223212675Y-109804210D01*
X223212675Y-109804210D02*
X223355569Y-109732854D01*
X223355569Y-109732854D02*
X224141283Y-109733252D01*
X223355569Y-109732854D02*
X223212748Y-109661353D01*
X223212748Y-109661353D02*
X223141392Y-109518460D01*
X223141392Y-109518460D02*
X223141500Y-109304174D01*
X223141500Y-109304174D02*
X223213001Y-109161353D01*
X223213001Y-109161353D02*
X223355894Y-109089997D01*
X223355894Y-109089997D02*
X224141609Y-109090395D01*
D12*
X218240000Y-74200253D02*
X225994631Y-74204181D01*
X218200000Y-153160253D02*
X225954631Y-153164181D01*
X225408211Y-74203885D02*
X225368211Y-153163885D01*
X225408211Y-74203885D02*
X225368211Y-153163885D01*
X225408211Y-74203885D02*
X225994061Y-75330686D01*
X225408211Y-74203885D02*
X224821220Y-75330092D01*
X225368211Y-153163885D02*
X224782361Y-152037084D01*
X225368211Y-153163885D02*
X225955202Y-152037678D01*
D10*
D11*
X152812198Y-161439974D02*
X151955056Y-161439832D01*
X152383627Y-161439903D02*
X152383875Y-159939903D01*
X152383875Y-159939903D02*
X152240983Y-160154165D01*
X152240983Y-160154165D02*
X152098102Y-160296999D01*
X152098102Y-160296999D02*
X151955233Y-160368404D01*
X153383851Y-160082926D02*
X153455292Y-160011509D01*
X153455292Y-160011509D02*
X153598161Y-159940104D01*
X153598161Y-159940104D02*
X153955304Y-159940163D01*
X153955304Y-159940163D02*
X154098149Y-160011616D01*
X154098149Y-160011616D02*
X154169566Y-160083056D01*
X154169566Y-160083056D02*
X154240971Y-160225925D01*
X154240971Y-160225925D02*
X154240947Y-160368782D01*
X154240947Y-160368782D02*
X154169483Y-160583056D01*
X154169483Y-160583056D02*
X153312198Y-161440057D01*
X153312198Y-161440057D02*
X154240769Y-161440211D01*
X155169589Y-159940365D02*
X155312446Y-159940388D01*
X155312446Y-159940388D02*
X155455291Y-160011840D01*
X155455291Y-160011840D02*
X155526708Y-160083281D01*
X155526708Y-160083281D02*
X155598113Y-160226150D01*
X155598113Y-160226150D02*
X155669494Y-160511876D01*
X155669494Y-160511876D02*
X155669435Y-160869019D01*
X155669435Y-160869019D02*
X155597959Y-161154721D01*
X155597959Y-161154721D02*
X155526507Y-161297567D01*
X155526507Y-161297567D02*
X155455067Y-161368983D01*
X155455067Y-161368983D02*
X155312198Y-161440388D01*
X155312198Y-161440388D02*
X155169340Y-161440365D01*
X155169340Y-161440365D02*
X155026495Y-161368912D01*
X155026495Y-161368912D02*
X154955078Y-161297472D01*
X154955078Y-161297472D02*
X154883673Y-161154603D01*
X154883673Y-161154603D02*
X154812292Y-160868877D01*
X154812292Y-160868877D02*
X154812351Y-160511734D01*
X154812351Y-160511734D02*
X154883827Y-160226031D01*
X154883827Y-160226031D02*
X154955279Y-160083186D01*
X154955279Y-160083186D02*
X155026720Y-160011769D01*
X155026720Y-160011769D02*
X155169589Y-159940365D01*
X156383638Y-161369137D02*
X156383626Y-161440566D01*
X156383626Y-161440566D02*
X156312173Y-161583411D01*
X156312173Y-161583411D02*
X156240733Y-161654828D01*
X157240911Y-160583565D02*
X157098065Y-160512112D01*
X157098065Y-160512112D02*
X157026649Y-160440672D01*
X157026649Y-160440672D02*
X156955244Y-160297803D01*
X156955244Y-160297803D02*
X156955256Y-160226375D01*
X156955256Y-160226375D02*
X157026708Y-160083529D01*
X157026708Y-160083529D02*
X157098148Y-160012112D01*
X157098148Y-160012112D02*
X157241017Y-159940708D01*
X157241017Y-159940708D02*
X157526732Y-159940755D01*
X157526732Y-159940755D02*
X157669577Y-160012207D01*
X157669577Y-160012207D02*
X157740994Y-160083648D01*
X157740994Y-160083648D02*
X157812398Y-160226516D01*
X157812398Y-160226516D02*
X157812387Y-160297945D01*
X157812387Y-160297945D02*
X157740934Y-160440790D01*
X157740934Y-160440790D02*
X157669494Y-160512207D01*
X157669494Y-160512207D02*
X157526625Y-160583612D01*
X157526625Y-160583612D02*
X157240911Y-160583565D01*
X157240911Y-160583565D02*
X157098042Y-160654970D01*
X157098042Y-160654970D02*
X157026601Y-160726386D01*
X157026601Y-160726386D02*
X156955149Y-160869232D01*
X156955149Y-160869232D02*
X156955102Y-161154946D01*
X156955102Y-161154946D02*
X157026507Y-161297815D01*
X157026507Y-161297815D02*
X157097924Y-161369255D01*
X157097924Y-161369255D02*
X157240769Y-161440708D01*
X157240769Y-161440708D02*
X157526483Y-161440755D01*
X157526483Y-161440755D02*
X157669352Y-161369350D01*
X157669352Y-161369350D02*
X157740792Y-161297933D01*
X157740792Y-161297933D02*
X157812245Y-161155088D01*
X157812245Y-161155088D02*
X157812292Y-160869374D01*
X157812292Y-160869374D02*
X157740887Y-160726505D01*
X157740887Y-160726505D02*
X157669470Y-160655064D01*
X157669470Y-160655064D02*
X157526625Y-160583612D01*
X159355054Y-161441058D02*
X159355220Y-160441058D01*
X159355196Y-160583915D02*
X159426636Y-160512498D01*
X159426636Y-160512498D02*
X159569505Y-160441093D01*
X159569505Y-160441093D02*
X159783791Y-160441129D01*
X159783791Y-160441129D02*
X159926636Y-160512581D01*
X159926636Y-160512581D02*
X159998041Y-160655450D01*
X159998041Y-160655450D02*
X159997911Y-161441164D01*
X159998041Y-160655450D02*
X160069494Y-160512605D01*
X160069494Y-160512605D02*
X160212363Y-160441200D01*
X160212363Y-160441200D02*
X160426648Y-160441235D01*
X160426648Y-160441235D02*
X160569494Y-160512687D01*
X160569494Y-160512687D02*
X160640898Y-160655556D01*
X160640898Y-160655556D02*
X160640768Y-161441271D01*
X161355054Y-161441389D02*
X161355220Y-160441389D01*
X161355196Y-160584246D02*
X161426636Y-160512829D01*
X161426636Y-160512829D02*
X161569505Y-160441424D01*
X161569505Y-160441424D02*
X161783791Y-160441460D01*
X161783791Y-160441460D02*
X161926636Y-160512912D01*
X161926636Y-160512912D02*
X161998041Y-160655781D01*
X161998041Y-160655781D02*
X161997911Y-161441495D01*
X161998041Y-160655781D02*
X162069494Y-160512936D01*
X162069494Y-160512936D02*
X162212362Y-160441531D01*
X162212362Y-160441531D02*
X162426648Y-160441566D01*
X162426648Y-160441566D02*
X162569494Y-160513019D01*
X162569494Y-160513019D02*
X162640898Y-160655888D01*
X162640898Y-160655888D02*
X162640768Y-161441602D01*
D12*
X96949917Y-153640000D02*
X96948323Y-163266072D01*
X217719917Y-153660000D02*
X217718323Y-163286072D01*
X96948420Y-162679652D02*
X217718420Y-162699652D01*
X96948420Y-162679652D02*
X217718420Y-162699652D01*
X96948420Y-162679652D02*
X98075021Y-162093418D01*
X96948420Y-162679652D02*
X98074827Y-163266259D01*
X217718420Y-162699652D02*
X216591819Y-163285886D01*
X217718420Y-162699652D02*
X216592013Y-162113045D01*
D13*
X210832500Y-88160000D03*
X210832500Y-90700000D03*
X210832500Y-79980000D03*
X210832500Y-77440000D03*
D14*
X203722500Y-91945000D03*
D13*
X200422500Y-87245000D03*
D14*
X203722500Y-76195000D03*
D13*
X197882500Y-85975000D03*
X200422500Y-84705000D03*
X197882500Y-83435000D03*
X200422500Y-82165000D03*
X197882500Y-80895000D03*
X200422500Y-79625000D03*
D15*
X197882500Y-78355000D03*
D13*
X197882500Y-88515000D03*
X200422500Y-89785000D03*
X202942500Y-78355000D03*
X204212500Y-80895000D03*
X204212500Y-87245000D03*
X202942500Y-89785000D03*
D16*
X169944999Y-139494999D03*
X167404999Y-139494999D03*
X164864999Y-139494999D03*
X162324999Y-139494999D03*
X159784999Y-139494999D03*
D17*
X157244999Y-139494999D03*
D18*
X192009999Y-80719999D03*
X192009999Y-81219999D03*
D19*
X192009999Y-81719999D03*
D18*
X192009999Y-82219999D03*
X192009999Y-82719999D03*
X192779999Y-82719999D03*
X192779999Y-82219999D03*
D19*
X192779999Y-81719999D03*
D18*
X192779999Y-81219999D03*
X192779999Y-80719999D03*
X193044999Y-88589999D03*
X193044999Y-88089999D03*
D19*
X193044999Y-87589999D03*
D18*
X193044999Y-87089999D03*
X193044999Y-86589999D03*
X192274999Y-86589999D03*
X192274999Y-87089999D03*
D19*
X192274999Y-87589999D03*
D18*
X192274999Y-88089999D03*
X192274999Y-88589999D03*
D20*
X192140000Y-89660000D03*
X193160000Y-89660000D03*
X193150000Y-90700000D03*
X192130000Y-90700000D03*
D17*
X189609999Y-76399999D03*
D16*
X187069999Y-76399999D03*
X189609999Y-78939999D03*
X187069999Y-78939999D03*
D21*
X172749999Y-120199999D03*
D22*
X172749999Y-119199999D03*
D23*
X99491999Y-120131999D03*
D24*
X99492000Y-125212000D03*
D21*
X186799999Y-119599999D03*
D22*
X186799999Y-118599999D03*
D17*
X194189999Y-142049999D03*
D16*
X191649999Y-142049999D03*
X194189999Y-139509999D03*
X191649999Y-139509999D03*
X194189999Y-136969999D03*
X191649999Y-136969999D03*
X194189999Y-134429999D03*
X191649999Y-134429999D03*
X194189999Y-131889999D03*
X191649999Y-131889999D03*
X194189999Y-129349999D03*
X191649999Y-129349999D03*
X194189999Y-126809999D03*
X191649999Y-126809999D03*
X194189999Y-124269999D03*
X191649999Y-124269999D03*
X194189999Y-121729999D03*
X191649999Y-121729999D03*
X194189999Y-119189999D03*
X191649999Y-119189999D03*
X194189999Y-116649999D03*
X191649999Y-116649999D03*
X194189999Y-114109999D03*
X191649999Y-114109999D03*
X194189999Y-111569999D03*
X191649999Y-111569999D03*
X194189999Y-109029999D03*
X191649999Y-109029999D03*
X194189999Y-106489999D03*
X191649999Y-106489999D03*
X194189999Y-103949999D03*
X191649999Y-103949999D03*
X194189999Y-101409999D03*
X191649999Y-101409999D03*
X194189999Y-98869999D03*
X191649999Y-98869999D03*
X194189999Y-96329999D03*
X191649999Y-96329999D03*
X194189999Y-93789999D03*
X191649999Y-93789999D03*
D25*
X133574000Y-127326000D03*
X133574000Y-128626000D03*
X133574000Y-129926000D03*
X133574000Y-131226000D03*
D26*
X134223999Y-129275999D03*
D25*
X134874000Y-127326000D03*
X134874000Y-128626000D03*
X134874000Y-129926000D03*
X134874000Y-131226000D03*
D17*
X186549999Y-109549999D03*
D16*
X186549999Y-112089999D03*
X186549999Y-114629999D03*
D17*
X182799999Y-109569999D03*
D16*
X182799999Y-112109999D03*
X182799999Y-114649999D03*
D27*
X101311999Y-113811999D03*
X101311999Y-113161999D03*
X101311999Y-112511999D03*
X101311999Y-111861999D03*
X101311999Y-111211999D03*
D28*
X100191999Y-115499499D03*
D29*
X101551999Y-115361999D03*
D30*
X98491999Y-115236999D03*
D31*
X99421999Y-115236999D03*
D32*
X101521999Y-114936999D03*
D33*
X98241999Y-113474499D03*
X98241999Y-111549499D03*
D32*
X101521999Y-110086999D03*
D30*
X98491999Y-109786999D03*
D31*
X99421999Y-109786999D03*
D29*
X101551999Y-109611999D03*
D28*
X100191999Y-109524499D03*
D34*
X99610000Y-96420000D03*
X104510000Y-95820000D03*
X104510000Y-81320000D03*
X99610000Y-80720000D03*
D35*
X105509999Y-83819999D03*
X105509999Y-84319999D03*
X105509999Y-84819999D03*
X105509999Y-85319999D03*
X105509999Y-85819999D03*
X105509999Y-86319999D03*
X105509999Y-86819999D03*
X105509999Y-87319999D03*
X105509999Y-87819999D03*
X105509999Y-88319999D03*
X105509999Y-88819999D03*
X105509999Y-89319999D03*
X105509999Y-89819999D03*
X105509999Y-90319999D03*
X105509999Y-90819999D03*
X105509999Y-91319999D03*
X105509999Y-91819999D03*
X105509999Y-92319999D03*
X105509999Y-92819999D03*
D36*
X104393999Y-131174999D03*
D37*
X104393999Y-133174999D03*
X104393999Y-135174999D03*
X104393999Y-137174999D03*
D38*
X213359999Y-136799999D03*
X213359999Y-129799999D03*
X209959999Y-136799999D03*
X206159999Y-129799999D03*
X203959999Y-129799999D03*
X204459999Y-136799999D03*
D39*
X204419999Y-116059999D03*
D40*
X204420000Y-118560000D03*
X204420000Y-120560000D03*
X204420000Y-123060000D03*
D24*
X207130000Y-112990000D03*
X207130000Y-126130000D03*
D41*
X214272499Y-148225999D03*
X214272499Y-147125999D03*
X214272499Y-146025999D03*
X214272499Y-144925999D03*
X214272499Y-143825999D03*
X214272499Y-142725999D03*
X214272499Y-141625999D03*
X214272499Y-140525999D03*
D42*
X201807499Y-150015999D03*
D43*
X201732499Y-145750999D03*
D44*
X203007499Y-152325999D03*
D45*
X214257499Y-152105999D03*
D46*
X213772499Y-139445999D03*
D44*
X203007499Y-139365999D03*
D47*
X177615999Y-99623999D03*
X174535999Y-99623999D03*
X177615999Y-100023999D03*
X174535999Y-100023999D03*
X177615999Y-100423999D03*
X174535999Y-100423999D03*
X177615999Y-100823999D03*
X174535999Y-100823999D03*
X177615999Y-101223999D03*
X174535999Y-101223999D03*
X177615999Y-101623999D03*
X174535999Y-101623999D03*
X177615999Y-102023999D03*
X174535999Y-102023999D03*
X177615999Y-102423999D03*
X174535999Y-102423999D03*
X177615999Y-102823999D03*
X174535999Y-102823999D03*
X177615999Y-103223999D03*
X174535999Y-103223999D03*
X177615999Y-103623999D03*
X174535999Y-103623999D03*
X177615999Y-104023999D03*
X174535999Y-104023999D03*
X177615999Y-104423999D03*
X174535999Y-104423999D03*
X177615999Y-104823999D03*
X174535999Y-104823999D03*
X177615999Y-105223999D03*
X174535999Y-105223999D03*
X177615999Y-105623999D03*
X174535999Y-105623999D03*
X177615999Y-106023999D03*
X174535999Y-106023999D03*
X177615999Y-106423999D03*
X174535999Y-106423999D03*
X177615999Y-106823999D03*
X174535999Y-106823999D03*
X177615999Y-107223999D03*
X174535999Y-107223999D03*
X177615999Y-107623999D03*
X174535999Y-107623999D03*
X177615999Y-108023999D03*
X174535999Y-108023999D03*
X177615999Y-108423999D03*
X174535999Y-108423999D03*
X177615999Y-108823999D03*
X174535999Y-108823999D03*
X177615999Y-109223999D03*
X174535999Y-109223999D03*
X177615999Y-109623999D03*
X174535999Y-109623999D03*
X177615999Y-110023999D03*
X174535999Y-110023999D03*
X177615999Y-110423999D03*
X174535999Y-110423999D03*
X177615999Y-110823999D03*
X174535999Y-110823999D03*
X177615999Y-111223999D03*
X174535999Y-111223999D03*
X177615999Y-111623999D03*
X174535999Y-111623999D03*
X177615999Y-112023999D03*
X174535999Y-112023999D03*
X177615999Y-112423999D03*
X174535999Y-112423999D03*
X177615999Y-112823999D03*
X174535999Y-112823999D03*
X177615999Y-113223999D03*
X174535999Y-113223999D03*
X177615999Y-113623999D03*
X174535999Y-113623999D03*
X177615999Y-114023999D03*
X174535999Y-114023999D03*
X177615999Y-114423999D03*
X174535999Y-114423999D03*
X177615999Y-114823999D03*
X174535999Y-114823999D03*
X177615999Y-115223999D03*
X174535999Y-115223999D03*
X177615999Y-115623999D03*
X174535999Y-115623999D03*
X177615999Y-116023999D03*
X174535999Y-116023999D03*
X177615999Y-116423999D03*
X174535999Y-116423999D03*
X177615999Y-116823999D03*
X174535999Y-116823999D03*
X177615999Y-117223999D03*
X174535999Y-117223999D03*
X177615999Y-117623999D03*
X174535999Y-117623999D03*
X177615999Y-118023999D03*
X174535999Y-118023999D03*
X177615999Y-118423999D03*
X174535999Y-118423999D03*
X177615999Y-118823999D03*
X174535999Y-118823999D03*
X177615999Y-119223999D03*
X174535999Y-119223999D03*
X143695999Y-99623999D03*
X140615999Y-99623999D03*
X143695999Y-100023999D03*
X140615999Y-100023999D03*
X143695999Y-100423999D03*
X140615999Y-100423999D03*
X143695999Y-100823999D03*
X140615999Y-100823999D03*
X143695999Y-101223999D03*
X140615999Y-101223999D03*
X143695999Y-101623999D03*
X140615999Y-101623999D03*
X143695999Y-102023999D03*
X140615999Y-102023999D03*
X143695999Y-102423999D03*
X140615999Y-102423999D03*
X143695999Y-102823999D03*
X140615999Y-102823999D03*
X143695999Y-103223999D03*
X140615999Y-103223999D03*
X143695999Y-103623999D03*
X140615999Y-103623999D03*
X143695999Y-104023999D03*
X140615999Y-104023999D03*
X143695999Y-104423999D03*
X140615999Y-104423999D03*
X143695999Y-104823999D03*
X140615999Y-104823999D03*
X143695999Y-105223999D03*
X140615999Y-105223999D03*
X143695999Y-105623999D03*
X140615999Y-105623999D03*
X143695999Y-106023999D03*
X140615999Y-106023999D03*
X143695999Y-106423999D03*
X140615999Y-106423999D03*
X143695999Y-106823999D03*
X140615999Y-106823999D03*
X143695999Y-107223999D03*
X140615999Y-107223999D03*
X143695999Y-107623999D03*
X140615999Y-107623999D03*
X143695999Y-108023999D03*
X140615999Y-108023999D03*
X143695999Y-108423999D03*
X140615999Y-108423999D03*
X143695999Y-108823999D03*
X140615999Y-108823999D03*
X143695999Y-109223999D03*
X140615999Y-109223999D03*
X143695999Y-109623999D03*
X140615999Y-109623999D03*
X143695999Y-110023999D03*
X140615999Y-110023999D03*
X143695999Y-110423999D03*
X140615999Y-110423999D03*
X143695999Y-110823999D03*
X140615999Y-110823999D03*
X143695999Y-111223999D03*
X140615999Y-111223999D03*
X143695999Y-111623999D03*
X140615999Y-111623999D03*
X143695999Y-112023999D03*
X140615999Y-112023999D03*
X143695999Y-112423999D03*
X140615999Y-112423999D03*
X143695999Y-112823999D03*
X140615999Y-112823999D03*
X143695999Y-113223999D03*
X140615999Y-113223999D03*
X143695999Y-113623999D03*
X140615999Y-113623999D03*
X143695999Y-114023999D03*
X140615999Y-114023999D03*
X143695999Y-114423999D03*
X140615999Y-114423999D03*
X143695999Y-114823999D03*
X140615999Y-114823999D03*
X143695999Y-115223999D03*
X140615999Y-115223999D03*
X143695999Y-115623999D03*
X140615999Y-115623999D03*
X143695999Y-116023999D03*
X140615999Y-116023999D03*
X143695999Y-116423999D03*
X140615999Y-116423999D03*
X143695999Y-116823999D03*
X140615999Y-116823999D03*
X143695999Y-117223999D03*
X140615999Y-117223999D03*
X143695999Y-117623999D03*
X140615999Y-117623999D03*
X143695999Y-118023999D03*
X140615999Y-118023999D03*
X143695999Y-118423999D03*
X140615999Y-118423999D03*
X143695999Y-118823999D03*
X140615999Y-118823999D03*
X143695999Y-119223999D03*
X140615999Y-119223999D03*
D36*
X104444999Y-99859999D03*
D37*
X104444999Y-101859999D03*
X104444999Y-103859999D03*
X104444999Y-105859999D03*
D27*
X101295999Y-104159999D03*
X101295999Y-103509999D03*
X101295999Y-102859999D03*
X101295999Y-102209999D03*
X101295999Y-101559999D03*
D28*
X100175999Y-105847499D03*
D29*
X101535999Y-105709999D03*
D30*
X98475999Y-105584999D03*
D31*
X99405999Y-105584999D03*
D32*
X101505999Y-105284999D03*
D33*
X98225999Y-103822499D03*
X98225999Y-101897499D03*
D32*
X101505999Y-100434999D03*
D30*
X98475999Y-100134999D03*
D31*
X99405999Y-100134999D03*
D29*
X101535999Y-99959999D03*
D28*
X100175999Y-99872499D03*
D34*
X120490000Y-77120000D03*
X121090000Y-82020000D03*
X135590000Y-82020000D03*
X136190000Y-77120000D03*
D48*
X133089999Y-83019999D03*
X132589999Y-83019999D03*
X132089999Y-83019999D03*
X131589999Y-83019999D03*
X131089999Y-83019999D03*
X130589999Y-83019999D03*
X130089999Y-83019999D03*
X129589999Y-83019999D03*
X129089999Y-83019999D03*
X128589999Y-83019999D03*
X128089999Y-83019999D03*
X127589999Y-83019999D03*
X127089999Y-83019999D03*
X126589999Y-83019999D03*
X126089999Y-83019999D03*
X125589999Y-83019999D03*
X125089999Y-83019999D03*
X124589999Y-83019999D03*
X124089999Y-83019999D03*
D24*
X207180000Y-108678000D03*
X207180000Y-95538000D03*
D40*
X204470000Y-105608000D03*
X204470000Y-103108000D03*
X204470000Y-101108000D03*
D39*
X204469999Y-98607999D03*
D49*
X168470000Y-135590000D03*
X171400000Y-134200000D03*
X173190000Y-109470000D03*
X172650000Y-106050000D03*
X175800000Y-106040000D03*
X208560000Y-138600000D03*
X214940000Y-145980000D03*
X196920000Y-146570000D03*
X173806000Y-116424000D03*
X125450000Y-92270000D03*
X177790000Y-142620000D03*
X180010000Y-140760000D03*
X175710000Y-140860000D03*
X178230000Y-138830000D03*
X162250000Y-109090000D03*
X211660000Y-138930000D03*
X209910000Y-144030000D03*
X209850000Y-145340000D03*
X214272500Y-143826000D03*
X216150000Y-143950000D03*
X184932101Y-105733641D03*
X185020000Y-108680000D03*
X184320000Y-105652000D03*
X184330000Y-108610000D03*
X177890000Y-128680000D03*
X174920000Y-122580000D03*
X166570000Y-111490000D03*
X166550000Y-110250000D03*
X166080000Y-99240000D03*
X171590000Y-99490000D03*
X175370000Y-102050000D03*
X165260000Y-112290000D03*
X176240000Y-117470000D03*
X198430000Y-148460000D03*
X199067951Y-146912551D03*
X203050000Y-138820000D03*
X202990000Y-152360000D03*
X213300000Y-151380000D03*
X214076632Y-138906632D03*
X213410000Y-142700000D03*
X213280000Y-144920000D03*
X181580000Y-143270000D03*
X178970000Y-144180000D03*
X197270000Y-142030000D03*
X199511498Y-142058184D03*
X200968565Y-143916704D03*
X198280000Y-149640000D03*
X201033368Y-150013368D03*
X195710000Y-148210000D03*
X195422546Y-147809001D03*
X190960000Y-148550000D03*
X188470000Y-149490000D03*
X201005540Y-145987138D03*
X185700000Y-101090000D03*
X188821498Y-117976981D03*
X188634652Y-118735795D03*
X214100500Y-136820000D03*
X211010000Y-136960000D03*
X203495180Y-119868925D03*
X192900000Y-83860000D03*
X193350000Y-81720000D03*
X191370000Y-81720000D03*
X193558368Y-87661632D03*
X191710000Y-87570000D03*
X132580000Y-81870000D03*
X132600000Y-84110000D03*
X131090000Y-81870000D03*
X131093252Y-84114866D03*
X129580000Y-81860000D03*
X129593252Y-84114866D03*
X128090000Y-81860000D03*
X128085037Y-84194801D03*
X125100000Y-84260000D03*
X155250000Y-93020000D03*
D50*
X141200000Y-116400000D03*
X142900000Y-104400000D03*
X141300000Y-106800000D03*
X142350000Y-119300000D03*
X178461515Y-101070707D03*
D51*
X163920500Y-121210471D03*
X165067000Y-129008314D03*
D49*
X102600000Y-111200000D03*
X104300000Y-85820000D03*
D50*
X176200000Y-104600000D03*
X176180000Y-112260000D03*
X176200000Y-103100000D03*
X178330000Y-96090000D03*
D49*
X104300000Y-84330000D03*
D51*
X176400000Y-125000000D03*
D50*
X173950000Y-99630000D03*
D49*
X106680000Y-85820000D03*
D50*
X145720000Y-89790000D03*
D51*
X177078438Y-128318546D03*
X165159694Y-124609955D03*
D50*
X141328388Y-110428005D03*
X142900000Y-106800000D03*
D51*
X125400000Y-125200000D03*
D50*
X178700000Y-132000000D03*
X173920000Y-105630000D03*
D49*
X163510000Y-87950000D03*
D50*
X141300000Y-108000000D03*
D49*
X172250000Y-89950000D03*
X111900000Y-94450000D03*
D51*
X155100000Y-121600000D03*
D50*
X147210000Y-89790000D03*
X155850000Y-119400000D03*
X175450923Y-112255779D03*
X141328388Y-114028005D03*
X172500000Y-87900000D03*
D49*
X104320000Y-91810000D03*
X171030000Y-89870000D03*
D50*
X145600000Y-100800000D03*
X141350000Y-117250000D03*
D52*
X140100000Y-121920000D03*
D51*
X169300000Y-126800000D03*
D49*
X106680000Y-87280000D03*
D51*
X169300000Y-128200000D03*
D50*
X178460000Y-94520000D03*
D49*
X122000000Y-94550000D03*
D51*
X123900000Y-125200000D03*
X129540000Y-121412000D03*
D50*
X141300000Y-109200000D03*
X143100000Y-115200000D03*
D49*
X168060000Y-89960000D03*
D50*
X178500000Y-109990000D03*
X151710000Y-89790000D03*
D51*
X172300000Y-126800000D03*
D50*
X143000000Y-116400000D03*
D51*
X166970500Y-132000000D03*
D49*
X98200000Y-111350000D03*
D51*
X128700000Y-130900000D03*
D50*
X142972821Y-112822790D03*
D49*
X98250000Y-103800000D03*
D50*
X176220000Y-108830000D03*
D51*
X162100000Y-125400000D03*
D49*
X163530000Y-89880000D03*
D51*
X149300000Y-131800000D03*
X146900000Y-126300000D03*
D50*
X178530000Y-111359999D03*
D51*
X165300000Y-127100000D03*
D49*
X106750000Y-91810000D03*
D50*
X176230000Y-111250000D03*
D49*
X144210000Y-89780000D03*
D50*
X141200000Y-112800000D03*
X165000000Y-87900000D03*
X143000000Y-110400000D03*
D51*
X138200000Y-132300000D03*
D50*
X178745480Y-112505480D03*
X178300000Y-113690000D03*
D51*
X165329500Y-121100000D03*
D52*
X145300000Y-122800000D03*
D51*
X173939501Y-122013690D03*
X159500000Y-125400000D03*
D50*
X153250000Y-89790000D03*
X141300000Y-100800000D03*
D51*
X177100000Y-127000000D03*
D50*
X166526335Y-87735716D03*
X178666347Y-103423814D03*
D51*
X149400000Y-126300000D03*
D50*
X173930000Y-107640000D03*
X150220000Y-89790000D03*
X141300000Y-115200000D03*
D51*
X146802536Y-131783982D03*
X160200000Y-121600000D03*
D50*
X169500000Y-87900000D03*
D51*
X159800000Y-130800000D03*
D50*
X171000000Y-87900000D03*
X143000000Y-117600000D03*
D51*
X157650000Y-131750000D03*
D50*
X178512255Y-101995506D03*
X168000000Y-87900000D03*
D51*
X176360020Y-130181459D03*
X175800000Y-120900000D03*
X169300000Y-129800000D03*
D50*
X144500000Y-102000000D03*
X141300000Y-105600000D03*
D49*
X106680000Y-88820000D03*
D51*
X138000000Y-128700000D03*
D50*
X175250000Y-119100000D03*
X141350000Y-118950000D03*
D49*
X119150000Y-94650000D03*
D50*
X173860000Y-100820000D03*
D49*
X169500000Y-89890000D03*
D51*
X170800000Y-128200000D03*
D49*
X104320000Y-88820000D03*
D50*
X178469375Y-99609873D03*
X173700000Y-110850000D03*
D51*
X169757000Y-122746858D03*
D50*
X139800000Y-102100000D03*
D51*
X170800000Y-126744500D03*
D49*
X175730000Y-114470000D03*
D51*
X164400000Y-132000000D03*
D49*
X104300000Y-87300000D03*
D51*
X170800000Y-129800000D03*
D50*
X139900000Y-104400000D03*
D52*
X152900000Y-132000000D03*
D49*
X98250000Y-113450000D03*
D51*
X172300000Y-129700000D03*
D50*
X176150000Y-107800000D03*
X144500000Y-103200000D03*
X142900000Y-105600000D03*
X176190854Y-101535500D03*
D49*
X102450000Y-101550000D03*
D51*
X157700000Y-121600000D03*
D49*
X98200000Y-101950000D03*
D51*
X170800000Y-123000000D03*
X172126379Y-122210716D03*
D52*
X142800000Y-122800000D03*
D50*
X143000000Y-111600000D03*
X141300000Y-111600000D03*
D52*
X147900000Y-122800000D03*
D50*
X173860000Y-102030000D03*
D49*
X165010000Y-89860000D03*
D50*
X178520000Y-94060000D03*
D51*
X131572000Y-121412000D03*
D50*
X139900000Y-103200000D03*
X176500000Y-106130000D03*
D49*
X166540000Y-89860000D03*
D51*
X152600000Y-121600000D03*
D50*
X143000000Y-114000000D03*
X148720000Y-89790000D03*
D49*
X106680000Y-84330000D03*
D51*
X133700000Y-133500000D03*
X172300000Y-128100000D03*
D50*
X162250000Y-117300000D03*
X173961700Y-109661475D03*
D49*
X123150000Y-122000000D03*
X123250000Y-120150000D03*
X123200000Y-121150000D03*
D51*
X157700000Y-129900000D03*
D50*
X178310000Y-116400000D03*
D51*
X131572000Y-124900000D03*
X143000000Y-124800000D03*
X130600000Y-129900000D03*
X145600000Y-124800000D03*
D50*
X176850000Y-116460000D03*
D51*
X138000000Y-124800000D03*
X160800000Y-129000000D03*
X129500000Y-124900000D03*
X128350000Y-120800000D03*
D50*
X176790000Y-115550000D03*
D51*
X130600000Y-128600000D03*
D50*
X176820000Y-116020000D03*
D51*
X177200000Y-122750000D03*
D50*
X178340000Y-115870000D03*
X178320000Y-115430000D03*
D51*
X140500000Y-124800000D03*
X128100000Y-125000000D03*
X129700000Y-127000000D03*
D49*
X122200000Y-95650000D03*
D51*
X127600000Y-122700000D03*
D49*
X145802512Y-111577488D03*
X146297488Y-111082512D03*
X147620000Y-110820000D03*
X147620000Y-110120000D03*
X144989080Y-105665512D03*
X145689080Y-105665512D03*
X146676512Y-105152512D03*
X147171488Y-105647488D03*
X148708512Y-105152512D03*
X149419618Y-105120500D03*
X142010000Y-118574000D03*
X142010000Y-117874000D03*
X147170000Y-118574000D03*
X147170000Y-117874000D03*
X147140000Y-117100000D03*
X147140000Y-116400000D03*
X147090000Y-115480000D03*
X147090000Y-114780000D03*
X147150000Y-113800000D03*
X147150000Y-113100000D03*
X180350000Y-121000000D03*
X178400000Y-118950000D03*
X176800000Y-119200000D03*
D50*
X143000000Y-109200000D03*
D49*
X126500000Y-92600000D03*
D50*
X142700000Y-108700000D03*
X142700000Y-108100000D03*
D49*
X124500000Y-92150000D03*
X124110000Y-89500000D03*
D50*
X142900000Y-107500000D03*
D49*
X176550000Y-120550000D03*
X175357144Y-111668719D03*
D50*
X166780964Y-129345000D03*
X166780964Y-128675000D03*
D49*
X103311716Y-102835000D03*
X103311716Y-103535000D03*
X173600000Y-110200000D03*
X175300000Y-109900000D03*
X187900000Y-114300000D03*
X179054537Y-109749352D03*
X188100000Y-115300000D03*
X187950000Y-112900000D03*
X175550000Y-111080000D03*
X175277575Y-109281521D03*
X176070000Y-109990000D03*
X188450000Y-112300000D03*
X181336000Y-111230000D03*
X173843780Y-108987768D03*
X188060000Y-111010000D03*
X175652565Y-108510301D03*
X178580000Y-109140000D03*
X178755500Y-108538161D03*
X188140059Y-107541498D03*
X173531219Y-108072857D03*
X173300000Y-107500000D03*
X188437689Y-108038730D03*
X178549748Y-107948994D03*
X175430000Y-107530000D03*
X189640934Y-107979066D03*
X188898031Y-107428904D03*
X179800000Y-108660000D03*
X179810000Y-107150000D03*
D50*
X169100000Y-132950000D03*
X170350000Y-132900000D03*
D49*
X175259550Y-105750682D03*
X178640000Y-105950000D03*
X189910500Y-106898231D03*
X172350000Y-105170000D03*
D50*
X172300000Y-124650000D03*
X168800000Y-131900000D03*
X175400000Y-125110000D03*
D51*
X166250000Y-119400000D03*
D50*
X172700000Y-123650000D03*
X174010000Y-89800000D03*
D51*
X162000000Y-127350000D03*
D50*
X168183783Y-125280687D03*
X172490000Y-116250000D03*
X167457177Y-111168558D03*
X174500000Y-128250000D03*
X166267763Y-129025234D03*
D51*
X159550000Y-127350000D03*
D50*
X154710000Y-89800000D03*
D51*
X167000000Y-130950000D03*
D50*
X175050000Y-133550000D03*
X162250000Y-119300000D03*
D51*
X169005480Y-115455480D03*
D50*
X174000000Y-125850000D03*
X171300000Y-131900000D03*
X167128865Y-128211548D03*
X166200000Y-127050000D03*
X125705273Y-111438392D03*
X126600000Y-111400000D03*
X171201572Y-123884057D03*
X157803826Y-117250511D03*
X157800000Y-117800000D03*
X171201572Y-124554057D03*
D49*
X175971810Y-102469500D03*
X179750000Y-105490000D03*
X179624687Y-118762191D03*
X179013276Y-118662389D03*
X173303500Y-105546500D03*
X184350000Y-100350000D03*
X173550000Y-104350000D03*
X183000000Y-98900000D03*
X179810000Y-104190000D03*
X183300000Y-100050000D03*
X173520000Y-103400000D03*
X182050000Y-99900000D03*
X178600000Y-104750000D03*
D50*
X175568038Y-117304440D03*
D49*
X162090000Y-106210000D03*
X173833707Y-115243707D03*
X171360000Y-110530000D03*
X172046500Y-110596500D03*
X162880000Y-105730000D03*
X173823787Y-115844770D03*
X171860000Y-87480000D03*
X173500000Y-87540000D03*
D51*
X152400000Y-123500000D03*
D52*
X136398000Y-118872000D03*
D51*
X163150000Y-128700000D03*
X155100000Y-123500000D03*
X157650000Y-123500000D03*
D49*
X103480000Y-104650000D03*
D51*
X160100000Y-123500000D03*
D49*
X175930000Y-115070000D03*
D51*
X171350000Y-115030000D03*
D50*
X160528000Y-116300000D03*
X159766000Y-116300000D03*
D51*
X171650000Y-117250000D03*
D50*
X175250000Y-116800000D03*
X174310500Y-120500000D03*
D49*
X173347488Y-101297488D03*
X172852512Y-100802512D03*
X172947488Y-103147488D03*
X172452512Y-102652512D03*
X148336000Y-100838000D03*
X168750000Y-105850000D03*
X145950000Y-101500000D03*
X172047488Y-100402512D03*
X171552512Y-100897488D03*
D51*
X186850000Y-129050000D03*
X185741591Y-128702764D03*
D50*
X179150000Y-121450000D03*
X178900000Y-122700000D03*
X181612368Y-123169297D03*
D51*
X186900000Y-128000000D03*
D50*
X179934000Y-128571947D03*
D51*
X186259552Y-131401620D03*
D50*
X166200000Y-125650000D03*
X169298474Y-124637000D03*
X168680000Y-111370000D03*
D52*
X146750000Y-128200000D03*
D49*
X180135307Y-97339084D03*
D52*
X145800000Y-131250000D03*
D50*
X168680000Y-110730000D03*
X168680000Y-112014000D03*
D52*
X151700000Y-129850000D03*
X152850000Y-126150000D03*
D51*
X168500000Y-94380000D03*
D52*
X146750000Y-129900000D03*
X151650000Y-128150000D03*
D49*
X180357882Y-94541376D03*
D52*
X180150000Y-113000000D03*
X171150000Y-94234000D03*
D51*
X157734000Y-115824000D03*
D50*
X161290000Y-115316000D03*
X144400000Y-109600000D03*
D49*
X109275000Y-90775000D03*
X110200000Y-95200000D03*
X123380000Y-93910000D03*
X120550000Y-93650000D03*
D50*
X144400000Y-110200000D03*
D49*
X109250000Y-93300000D03*
D53*
X102990000Y-104160000D02*
X103480000Y-104650000D01*
X101296000Y-104160000D02*
X102990000Y-104160000D01*
D54*
X163290000Y-138530000D02*
X162325000Y-139495000D01*
X163290000Y-136200000D02*
X163290000Y-138530000D01*
X163710000Y-140650000D02*
X164865000Y-139495000D01*
X161291500Y-138678500D02*
X161291500Y-140051500D01*
X165550000Y-133370000D02*
X162810000Y-136110000D01*
X165772104Y-128616501D02*
X165662104Y-128616501D01*
X161291500Y-140051500D02*
X161890000Y-140650000D01*
X172410000Y-125400000D02*
X168748605Y-125400000D01*
X173210000Y-122110000D02*
X173210000Y-124600000D01*
X172850000Y-121750000D02*
X173210000Y-122110000D01*
X167450000Y-116910000D02*
X172290000Y-121750000D01*
X167450000Y-115030000D02*
X167450000Y-116910000D01*
X170976501Y-111503499D02*
X167450000Y-115030000D01*
X172753499Y-110836501D02*
X172086501Y-111503499D01*
X172753499Y-109557896D02*
X172753499Y-110836501D01*
X168748605Y-125400000D02*
X167016501Y-127132104D01*
X172782000Y-106182000D02*
X172782000Y-109529394D01*
X172650000Y-106050000D02*
X172782000Y-106182000D01*
X161767895Y-140886501D02*
X161777896Y-140896501D01*
X161607896Y-140886501D02*
X161767895Y-140886501D01*
X167016501Y-127372105D02*
X165772104Y-128616501D01*
X161030000Y-140308605D02*
X161607896Y-140886501D01*
X162810000Y-136110000D02*
X162810000Y-137160000D01*
X165670000Y-128370000D02*
X165000000Y-128370000D01*
X166770000Y-127270000D02*
X165670000Y-128370000D01*
X165550000Y-128728605D02*
X165550000Y-133370000D01*
X166003499Y-140896501D02*
X167405000Y-139495000D01*
X166770000Y-125980000D02*
X166770000Y-127270000D01*
X167016501Y-127132104D02*
X167016501Y-127372105D01*
X168030000Y-124720000D02*
X166770000Y-125980000D01*
X168840000Y-125030000D02*
X168530000Y-124720000D01*
X171580000Y-125030000D02*
X168840000Y-125030000D01*
X171760000Y-124850000D02*
X171580000Y-125030000D01*
X171760000Y-123670000D02*
X171760000Y-124850000D01*
X172290000Y-121750000D02*
X172850000Y-121750000D01*
X171520000Y-123430000D02*
X171760000Y-123670000D01*
X161777896Y-140896501D02*
X166003499Y-140896501D01*
X171520000Y-121690000D02*
X171520000Y-123430000D01*
X167200000Y-117370000D02*
X171520000Y-121690000D01*
X172782000Y-109529394D02*
X172753499Y-109557896D01*
X167200000Y-114930000D02*
X167200000Y-117370000D01*
X172086501Y-111503499D02*
X170976501Y-111503499D01*
X161030000Y-132340000D02*
X161030000Y-140308605D01*
X170873002Y-111256998D02*
X167200000Y-114930000D01*
X171963002Y-111256998D02*
X170873002Y-111256998D01*
X172506998Y-110713002D02*
X171963002Y-111256998D01*
X161890000Y-140650000D02*
X163710000Y-140650000D01*
X171410000Y-108615605D02*
X172506998Y-109712603D01*
X173550000Y-104350000D02*
X172220000Y-104350000D01*
X172220000Y-104350000D02*
X171410000Y-105160000D01*
X172506998Y-109712603D02*
X172506998Y-110713002D01*
X165662104Y-128616501D02*
X165550000Y-128728605D01*
X165000000Y-128370000D02*
X161030000Y-132340000D01*
X168530000Y-124720000D02*
X168030000Y-124720000D01*
X173210000Y-124600000D02*
X172410000Y-125400000D01*
X162810000Y-137160000D02*
X161291500Y-138678500D01*
X171410000Y-105160000D02*
X171410000Y-108615605D01*
X166086501Y-133403499D02*
X163290000Y-136200000D01*
X166086501Y-133182105D02*
X166086501Y-133403499D01*
X165806501Y-128863002D02*
X165806501Y-132902105D01*
X165874208Y-128863002D02*
X165806501Y-128863002D01*
X167263002Y-127234209D02*
X167263001Y-127474210D01*
X172462105Y-125696501D02*
X168800710Y-125696501D01*
X173456501Y-124702105D02*
X172462105Y-125696501D01*
X167770000Y-115230000D02*
X167770000Y-116821395D01*
X167770000Y-116821395D02*
X172452104Y-121503499D01*
X172452104Y-121503499D02*
X172952105Y-121503499D01*
X172952105Y-121503499D02*
X173456501Y-122007896D01*
X171220000Y-111780000D02*
X167770000Y-115230000D01*
X167263001Y-127474210D02*
X165874208Y-128863002D01*
X173190000Y-109470000D02*
X173190000Y-110840000D01*
X173456501Y-122007896D02*
X173456501Y-124702105D01*
X173190000Y-110840000D02*
X172250000Y-111780000D01*
X169134973Y-124473499D02*
X169298474Y-124637000D01*
X167376501Y-124473499D02*
X169134973Y-124473499D01*
X168800710Y-125696501D02*
X167263002Y-127234209D01*
X166200000Y-125650000D02*
X167376501Y-124473499D01*
X165806501Y-132902105D02*
X166086501Y-133182105D01*
X172250000Y-111780000D02*
X171220000Y-111780000D01*
D55*
X197790000Y-143137156D02*
X197790000Y-107788000D01*
X196337156Y-144590000D02*
X197790000Y-143137156D01*
X189218376Y-144590000D02*
X196337156Y-144590000D01*
X188273871Y-143645495D02*
X189218376Y-144590000D01*
X188273871Y-118982419D02*
X188273871Y-143645495D01*
X188205152Y-118913700D02*
X188273871Y-118982419D01*
X188205152Y-118489549D02*
X188205152Y-118913700D01*
X187296636Y-117581033D02*
X188205152Y-118489549D01*
X182536123Y-117581033D02*
X187296636Y-117581033D01*
X179567156Y-120550000D02*
X182536123Y-117581033D01*
X177973474Y-120550000D02*
X179567156Y-120550000D01*
X167592156Y-128675000D02*
X167900000Y-128367156D01*
X196502844Y-144990000D02*
X198190000Y-143302844D01*
X189223102Y-144990000D02*
X196502844Y-144990000D01*
X187925651Y-118608495D02*
X187925651Y-119029473D01*
X168300000Y-126954611D02*
X169004611Y-126250000D01*
X179732844Y-120950000D02*
X182822301Y-117860543D01*
X187925651Y-119029473D02*
X187972262Y-119076084D01*
X198190000Y-109388000D02*
X204470000Y-103108000D01*
X169004611Y-126250000D02*
X172832844Y-126250000D01*
X197790000Y-107788000D02*
X204470000Y-101108000D01*
X182822301Y-117860543D02*
X187177699Y-117860543D01*
X168908972Y-125964502D02*
X172558972Y-125964502D01*
X167487844Y-129345000D02*
X168300000Y-128532844D01*
X166780964Y-128675000D02*
X167592156Y-128675000D01*
D56*
X174424001Y-121813003D02*
X174424001Y-122084001D01*
X173840998Y-121230000D02*
X174424001Y-121813003D01*
D55*
X167900000Y-128367156D02*
X167900000Y-126973474D01*
D56*
X170720000Y-119410000D02*
X172540000Y-121230000D01*
D55*
X168300000Y-128532844D02*
X168300000Y-126954611D01*
D56*
X170720000Y-114640000D02*
X170720000Y-119410000D01*
X171030000Y-114330000D02*
X170720000Y-114640000D01*
D55*
X187990000Y-143756898D02*
X189223102Y-144990000D01*
D56*
X174056000Y-111624000D02*
X173570000Y-112110000D01*
X174536000Y-111624000D02*
X174056000Y-111624000D01*
X173570000Y-112110000D02*
X173570000Y-113120000D01*
X173570000Y-113120000D02*
X172360000Y-114330000D01*
D55*
X187972262Y-119076084D02*
X187972262Y-141752262D01*
X167900000Y-126973474D02*
X168908972Y-125964502D01*
D56*
X172540000Y-121230000D02*
X173840998Y-121230000D01*
D55*
X172832844Y-126250000D02*
X178132844Y-120950000D01*
X187990000Y-141770000D02*
X187990000Y-143756898D01*
X172558972Y-125964502D02*
X177973474Y-120550000D01*
X187972262Y-141752262D02*
X187990000Y-141770000D01*
D56*
X172360000Y-114330000D02*
X171030000Y-114330000D01*
D55*
X166780964Y-129345000D02*
X167487844Y-129345000D01*
X178132844Y-120950000D02*
X179732844Y-120950000D01*
D56*
X174424001Y-122084001D02*
X174920000Y-122580000D01*
D55*
X198190000Y-143302844D02*
X198190000Y-109388000D01*
X187177699Y-117860543D02*
X187925651Y-118608495D01*
D54*
X167240000Y-105790000D02*
X172046500Y-110596500D01*
X162940000Y-105790000D02*
X167240000Y-105790000D01*
X162880000Y-105730000D02*
X162940000Y-105790000D01*
X173999175Y-109624000D02*
X173961700Y-109661475D01*
X174536000Y-109624000D02*
X173999175Y-109624000D01*
X174007548Y-108824000D02*
X173843780Y-108987768D01*
X174536000Y-108824000D02*
X174007548Y-108824000D01*
X174536000Y-108024000D02*
X174487143Y-108072857D01*
X175566264Y-108424000D02*
X175652565Y-108510301D01*
X174487143Y-108072857D02*
X173531219Y-108072857D01*
X174536000Y-108424000D02*
X175566264Y-108424000D01*
X175220054Y-109224000D02*
X175277575Y-109281521D01*
X174536000Y-109224000D02*
X175220054Y-109224000D01*
X174536000Y-104824000D02*
X174026000Y-104824000D01*
X174026000Y-104824000D02*
X173303500Y-105546500D01*
X173883000Y-106200000D02*
X173380000Y-106200000D01*
X174059000Y-106024000D02*
X173883000Y-106200000D01*
X174536000Y-106024000D02*
X174059000Y-106024000D01*
X173380000Y-106200000D02*
X172350000Y-105170000D01*
X175860000Y-105700000D02*
X175800000Y-105760000D01*
X175800000Y-105760000D02*
X175800000Y-106040000D01*
X177616000Y-106024000D02*
X176606000Y-106024000D01*
X176606000Y-106024000D02*
X176500000Y-106130000D01*
X177616000Y-104824000D02*
X176736000Y-104824000D01*
X176736000Y-104824000D02*
X175860000Y-105700000D01*
D56*
X191862499Y-88590000D02*
X192275000Y-88590000D01*
X191802499Y-88530000D02*
X191862499Y-88590000D01*
X188888702Y-88530000D02*
X191802499Y-88530000D01*
X186480000Y-90928275D02*
X186480000Y-90210000D01*
X185460000Y-90210000D02*
X185460000Y-90928275D01*
X185200000Y-91128275D02*
X185200000Y-90210000D01*
X177710000Y-93428702D02*
X181058702Y-90080000D01*
X187338702Y-90080000D02*
X188888702Y-88530000D01*
X178262179Y-96545000D02*
X177935000Y-96545000D01*
X184180000Y-90210000D02*
X184180000Y-91128275D01*
X177710000Y-97596990D02*
X177710000Y-97220000D01*
X177070000Y-98236990D02*
X177710000Y-97596990D01*
X177070000Y-99918000D02*
X177070000Y-98236990D01*
X177710000Y-96320000D02*
X177710000Y-93428702D01*
X177176000Y-100024000D02*
X177070000Y-99918000D01*
X177616000Y-100024000D02*
X177176000Y-100024000D01*
X186610000Y-90080000D02*
G75*
G03*
X186480000Y-90210000I0J-130000D01*
G01*
X185970000Y-91438300D02*
G75*
G03*
X186480000Y-90928275I0J510000D01*
G01*
X186610000Y-90080000D02*
X187338702Y-90080000D01*
X185460025Y-90928275D02*
G75*
G03*
X185970000Y-91438275I509975J-25D01*
G01*
X183920000Y-91128275D02*
X183920000Y-90210000D01*
X185460000Y-90210000D02*
G75*
G03*
X185330000Y-90080000I-130000J0D01*
G01*
X177935000Y-96995000D02*
X178262179Y-96995000D01*
X185330000Y-90080000D02*
G75*
G03*
X185200000Y-90210000I0J-130000D01*
G01*
X184690000Y-91638300D02*
G75*
G03*
X185200000Y-91128275I0J510000D01*
G01*
X181620000Y-90210000D02*
X181620000Y-91128275D01*
X184180025Y-91128275D02*
G75*
G03*
X184690000Y-91638275I509975J-25D01*
G01*
X184180000Y-90210000D02*
G75*
G03*
X184050000Y-90080000I-130000J0D01*
G01*
X184050000Y-90080000D02*
G75*
G03*
X183920000Y-90210000I0J-130000D01*
G01*
X183410000Y-91638300D02*
G75*
G03*
X183920000Y-91128275I0J510000D01*
G01*
X182640000Y-91128275D02*
X182640000Y-90210000D01*
X182900025Y-91128275D02*
G75*
G03*
X183410000Y-91638275I509975J-25D01*
G01*
X182900000Y-90210000D02*
G75*
G03*
X182770000Y-90080000I-130000J0D01*
G01*
X182770000Y-90080000D02*
G75*
G03*
X182640000Y-90210000I0J-130000D01*
G01*
X182130000Y-91638300D02*
G75*
G03*
X182640000Y-91128275I0J510000D01*
G01*
X182900000Y-90210000D02*
X182900000Y-91128275D01*
X177710000Y-96320000D02*
G75*
G03*
X177935000Y-96545000I225000J0D01*
G01*
X181058702Y-90080000D02*
X181490000Y-90080000D01*
X181620000Y-90210000D02*
G75*
G03*
X181490000Y-90080000I-130000J0D01*
G01*
X178487200Y-96770000D02*
G75*
G03*
X178262179Y-96545000I-225000J0D01*
G01*
X181620025Y-91128275D02*
G75*
G03*
X182130000Y-91638275I509975J-25D01*
G01*
X178262179Y-96994979D02*
G75*
G03*
X178487179Y-96770000I21J224979D01*
G01*
X177935000Y-96995000D02*
G75*
G03*
X177710000Y-97220000I0J-225000D01*
G01*
X188760000Y-87090000D02*
X192275000Y-87090000D01*
X185780000Y-88328096D02*
X185780000Y-88520000D01*
X185520000Y-88520000D02*
X185520000Y-88328096D01*
X179718463Y-89530242D02*
X180218702Y-89030000D01*
X178707296Y-89424176D02*
X178735583Y-89395890D01*
X178707297Y-89424175D02*
X178707296Y-89424176D01*
X179364906Y-90237347D02*
X179364906Y-90237348D01*
X180218702Y-89030000D02*
X185010000Y-89030000D01*
X178198177Y-90513124D02*
X178643654Y-90958600D01*
X177986044Y-90300991D02*
X178198177Y-90513124D01*
X177802195Y-90329277D02*
X177830482Y-90300991D01*
X177802196Y-90329276D02*
X177802195Y-90329277D01*
X178459804Y-91142448D02*
X177802195Y-90484839D01*
X178360807Y-91863701D02*
X178360808Y-91863700D01*
X177604202Y-91729350D02*
X177738552Y-91863700D01*
X175810000Y-93438702D02*
X177519350Y-91729350D01*
X175810000Y-95900000D02*
X175810000Y-95288180D01*
X176385879Y-96200000D02*
X176110000Y-96200000D01*
X176110000Y-96800000D02*
X176385879Y-96800000D01*
X175810000Y-97363010D02*
X175810000Y-97100000D01*
X176529501Y-98082511D02*
X175810000Y-97363010D01*
X176529501Y-100617501D02*
X176529501Y-98082511D01*
X177616000Y-101224000D02*
X177136000Y-101224000D01*
X175810000Y-95288180D02*
X175810000Y-93438702D01*
X186290000Y-89030000D02*
X186820000Y-89030000D01*
X185780000Y-88520000D02*
G75*
G03*
X186290000Y-89030000I510000J0D01*
G01*
X178891145Y-89395890D02*
X179025496Y-89530241D01*
X185780004Y-88328096D02*
G75*
G03*
X185650000Y-88198096I-130004J-4D01*
G01*
X185650000Y-88198100D02*
G75*
G03*
X185520000Y-88328096I0J-130000D01*
G01*
X185010000Y-89030000D02*
G75*
G03*
X185520000Y-88520000I0J510000D01*
G01*
X179364906Y-90237348D02*
X178707296Y-89579738D01*
X179025517Y-89530220D02*
G75*
G03*
X179718462Y-89530241I346483J346420D01*
G01*
X186820000Y-89030000D02*
X188760000Y-87090000D01*
X178891145Y-89395890D02*
G75*
G03*
X178735583Y-89395890I-77781J-77784D01*
G01*
X178707341Y-89424219D02*
G75*
G03*
X178707297Y-89579737I77759J-77781D01*
G01*
X179364931Y-90859628D02*
G75*
G03*
X179364906Y-90237347I-311131J311128D01*
G01*
X178643654Y-90958600D02*
G75*
G03*
X179265910Y-90958600I311128J311129D01*
G01*
X178360808Y-91863700D02*
X178459804Y-91764703D01*
X177986044Y-90300991D02*
G75*
G03*
X177830482Y-90300991I-77781J-77784D01*
G01*
X177604202Y-91729350D02*
G75*
G03*
X177519350Y-91729350I-42426J-42427D01*
G01*
X177136000Y-101224000D02*
X176529501Y-100617501D01*
X175810000Y-95900000D02*
G75*
G03*
X176110000Y-96200000I300000J0D01*
G01*
X178459804Y-91142447D02*
X178459804Y-91142448D01*
X176685900Y-96500000D02*
G75*
G03*
X176385879Y-96200000I-300000J0D01*
G01*
X178459829Y-91764728D02*
G75*
G03*
X178459804Y-91142447I-311129J311128D01*
G01*
X179265910Y-90958600D02*
X179364906Y-90859603D01*
X177802238Y-90329318D02*
G75*
G03*
X177802195Y-90484839I77762J-77782D01*
G01*
X176385879Y-96799979D02*
G75*
G03*
X176685879Y-96500000I21J299979D01*
G01*
X177738572Y-91863680D02*
G75*
G03*
X178360807Y-91863701I311128J311080D01*
G01*
X176110000Y-96800000D02*
G75*
G03*
X175810000Y-97100000I0J-300000D01*
G01*
X191597499Y-82720000D02*
X192010000Y-82720000D01*
X191537499Y-82660000D02*
X191597499Y-82720000D01*
X176474417Y-90724281D02*
X179358702Y-87840000D01*
X176474418Y-90724281D02*
X176474417Y-90724281D01*
X176608767Y-90939217D02*
X176608768Y-90939217D01*
X176505505Y-91660466D02*
X176608768Y-91557202D01*
X175304891Y-91077836D02*
X175444179Y-91217124D01*
X175121042Y-91251810D02*
X175295017Y-91077836D01*
X179358702Y-87840000D02*
X184998702Y-87840000D01*
X175394681Y-91535320D02*
X175121042Y-91261684D01*
X175357190Y-91572809D02*
X175394681Y-91535320D01*
X175666183Y-91881802D02*
X175357190Y-91572809D01*
X174810583Y-92468701D02*
X174810584Y-92468701D01*
X174730000Y-97473010D02*
X174729999Y-92468701D01*
X175068072Y-97811081D02*
X174730000Y-97473010D01*
X175068071Y-97811081D02*
X175068072Y-97811081D01*
X175573495Y-98012767D02*
X175371809Y-97811081D01*
X175573495Y-98012766D02*
X175573495Y-98012767D01*
X175573494Y-98164636D02*
X175573495Y-98164636D01*
X175969501Y-98712511D02*
X175573495Y-98316505D01*
X175969501Y-100670499D02*
X175969501Y-98712511D01*
X175016000Y-101624000D02*
X175969501Y-100670499D01*
X176608768Y-90939217D02*
X176474417Y-90804866D01*
X174536000Y-101624000D02*
X175016000Y-101624000D01*
X176474445Y-90724308D02*
G75*
G03*
X176474418Y-90804865I40255J-40292D01*
G01*
X175444179Y-91217124D02*
X175887519Y-91660466D01*
X176608758Y-91557192D02*
G75*
G03*
X176608767Y-90939217I-308958J308992D01*
G01*
X174810584Y-92468701D02*
X174944934Y-92603051D01*
X175887519Y-91660466D02*
G75*
G03*
X176505505Y-91660466I308993J308993D01*
G01*
X174944934Y-92603051D02*
G75*
G03*
X175562920Y-92603051I308993J308993D01*
G01*
X175562920Y-92603051D02*
X175666183Y-92499787D01*
X175120995Y-91251763D02*
G75*
G03*
X175121042Y-91261684I5005J-4937D01*
G01*
X175068071Y-97811081D02*
G75*
G03*
X175219941Y-97811081I75935J75936D01*
G01*
X184998702Y-87840000D02*
X190178702Y-82660000D01*
X190178702Y-82660000D02*
X191537499Y-82660000D01*
X175371808Y-97811082D02*
G75*
G03*
X175219942Y-97811082I-75933J-75933D01*
G01*
X174810582Y-92468702D02*
G75*
G03*
X174730000Y-92468702I-40291J-40293D01*
G01*
X175304890Y-91077837D02*
G75*
G03*
X175295018Y-91077837I-4936J-4936D01*
G01*
X175666182Y-91881802D02*
X175666183Y-91881802D01*
X175573494Y-98164635D02*
G75*
G03*
X175573495Y-98012766I-75894J75935D01*
G01*
X175573525Y-98164667D02*
G75*
G03*
X175573496Y-98316504I75875J-75933D01*
G01*
X175666187Y-92499791D02*
G75*
G03*
X175666181Y-91881803I-308987J308991D01*
G01*
X189008702Y-81220000D02*
X192010000Y-81220000D01*
X178788702Y-86480000D02*
X183748702Y-86480000D01*
X177140812Y-88127890D02*
X178788702Y-86480000D01*
X175476960Y-88547236D02*
X175476961Y-88547234D01*
X174685002Y-88900787D02*
X175038555Y-88547235D01*
X174685000Y-88900788D02*
X174685002Y-88900787D01*
X173750000Y-91518702D02*
X174819351Y-90449351D01*
X183748702Y-86480000D02*
X189008702Y-81220000D01*
X173080136Y-95200137D02*
X173270137Y-95200137D01*
X172980273Y-95920274D02*
X172980273Y-95300000D01*
X173270137Y-96020137D02*
X173080136Y-96020137D01*
X173750000Y-97638647D02*
X173750000Y-96500000D01*
X176587121Y-88681586D02*
X176587120Y-88681586D01*
X174537980Y-98426627D02*
X173750000Y-97638647D01*
X174905676Y-98485823D02*
X174876077Y-98456224D01*
X175340499Y-99229146D02*
X174905676Y-98794323D01*
X175340499Y-100099501D02*
X175340499Y-99229146D01*
X173750000Y-94100000D02*
X173750000Y-91518702D01*
X175016000Y-100424000D02*
X175340499Y-100099501D01*
X174536000Y-100424000D02*
X175016000Y-100424000D01*
X175611296Y-88681601D02*
G75*
G03*
X176587120Y-88681585I487904J487901D01*
G01*
X174905675Y-98640074D02*
X174905676Y-98640073D01*
X174685011Y-88900799D02*
G75*
G03*
X174685002Y-89339192I219189J-219201D01*
G01*
X175476961Y-88547234D02*
X175611312Y-88681585D01*
X174819304Y-90449304D02*
G75*
G03*
X174819351Y-89473543I-487904J487904D01*
G01*
X172980263Y-95920274D02*
G75*
G03*
X173080136Y-96020137I99837J-26D01*
G01*
X173080136Y-95200173D02*
G75*
G03*
X172980273Y-95300000I-36J-99827D01*
G01*
X174567579Y-98456223D02*
G75*
G03*
X174721827Y-98456223I77124J77125D01*
G01*
X174721828Y-98456225D02*
X174721828Y-98456224D01*
X173750000Y-94720274D02*
X173750000Y-94100000D01*
X174819351Y-89473543D02*
X174685001Y-89339193D01*
X173749963Y-96500000D02*
G75*
G03*
X173270137Y-96020137I-479863J0D01*
G01*
X174876124Y-98456177D02*
G75*
G03*
X174721828Y-98456225I-77124J-77123D01*
G01*
X174567578Y-98456224D02*
X174537980Y-98426627D01*
X173270137Y-95200200D02*
G75*
G03*
X173750000Y-94720274I-37J479900D01*
G01*
X174905628Y-98640025D02*
G75*
G03*
X174905676Y-98485823I-77028J77125D01*
G01*
X175477003Y-88547193D02*
G75*
G03*
X175038555Y-88547235I-219203J-219207D01*
G01*
X176587120Y-88681586D02*
X177140812Y-88127890D01*
X174905677Y-98640076D02*
G75*
G03*
X174905676Y-98794323I77123J-77124D01*
G01*
X145984000Y-104024000D02*
X143696000Y-104024000D01*
X146676512Y-105152512D02*
X146676512Y-104716512D01*
X146676512Y-104716512D02*
X145984000Y-104024000D01*
X143734501Y-102785499D02*
X143696000Y-102824000D01*
X148708512Y-104878512D02*
X146615499Y-102785499D01*
X148708512Y-105152512D02*
X148708512Y-104878512D01*
X146615499Y-102785499D02*
X143734501Y-102785499D01*
X146723118Y-102424000D02*
X149419618Y-105120500D01*
X143696000Y-102424000D02*
X146723118Y-102424000D01*
X191862499Y-88090000D02*
X192275000Y-88090000D01*
X191802499Y-88150000D02*
X191862499Y-88090000D01*
X188731298Y-88150000D02*
X191802499Y-88150000D01*
X187181298Y-89700000D02*
X188731298Y-88150000D01*
X186610000Y-89700000D02*
X187181298Y-89700000D01*
X186100000Y-90928275D02*
X186100000Y-90210000D01*
X185840000Y-90210000D02*
X185840000Y-90928275D01*
X184820000Y-91128275D02*
X184820000Y-90210000D01*
X184560000Y-90210000D02*
X184560000Y-91128275D01*
X183540000Y-91128275D02*
X183540000Y-90210000D01*
X182260000Y-91128275D02*
X182260000Y-90210000D01*
X182000000Y-90210000D02*
X182000000Y-91128275D01*
X180901298Y-89700000D02*
X181490000Y-89700000D01*
X177330000Y-93271298D02*
X180901298Y-89700000D01*
X177038626Y-100424000D02*
X176810000Y-100195374D01*
X177616000Y-100424000D02*
X177038626Y-100424000D01*
X186610000Y-89700000D02*
G75*
G03*
X186100000Y-90210000I0J-510000D01*
G01*
X185840000Y-90210000D02*
G75*
G03*
X185330000Y-89700000I-510000J0D01*
G01*
X185330000Y-89700000D02*
G75*
G03*
X184820000Y-90210000I0J-510000D01*
G01*
X184690000Y-91258300D02*
G75*
G03*
X184820000Y-91128275I0J130000D01*
G01*
X183410000Y-91258300D02*
G75*
G03*
X183540000Y-91128275I0J130000D01*
G01*
X182770000Y-89700000D02*
G75*
G03*
X182260000Y-90210000I0J-510000D01*
G01*
X182000025Y-91128275D02*
G75*
G03*
X182130000Y-91258275I129975J-25D01*
G01*
X185840025Y-90928275D02*
G75*
G03*
X185970000Y-91058275I129975J-25D01*
G01*
X176810000Y-98130000D02*
X177330000Y-97610000D01*
X184050000Y-89700000D02*
G75*
G03*
X183540000Y-90210000I0J-510000D01*
G01*
X182130000Y-91258300D02*
G75*
G03*
X182260000Y-91128275I0J130000D01*
G01*
X183280000Y-90210000D02*
X183280000Y-91128275D01*
X184560000Y-90210000D02*
G75*
G03*
X184050000Y-89700000I-510000J0D01*
G01*
X182000000Y-90210000D02*
G75*
G03*
X181490000Y-89700000I-510000J0D01*
G01*
X183280025Y-91128275D02*
G75*
G03*
X183410000Y-91258275I129975J-25D01*
G01*
X185970000Y-91058300D02*
G75*
G03*
X186100000Y-90928275I0J130000D01*
G01*
X176810000Y-100195374D02*
X176810000Y-98130000D01*
X183280000Y-90210000D02*
G75*
G03*
X182770000Y-89700000I-510000J0D01*
G01*
X177330000Y-97610000D02*
X177330000Y-93271298D01*
X184560025Y-91128275D02*
G75*
G03*
X184690000Y-91258275I129975J-25D01*
G01*
X177136000Y-101624000D02*
X177616000Y-101624000D01*
X175430499Y-97350499D02*
X176270000Y-98190000D01*
X175430000Y-93281298D02*
X175430000Y-96860000D01*
X178007254Y-91594999D02*
X177872904Y-91460649D01*
X178092106Y-91594999D02*
X178092105Y-91595000D01*
X178191102Y-91496002D02*
X178092106Y-91594999D01*
X178191102Y-91411151D02*
X178191102Y-91411150D01*
X177872904Y-91460649D02*
X177872903Y-91460649D01*
X177533493Y-90753541D02*
X178191102Y-91411151D01*
X177533493Y-90060575D02*
X177533494Y-90060574D01*
X178466879Y-90244422D02*
X178254746Y-90032289D01*
X178912356Y-90689898D02*
X178466879Y-90244422D01*
X179096204Y-90590901D02*
X178997208Y-90689898D01*
X179096204Y-90506050D02*
X179096204Y-90506049D01*
X178438594Y-89848440D02*
X179096204Y-90506050D01*
X177250649Y-91460649D02*
X175430000Y-93281298D01*
X178466881Y-89127188D02*
X178438594Y-89155474D01*
X185010000Y-88650000D02*
X180061298Y-88650000D01*
X185140000Y-88328096D02*
X185140000Y-88520000D01*
X186160000Y-88520000D02*
X186160000Y-88328096D01*
X186551298Y-88650000D02*
X186290000Y-88650000D01*
X188611298Y-86590000D02*
X186551298Y-88650000D01*
X192275000Y-86590000D02*
X188611298Y-86590000D01*
X177872903Y-91460649D02*
G75*
G03*
X177250649Y-91460649I-311127J-311127D01*
G01*
X178007274Y-91594979D02*
G75*
G03*
X178092105Y-91595000I42426J42379D01*
G01*
X175430000Y-96860000D02*
X175430499Y-96860499D01*
X178191126Y-91496026D02*
G75*
G03*
X178191102Y-91411150I-42426J42426D01*
G01*
X176270000Y-98190000D02*
X176270000Y-100758000D01*
X177533536Y-90060616D02*
G75*
G03*
X177533493Y-90753541I346464J-346484D01*
G01*
X178254746Y-90032289D02*
G75*
G03*
X177561780Y-90032289I-346483J-346486D01*
G01*
X178912356Y-90689898D02*
G75*
G03*
X178997208Y-90689898I42426J42427D01*
G01*
X175430499Y-96860499D02*
X175430499Y-97350499D01*
X179159847Y-89127188D02*
G75*
G03*
X178466881Y-89127188I-346483J-346486D01*
G01*
X178438594Y-89155474D02*
X178438595Y-89155473D01*
X179294219Y-89261518D02*
G75*
G03*
X179449760Y-89261539I77781J77718D01*
G01*
X178438639Y-89155517D02*
G75*
G03*
X178438595Y-89848439I346461J-346483D01*
G01*
X185650000Y-87818100D02*
G75*
G03*
X185140000Y-88328096I0J-510000D01*
G01*
X179096229Y-90590926D02*
G75*
G03*
X179096204Y-90506049I-42429J42426D01*
G01*
X186160004Y-88328096D02*
G75*
G03*
X185650000Y-87818096I-510004J-4D01*
G01*
X180061298Y-88650000D02*
X179449761Y-89261540D01*
X177561780Y-90032289D02*
X177533493Y-90060575D01*
X185010000Y-88650000D02*
G75*
G03*
X185140000Y-88520000I0J130000D01*
G01*
X179294198Y-89261539D02*
X179159847Y-89127188D01*
X176270000Y-100758000D02*
X177136000Y-101624000D01*
X186160000Y-88520000D02*
G75*
G03*
X186290000Y-88650000I130000J0D01*
G01*
X190081298Y-82220000D02*
X192010000Y-82220000D01*
X184841298Y-87460000D02*
X190081298Y-82220000D01*
X178752464Y-87908834D02*
X179201298Y-87460000D01*
X176205716Y-90455580D02*
X178752464Y-87908834D01*
X176340066Y-91207916D02*
X176340067Y-91207917D01*
X175573591Y-90809135D02*
X175573592Y-90809135D01*
X174852343Y-90983108D02*
X175026316Y-90809136D01*
X175397481Y-92150501D02*
X175397482Y-92150502D01*
X175294219Y-92334350D02*
X175397482Y-92231086D01*
X175294219Y-92334349D02*
X175294219Y-92334350D01*
X175079284Y-92200000D02*
X175213634Y-92334350D01*
X174350000Y-92311298D02*
X174461298Y-92200000D01*
X174350000Y-97460000D02*
X174350000Y-92311298D01*
X175710000Y-98820000D02*
X174350000Y-97460000D01*
X175710000Y-100530000D02*
X175710000Y-98820000D01*
X175016000Y-101224000D02*
X175710000Y-100530000D01*
X176205743Y-90455607D02*
G75*
G03*
X176205716Y-91073566I308957J-308993D01*
G01*
X175079284Y-92200000D02*
G75*
G03*
X174461298Y-92200000I-308993J-308993D01*
G01*
X175213608Y-92334376D02*
G75*
G03*
X175294219Y-92334349I40292J40276D01*
G01*
X174852295Y-90983063D02*
G75*
G03*
X174852342Y-91530384I273705J-273637D01*
G01*
X175573592Y-90809135D02*
X176156220Y-91391765D01*
X176236804Y-91391765D02*
X176340067Y-91288501D01*
X175397488Y-92231092D02*
G75*
G03*
X175397481Y-92150501I-40288J40292D01*
G01*
X176156221Y-91391764D02*
G75*
G03*
X176236803Y-91391764I40291J40293D01*
G01*
X175088489Y-91841509D02*
X175125978Y-91804023D01*
X176340058Y-91288492D02*
G75*
G03*
X176340066Y-91207916I-40258J40292D01*
G01*
X175573637Y-90809089D02*
G75*
G03*
X175026316Y-90809136I-273637J-273711D01*
G01*
X179201298Y-87460000D02*
X184841298Y-87460000D01*
X175125978Y-91804023D02*
X174852342Y-91530384D01*
X176340067Y-91207917D02*
X176205716Y-91073566D01*
X174852342Y-90983110D02*
X174852343Y-90983108D01*
X175397482Y-92150502D02*
X175088489Y-91841509D01*
X174536000Y-101224000D02*
X175016000Y-101224000D01*
X188971298Y-80720000D02*
X192010000Y-80720000D01*
X176318420Y-88412883D02*
X176872110Y-87859188D01*
X176318419Y-88412885D02*
X176318420Y-88412883D01*
X175745663Y-88278532D02*
X175745663Y-88278533D01*
X174416300Y-88632086D02*
X174769855Y-88278532D01*
X174416300Y-88632085D02*
X174416300Y-88632086D01*
X174550650Y-89742244D02*
X174550651Y-89742244D01*
X173370000Y-91361298D02*
X174550650Y-90180650D01*
X173370000Y-94100000D02*
X173370000Y-91361298D01*
X173370000Y-94720274D02*
X173370000Y-94100000D01*
X173080136Y-94820137D02*
X173270137Y-94820137D01*
X173270137Y-96400137D02*
X173080136Y-96400137D01*
X173370000Y-97520000D02*
X173370000Y-96500000D01*
X173380000Y-97530000D02*
X173370000Y-97520000D01*
X173380000Y-97635637D02*
X173380000Y-97530000D01*
X175080998Y-99336635D02*
X173380000Y-97635637D01*
X175080998Y-99959002D02*
X175080998Y-99336635D01*
X175016000Y-100024000D02*
X175080998Y-99959002D01*
X183591298Y-86100000D02*
X188971298Y-80720000D01*
X174536000Y-100024000D02*
X175016000Y-100024000D01*
X172600273Y-95920274D02*
X172600273Y-95300000D01*
X175879997Y-88412901D02*
G75*
G03*
X176318419Y-88412885I219203J219201D01*
G01*
X175745662Y-88278533D02*
G75*
G03*
X174769856Y-88278533I-487903J-487905D01*
G01*
X173270137Y-94820200D02*
G75*
G03*
X173370000Y-94720274I-37J99900D01*
G01*
X178631298Y-86100000D02*
X183591298Y-86100000D01*
X174416312Y-88632097D02*
G75*
G03*
X174416302Y-89607893I487888J-487903D01*
G01*
X174550651Y-89742244D02*
X174416301Y-89607894D01*
X172600263Y-95920274D02*
G75*
G03*
X173080136Y-96400137I479837J-26D01*
G01*
X174550602Y-90180602D02*
G75*
G03*
X174550649Y-89742245I-219202J219202D01*
G01*
X175745663Y-88278533D02*
X175880014Y-88412884D01*
X173369963Y-96500000D02*
G75*
G03*
X173270137Y-96400137I-99863J0D01*
G01*
X173080136Y-94820173D02*
G75*
G03*
X172600273Y-95300000I-36J-479827D01*
G01*
X176872110Y-87859188D02*
X178631298Y-86100000D01*
D53*
X185530000Y-132131172D02*
X186259552Y-131401620D01*
X185530000Y-142193512D02*
X185530000Y-132131172D01*
X189515989Y-146179501D02*
X185530000Y-142193512D01*
X200345499Y-142388013D02*
X196554011Y-146179501D01*
X200345499Y-131205000D02*
X200345499Y-142388013D01*
X196554011Y-146179501D02*
X189515989Y-146179501D01*
X205180000Y-128810499D02*
X204940000Y-128570499D01*
X204940000Y-128570499D02*
X202980000Y-128570499D01*
X205180000Y-131030000D02*
X205180000Y-128810499D01*
X202980000Y-128570499D02*
X200345499Y-131205000D01*
X212130000Y-131030000D02*
X205180000Y-131030000D01*
X213360000Y-129800000D02*
X212130000Y-131030000D01*
X202843516Y-128240499D02*
X205800499Y-128240499D01*
X199965998Y-142301529D02*
X199965998Y-131118017D01*
X196417527Y-145850000D02*
X199965998Y-142301529D01*
X189652472Y-145850000D02*
X196417527Y-145850000D01*
X185925000Y-132485000D02*
X185925000Y-142122528D01*
X186850000Y-131560000D02*
X185925000Y-132485000D01*
X185925000Y-142122528D02*
X189652472Y-145850000D01*
X186850000Y-129050000D02*
X186850000Y-131560000D01*
X199965998Y-131118017D02*
X202843516Y-128240499D01*
X186259552Y-129859552D02*
X186259552Y-131401620D01*
X184415000Y-128125000D02*
X185780000Y-129490000D01*
X185780000Y-129490000D02*
X185890000Y-129490000D01*
X205800499Y-128240499D02*
X206160000Y-128600000D01*
X185890000Y-129490000D02*
X186259552Y-129859552D01*
X206160000Y-128600000D02*
X206160000Y-129800000D01*
D56*
X197000000Y-146650000D02*
X196920000Y-146570000D01*
X197000000Y-146760000D02*
X197000000Y-146650000D01*
X189680000Y-146760000D02*
X197000000Y-146760000D01*
X179270000Y-138460000D02*
X183050000Y-142240000D01*
X185160000Y-142240000D02*
X189680000Y-146760000D01*
X177890000Y-128680000D02*
X179270000Y-130060000D01*
X183050000Y-142240000D02*
X185160000Y-142240000D01*
X179270000Y-130060000D02*
X179270000Y-138460000D01*
X212446000Y-148226000D02*
X214272500Y-148226000D01*
X212140000Y-147920000D02*
X212446000Y-148226000D01*
X212140000Y-138858500D02*
X212140000Y-147920000D01*
X212528999Y-138469501D02*
X212140000Y-138858500D01*
X214467489Y-138469501D02*
X212528999Y-138469501D01*
X214889501Y-138047489D02*
X214467489Y-138469501D01*
X214889501Y-105082511D02*
X214889501Y-138047489D01*
X209657489Y-99850499D02*
X214889501Y-105082511D01*
X203242511Y-99850499D02*
X209657489Y-99850499D01*
X195423010Y-107670000D02*
X203242511Y-99850499D01*
X191352012Y-107670000D02*
X195423010Y-107670000D01*
X190599501Y-106917489D02*
X191352012Y-107670000D01*
X190599501Y-106212511D02*
X190599501Y-106917489D01*
X190097489Y-105710499D02*
X190599501Y-106212511D01*
X188972511Y-105710499D02*
X190097489Y-105710499D01*
X187582511Y-107100499D02*
X188972511Y-105710499D01*
X185622511Y-107100499D02*
X187582511Y-107100499D01*
X185423010Y-107300000D02*
X185622511Y-107100499D01*
X185070000Y-107300000D02*
X185423010Y-107300000D01*
X184509501Y-107860499D02*
X185070000Y-107300000D01*
X182052511Y-107860499D02*
X184509501Y-107860499D01*
X181495499Y-108417511D02*
X182052511Y-107860499D01*
X181495499Y-108567511D02*
X181495499Y-108417511D01*
X181480499Y-110289501D02*
X181480499Y-108582511D01*
X181480499Y-108582511D02*
X181495499Y-108567511D01*
X179730000Y-112040000D02*
X181480499Y-110289501D01*
X179730000Y-112460000D02*
X179730000Y-112040000D01*
X178966000Y-113224000D02*
X179730000Y-112460000D01*
X177616000Y-113224000D02*
X178966000Y-113224000D01*
X214220000Y-138080000D02*
X212510000Y-138080000D01*
X214630000Y-137670000D02*
X214220000Y-138080000D01*
X214630000Y-105590000D02*
X214630000Y-137670000D01*
X209150000Y-100110000D02*
X214630000Y-105590000D01*
X203350000Y-100110000D02*
X209150000Y-100110000D01*
X195490000Y-107970000D02*
X203350000Y-100110000D01*
X190330000Y-106310000D02*
X190330000Y-107260000D01*
X189990000Y-105970000D02*
X190330000Y-106310000D01*
X189080000Y-105970000D02*
X189990000Y-105970000D01*
X190330000Y-107260000D02*
X191040000Y-107970000D01*
X186930000Y-108120000D02*
X189080000Y-105970000D01*
X182160000Y-108120000D02*
X186930000Y-108120000D01*
X191040000Y-107970000D02*
X195490000Y-107970000D01*
X181755500Y-108524500D02*
X182160000Y-108120000D01*
X177616000Y-114424000D02*
X179666000Y-114424000D01*
X179666000Y-114424000D02*
X181755500Y-112334500D01*
X181755500Y-112334500D02*
X181755500Y-108524500D01*
X212510000Y-138080000D02*
X211660000Y-138930000D01*
X209910000Y-145280000D02*
X209910000Y-144030000D01*
X209850000Y-145340000D02*
X209910000Y-145280000D01*
X201036000Y-150016000D02*
X201033368Y-150013368D01*
X201807500Y-150016000D02*
X201036000Y-150016000D01*
D53*
X203960000Y-130275985D02*
X203960000Y-129800000D01*
X205043516Y-131359501D02*
X203960000Y-130275985D01*
X206299501Y-131359501D02*
X205043516Y-131359501D01*
X208560000Y-133620000D02*
X206299501Y-131359501D01*
X208560000Y-138600000D02*
X208560000Y-133620000D01*
D57*
X202798500Y-136800000D02*
X204460000Y-136800000D01*
X200962500Y-138636000D02*
X202798500Y-136800000D01*
X200962500Y-143067876D02*
X200962500Y-138636000D01*
X200364065Y-143666311D02*
X200962500Y-143067876D01*
X200364065Y-144167097D02*
X200364065Y-143666311D01*
X197326661Y-147204501D02*
X200364065Y-144167097D01*
X104394000Y-131175000D02*
X120423501Y-147204501D01*
D56*
X197990500Y-147285355D02*
X200968565Y-144307290D01*
X197990500Y-149350500D02*
X197990500Y-147285355D01*
D57*
X120423501Y-147204501D02*
X197326661Y-147204501D01*
D56*
X198280000Y-149640000D02*
X197990500Y-149350500D01*
X200968565Y-144307290D02*
X200968565Y-143916704D01*
X201732500Y-145751000D02*
X201496362Y-145987138D01*
X201496362Y-145987138D02*
X201005540Y-145987138D01*
X214940000Y-145980000D02*
X214318500Y-145980000D01*
D54*
X173806000Y-116424000D02*
X172664000Y-116424000D01*
X173853414Y-115224000D02*
X173833707Y-115243707D01*
X174536000Y-115224000D02*
X173853414Y-115224000D01*
X174044557Y-115624000D02*
X173823787Y-115844770D01*
X174536000Y-115624000D02*
X174044557Y-115624000D01*
X174536000Y-116424000D02*
X173806000Y-116424000D01*
X125450000Y-92270000D02*
X125450000Y-91625132D01*
D56*
X179689501Y-99680499D02*
X179760000Y-99610000D01*
X179689501Y-101847489D02*
X179689501Y-99680499D01*
X178712990Y-102824000D02*
X177616000Y-102824000D01*
X179689501Y-101847489D02*
X178712990Y-102824000D01*
X179700000Y-99550000D02*
X179760000Y-99610000D01*
X179700000Y-98770000D02*
X179700000Y-99550000D01*
X187420000Y-91050000D02*
X179700000Y-98770000D01*
X190920000Y-91050000D02*
X187420000Y-91050000D01*
X191270000Y-90700000D02*
X190920000Y-91050000D01*
X192130000Y-90700000D02*
X191270000Y-90700000D01*
X212040000Y-81187500D02*
X210832500Y-79980000D01*
X212040000Y-92410000D02*
X212040000Y-81187500D01*
X206510000Y-92410000D02*
X212040000Y-92410000D01*
X205220000Y-93700000D02*
X206510000Y-92410000D01*
X201680000Y-93700000D02*
X205220000Y-93700000D01*
X198680000Y-90700000D02*
X201680000Y-93700000D01*
X193150000Y-90700000D02*
X198680000Y-90700000D01*
X209970000Y-89837500D02*
X210832500Y-90700000D01*
X209970000Y-89490000D02*
X209970000Y-89837500D01*
X204907499Y-88390000D02*
X205411066Y-87886433D01*
X204280000Y-88360000D02*
X204310000Y-88390000D01*
X201410000Y-88360000D02*
X204280000Y-88360000D01*
X201430000Y-88380000D02*
X201410000Y-88360000D01*
X201430000Y-90250000D02*
X201430000Y-88380000D01*
X200950000Y-90730000D02*
X201430000Y-90250000D01*
X208366433Y-87886433D02*
X209970000Y-89490000D01*
X199620000Y-90730000D02*
X200950000Y-90730000D01*
X198550000Y-89660000D02*
X199620000Y-90730000D01*
X204310000Y-88390000D02*
X204907499Y-88390000D01*
X193160000Y-89660000D02*
X198550000Y-89660000D01*
X205411066Y-87886433D02*
X208366433Y-87886433D01*
X191370000Y-89660000D02*
X192140000Y-89660000D01*
X190350000Y-90680000D02*
X191370000Y-89660000D01*
X187493010Y-90680000D02*
X190350000Y-90680000D01*
X187312511Y-90790499D02*
X187382511Y-90790499D01*
X179430000Y-98673010D02*
X187312511Y-90790499D01*
X179430000Y-101740000D02*
X179430000Y-98673010D01*
X177616000Y-102424000D02*
X178746000Y-102424000D01*
X178746000Y-102424000D02*
X179430000Y-101740000D01*
X187382511Y-90790499D02*
X187493010Y-90680000D01*
D54*
X178483761Y-102024000D02*
X178512255Y-101995506D01*
X177616000Y-102024000D02*
X178483761Y-102024000D01*
D56*
X192010000Y-80720000D02*
X192780000Y-80720000D01*
X192010000Y-81220000D02*
X192780000Y-81220000D01*
X192010000Y-82220000D02*
X192780000Y-82220000D01*
X192010000Y-82720000D02*
X192780000Y-82720000D01*
X192275000Y-86590000D02*
X193045000Y-86590000D01*
X192275000Y-87090000D02*
X193045000Y-87090000D01*
X192275000Y-88090000D02*
X193045000Y-88090000D01*
X192275000Y-88590000D02*
X193045000Y-88590000D01*
X188500000Y-105380000D02*
X188570000Y-105310000D01*
X205864427Y-97353499D02*
X206281427Y-97770499D01*
X184765022Y-106470998D02*
X185151042Y-106470998D01*
X187469002Y-106840998D02*
X188500000Y-105810000D01*
X208443471Y-97492501D02*
X215890499Y-104939529D01*
X181220998Y-108475022D02*
X181235998Y-108460022D01*
X215249501Y-105052511D02*
X215249501Y-105059501D01*
X194730343Y-105254501D02*
X195494501Y-104490343D01*
X180921996Y-107780044D02*
X180991996Y-107710044D01*
X181945022Y-107600998D02*
X184369002Y-107600998D01*
X195235000Y-104068010D02*
X201949511Y-97353499D01*
X182053553Y-106211497D02*
X185043553Y-106211497D01*
X194360000Y-105310000D02*
X194415499Y-105254501D01*
X185407533Y-106581497D02*
X186931513Y-106581497D01*
X181220998Y-108592012D02*
X181220998Y-108475022D01*
X185043553Y-106211497D02*
X185192555Y-106062495D01*
X208354479Y-97770499D02*
X215509002Y-104925022D01*
X179380000Y-111970000D02*
X181190499Y-110159501D01*
X180961497Y-108367533D02*
X180976497Y-108352533D01*
X184636020Y-106600000D02*
X184765022Y-106470998D01*
X185515022Y-106840998D02*
X187469002Y-106840998D01*
X214537489Y-104340499D02*
X214557489Y-104340499D01*
X215509002Y-104952012D02*
X215627001Y-105070011D01*
X195494501Y-104490343D02*
X195494501Y-104175499D01*
X205971916Y-97093998D02*
X206370419Y-97492501D01*
X216150000Y-104832040D02*
X216150000Y-143950000D01*
X180921996Y-107800044D02*
X180921996Y-107780044D01*
X194415499Y-105254501D02*
X194730343Y-105254501D01*
X180891996Y-107920044D02*
X180891996Y-107830044D01*
X182472040Y-106600000D02*
X184636020Y-106600000D01*
X181190499Y-108622511D02*
X181220998Y-108592012D01*
X195983010Y-102560000D02*
X201708513Y-96834497D01*
X181790044Y-106911996D02*
X181830044Y-106911996D01*
X215509002Y-104925022D02*
X215509002Y-104952012D01*
X181181497Y-107907533D02*
X181181497Y-107887533D01*
X177616000Y-112824000D02*
X178454000Y-112824000D01*
X178454000Y-112824000D02*
X178570000Y-112940000D01*
X178570000Y-112940000D02*
X178883010Y-112940000D01*
X178883010Y-112940000D02*
X179380000Y-112443010D01*
X181190499Y-110159501D02*
X181190499Y-108622511D01*
X179380000Y-112443010D02*
X179380000Y-111970000D01*
X181235998Y-108460022D02*
X181235998Y-108310022D01*
X181235998Y-108310022D02*
X181945022Y-107600998D01*
X180891996Y-107830044D02*
X180921996Y-107800044D01*
X184369002Y-107600998D02*
X184980000Y-106990000D01*
X184980000Y-106990000D02*
X185366020Y-106990000D01*
X188500000Y-105810000D02*
X188500000Y-105380000D01*
X185366020Y-106990000D02*
X185515022Y-106840998D01*
X188570000Y-105310000D02*
X194360000Y-105310000D01*
X195494501Y-104175499D02*
X202057000Y-97613000D01*
X202057000Y-97613000D02*
X205756938Y-97613000D01*
X205756938Y-97613000D02*
X206173938Y-98030000D01*
X181830044Y-106911996D02*
X181840044Y-106901996D01*
X206173938Y-98030000D02*
X208220000Y-98030000D01*
X177616000Y-110824000D02*
X178642020Y-110824000D01*
X208220000Y-98030000D02*
X211320499Y-101130499D01*
X211320499Y-101130499D02*
X211327489Y-101130499D01*
X211327489Y-101130499D02*
X214537489Y-104340499D01*
X214557489Y-104340499D02*
X214709501Y-104492511D01*
X214709501Y-104492511D02*
X214709501Y-104512511D01*
X206281427Y-97770499D02*
X208354479Y-97770499D01*
X181937533Y-107171497D02*
X181947533Y-107161497D01*
X214709501Y-104512511D02*
X215249501Y-105052511D01*
X215249501Y-105059501D02*
X215367500Y-105177500D01*
X215367500Y-105177500D02*
X215367500Y-140111000D01*
X194308010Y-104995000D02*
X194622854Y-104995000D01*
X215367500Y-140111000D02*
X214952500Y-140526000D01*
X214952500Y-140526000D02*
X214272500Y-140526000D01*
X177616000Y-112024000D02*
X178849010Y-112024000D01*
X196031020Y-102905000D02*
X201842022Y-97093998D01*
X178849010Y-112024000D02*
X179270499Y-111602511D01*
X185192555Y-106062495D02*
X185747505Y-106062495D01*
X179270499Y-111602511D02*
X179270499Y-110952511D01*
X179270499Y-110952511D02*
X180930998Y-109292012D01*
X180930998Y-109292012D02*
X180930998Y-108515022D01*
X178236499Y-111764499D02*
X178741521Y-111764499D01*
X180930998Y-108515022D02*
X180961497Y-108484523D01*
X180961497Y-108484523D02*
X180961497Y-108367533D01*
X180976497Y-108352533D02*
X180976497Y-108202533D01*
X180976497Y-108202533D02*
X181151497Y-108027533D01*
X180991996Y-107710044D02*
X180991996Y-107660044D01*
X181151497Y-108027533D02*
X181151497Y-107937533D01*
X181151497Y-107937533D02*
X181181497Y-107907533D01*
X181181497Y-107887533D02*
X181251497Y-107817533D01*
X181251497Y-107817533D02*
X181251497Y-107767533D01*
X181251497Y-107767533D02*
X181281497Y-107737533D01*
X181281497Y-107737533D02*
X181281497Y-107717533D01*
X188730000Y-102730000D02*
X188900000Y-102560000D01*
X181281497Y-107717533D02*
X181777533Y-107221497D01*
X180716996Y-108245044D02*
X180716996Y-108095044D01*
X181777533Y-107221497D02*
X181847533Y-107221497D01*
X180671497Y-109184523D02*
X180671497Y-108380543D01*
X181847533Y-107221497D02*
X181897533Y-107171497D01*
X181897533Y-107171497D02*
X181937533Y-107171497D01*
X181947533Y-107161497D02*
X182284523Y-107161497D01*
X182284523Y-107161497D02*
X182495521Y-106950499D01*
X182495521Y-106950499D02*
X184652511Y-106950499D01*
X184652511Y-106950499D02*
X184872511Y-106730499D01*
X184872511Y-106730499D02*
X185258531Y-106730499D01*
X185258531Y-106730499D02*
X185407533Y-106581497D01*
X186931513Y-106581497D02*
X188462511Y-105050499D01*
X180671497Y-108380543D02*
X180701996Y-108350044D01*
X188462511Y-105050499D02*
X194252511Y-105050499D01*
X194252511Y-105050499D02*
X194308010Y-104995000D01*
X194622854Y-104995000D02*
X195235000Y-104382854D01*
X181740044Y-106961996D02*
X181790044Y-106911996D01*
X195235000Y-104382854D02*
X195235000Y-104068010D01*
X201949511Y-97353499D02*
X205864427Y-97353499D01*
X215627001Y-105070011D02*
X215627001Y-140471499D01*
X215890499Y-104939529D02*
X215890499Y-143616238D01*
X215627001Y-140471499D02*
X214472500Y-141626000D01*
X214472500Y-141626000D02*
X214272500Y-141626000D01*
X177616000Y-111624000D02*
X178096000Y-111624000D01*
X178096000Y-111624000D02*
X178236499Y-111764499D01*
X178741521Y-111764499D02*
X179010998Y-111495022D01*
X179010998Y-111495022D02*
X179010998Y-110845022D01*
X179010998Y-110845022D02*
X180671497Y-109184523D01*
X180991996Y-107660044D02*
X181021996Y-107630044D01*
X180701996Y-108350044D02*
X180701996Y-108260044D01*
X180701996Y-108260044D02*
X180716996Y-108245044D01*
X180716996Y-108095044D02*
X180891996Y-107920044D01*
X181021996Y-107630044D02*
X181021996Y-107610044D01*
X181021996Y-107610044D02*
X181670044Y-106961996D01*
X181670044Y-106961996D02*
X181740044Y-106961996D01*
X181840044Y-106901996D02*
X182170044Y-106901996D01*
X182170044Y-106901996D02*
X182472040Y-106600000D01*
X185151042Y-106470998D02*
X185300044Y-106321996D01*
X185300044Y-106321996D02*
X185908004Y-106321996D01*
X185908004Y-106321996D02*
X189150000Y-103080000D01*
X189150000Y-103080000D02*
X189150000Y-102930000D01*
X189150000Y-102930000D02*
X189175000Y-102905000D01*
X189175000Y-102905000D02*
X196031020Y-102905000D01*
X201842022Y-97093998D02*
X205971916Y-97093998D01*
X206370419Y-97492501D02*
X208443471Y-97492501D01*
X215890499Y-143616238D02*
X215730500Y-143776237D01*
X215730500Y-143776237D02*
X215730500Y-145868000D01*
X215730500Y-145868000D02*
X214472500Y-147126000D01*
X214472500Y-147126000D02*
X214272500Y-147126000D01*
X178642020Y-110824000D02*
X180361497Y-109104523D01*
X180361497Y-109104523D02*
X180361497Y-107903553D01*
X188730000Y-103080000D02*
X188730000Y-102730000D01*
X180361497Y-107903553D02*
X182053553Y-106211497D01*
X185747505Y-106062495D02*
X188730000Y-103080000D01*
X188900000Y-102560000D02*
X195983010Y-102560000D01*
X201708513Y-96834497D02*
X206079405Y-96834497D01*
X206079405Y-96834497D02*
X206477908Y-97233000D01*
X206477908Y-97233000D02*
X208550960Y-97233000D01*
X208550960Y-97233000D02*
X216150000Y-104832040D01*
X213772500Y-139210764D02*
X214076632Y-138906632D01*
X213772500Y-139446000D02*
X213772500Y-139210764D01*
D53*
X213360000Y-136800000D02*
X213380000Y-136820000D01*
X213380000Y-136820000D02*
X214100500Y-136820000D01*
D54*
X189120000Y-107650873D02*
X188898031Y-107428904D01*
X189910500Y-107290500D02*
X189910500Y-106898231D01*
X191650000Y-109030000D02*
X189910500Y-107290500D01*
X189120000Y-108500000D02*
X189120000Y-107650873D01*
X185700000Y-101090000D02*
X185700000Y-104965742D01*
X185700000Y-104965742D02*
X184932101Y-105733641D01*
X188480000Y-110410000D02*
X187986481Y-109916481D01*
X187986481Y-109916481D02*
X187986481Y-107788388D01*
X187988001Y-107693556D02*
X188140059Y-107541498D01*
X188780000Y-110300000D02*
X188780000Y-108381041D01*
X187986481Y-107788388D02*
X187988001Y-107786868D01*
X188780000Y-108381041D02*
X188437689Y-108038730D01*
X187988001Y-107786868D02*
X187988001Y-107693556D01*
D56*
X190043133Y-108381265D02*
X189640934Y-107979066D01*
X192880000Y-112800000D02*
X191000000Y-112800000D01*
X190043133Y-111843133D02*
X190043133Y-108381265D01*
X194190000Y-114110000D02*
X192880000Y-112800000D01*
D54*
X184320000Y-100380000D02*
X184320000Y-105652000D01*
X184350000Y-100350000D02*
X184320000Y-100380000D01*
D56*
X191000000Y-112800000D02*
X190043133Y-111843133D01*
X188480000Y-110423980D02*
X188480000Y-110410000D01*
X189250000Y-111193980D02*
X188480000Y-110423980D01*
X189250000Y-113554844D02*
X189250000Y-111193980D01*
X190605000Y-114909844D02*
X189250000Y-113554844D01*
X191170000Y-118010000D02*
X190605000Y-117445000D01*
X193010000Y-118010000D02*
X191170000Y-118010000D01*
X194190000Y-119190000D02*
X193010000Y-118010000D01*
X188780000Y-110356990D02*
X188780000Y-110300000D01*
X189520499Y-111097489D02*
X188780000Y-110356990D01*
X189520499Y-113458353D02*
X189520499Y-111097489D01*
X191650000Y-115587854D02*
X189520499Y-113458353D01*
X191650000Y-116650000D02*
X191650000Y-115587854D01*
X190605000Y-117445000D02*
X190605000Y-114909844D01*
X189120000Y-110330000D02*
X189120000Y-108500000D01*
X191650000Y-114110000D02*
X189780000Y-112240000D01*
X189780000Y-110990000D02*
X189120000Y-110330000D01*
X189780000Y-112240000D02*
X189780000Y-110990000D01*
D54*
X188665131Y-111010000D02*
X188060000Y-111010000D01*
X188930000Y-111274869D02*
X188665131Y-111010000D01*
X188930000Y-113390000D02*
X188930000Y-111274869D01*
X185350000Y-109010000D02*
X185020000Y-108680000D01*
X185350000Y-110312762D02*
X185350000Y-109010000D01*
X184350000Y-108630000D02*
X184330000Y-108610000D01*
X184350000Y-114575041D02*
X184350000Y-108630000D01*
X178664000Y-112424000D02*
X178745480Y-112505480D01*
X177616000Y-112424000D02*
X178664000Y-112424000D01*
X177616000Y-111224000D02*
X178394001Y-111224000D01*
X178394001Y-111224000D02*
X178530000Y-111359999D01*
D53*
X174536000Y-120274500D02*
X174310500Y-120500000D01*
X174536000Y-119224000D02*
X174536000Y-120274500D01*
X174488635Y-114776635D02*
X171603365Y-114776635D01*
X171603365Y-114776635D02*
X171350000Y-115030000D01*
X174536000Y-114824000D02*
X174488635Y-114776635D01*
D56*
X166550000Y-111470000D02*
X166570000Y-111490000D01*
X166330000Y-99490000D02*
X166080000Y-99240000D01*
X166550000Y-110250000D02*
X166550000Y-111470000D01*
X171590000Y-99490000D02*
X166330000Y-99490000D01*
X176460000Y-102050000D02*
X175370000Y-102050000D01*
D54*
X175650000Y-102791310D02*
X175971810Y-102469500D01*
X175650000Y-104587000D02*
X175650000Y-102791310D01*
X174536000Y-105224000D02*
X175013000Y-105224000D01*
D56*
X176540000Y-102130000D02*
X176460000Y-102050000D01*
D54*
X175013000Y-105224000D02*
X175650000Y-104587000D01*
D56*
X176690000Y-102520000D02*
X176690000Y-102280000D01*
X176690000Y-103178000D02*
X176690000Y-102520000D01*
X176690000Y-102280000D02*
X176540000Y-102130000D01*
X177136000Y-103624000D02*
X176690000Y-103178000D01*
X177616000Y-103624000D02*
X177136000Y-103624000D01*
X177194000Y-118424000D02*
X176240000Y-117470000D01*
D54*
X175568038Y-117389180D02*
X175568038Y-117304440D01*
X177002858Y-118824000D02*
X175568038Y-117389180D01*
D56*
X177616000Y-118424000D02*
X177194000Y-118424000D01*
D54*
X177616000Y-118824000D02*
X177002858Y-118824000D01*
X177616000Y-104024000D02*
X178066161Y-104024000D01*
X178066161Y-104024000D02*
X178666347Y-103423814D01*
D56*
X203007500Y-138862500D02*
X203050000Y-138820000D01*
X203007500Y-139366000D02*
X203007500Y-138862500D01*
X203007500Y-152342500D02*
X202990000Y-152360000D01*
X203007500Y-152326000D02*
X203007500Y-152342500D01*
X214026000Y-152106000D02*
X213300000Y-151380000D01*
X214257500Y-152106000D02*
X214026000Y-152106000D01*
X213436000Y-142726000D02*
X213410000Y-142700000D01*
X214272500Y-142726000D02*
X213436000Y-142726000D01*
X213280000Y-144920000D02*
X214266500Y-144920000D01*
X214266500Y-144920000D02*
X214272500Y-144926000D01*
X181230000Y-102080000D02*
X180444502Y-102865498D01*
X180444502Y-102865498D02*
X179934502Y-102865498D01*
X181230000Y-99790000D02*
X181230000Y-102080000D01*
X187230000Y-93790000D02*
X181230000Y-99790000D01*
X191650000Y-93790000D02*
X187230000Y-93790000D01*
X184075000Y-97825000D02*
X183000000Y-98900000D01*
X193145000Y-97825000D02*
X184075000Y-97825000D01*
X194190000Y-98870000D02*
X193145000Y-97825000D01*
X184530000Y-99850000D02*
X183500000Y-99850000D01*
X185510000Y-98870000D02*
X184530000Y-99850000D01*
X191650000Y-98870000D02*
X185510000Y-98870000D01*
X184365000Y-100365000D02*
X184350000Y-100350000D01*
X193145000Y-100365000D02*
X184365000Y-100365000D01*
X194190000Y-101410000D02*
X193145000Y-100365000D01*
D54*
X184606511Y-114893489D02*
X182700000Y-116800000D01*
X184606511Y-111056251D02*
X184606511Y-114893489D01*
X185350000Y-110312762D02*
X184606511Y-111056251D01*
X182700000Y-116800000D02*
X181586878Y-116800000D01*
X181586878Y-116800000D02*
X179624687Y-118762191D01*
D56*
X188930000Y-113601834D02*
X188930000Y-113390000D01*
X190270000Y-114941834D02*
X188930000Y-113601834D01*
X190270000Y-117980000D02*
X190270000Y-114941834D01*
X190590000Y-118300000D02*
X190270000Y-117980000D01*
X190590000Y-125070000D02*
X190590000Y-118300000D01*
X190835000Y-125315000D02*
X190590000Y-125070000D01*
X194190000Y-124270000D02*
X193145000Y-125315000D01*
X193145000Y-125315000D02*
X190835000Y-125315000D01*
D54*
X189280000Y-120420000D02*
X189230000Y-120470000D01*
X189239498Y-118406855D02*
X189280000Y-118447356D01*
X188100000Y-115300000D02*
X189239496Y-116439496D01*
X189541999Y-131381999D02*
X191240000Y-133080000D01*
X189495998Y-118300605D02*
X189541999Y-118346605D01*
X189495997Y-115895997D02*
X189495998Y-118300605D01*
X187900000Y-114300000D02*
X189495997Y-115895997D01*
X189820000Y-118261858D02*
X189820000Y-118410000D01*
X189239496Y-116439496D02*
X189239498Y-118406855D01*
X189752498Y-118194357D02*
X189820000Y-118261858D01*
X189752498Y-115314356D02*
X189752498Y-118194357D01*
X187950000Y-113511858D02*
X189752498Y-115314356D01*
X187950000Y-112900000D02*
X187950000Y-113511858D01*
D56*
X188450000Y-113646990D02*
X188450000Y-113487238D01*
D54*
X192840000Y-133080000D02*
X194190000Y-134430000D01*
D56*
X190010499Y-118087489D02*
X190010499Y-115207489D01*
X190080000Y-118156990D02*
X190010499Y-118087489D01*
X191650000Y-129350000D02*
X190080000Y-127780000D01*
D54*
X189541999Y-118346605D02*
X189541999Y-131381999D01*
D56*
X190010499Y-115207489D02*
X188450000Y-113646990D01*
D54*
X189280000Y-118447356D02*
X189280000Y-120420000D01*
D56*
X190080000Y-127780000D02*
X190080000Y-118156990D01*
D54*
X191240000Y-133080000D02*
X192840000Y-133080000D01*
D56*
X189820000Y-130060000D02*
X189820000Y-118410000D01*
X191650000Y-131890000D02*
X189820000Y-130060000D01*
X191650000Y-134430000D02*
X189230000Y-132010000D01*
X189230000Y-132010000D02*
X189230000Y-120470000D01*
D53*
X210120000Y-136960000D02*
X209960000Y-136800000D01*
X211010000Y-136960000D02*
X210120000Y-136960000D01*
D55*
X203495180Y-119868925D02*
X203495180Y-119484820D01*
X203495180Y-119484820D02*
X204420000Y-118560000D01*
D53*
X180380947Y-128125000D02*
X179934000Y-128571947D01*
X184415000Y-128125000D02*
X180380947Y-128125000D01*
D56*
X193486736Y-87590000D02*
X193558368Y-87661632D01*
X193045000Y-87590000D02*
X193486736Y-87590000D01*
X192780000Y-81720000D02*
X193350000Y-81720000D01*
X192010000Y-81720000D02*
X191370000Y-81720000D01*
X193660000Y-82220000D02*
X192780000Y-82220000D01*
X195820000Y-84380000D02*
X193660000Y-82220000D01*
X198760000Y-84380000D02*
X195820000Y-84380000D01*
X200030000Y-85650000D02*
X198760000Y-84380000D01*
X200920000Y-85650000D02*
X200030000Y-85650000D01*
X201367500Y-85202500D02*
X200920000Y-85650000D01*
X201367500Y-81774274D02*
X201367500Y-85202500D01*
X200423226Y-80830000D02*
X201367500Y-81774274D01*
X199923372Y-80830000D02*
X200423226Y-80830000D01*
X198723372Y-79630000D02*
X199923372Y-80830000D01*
X197480000Y-79630000D02*
X198723372Y-79630000D01*
X196937500Y-77662500D02*
X196937500Y-79087500D01*
X196937500Y-79087500D02*
X197480000Y-79630000D01*
X197190000Y-77410000D02*
X196937500Y-77662500D01*
X199268160Y-77410000D02*
X197190000Y-77410000D01*
X200422500Y-79625000D02*
X200422500Y-78564340D01*
X200422500Y-78564340D02*
X199268160Y-77410000D01*
X193550000Y-82720000D02*
X192780000Y-82720000D01*
X198579501Y-84639501D02*
X195469501Y-84639501D01*
X199849501Y-85909501D02*
X198579501Y-84639501D01*
X201649501Y-85297489D02*
X201037489Y-85909501D01*
X200530922Y-80570000D02*
X201649501Y-81688579D01*
X200031068Y-80570000D02*
X200530922Y-80570000D01*
X195469501Y-84639501D02*
X193550000Y-82720000D01*
X197882500Y-78421432D02*
X200031068Y-80570000D01*
X201649501Y-81688579D02*
X201649501Y-85297489D01*
X197882500Y-78355000D02*
X197882500Y-78421432D01*
X201037489Y-85909501D02*
X199849501Y-85909501D01*
X197227500Y-81550000D02*
X197882500Y-80895000D01*
X196890000Y-81550000D02*
X197227500Y-81550000D01*
X192780000Y-80720000D02*
X196060000Y-80720000D01*
X196060000Y-80720000D02*
X196890000Y-81550000D01*
X196680000Y-81940000D02*
X198103010Y-81940000D01*
X198103010Y-81940000D02*
X200422500Y-84259490D01*
X195960000Y-81220000D02*
X196680000Y-81940000D01*
X192780000Y-81220000D02*
X195960000Y-81220000D01*
X200422500Y-84259490D02*
X200422500Y-84705000D01*
X196740000Y-88530000D02*
X196755000Y-88515000D01*
X196755000Y-88515000D02*
X197882500Y-88515000D01*
X200422500Y-88724340D02*
X200422500Y-89785000D01*
X197320000Y-87570000D02*
X199268160Y-87570000D01*
X196740000Y-88150000D02*
X197320000Y-87570000D01*
X199268160Y-87570000D02*
X200422500Y-88724340D01*
X197207500Y-86650000D02*
X197882500Y-85975000D01*
X193517501Y-86650000D02*
X197207500Y-86650000D01*
X193457501Y-86590000D02*
X193517501Y-86650000D01*
X193045000Y-86590000D02*
X193457501Y-86590000D01*
X197085000Y-87245000D02*
X200422500Y-87245000D01*
X196870000Y-87030000D02*
X197085000Y-87245000D01*
X193045000Y-88090000D02*
X193457501Y-88090000D01*
X193457501Y-88590000D02*
X193517501Y-88530000D01*
X193517501Y-88530000D02*
X196740000Y-88530000D01*
X193045000Y-88590000D02*
X193457501Y-88590000D01*
X193457501Y-88090000D02*
X193517501Y-88150000D01*
X193517501Y-88150000D02*
X196740000Y-88150000D01*
X193517501Y-87030000D02*
X196870000Y-87030000D01*
X193045000Y-87090000D02*
X193457501Y-87090000D01*
X193457501Y-87090000D02*
X193517501Y-87030000D01*
X191730000Y-87590000D02*
X191710000Y-87570000D01*
X192275000Y-87590000D02*
X191730000Y-87590000D01*
D54*
X173956000Y-99624000D02*
X173950000Y-99630000D01*
X174536000Y-99624000D02*
X173956000Y-99624000D01*
X178093000Y-104424000D02*
X177616000Y-104424000D01*
X178317000Y-104200000D02*
X178093000Y-104424000D01*
X178600000Y-104200000D02*
X178317000Y-104200000D01*
X179934502Y-102865498D02*
X178600000Y-104200000D01*
D56*
X132590000Y-81880000D02*
X132580000Y-81870000D01*
X132590000Y-83020000D02*
X132590000Y-81880000D01*
X132590000Y-84100000D02*
X132600000Y-84110000D01*
X132590000Y-83020000D02*
X132590000Y-84100000D01*
X131090000Y-83020000D02*
X131090000Y-81870000D01*
X131090000Y-84111614D02*
X131093252Y-84114866D01*
X131090000Y-83020000D02*
X131090000Y-84111614D01*
X129590000Y-81870000D02*
X129580000Y-81860000D01*
X129590000Y-83020000D02*
X129590000Y-81870000D01*
X129590000Y-84111614D02*
X129593252Y-84114866D01*
X129590000Y-83020000D02*
X129590000Y-84111614D01*
X128090000Y-83020000D02*
X128090000Y-81860000D01*
X128090000Y-84189838D02*
X128085037Y-84194801D01*
X128090000Y-83020000D02*
X128090000Y-84189838D01*
X125090000Y-84250000D02*
X125100000Y-84260000D01*
X125090000Y-83020000D02*
X125090000Y-84250000D01*
X127590000Y-84445001D02*
X127590000Y-83020000D01*
X127900000Y-84755001D02*
X127590000Y-84445001D01*
X127950000Y-85450000D02*
X127900000Y-85400000D01*
X127035000Y-91426298D02*
X127950000Y-90511298D01*
X127035000Y-96203702D02*
X127035000Y-91426298D01*
X127415649Y-96584350D02*
X127035000Y-96203702D01*
X127246996Y-96936850D02*
X127415649Y-96768198D01*
X127968247Y-97658102D02*
X127968247Y-97658101D01*
X128136899Y-97489449D02*
X127968247Y-97658102D01*
X128320748Y-97489449D02*
X128320747Y-97489449D01*
X128152095Y-97841949D02*
X128320748Y-97673297D01*
X128873346Y-98563201D02*
X128873346Y-98563200D01*
X129041998Y-98394548D02*
X128873346Y-98563201D01*
X132610000Y-101778702D02*
X129225846Y-98394548D01*
X135010000Y-109628702D02*
X132610000Y-107228702D01*
X132610000Y-107228702D02*
X132610000Y-101778702D01*
X135010000Y-110278702D02*
X135010000Y-109628702D01*
X137145298Y-112414000D02*
X135010000Y-110278702D01*
X140080999Y-112414000D02*
X137145298Y-112414000D01*
X140616000Y-112424000D02*
X140090999Y-112424000D01*
X127415675Y-96768224D02*
G75*
G03*
X127415649Y-96584350I-91975J91924D01*
G01*
X127950000Y-90511298D02*
X127950000Y-85450000D01*
X127900000Y-85400000D02*
X127900000Y-84755001D01*
X127247020Y-96936874D02*
G75*
G03*
X127246996Y-97658102I360580J-360626D01*
G01*
X127246975Y-97658123D02*
G75*
G03*
X127968247Y-97658101I360625J360623D01*
G01*
X140090999Y-112424000D02*
X140080999Y-112414000D01*
X128320775Y-97673324D02*
G75*
G03*
X128320748Y-97489449I-91975J91924D01*
G01*
X128320746Y-97489450D02*
G75*
G03*
X128136900Y-97489450I-91923J-91924D01*
G01*
X128152076Y-98563220D02*
G75*
G03*
X128873345Y-98563199I360624J360620D01*
G01*
X128152120Y-97841974D02*
G75*
G03*
X128152095Y-98563201I360580J-360626D01*
G01*
X129225845Y-98394549D02*
G75*
G03*
X129041999Y-98394549I-91923J-91924D01*
G01*
X128590000Y-84445001D02*
X128590000Y-83020000D01*
X128280000Y-84755001D02*
X128590000Y-84445001D01*
X128280000Y-85400000D02*
X128280000Y-84755001D01*
X128330000Y-85450000D02*
X128280000Y-85400000D01*
X127415000Y-96046298D02*
X127415000Y-91583702D01*
X127684350Y-96315649D02*
X127415000Y-96046298D01*
X127515697Y-97205552D02*
X127684350Y-97036900D01*
X127868196Y-97220747D02*
X127699544Y-97389400D01*
X127684350Y-97036900D02*
X127684350Y-97036899D01*
X128589449Y-97220748D02*
X128589448Y-97220747D01*
X128589449Y-97941999D02*
X128589449Y-97941998D01*
X128420796Y-98110651D02*
X128589449Y-97941999D01*
X128773295Y-98125846D02*
X128604643Y-98294499D01*
X132990000Y-101621298D02*
X129494547Y-98125846D01*
X132990000Y-107071298D02*
X132990000Y-101621298D01*
X127415000Y-91583702D02*
X128330000Y-90668702D01*
X135390000Y-109471298D02*
X132990000Y-107071298D01*
X128330000Y-90668702D02*
X128330000Y-85450000D01*
X135390000Y-110121298D02*
X135390000Y-109471298D01*
X137292702Y-112024000D02*
X135390000Y-110121298D01*
X128604643Y-98294499D02*
X128604643Y-98294498D01*
X140616000Y-112024000D02*
X137292702Y-112024000D01*
X127684375Y-97036924D02*
G75*
G03*
X127684349Y-96315650I-360675J360624D01*
G01*
X127515677Y-97389420D02*
G75*
G03*
X127699544Y-97389399I91923J91920D01*
G01*
X128420821Y-98110676D02*
G75*
G03*
X128420796Y-98294499I91879J-91924D01*
G01*
X127699544Y-97389400D02*
X127699544Y-97389399D01*
X127515721Y-97205576D02*
G75*
G03*
X127515697Y-97389400I91879J-91924D01*
G01*
X128420777Y-98294518D02*
G75*
G03*
X128604643Y-98294498I91923J91918D01*
G01*
X129494546Y-98125847D02*
G75*
G03*
X128773296Y-98125847I-360625J-360626D01*
G01*
X128589475Y-97942024D02*
G75*
G03*
X128589448Y-97220749I-360675J360624D01*
G01*
X128589447Y-97220748D02*
G75*
G03*
X127868197Y-97220748I-360625J-360626D01*
G01*
X129400000Y-84755001D02*
X129090000Y-84445001D01*
X129400000Y-85430000D02*
X129400000Y-84755001D01*
X128535000Y-91516298D02*
X129450000Y-90601298D01*
X128535000Y-92585000D02*
X128535000Y-91516298D01*
X128205000Y-92715000D02*
X128405000Y-92715000D01*
X129245000Y-93735000D02*
X128205000Y-93735000D01*
X128405000Y-95015000D02*
X128205000Y-95015000D01*
X128535000Y-95753702D02*
X128535000Y-95145000D01*
X128681297Y-96827487D02*
X128681296Y-96827487D01*
X129536899Y-96816291D02*
X129402548Y-96950643D01*
X129597590Y-96816291D02*
X129597590Y-96816290D01*
X129450000Y-90601298D02*
X129450000Y-85480000D01*
X129720748Y-96939449D02*
X129597590Y-96816291D01*
X129586396Y-97134491D02*
X129720748Y-97000140D01*
X129586396Y-97732586D02*
X129586395Y-97732586D01*
X129709552Y-97855742D02*
X129586396Y-97732586D01*
X130307647Y-97855742D02*
X130307647Y-97855743D01*
X130441998Y-97721390D02*
X130307647Y-97855742D01*
X136210000Y-108778702D02*
X133960000Y-106528702D01*
X128681297Y-96229392D02*
X128815649Y-96095041D01*
X129450000Y-85480000D02*
X129400000Y-85430000D01*
X136210000Y-109408702D02*
X136210000Y-108778702D01*
X138015298Y-111214000D02*
X136210000Y-109408702D01*
X140080999Y-111214000D02*
X138015298Y-111214000D01*
X140616000Y-111224000D02*
X140090999Y-111224000D01*
X128405000Y-92715000D02*
G75*
G03*
X128535000Y-92585000I0J130000D01*
G01*
X133960000Y-106528702D02*
X133960000Y-101178702D01*
X128205000Y-92715000D02*
G75*
G03*
X127695000Y-93225000I0J-510000D01*
G01*
X129090000Y-84445001D02*
X129090000Y-83020000D01*
X127695000Y-93225000D02*
G75*
G03*
X128205000Y-93735000I510000J0D01*
G01*
X128804453Y-96950643D02*
X128681297Y-96827487D01*
X129245000Y-93995000D02*
G75*
G03*
X129375000Y-93865000I0J130000D01*
G01*
X128205000Y-93995000D02*
G75*
G03*
X127695000Y-94505000I0J-510000D01*
G01*
X128815649Y-96095041D02*
X128815649Y-96095042D01*
X127695000Y-94505000D02*
G75*
G03*
X128205000Y-95015000I510000J0D01*
G01*
X140090999Y-111224000D02*
X140080999Y-111214000D01*
X129402548Y-96950643D02*
X129402548Y-96950644D01*
X128535000Y-95145000D02*
G75*
G03*
X128405000Y-95015000I-130000J0D01*
G01*
X128205000Y-93995000D02*
X129245000Y-93995000D01*
X128804453Y-96950643D02*
G75*
G03*
X129402547Y-96950643I299047J299043D01*
G01*
X129597544Y-96816335D02*
G75*
G03*
X129536900Y-96816292I-30344J-30265D01*
G01*
X133960000Y-101178702D02*
X130502689Y-97721389D01*
X129720753Y-97000146D02*
G75*
G03*
X129720748Y-96939449I-30353J30346D01*
G01*
X129375000Y-93865000D02*
G75*
G03*
X129245000Y-93735000I-130000J0D01*
G01*
X129586357Y-97134452D02*
G75*
G03*
X129586395Y-97732586I299043J-299048D01*
G01*
X129709552Y-97855742D02*
G75*
G03*
X130307647Y-97855743I299048J299042D01*
G01*
X128681257Y-96229352D02*
G75*
G03*
X128681296Y-96827487I299043J-299048D01*
G01*
X129720748Y-97000140D02*
X129720748Y-97000141D01*
X128815653Y-96095046D02*
G75*
G03*
X128815649Y-96034350I-30353J30346D01*
G01*
X128815649Y-96034350D02*
X128535000Y-95753702D01*
X130502645Y-97721433D02*
G75*
G03*
X130441998Y-97721390I-30345J-30267D01*
G01*
X129780000Y-84755001D02*
X130090000Y-84445001D01*
X129780000Y-85430000D02*
X129780000Y-84755001D01*
X129830000Y-90758702D02*
X129830000Y-85480000D01*
X128915000Y-91673702D02*
X129830000Y-90758702D01*
X128205000Y-93095000D02*
X128405000Y-93095000D01*
X129245000Y-93355000D02*
X128205000Y-93355000D01*
X128405000Y-94635000D02*
X128205000Y-94635000D01*
X128915000Y-95596298D02*
X128915000Y-95145000D01*
X128949998Y-96498094D02*
X129084350Y-96363743D01*
X129073154Y-96681941D02*
X128949998Y-96558785D01*
X129133845Y-96681941D02*
X129133845Y-96681942D01*
X128915000Y-92585000D02*
X128915000Y-91673702D01*
X129989449Y-96670748D02*
X129866291Y-96547589D01*
X129855097Y-97403193D02*
X129989449Y-97268842D01*
X130038944Y-97587040D02*
X130038944Y-97587041D01*
X134340000Y-101021298D02*
X130771390Y-97452687D01*
X134340000Y-106371298D02*
X134340000Y-101021298D01*
X136590000Y-109251298D02*
X136590000Y-108621298D01*
X129268196Y-96547589D02*
X129133845Y-96681941D01*
X129084350Y-95765649D02*
X128915000Y-95596298D01*
X138172702Y-110834000D02*
X136590000Y-109251298D01*
X140080999Y-110834000D02*
X138172702Y-110834000D01*
X130173295Y-97452688D02*
X130038944Y-97587040D01*
X140090999Y-110824000D02*
X140080999Y-110834000D01*
X140616000Y-110824000D02*
X140090999Y-110824000D01*
X128205000Y-93095000D02*
G75*
G03*
X128075000Y-93225000I0J-130000D01*
G01*
X128075000Y-93225000D02*
G75*
G03*
X128205000Y-93355000I130000J0D01*
G01*
X129866291Y-96547589D02*
X129866291Y-96547588D01*
X129755000Y-93865000D02*
G75*
G03*
X129245000Y-93355000I-510000J0D01*
G01*
X128949998Y-96558785D02*
X128949997Y-96558785D01*
X129245000Y-94375000D02*
G75*
G03*
X129755000Y-93865000I0J510000D01*
G01*
X129830000Y-85480000D02*
X129780000Y-85430000D01*
X128205000Y-94375000D02*
G75*
G03*
X128075000Y-94505000I0J-130000D01*
G01*
X128075000Y-94505000D02*
G75*
G03*
X128205000Y-94635000I130000J0D01*
G01*
X128915000Y-95145000D02*
G75*
G03*
X128405000Y-94635000I-510000J0D01*
G01*
X128949959Y-96498055D02*
G75*
G03*
X128949998Y-96558784I30341J-30345D01*
G01*
X129866247Y-96547632D02*
G75*
G03*
X129268196Y-96547589I-299047J-298968D01*
G01*
X129073154Y-96681941D02*
G75*
G03*
X129133845Y-96681942I30346J30341D01*
G01*
X129084354Y-96363747D02*
G75*
G03*
X129084350Y-95765649I-299054J299047D01*
G01*
X128405000Y-93095000D02*
G75*
G03*
X128915000Y-92585000I0J510000D01*
G01*
X129989454Y-97268847D02*
G75*
G03*
X129989449Y-96670748I-299054J299047D01*
G01*
X129978253Y-97587040D02*
X129855097Y-97463884D01*
X129855097Y-97463884D02*
X129855096Y-97463884D01*
X130090000Y-84445001D02*
X130090000Y-83020000D01*
X129855059Y-97403155D02*
G75*
G03*
X129855097Y-97463883I30341J-30345D01*
G01*
X136590000Y-108621298D02*
X134340000Y-106371298D01*
X128205000Y-94375000D02*
X129245000Y-94375000D01*
X130771346Y-97452731D02*
G75*
G03*
X130173296Y-97452689I-299046J-298969D01*
G01*
X129978255Y-97587038D02*
G75*
G03*
X130038943Y-97587040I30345J30338D01*
G01*
X130590000Y-84445001D02*
X130590000Y-83020000D01*
X130900000Y-85480000D02*
X130900000Y-84755001D01*
X130950000Y-85530000D02*
X130900000Y-85480000D01*
X130950000Y-90431298D02*
X130950000Y-85530000D01*
X130035000Y-95303702D02*
X130035000Y-91346298D01*
X130900000Y-84755001D02*
X130590000Y-84445001D01*
X130240649Y-95509350D02*
X130035000Y-95303702D01*
X130106298Y-95728552D02*
X130240649Y-95594202D01*
X130205294Y-96449804D02*
X130106297Y-96350807D01*
X130827549Y-96449804D02*
X130827550Y-96449804D01*
X130961899Y-96315453D02*
X130827549Y-96449804D01*
X131145748Y-96414449D02*
X131046750Y-96315452D01*
X131110393Y-97354903D02*
X131011396Y-97255906D01*
X131916496Y-97538750D02*
X132050847Y-97404400D01*
X132015492Y-98260002D02*
X131916495Y-98161005D01*
X130035000Y-91346298D02*
X130950000Y-90431298D01*
X132772097Y-98125651D02*
X132637747Y-98260002D01*
X132955946Y-98224647D02*
X132856948Y-98125650D01*
X132821595Y-98443849D02*
X132955946Y-98309499D01*
X132920591Y-99165101D02*
X132821594Y-99066104D01*
X131866998Y-97220552D02*
X131732648Y-97354903D01*
X133726694Y-99348948D02*
X133861045Y-99214598D01*
X134759071Y-99759071D02*
X134447946Y-100070200D01*
X134850996Y-99667149D02*
X134759071Y-99759071D01*
X135260000Y-101390000D02*
X135260000Y-100528702D01*
X135928400Y-101868400D02*
X135738400Y-101868400D01*
X131011397Y-96633651D02*
X131145748Y-96499301D01*
X136026800Y-102030000D02*
X136026800Y-101966800D01*
X134693200Y-102801600D02*
X134693200Y-102538400D01*
X135261600Y-103180000D02*
X135071600Y-103180000D01*
X131732648Y-97354903D02*
X131732649Y-97354903D01*
X135260000Y-104303954D02*
X135261600Y-103180000D01*
X135260000Y-100528702D02*
X135169195Y-100437896D01*
X135260000Y-105928702D02*
X135260000Y-104303954D01*
X137410000Y-108078702D02*
X135260000Y-105928702D01*
X133677196Y-99030750D02*
X133542846Y-99165101D01*
X140080999Y-110014000D02*
X138625298Y-110014000D01*
X140090999Y-110024000D02*
X140080999Y-110014000D01*
X130106319Y-95728573D02*
G75*
G03*
X130106298Y-96350806I311081J-311127D01*
G01*
X140616000Y-110024000D02*
X140090999Y-110024000D01*
X130205294Y-96449804D02*
G75*
G03*
X130827550Y-96449804I311128J311129D01*
G01*
X133825690Y-100070200D02*
X133726693Y-99971203D01*
X131145773Y-96499326D02*
G75*
G03*
X131145748Y-96414449I-42473J42426D01*
G01*
X135232834Y-99285311D02*
X134850996Y-99667149D01*
X131110393Y-97354903D02*
G75*
G03*
X131732649Y-97354903I311128J311129D01*
G01*
X138625298Y-110014000D02*
X137410000Y-108798702D01*
X133542846Y-99165101D02*
X133542847Y-99165101D01*
X131951825Y-97220575D02*
G75*
G03*
X131866998Y-97220552I-42425J-42425D01*
G01*
X137410000Y-108798702D02*
X137410000Y-108078702D01*
X135416681Y-99469157D02*
X135416681Y-99469158D01*
X132050873Y-97404426D02*
G75*
G03*
X132050847Y-97319548I-42473J42426D01*
G01*
X131916519Y-97538773D02*
G75*
G03*
X131916496Y-98161004I311081J-311127D01*
G01*
X135450000Y-102160000D02*
X135450000Y-102128400D01*
X132015492Y-98260002D02*
G75*
G03*
X132637748Y-98260002I311128J311129D01*
G01*
X132856925Y-98125673D02*
G75*
G03*
X132772097Y-98125651I-42425J-42427D01*
G01*
X132821619Y-98443873D02*
G75*
G03*
X132821595Y-99066103I311081J-311127D01*
G01*
X133861045Y-99129746D02*
X133762047Y-99030749D01*
X132920591Y-99165101D02*
G75*
G03*
X133542847Y-99165101I311128J311129D01*
G01*
X133762024Y-99030772D02*
G75*
G03*
X133677197Y-99030751I-42424J-42428D01*
G01*
X133861073Y-99214626D02*
G75*
G03*
X133861045Y-99129746I-42473J42426D01*
G01*
X132637747Y-98260002D02*
X132637748Y-98260002D01*
X133726719Y-99348973D02*
G75*
G03*
X133726694Y-99971202I311081J-311127D01*
G01*
X133825690Y-100070200D02*
G75*
G03*
X134447946Y-100070200I311128J311129D01*
G01*
X135416646Y-99469123D02*
G75*
G03*
X135416681Y-99285312I-91846J91923D01*
G01*
X135169225Y-99716674D02*
G75*
G03*
X135169195Y-100437896I360575J-360626D01*
G01*
X132955973Y-98309526D02*
G75*
G03*
X132955946Y-98224647I-42473J42426D01*
G01*
X135260000Y-101390000D02*
G75*
G03*
X135738400Y-101868400I478400J0D01*
G01*
X136026800Y-101966800D02*
G75*
G03*
X135928400Y-101868400I-98400J0D01*
G01*
X135071600Y-102160000D02*
X135450000Y-102160000D01*
X135928400Y-102128400D02*
G75*
G03*
X136026800Y-102030000I0J98400D01*
G01*
X131046725Y-96315477D02*
G75*
G03*
X130961899Y-96315453I-42425J-42423D01*
G01*
X135450000Y-102128400D02*
X135928400Y-102128400D01*
X135169195Y-99716644D02*
X135416681Y-99469157D01*
X132050847Y-97319548D02*
X131951849Y-97220551D01*
X130240673Y-95594226D02*
G75*
G03*
X130240649Y-95509350I-42473J42426D01*
G01*
X135071600Y-102160000D02*
G75*
G03*
X134693200Y-102538400I0J-378400D01*
G01*
X135416681Y-99285312D02*
G75*
G03*
X135232835Y-99285312I-91923J-91924D01*
G01*
X134693200Y-102801600D02*
G75*
G03*
X135071600Y-103180000I378400J0D01*
G01*
X131011419Y-96633673D02*
G75*
G03*
X131011397Y-97255905I311081J-311127D01*
G01*
X131280000Y-84755001D02*
X131590000Y-84445001D01*
X131280000Y-85480000D02*
X131280000Y-84755001D01*
X131330000Y-85530000D02*
X131280000Y-85480000D01*
X131330000Y-90588702D02*
X131330000Y-85530000D01*
X130509350Y-95240649D02*
X130415000Y-95146298D01*
X130509350Y-95862904D02*
X130509350Y-95862903D01*
X130374999Y-95997254D02*
X130509350Y-95862904D01*
X130473995Y-96181102D02*
X130374998Y-96082105D01*
X130558846Y-96181102D02*
X130558847Y-96181102D01*
X131414449Y-96145748D02*
X131315451Y-96046750D01*
X131414449Y-96768003D02*
X131414449Y-96768002D01*
X131280098Y-96902353D02*
X131414449Y-96768003D01*
X131379094Y-97086201D02*
X131280097Y-96987204D01*
X131463945Y-97086201D02*
X131463946Y-97086201D01*
X131598295Y-96951850D02*
X131463945Y-97086201D01*
X132319548Y-97050847D02*
X132220550Y-96951849D01*
X132319548Y-97673102D02*
X132319548Y-97673101D01*
X132185197Y-97807452D02*
X132319548Y-97673102D01*
X132369044Y-97991300D02*
X132369045Y-97991300D01*
X133224647Y-98578201D02*
X133224647Y-98578200D01*
X133408493Y-98762048D02*
X133274143Y-98896399D01*
X134129746Y-98861045D02*
X134030748Y-98762047D01*
X133995395Y-99617650D02*
X134129746Y-99483300D01*
X135437897Y-99985346D02*
X135685383Y-99737859D01*
X135640000Y-100371298D02*
X135437897Y-100169194D01*
X135640000Y-101390000D02*
X135640000Y-100371298D01*
X135928400Y-101488400D02*
X135738400Y-101488400D01*
X136406800Y-102030000D02*
X136406800Y-101966800D01*
X135450000Y-102508400D02*
X135928400Y-102508400D01*
X135450000Y-102540000D02*
X135450000Y-102508400D01*
X135640000Y-105771298D02*
X135640000Y-103181600D01*
X137790000Y-107921298D02*
X135640000Y-105771298D01*
X137790000Y-108641298D02*
X137790000Y-107921298D01*
X140616000Y-109624000D02*
X140090999Y-109624000D01*
X133274143Y-98896399D02*
X133274144Y-98896399D01*
X130509374Y-95862927D02*
G75*
G03*
X130509350Y-95240649I-311174J311127D01*
G01*
X130473995Y-96181102D02*
G75*
G03*
X130558847Y-96181102I42426J42427D01*
G01*
X130415000Y-95146298D02*
X130415000Y-91503702D01*
X131315427Y-96046774D02*
G75*
G03*
X130693196Y-96046751I-311127J-311126D01*
G01*
X138782702Y-109634000D02*
X137790000Y-108641298D01*
X131414474Y-96768027D02*
G75*
G03*
X131414449Y-96145748I-311174J311127D01*
G01*
X130415000Y-91503702D02*
X131330000Y-90588702D01*
X133090296Y-98712551D02*
X133224647Y-98578201D01*
X131280119Y-96902374D02*
G75*
G03*
X131280097Y-96987204I42381J-42426D01*
G01*
X135071600Y-102540000D02*
X135450000Y-102540000D01*
X133224647Y-97955946D02*
X133125649Y-97856948D01*
X131379094Y-97086201D02*
G75*
G03*
X131463946Y-97086201I42426J42427D01*
G01*
X140090999Y-109624000D02*
X140080999Y-109634000D01*
X133189292Y-98896399D02*
X133090295Y-98797402D01*
X130375019Y-95997274D02*
G75*
G03*
X130374998Y-96082105I42381J-42426D01*
G01*
X132220526Y-96951873D02*
G75*
G03*
X131598296Y-96951851I-311126J-311127D01*
G01*
X132319574Y-97673127D02*
G75*
G03*
X132319548Y-97050847I-311174J311127D01*
G01*
X134964130Y-99016607D02*
X134179242Y-99801498D01*
X132185219Y-97807474D02*
G75*
G03*
X132185196Y-97892303I42381J-42426D01*
G01*
X132284193Y-97991300D02*
G75*
G03*
X132369045Y-97991300I42426J42427D01*
G01*
X140080999Y-109634000D02*
X138782702Y-109634000D01*
X133125627Y-97856970D02*
G75*
G03*
X132503394Y-97856949I-311127J-311130D01*
G01*
X132284193Y-97991300D02*
X132185196Y-97892303D01*
X133224674Y-98578227D02*
G75*
G03*
X133224647Y-97955946I-311174J311127D01*
G01*
X135261600Y-102803200D02*
X135071600Y-102803200D01*
X133090319Y-98712574D02*
G75*
G03*
X133090295Y-98797402I42381J-42426D01*
G01*
X131590000Y-84445001D02*
X131590000Y-83020000D01*
X134030727Y-98762068D02*
G75*
G03*
X133408493Y-98762048I-311127J-311132D01*
G01*
X133189292Y-98896399D02*
G75*
G03*
X133274144Y-98896399I42426J42427D01*
G01*
X130693196Y-96046751D02*
X130558846Y-96181102D01*
X134129774Y-99483327D02*
G75*
G03*
X134129746Y-98861045I-311174J311127D01*
G01*
X135685427Y-99016566D02*
G75*
G03*
X134964131Y-99016608I-360627J-360634D01*
G01*
X134179242Y-99801498D02*
X134179243Y-99801498D01*
X135685348Y-99737825D02*
G75*
G03*
X135685383Y-99016610I-360548J360625D01*
G01*
X134094391Y-99801498D02*
X133995394Y-99702501D01*
X134094391Y-99801498D02*
G75*
G03*
X134179243Y-99801498I42426J42427D01*
G01*
X135928400Y-102508400D02*
G75*
G03*
X136406800Y-102030000I0J478400D01*
G01*
X135437927Y-99985376D02*
G75*
G03*
X135437897Y-100169194I91873J-91924D01*
G01*
X133995419Y-99617674D02*
G75*
G03*
X133995394Y-99702501I42381J-42426D01*
G01*
X135640000Y-103181600D02*
G75*
G03*
X135261600Y-102803200I-378400J0D01*
G01*
X135685383Y-99737859D02*
X135685383Y-99737860D01*
X134129746Y-99483300D02*
X134129746Y-99483299D01*
X132503394Y-97856949D02*
X132369044Y-97991300D01*
X136406800Y-101966800D02*
G75*
G03*
X135928400Y-101488400I-478400J0D01*
G01*
X135640000Y-101390000D02*
G75*
G03*
X135738400Y-101488400I98400J0D01*
G01*
X135071600Y-102803200D02*
X135071600Y-102540000D01*
X132450000Y-85470000D02*
X132400000Y-85420000D01*
X131535000Y-91266298D02*
X132450000Y-90351298D01*
X131765649Y-94684350D02*
X131535000Y-94453702D01*
X132847525Y-95228824D02*
X132300969Y-95775378D01*
X132450000Y-90351298D02*
X132450000Y-85470000D01*
X133266801Y-94809548D02*
X132847525Y-95228824D01*
X131579718Y-95775379D02*
X131579718Y-95775380D01*
X133450648Y-94993394D02*
X133450648Y-94993395D01*
X132484816Y-95959227D02*
X133450648Y-94993394D01*
X132484816Y-96680478D02*
X132484817Y-96680478D01*
X133752624Y-96133923D02*
X133206067Y-96680477D01*
X132400000Y-85420000D02*
X132400000Y-84755001D01*
X134171900Y-95714647D02*
X133752624Y-96133923D01*
X134355747Y-95898493D02*
X134355747Y-95898494D01*
X133389915Y-97585577D02*
X133389916Y-97585577D01*
X134657723Y-97039022D02*
X134111166Y-97585576D01*
X135076999Y-96619746D02*
X134657723Y-97039022D01*
X135260846Y-96803592D02*
X135260846Y-96803593D01*
X134295014Y-98490676D02*
X134295015Y-98490676D01*
X135202195Y-98304745D02*
X135016265Y-98490676D01*
X136760000Y-99678702D02*
X135386043Y-98304745D01*
X136760000Y-105578702D02*
X136760000Y-99678702D01*
X138510000Y-107328702D02*
X136760000Y-105578702D01*
X138510000Y-107968702D02*
X138510000Y-107328702D01*
X139365298Y-108824000D02*
X138510000Y-107968702D01*
X140616000Y-108824000D02*
X139365298Y-108824000D01*
X131765675Y-94868224D02*
G75*
G03*
X131765649Y-94684350I-91975J91924D01*
G01*
X131579764Y-95054174D02*
G75*
G03*
X131579718Y-95775380I360536J-360626D01*
G01*
X131579675Y-95775422D02*
G75*
G03*
X132300969Y-95775378I360625J360622D01*
G01*
X133450648Y-94809549D02*
G75*
G03*
X133266802Y-94809549I-91923J-91924D01*
G01*
X131579718Y-95054128D02*
X131765649Y-94868198D01*
X132484865Y-95959276D02*
G75*
G03*
X132484818Y-96680477I360535J-360624D01*
G01*
X133389915Y-96864326D02*
X134355747Y-95898493D01*
X132484775Y-96680519D02*
G75*
G03*
X133206067Y-96680477I360625J360619D01*
G01*
X134355747Y-95714648D02*
G75*
G03*
X134171901Y-95714648I-91923J-91924D01*
G01*
X133450677Y-94993424D02*
G75*
G03*
X133450649Y-94809548I-91977J91924D01*
G01*
X135016265Y-98490676D02*
X135016265Y-98490675D01*
X131535000Y-94453702D02*
X131535000Y-91266298D01*
X133389876Y-97585616D02*
G75*
G03*
X134111165Y-97585575I360624J360716D01*
G01*
X135260846Y-96619747D02*
G75*
G03*
X135077000Y-96619747I-91923J-91924D01*
G01*
X133389965Y-96864376D02*
G75*
G03*
X133389917Y-97585576I360535J-360624D01*
G01*
X134294975Y-98490715D02*
G75*
G03*
X135016265Y-98490675I360625J360715D01*
G01*
X135260877Y-96803624D02*
G75*
G03*
X135260847Y-96619746I-91977J91924D01*
G01*
X134355777Y-95898524D02*
G75*
G03*
X134355748Y-95714647I-91977J91924D01*
G01*
X132090000Y-84445001D02*
X132090000Y-83020000D01*
X135386042Y-98304746D02*
G75*
G03*
X135202196Y-98304746I-91923J-91924D01*
G01*
X132400000Y-84755001D02*
X132090000Y-84445001D01*
X134294964Y-97769375D02*
G75*
G03*
X134295015Y-98490676I360636J-360625D01*
G01*
X134295014Y-97769425D02*
X135260846Y-96803592D01*
X132780000Y-84755001D02*
X133090000Y-84445001D01*
X132780000Y-85420000D02*
X132780000Y-84755001D01*
X132830000Y-90508702D02*
X132830000Y-85470000D01*
X131915000Y-91423702D02*
X132830000Y-90508702D01*
X132830000Y-85470000D02*
X132780000Y-85420000D01*
X132034350Y-94415649D02*
X131915000Y-94296298D01*
X132034350Y-95136900D02*
X132034350Y-95136899D01*
X131848419Y-95506677D02*
X131848419Y-95506678D01*
X133719350Y-95262096D02*
X133719350Y-95262097D01*
X132578823Y-94960121D02*
X132032266Y-95506676D01*
X132753518Y-96227929D02*
X133719350Y-95262096D01*
X132753518Y-96411776D02*
X132753519Y-96411776D01*
X133483922Y-95865220D02*
X132937365Y-96411775D01*
X134624449Y-96167195D02*
X134624449Y-96167196D01*
X133658617Y-97316875D02*
X133658618Y-97316875D01*
X134808295Y-96351042D02*
X134389021Y-96770319D01*
X135529548Y-97072294D02*
X135529548Y-97072295D01*
X134563716Y-98221974D02*
X134563717Y-98221974D01*
X134747563Y-98221974D02*
X134747563Y-98221973D01*
X134933493Y-98036043D02*
X134747563Y-98221974D01*
X131915000Y-94296298D02*
X131915000Y-91423702D01*
X137140000Y-99521298D02*
X135654745Y-98036043D01*
X137140000Y-105421298D02*
X137140000Y-99521298D01*
X138890000Y-107171298D02*
X137140000Y-105421298D01*
X138890000Y-107811298D02*
X138890000Y-107171298D01*
X139502702Y-108424000D02*
X138890000Y-107811298D01*
X140616000Y-108424000D02*
X139502702Y-108424000D01*
X133903196Y-95445943D02*
X133483922Y-95865220D01*
X132998097Y-94540844D02*
X132578823Y-94960121D01*
X132034375Y-95136924D02*
G75*
G03*
X132034349Y-94415650I-360675J360624D01*
G01*
X134389021Y-96770319D02*
X133842464Y-97316874D01*
X131848419Y-95322830D02*
X132034350Y-95136900D01*
X131848378Y-95506718D02*
G75*
G03*
X132032265Y-95506675I91922J91918D01*
G01*
X133719328Y-94540869D02*
G75*
G03*
X132998097Y-94540844I-360628J-360631D01*
G01*
X133719379Y-95262126D02*
G75*
G03*
X133719351Y-94540846I-360679J360626D01*
G01*
X134563716Y-98038127D02*
X135529548Y-97072294D01*
X132753567Y-96227978D02*
G75*
G03*
X132753520Y-96411775I91833J-91922D01*
G01*
X132753477Y-96411817D02*
G75*
G03*
X132937365Y-96411775I91923J91917D01*
G01*
X131848465Y-95322876D02*
G75*
G03*
X131848419Y-95506678I91835J-91924D01*
G01*
X134624428Y-95445967D02*
G75*
G03*
X133903196Y-95445943I-360628J-360633D01*
G01*
X134624479Y-96167226D02*
G75*
G03*
X134624450Y-95445945I-360679J360626D01*
G01*
X133658667Y-97133078D02*
G75*
G03*
X133658619Y-97316874I91833J-91922D01*
G01*
X133090000Y-84445001D02*
X133090000Y-83020000D01*
X133658578Y-97316914D02*
G75*
G03*
X133842463Y-97316873I91922J92014D01*
G01*
X134563666Y-98038077D02*
G75*
G03*
X134563717Y-98221974I91934J-91923D01*
G01*
X135529579Y-97072326D02*
G75*
G03*
X135529549Y-96351044I-360679J360626D01*
G01*
X134563677Y-98222013D02*
G75*
G03*
X134747563Y-98221973I91923J92013D01*
G01*
X133658617Y-97133028D02*
X134624449Y-96167195D01*
X135654744Y-98036044D02*
G75*
G03*
X134933494Y-98036044I-360625J-360626D01*
G01*
X135529527Y-96351066D02*
G75*
G03*
X134808296Y-96351043I-360627J-360634D01*
G01*
D54*
X125640000Y-90650000D02*
X125640000Y-83070000D01*
X125640000Y-83070000D02*
X125590000Y-83020000D01*
X124500000Y-91790000D02*
X125640000Y-90650000D01*
X124500000Y-92150000D02*
X124500000Y-91790000D01*
X127090000Y-90670000D02*
X127090000Y-83020000D01*
X126500000Y-91260000D02*
X127090000Y-90670000D01*
X126500000Y-92600000D02*
X126500000Y-91260000D01*
X124110000Y-83040000D02*
X124090000Y-83020000D01*
X124110000Y-89500000D02*
X124110000Y-83040000D01*
X124590000Y-89260000D02*
X124590000Y-83020000D01*
X124690000Y-89360000D02*
X124590000Y-89260000D01*
X124690000Y-90950000D02*
X124690000Y-89360000D01*
X123975000Y-92525000D02*
X123975000Y-91665000D01*
D56*
X126140000Y-83070000D02*
X126140000Y-90935132D01*
X126090000Y-83020000D02*
X126140000Y-83070000D01*
D54*
X123100000Y-93400000D02*
X123975000Y-92525000D01*
X123975000Y-91665000D02*
X124690000Y-90950000D01*
D56*
X126140000Y-90935132D02*
X125450000Y-91625132D01*
D58*
X207130000Y-125755000D02*
X207130000Y-126130000D01*
X204420000Y-123060000D02*
X204435000Y-123060000D01*
X204435000Y-123060000D02*
X207130000Y-125755000D01*
D54*
X178455248Y-99624000D02*
X178469375Y-99609873D01*
X177616000Y-99624000D02*
X178455248Y-99624000D01*
X178214808Y-100824000D02*
X178461515Y-101070707D01*
X177616000Y-100824000D02*
X178214808Y-100824000D01*
X173864000Y-100824000D02*
X173860000Y-100820000D01*
X174536000Y-100824000D02*
X173864000Y-100824000D01*
X178234000Y-113624000D02*
X178300000Y-113690000D01*
X141176000Y-116424000D02*
X141200000Y-116400000D01*
X177026000Y-108024000D02*
X176220000Y-108830000D01*
X140616000Y-116424000D02*
X141176000Y-116424000D01*
D56*
X106640000Y-87320000D02*
X106680000Y-87280000D01*
D54*
X143024000Y-110424000D02*
X143000000Y-110400000D01*
X98242000Y-113474500D02*
X98242000Y-113458000D01*
X143696000Y-100824000D02*
X145576000Y-100824000D01*
X174536000Y-118824000D02*
X174974000Y-118824000D01*
D56*
X104330000Y-91820000D02*
X104320000Y-91810000D01*
X105510000Y-87320000D02*
X106640000Y-87320000D01*
D54*
X140976000Y-117624000D02*
X141350000Y-117250000D01*
X173866000Y-102024000D02*
X173860000Y-102030000D01*
X141276000Y-109224000D02*
X141300000Y-109200000D01*
X174536000Y-103624000D02*
X174059000Y-103624000D01*
X141276000Y-100824000D02*
X141300000Y-100800000D01*
X175284000Y-114024000D02*
X175730000Y-114470000D01*
X178466000Y-110024000D02*
X178500000Y-109990000D01*
X141176000Y-112824000D02*
X141200000Y-112800000D01*
X140616000Y-109224000D02*
X141276000Y-109224000D01*
X141324383Y-114024000D02*
X141328388Y-114028005D01*
D56*
X105510000Y-91820000D02*
X104330000Y-91820000D01*
D54*
X143024000Y-114024000D02*
X143000000Y-114000000D01*
X143696000Y-116424000D02*
X143024000Y-116424000D01*
D56*
X106740000Y-91820000D02*
X106750000Y-91810000D01*
D54*
X139924000Y-104424000D02*
X139900000Y-104400000D01*
X143696000Y-103224000D02*
X144476000Y-103224000D01*
X141276000Y-115224000D02*
X141300000Y-115200000D01*
X142924000Y-104424000D02*
X142900000Y-104400000D01*
X173926000Y-105624000D02*
X173920000Y-105630000D01*
X175282702Y-112424000D02*
X175450923Y-112255779D01*
X140616000Y-112824000D02*
X141176000Y-112824000D01*
D56*
X105510000Y-84320000D02*
X106670000Y-84320000D01*
D54*
X140616000Y-111624000D02*
X141276000Y-111624000D01*
X98242000Y-111549500D02*
X98242000Y-111392000D01*
X140616000Y-117624000D02*
X140976000Y-117624000D01*
D56*
X104320000Y-87320000D02*
X104300000Y-87300000D01*
D54*
X142924000Y-105624000D02*
X142900000Y-105600000D01*
X143024000Y-116424000D02*
X143000000Y-116400000D01*
D56*
X98226000Y-103822500D02*
X98227500Y-103822500D01*
X101296000Y-101560000D02*
X102440000Y-101560000D01*
D54*
X140616000Y-104424000D02*
X139924000Y-104424000D01*
D56*
X105510000Y-91820000D02*
X106740000Y-91820000D01*
D54*
X143024000Y-117624000D02*
X143000000Y-117600000D01*
X141276000Y-105624000D02*
X141300000Y-105600000D01*
X142826000Y-118824000D02*
X142350000Y-119300000D01*
X141276000Y-106824000D02*
X141300000Y-106800000D01*
X143696000Y-102024000D02*
X144476000Y-102024000D01*
X98242000Y-113458000D02*
X98250000Y-113450000D01*
X174059000Y-103624000D02*
X173958001Y-103523001D01*
X140616000Y-118824000D02*
X141224000Y-118824000D01*
X140616000Y-105624000D02*
X141276000Y-105624000D01*
X139924000Y-103224000D02*
X139900000Y-103200000D01*
D56*
X105510000Y-85820000D02*
X104300000Y-85820000D01*
X105510000Y-88820000D02*
X106680000Y-88820000D01*
D54*
X141276000Y-108024000D02*
X141300000Y-108000000D01*
X143696000Y-105624000D02*
X142924000Y-105624000D01*
D56*
X105510000Y-87320000D02*
X104320000Y-87320000D01*
X106670000Y-84320000D02*
X106680000Y-84330000D01*
X102440000Y-101560000D02*
X102450000Y-101550000D01*
D54*
X140616000Y-102024000D02*
X139876000Y-102024000D01*
X139876000Y-102024000D02*
X139800000Y-102100000D01*
X140616000Y-108024000D02*
X141276000Y-108024000D01*
X102588000Y-111212000D02*
X102600000Y-111200000D01*
X143696000Y-104424000D02*
X142924000Y-104424000D01*
X143696000Y-114024000D02*
X143024000Y-114024000D01*
X173946000Y-107624000D02*
X173930000Y-107640000D01*
X173958001Y-102128001D02*
X173860000Y-102030000D01*
X140616000Y-103224000D02*
X139924000Y-103224000D01*
D56*
X98226000Y-101897500D02*
X98226000Y-101924000D01*
D54*
X177616000Y-110024000D02*
X178466000Y-110024000D01*
X174536000Y-112424000D02*
X175282702Y-112424000D01*
X140616000Y-110424000D02*
X141324383Y-110424000D01*
D56*
X105510000Y-85820000D02*
X106680000Y-85820000D01*
D54*
X143696000Y-111624000D02*
X143024000Y-111624000D01*
X140616000Y-100824000D02*
X141276000Y-100824000D01*
X174974000Y-118824000D02*
X175250000Y-119100000D01*
X142974031Y-112824000D02*
X142972821Y-112822790D01*
D56*
X98227500Y-103822500D02*
X98250000Y-103800000D01*
X105510000Y-84320000D02*
X104310000Y-84320000D01*
D54*
X143024000Y-111624000D02*
X143000000Y-111600000D01*
X141224000Y-118824000D02*
X141350000Y-118950000D01*
X144476000Y-103224000D02*
X144500000Y-103200000D01*
X101312000Y-111212000D02*
X102588000Y-111212000D01*
X143696000Y-110424000D02*
X143024000Y-110424000D01*
X143696000Y-112824000D02*
X142974031Y-112824000D01*
X174536000Y-114024000D02*
X175284000Y-114024000D01*
X174074000Y-111224000D02*
X173700000Y-110850000D01*
X140616000Y-114024000D02*
X141324383Y-114024000D01*
D56*
X105510000Y-88820000D02*
X104320000Y-88820000D01*
D54*
X141324383Y-110424000D02*
X141328388Y-110428005D01*
X143696000Y-117624000D02*
X143024000Y-117624000D01*
X173958001Y-103523001D02*
X173958001Y-102128001D01*
X174536000Y-102024000D02*
X173866000Y-102024000D01*
X174536000Y-105624000D02*
X173926000Y-105624000D01*
X98242000Y-111392000D02*
X98200000Y-111350000D01*
X145576000Y-100824000D02*
X145600000Y-100800000D01*
X143124000Y-115224000D02*
X143100000Y-115200000D01*
X143696000Y-115224000D02*
X143124000Y-115224000D01*
X143696000Y-118824000D02*
X142826000Y-118824000D01*
X143696000Y-106824000D02*
X142924000Y-106824000D01*
X177616000Y-113624000D02*
X178234000Y-113624000D01*
D56*
X98226000Y-101924000D02*
X98200000Y-101950000D01*
D54*
X174536000Y-107624000D02*
X173946000Y-107624000D01*
X142924000Y-106824000D02*
X142900000Y-106800000D01*
X141276000Y-111624000D02*
X141300000Y-111600000D01*
X144476000Y-102024000D02*
X144500000Y-102000000D01*
X174536000Y-111224000D02*
X174074000Y-111224000D01*
D56*
X104310000Y-84320000D02*
X104300000Y-84330000D01*
D54*
X140616000Y-115224000D02*
X141276000Y-115224000D01*
X177616000Y-108024000D02*
X177026000Y-108024000D01*
X140616000Y-106824000D02*
X141276000Y-106824000D01*
X176824000Y-116024000D02*
X176820000Y-116020000D01*
X177616000Y-115624000D02*
X178094000Y-115624000D01*
X177616000Y-116024000D02*
X176824000Y-116024000D01*
X177714000Y-114824000D02*
X178320000Y-115430000D01*
X177116000Y-115224000D02*
X176790000Y-115550000D01*
X177616000Y-115224000D02*
X177116000Y-115224000D01*
X177616000Y-116424000D02*
X178286000Y-116424000D01*
X177616000Y-116824000D02*
X177214000Y-116824000D01*
X177616000Y-114824000D02*
X177714000Y-114824000D01*
X178094000Y-115624000D02*
X178340000Y-115870000D01*
X177214000Y-116824000D02*
X176850000Y-116460000D01*
X178286000Y-116424000D02*
X178310000Y-116400000D01*
D56*
X144126000Y-107614000D02*
X144241000Y-107729000D01*
X144241000Y-107729000D02*
X144241000Y-108119702D01*
X144241000Y-108119702D02*
X145180000Y-109058702D01*
X145180000Y-110728701D02*
X145802512Y-111351213D01*
X145180000Y-109058702D02*
X145180000Y-110728701D01*
X145802512Y-111351213D02*
X145802512Y-111577488D01*
X143696000Y-107624000D02*
X143706000Y-107614000D01*
X143706000Y-107614000D02*
X144126000Y-107614000D01*
X145560000Y-110571299D02*
X146071213Y-111082512D01*
X143706000Y-107234000D02*
X144283374Y-107234000D01*
X144620981Y-107962279D02*
X145560000Y-108901298D01*
X146071213Y-111082512D02*
X146297488Y-111082512D01*
X143696000Y-107224000D02*
X143706000Y-107234000D01*
X144283374Y-107234000D02*
X144620981Y-107571607D01*
X145560000Y-108901298D02*
X145560000Y-110571299D01*
X144620981Y-107571607D02*
X144620981Y-107962279D01*
X143696000Y-106424000D02*
X144136000Y-106424000D01*
X144136000Y-106424000D02*
X144241000Y-106529000D01*
X144241000Y-106669702D02*
X146090000Y-108518702D01*
X146090000Y-109508702D02*
X147241298Y-110660000D01*
X144241000Y-106529000D02*
X144241000Y-106669702D01*
X147241298Y-110660000D02*
X147460000Y-110660000D01*
X147460000Y-110660000D02*
X147620000Y-110820000D01*
X146090000Y-108518702D02*
X146090000Y-109508702D01*
X144620981Y-106512279D02*
X146470000Y-108361298D01*
X144620981Y-106371607D02*
X144620981Y-106512279D01*
X146470000Y-109351298D02*
X147398702Y-110280000D01*
X143946000Y-106024000D02*
X143956000Y-106034000D01*
X143696000Y-106024000D02*
X143946000Y-106024000D01*
X144283374Y-106034000D02*
X144620981Y-106371607D01*
X146470000Y-108361298D02*
X146470000Y-109351298D01*
X147398702Y-110280000D02*
X147460000Y-110280000D01*
X143956000Y-106034000D02*
X144283374Y-106034000D01*
X147460000Y-110280000D02*
X147620000Y-110120000D01*
X144231001Y-105214000D02*
X144221001Y-105224000D01*
X144700166Y-105214000D02*
X144231001Y-105214000D01*
X144989080Y-105502914D02*
X144700166Y-105214000D01*
X144989080Y-105665512D02*
X144989080Y-105502914D01*
X144221001Y-105224000D02*
X143696000Y-105224000D01*
X145689080Y-105665512D02*
X144857568Y-104834000D01*
X144231001Y-104834000D02*
X144221001Y-104824000D01*
X144221001Y-104824000D02*
X143696000Y-104824000D01*
X144857568Y-104834000D02*
X144231001Y-104834000D01*
X147276023Y-105400839D02*
X147276023Y-104904185D01*
X146086339Y-103714501D02*
X143786501Y-103714501D01*
X147276023Y-104904185D02*
X146086339Y-103714501D01*
X147171488Y-105505374D02*
X147276023Y-105400839D01*
X147171488Y-105647488D02*
X147171488Y-105505374D01*
X143786501Y-103714501D02*
X143696000Y-103624000D01*
X141850000Y-118414000D02*
X142010000Y-118574000D01*
X141141001Y-118424000D02*
X141151001Y-118414000D01*
X140616000Y-118424000D02*
X141141001Y-118424000D01*
X141151001Y-118414000D02*
X141850000Y-118414000D01*
X140616000Y-118024000D02*
X141141001Y-118024000D01*
X141141001Y-118024000D02*
X141151001Y-118034000D01*
X141850000Y-118034000D02*
X142010000Y-117874000D01*
X141151001Y-118034000D02*
X141850000Y-118034000D01*
X147010000Y-118414000D02*
X147170000Y-118574000D01*
X144221001Y-118424000D02*
X144231001Y-118414000D01*
X144231001Y-118414000D02*
X147010000Y-118414000D01*
X143696000Y-118424000D02*
X144221001Y-118424000D01*
X147010000Y-118034000D02*
X147170000Y-117874000D01*
X144231001Y-118034000D02*
X147010000Y-118034000D01*
X143696000Y-118024000D02*
X144221001Y-118024000D01*
X144221001Y-118024000D02*
X144231001Y-118034000D01*
X146980000Y-116940000D02*
X147140000Y-117100000D01*
X143696000Y-117224000D02*
X144221001Y-117224000D01*
X145494702Y-117214000D02*
X145768702Y-116940000D01*
X144221001Y-117224000D02*
X144231001Y-117214000D01*
X144231001Y-117214000D02*
X145494702Y-117214000D01*
X145768702Y-116940000D02*
X146980000Y-116940000D01*
X145611298Y-116560000D02*
X146980000Y-116560000D01*
X144231001Y-116834000D02*
X145337298Y-116834000D01*
X146980000Y-116560000D02*
X147140000Y-116400000D01*
X143696000Y-116824000D02*
X144221001Y-116824000D01*
X145337298Y-116834000D02*
X145611298Y-116560000D01*
X144221001Y-116824000D02*
X144231001Y-116834000D01*
X144914702Y-116014000D02*
X145608702Y-115320000D01*
X145608702Y-115320000D02*
X146930000Y-115320000D01*
X143696000Y-116024000D02*
X144221001Y-116024000D01*
X146930000Y-115320000D02*
X147090000Y-115480000D01*
X144221001Y-116024000D02*
X144231001Y-116014000D01*
X144231001Y-116014000D02*
X144914702Y-116014000D01*
X146930000Y-114940000D02*
X147090000Y-114780000D01*
X144757298Y-115634000D02*
X145451298Y-114940000D01*
X144221001Y-115624000D02*
X144231001Y-115634000D01*
X144231001Y-115634000D02*
X144757298Y-115634000D01*
X145451298Y-114940000D02*
X146930000Y-114940000D01*
X143696000Y-115624000D02*
X144221001Y-115624000D01*
X143956000Y-114814000D02*
X144324702Y-114814000D01*
X144324702Y-114814000D02*
X145498702Y-113640000D01*
X146990000Y-113640000D02*
X147150000Y-113800000D01*
X143946000Y-114824000D02*
X143956000Y-114814000D01*
X145498702Y-113640000D02*
X146990000Y-113640000D01*
X143696000Y-114824000D02*
X143946000Y-114824000D01*
X144167298Y-114434000D02*
X145341298Y-113260000D01*
X143696000Y-114424000D02*
X143946000Y-114424000D01*
X146990000Y-113260000D02*
X147150000Y-113100000D01*
X143946000Y-114424000D02*
X143956000Y-114434000D01*
X145341298Y-113260000D02*
X146990000Y-113260000D01*
X143956000Y-114434000D02*
X144167298Y-114434000D01*
D54*
X185750000Y-118600000D02*
X186800000Y-118600000D01*
X185250000Y-121150000D02*
X185250000Y-119100000D01*
X178093000Y-118024000D02*
X178400000Y-118331000D01*
X178400000Y-118331000D02*
X178400000Y-118950000D01*
X185250000Y-119100000D02*
X185750000Y-118600000D01*
X180350000Y-121000000D02*
X180350000Y-121140000D01*
X184700000Y-121700000D02*
X185250000Y-121150000D01*
X180350000Y-121140000D02*
X180910000Y-121700000D01*
X180910000Y-121700000D02*
X184700000Y-121700000D01*
X177616000Y-118024000D02*
X178093000Y-118024000D01*
X177616000Y-119224000D02*
X176824000Y-119224000D01*
X179618305Y-119388001D02*
X177780001Y-119388001D01*
X185000000Y-111100000D02*
X185000000Y-115000000D01*
X184356033Y-115556729D02*
X182856250Y-117056511D01*
X177780001Y-119388001D02*
X177616000Y-119224000D01*
X185000000Y-115000000D02*
X184443271Y-115556729D01*
X182856250Y-117056511D02*
X181949795Y-117056511D01*
X184443271Y-115556729D02*
X184356033Y-115556729D01*
X181949795Y-117056511D02*
X179618305Y-119388001D01*
X186550000Y-109550000D02*
X185000000Y-111100000D01*
X176824000Y-119224000D02*
X176800000Y-119200000D01*
X177616000Y-117224000D02*
X178750959Y-117224000D01*
X183035041Y-113350000D02*
X183843011Y-112542030D01*
X183843011Y-112542030D02*
X183843011Y-111590011D01*
X182624959Y-113350000D02*
X183035041Y-113350000D01*
X182800000Y-110547000D02*
X182800000Y-109570000D01*
X183843011Y-111590011D02*
X182800000Y-110547000D01*
X178750959Y-117224000D02*
X182624959Y-113350000D01*
X182800000Y-114650000D02*
X181806511Y-115643489D01*
X178876000Y-117624000D02*
X177616000Y-117624000D01*
X180856511Y-115643489D02*
X178876000Y-117624000D01*
X181806511Y-115643489D02*
X180856511Y-115643489D01*
X143024000Y-109224000D02*
X143000000Y-109200000D01*
X143696000Y-109224000D02*
X143024000Y-109224000D01*
X143208073Y-108824000D02*
X143084073Y-108700000D01*
X143696000Y-108824000D02*
X143208073Y-108824000D01*
X143084073Y-108700000D02*
X142700000Y-108700000D01*
X143024000Y-108424000D02*
X142700000Y-108100000D01*
X143696000Y-108424000D02*
X143024000Y-108424000D01*
X143219000Y-108024000D02*
X142900000Y-107705000D01*
X143696000Y-108024000D02*
X143219000Y-108024000D01*
X142900000Y-107705000D02*
X142900000Y-107500000D01*
D53*
X175086000Y-117624000D02*
X176325499Y-118863499D01*
D54*
X179774477Y-119950000D02*
X176750000Y-119950000D01*
X182411455Y-117313022D02*
X179774477Y-119950000D01*
D53*
X176700000Y-120400000D02*
X176550000Y-120550000D01*
D54*
X176750000Y-119950000D02*
X176700000Y-120000000D01*
X183866978Y-117313022D02*
X182411455Y-117313022D01*
D53*
X174536000Y-117624000D02*
X175086000Y-117624000D01*
X176700000Y-120000000D02*
X176700000Y-120400000D01*
X176325499Y-118863499D02*
X176325499Y-119625499D01*
X176325499Y-119625499D02*
X176700000Y-120000000D01*
D54*
X186550000Y-114630000D02*
X183866978Y-117313022D01*
X175111999Y-111423574D02*
X175357144Y-111668719D01*
X175111999Y-110922999D02*
X175111999Y-111423574D01*
X174536000Y-110824000D02*
X175013000Y-110824000D01*
X175013000Y-110824000D02*
X175111999Y-110922999D01*
D55*
X101296000Y-102860000D02*
X102608501Y-102860000D01*
X103161716Y-102985000D02*
X103311716Y-102835000D01*
X102733501Y-102985000D02*
X103161716Y-102985000D01*
X102608501Y-102860000D02*
X102733501Y-102985000D01*
X102733501Y-103385000D02*
X103161716Y-103385000D01*
X101296000Y-103510000D02*
X102608501Y-103510000D01*
X102608501Y-103510000D02*
X102733501Y-103385000D01*
X103161716Y-103385000D02*
X103311716Y-103535000D01*
D54*
X174536000Y-110424000D02*
X173824000Y-110424000D01*
X173824000Y-110424000D02*
X173600000Y-110200000D01*
X174536000Y-110024000D02*
X175176000Y-110024000D01*
X175176000Y-110024000D02*
X175300000Y-109900000D01*
X177616000Y-110424000D02*
X178650073Y-110424000D01*
X178650073Y-110424000D02*
X179054537Y-110019536D01*
X179054537Y-110019536D02*
X179054537Y-109749352D01*
X177055428Y-109624000D02*
X175599428Y-111080000D01*
X177616000Y-109624000D02*
X177055428Y-109624000D01*
X175599428Y-111080000D02*
X175550000Y-111080000D01*
X188450000Y-113487238D02*
X188450000Y-112300000D01*
X177616000Y-109224000D02*
X176836000Y-109224000D01*
X176836000Y-109224000D02*
X176070000Y-109990000D01*
X178540000Y-109100000D02*
X178580000Y-109140000D01*
X177616000Y-108824000D02*
X178218502Y-108824000D01*
X178218502Y-108824000D02*
X178494502Y-109100000D01*
X178494502Y-109100000D02*
X178540000Y-109100000D01*
X178641339Y-108424000D02*
X178755500Y-108538161D01*
X177616000Y-108424000D02*
X178641339Y-108424000D01*
X174536000Y-107224000D02*
X174074000Y-107224000D01*
X173850000Y-107000000D02*
X173800000Y-107000000D01*
X173800000Y-107000000D02*
X173300000Y-107500000D01*
X174074000Y-107224000D02*
X173850000Y-107000000D01*
X177616000Y-107624000D02*
X178224754Y-107624000D01*
X178224754Y-107624000D02*
X178549748Y-107948994D01*
X175137685Y-106824000D02*
X175137685Y-107237685D01*
X174536000Y-106824000D02*
X175137685Y-106824000D01*
X175137685Y-107237685D02*
X175430000Y-107530000D01*
X179800000Y-108362762D02*
X179800000Y-108660000D01*
X177616000Y-107224000D02*
X178661238Y-107224000D01*
X178661238Y-107224000D02*
X179800000Y-108362762D01*
X179484000Y-106824000D02*
X179810000Y-107150000D01*
X177616000Y-106824000D02*
X179484000Y-106824000D01*
D53*
X170300000Y-132950000D02*
X170350000Y-132900000D01*
X169100000Y-132950000D02*
X170300000Y-132950000D01*
D54*
X175013000Y-106424000D02*
X175259550Y-106177450D01*
X174536000Y-106424000D02*
X175013000Y-106424000D01*
X175259550Y-106177450D02*
X175259550Y-105750682D01*
X178166000Y-106424000D02*
X178640000Y-105950000D01*
X177616000Y-106424000D02*
X178166000Y-106424000D01*
D53*
X165600000Y-118750000D02*
X166250000Y-119400000D01*
D54*
X172664000Y-116424000D02*
X172490000Y-116250000D01*
D53*
X163952000Y-118750000D02*
X165600000Y-118750000D01*
X163402000Y-119300000D02*
X163952000Y-118750000D01*
X162250000Y-119300000D02*
X163402000Y-119300000D01*
D54*
X174536000Y-116024000D02*
X174536000Y-116424000D01*
D55*
X109933000Y-111991494D02*
X109933000Y-112497000D01*
X107213000Y-111991494D02*
X107213000Y-112497000D01*
X125705273Y-111438392D02*
X123378764Y-111438392D01*
X121987000Y-112512000D02*
X121312000Y-112512000D01*
X111293000Y-111991494D02*
X111293000Y-112497000D01*
X122112000Y-112637000D02*
X121987000Y-112512000D01*
X114013000Y-111991494D02*
X114013000Y-112497000D01*
X102624501Y-112512000D02*
X101312000Y-112512000D01*
X108573000Y-111991494D02*
X108573000Y-112497000D01*
X123378764Y-111438392D02*
X122180156Y-112637000D01*
X121312000Y-112512000D02*
X121187000Y-112637000D01*
X121187000Y-112637000D02*
X116593000Y-112637000D01*
X105713000Y-112637000D02*
X102749501Y-112637000D01*
X108293000Y-112497000D02*
X108293000Y-111991494D01*
X115373000Y-111991494D02*
X115373000Y-112497000D01*
X105853000Y-111991494D02*
X105853000Y-112497000D01*
X102749501Y-112637000D02*
X102624501Y-112512000D01*
X113733000Y-112497000D02*
X113733000Y-111991494D01*
X112653000Y-111991494D02*
X112653000Y-112497000D01*
X111013000Y-112497000D02*
X111013000Y-111991494D01*
X116453000Y-112497000D02*
X116453000Y-111991494D01*
X109653000Y-112497000D02*
X109653000Y-111991494D01*
X122180156Y-112637000D02*
X122112000Y-112637000D01*
X115093000Y-112497000D02*
X115093000Y-111991494D01*
X112373000Y-112497000D02*
X112373000Y-111991494D01*
X106933000Y-112497000D02*
X106933000Y-111991494D01*
X111833000Y-111451500D02*
G75*
G03*
X111293000Y-111991494I0J-540000D01*
G01*
X111153000Y-112637000D02*
G75*
G03*
X111293000Y-112497000I0J140000D01*
G01*
X113873000Y-112637000D02*
G75*
G03*
X114013000Y-112497000I0J140000D01*
G01*
X106393000Y-111451500D02*
G75*
G03*
X105853000Y-111991494I0J-540000D01*
G01*
X113733000Y-112497000D02*
G75*
G03*
X113873000Y-112637000I140000J0D01*
G01*
X112373006Y-111991494D02*
G75*
G03*
X111833000Y-111451494I-540006J-6D01*
G01*
X109113000Y-111451500D02*
G75*
G03*
X108573000Y-111991494I0J-540000D01*
G01*
X108293006Y-111991494D02*
G75*
G03*
X107753000Y-111451494I-540006J-6D01*
G01*
X106933006Y-111991494D02*
G75*
G03*
X106393000Y-111451494I-540006J-6D01*
G01*
X114553000Y-111451500D02*
G75*
G03*
X114013000Y-111991494I0J-540000D01*
G01*
X112373000Y-112497000D02*
G75*
G03*
X112513000Y-112637000I140000J0D01*
G01*
X116453000Y-112497000D02*
G75*
G03*
X116593000Y-112637000I140000J0D01*
G01*
X113193000Y-111451500D02*
G75*
G03*
X112653000Y-111991494I0J-540000D01*
G01*
X109793000Y-112637000D02*
G75*
G03*
X109933000Y-112497000I0J140000D01*
G01*
X109653006Y-111991494D02*
G75*
G03*
X109113000Y-111451494I-540006J-6D01*
G01*
X115233000Y-112637000D02*
G75*
G03*
X115373000Y-112497000I0J140000D01*
G01*
X115913000Y-111451500D02*
G75*
G03*
X115373000Y-111991494I0J-540000D01*
G01*
X112513000Y-112637000D02*
G75*
G03*
X112653000Y-112497000I0J140000D01*
G01*
X113733006Y-111991494D02*
G75*
G03*
X113193000Y-111451494I-540006J-6D01*
G01*
X107753000Y-111451500D02*
G75*
G03*
X107213000Y-111991494I0J-540000D01*
G01*
X108433000Y-112637000D02*
G75*
G03*
X108573000Y-112497000I0J140000D01*
G01*
X109653000Y-112497000D02*
G75*
G03*
X109793000Y-112637000I140000J0D01*
G01*
X108293000Y-112497000D02*
G75*
G03*
X108433000Y-112637000I140000J0D01*
G01*
X111013000Y-112497000D02*
G75*
G03*
X111153000Y-112637000I140000J0D01*
G01*
X107073000Y-112637000D02*
G75*
G03*
X107213000Y-112497000I0J140000D01*
G01*
X115093000Y-112497000D02*
G75*
G03*
X115233000Y-112637000I140000J0D01*
G01*
X106933000Y-112497000D02*
G75*
G03*
X107073000Y-112637000I140000J0D01*
G01*
X111013006Y-111991494D02*
G75*
G03*
X110473000Y-111451494I-540006J-6D01*
G01*
X116453006Y-111991494D02*
G75*
G03*
X115913000Y-111451494I-540006J-6D01*
G01*
X105713000Y-112637000D02*
G75*
G03*
X105853000Y-112497000I0J140000D01*
G01*
X115093006Y-111991494D02*
G75*
G03*
X114553000Y-111451494I-540006J-6D01*
G01*
X110473000Y-111451500D02*
G75*
G03*
X109933000Y-111991494I0J-540000D01*
G01*
X114413000Y-111991494D02*
X114413000Y-112497000D01*
X126600000Y-111400000D02*
X126344000Y-111400000D01*
X121312000Y-113162000D02*
X121187000Y-113037000D01*
X106533000Y-112497000D02*
X106533000Y-111991494D01*
X113053000Y-111991494D02*
X113053000Y-112497000D01*
X110613000Y-112497000D02*
X110613000Y-111991494D01*
X121987000Y-113162000D02*
X121312000Y-113162000D01*
X126344000Y-111400000D02*
X125730000Y-112014000D01*
X122345844Y-113037000D02*
X122112000Y-113037000D01*
X123368844Y-112014000D02*
X122345844Y-113037000D01*
X113333000Y-112497000D02*
X113333000Y-111991494D01*
X105713000Y-113037000D02*
X102749501Y-113037000D01*
X125730000Y-112014000D02*
X123368844Y-112014000D01*
X121187000Y-113037000D02*
X116593000Y-113037000D01*
X111693000Y-111991494D02*
X111693000Y-112497000D01*
X107613000Y-111991494D02*
X107613000Y-112497000D01*
X102749501Y-113037000D02*
X102624501Y-113162000D01*
X108973000Y-111991494D02*
X108973000Y-112497000D01*
X111973000Y-112497000D02*
X111973000Y-111991494D01*
X115773000Y-111991494D02*
X115773000Y-112497000D01*
X110333000Y-111991494D02*
X110333000Y-112497000D01*
X109253000Y-112497000D02*
X109253000Y-111991494D01*
X102624501Y-113162000D02*
X101312000Y-113162000D01*
X114693000Y-112497000D02*
X114693000Y-111991494D01*
X106253000Y-111991494D02*
X106253000Y-112497000D01*
X107893000Y-112497000D02*
X107893000Y-111991494D01*
X122112000Y-113037000D02*
X121987000Y-113162000D01*
X116053000Y-112497000D02*
X116053000Y-111991494D01*
X110613006Y-111991494D02*
G75*
G03*
X110473000Y-111851494I-140006J-6D01*
G01*
X113873000Y-113037000D02*
G75*
G03*
X114413000Y-112497000I0J540000D01*
G01*
X111833000Y-111851500D02*
G75*
G03*
X111693000Y-111991494I0J-140000D01*
G01*
X111973006Y-111991494D02*
G75*
G03*
X111833000Y-111851494I-140006J-6D01*
G01*
X107073000Y-113037000D02*
G75*
G03*
X107613000Y-112497000I0J540000D01*
G01*
X115913000Y-111851500D02*
G75*
G03*
X115773000Y-111991494I0J-140000D01*
G01*
X109253006Y-111991494D02*
G75*
G03*
X109113000Y-111851494I-140006J-6D01*
G01*
X115233000Y-113037000D02*
G75*
G03*
X115773000Y-112497000I0J540000D01*
G01*
X107893000Y-112497000D02*
G75*
G03*
X108433000Y-113037000I540000J0D01*
G01*
X111973000Y-112497000D02*
G75*
G03*
X112513000Y-113037000I540000J0D01*
G01*
X110613000Y-112497000D02*
G75*
G03*
X111153000Y-113037000I540000J0D01*
G01*
X109253000Y-112497000D02*
G75*
G03*
X109793000Y-113037000I540000J0D01*
G01*
X110473000Y-111851500D02*
G75*
G03*
X110333000Y-111991494I0J-140000D01*
G01*
X114553000Y-111851500D02*
G75*
G03*
X114413000Y-111991494I0J-140000D01*
G01*
X109113000Y-111851500D02*
G75*
G03*
X108973000Y-111991494I0J-140000D01*
G01*
X113333006Y-111991494D02*
G75*
G03*
X113193000Y-111851494I-140006J-6D01*
G01*
X114693000Y-112497000D02*
G75*
G03*
X115233000Y-113037000I540000J0D01*
G01*
X114693006Y-111991494D02*
G75*
G03*
X114553000Y-111851494I-140006J-6D01*
G01*
X106533000Y-112497000D02*
G75*
G03*
X107073000Y-113037000I540000J0D01*
G01*
X107893006Y-111991494D02*
G75*
G03*
X107753000Y-111851494I-140006J-6D01*
G01*
X113193000Y-111851500D02*
G75*
G03*
X113053000Y-111991494I0J-140000D01*
G01*
X105713000Y-113037000D02*
G75*
G03*
X106253000Y-112497000I0J540000D01*
G01*
X107753000Y-111851500D02*
G75*
G03*
X107613000Y-111991494I0J-140000D01*
G01*
X106533006Y-111991494D02*
G75*
G03*
X106393000Y-111851494I-140006J-6D01*
G01*
X116053000Y-112497000D02*
G75*
G03*
X116593000Y-113037000I540000J0D01*
G01*
X116053006Y-111991494D02*
G75*
G03*
X115913000Y-111851494I-140006J-6D01*
G01*
X108433000Y-113037000D02*
G75*
G03*
X108973000Y-112497000I0J540000D01*
G01*
X109793000Y-113037000D02*
G75*
G03*
X110333000Y-112497000I0J540000D01*
G01*
X112513000Y-113037000D02*
G75*
G03*
X113053000Y-112497000I0J540000D01*
G01*
X113333000Y-112497000D02*
G75*
G03*
X113873000Y-113037000I540000J0D01*
G01*
X106393000Y-111851500D02*
G75*
G03*
X106253000Y-111991494I0J-140000D01*
G01*
X111153000Y-113037000D02*
G75*
G03*
X111693000Y-112497000I0J540000D01*
G01*
X159133355Y-117250511D02*
X157803826Y-117250511D01*
X165082844Y-123200000D02*
X159133355Y-117250511D01*
X170116901Y-123884057D02*
X169432844Y-123200000D01*
X171201572Y-123884057D02*
X170116901Y-123884057D01*
X169432844Y-123200000D02*
X165082844Y-123200000D01*
X157850000Y-117750000D02*
X157800000Y-117800000D01*
X164917156Y-123600000D02*
X162817156Y-121500000D01*
X162817156Y-121500000D02*
X162017156Y-121500000D01*
X158267156Y-117750000D02*
X157850000Y-117750000D01*
X169267156Y-123600000D02*
X164917156Y-123600000D01*
X171201572Y-124554057D02*
X171066572Y-124419057D01*
X170086213Y-124419057D02*
X169267156Y-123600000D01*
X171066572Y-124419057D02*
X170086213Y-124419057D01*
X162017156Y-121500000D02*
X158267156Y-117750000D01*
D54*
X177616000Y-105624000D02*
X178346572Y-105624000D01*
X178480572Y-105490000D02*
X179750000Y-105490000D01*
X178346572Y-105624000D02*
X178480572Y-105490000D01*
X183025041Y-115900000D02*
X181850000Y-115900000D01*
X184350000Y-114575041D02*
X183025041Y-115900000D01*
X181850000Y-115900000D02*
X179550000Y-118200000D01*
X179475665Y-118200000D02*
X179013276Y-118662389D01*
X179550000Y-118200000D02*
X179475665Y-118200000D01*
X174536000Y-104424000D02*
X173624000Y-104424000D01*
X173624000Y-104424000D02*
X173550000Y-104350000D01*
X178776000Y-105224000D02*
X179810000Y-104190000D01*
X177616000Y-105224000D02*
X178776000Y-105224000D01*
X183500000Y-99850000D02*
X183300000Y-100050000D01*
X174536000Y-104024000D02*
X174044000Y-104024000D01*
X173520000Y-103500000D02*
X173520000Y-103400000D01*
X174044000Y-104024000D02*
X173520000Y-103500000D01*
X177616000Y-104824000D02*
X178526000Y-104824000D01*
X178526000Y-104824000D02*
X178600000Y-104750000D01*
X167040000Y-106210000D02*
X162090000Y-106210000D01*
X171360000Y-110530000D02*
X167040000Y-106210000D01*
D56*
X171860000Y-87480000D02*
X173440000Y-87480000D01*
X173440000Y-87480000D02*
X173500000Y-87540000D01*
D54*
X174536000Y-114424000D02*
X175013000Y-114424000D01*
X175659000Y-115070000D02*
X175930000Y-115070000D01*
X175013000Y-114424000D02*
X175659000Y-115070000D01*
D56*
X160528000Y-116300000D02*
X160528000Y-114559298D01*
X144221001Y-100024000D02*
X143696000Y-100024000D01*
X144231001Y-100034000D02*
X144221001Y-100024000D01*
X160528000Y-114559298D02*
X146002702Y-100034000D01*
X146002702Y-100034000D02*
X144231001Y-100034000D01*
X143734501Y-100385499D02*
X145816797Y-100385499D01*
X145816797Y-100385499D02*
X159766000Y-114334702D01*
X159766000Y-114334702D02*
X159766000Y-116300000D01*
X143696000Y-100424000D02*
X143734501Y-100385499D01*
D54*
X174536000Y-117224000D02*
X174536000Y-116824000D01*
X171676000Y-117224000D02*
X171650000Y-117250000D01*
X175226000Y-116824000D02*
X175250000Y-116800000D01*
X174536000Y-116824000D02*
X175226000Y-116824000D01*
X174536000Y-117224000D02*
X171676000Y-117224000D01*
D56*
X159971570Y-101166860D02*
X160028430Y-101166860D01*
X152071298Y-101940000D02*
X154260000Y-101940000D01*
X142190000Y-98278702D02*
X143378702Y-97090000D01*
X156290000Y-101268430D02*
X156290000Y-101560000D01*
X172478701Y-101940000D02*
X173121213Y-101297488D01*
X156030000Y-102353140D02*
X156030000Y-101940000D01*
X154741570Y-101458430D02*
X154741570Y-101268430D01*
X141254702Y-102814000D02*
X142190000Y-101878702D01*
X157570000Y-101560000D02*
X157570000Y-102353140D01*
X161573483Y-101940000D02*
X172478701Y-101940000D01*
X140616000Y-102824000D02*
X140866000Y-102824000D01*
X158590000Y-101940000D02*
X158590000Y-101268430D01*
X143378702Y-97090000D02*
X147221298Y-97090000D01*
X158850000Y-101560000D02*
X158850000Y-102353140D01*
X157570000Y-101268430D02*
X157570000Y-101560000D01*
X156030000Y-101940000D02*
X156030000Y-101268430D01*
X155010000Y-101750000D02*
X155010000Y-102353140D01*
X160611570Y-101940000D02*
X161573483Y-101940000D01*
X156131570Y-101166860D02*
X156188430Y-101166860D01*
X173121213Y-101297488D02*
X173347488Y-101297488D01*
X157411570Y-101166860D02*
X157468430Y-101166860D01*
X160130000Y-101268430D02*
X160130000Y-101458430D01*
X156290000Y-101560000D02*
X156290000Y-102353140D01*
X140876000Y-102814000D02*
X141254702Y-102814000D01*
X147221298Y-97090000D02*
X152071298Y-101940000D01*
X159870000Y-102353140D02*
X159870000Y-101940000D01*
X140866000Y-102824000D02*
X140876000Y-102814000D01*
X158590000Y-102353140D02*
X158590000Y-101940000D01*
X158691570Y-101166860D02*
X158748430Y-101166860D01*
X155001570Y-101750000D02*
X155010000Y-101750000D01*
X158850000Y-101268430D02*
X158850000Y-101560000D01*
X157310000Y-102353140D02*
X157310000Y-101940000D01*
X154843140Y-101166860D02*
X154900000Y-101166860D01*
X142190000Y-101878702D02*
X142190000Y-98278702D01*
X155001570Y-101268430D02*
X155001570Y-101458430D01*
X155001570Y-101458430D02*
X155001570Y-101750000D01*
X157310000Y-101940000D02*
X157310000Y-101268430D01*
X159870000Y-101940000D02*
X159870000Y-101268430D01*
X157569960Y-102353140D02*
G75*
G03*
X158080000Y-102863140I510040J40D01*
G01*
X157411570Y-101166800D02*
G75*
G03*
X157310000Y-101268430I30J-101600D01*
G01*
X155520000Y-102863100D02*
G75*
G03*
X156030000Y-102353140I0J510000D01*
G01*
X159360000Y-102863100D02*
G75*
G03*
X159870000Y-102353140I0J510000D01*
G01*
X156800000Y-102863100D02*
G75*
G03*
X157310000Y-102353140I0J510000D01*
G01*
X160129940Y-101268430D02*
G75*
G03*
X160028430Y-101166860I-101540J30D01*
G01*
X160130000Y-101458430D02*
G75*
G03*
X160611570Y-101940000I481600J30D01*
G01*
X159971570Y-101166800D02*
G75*
G03*
X159870000Y-101268430I30J-101600D01*
G01*
X156289940Y-101268430D02*
G75*
G03*
X156188430Y-101166860I-101540J30D01*
G01*
X157569940Y-101268430D02*
G75*
G03*
X157468430Y-101166860I-101540J30D01*
G01*
X156131570Y-101166800D02*
G75*
G03*
X156030000Y-101268430I30J-101600D01*
G01*
X155009960Y-102353140D02*
G75*
G03*
X155520000Y-102863140I510040J40D01*
G01*
X155001540Y-101268430D02*
G75*
G03*
X154900000Y-101166860I-101540J30D01*
G01*
X158080000Y-102863100D02*
G75*
G03*
X158590000Y-102353140I0J510000D01*
G01*
X158691570Y-101166800D02*
G75*
G03*
X158590000Y-101268430I30J-101600D01*
G01*
X158849960Y-102353140D02*
G75*
G03*
X159360000Y-102863140I510040J40D01*
G01*
X158849940Y-101268430D02*
G75*
G03*
X158748430Y-101166860I-101540J30D01*
G01*
X156289960Y-102353140D02*
G75*
G03*
X156800000Y-102863140I510040J40D01*
G01*
X154843140Y-101166870D02*
G75*
G03*
X154741570Y-101268430I-40J-101530D01*
G01*
X154260000Y-101939970D02*
G75*
G03*
X154741570Y-101458430I0J481570D01*
G01*
X159490000Y-102353140D02*
X159490000Y-101940000D01*
X155390000Y-101750000D02*
X155390000Y-102353140D01*
X172321299Y-101560000D02*
X172852512Y-101028787D01*
X147378702Y-96710000D02*
X152228702Y-101560000D01*
X141810000Y-98121298D02*
X143221298Y-96710000D01*
X140876000Y-102434000D02*
X141097298Y-102434000D01*
X158210000Y-102353140D02*
X158210000Y-101940000D01*
X155381570Y-101458430D02*
X155381570Y-101750000D01*
X141097298Y-102434000D02*
X141810000Y-101721298D01*
X157411570Y-100786860D02*
X157468430Y-100786860D01*
X159490000Y-101940000D02*
X159490000Y-101268430D01*
X156930000Y-101940000D02*
X156930000Y-101268430D01*
X159971570Y-100786860D02*
X160028430Y-100786860D01*
X152228702Y-101560000D02*
X154260000Y-101560000D01*
X140616000Y-102424000D02*
X140866000Y-102424000D01*
X154361570Y-101458430D02*
X154361570Y-101268430D01*
X155650000Y-101940000D02*
X155650000Y-101268430D01*
X141810000Y-101721298D02*
X141810000Y-98121298D01*
X157950000Y-101268430D02*
X157950000Y-101560000D01*
X155381570Y-101750000D02*
X155390000Y-101750000D01*
X160510000Y-101268430D02*
X160510000Y-101458430D01*
X161573483Y-101560000D02*
X172321299Y-101560000D01*
X156131570Y-100786860D02*
X156188430Y-100786860D01*
X156930000Y-102353140D02*
X156930000Y-101940000D01*
X160611570Y-101560000D02*
X161573483Y-101560000D01*
X158210000Y-101940000D02*
X158210000Y-101268430D01*
X159230000Y-101560000D02*
X159230000Y-102353140D01*
X157950000Y-101560000D02*
X157950000Y-102353140D01*
X154843140Y-100786860D02*
X154900000Y-100786860D01*
X156670000Y-101268430D02*
X156670000Y-101560000D01*
X159230000Y-101268430D02*
X159230000Y-101560000D01*
X172852512Y-101028787D02*
X172852512Y-100802512D01*
X143221298Y-96710000D02*
X147378702Y-96710000D01*
X140866000Y-102424000D02*
X140876000Y-102434000D01*
X158691570Y-100786860D02*
X158748430Y-100786860D01*
X155381570Y-101268430D02*
X155381570Y-101458430D01*
X156670000Y-101560000D02*
X156670000Y-102353140D01*
X155650000Y-102353140D02*
X155650000Y-101940000D01*
X160509940Y-101268430D02*
G75*
G03*
X160028430Y-100786860I-481540J30D01*
G01*
X158691570Y-100786800D02*
G75*
G03*
X158210000Y-101268430I30J-481600D01*
G01*
X157949940Y-101268430D02*
G75*
G03*
X157468430Y-100786860I-481540J30D01*
G01*
X156669940Y-101268430D02*
G75*
G03*
X156188430Y-100786860I-481540J30D01*
G01*
X159360000Y-102483100D02*
G75*
G03*
X159490000Y-102353140I0J130000D01*
G01*
X160510000Y-101458430D02*
G75*
G03*
X160611570Y-101560000I101600J30D01*
G01*
X158080000Y-102483100D02*
G75*
G03*
X158210000Y-102353140I0J130000D01*
G01*
X156800000Y-102483100D02*
G75*
G03*
X156930000Y-102353140I0J130000D01*
G01*
X156669960Y-102353140D02*
G75*
G03*
X156800000Y-102483140I130040J40D01*
G01*
X157949960Y-102353140D02*
G75*
G03*
X158080000Y-102483140I130040J40D01*
G01*
X159971570Y-100786800D02*
G75*
G03*
X159490000Y-101268430I30J-481600D01*
G01*
X156131570Y-100786800D02*
G75*
G03*
X155650000Y-101268430I30J-481600D01*
G01*
X155389960Y-102353140D02*
G75*
G03*
X155520000Y-102483140I130040J40D01*
G01*
X154843140Y-100786870D02*
G75*
G03*
X154361570Y-101268430I-40J-481530D01*
G01*
X159229940Y-101268430D02*
G75*
G03*
X158748430Y-100786860I-481540J30D01*
G01*
X157411570Y-100786800D02*
G75*
G03*
X156930000Y-101268430I30J-481600D01*
G01*
X154260000Y-101559970D02*
G75*
G03*
X154361570Y-101458430I0J101570D01*
G01*
X155520000Y-102483100D02*
G75*
G03*
X155650000Y-102353140I0J130000D01*
G01*
X155381540Y-101268430D02*
G75*
G03*
X154900000Y-100786860I-481540J30D01*
G01*
X159229960Y-102353140D02*
G75*
G03*
X159360000Y-102483140I130040J40D01*
G01*
X166840000Y-103540000D02*
X166840000Y-102815833D01*
X166840000Y-103822084D02*
X166840000Y-103540000D01*
X164020000Y-102815833D02*
X164020000Y-103030000D01*
X164827917Y-104294167D02*
X164752083Y-104294167D01*
X141151001Y-104014000D02*
X141141001Y-104024000D01*
X165560000Y-103540000D02*
X165560000Y-102815833D01*
X168120000Y-103540000D02*
X168120000Y-102815833D01*
X164280000Y-103822084D02*
X164280000Y-103540000D01*
X169140000Y-102815833D02*
X169140000Y-103030000D01*
X143778702Y-98390000D02*
X142990000Y-99178702D01*
X168120000Y-104134167D02*
X168120000Y-103540000D01*
X165560000Y-103822084D02*
X165560000Y-103540000D01*
X166580000Y-103160000D02*
X166580000Y-103822084D01*
X151971298Y-103540000D02*
X146821298Y-98390000D01*
X165300000Y-102815833D02*
X165300000Y-103160000D01*
X169140000Y-103030000D02*
X169140000Y-104134167D01*
X172328701Y-103540000D02*
X169910000Y-103540000D01*
X163510000Y-103540000D02*
X162687666Y-103540000D01*
X167860000Y-102815833D02*
X167860000Y-103160000D01*
X141754702Y-104014000D02*
X141151001Y-104014000D01*
X165300000Y-103160000D02*
X165300000Y-103822084D01*
X142990000Y-99178702D02*
X142990000Y-102778702D01*
X164280000Y-103540000D02*
X164280000Y-102815833D01*
X142990000Y-102778702D02*
X141754702Y-104014000D01*
X167860000Y-103160000D02*
X167860000Y-103822084D01*
X172947488Y-103147488D02*
X172721213Y-103147488D01*
X146821298Y-98390000D02*
X143778702Y-98390000D01*
X166107917Y-104294167D02*
X166032083Y-104294167D01*
X172721213Y-103147488D02*
X172328701Y-103540000D01*
X141141001Y-104024000D02*
X140616000Y-104024000D01*
X169400000Y-103030000D02*
X169400000Y-102815833D01*
X166580000Y-102815833D02*
X166580000Y-103160000D01*
X167387917Y-104294167D02*
X167312083Y-104294167D01*
X162687666Y-103540000D02*
X151971298Y-103540000D01*
X164279967Y-102815833D02*
G75*
G03*
X164150000Y-102685833I-129967J33D01*
G01*
X169400000Y-103030000D02*
G75*
G03*
X169910000Y-103540000I510000J0D01*
G01*
X166710000Y-102685800D02*
G75*
G03*
X166580000Y-102815833I0J-130000D01*
G01*
X167387917Y-104294200D02*
G75*
G03*
X167860000Y-103822084I-17J472100D01*
G01*
X165560033Y-103822084D02*
G75*
G03*
X166032083Y-104294167I472067J-16D01*
G01*
X165430000Y-102685800D02*
G75*
G03*
X165300000Y-102815833I0J-130000D01*
G01*
X169399967Y-102815833D02*
G75*
G03*
X169270000Y-102685833I-129967J33D01*
G01*
X163510000Y-103540000D02*
G75*
G03*
X164020000Y-103030000I0J510000D01*
G01*
X168119967Y-102815833D02*
G75*
G03*
X167990000Y-102685833I-129967J33D01*
G01*
X166839967Y-102815833D02*
G75*
G03*
X166710000Y-102685833I-129967J33D01*
G01*
X169270000Y-102685800D02*
G75*
G03*
X169140000Y-102815833I0J-130000D01*
G01*
X164150000Y-102685800D02*
G75*
G03*
X164020000Y-102815833I0J-130000D01*
G01*
X164280033Y-103822084D02*
G75*
G03*
X164752083Y-104294167I472067J-16D01*
G01*
X166107917Y-104294200D02*
G75*
G03*
X166580000Y-103822084I-17J472100D01*
G01*
X164827917Y-104294200D02*
G75*
G03*
X165300000Y-103822084I-17J472100D01*
G01*
X168630000Y-104644200D02*
G75*
G03*
X169140000Y-104134167I0J510000D01*
G01*
X167990000Y-102685800D02*
G75*
G03*
X167860000Y-102815833I0J-130000D01*
G01*
X168120033Y-104134167D02*
G75*
G03*
X168630000Y-104644167I509967J-33D01*
G01*
X166840033Y-103822084D02*
G75*
G03*
X167312083Y-104294167I472067J-16D01*
G01*
X165559967Y-102815833D02*
G75*
G03*
X165430000Y-102685833I-129967J33D01*
G01*
X143621298Y-98010000D02*
X142610000Y-99021298D01*
X141597298Y-103634000D02*
X141151001Y-103634000D01*
X141141001Y-103624000D02*
X140616000Y-103624000D01*
X168760000Y-103030000D02*
X168760000Y-104134167D01*
X167220000Y-103540000D02*
X167220000Y-102815833D01*
X168500000Y-104134167D02*
X168500000Y-103540000D01*
X169780000Y-103030000D02*
X169780000Y-102815833D01*
X163640000Y-102815833D02*
X163640000Y-103030000D01*
X164920000Y-102815833D02*
X164920000Y-103160000D01*
X167387917Y-103914167D02*
X167312083Y-103914167D01*
X164660000Y-103822084D02*
X164660000Y-103540000D01*
X165940000Y-103822084D02*
X165940000Y-103540000D01*
X142610000Y-102621298D02*
X141597298Y-103634000D01*
X164660000Y-103540000D02*
X164660000Y-102815833D01*
X172452512Y-102878787D02*
X172171299Y-103160000D01*
X167220000Y-103822084D02*
X167220000Y-103540000D01*
X168760000Y-102815833D02*
X168760000Y-103030000D01*
X141151001Y-103634000D02*
X141141001Y-103624000D01*
X172452512Y-102652512D02*
X172452512Y-102878787D01*
X142610000Y-99021298D02*
X142610000Y-102621298D01*
X164827917Y-103914167D02*
X164752083Y-103914167D01*
X166200000Y-103160000D02*
X166200000Y-103822084D01*
X172171299Y-103160000D02*
X169910000Y-103160000D01*
X168500000Y-103540000D02*
X168500000Y-102815833D01*
X167480000Y-102815833D02*
X167480000Y-103160000D01*
X146978702Y-98010000D02*
X143621298Y-98010000D01*
X152128702Y-103160000D02*
X146978702Y-98010000D01*
X163510000Y-103160000D02*
X162687666Y-103160000D01*
X166200000Y-102815833D02*
X166200000Y-103160000D01*
X166107917Y-103914167D02*
X166032083Y-103914167D01*
X167480000Y-103160000D02*
X167480000Y-103822084D01*
X164920000Y-103160000D02*
X164920000Y-103822084D01*
X162687666Y-103160000D02*
X152128702Y-103160000D01*
X165940000Y-103540000D02*
X165940000Y-102815833D01*
X167220033Y-103822084D02*
G75*
G03*
X167312083Y-103914167I92067J-16D01*
G01*
X166107917Y-103914200D02*
G75*
G03*
X166200000Y-103822084I-17J92100D01*
G01*
X167990000Y-102305800D02*
G75*
G03*
X167480000Y-102815833I0J-510000D01*
G01*
X169270000Y-102305800D02*
G75*
G03*
X168760000Y-102815833I0J-510000D01*
G01*
X164660033Y-103822084D02*
G75*
G03*
X164752083Y-103914167I92067J-16D01*
G01*
X163510000Y-103160000D02*
G75*
G03*
X163640000Y-103030000I0J130000D01*
G01*
X168500033Y-104134167D02*
G75*
G03*
X168630000Y-104264167I129967J-33D01*
G01*
X165939967Y-102815833D02*
G75*
G03*
X165430000Y-102305833I-509967J33D01*
G01*
X164150000Y-102305800D02*
G75*
G03*
X163640000Y-102815833I0J-510000D01*
G01*
X169779967Y-102815833D02*
G75*
G03*
X169270000Y-102305833I-509967J33D01*
G01*
X169780000Y-103030000D02*
G75*
G03*
X169910000Y-103160000I130000J0D01*
G01*
X165430000Y-102305800D02*
G75*
G03*
X164920000Y-102815833I0J-510000D01*
G01*
X167219967Y-102815833D02*
G75*
G03*
X166710000Y-102305833I-509967J33D01*
G01*
X168499967Y-102815833D02*
G75*
G03*
X167990000Y-102305833I-509967J33D01*
G01*
X167387917Y-103914200D02*
G75*
G03*
X167480000Y-103822084I-17J92100D01*
G01*
X166710000Y-102305800D02*
G75*
G03*
X166200000Y-102815833I0J-510000D01*
G01*
X164827917Y-103914200D02*
G75*
G03*
X164920000Y-103822084I-17J92100D01*
G01*
X165940033Y-103822084D02*
G75*
G03*
X166032083Y-103914167I92067J-16D01*
G01*
X168630000Y-104264200D02*
G75*
G03*
X168760000Y-104134167I0J130000D01*
G01*
X164659967Y-102815833D02*
G75*
G03*
X164150000Y-102305833I-509967J33D01*
G01*
D54*
X145350000Y-101200000D02*
X145400000Y-101200000D01*
X167550000Y-104650000D02*
X168750000Y-105850000D01*
X143696000Y-101224000D02*
X144426000Y-101224000D01*
X152148000Y-104650000D02*
X167550000Y-104650000D01*
X145400000Y-101200000D02*
X145700000Y-101500000D01*
X145300000Y-101150000D02*
X145350000Y-101200000D01*
X144426000Y-101224000D02*
X144500000Y-101150000D01*
X145150000Y-101150000D02*
X145300000Y-101150000D01*
X148336000Y-100838000D02*
X152148000Y-104650000D01*
X145700000Y-101500000D02*
X145950000Y-101500000D01*
X144500000Y-101150000D02*
X145150000Y-101150000D01*
D56*
X153228702Y-100110000D02*
X148328702Y-95210000D01*
X165350000Y-99950000D02*
X165350000Y-99460000D01*
X139691498Y-101275908D02*
X140019581Y-101603991D01*
X140019581Y-101603991D02*
X140595991Y-101603991D01*
X162870000Y-99460000D02*
X162870000Y-100110000D01*
X148328702Y-95210000D02*
X142621298Y-95210000D01*
X164160000Y-100900000D02*
X164060000Y-100900000D01*
X163950000Y-100790000D02*
X163950000Y-100490000D01*
X171528701Y-100110000D02*
X165510000Y-100110000D01*
X156654773Y-100110000D02*
X153228702Y-100110000D01*
X164270000Y-99460000D02*
X164270000Y-99950000D01*
X139410000Y-99978702D02*
X139691498Y-100260200D01*
X162870000Y-100110000D02*
X162870000Y-100790000D01*
X171821213Y-100402512D02*
X171528701Y-100110000D01*
X140595991Y-101603991D02*
X140616000Y-101624000D01*
X172047488Y-100402512D02*
X171821213Y-100402512D01*
X162550000Y-100790000D02*
X162550000Y-100600000D01*
X139410000Y-98421298D02*
X139410000Y-99978702D01*
X162760000Y-100900000D02*
X162660000Y-100900000D01*
X142621298Y-95210000D02*
X139410000Y-98421298D01*
X139691498Y-100260200D02*
X139691498Y-101275908D01*
X164270000Y-99950000D02*
X164270000Y-100790000D01*
X163950000Y-100490000D02*
X163950000Y-99460000D01*
X162060000Y-100110000D02*
X156654773Y-100110000D01*
X163410000Y-98920000D02*
G75*
G03*
X162870000Y-99460000I0J-540000D01*
G01*
X162550000Y-100600000D02*
G75*
G03*
X162060000Y-100110000I-490000J0D01*
G01*
X162760000Y-100900000D02*
G75*
G03*
X162870000Y-100790000I0J110000D01*
G01*
X163950000Y-99460000D02*
G75*
G03*
X163410000Y-98920000I-540000J0D01*
G01*
X165350000Y-99950000D02*
G75*
G03*
X165510000Y-100110000I160000J0D01*
G01*
X162550000Y-100790000D02*
G75*
G03*
X162660000Y-100900000I110000J0D01*
G01*
X164160000Y-100900000D02*
G75*
G03*
X164270000Y-100790000I0J110000D01*
G01*
X164810000Y-98920000D02*
G75*
G03*
X164270000Y-99460000I0J-540000D01*
G01*
X163950000Y-100790000D02*
G75*
G03*
X164060000Y-100900000I110000J0D01*
G01*
X165350000Y-99460000D02*
G75*
G03*
X164810000Y-98920000I-540000J0D01*
G01*
X156654773Y-100490000D02*
X153071298Y-100490000D01*
X142778702Y-95590000D02*
X139790000Y-98578702D01*
X162060000Y-100490000D02*
X156654773Y-100490000D01*
X164650000Y-99460000D02*
X164650000Y-99950000D01*
X153071298Y-100490000D02*
X148171298Y-95590000D01*
X163250000Y-99460000D02*
X163250000Y-100110000D01*
X162760000Y-101280000D02*
X162660000Y-101280000D01*
X164970000Y-99950000D02*
X164970000Y-99460000D01*
X140071489Y-101118511D02*
X140616000Y-101118511D01*
X139790000Y-99821298D02*
X140071489Y-100102787D01*
X164650000Y-99950000D02*
X164650000Y-100790000D01*
X139790000Y-98578702D02*
X139790000Y-99821298D01*
X140616000Y-101118511D02*
X140616000Y-101224000D01*
X140071489Y-100102787D02*
X140071489Y-101118511D01*
X171552512Y-100897488D02*
X171552512Y-100671213D01*
X164160000Y-101280000D02*
X164060000Y-101280000D01*
X162170000Y-100790000D02*
X162170000Y-100600000D01*
X171552512Y-100671213D02*
X171371299Y-100490000D01*
X163570000Y-100490000D02*
X163570000Y-99460000D01*
X163570000Y-100790000D02*
X163570000Y-100490000D01*
X163250000Y-100110000D02*
X163250000Y-100790000D01*
X148171298Y-95590000D02*
X142778702Y-95590000D01*
X171371299Y-100490000D02*
X165510000Y-100490000D01*
X164970000Y-99950000D02*
G75*
G03*
X165510000Y-100490000I540000J0D01*
G01*
X164160000Y-101280000D02*
G75*
G03*
X164650000Y-100790000I0J490000D01*
G01*
X163570000Y-100790000D02*
G75*
G03*
X164060000Y-101280000I490000J0D01*
G01*
X164810000Y-99300000D02*
G75*
G03*
X164650000Y-99460000I0J-160000D01*
G01*
X163410000Y-99300000D02*
G75*
G03*
X163250000Y-99460000I0J-160000D01*
G01*
X163570000Y-99460000D02*
G75*
G03*
X163410000Y-99300000I-160000J0D01*
G01*
X162170000Y-100600000D02*
G75*
G03*
X162060000Y-100490000I-110000J0D01*
G01*
X162170000Y-100790000D02*
G75*
G03*
X162660000Y-101280000I490000J0D01*
G01*
X162760000Y-101280000D02*
G75*
G03*
X163250000Y-100790000I0J490000D01*
G01*
X164970000Y-99460000D02*
G75*
G03*
X164810000Y-99300000I-160000J0D01*
G01*
D53*
X186088827Y-129050000D02*
X185741591Y-128702764D01*
X186850000Y-129050000D02*
X186088827Y-129050000D01*
X179150000Y-121450000D02*
X179150000Y-122650000D01*
X178900000Y-122700000D02*
X179100000Y-122700000D01*
X179100000Y-122700000D02*
X179150000Y-122650000D01*
X179369297Y-123169297D02*
X178900000Y-122700000D01*
X181612368Y-123169297D02*
X179369297Y-123169297D01*
X184415000Y-128125000D02*
X184540000Y-128000000D01*
X184540000Y-128000000D02*
X186900000Y-128000000D01*
X135636000Y-120904000D02*
X150368000Y-120904000D01*
X101312000Y-113812000D02*
X128544000Y-113812000D01*
X155448000Y-115824000D02*
X157734000Y-115824000D01*
X150368000Y-120904000D02*
X155448000Y-115824000D01*
X128544000Y-113812000D02*
X135636000Y-120904000D01*
D54*
X161290000Y-114554000D02*
X146360000Y-99624000D01*
X161290000Y-115316000D02*
X161290000Y-114554000D01*
X146360000Y-99624000D02*
X143696000Y-99624000D01*
X143696000Y-109624000D02*
X144376000Y-109624000D01*
D56*
X107825000Y-90775000D02*
X109275000Y-90775000D01*
D54*
X144376000Y-109624000D02*
X144400000Y-109600000D01*
D56*
X105510000Y-89820000D02*
X106870000Y-89820000D01*
X106870000Y-89820000D02*
X107825000Y-90775000D01*
X116771796Y-88975898D02*
X116771796Y-88864102D01*
X117490000Y-90070000D02*
X118098204Y-90070000D01*
X107245001Y-84130000D02*
X106935001Y-83820000D01*
X137002702Y-113234000D02*
X117490000Y-93721298D01*
X118098204Y-87770000D02*
X117620000Y-87770000D01*
X117085898Y-90330000D02*
X116895898Y-90330000D01*
X140616000Y-113224000D02*
X140090999Y-113224000D01*
X117490000Y-93721298D02*
X117490000Y-90734102D01*
X108533702Y-84835000D02*
X107828702Y-84130000D01*
X107828702Y-84130000D02*
X107245001Y-84130000D01*
X116895898Y-90070000D02*
X117490000Y-90070000D01*
X116871796Y-90305898D02*
X116871796Y-90094102D01*
X117110000Y-89050000D02*
X116845898Y-89050000D01*
X106935001Y-83820000D02*
X105510000Y-83820000D01*
X111128702Y-85310000D02*
X110653702Y-84835000D01*
X115478702Y-85310000D02*
X111128702Y-85310000D01*
X117490000Y-87640000D02*
X117490000Y-87321298D01*
X110653702Y-84835000D02*
X108533702Y-84835000D01*
X117620000Y-88790000D02*
X118098204Y-88790000D01*
X118098204Y-89050000D02*
X117110000Y-89050000D01*
X116845898Y-88790000D02*
X117620000Y-88790000D01*
X140080999Y-113234000D02*
X137002702Y-113234000D01*
X117490000Y-87321298D02*
X115478702Y-85310000D01*
X140090999Y-113224000D02*
X140080999Y-113234000D01*
X116871800Y-90305898D02*
G75*
G03*
X116895898Y-90330000I24100J-2D01*
G01*
X117490000Y-90734102D02*
G75*
G03*
X117085898Y-90330000I-404100J2D01*
G01*
X117490000Y-87640000D02*
G75*
G03*
X117620000Y-87770000I130000J0D01*
G01*
X118608200Y-88280000D02*
G75*
G03*
X118098204Y-87770000I-510000J0D01*
G01*
X118098204Y-88790004D02*
G75*
G03*
X118608204Y-88280000I-4J510004D01*
G01*
X118608200Y-89560000D02*
G75*
G03*
X118098204Y-89050000I-510000J0D01*
G01*
X116895898Y-90069996D02*
G75*
G03*
X116871796Y-90094102I2J-24104D01*
G01*
X118098204Y-90070004D02*
G75*
G03*
X118608204Y-89560000I-4J510004D01*
G01*
X116845898Y-88789996D02*
G75*
G03*
X116771796Y-88864102I2J-74104D01*
G01*
X116771800Y-88975898D02*
G75*
G03*
X116845898Y-89050000I74100J-2D01*
G01*
X117110000Y-87478702D02*
X115321298Y-85690000D01*
X140090999Y-113624000D02*
X140080999Y-113614000D01*
X110496298Y-85215000D02*
X108376298Y-85215000D01*
X110971298Y-85690000D02*
X110496298Y-85215000D01*
X107671298Y-84510000D02*
X107245001Y-84510000D01*
X118098204Y-88150000D02*
X117620000Y-88150000D01*
X117085898Y-90710000D02*
X116895898Y-90710000D01*
X107245001Y-84510000D02*
X106935001Y-84820000D01*
X116895898Y-89690000D02*
X117490000Y-89690000D01*
X117620000Y-88410000D02*
X118098204Y-88410000D01*
X115321298Y-85690000D02*
X110971298Y-85690000D01*
X118098204Y-89430000D02*
X117110000Y-89430000D01*
X117110000Y-87640000D02*
X117110000Y-87478702D01*
X117110000Y-93878702D02*
X117110000Y-90734102D01*
X116391796Y-88975898D02*
X116391796Y-88864102D01*
X116491796Y-90305898D02*
X116491796Y-90094102D01*
X140080999Y-113614000D02*
X136845298Y-113614000D01*
X117110000Y-89430000D02*
X116845898Y-89430000D01*
X140616000Y-113624000D02*
X140090999Y-113624000D01*
X117490000Y-89690000D02*
X118098204Y-89690000D01*
X106935001Y-84820000D02*
X105510000Y-84820000D01*
X108376298Y-85215000D02*
X107671298Y-84510000D01*
X136845298Y-113614000D02*
X117110000Y-93878702D01*
X116845898Y-88410000D02*
X117620000Y-88410000D01*
X116895898Y-89689996D02*
G75*
G03*
X116491796Y-90094102I2J-404104D01*
G01*
X118228200Y-89560000D02*
G75*
G03*
X118098204Y-89430000I-130000J0D01*
G01*
X116845898Y-88409996D02*
G75*
G03*
X116391796Y-88864102I2J-454104D01*
G01*
X116391800Y-88975898D02*
G75*
G03*
X116845898Y-89430000I454100J-2D01*
G01*
X116491800Y-90305898D02*
G75*
G03*
X116895898Y-90710000I404100J-2D01*
G01*
X118098204Y-89690004D02*
G75*
G03*
X118228204Y-89560000I-4J130004D01*
G01*
X118228200Y-88280000D02*
G75*
G03*
X118098204Y-88150000I-130000J0D01*
G01*
X118098204Y-88410004D02*
G75*
G03*
X118228204Y-88280000I-4J130004D01*
G01*
X117110000Y-87640000D02*
G75*
G03*
X117620000Y-88150000I510000J0D01*
G01*
X117110000Y-90734102D02*
G75*
G03*
X117085898Y-90710000I-24100J2D01*
G01*
X115950000Y-92936399D02*
X115950000Y-92896299D01*
X115445098Y-92936399D02*
X115635100Y-92936399D01*
X115445098Y-91476299D02*
X115635100Y-91476299D01*
X108453702Y-86335000D02*
X107748702Y-85630000D01*
X115305906Y-87525540D02*
X115305906Y-87525541D01*
X113559350Y-87461900D02*
X113559350Y-87461899D01*
X115305907Y-86804290D02*
X115305906Y-86804289D01*
X140616000Y-114424000D02*
X140090999Y-114424000D01*
X115635100Y-92936399D02*
X115950000Y-92936399D01*
X114584653Y-86804288D02*
X113531065Y-87857879D01*
X113559350Y-86740649D02*
X113153702Y-86335000D01*
X116140000Y-89321298D02*
X114916999Y-88098296D01*
X107245001Y-85630000D02*
X106935001Y-85320000D01*
X115320199Y-91681398D02*
X115320199Y-91601198D01*
X113347218Y-87674031D02*
X113559350Y-87461900D01*
X113153702Y-86335000D02*
X108453702Y-86335000D01*
X115950000Y-92896299D02*
X116279902Y-92896299D01*
X107748702Y-85630000D02*
X107245001Y-85630000D01*
X116140000Y-89899831D02*
X116140000Y-89321298D01*
X113531065Y-87857879D02*
X113531065Y-87857878D01*
X140090999Y-114424000D02*
X140080999Y-114434000D01*
X114916998Y-87914449D02*
X115305906Y-87525540D01*
X116609803Y-92566398D02*
X116609803Y-92136198D01*
X116279902Y-91806297D02*
X116140001Y-91806297D01*
X136802702Y-114434000D02*
X116140001Y-93771298D01*
X115635100Y-93266397D02*
X115445098Y-93266397D01*
X116140001Y-91806297D02*
X115445098Y-91806297D01*
X115320199Y-93141498D02*
X115320199Y-93061298D01*
X106935001Y-85320000D02*
X105510000Y-85320000D01*
X116140001Y-90971398D02*
X116140000Y-89899831D01*
X140080999Y-114434000D02*
X136802702Y-114434000D01*
X113559375Y-87461924D02*
G75*
G03*
X113559349Y-86740650I-360675J360624D01*
G01*
X113347177Y-87857920D02*
G75*
G03*
X113531065Y-87857878I91923J91920D01*
G01*
X115305927Y-86804268D02*
G75*
G03*
X114584653Y-86804288I-360627J-360632D01*
G01*
X113347263Y-87674076D02*
G75*
G03*
X113347218Y-87857879I91837J-91924D01*
G01*
X116609803Y-92136198D02*
G75*
G03*
X116279902Y-91806297I-329903J-2D01*
G01*
X114917026Y-87914477D02*
G75*
G03*
X114916999Y-88098296I91874J-91923D01*
G01*
X115445098Y-92936399D02*
G75*
G03*
X115320199Y-93061298I2J-124901D01*
G01*
X116140003Y-93771298D02*
G75*
G03*
X115635100Y-93266397I-504903J-2D01*
G01*
X115445098Y-91476299D02*
G75*
G03*
X115320199Y-91601198I2J-124901D01*
G01*
X115320203Y-93141498D02*
G75*
G03*
X115445098Y-93266397I124897J-2D01*
G01*
X115320203Y-91681398D02*
G75*
G03*
X115445098Y-91806297I124897J-2D01*
G01*
X115635100Y-91476301D02*
G75*
G03*
X116140001Y-90971398I0J504901D01*
G01*
X115305891Y-87525526D02*
G75*
G03*
X115305907Y-86804290I-360591J360626D01*
G01*
X116279902Y-92896303D02*
G75*
G03*
X116609803Y-92566398I-2J329903D01*
G01*
X113078517Y-87405329D02*
X113290649Y-87193198D01*
X115950000Y-92086097D02*
X115950000Y-92186299D01*
X136645298Y-114814000D02*
X115760000Y-93928702D01*
X106935001Y-86320000D02*
X105510000Y-86320000D01*
X140090999Y-114824000D02*
X140080999Y-114814000D01*
X107245001Y-86010000D02*
X106935001Y-86320000D01*
X116279902Y-92086097D02*
X115950000Y-92086097D01*
X114238173Y-87688173D02*
X113799768Y-88126580D01*
X116279902Y-92516297D02*
X116279902Y-92086097D01*
X140080999Y-114814000D02*
X136645298Y-114814000D01*
X113290649Y-87009350D02*
X112996298Y-86715000D01*
X115759999Y-90971398D02*
X115760000Y-89899831D01*
X115037204Y-87256838D02*
X115037204Y-87256839D01*
X107591298Y-86010000D02*
X107245001Y-86010000D01*
X115635100Y-92556397D02*
X115950000Y-92556397D01*
X115760000Y-89899831D02*
X115760000Y-89478702D01*
X115635100Y-93646399D02*
X115445098Y-93646399D01*
X115037205Y-87072992D02*
X115037204Y-87072991D01*
X112996298Y-86715000D02*
X108296298Y-86715000D01*
X115445098Y-92556397D02*
X115635100Y-92556397D01*
X114940197Y-91681398D02*
X114940197Y-91601198D01*
X115445098Y-91096297D02*
X115635100Y-91096297D01*
X115760000Y-93928702D02*
X115759999Y-93771298D01*
X114648296Y-87645747D02*
X115037204Y-87256838D01*
X114940197Y-93141498D02*
X114940197Y-93061298D01*
X140616000Y-114824000D02*
X140090999Y-114824000D01*
X115950000Y-92186299D02*
X115445098Y-92186299D01*
X114853357Y-87072992D02*
X114330098Y-87596251D01*
X115950000Y-92516297D02*
X116279902Y-92516297D01*
X108296298Y-86715000D02*
X107591298Y-86010000D01*
X114330098Y-87596251D02*
X114238173Y-87688173D01*
X115950000Y-92556397D02*
X115950000Y-92516297D01*
X115760000Y-89478702D02*
X114648297Y-88366998D01*
X115760001Y-93771298D02*
G75*
G03*
X115635100Y-93646399I-124901J-2D01*
G01*
X113078563Y-87405375D02*
G75*
G03*
X113078518Y-88126580I360537J-360625D01*
G01*
X115037189Y-87256824D02*
G75*
G03*
X115037205Y-87072992I-91889J91924D01*
G01*
X113290675Y-87193224D02*
G75*
G03*
X113290649Y-87009350I-91975J91924D01*
G01*
X115635100Y-91096299D02*
G75*
G03*
X115759999Y-90971398I0J124899D01*
G01*
X114940201Y-93141498D02*
G75*
G03*
X115445098Y-93646399I504899J-2D01*
G01*
X114940201Y-91681398D02*
G75*
G03*
X115445098Y-92186299I504899J-2D01*
G01*
X115037223Y-87072972D02*
G75*
G03*
X114853357Y-87072992I-91923J-91928D01*
G01*
X115445098Y-92556397D02*
G75*
G03*
X114940197Y-93061298I2J-504903D01*
G01*
X115445098Y-91096297D02*
G75*
G03*
X114940197Y-91601198I2J-504903D01*
G01*
X113078475Y-88126623D02*
G75*
G03*
X113799768Y-88126580I360625J360623D01*
G01*
X114648324Y-87645775D02*
G75*
G03*
X114648297Y-88366998I360576J-360625D01*
G01*
X114501582Y-89374769D02*
X114501580Y-89374768D01*
X140616000Y-115624000D02*
X140090999Y-115624000D01*
X109046751Y-87835000D02*
X108603702Y-87835000D01*
X113785000Y-90975000D02*
X113975000Y-90975000D01*
X115000024Y-94763676D02*
X114699999Y-94463650D01*
X110520000Y-87510000D02*
X110520000Y-88350000D01*
X110000000Y-88540000D02*
X110000000Y-88350000D01*
X140090999Y-115624000D02*
X140080999Y-115634000D01*
X110385000Y-88675000D02*
X110135000Y-88675000D01*
X115598026Y-94629325D02*
X115598027Y-94629325D01*
X111285000Y-86995000D02*
X111035000Y-86995000D01*
X112353702Y-87835000D02*
X111935000Y-87835000D01*
X108603702Y-87835000D02*
X107898702Y-87130000D01*
X114834350Y-93865649D02*
X114440000Y-93471298D01*
X115989973Y-95753625D02*
X115689948Y-95453599D01*
X115824299Y-94855598D02*
X115598026Y-94629325D01*
X115689948Y-95453599D02*
X115824299Y-95319248D01*
X109485000Y-87835000D02*
X109046751Y-87835000D01*
X111800000Y-87700000D02*
X111800000Y-87510000D01*
X114440000Y-89921298D02*
X114289449Y-89770747D01*
X115134375Y-94629325D02*
X115000024Y-94763676D01*
X106935001Y-86820000D02*
X105510000Y-86820000D01*
X114440000Y-90510000D02*
X114440000Y-89921298D01*
X116124324Y-95619274D02*
X115989973Y-95753625D01*
X113975000Y-91235000D02*
X113785000Y-91235000D01*
X113780329Y-88653517D02*
X113568199Y-88865650D01*
X113384349Y-88865648D02*
X112353702Y-87835000D01*
X107245001Y-87130000D02*
X106935001Y-86820000D01*
X110520000Y-88350000D02*
X110520000Y-88540000D01*
X113700000Y-91150000D02*
X113700000Y-91060000D01*
X136602702Y-115634000D02*
X116587976Y-95619274D01*
X114289449Y-89586899D02*
X114501582Y-89374769D01*
X140080999Y-115634000D02*
X136602702Y-115634000D01*
X114440000Y-93471298D02*
X114440000Y-91700000D01*
X114699999Y-94463650D02*
X114834350Y-94329299D01*
X107898702Y-87130000D02*
X107245001Y-87130000D01*
X113384375Y-88865622D02*
G75*
G03*
X113568198Y-88865649I91925J91922D01*
G01*
X114501580Y-88653518D02*
G75*
G03*
X113780330Y-88653518I-360625J-360626D01*
G01*
X110000000Y-88540000D02*
G75*
G03*
X110135000Y-88675000I135000J0D01*
G01*
X113785000Y-90975000D02*
G75*
G03*
X113700000Y-91060000I0J-85000D01*
G01*
X114501537Y-89374725D02*
G75*
G03*
X114501580Y-88653518I-360537J360625D01*
G01*
X115824276Y-95319225D02*
G75*
G03*
X115824299Y-94855598I-231776J231825D01*
G01*
X114289426Y-89586876D02*
G75*
G03*
X114289449Y-89770747I91974J-91924D01*
G01*
X110000000Y-88350000D02*
G75*
G03*
X109485000Y-87835000I-515000J0D01*
G01*
X115598026Y-94629326D02*
G75*
G03*
X115134376Y-94629326I-231825J-231827D01*
G01*
X116587975Y-95619275D02*
G75*
G03*
X116124325Y-95619275I-231825J-231827D01*
G01*
X114834376Y-94329325D02*
G75*
G03*
X114834350Y-93865649I-231876J231825D01*
G01*
X113700000Y-91150000D02*
G75*
G03*
X113785000Y-91235000I85000J0D01*
G01*
X114440000Y-91700000D02*
G75*
G03*
X113975000Y-91235000I-465000J0D01*
G01*
X111035000Y-86995000D02*
G75*
G03*
X110520000Y-87510000I0J-515000D01*
G01*
X111800000Y-87510000D02*
G75*
G03*
X111285000Y-86995000I-515000J0D01*
G01*
X110385000Y-88675000D02*
G75*
G03*
X110520000Y-88540000I0J135000D01*
G01*
X111800000Y-87700000D02*
G75*
G03*
X111935000Y-87835000I135000J0D01*
G01*
X113975000Y-90975000D02*
G75*
G03*
X114440000Y-90510000I0J465000D01*
G01*
X115555598Y-95124299D02*
X115329324Y-94898027D01*
X111420000Y-87700000D02*
X111420000Y-87510000D01*
X114431298Y-94268701D02*
X114565649Y-94134350D01*
X109620000Y-88540000D02*
X109620000Y-88350000D01*
X110385000Y-89055000D02*
X110135000Y-89055000D01*
X113320000Y-91150000D02*
X113320000Y-91060000D01*
X116319273Y-95887976D02*
X116184924Y-96022327D01*
X114431298Y-94732353D02*
X114431297Y-94732352D01*
X140090999Y-116024000D02*
X140080999Y-116014000D01*
X109485000Y-88215000D02*
X109046751Y-88215000D01*
X110900000Y-88350000D02*
X110900000Y-88540000D01*
X108446298Y-88215000D02*
X107741298Y-87510000D01*
X140616000Y-116024000D02*
X140090999Y-116024000D01*
X107245001Y-87510000D02*
X106935001Y-87820000D01*
X114060000Y-90078702D02*
X114020748Y-90039449D01*
X113975000Y-91615000D02*
X113785000Y-91615000D01*
X115329324Y-94898027D02*
X115194975Y-95032378D01*
X114049032Y-88922219D02*
X113836900Y-89134350D01*
X113836900Y-89134350D02*
X113836900Y-89134351D01*
X114232879Y-89106065D02*
X114232879Y-89106066D01*
X114060000Y-90510000D02*
X114060000Y-90078702D01*
X113115648Y-89134349D02*
X112196298Y-88215000D01*
X136445298Y-116014000D02*
X116319273Y-95887976D01*
X114565649Y-94134350D02*
X114060000Y-93628702D01*
X113785000Y-90595000D02*
X113975000Y-90595000D01*
X110900000Y-87510000D02*
X110900000Y-88350000D01*
X114731323Y-95032378D02*
X114431298Y-94732353D01*
X109046751Y-88215000D02*
X108446298Y-88215000D01*
X106935001Y-87820000D02*
X105510000Y-87820000D01*
X140080999Y-116014000D02*
X136445298Y-116014000D01*
X115721272Y-96022327D02*
X115421247Y-95722302D01*
X107741298Y-87510000D02*
X107245001Y-87510000D01*
X115421247Y-95258650D02*
X115555598Y-95124299D01*
X114060000Y-93628702D02*
X114060000Y-91700000D01*
X112196298Y-88215000D02*
X111935000Y-88215000D01*
X114020748Y-89318197D02*
X114232879Y-89106065D01*
X115421247Y-95722302D02*
X115421246Y-95722301D01*
X111285000Y-87375000D02*
X111035000Y-87375000D01*
X113785000Y-90595000D02*
G75*
G03*
X113320000Y-91060000I0J-465000D01*
G01*
X109620000Y-88540000D02*
G75*
G03*
X110135000Y-89055000I515000J0D01*
G01*
X114431271Y-94268674D02*
G75*
G03*
X114431297Y-94732352I231829J-231826D01*
G01*
X109620000Y-88350000D02*
G75*
G03*
X109485000Y-88215000I-135000J0D01*
G01*
X113320000Y-91150000D02*
G75*
G03*
X113785000Y-91615000I465000J0D01*
G01*
X113115673Y-89134324D02*
G75*
G03*
X113836900Y-89134351I360627J360624D01*
G01*
X114020726Y-89318175D02*
G75*
G03*
X114020749Y-90039448I360674J-360625D01*
G01*
X114232879Y-88922220D02*
G75*
G03*
X114049033Y-88922220I-91923J-91924D01*
G01*
X115721273Y-96022326D02*
G75*
G03*
X116184923Y-96022326I231825J231827D01*
G01*
X114060000Y-91700000D02*
G75*
G03*
X113975000Y-91615000I-85000J0D01*
G01*
X110385000Y-89055000D02*
G75*
G03*
X110900000Y-88540000I0J515000D01*
G01*
X111420000Y-87700000D02*
G75*
G03*
X111935000Y-88215000I515000J0D01*
G01*
X111035000Y-87375000D02*
G75*
G03*
X110900000Y-87510000I0J-135000D01*
G01*
X114731324Y-95032377D02*
G75*
G03*
X115194974Y-95032377I231825J231827D01*
G01*
X111420000Y-87510000D02*
G75*
G03*
X111285000Y-87375000I-135000J0D01*
G01*
X115421271Y-95258674D02*
G75*
G03*
X115421246Y-95722301I231829J-231826D01*
G01*
X114232837Y-89106024D02*
G75*
G03*
X114232880Y-88922219I-91837J91924D01*
G01*
X113975000Y-90595000D02*
G75*
G03*
X114060000Y-90510000I0J85000D01*
G01*
X113040000Y-90721298D02*
X112670094Y-90351393D01*
X112230000Y-91850000D02*
X112530000Y-91850000D01*
X111764999Y-89446298D02*
X111653702Y-89335000D01*
X140090999Y-116824000D02*
X140080999Y-116834000D01*
X107245001Y-88630000D02*
X106935001Y-88320000D01*
X130790000Y-111571298D02*
X114605601Y-95386900D01*
X111764999Y-90167547D02*
X111764999Y-90167548D01*
X114168885Y-95386900D02*
X114034533Y-95521252D01*
X113040000Y-91340000D02*
X113040000Y-90721298D01*
X113884350Y-94665649D02*
X113040000Y-93821298D01*
X111653702Y-89335000D02*
X108623702Y-89335000D01*
X140080999Y-116834000D02*
X135702702Y-116834000D01*
X111559937Y-90740303D02*
X111559937Y-90740302D01*
X113780000Y-92665000D02*
X113780000Y-92575000D01*
X107918702Y-88630000D02*
X107245001Y-88630000D01*
X112530000Y-92110000D02*
X112230000Y-92110000D01*
X114034533Y-95521252D02*
X113749998Y-95236716D01*
X130790000Y-111921298D02*
X130790000Y-111571298D01*
X106935001Y-88320000D02*
X105510000Y-88320000D01*
X113125000Y-93130000D02*
X113315000Y-93130000D01*
X113315000Y-92110000D02*
X112530000Y-92110000D01*
X108623702Y-89335000D02*
X107918702Y-88630000D01*
X113749998Y-95236716D02*
X113884350Y-95102365D01*
X111376090Y-90556455D02*
X111764999Y-90167547D01*
X140616000Y-116824000D02*
X140090999Y-116824000D01*
X111948845Y-90351394D02*
X111559937Y-90740303D01*
X135702702Y-116834000D02*
X130790000Y-111921298D01*
X113040000Y-93821298D02*
X113040000Y-93215000D01*
X112670124Y-90351363D02*
G75*
G03*
X111948845Y-90351394I-360624J-360637D01*
G01*
X111764976Y-90167525D02*
G75*
G03*
X111764999Y-89446298I-360576J360625D01*
G01*
X113780000Y-92575000D02*
G75*
G03*
X113315000Y-92110000I-465000J0D01*
G01*
X112530000Y-91850000D02*
G75*
G03*
X113040000Y-91340000I0J510000D01*
G01*
X114605601Y-95386900D02*
G75*
G03*
X114168885Y-95386900I-218358J-218357D01*
G01*
X113315000Y-93130000D02*
G75*
G03*
X113780000Y-92665000I0J465000D01*
G01*
X112100000Y-91980000D02*
G75*
G03*
X112230000Y-92110000I130000J0D01*
G01*
X113125000Y-93130000D02*
G75*
G03*
X113040000Y-93215000I0J-85000D01*
G01*
X112230000Y-91850000D02*
G75*
G03*
X112100000Y-91980000I0J-130000D01*
G01*
X113884343Y-95102358D02*
G75*
G03*
X113884350Y-94665649I-218343J218358D01*
G01*
X111376111Y-90556476D02*
G75*
G03*
X111376090Y-90740303I91889J-91924D01*
G01*
X111376078Y-90740315D02*
G75*
G03*
X111559936Y-90740301I91922J91915D01*
G01*
X107761298Y-89010000D02*
X107245001Y-89010000D01*
X112660000Y-93978702D02*
X112660000Y-93215000D01*
X111828637Y-91009004D02*
X111828638Y-91009003D01*
X113481297Y-95068702D02*
X113615649Y-94934350D01*
X113125000Y-92750000D02*
X113315000Y-92750000D01*
X111496298Y-89714999D02*
X109046751Y-89715000D01*
X111107389Y-91009004D02*
X111107388Y-91009004D01*
X112660000Y-90878702D02*
X112401393Y-90620095D01*
X108466298Y-89715000D02*
X107761298Y-89010000D01*
X130410000Y-112078702D02*
X130410000Y-111728702D01*
X140616000Y-117224000D02*
X140090999Y-117224000D01*
X112217545Y-90620095D02*
X111828637Y-91009004D01*
X135545298Y-117214000D02*
X130410000Y-112078702D01*
X140090999Y-117224000D02*
X140080999Y-117214000D01*
X107245001Y-89010000D02*
X106935001Y-89320000D01*
X140080999Y-117214000D02*
X135545298Y-117214000D01*
X113315000Y-92490000D02*
X112530000Y-92490000D01*
X112660000Y-91340000D02*
X112660000Y-90878702D01*
X112230000Y-91470000D02*
X112530000Y-91470000D01*
X109046751Y-89715000D02*
X108466298Y-89715000D01*
X130410000Y-111728702D02*
X114336899Y-95655601D01*
X114336899Y-95655601D02*
X114202548Y-95789953D01*
X113400000Y-92665000D02*
X113400000Y-92575000D01*
X112530000Y-92490000D02*
X112230000Y-92490000D01*
X106935001Y-89320000D02*
X105510000Y-89320000D01*
X111107389Y-90287755D02*
X111496298Y-89898847D01*
X113765832Y-95789953D02*
X113481297Y-95505418D01*
X113615649Y-94934350D02*
X112660000Y-93978702D01*
X112230000Y-91470000D02*
G75*
G03*
X111720000Y-91980000I0J-510000D01*
G01*
X111720000Y-91980000D02*
G75*
G03*
X112230000Y-92490000I510000J0D01*
G01*
X111107376Y-91009017D02*
G75*
G03*
X111828638Y-91009003I360624J360617D01*
G01*
X113125000Y-92750000D02*
G75*
G03*
X112660000Y-93215000I0J-465000D01*
G01*
X111496275Y-89898824D02*
G75*
G03*
X111496298Y-89714999I-91875J91924D01*
G01*
X113481337Y-95068742D02*
G75*
G03*
X113481297Y-95505418I218363J-218358D01*
G01*
X112401392Y-90620096D02*
G75*
G03*
X112217546Y-90620096I-91923J-91924D01*
G01*
X113400000Y-92575000D02*
G75*
G03*
X113315000Y-92490000I-85000J0D01*
G01*
X113765832Y-95789953D02*
G75*
G03*
X114202548Y-95789953I218358J218357D01*
G01*
X112530000Y-91470000D02*
G75*
G03*
X112660000Y-91340000I0J130000D01*
G01*
X113315000Y-92750000D02*
G75*
G03*
X113400000Y-92665000I0J85000D01*
G01*
X111107410Y-90287776D02*
G75*
G03*
X111107389Y-91009003I360590J-360624D01*
G01*
D54*
X111120000Y-94570000D02*
X111120000Y-92340000D01*
X140616000Y-119224000D02*
X139952000Y-119888000D01*
D56*
X107615000Y-91275000D02*
X110055000Y-91275000D01*
X110055000Y-91275000D02*
X110280000Y-91500000D01*
X107160000Y-90820000D02*
X107615000Y-91275000D01*
D54*
X111120000Y-92340000D02*
X110280000Y-91500000D01*
D56*
X105510000Y-90820000D02*
X107160000Y-90820000D01*
D54*
X136438000Y-119888000D02*
X111120000Y-94570000D01*
X139952000Y-119888000D02*
X136438000Y-119888000D01*
X141850000Y-120450000D02*
X140100000Y-120450000D01*
X110850000Y-94850000D02*
X110850000Y-92500000D01*
X140100000Y-120450000D02*
X136450000Y-120450000D01*
X143076000Y-119224000D02*
X141850000Y-120450000D01*
D56*
X107390000Y-91630000D02*
X109980000Y-91630000D01*
D54*
X143696000Y-119224000D02*
X143076000Y-119224000D01*
X110850000Y-92500000D02*
X110125000Y-91775000D01*
X136450000Y-120450000D02*
X110850000Y-94850000D01*
D56*
X105510000Y-91320000D02*
X107080000Y-91320000D01*
X107080000Y-91320000D02*
X107390000Y-91630000D01*
X109980000Y-91630000D02*
X110125000Y-91775000D01*
X109270000Y-92320000D02*
X109725000Y-92775000D01*
D54*
X110200000Y-93250000D02*
X109725000Y-92775000D01*
X120800000Y-93400000D02*
X123100000Y-93400000D01*
X120550000Y-93650000D02*
X120800000Y-93400000D01*
D56*
X123100000Y-93630000D02*
X123100000Y-93400000D01*
X105510000Y-92320000D02*
X109270000Y-92320000D01*
D54*
X110200000Y-95200000D02*
X110200000Y-93250000D01*
D56*
X123380000Y-93910000D02*
X123100000Y-93630000D01*
D54*
X143696000Y-110024000D02*
X144224000Y-110024000D01*
D56*
X108770000Y-92820000D02*
X109250000Y-93300000D01*
X105510000Y-92820000D02*
X108770000Y-92820000D01*
D54*
X144224000Y-110024000D02*
X144400000Y-110200000D01*
M02*
