M48
; DRILL file {KiCad (6.99.0-3780-g6ddc5c1a6e)} date Fri Oct  7 14:26:18 2022
; FORMAT={-:-/ absolute / metric / decimal}
; #@! TF.CreationDate,2022-10-07T14:26:18+02:00
; #@! TF.GenerationSoftware,Kicad,Pcbnew,(6.99.0-3780-g6ddc5c1a6e)
; #@! TF.FileFunction,Plated,1,4,PTH
FMAT,2
METRIC
; #@! TA.AperFunction,Plated,PTH,ViaDrill
T1C0.200
; #@! TA.AperFunction,Plated,PTH,ComponentDrill
T2C0.200
; #@! TA.AperFunction,Plated,PTH,ViaDrill
T3C0.250
; #@! TA.AperFunction,Plated,PTH,ViaDrill
T4C0.300
; #@! TA.AperFunction,Plated,PTH,ViaDrill
T5C0.400
; #@! TA.AperFunction,Plated,PTH,ComponentDrill
T6C0.500
; #@! TA.AperFunction,Plated,PTH,ComponentDrill
T7C0.650
; #@! TA.AperFunction,Plated,PTH,ComponentDrill
T8C0.700
; #@! TA.AperFunction,Plated,PTH,ComponentDrill
T9C0.800
; #@! TA.AperFunction,Plated,PTH,ComponentDrill
T10C0.900
; #@! TA.AperFunction,Plated,PTH,ComponentDrill
T11C0.950
; #@! TA.AperFunction,Plated,PTH,ComponentDrill
T12C1.000
; #@! TA.AperFunction,Plated,PTH,ComponentDrill
T13C1.020
; #@! TA.AperFunction,Plated,PTH,ComponentDrill
T14C1.300
; #@! TA.AperFunction,Plated,PTH,ComponentDrill
T15C1.520
; #@! TA.AperFunction,Plated,PTH,ComponentDrill
T16C1.700
; #@! TA.AperFunction,Plated,PTH,ComponentDrill
T17C2.300
%
G90
G05
T1
X125.705Y-111.438
X126.6Y-111.4
X139.8Y-102.1
X139.9Y-103.2
X139.9Y-104.4
X141.2Y-112.8
X141.2Y-116.4
X141.3Y-100.8
X141.3Y-105.6
X141.3Y-106.8
X141.3Y-108.0
X141.3Y-109.2
X141.3Y-111.6
X141.3Y-115.2
X141.328Y-110.428
X141.328Y-114.028
X141.35Y-117.25
X141.35Y-118.95
X142.35Y-119.3
X142.7Y-108.1
X142.7Y-108.7
X142.9Y-104.4
X142.9Y-105.6
X142.9Y-106.8
X142.9Y-107.5
X142.973Y-112.823
X143.0Y-109.2
X143.0Y-110.4
X143.0Y-111.6
X143.0Y-114.0
X143.0Y-116.4
X143.0Y-117.6
X143.1Y-115.2
X144.4Y-109.6
X144.4Y-110.2
X144.5Y-102.0
X144.5Y-103.2
X145.6Y-100.8
X145.72Y-89.79
X147.21Y-89.79
X148.72Y-89.79
X150.22Y-89.79
X151.71Y-89.79
X153.25Y-89.79
X154.71Y-89.8
X155.85Y-119.4
X157.8Y-117.8
X157.804Y-117.251
X159.766Y-116.3
X160.528Y-116.3
X161.29Y-115.316
X162.25Y-117.3
X162.25Y-119.3
X165.0Y-87.9
X166.2Y-125.65
X166.2Y-127.05
X166.268Y-129.025
X166.526Y-87.736
X166.781Y-128.675
X166.781Y-129.345
X167.129Y-128.212
X167.457Y-111.169
X168.0Y-87.9
X168.184Y-125.281
X168.68Y-110.73
X168.68Y-111.37
X168.68Y-112.014
X168.8Y-131.9
X169.1Y-132.95
X169.298Y-124.637
X169.5Y-87.9
X170.35Y-132.9
X171.0Y-87.9
X171.202Y-123.884
X171.202Y-124.554
X171.3Y-131.9
X172.3Y-124.65
X172.49Y-116.25
X172.5Y-87.9
X172.7Y-123.65
X173.7Y-110.85
X173.86Y-100.82
X173.86Y-102.03
X173.92Y-105.63
X173.93Y-107.64
X173.95Y-99.63
X173.962Y-109.661
X174.0Y-125.85
X174.01Y-89.8
X174.31Y-120.5
X174.5Y-128.25
X175.05Y-133.55
X175.25Y-116.8
X175.25Y-119.1
X175.4Y-125.11
X175.451Y-112.256
X175.568Y-117.304
X176.15Y-107.8
X176.18Y-112.26
X176.191Y-101.535
X176.2Y-103.1
X176.2Y-104.6
X176.22Y-108.83
X176.23Y-111.25
X176.5Y-106.13
X176.79Y-115.55
X176.82Y-116.02
X176.85Y-116.46
X178.3Y-113.69
X178.31Y-116.4
X178.32Y-115.43
X178.33Y-96.09
X178.34Y-115.87
X178.46Y-94.52
X178.462Y-101.071
X178.469Y-99.61
X178.5Y-109.99
X178.512Y-101.996
X178.52Y-94.06
X178.53Y-111.36
X178.666Y-103.424
X178.7Y-132.0
X178.745Y-112.505
X178.9Y-122.7
X179.15Y-121.45
X179.934Y-128.572
X181.612Y-123.169
T2
X133.574Y-127.326
X133.574Y-128.626
X133.574Y-129.926
X133.574Y-131.226
X134.874Y-127.326
X134.874Y-128.626
X134.874Y-129.926
X134.874Y-131.226
T3
X98.2Y-101.95
X98.2Y-111.35
X98.25Y-103.8
X98.25Y-113.45
X102.45Y-101.55
X102.6Y-111.2
X103.312Y-102.835
X103.312Y-103.535
X103.48Y-104.65
X104.3Y-84.33
X104.3Y-85.82
X104.3Y-87.3
X104.32Y-88.82
X104.32Y-91.81
X106.68Y-84.33
X106.68Y-85.82
X106.68Y-87.28
X106.68Y-88.82
X106.75Y-91.81
X109.25Y-93.3
X109.275Y-90.775
X110.2Y-95.2
X111.9Y-94.45
X119.15Y-94.65
X120.55Y-93.65
X122.0Y-94.55
X122.2Y-95.65
X123.15Y-122.0
X123.2Y-121.15
X123.25Y-120.15
X123.38Y-93.91
X124.11Y-89.5
X124.5Y-92.15
X125.1Y-84.26
X125.45Y-92.27
X126.5Y-92.6
X128.085Y-84.195
X128.09Y-81.86
X129.58Y-81.86
X129.593Y-84.115
X131.09Y-81.87
X131.093Y-84.115
X132.58Y-81.87
X132.6Y-84.11
X142.01Y-117.874
X142.01Y-118.574
X144.21Y-89.78
X144.989Y-105.666
X145.689Y-105.666
X145.803Y-111.577
X145.95Y-101.5
X146.297Y-111.083
X146.677Y-105.153
X147.09Y-114.78
X147.09Y-115.48
X147.14Y-116.4
X147.14Y-117.1
X147.15Y-113.1
X147.15Y-113.8
X147.17Y-117.874
X147.17Y-118.574
X147.171Y-105.647
X147.62Y-110.12
X147.62Y-110.82
X148.336Y-100.838
X148.709Y-105.153
X149.42Y-105.12
X155.25Y-93.02
X162.09Y-106.21
X162.25Y-109.09
X162.88Y-105.73
X163.51Y-87.95
X163.53Y-89.88
X165.01Y-89.86
X165.26Y-112.29
X166.08Y-99.24
X166.54Y-89.86
X166.55Y-110.25
X166.57Y-111.49
X168.06Y-89.96
X168.47Y-135.59
X168.75Y-105.85
X169.5Y-89.89
X171.03Y-89.87
X171.36Y-110.53
X171.4Y-134.2
X171.553Y-100.897
X171.59Y-99.49
X171.86Y-87.48
X172.046Y-110.596
X172.047Y-100.403
X172.25Y-89.95
X172.35Y-105.17
X172.453Y-102.653
X172.65Y-106.05
X172.853Y-100.803
X172.947Y-103.147
X173.19Y-109.47
X173.3Y-107.5
X173.303Y-105.546
X173.347Y-101.297
X173.5Y-87.54
X173.52Y-103.4
X173.531Y-108.073
X173.55Y-104.35
X173.6Y-110.2
X173.806Y-116.424
X173.824Y-115.845
X173.834Y-115.244
X173.844Y-108.988
X174.92Y-122.58
X175.26Y-105.751
X175.278Y-109.282
X175.3Y-109.9
X175.357Y-111.669
X175.37Y-102.05
X175.43Y-107.53
X175.55Y-111.08
X175.653Y-108.51
X175.71Y-140.86
X175.73Y-114.47
X175.8Y-106.04
X175.93Y-115.07
X175.972Y-102.469
X176.07Y-109.99
X176.24Y-117.47
X176.55Y-120.55
X176.8Y-119.2
X177.79Y-142.62
X177.89Y-128.68
X178.23Y-138.83
X178.4Y-118.95
X178.55Y-107.949
X178.58Y-109.14
X178.6Y-104.75
X178.64Y-105.95
X178.755Y-108.538
X178.97Y-144.18
X179.013Y-118.662
X179.055Y-109.749
X179.625Y-118.762
X179.75Y-105.49
X179.8Y-108.66
X179.81Y-104.19
X179.81Y-107.15
X180.01Y-140.76
X180.135Y-97.339
X180.35Y-121.0
X180.358Y-94.541
X181.336Y-111.23
X181.58Y-143.27
X182.05Y-99.9
X183.0Y-98.9
X183.3Y-100.05
X184.32Y-105.652
X184.33Y-108.61
X184.35Y-100.35
X184.932Y-105.734
X185.02Y-108.68
X185.7Y-101.09
X187.9Y-114.3
X187.95Y-112.9
X188.06Y-111.01
X188.1Y-115.3
X188.14Y-107.541
X188.438Y-108.039
X188.45Y-112.3
X188.47Y-149.49
X188.635Y-118.736
X188.821Y-117.977
X188.898Y-107.429
X189.641Y-107.979
X189.91Y-106.898
X190.96Y-148.55
X191.37Y-81.72
X191.71Y-87.57
X192.9Y-83.86
X193.35Y-81.72
X193.558Y-87.662
X195.423Y-147.809
X195.71Y-148.21
X196.92Y-146.57
X197.27Y-142.03
X198.28Y-149.64
X198.43Y-148.46
X199.068Y-146.913
X199.511Y-142.058
X200.969Y-143.917
X201.006Y-145.987
X201.033Y-150.013
X202.99Y-152.36
X203.05Y-138.82
X203.495Y-119.869
X208.56Y-138.6
X209.85Y-145.34
X209.91Y-144.03
X211.01Y-136.96
X211.66Y-138.93
X213.28Y-144.92
X213.3Y-151.38
X213.41Y-142.7
X214.077Y-138.907
X214.1Y-136.82
X214.272Y-143.826
X214.94Y-145.98
X216.15Y-143.95
T4
X123.9Y-125.2
X125.4Y-125.2
X127.6Y-122.7
X128.1Y-125.0
X128.35Y-120.8
X128.7Y-130.9
X129.5Y-124.9
X129.54Y-121.412
X129.7Y-127.0
X130.6Y-128.6
X130.6Y-129.9
X131.572Y-121.412
X131.572Y-124.9
X133.7Y-133.5
X138.0Y-124.8
X138.0Y-128.7
X138.2Y-132.3
X140.5Y-124.8
X143.0Y-124.8
X145.6Y-124.8
X146.803Y-131.784
X146.9Y-126.3
X149.3Y-131.8
X149.4Y-126.3
X152.4Y-123.5
X152.6Y-121.6
X155.1Y-121.6
X155.1Y-123.5
X157.65Y-123.5
X157.65Y-131.75
X157.7Y-121.6
X157.7Y-129.9
X157.734Y-115.824
X159.5Y-125.4
X159.55Y-127.35
X159.8Y-130.8
X160.1Y-123.5
X160.2Y-121.6
X160.8Y-129.0
X162.0Y-127.35
X162.1Y-125.4
X163.15Y-128.7
X163.921Y-121.21
X164.4Y-132.0
X165.067Y-129.008
X165.16Y-124.61
X165.3Y-127.1
X165.329Y-121.1
X166.25Y-119.4
X166.97Y-132.0
X167.0Y-130.95
X168.5Y-94.38
X169.005Y-115.455
X169.3Y-126.8
X169.3Y-128.2
X169.3Y-129.8
X169.757Y-122.747
X170.8Y-123.0
X170.8Y-126.744
X170.8Y-128.2
X170.8Y-129.8
X171.35Y-115.03
X171.65Y-117.25
X172.126Y-122.211
X172.3Y-126.8
X172.3Y-128.1
X172.3Y-129.7
X173.94Y-122.014
X175.8Y-120.9
X176.36Y-130.181
X176.4Y-125.0
X177.078Y-128.319
X177.1Y-127.0
X177.2Y-122.75
X185.742Y-128.703
X186.26Y-131.402
X186.85Y-129.05
X186.9Y-128.0
T5
X136.398Y-118.872
X140.1Y-121.92
X142.8Y-122.8
X145.3Y-122.8
X145.8Y-131.25
X146.75Y-128.2
X146.75Y-129.9
X147.9Y-122.8
X151.65Y-128.15
X151.7Y-129.85
X152.85Y-126.15
X152.9Y-132.0
X171.15Y-94.234
X180.15Y-113.0
T6
X172.75Y-119.2
X172.75Y-120.2
X186.8Y-118.6
X186.8Y-119.6
T9
X104.394Y-131.175
X104.394Y-133.175
X104.394Y-135.175
X104.394Y-137.175
X104.445Y-99.86
X104.445Y-101.86
X104.445Y-103.86
X104.445Y-105.86
T10
X197.882Y-78.355
X197.882Y-80.895
X197.882Y-83.435
X197.882Y-85.975
X197.882Y-88.515
X200.422Y-79.625
X200.422Y-82.165
X200.422Y-84.705
X200.422Y-87.245
X200.422Y-89.785
X202.942Y-78.355
X202.942Y-89.785
X204.212Y-80.895
X204.212Y-87.245
T11
X204.42Y-116.06
X204.42Y-118.56
X204.42Y-120.56
X204.42Y-123.06
X204.47Y-98.608
X204.47Y-101.108
X204.47Y-103.108
X204.47Y-105.608
T12
X157.245Y-139.495
X159.785Y-139.495
X162.325Y-139.495
X164.865Y-139.495
X167.405Y-139.495
X169.945Y-139.495
X182.8Y-109.57
X182.8Y-112.11
X182.8Y-114.65
X186.55Y-109.55
X186.55Y-112.09
X186.55Y-114.63
X187.07Y-76.4
X187.07Y-78.94
X189.61Y-76.4
X189.61Y-78.94
X191.65Y-93.79
X191.65Y-96.33
X191.65Y-98.87
X191.65Y-101.41
X191.65Y-103.95
X191.65Y-106.49
X191.65Y-109.03
X191.65Y-111.57
X191.65Y-114.11
X191.65Y-116.65
X191.65Y-119.19
X191.65Y-121.73
X191.65Y-124.27
X191.65Y-126.81
X191.65Y-129.35
X191.65Y-131.89
X191.65Y-134.43
X191.65Y-136.97
X191.65Y-139.51
X191.65Y-142.05
X194.19Y-93.79
X194.19Y-96.33
X194.19Y-98.87
X194.19Y-101.41
X194.19Y-103.95
X194.19Y-106.49
X194.19Y-109.03
X194.19Y-111.57
X194.19Y-114.11
X194.19Y-116.65
X194.19Y-119.19
X194.19Y-121.73
X194.19Y-124.27
X194.19Y-126.81
X194.19Y-129.35
X194.19Y-131.89
X194.19Y-134.43
X194.19Y-136.97
X194.19Y-139.51
X194.19Y-142.05
T13
X210.832Y-77.44
X210.832Y-79.98
X210.832Y-88.16
X210.832Y-90.7
T14
X99.61Y-80.72
X99.61Y-96.42
X104.51Y-81.32
X104.51Y-95.82
X120.49Y-77.12
X121.09Y-82.02
X135.59Y-82.02
X136.19Y-77.12
T15
X99.492Y-120.132
X99.492Y-125.212
T16
X203.722Y-76.195
X203.722Y-91.945
T17
X207.13Y-112.99
X207.13Y-126.13
X207.18Y-95.538
X207.18Y-108.678
T7
X101.306Y-100.435G85X101.706Y-100.435
G05
X101.306Y-105.285G85X101.706Y-105.285
G05
X101.322Y-110.087G85X101.722Y-110.087
G05
X101.322Y-114.937G85X101.722Y-114.937
G05
T8
X98.226Y-100.135G85X98.726Y-100.135
G05
X98.226Y-105.585G85X98.726Y-105.585
G05
X98.242Y-109.787G85X98.742Y-109.787
G05
X98.242Y-115.237G85X98.742Y-115.237
G05
T0
M30
