M48
; DRILL file {KiCad (6.99.0-1603-g82820d4b1c)} date Fri Jun 17 10:58:49 2022
; FORMAT={-:-/ absolute / metric / decimal}
; #@! TF.CreationDate,2022-06-17T10:58:49+02:00
; #@! TF.GenerationSoftware,Kicad,Pcbnew,(6.99.0-1603-g82820d4b1c)
; #@! TF.FileFunction,Plated,1,4,PTH
FMAT,2
METRIC
; #@! TA.AperFunction,Plated,PTH,ViaDrill
T1C0.200
; #@! TA.AperFunction,Plated,PTH,ComponentDrill
T2C0.200
; #@! TA.AperFunction,Plated,PTH,ViaDrill
T3C0.250
; #@! TA.AperFunction,Plated,PTH,ViaDrill
T4C0.300
; #@! TA.AperFunction,Plated,PTH,ViaDrill
T5C0.400
; #@! TA.AperFunction,Plated,PTH,ComponentDrill
T6C0.500
; #@! TA.AperFunction,Plated,PTH,ComponentDrill
T7C0.650
; #@! TA.AperFunction,Plated,PTH,ComponentDrill
T8C0.700
; #@! TA.AperFunction,Plated,PTH,ComponentDrill
T9C0.800
; #@! TA.AperFunction,Plated,PTH,ComponentDrill
T10C0.900
; #@! TA.AperFunction,Plated,PTH,ComponentDrill
T11C0.950
; #@! TA.AperFunction,Plated,PTH,ComponentDrill
T12C1.000
; #@! TA.AperFunction,Plated,PTH,ComponentDrill
T13C1.520
; #@! TA.AperFunction,Plated,PTH,ComponentDrill
T14C2.300
%
G90
G05
T1
X125.705Y-111.438
X126.6Y-111.4
X139.8Y-102.1
X139.9Y-103.2
X139.9Y-104.4
X141.2Y-112.8
X141.2Y-116.4
X141.3Y-100.8
X141.3Y-105.6
X141.3Y-106.8
X141.3Y-108.0
X141.3Y-109.2
X141.3Y-111.6
X141.3Y-115.2
X141.328Y-110.428
X141.328Y-114.028
X141.35Y-117.25
X141.35Y-118.95
X142.15Y-118.065
X142.15Y-118.735
X142.35Y-119.3
X142.7Y-108.1
X142.7Y-108.7
X142.9Y-104.4
X142.9Y-105.6
X142.9Y-106.8
X142.9Y-107.5
X142.973Y-112.823
X143.0Y-109.2
X143.0Y-110.4
X143.0Y-111.6
X143.0Y-114.0
X143.0Y-116.4
X143.0Y-117.6
X143.1Y-115.2
X144.24Y-89.89
X144.4Y-109.6
X144.4Y-110.2
X144.5Y-102.0
X144.5Y-103.2
X144.513Y-119.787
X144.987Y-119.313
X145.465Y-117.85
X145.6Y-100.8
X145.73Y-89.89
X146.135Y-117.85
X146.965Y-116.85
X147.22Y-89.93
X147.635Y-116.85
X148.72Y-89.9
X148.838Y-115.688
X149.312Y-116.162
X150.22Y-89.83
X151.72Y-89.9
X153.25Y-89.79
X154.74Y-89.84
X155.45Y-117.215
X155.45Y-117.885
X155.85Y-119.4
X159.766Y-116.3
X160.528Y-116.3
X161.29Y-115.316
X162.25Y-117.3
X162.25Y-119.3
X163.5Y-89.9
X165.0Y-87.9
X166.15Y-128.95
X166.2Y-125.65
X166.2Y-127.05
X166.5Y-87.9
X166.781Y-128.675
X166.781Y-129.345
X167.129Y-128.212
X167.386Y-111.252
X168.0Y-87.9
X168.4Y-125.35
X168.68Y-110.73
X168.68Y-111.37
X168.68Y-112.014
X168.8Y-131.9
X169.1Y-132.95
X169.3Y-124.65
X169.5Y-87.9
X170.35Y-132.9
X171.0Y-87.9
X171.202Y-123.884
X171.202Y-124.554
X171.3Y-131.9
X172.3Y-124.65
X172.5Y-87.9
X172.7Y-123.65
X173.4Y-114.01
X173.7Y-110.85
X173.75Y-115.75
X173.75Y-116.25
X173.86Y-99.63
X173.86Y-102.03
X173.9Y-100.83
X173.92Y-105.63
X173.93Y-107.64
X173.994Y-109.629
X174.0Y-87.9
X174.0Y-125.85
X174.5Y-128.25
X174.55Y-120.5
X175.05Y-133.55
X175.25Y-116.8
X175.25Y-119.1
X175.4Y-125.11
X175.451Y-112.256
X175.568Y-117.304
X175.71Y-106.16
X176.15Y-107.8
X176.18Y-112.26
X176.2Y-100.1
X176.2Y-101.6
X176.2Y-103.1
X176.2Y-104.6
X176.2Y-106.1
X176.22Y-108.83
X176.23Y-111.25
X176.3Y-94.1
X176.3Y-94.6
X176.3Y-96.1
X176.79Y-115.55
X176.82Y-116.02
X176.85Y-116.46
X178.3Y-113.69
X178.31Y-116.4
X178.32Y-115.43
X178.34Y-115.87
X178.466Y-100.809
X178.47Y-99.61
X178.5Y-109.99
X178.51Y-102.02
X178.53Y-111.37
X178.65Y-103.4
X178.7Y-132.0
X178.76Y-112.52
X178.9Y-122.7
X179.15Y-121.45
X180.42Y-128.15
X181.612Y-123.169
X199.39Y-131.064
X202.946Y-132.207
X202.946Y-137.16
X205.359Y-135.509
X208.74Y-135.55
T2
X133.574Y-127.326
X133.574Y-128.626
X133.574Y-129.926
X133.574Y-131.226
X134.874Y-127.326
X134.874Y-128.626
X134.874Y-129.926
X134.874Y-131.226
T3
X98.2Y-101.95
X98.2Y-111.35
X98.25Y-103.8
X98.25Y-113.45
X102.45Y-101.55
X102.6Y-111.2
X102.85Y-104.45
X103.312Y-102.835
X103.312Y-103.535
X105.3Y-87.3
X105.3Y-90.25
X105.35Y-84.25
X105.35Y-88.75
X105.399Y-85.78
X108.65Y-84.3
X108.65Y-85.8
X108.65Y-87.25
X108.7Y-88.75
X108.75Y-90.3
X109.25Y-93.3
X109.275Y-90.775
X110.2Y-95.2
X111.9Y-94.45
X119.15Y-94.65
X120.55Y-93.65
X122.0Y-94.55
X122.2Y-95.65
X123.15Y-122.0
X123.2Y-121.15
X123.25Y-120.15
X123.45Y-88.35
X124.5Y-92.15
X125.45Y-92.3
X126.45Y-91.7
X126.5Y-88.35
X126.5Y-92.6
X128.0Y-88.35
X128.0Y-91.75
X129.5Y-88.4
X129.5Y-91.8
X130.95Y-88.4
X131.0Y-91.7
X132.5Y-88.35
X132.5Y-91.7
X144.989Y-105.666
X145.689Y-105.666
X145.95Y-101.5
X146.677Y-105.153
X147.171Y-105.647
X148.336Y-100.838
X148.709Y-105.153
X149.203Y-105.647
X168.75Y-105.85
X171.553Y-100.897
X172.047Y-100.403
X172.05Y-110.0
X172.453Y-102.653
X172.6Y-105.5
X172.853Y-100.803
X172.947Y-103.147
X173.3Y-105.55
X173.3Y-107.5
X173.347Y-101.297
X173.52Y-103.4
X173.55Y-104.35
X173.55Y-108.1
X173.6Y-110.2
X173.85Y-108.8
X175.26Y-105.751
X175.3Y-109.25
X175.3Y-109.9
X175.357Y-111.669
X175.43Y-107.53
X175.51Y-114.85
X175.55Y-111.08
X175.636Y-108.674
X176.0Y-102.3
X176.07Y-109.99
X176.41Y-117.47
X176.55Y-120.55
X176.8Y-119.2
X178.4Y-118.95
X178.55Y-107.949
X178.58Y-109.14
X178.6Y-104.75
X178.64Y-105.95
X178.7Y-90.6
X178.755Y-108.538
X179.013Y-118.662
X179.055Y-109.749
X179.625Y-118.762
X179.75Y-105.49
X179.8Y-108.66
X179.81Y-104.19
X179.81Y-107.15
X180.007Y-97.757
X180.05Y-94.8
X180.07Y-115.18
X180.35Y-121.0
X181.44Y-111.23
X182.05Y-99.9
X182.55Y-91.4
X182.65Y-88.0
X183.0Y-98.9
X183.3Y-100.05
X183.45Y-87.95
X184.35Y-100.35
X185.35Y-93.1
X186.45Y-101.65
X186.7Y-104.84
X186.73Y-106.34
X186.8Y-100.85
X187.5Y-103.3
X187.9Y-114.3
X187.95Y-112.9
X188.05Y-105.45
X188.08Y-110.26
X188.1Y-115.3
X188.45Y-112.3
X188.7Y-81.55
X188.9Y-80.9
X189.6Y-97.8
X192.4Y-80.45
X196.0Y-81.5
X196.3Y-83.1
X197.6Y-90.3
X197.7Y-86.05
X198.247Y-119.126
X199.55Y-80.15
X199.55Y-91.95
X199.65Y-82.95
X202.15Y-83.4
X202.3Y-86.7
X202.75Y-86.25
X202.975Y-89.615
X203.04Y-88.49
X204.5Y-83.95
X205.31Y-89.6
X205.45Y-84.25
X207.5Y-83.55
X208.7Y-79.7
X209.2Y-85.2
X210.8Y-91.55
X211.493Y-83.0
T4
X123.9Y-125.2
X125.4Y-125.2
X127.6Y-122.7
X128.1Y-125.0
X128.35Y-120.8
X128.7Y-130.9
X129.5Y-124.9
X129.54Y-121.412
X129.7Y-127.0
X130.6Y-128.6
X130.6Y-129.9
X131.572Y-121.412
X131.572Y-124.9
X133.604Y-121.412
X133.7Y-133.5
X138.0Y-124.8
X138.0Y-128.7
X138.2Y-132.3
X140.5Y-124.8
X143.0Y-124.8
X145.6Y-124.8
X146.803Y-131.784
X146.9Y-126.3
X149.3Y-131.8
X149.4Y-126.3
X152.4Y-123.5
X152.6Y-121.6
X155.1Y-121.6
X155.1Y-123.5
X157.65Y-123.5
X157.65Y-131.75
X157.7Y-121.6
X157.7Y-129.9
X157.734Y-115.824
X159.5Y-125.4
X159.55Y-127.35
X159.8Y-130.8
X160.1Y-123.5
X160.2Y-121.6
X160.8Y-129.0
X162.0Y-127.35
X162.1Y-125.4
X163.15Y-128.7
X163.921Y-121.21
X164.4Y-132.0
X165.16Y-124.61
X165.2Y-128.9
X165.205Y-119.405
X165.3Y-127.1
X165.329Y-121.1
X166.25Y-119.4
X166.97Y-132.0
X167.0Y-130.95
X168.688Y-94.34
X169.005Y-115.455
X169.3Y-126.8
X169.3Y-128.2
X169.3Y-129.8
X169.757Y-122.747
X170.674Y-134.435
X170.8Y-123.0
X170.8Y-126.7
X170.8Y-128.2
X170.8Y-129.8
X171.65Y-117.25
X171.75Y-115.15
X172.1Y-122.1
X172.3Y-126.8
X172.3Y-128.1
X172.3Y-129.7
X173.8Y-122.0
X175.8Y-120.9
X176.36Y-130.181
X176.4Y-125.0
X177.1Y-127.0
X177.1Y-128.3
X177.2Y-122.75
X185.742Y-128.703
X186.85Y-129.05
X186.9Y-128.0
X186.9Y-131.52
X197.4Y-84.85
X199.7Y-85.2
X207.0Y-87.5
X209.7Y-84.35
X209.799Y-86.099
T5
X136.398Y-118.872
X140.1Y-121.92
X142.8Y-122.8
X145.3Y-122.8
X145.8Y-131.25
X146.75Y-128.2
X146.75Y-129.9
X147.9Y-122.8
X151.65Y-128.15
X151.7Y-129.85
X152.85Y-126.15
X152.9Y-132.0
X171.15Y-94.234
X180.15Y-113.0
T6
X172.75Y-119.2
X172.75Y-120.2
X186.8Y-118.6
X186.8Y-119.6
T9
X104.394Y-131.175
X104.394Y-133.175
X104.394Y-135.175
X104.394Y-137.175
X104.445Y-99.86
X104.445Y-101.86
X104.445Y-103.86
X104.445Y-105.86
T11
X199.771Y-116.078
X199.771Y-118.578
X199.771Y-120.578
X199.771Y-123.078
X199.79Y-98.608
X199.79Y-101.108
X199.79Y-103.108
X199.79Y-105.608
T12
X182.8Y-109.57
X182.8Y-112.11
X182.8Y-114.65
X186.55Y-109.55
X186.55Y-112.09
X186.55Y-114.63
X191.16Y-81.24
X191.16Y-83.78
X191.16Y-86.32
X191.16Y-88.86
X191.16Y-91.4
X191.16Y-93.94
X191.16Y-96.48
X191.16Y-99.02
X191.16Y-101.56
X191.16Y-104.1
X191.16Y-106.64
X191.16Y-109.18
X191.16Y-111.72
X191.16Y-114.26
X191.16Y-116.8
X191.16Y-119.34
X191.16Y-121.88
X191.16Y-124.42
X191.16Y-126.96
X191.16Y-129.5
X193.7Y-81.24
X193.7Y-83.78
X193.7Y-86.32
X193.7Y-88.86
X193.7Y-91.4
X193.7Y-93.94
X193.7Y-96.48
X193.7Y-99.02
X193.7Y-101.56
X193.7Y-104.1
X193.7Y-106.64
X193.7Y-109.18
X193.7Y-111.72
X193.7Y-114.26
X193.7Y-116.8
X193.7Y-119.34
X193.7Y-121.88
X193.7Y-124.42
X193.7Y-126.96
X193.7Y-129.5
T13
X99.492Y-120.132
X99.492Y-125.212
T14
X202.481Y-113.008
X202.481Y-126.148
X202.5Y-95.538
X202.5Y-108.678
T7
X101.306Y-100.435G85X101.706Y-100.435
G05
X101.306Y-105.285G85X101.706Y-105.285
G05
X101.322Y-110.087G85X101.722Y-110.087
G05
X101.322Y-114.937G85X101.722Y-114.937
G05
T8
X98.226Y-100.135G85X98.726Y-100.135
G05
X98.226Y-105.585G85X98.726Y-105.585
G05
X98.242Y-109.787G85X98.742Y-109.787
G05
X98.242Y-115.237G85X98.742Y-115.237
G05
T10
X99.947Y-81.525G85X100.747Y-81.525
G05
X99.947Y-96.025G85X100.747Y-96.025
G05
X105.407Y-81.525G85X107.207Y-81.525
G05
X105.407Y-96.025G85X107.207Y-96.025
G05
X120.725Y-82.897G85X120.725Y-83.697
G05
X120.725Y-88.357G85X120.725Y-90.157
G05
X135.225Y-82.897G85X135.225Y-83.697
G05
X135.225Y-88.357G85X135.225Y-90.157
G05
T0
M30
