  0
SECTION
  2
HEADER
  9
$ANGBASE
  50
0.0
  9
$ANGDIR
  70
1
  9
$MEASUREMENT
  70
1
  0
ENDSEC
  0
SECTION
  2
TABLES
  0
TABLE
  2
LTYPE
  70
4
  0
LTYPE
  5
40F
  2
CONTINUOUS
  70
0
  3
Solid line
  72
65
  73
0
  40
0.0
  0
LTYPE
  5
410
  2
DASHDOT
 70
0
  3
Dash Dot ____ _ ____ _
 72
65
 73
4
 40
2.0
 49
1.25
 49
-0.25
 49
0.25
 49
-0.25
  0
LTYPE
  5
411
  2
DASHED
 70
0
  3
Dashed __ __ __ __ __
 72
65
 73
2
 40
0.75
 49
0.5
 49
-0.25
  0
LTYPE
  5
43B
  2
DOTTED
 70
0
  3
Dotted .  .  .  .
 72
65
 73
2
 40
0.2
 49
0.0
 49
-0.2
  0
ENDTAB
  0
TABLE
  2
STYLE
  70
4
  0
STYLE
  2
KICAD
  70
0
  40
0
  41
1
  42
1
  50
0
  71
0
  3
isocp.shx
  0
STYLE
  2
KICADB
  70
0
  40
0
  41
1
  42
1
  50
0
  71
0
  3
isocp.shx
  0
STYLE
  2
KICADI
  70
0
  40
0
  41
1
  42
1
  50
15
  71
0
  3
isocp.shx
  0
STYLE
  2
KICADBI
  70
0
  40
0
  41
1
  42
1
  50
15
  71
0
  3
isocp.shx
  0
ENDTAB
  0
TABLE
  2
LAYER
  70
1
  0
LAYER
  2
BLACK
  70
0
  62
7
  6
CONTINUOUS
  0
ENDTAB
  0
ENDSEC
  0
SECTION
  2
ENTITIES
0
LINE
8
BLACK
6
CONTINUOUS
10
217.72
20
-153.16
11
217.52
21
-74.41
0
LINE
8
BLACK
6
CONTINUOUS
10
217.52
20
-74.41
11
96.7908
21
-74.41
0
LINE
8
BLACK
6
CONTINUOUS
10
96.9802
20
-153.196
11
96.7908
21
-74.41
0
LINE
8
BLACK
6
CONTINUOUS
10
96.9802
20
-153.196
11
217.72
21
-153.16
0
LINE
8
BLACK
6
CONTINUOUS
10
171.545
20
-92.31
11
172.645
21
-93.41
0
LINE
8
BLACK
6
CONTINUOUS
10
172.645
20
-92.31
11
171.545
21
-93.41
0
CIRCLE
8
BLACK
10
205.96
20
-133.3
40
0.75
0
CIRCLE
8
BLACK
10
212.96
20
-133.3
40
0.75
0
LINE
8
BLACK
6
CONTINUOUS
10
172.095
20
-112.06
11
172.095
21
-113.66
0
LINE
8
BLACK
6
CONTINUOUS
10
171.295
20
-112.86
11
172.895
21
-112.86
0
LINE
8
BLACK
6
CONTINUOUS
10
115.527
20
-82.9866
11
115.527
21
-81.0774
0
LINE
8
BLACK
6
CONTINUOUS
10
115.527
20
-81.0774
11
113.617
21
-81.0774
0
LINE
8
BLACK
6
CONTINUOUS
10
113.617
20
-81.0774
11
113.617
21
-82.9866
0
LINE
8
BLACK
6
CONTINUOUS
10
113.617
20
-82.9866
11
115.527
21
-82.9866
0
LINE
8
BLACK
6
CONTINUOUS
10
115.527
20
-132.263
11
115.527
21
-130.353
0
LINE
8
BLACK
6
CONTINUOUS
10
115.527
20
-130.353
11
113.617
21
-130.353
0
LINE
8
BLACK
6
CONTINUOUS
10
113.617
20
-130.353
11
113.617
21
-132.263
0
LINE
8
BLACK
6
CONTINUOUS
10
113.617
20
-132.263
11
115.527
21
-132.263
0
LINE
8
BLACK
6
CONTINUOUS
10
183.439
20
-82.9866
11
183.439
21
-81.0774
0
LINE
8
BLACK
6
CONTINUOUS
10
183.439
20
-81.0774
11
181.529
21
-81.0774
0
LINE
8
BLACK
6
CONTINUOUS
10
181.529
20
-81.0774
11
181.529
21
-82.9866
0
LINE
8
BLACK
6
CONTINUOUS
10
181.529
20
-82.9866
11
183.439
21
-82.9866
0
LINE
8
BLACK
6
CONTINUOUS
10
183.439
20
-132.263
11
183.439
21
-130.353
0
LINE
8
BLACK
6
CONTINUOUS
10
183.439
20
-130.353
11
181.529
21
-130.353
0
LINE
8
BLACK
6
CONTINUOUS
10
181.529
20
-130.353
11
181.529
21
-132.263
0
LINE
8
BLACK
6
CONTINUOUS
10
181.529
20
-132.263
11
183.439
21
-132.263
0
LINE
8
BLACK
6
CONTINUOUS
10
206.772
20
-79.955
11
208.373
21
-78.355
0
LINE
8
BLACK
6
CONTINUOUS
10
208.373
20
-78.355
11
206.772
21
-76.755
0
LINE
8
BLACK
6
CONTINUOUS
10
206.772
20
-76.755
11
205.172
21
-78.355
0
LINE
8
BLACK
6
CONTINUOUS
10
205.172
20
-78.355
11
206.772
21
-79.955
0
LINE
8
BLACK
6
CONTINUOUS
10
206.772
20
-91.385
11
208.373
21
-89.785
0
LINE
8
BLACK
6
CONTINUOUS
10
208.373
20
-89.785
11
206.772
21
-88.185
0
LINE
8
BLACK
6
CONTINUOUS
10
206.772
20
-88.185
11
205.172
21
-89.785
0
LINE
8
BLACK
6
CONTINUOUS
10
205.172
20
-89.785
11
206.772
21
-91.385
0
LINE
8
BLACK
6
CONTINUOUS
10
110.249
20
-101.11
11
113.749
21
-104.61
0
LINE
8
BLACK
6
CONTINUOUS
10
113.749
20
-101.11
11
110.249
21
-104.61
0
CIRCLE
8
BLACK
10
111.999
20
-102.86
40
1.75
0
LINE
8
BLACK
6
CONTINUOUS
10
128.283
20
-101.11
11
131.783
21
-104.61
0
LINE
8
BLACK
6
CONTINUOUS
10
131.783
20
-101.11
11
128.283
21
-104.61
0
CIRCLE
8
BLACK
10
130.033
20
-102.86
40
1.75
0
LINE
8
BLACK
6
CONTINUOUS
10
99.242
20
-156.156
11
99.242
21
-154.156
0
LINE
8
BLACK
6
CONTINUOUS
10
99.242
20
-154.156
11
99.7182
21
-154.156
0
LINE
8
BLACK
6
CONTINUOUS
10
99.7182
20
-154.156
11
100.004
21
-154.251
0
LINE
8
BLACK
6
CONTINUOUS
10
100.004
20
-154.251
11
100.194
21
-154.441
0
LINE
8
BLACK
6
CONTINUOUS
10
100.194
20
-154.441
11
100.29
21
-154.632
0
LINE
8
BLACK
6
CONTINUOUS
10
100.29
20
-154.632
11
100.385
21
-155.013
0
LINE
8
BLACK
6
CONTINUOUS
10
100.385
20
-155.013
11
100.385
21
-155.299
0
LINE
8
BLACK
6
CONTINUOUS
10
100.385
20
-155.299
11
100.29
21
-155.68
0
LINE
8
BLACK
6
CONTINUOUS
10
100.29
20
-155.68
11
100.194
21
-155.87
0
LINE
8
BLACK
6
CONTINUOUS
10
100.194
20
-155.87
11
100.004
21
-156.061
0
LINE
8
BLACK
6
CONTINUOUS
10
100.004
20
-156.061
11
99.7182
21
-156.156
0
LINE
8
BLACK
6
CONTINUOUS
10
99.7182
20
-156.156
11
99.242
21
-156.156
0
LINE
8
BLACK
6
CONTINUOUS
10
101.242
20
-156.156
11
101.242
21
-154.822
0
LINE
8
BLACK
6
CONTINUOUS
10
101.242
20
-155.203
11
101.337
21
-155.013
0
LINE
8
BLACK
6
CONTINUOUS
10
101.337
20
-155.013
11
101.432
21
-154.918
0
LINE
8
BLACK
6
CONTINUOUS
10
101.432
20
-154.918
11
101.623
21
-154.822
0
LINE
8
BLACK
6
CONTINUOUS
10
101.623
20
-154.822
11
101.813
21
-154.822
0
LINE
8
BLACK
6
CONTINUOUS
10
102.48
20
-156.156
11
102.48
21
-154.822
0
LINE
8
BLACK
6
CONTINUOUS
10
102.48
20
-154.156
11
102.385
21
-154.251
0
LINE
8
BLACK
6
CONTINUOUS
10
102.385
20
-154.251
11
102.48
21
-154.346
0
LINE
8
BLACK
6
CONTINUOUS
10
102.48
20
-154.346
11
102.575
21
-154.251
0
LINE
8
BLACK
6
CONTINUOUS
10
102.575
20
-154.251
11
102.48
21
-154.156
0
LINE
8
BLACK
6
CONTINUOUS
10
102.48
20
-154.156
11
102.48
21
-154.346
0
LINE
8
BLACK
6
CONTINUOUS
10
103.718
20
-156.156
11
103.528
21
-156.061
0
LINE
8
BLACK
6
CONTINUOUS
10
103.528
20
-156.061
11
103.432
21
-155.87
0
LINE
8
BLACK
6
CONTINUOUS
10
103.432
20
-155.87
11
103.432
21
-154.156
0
LINE
8
BLACK
6
CONTINUOUS
10
104.766
20
-156.156
11
104.575
21
-156.061
0
LINE
8
BLACK
6
CONTINUOUS
10
104.575
20
-156.061
11
104.48
21
-155.87
0
LINE
8
BLACK
6
CONTINUOUS
10
104.48
20
-155.87
11
104.48
21
-154.156
0
LINE
8
BLACK
6
CONTINUOUS
10
106.728
20
-156.156
11
106.728
21
-154.156
0
LINE
8
BLACK
6
CONTINUOUS
10
106.728
20
-154.156
11
107.394
21
-155.584
0
LINE
8
BLACK
6
CONTINUOUS
10
107.394
20
-155.584
11
108.061
21
-154.156
0
LINE
8
BLACK
6
CONTINUOUS
10
108.061
20
-154.156
11
108.061
21
-156.156
0
LINE
8
BLACK
6
CONTINUOUS
10
109.871
20
-156.156
11
109.871
21
-155.108
0
LINE
8
BLACK
6
CONTINUOUS
10
109.871
20
-155.108
11
109.775
21
-154.918
0
LINE
8
BLACK
6
CONTINUOUS
10
109.775
20
-154.918
11
109.585
21
-154.822
0
LINE
8
BLACK
6
CONTINUOUS
10
109.585
20
-154.822
11
109.204
21
-154.822
0
LINE
8
BLACK
6
CONTINUOUS
10
109.204
20
-154.822
11
109.013
21
-154.918
0
LINE
8
BLACK
6
CONTINUOUS
10
109.871
20
-156.061
11
109.68
21
-156.156
0
LINE
8
BLACK
6
CONTINUOUS
10
109.68
20
-156.156
11
109.204
21
-156.156
0
LINE
8
BLACK
6
CONTINUOUS
10
109.204
20
-156.156
11
109.013
21
-156.061
0
LINE
8
BLACK
6
CONTINUOUS
10
109.013
20
-156.061
11
108.918
21
-155.87
0
LINE
8
BLACK
6
CONTINUOUS
10
108.918
20
-155.87
11
108.918
21
-155.68
0
LINE
8
BLACK
6
CONTINUOUS
10
108.918
20
-155.68
11
109.013
21
-155.489
0
LINE
8
BLACK
6
CONTINUOUS
10
109.013
20
-155.489
11
109.204
21
-155.394
0
LINE
8
BLACK
6
CONTINUOUS
10
109.204
20
-155.394
11
109.68
21
-155.394
0
LINE
8
BLACK
6
CONTINUOUS
10
109.68
20
-155.394
11
109.871
21
-155.299
0
LINE
8
BLACK
6
CONTINUOUS
10
110.823
20
-154.822
11
110.823
21
-156.822
0
LINE
8
BLACK
6
CONTINUOUS
10
110.823
20
-154.918
11
111.013
21
-154.822
0
LINE
8
BLACK
6
CONTINUOUS
10
111.013
20
-154.822
11
111.394
21
-154.822
0
LINE
8
BLACK
6
CONTINUOUS
10
111.394
20
-154.822
11
111.585
21
-154.918
0
LINE
8
BLACK
6
CONTINUOUS
10
111.585
20
-154.918
11
111.68
21
-155.013
0
LINE
8
BLACK
6
CONTINUOUS
10
111.68
20
-155.013
11
111.775
21
-155.203
0
LINE
8
BLACK
6
CONTINUOUS
10
111.775
20
-155.203
11
111.775
21
-155.775
0
LINE
8
BLACK
6
CONTINUOUS
10
111.775
20
-155.775
11
111.68
21
-155.965
0
LINE
8
BLACK
6
CONTINUOUS
10
111.68
20
-155.965
11
111.585
21
-156.061
0
LINE
8
BLACK
6
CONTINUOUS
10
111.585
20
-156.061
11
111.394
21
-156.156
0
LINE
8
BLACK
6
CONTINUOUS
10
111.394
20
-156.156
11
111.013
21
-156.156
0
LINE
8
BLACK
6
CONTINUOUS
10
111.013
20
-156.156
11
110.823
21
-156.061
0
LINE
8
BLACK
6
CONTINUOUS
10
112.632
20
-155.965
11
112.728
21
-156.061
0
LINE
8
BLACK
6
CONTINUOUS
10
112.728
20
-156.061
11
112.632
21
-156.156
0
LINE
8
BLACK
6
CONTINUOUS
10
112.632
20
-156.156
11
112.537
21
-156.061
0
LINE
8
BLACK
6
CONTINUOUS
10
112.537
20
-156.061
11
112.632
21
-155.965
0
LINE
8
BLACK
6
CONTINUOUS
10
112.632
20
-155.965
11
112.632
21
-156.156
0
LINE
8
BLACK
6
CONTINUOUS
10
112.632
20
-154.918
11
112.728
21
-155.013
0
LINE
8
BLACK
6
CONTINUOUS
10
112.728
20
-155.013
11
112.632
21
-155.108
0
LINE
8
BLACK
6
CONTINUOUS
10
112.632
20
-155.108
11
112.537
21
-155.013
0
LINE
8
BLACK
6
CONTINUOUS
10
112.537
20
-155.013
11
112.632
21
-154.918
0
LINE
8
BLACK
6
CONTINUOUS
10
112.632
20
-154.918
11
112.632
21
-155.108
0
LINE
8
BLACK
6
CONTINUOUS
10
95.6658
20
-159.071
11
96.7658
21
-160.171
0
LINE
8
BLACK
6
CONTINUOUS
10
96.7658
20
-159.071
11
95.6658
21
-160.171
0
LINE
8
BLACK
6
CONTINUOUS
10
100.29
20
-160.356
11
99.1468
21
-160.356
0
LINE
8
BLACK
6
CONTINUOUS
10
99.7182
20
-160.356
11
99.7182
21
-158.356
0
LINE
8
BLACK
6
CONTINUOUS
10
99.7182
20
-158.356
11
99.5277
21
-158.641
0
LINE
8
BLACK
6
CONTINUOUS
10
99.5277
20
-158.641
11
99.3372
21
-158.832
0
LINE
8
BLACK
6
CONTINUOUS
10
99.3372
20
-158.832
11
99.1468
21
-158.927
0
LINE
8
BLACK
6
CONTINUOUS
10
101.147
20
-160.165
11
101.242
21
-160.261
0
LINE
8
BLACK
6
CONTINUOUS
10
101.242
20
-160.261
11
101.147
21
-160.356
0
LINE
8
BLACK
6
CONTINUOUS
10
101.147
20
-160.356
11
101.052
21
-160.261
0
LINE
8
BLACK
6
CONTINUOUS
10
101.052
20
-160.261
11
101.147
21
-160.165
0
LINE
8
BLACK
6
CONTINUOUS
10
101.147
20
-160.165
11
101.147
21
-160.356
0
LINE
8
BLACK
6
CONTINUOUS
10
103.147
20
-160.356
11
102.004
21
-160.356
0
LINE
8
BLACK
6
CONTINUOUS
10
102.575
20
-160.356
11
102.575
21
-158.356
0
LINE
8
BLACK
6
CONTINUOUS
10
102.575
20
-158.356
11
102.385
21
-158.641
0
LINE
8
BLACK
6
CONTINUOUS
10
102.385
20
-158.641
11
102.194
21
-158.832
0
LINE
8
BLACK
6
CONTINUOUS
10
102.194
20
-158.832
11
102.004
21
-158.927
0
LINE
8
BLACK
6
CONTINUOUS
10
104.385
20
-158.356
11
104.575
21
-158.356
0
LINE
8
BLACK
6
CONTINUOUS
10
104.575
20
-158.356
11
104.766
21
-158.451
0
LINE
8
BLACK
6
CONTINUOUS
10
104.766
20
-158.451
11
104.861
21
-158.546
0
LINE
8
BLACK
6
CONTINUOUS
10
104.861
20
-158.546
11
104.956
21
-158.737
0
LINE
8
BLACK
6
CONTINUOUS
10
104.956
20
-158.737
11
105.052
21
-159.118
0
LINE
8
BLACK
6
CONTINUOUS
10
105.052
20
-159.118
11
105.052
21
-159.594
0
LINE
8
BLACK
6
CONTINUOUS
10
105.052
20
-159.594
11
104.956
21
-159.975
0
LINE
8
BLACK
6
CONTINUOUS
10
104.956
20
-159.975
11
104.861
21
-160.165
0
LINE
8
BLACK
6
CONTINUOUS
10
104.861
20
-160.165
11
104.766
21
-160.261
0
LINE
8
BLACK
6
CONTINUOUS
10
104.766
20
-160.261
11
104.575
21
-160.356
0
LINE
8
BLACK
6
CONTINUOUS
10
104.575
20
-160.356
11
104.385
21
-160.356
0
LINE
8
BLACK
6
CONTINUOUS
10
104.385
20
-160.356
11
104.194
21
-160.261
0
LINE
8
BLACK
6
CONTINUOUS
10
104.194
20
-160.261
11
104.099
21
-160.165
0
LINE
8
BLACK
6
CONTINUOUS
10
104.099
20
-160.165
11
104.004
21
-159.975
0
LINE
8
BLACK
6
CONTINUOUS
10
104.004
20
-159.975
11
103.909
21
-159.594
0
LINE
8
BLACK
6
CONTINUOUS
10
103.909
20
-159.594
11
103.909
21
-159.118
0
LINE
8
BLACK
6
CONTINUOUS
10
103.909
20
-159.118
11
104.004
21
-158.737
0
LINE
8
BLACK
6
CONTINUOUS
10
104.004
20
-158.737
11
104.099
21
-158.546
0
LINE
8
BLACK
6
CONTINUOUS
10
104.099
20
-158.546
11
104.194
21
-158.451
0
LINE
8
BLACK
6
CONTINUOUS
10
104.194
20
-158.451
11
104.385
21
-158.356
0
LINE
8
BLACK
6
CONTINUOUS
10
106.29
20
-158.356
11
106.48
21
-158.356
0
LINE
8
BLACK
6
CONTINUOUS
10
106.48
20
-158.356
11
106.671
21
-158.451
0
LINE
8
BLACK
6
CONTINUOUS
10
106.671
20
-158.451
11
106.766
21
-158.546
0
LINE
8
BLACK
6
CONTINUOUS
10
106.766
20
-158.546
11
106.861
21
-158.737
0
LINE
8
BLACK
6
CONTINUOUS
10
106.861
20
-158.737
11
106.956
21
-159.118
0
LINE
8
BLACK
6
CONTINUOUS
10
106.956
20
-159.118
11
106.956
21
-159.594
0
LINE
8
BLACK
6
CONTINUOUS
10
106.956
20
-159.594
11
106.861
21
-159.975
0
LINE
8
BLACK
6
CONTINUOUS
10
106.861
20
-159.975
11
106.766
21
-160.165
0
LINE
8
BLACK
6
CONTINUOUS
10
106.766
20
-160.165
11
106.671
21
-160.261
0
LINE
8
BLACK
6
CONTINUOUS
10
106.671
20
-160.261
11
106.48
21
-160.356
0
LINE
8
BLACK
6
CONTINUOUS
10
106.48
20
-160.356
11
106.29
21
-160.356
0
LINE
8
BLACK
6
CONTINUOUS
10
106.29
20
-160.356
11
106.099
21
-160.261
0
LINE
8
BLACK
6
CONTINUOUS
10
106.099
20
-160.261
11
106.004
21
-160.165
0
LINE
8
BLACK
6
CONTINUOUS
10
106.004
20
-160.165
11
105.909
21
-159.975
0
LINE
8
BLACK
6
CONTINUOUS
10
105.909
20
-159.975
11
105.813
21
-159.594
0
LINE
8
BLACK
6
CONTINUOUS
10
105.813
20
-159.594
11
105.813
21
-159.118
0
LINE
8
BLACK
6
CONTINUOUS
10
105.813
20
-159.118
11
105.909
21
-158.737
0
LINE
8
BLACK
6
CONTINUOUS
10
105.909
20
-158.737
11
106.004
21
-158.546
0
LINE
8
BLACK
6
CONTINUOUS
10
106.004
20
-158.546
11
106.099
21
-158.451
0
LINE
8
BLACK
6
CONTINUOUS
10
106.099
20
-158.451
11
106.29
21
-158.356
0
LINE
8
BLACK
6
CONTINUOUS
10
107.813
20
-160.356
11
107.813
21
-159.022
0
LINE
8
BLACK
6
CONTINUOUS
10
107.813
20
-159.213
11
107.909
21
-159.118
0
LINE
8
BLACK
6
CONTINUOUS
10
107.909
20
-159.118
11
108.099
21
-159.022
0
LINE
8
BLACK
6
CONTINUOUS
10
108.099
20
-159.022
11
108.385
21
-159.022
0
LINE
8
BLACK
6
CONTINUOUS
10
108.385
20
-159.022
11
108.575
21
-159.118
0
LINE
8
BLACK
6
CONTINUOUS
10
108.575
20
-159.118
11
108.671
21
-159.308
0
LINE
8
BLACK
6
CONTINUOUS
10
108.671
20
-159.308
11
108.671
21
-160.356
0
LINE
8
BLACK
6
CONTINUOUS
10
108.671
20
-159.308
11
108.766
21
-159.118
0
LINE
8
BLACK
6
CONTINUOUS
10
108.766
20
-159.118
11
108.956
21
-159.022
0
LINE
8
BLACK
6
CONTINUOUS
10
108.956
20
-159.022
11
109.242
21
-159.022
0
LINE
8
BLACK
6
CONTINUOUS
10
109.242
20
-159.022
11
109.432
21
-159.118
0
LINE
8
BLACK
6
CONTINUOUS
10
109.432
20
-159.118
11
109.528
21
-159.308
0
LINE
8
BLACK
6
CONTINUOUS
10
109.528
20
-159.308
11
109.528
21
-160.356
0
LINE
8
BLACK
6
CONTINUOUS
10
110.48
20
-160.356
11
110.48
21
-159.022
0
LINE
8
BLACK
6
CONTINUOUS
10
110.48
20
-159.213
11
110.575
21
-159.118
0
LINE
8
BLACK
6
CONTINUOUS
10
110.575
20
-159.118
11
110.766
21
-159.022
0
LINE
8
BLACK
6
CONTINUOUS
10
110.766
20
-159.022
11
111.052
21
-159.022
0
LINE
8
BLACK
6
CONTINUOUS
10
111.052
20
-159.022
11
111.242
21
-159.118
0
LINE
8
BLACK
6
CONTINUOUS
10
111.242
20
-159.118
11
111.337
21
-159.308
0
LINE
8
BLACK
6
CONTINUOUS
10
111.337
20
-159.308
11
111.337
21
-160.356
0
LINE
8
BLACK
6
CONTINUOUS
10
111.337
20
-159.308
11
111.432
21
-159.118
0
LINE
8
BLACK
6
CONTINUOUS
10
111.432
20
-159.118
11
111.623
21
-159.022
0
LINE
8
BLACK
6
CONTINUOUS
10
111.623
20
-159.022
11
111.909
21
-159.022
0
LINE
8
BLACK
6
CONTINUOUS
10
111.909
20
-159.022
11
112.099
21
-159.118
0
LINE
8
BLACK
6
CONTINUOUS
10
112.099
20
-159.118
11
112.194
21
-159.308
0
LINE
8
BLACK
6
CONTINUOUS
10
112.194
20
-159.308
11
112.194
21
-160.356
0
LINE
8
BLACK
6
CONTINUOUS
10
115.775
20
-158.261
11
114.061
21
-160.832
0
LINE
8
BLACK
6
CONTINUOUS
10
118.023
20
-158.356
11
118.213
21
-158.356
0
LINE
8
BLACK
6
CONTINUOUS
10
118.213
20
-158.356
11
118.404
21
-158.451
0
LINE
8
BLACK
6
CONTINUOUS
10
118.404
20
-158.451
11
118.499
21
-158.546
0
LINE
8
BLACK
6
CONTINUOUS
10
118.499
20
-158.546
11
118.594
21
-158.737
0
LINE
8
BLACK
6
CONTINUOUS
10
118.594
20
-158.737
11
118.69
21
-159.118
0
LINE
8
BLACK
6
CONTINUOUS
10
118.69
20
-159.118
11
118.69
21
-159.594
0
LINE
8
BLACK
6
CONTINUOUS
10
118.69
20
-159.594
11
118.594
21
-159.975
0
LINE
8
BLACK
6
CONTINUOUS
10
118.594
20
-159.975
11
118.499
21
-160.165
0
LINE
8
BLACK
6
CONTINUOUS
10
118.499
20
-160.165
11
118.404
21
-160.261
0
LINE
8
BLACK
6
CONTINUOUS
10
118.404
20
-160.261
11
118.213
21
-160.356
0
LINE
8
BLACK
6
CONTINUOUS
10
118.213
20
-160.356
11
118.023
21
-160.356
0
LINE
8
BLACK
6
CONTINUOUS
10
118.023
20
-160.356
11
117.832
21
-160.261
0
LINE
8
BLACK
6
CONTINUOUS
10
117.832
20
-160.261
11
117.737
21
-160.165
0
LINE
8
BLACK
6
CONTINUOUS
10
117.737
20
-160.165
11
117.642
21
-159.975
0
LINE
8
BLACK
6
CONTINUOUS
10
117.642
20
-159.975
11
117.547
21
-159.594
0
LINE
8
BLACK
6
CONTINUOUS
10
117.547
20
-159.594
11
117.547
21
-159.118
0
LINE
8
BLACK
6
CONTINUOUS
10
117.547
20
-159.118
11
117.642
21
-158.737
0
LINE
8
BLACK
6
CONTINUOUS
10
117.642
20
-158.737
11
117.737
21
-158.546
0
LINE
8
BLACK
6
CONTINUOUS
10
117.737
20
-158.546
11
117.832
21
-158.451
0
LINE
8
BLACK
6
CONTINUOUS
10
117.832
20
-158.451
11
118.023
21
-158.356
0
LINE
8
BLACK
6
CONTINUOUS
10
119.547
20
-160.165
11
119.642
21
-160.261
0
LINE
8
BLACK
6
CONTINUOUS
10
119.642
20
-160.261
11
119.547
21
-160.356
0
LINE
8
BLACK
6
CONTINUOUS
10
119.547
20
-160.356
11
119.452
21
-160.261
0
LINE
8
BLACK
6
CONTINUOUS
10
119.452
20
-160.261
11
119.547
21
-160.165
0
LINE
8
BLACK
6
CONTINUOUS
10
119.547
20
-160.165
11
119.547
21
-160.356
0
LINE
8
BLACK
6
CONTINUOUS
10
120.88
20
-158.356
11
121.071
21
-158.356
0
LINE
8
BLACK
6
CONTINUOUS
10
121.071
20
-158.356
11
121.261
21
-158.451
0
LINE
8
BLACK
6
CONTINUOUS
10
121.261
20
-158.451
11
121.356
21
-158.546
0
LINE
8
BLACK
6
CONTINUOUS
10
121.356
20
-158.546
11
121.452
21
-158.737
0
LINE
8
BLACK
6
CONTINUOUS
10
121.452
20
-158.737
11
121.547
21
-159.118
0
LINE
8
BLACK
6
CONTINUOUS
10
121.547
20
-159.118
11
121.547
21
-159.594
0
LINE
8
BLACK
6
CONTINUOUS
10
121.547
20
-159.594
11
121.452
21
-159.975
0
LINE
8
BLACK
6
CONTINUOUS
10
121.452
20
-159.975
11
121.356
21
-160.165
0
LINE
8
BLACK
6
CONTINUOUS
10
121.356
20
-160.165
11
121.261
21
-160.261
0
LINE
8
BLACK
6
CONTINUOUS
10
121.261
20
-160.261
11
121.071
21
-160.356
0
LINE
8
BLACK
6
CONTINUOUS
10
121.071
20
-160.356
11
120.88
21
-160.356
0
LINE
8
BLACK
6
CONTINUOUS
10
120.88
20
-160.356
11
120.69
21
-160.261
0
LINE
8
BLACK
6
CONTINUOUS
10
120.69
20
-160.261
11
120.594
21
-160.165
0
LINE
8
BLACK
6
CONTINUOUS
10
120.594
20
-160.165
11
120.499
21
-159.975
0
LINE
8
BLACK
6
CONTINUOUS
10
120.499
20
-159.975
11
120.404
21
-159.594
0
LINE
8
BLACK
6
CONTINUOUS
10
120.404
20
-159.594
11
120.404
21
-159.118
0
LINE
8
BLACK
6
CONTINUOUS
10
120.404
20
-159.118
11
120.499
21
-158.737
0
LINE
8
BLACK
6
CONTINUOUS
10
120.499
20
-158.737
11
120.594
21
-158.546
0
LINE
8
BLACK
6
CONTINUOUS
10
120.594
20
-158.546
11
120.69
21
-158.451
0
LINE
8
BLACK
6
CONTINUOUS
10
120.69
20
-158.451
11
120.88
21
-158.356
0
LINE
8
BLACK
6
CONTINUOUS
10
123.261
20
-159.022
11
123.261
21
-160.356
0
LINE
8
BLACK
6
CONTINUOUS
10
122.785
20
-158.261
11
122.309
21
-159.689
0
LINE
8
BLACK
6
CONTINUOUS
10
122.309
20
-159.689
11
123.547
21
-159.689
0
LINE
8
BLACK
6
CONTINUOUS
10
124.118
20
-158.356
11
125.356
21
-158.356
0
LINE
8
BLACK
6
CONTINUOUS
10
125.356
20
-158.356
11
124.69
21
-159.118
0
LINE
8
BLACK
6
CONTINUOUS
10
124.69
20
-159.118
11
124.975
21
-159.118
0
LINE
8
BLACK
6
CONTINUOUS
10
124.975
20
-159.118
11
125.166
21
-159.213
0
LINE
8
BLACK
6
CONTINUOUS
10
125.166
20
-159.213
11
125.261
21
-159.308
0
LINE
8
BLACK
6
CONTINUOUS
10
125.261
20
-159.308
11
125.356
21
-159.499
0
LINE
8
BLACK
6
CONTINUOUS
10
125.356
20
-159.499
11
125.356
21
-159.975
0
LINE
8
BLACK
6
CONTINUOUS
10
125.356
20
-159.975
11
125.261
21
-160.165
0
LINE
8
BLACK
6
CONTINUOUS
10
125.261
20
-160.165
11
125.166
21
-160.261
0
LINE
8
BLACK
6
CONTINUOUS
10
125.166
20
-160.261
11
124.975
21
-160.356
0
LINE
8
BLACK
6
CONTINUOUS
10
124.975
20
-160.356
11
124.404
21
-160.356
0
LINE
8
BLACK
6
CONTINUOUS
10
124.404
20
-160.356
11
124.213
21
-160.261
0
LINE
8
BLACK
6
CONTINUOUS
10
124.213
20
-160.261
11
124.118
21
-160.165
0
LINE
8
BLACK
6
CONTINUOUS
10
126.023
20
-158.356
11
127.261
21
-158.356
0
LINE
8
BLACK
6
CONTINUOUS
10
127.261
20
-158.356
11
126.594
21
-159.118
0
LINE
8
BLACK
6
CONTINUOUS
10
126.594
20
-159.118
11
126.88
21
-159.118
0
LINE
8
BLACK
6
CONTINUOUS
10
126.88
20
-159.118
11
127.071
21
-159.213
0
LINE
8
BLACK
6
CONTINUOUS
10
127.071
20
-159.213
11
127.166
21
-159.308
0
LINE
8
BLACK
6
CONTINUOUS
10
127.166
20
-159.308
11
127.261
21
-159.499
0
LINE
8
BLACK
6
CONTINUOUS
10
127.261
20
-159.499
11
127.261
21
-159.975
0
LINE
8
BLACK
6
CONTINUOUS
10
127.261
20
-159.975
11
127.166
21
-160.165
0
LINE
8
BLACK
6
CONTINUOUS
10
127.166
20
-160.165
11
127.071
21
-160.261
0
LINE
8
BLACK
6
CONTINUOUS
10
127.071
20
-160.261
11
126.88
21
-160.356
0
LINE
8
BLACK
6
CONTINUOUS
10
126.88
20
-160.356
11
126.309
21
-160.356
0
LINE
8
BLACK
6
CONTINUOUS
10
126.309
20
-160.356
11
126.118
21
-160.261
0
LINE
8
BLACK
6
CONTINUOUS
10
126.118
20
-160.261
11
126.023
21
-160.165
0
LINE
8
BLACK
6
CONTINUOUS
10
128.023
20
-158.356
11
128.023
21
-158.737
0
LINE
8
BLACK
6
CONTINUOUS
10
128.785
20
-158.356
11
128.785
21
-158.737
0
LINE
8
BLACK
6
CONTINUOUS
10
131.413
20
-161.118
11
131.318
21
-161.022
0
LINE
8
BLACK
6
CONTINUOUS
10
131.318
20
-161.022
11
131.128
21
-160.737
0
LINE
8
BLACK
6
CONTINUOUS
10
131.128
20
-160.737
11
131.032
21
-160.546
0
LINE
8
BLACK
6
CONTINUOUS
10
131.032
20
-160.546
11
130.937
21
-160.261
0
LINE
8
BLACK
6
CONTINUOUS
10
130.937
20
-160.261
11
130.842
21
-159.784
0
LINE
8
BLACK
6
CONTINUOUS
10
130.842
20
-159.784
11
130.842
21
-159.403
0
LINE
8
BLACK
6
CONTINUOUS
10
130.842
20
-159.403
11
130.937
21
-158.927
0
LINE
8
BLACK
6
CONTINUOUS
10
130.937
20
-158.927
11
131.032
21
-158.641
0
LINE
8
BLACK
6
CONTINUOUS
10
131.032
20
-158.641
11
131.128
21
-158.451
0
LINE
8
BLACK
6
CONTINUOUS
10
131.128
20
-158.451
11
131.318
21
-158.165
0
LINE
8
BLACK
6
CONTINUOUS
10
131.318
20
-158.165
11
131.413
21
-158.07
0
LINE
8
BLACK
6
CONTINUOUS
10
133.223
20
-160.356
11
132.08
21
-160.356
0
LINE
8
BLACK
6
CONTINUOUS
10
132.652
20
-160.356
11
132.652
21
-158.356
0
LINE
8
BLACK
6
CONTINUOUS
10
132.652
20
-158.356
11
132.461
21
-158.641
0
LINE
8
BLACK
6
CONTINUOUS
10
132.461
20
-158.641
11
132.271
21
-158.832
0
LINE
8
BLACK
6
CONTINUOUS
10
132.271
20
-158.832
11
132.08
21
-158.927
0
LINE
8
BLACK
6
CONTINUOUS
10
135.28
20
-160.356
11
135.28
21
-158.356
0
LINE
8
BLACK
6
CONTINUOUS
10
136.137
20
-160.356
11
136.137
21
-159.308
0
LINE
8
BLACK
6
CONTINUOUS
10
136.137
20
-159.308
11
136.042
21
-159.118
0
LINE
8
BLACK
6
CONTINUOUS
10
136.042
20
-159.118
11
135.852
21
-159.022
0
LINE
8
BLACK
6
CONTINUOUS
10
135.852
20
-159.022
11
135.566
21
-159.022
0
LINE
8
BLACK
6
CONTINUOUS
10
135.566
20
-159.022
11
135.375
21
-159.118
0
LINE
8
BLACK
6
CONTINUOUS
10
135.375
20
-159.118
11
135.28
21
-159.213
0
LINE
8
BLACK
6
CONTINUOUS
10
137.375
20
-160.356
11
137.185
21
-160.261
0
LINE
8
BLACK
6
CONTINUOUS
10
137.185
20
-160.261
11
137.09
21
-160.165
0
LINE
8
BLACK
6
CONTINUOUS
10
137.09
20
-160.165
11
136.994
21
-159.975
0
LINE
8
BLACK
6
CONTINUOUS
10
136.994
20
-159.975
11
136.994
21
-159.403
0
LINE
8
BLACK
6
CONTINUOUS
10
136.994
20
-159.403
11
137.09
21
-159.213
0
LINE
8
BLACK
6
CONTINUOUS
10
137.09
20
-159.213
11
137.185
21
-159.118
0
LINE
8
BLACK
6
CONTINUOUS
10
137.185
20
-159.118
11
137.375
21
-159.022
0
LINE
8
BLACK
6
CONTINUOUS
10
137.375
20
-159.022
11
137.661
21
-159.022
0
LINE
8
BLACK
6
CONTINUOUS
10
137.661
20
-159.022
11
137.852
21
-159.118
0
LINE
8
BLACK
6
CONTINUOUS
10
137.852
20
-159.118
11
137.947
21
-159.213
0
LINE
8
BLACK
6
CONTINUOUS
10
137.947
20
-159.213
11
138.042
21
-159.403
0
LINE
8
BLACK
6
CONTINUOUS
10
138.042
20
-159.403
11
138.042
21
-159.975
0
LINE
8
BLACK
6
CONTINUOUS
10
138.042
20
-159.975
11
137.947
21
-160.165
0
LINE
8
BLACK
6
CONTINUOUS
10
137.947
20
-160.165
11
137.852
21
-160.261
0
LINE
8
BLACK
6
CONTINUOUS
10
137.852
20
-160.261
11
137.661
21
-160.356
0
LINE
8
BLACK
6
CONTINUOUS
10
137.661
20
-160.356
11
137.375
21
-160.356
0
LINE
8
BLACK
6
CONTINUOUS
10
139.185
20
-160.356
11
138.994
21
-160.261
0
LINE
8
BLACK
6
CONTINUOUS
10
138.994
20
-160.261
11
138.899
21
-160.07
0
LINE
8
BLACK
6
CONTINUOUS
10
138.899
20
-160.07
11
138.899
21
-158.356
0
LINE
8
BLACK
6
CONTINUOUS
10
140.709
20
-160.261
11
140.518
21
-160.356
0
LINE
8
BLACK
6
CONTINUOUS
10
140.518
20
-160.356
11
140.137
21
-160.356
0
LINE
8
BLACK
6
CONTINUOUS
10
140.137
20
-160.356
11
139.947
21
-160.261
0
LINE
8
BLACK
6
CONTINUOUS
10
139.947
20
-160.261
11
139.852
21
-160.07
0
LINE
8
BLACK
6
CONTINUOUS
10
139.852
20
-160.07
11
139.852
21
-159.308
0
LINE
8
BLACK
6
CONTINUOUS
10
139.852
20
-159.308
11
139.947
21
-159.118
0
LINE
8
BLACK
6
CONTINUOUS
10
139.947
20
-159.118
11
140.137
21
-159.022
0
LINE
8
BLACK
6
CONTINUOUS
10
140.137
20
-159.022
11
140.518
21
-159.022
0
LINE
8
BLACK
6
CONTINUOUS
10
140.518
20
-159.022
11
140.709
21
-159.118
0
LINE
8
BLACK
6
CONTINUOUS
10
140.709
20
-159.118
11
140.804
21
-159.308
0
LINE
8
BLACK
6
CONTINUOUS
10
140.804
20
-159.308
11
140.804
21
-159.499
0
LINE
8
BLACK
6
CONTINUOUS
10
140.804
20
-159.499
11
139.852
21
-159.689
0
LINE
8
BLACK
6
CONTINUOUS
10
141.471
20
-161.118
11
141.566
21
-161.022
0
LINE
8
BLACK
6
CONTINUOUS
10
141.566
20
-161.022
11
141.756
21
-160.737
0
LINE
8
BLACK
6
CONTINUOUS
10
141.756
20
-160.737
11
141.852
21
-160.546
0
LINE
8
BLACK
6
CONTINUOUS
10
141.852
20
-160.546
11
141.947
21
-160.261
0
LINE
8
BLACK
6
CONTINUOUS
10
141.947
20
-160.261
11
142.042
21
-159.784
0
LINE
8
BLACK
6
CONTINUOUS
10
142.042
20
-159.784
11
142.042
21
-159.403
0
LINE
8
BLACK
6
CONTINUOUS
10
142.042
20
-159.403
11
141.947
21
-158.927
0
LINE
8
BLACK
6
CONTINUOUS
10
141.947
20
-158.927
11
141.852
21
-158.641
0
LINE
8
BLACK
6
CONTINUOUS
10
141.852
20
-158.641
11
141.756
21
-158.451
0
LINE
8
BLACK
6
CONTINUOUS
10
141.756
20
-158.451
11
141.566
21
-158.165
0
LINE
8
BLACK
6
CONTINUOUS
10
141.566
20
-158.165
11
141.471
21
-158.07
0
LINE
8
BLACK
6
CONTINUOUS
10
144.766
20
-161.118
11
144.671
21
-161.022
0
LINE
8
BLACK
6
CONTINUOUS
10
144.671
20
-161.022
11
144.48
21
-160.737
0
LINE
8
BLACK
6
CONTINUOUS
10
144.48
20
-160.737
11
144.385
21
-160.546
0
LINE
8
BLACK
6
CONTINUOUS
10
144.385
20
-160.546
11
144.29
21
-160.261
0
LINE
8
BLACK
6
CONTINUOUS
10
144.29
20
-160.261
11
144.194
21
-159.784
0
LINE
8
BLACK
6
CONTINUOUS
10
144.194
20
-159.784
11
144.194
21
-159.403
0
LINE
8
BLACK
6
CONTINUOUS
10
144.194
20
-159.403
11
144.29
21
-158.927
0
LINE
8
BLACK
6
CONTINUOUS
10
144.29
20
-158.927
11
144.385
21
-158.641
0
LINE
8
BLACK
6
CONTINUOUS
10
144.385
20
-158.641
11
144.48
21
-158.451
0
LINE
8
BLACK
6
CONTINUOUS
10
144.48
20
-158.451
11
144.671
21
-158.165
0
LINE
8
BLACK
6
CONTINUOUS
10
144.671
20
-158.165
11
144.766
21
-158.07
0
LINE
8
BLACK
6
CONTINUOUS
10
145.528
20
-159.022
11
145.528
21
-160.356
0
LINE
8
BLACK
6
CONTINUOUS
10
145.528
20
-159.213
11
145.623
21
-159.118
0
LINE
8
BLACK
6
CONTINUOUS
10
145.623
20
-159.118
11
145.813
21
-159.022
0
LINE
8
BLACK
6
CONTINUOUS
10
145.813
20
-159.022
11
146.099
21
-159.022
0
LINE
8
BLACK
6
CONTINUOUS
10
146.099
20
-159.022
11
146.29
21
-159.118
0
LINE
8
BLACK
6
CONTINUOUS
10
146.29
20
-159.118
11
146.385
21
-159.308
0
LINE
8
BLACK
6
CONTINUOUS
10
146.385
20
-159.308
11
146.385
21
-160.356
0
LINE
8
BLACK
6
CONTINUOUS
10
147.623
20
-160.356
11
147.432
21
-160.261
0
LINE
8
BLACK
6
CONTINUOUS
10
147.432
20
-160.261
11
147.337
21
-160.165
0
LINE
8
BLACK
6
CONTINUOUS
10
147.337
20
-160.165
11
147.242
21
-159.975
0
LINE
8
BLACK
6
CONTINUOUS
10
147.242
20
-159.975
11
147.242
21
-159.403
0
LINE
8
BLACK
6
CONTINUOUS
10
147.242
20
-159.403
11
147.337
21
-159.213
0
LINE
8
BLACK
6
CONTINUOUS
10
147.337
20
-159.213
11
147.432
21
-159.118
0
LINE
8
BLACK
6
CONTINUOUS
10
147.432
20
-159.118
11
147.623
21
-159.022
0
LINE
8
BLACK
6
CONTINUOUS
10
147.623
20
-159.022
11
147.909
21
-159.022
0
LINE
8
BLACK
6
CONTINUOUS
10
147.909
20
-159.022
11
148.099
21
-159.118
0
LINE
8
BLACK
6
CONTINUOUS
10
148.099
20
-159.118
11
148.194
21
-159.213
0
LINE
8
BLACK
6
CONTINUOUS
10
148.194
20
-159.213
11
148.29
21
-159.403
0
LINE
8
BLACK
6
CONTINUOUS
10
148.29
20
-159.403
11
148.29
21
-159.975
0
LINE
8
BLACK
6
CONTINUOUS
10
148.29
20
-159.975
11
148.194
21
-160.165
0
LINE
8
BLACK
6
CONTINUOUS
10
148.194
20
-160.165
11
148.099
21
-160.261
0
LINE
8
BLACK
6
CONTINUOUS
10
148.099
20
-160.261
11
147.909
21
-160.356
0
LINE
8
BLACK
6
CONTINUOUS
10
147.909
20
-160.356
11
147.623
21
-160.356
0
LINE
8
BLACK
6
CONTINUOUS
10
148.861
20
-159.022
11
149.623
21
-159.022
0
LINE
8
BLACK
6
CONTINUOUS
10
149.147
20
-158.356
11
149.147
21
-160.07
0
LINE
8
BLACK
6
CONTINUOUS
10
149.147
20
-160.07
11
149.242
21
-160.261
0
LINE
8
BLACK
6
CONTINUOUS
10
149.242
20
-160.261
11
149.432
21
-160.356
0
LINE
8
BLACK
6
CONTINUOUS
10
149.432
20
-160.356
11
149.623
21
-160.356
0
LINE
8
BLACK
6
CONTINUOUS
10
151.49
20
-159.022
11
151.49
21
-161.022
0
LINE
8
BLACK
6
CONTINUOUS
10
151.49
20
-159.118
11
151.68
21
-159.022
0
LINE
8
BLACK
6
CONTINUOUS
10
151.68
20
-159.022
11
152.061
21
-159.022
0
LINE
8
BLACK
6
CONTINUOUS
10
152.061
20
-159.022
11
152.252
21
-159.118
0
LINE
8
BLACK
6
CONTINUOUS
10
152.252
20
-159.118
11
152.347
21
-159.213
0
LINE
8
BLACK
6
CONTINUOUS
10
152.347
20
-159.213
11
152.442
21
-159.403
0
LINE
8
BLACK
6
CONTINUOUS
10
152.442
20
-159.403
11
152.442
21
-159.975
0
LINE
8
BLACK
6
CONTINUOUS
10
152.442
20
-159.975
11
152.347
21
-160.165
0
LINE
8
BLACK
6
CONTINUOUS
10
152.347
20
-160.165
11
152.252
21
-160.261
0
LINE
8
BLACK
6
CONTINUOUS
10
152.252
20
-160.261
11
152.061
21
-160.356
0
LINE
8
BLACK
6
CONTINUOUS
10
152.061
20
-160.356
11
151.68
21
-160.356
0
LINE
8
BLACK
6
CONTINUOUS
10
151.68
20
-160.356
11
151.49
21
-160.261
0
LINE
8
BLACK
6
CONTINUOUS
10
153.585
20
-160.356
11
153.394
21
-160.261
0
LINE
8
BLACK
6
CONTINUOUS
10
153.394
20
-160.261
11
153.299
21
-160.07
0
LINE
8
BLACK
6
CONTINUOUS
10
153.299
20
-160.07
11
153.299
21
-158.356
0
LINE
8
BLACK
6
CONTINUOUS
10
155.204
20
-160.356
11
155.204
21
-159.308
0
LINE
8
BLACK
6
CONTINUOUS
10
155.204
20
-159.308
11
155.109
21
-159.118
0
LINE
8
BLACK
6
CONTINUOUS
10
155.109
20
-159.118
11
154.918
21
-159.022
0
LINE
8
BLACK
6
CONTINUOUS
10
154.918
20
-159.022
11
154.537
21
-159.022
0
LINE
8
BLACK
6
CONTINUOUS
10
154.537
20
-159.022
11
154.347
21
-159.118
0
LINE
8
BLACK
6
CONTINUOUS
10
155.204
20
-160.261
11
155.013
21
-160.356
0
LINE
8
BLACK
6
CONTINUOUS
10
155.013
20
-160.356
11
154.537
21
-160.356
0
LINE
8
BLACK
6
CONTINUOUS
10
154.537
20
-160.356
11
154.347
21
-160.261
0
LINE
8
BLACK
6
CONTINUOUS
10
154.347
20
-160.261
11
154.252
21
-160.07
0
LINE
8
BLACK
6
CONTINUOUS
10
154.252
20
-160.07
11
154.252
21
-159.88
0
LINE
8
BLACK
6
CONTINUOUS
10
154.252
20
-159.88
11
154.347
21
-159.689
0
LINE
8
BLACK
6
CONTINUOUS
10
154.347
20
-159.689
11
154.537
21
-159.594
0
LINE
8
BLACK
6
CONTINUOUS
10
154.537
20
-159.594
11
155.013
21
-159.594
0
LINE
8
BLACK
6
CONTINUOUS
10
155.013
20
-159.594
11
155.204
21
-159.499
0
LINE
8
BLACK
6
CONTINUOUS
10
155.871
20
-159.022
11
156.632
21
-159.022
0
LINE
8
BLACK
6
CONTINUOUS
10
156.156
20
-158.356
11
156.156
21
-160.07
0
LINE
8
BLACK
6
CONTINUOUS
10
156.156
20
-160.07
11
156.252
21
-160.261
0
LINE
8
BLACK
6
CONTINUOUS
10
156.252
20
-160.261
11
156.442
21
-160.356
0
LINE
8
BLACK
6
CONTINUOUS
10
156.442
20
-160.356
11
156.632
21
-160.356
0
LINE
8
BLACK
6
CONTINUOUS
10
158.061
20
-160.261
11
157.871
21
-160.356
0
LINE
8
BLACK
6
CONTINUOUS
10
157.871
20
-160.356
11
157.49
21
-160.356
0
LINE
8
BLACK
6
CONTINUOUS
10
157.49
20
-160.356
11
157.299
21
-160.261
0
LINE
8
BLACK
6
CONTINUOUS
10
157.299
20
-160.261
11
157.204
21
-160.07
0
LINE
8
BLACK
6
CONTINUOUS
10
157.204
20
-160.07
11
157.204
21
-159.308
0
LINE
8
BLACK
6
CONTINUOUS
10
157.204
20
-159.308
11
157.299
21
-159.118
0
LINE
8
BLACK
6
CONTINUOUS
10
157.299
20
-159.118
11
157.49
21
-159.022
0
LINE
8
BLACK
6
CONTINUOUS
10
157.49
20
-159.022
11
157.871
21
-159.022
0
LINE
8
BLACK
6
CONTINUOUS
10
157.871
20
-159.022
11
158.061
21
-159.118
0
LINE
8
BLACK
6
CONTINUOUS
10
158.061
20
-159.118
11
158.156
21
-159.308
0
LINE
8
BLACK
6
CONTINUOUS
10
158.156
20
-159.308
11
158.156
21
-159.499
0
LINE
8
BLACK
6
CONTINUOUS
10
158.156
20
-159.499
11
157.204
21
-159.689
0
LINE
8
BLACK
6
CONTINUOUS
10
159.871
20
-160.356
11
159.871
21
-158.356
0
LINE
8
BLACK
6
CONTINUOUS
10
159.871
20
-160.261
11
159.68
21
-160.356
0
LINE
8
BLACK
6
CONTINUOUS
10
159.68
20
-160.356
11
159.299
21
-160.356
0
LINE
8
BLACK
6
CONTINUOUS
10
159.299
20
-160.356
11
159.109
21
-160.261
0
LINE
8
BLACK
6
CONTINUOUS
10
159.109
20
-160.261
11
159.013
21
-160.165
0
LINE
8
BLACK
6
CONTINUOUS
10
159.013
20
-160.165
11
158.918
21
-159.975
0
LINE
8
BLACK
6
CONTINUOUS
10
158.918
20
-159.975
11
158.918
21
-159.403
0
LINE
8
BLACK
6
CONTINUOUS
10
158.918
20
-159.403
11
159.013
21
-159.213
0
LINE
8
BLACK
6
CONTINUOUS
10
159.013
20
-159.213
11
159.109
21
-159.118
0
LINE
8
BLACK
6
CONTINUOUS
10
159.109
20
-159.118
11
159.299
21
-159.022
0
LINE
8
BLACK
6
CONTINUOUS
10
159.299
20
-159.022
11
159.68
21
-159.022
0
LINE
8
BLACK
6
CONTINUOUS
10
159.68
20
-159.022
11
159.871
21
-159.118
0
LINE
8
BLACK
6
CONTINUOUS
10
160.632
20
-161.118
11
160.728
21
-161.022
0
LINE
8
BLACK
6
CONTINUOUS
10
160.728
20
-161.022
11
160.918
21
-160.737
0
LINE
8
BLACK
6
CONTINUOUS
10
160.918
20
-160.737
11
161.013
21
-160.546
0
LINE
8
BLACK
6
CONTINUOUS
10
161.013
20
-160.546
11
161.109
21
-160.261
0
LINE
8
BLACK
6
CONTINUOUS
10
161.109
20
-160.261
11
161.204
21
-159.784
0
LINE
8
BLACK
6
CONTINUOUS
10
161.204
20
-159.784
11
161.204
21
-159.403
0
LINE
8
BLACK
6
CONTINUOUS
10
161.204
20
-159.403
11
161.109
21
-158.927
0
LINE
8
BLACK
6
CONTINUOUS
10
161.109
20
-158.927
11
161.013
21
-158.641
0
LINE
8
BLACK
6
CONTINUOUS
10
161.013
20
-158.641
11
160.918
21
-158.451
0
LINE
8
BLACK
6
CONTINUOUS
10
160.918
20
-158.451
11
160.728
21
-158.165
0
LINE
8
BLACK
6
CONTINUOUS
10
160.728
20
-158.165
11
160.632
21
-158.07
0
CIRCLE
8
BLACK
10
96.0158
20
-162.261
40
0.75
0
LINE
8
BLACK
6
CONTINUOUS
10
100.29
20
-162.996
11
99.1468
21
-162.996
0
LINE
8
BLACK
6
CONTINUOUS
10
99.7182
20
-162.996
11
99.7182
21
-160.996
0
LINE
8
BLACK
6
CONTINUOUS
10
99.7182
20
-160.996
11
99.5277
21
-161.281
0
LINE
8
BLACK
6
CONTINUOUS
10
99.5277
20
-161.281
11
99.3372
21
-161.472
0
LINE
8
BLACK
6
CONTINUOUS
10
99.3372
20
-161.472
11
99.1468
21
-161.567
0
LINE
8
BLACK
6
CONTINUOUS
10
101.147
20
-162.805
11
101.242
21
-162.901
0
LINE
8
BLACK
6
CONTINUOUS
10
101.242
20
-162.901
11
101.147
21
-162.996
0
LINE
8
BLACK
6
CONTINUOUS
10
101.147
20
-162.996
11
101.052
21
-162.901
0
LINE
8
BLACK
6
CONTINUOUS
10
101.052
20
-162.901
11
101.147
21
-162.805
0
LINE
8
BLACK
6
CONTINUOUS
10
101.147
20
-162.805
11
101.147
21
-162.996
0
LINE
8
BLACK
6
CONTINUOUS
10
103.052
20
-160.996
11
102.099
21
-160.996
0
LINE
8
BLACK
6
CONTINUOUS
10
102.099
20
-160.996
11
102.004
21
-161.948
0
LINE
8
BLACK
6
CONTINUOUS
10
102.004
20
-161.948
11
102.099
21
-161.853
0
LINE
8
BLACK
6
CONTINUOUS
10
102.099
20
-161.853
11
102.29
21
-161.758
0
LINE
8
BLACK
6
CONTINUOUS
10
102.29
20
-161.758
11
102.766
21
-161.758
0
LINE
8
BLACK
6
CONTINUOUS
10
102.766
20
-161.758
11
102.956
21
-161.853
0
LINE
8
BLACK
6
CONTINUOUS
10
102.956
20
-161.853
11
103.052
21
-161.948
0
LINE
8
BLACK
6
CONTINUOUS
10
103.052
20
-161.948
11
103.147
21
-162.139
0
LINE
8
BLACK
6
CONTINUOUS
10
103.147
20
-162.139
11
103.147
21
-162.615
0
LINE
8
BLACK
6
CONTINUOUS
10
103.147
20
-162.615
11
103.052
21
-162.805
0
LINE
8
BLACK
6
CONTINUOUS
10
103.052
20
-162.805
11
102.956
21
-162.901
0
LINE
8
BLACK
6
CONTINUOUS
10
102.956
20
-162.901
11
102.766
21
-162.996
0
LINE
8
BLACK
6
CONTINUOUS
10
102.766
20
-162.996
11
102.29
21
-162.996
0
LINE
8
BLACK
6
CONTINUOUS
10
102.29
20
-162.996
11
102.099
21
-162.901
0
LINE
8
BLACK
6
CONTINUOUS
10
102.099
20
-162.901
11
102.004
21
-162.805
0
LINE
8
BLACK
6
CONTINUOUS
10
104.385
20
-160.996
11
104.575
21
-160.996
0
LINE
8
BLACK
6
CONTINUOUS
10
104.575
20
-160.996
11
104.766
21
-161.091
0
LINE
8
BLACK
6
CONTINUOUS
10
104.766
20
-161.091
11
104.861
21
-161.186
0
LINE
8
BLACK
6
CONTINUOUS
10
104.861
20
-161.186
11
104.956
21
-161.377
0
LINE
8
BLACK
6
CONTINUOUS
10
104.956
20
-161.377
11
105.052
21
-161.758
0
LINE
8
BLACK
6
CONTINUOUS
10
105.052
20
-161.758
11
105.052
21
-162.234
0
LINE
8
BLACK
6
CONTINUOUS
10
105.052
20
-162.234
11
104.956
21
-162.615
0
LINE
8
BLACK
6
CONTINUOUS
10
104.956
20
-162.615
11
104.861
21
-162.805
0
LINE
8
BLACK
6
CONTINUOUS
10
104.861
20
-162.805
11
104.766
21
-162.901
0
LINE
8
BLACK
6
CONTINUOUS
10
104.766
20
-162.901
11
104.575
21
-162.996
0
LINE
8
BLACK
6
CONTINUOUS
10
104.575
20
-162.996
11
104.385
21
-162.996
0
LINE
8
BLACK
6
CONTINUOUS
10
104.385
20
-162.996
11
104.194
21
-162.901
0
LINE
8
BLACK
6
CONTINUOUS
10
104.194
20
-162.901
11
104.099
21
-162.805
0
LINE
8
BLACK
6
CONTINUOUS
10
104.099
20
-162.805
11
104.004
21
-162.615
0
LINE
8
BLACK
6
CONTINUOUS
10
104.004
20
-162.615
11
103.909
21
-162.234
0
LINE
8
BLACK
6
CONTINUOUS
10
103.909
20
-162.234
11
103.909
21
-161.758
0
LINE
8
BLACK
6
CONTINUOUS
10
103.909
20
-161.758
11
104.004
21
-161.377
0
LINE
8
BLACK
6
CONTINUOUS
10
104.004
20
-161.377
11
104.099
21
-161.186
0
LINE
8
BLACK
6
CONTINUOUS
10
104.099
20
-161.186
11
104.194
21
-161.091
0
LINE
8
BLACK
6
CONTINUOUS
10
104.194
20
-161.091
11
104.385
21
-160.996
0
LINE
8
BLACK
6
CONTINUOUS
10
106.29
20
-160.996
11
106.48
21
-160.996
0
LINE
8
BLACK
6
CONTINUOUS
10
106.48
20
-160.996
11
106.671
21
-161.091
0
LINE
8
BLACK
6
CONTINUOUS
10
106.671
20
-161.091
11
106.766
21
-161.186
0
LINE
8
BLACK
6
CONTINUOUS
10
106.766
20
-161.186
11
106.861
21
-161.377
0
LINE
8
BLACK
6
CONTINUOUS
10
106.861
20
-161.377
11
106.956
21
-161.758
0
LINE
8
BLACK
6
CONTINUOUS
10
106.956
20
-161.758
11
106.956
21
-162.234
0
LINE
8
BLACK
6
CONTINUOUS
10
106.956
20
-162.234
11
106.861
21
-162.615
0
LINE
8
BLACK
6
CONTINUOUS
10
106.861
20
-162.615
11
106.766
21
-162.805
0
LINE
8
BLACK
6
CONTINUOUS
10
106.766
20
-162.805
11
106.671
21
-162.901
0
LINE
8
BLACK
6
CONTINUOUS
10
106.671
20
-162.901
11
106.48
21
-162.996
0
LINE
8
BLACK
6
CONTINUOUS
10
106.48
20
-162.996
11
106.29
21
-162.996
0
LINE
8
BLACK
6
CONTINUOUS
10
106.29
20
-162.996
11
106.099
21
-162.901
0
LINE
8
BLACK
6
CONTINUOUS
10
106.099
20
-162.901
11
106.004
21
-162.805
0
LINE
8
BLACK
6
CONTINUOUS
10
106.004
20
-162.805
11
105.909
21
-162.615
0
LINE
8
BLACK
6
CONTINUOUS
10
105.909
20
-162.615
11
105.813
21
-162.234
0
LINE
8
BLACK
6
CONTINUOUS
10
105.813
20
-162.234
11
105.813
21
-161.758
0
LINE
8
BLACK
6
CONTINUOUS
10
105.813
20
-161.758
11
105.909
21
-161.377
0
LINE
8
BLACK
6
CONTINUOUS
10
105.909
20
-161.377
11
106.004
21
-161.186
0
LINE
8
BLACK
6
CONTINUOUS
10
106.004
20
-161.186
11
106.099
21
-161.091
0
LINE
8
BLACK
6
CONTINUOUS
10
106.099
20
-161.091
11
106.29
21
-160.996
0
LINE
8
BLACK
6
CONTINUOUS
10
107.813
20
-162.996
11
107.813
21
-161.662
0
LINE
8
BLACK
6
CONTINUOUS
10
107.813
20
-161.853
11
107.909
21
-161.758
0
LINE
8
BLACK
6
CONTINUOUS
10
107.909
20
-161.758
11
108.099
21
-161.662
0
LINE
8
BLACK
6
CONTINUOUS
10
108.099
20
-161.662
11
108.385
21
-161.662
0
LINE
8
BLACK
6
CONTINUOUS
10
108.385
20
-161.662
11
108.575
21
-161.758
0
LINE
8
BLACK
6
CONTINUOUS
10
108.575
20
-161.758
11
108.671
21
-161.948
0
LINE
8
BLACK
6
CONTINUOUS
10
108.671
20
-161.948
11
108.671
21
-162.996
0
LINE
8
BLACK
6
CONTINUOUS
10
108.671
20
-161.948
11
108.766
21
-161.758
0
LINE
8
BLACK
6
CONTINUOUS
10
108.766
20
-161.758
11
108.956
21
-161.662
0
LINE
8
BLACK
6
CONTINUOUS
10
108.956
20
-161.662
11
109.242
21
-161.662
0
LINE
8
BLACK
6
CONTINUOUS
10
109.242
20
-161.662
11
109.432
21
-161.758
0
LINE
8
BLACK
6
CONTINUOUS
10
109.432
20
-161.758
11
109.528
21
-161.948
0
LINE
8
BLACK
6
CONTINUOUS
10
109.528
20
-161.948
11
109.528
21
-162.996
0
LINE
8
BLACK
6
CONTINUOUS
10
110.48
20
-162.996
11
110.48
21
-161.662
0
LINE
8
BLACK
6
CONTINUOUS
10
110.48
20
-161.853
11
110.575
21
-161.758
0
LINE
8
BLACK
6
CONTINUOUS
10
110.575
20
-161.758
11
110.766
21
-161.662
0
LINE
8
BLACK
6
CONTINUOUS
10
110.766
20
-161.662
11
111.052
21
-161.662
0
LINE
8
BLACK
6
CONTINUOUS
10
111.052
20
-161.662
11
111.242
21
-161.758
0
LINE
8
BLACK
6
CONTINUOUS
10
111.242
20
-161.758
11
111.337
21
-161.948
0
LINE
8
BLACK
6
CONTINUOUS
10
111.337
20
-161.948
11
111.337
21
-162.996
0
LINE
8
BLACK
6
CONTINUOUS
10
111.337
20
-161.948
11
111.432
21
-161.758
0
LINE
8
BLACK
6
CONTINUOUS
10
111.432
20
-161.758
11
111.623
21
-161.662
0
LINE
8
BLACK
6
CONTINUOUS
10
111.623
20
-161.662
11
111.909
21
-161.662
0
LINE
8
BLACK
6
CONTINUOUS
10
111.909
20
-161.662
11
112.099
21
-161.758
0
LINE
8
BLACK
6
CONTINUOUS
10
112.099
20
-161.758
11
112.194
21
-161.948
0
LINE
8
BLACK
6
CONTINUOUS
10
112.194
20
-161.948
11
112.194
21
-162.996
0
LINE
8
BLACK
6
CONTINUOUS
10
115.775
20
-160.901
11
114.061
21
-163.472
0
LINE
8
BLACK
6
CONTINUOUS
10
118.023
20
-160.996
11
118.213
21
-160.996
0
LINE
8
BLACK
6
CONTINUOUS
10
118.213
20
-160.996
11
118.404
21
-161.091
0
LINE
8
BLACK
6
CONTINUOUS
10
118.404
20
-161.091
11
118.499
21
-161.186
0
LINE
8
BLACK
6
CONTINUOUS
10
118.499
20
-161.186
11
118.594
21
-161.377
0
LINE
8
BLACK
6
CONTINUOUS
10
118.594
20
-161.377
11
118.69
21
-161.758
0
LINE
8
BLACK
6
CONTINUOUS
10
118.69
20
-161.758
11
118.69
21
-162.234
0
LINE
8
BLACK
6
CONTINUOUS
10
118.69
20
-162.234
11
118.594
21
-162.615
0
LINE
8
BLACK
6
CONTINUOUS
10
118.594
20
-162.615
11
118.499
21
-162.805
0
LINE
8
BLACK
6
CONTINUOUS
10
118.499
20
-162.805
11
118.404
21
-162.901
0
LINE
8
BLACK
6
CONTINUOUS
10
118.404
20
-162.901
11
118.213
21
-162.996
0
LINE
8
BLACK
6
CONTINUOUS
10
118.213
20
-162.996
11
118.023
21
-162.996
0
LINE
8
BLACK
6
CONTINUOUS
10
118.023
20
-162.996
11
117.832
21
-162.901
0
LINE
8
BLACK
6
CONTINUOUS
10
117.832
20
-162.901
11
117.737
21
-162.805
0
LINE
8
BLACK
6
CONTINUOUS
10
117.737
20
-162.805
11
117.642
21
-162.615
0
LINE
8
BLACK
6
CONTINUOUS
10
117.642
20
-162.615
11
117.547
21
-162.234
0
LINE
8
BLACK
6
CONTINUOUS
10
117.547
20
-162.234
11
117.547
21
-161.758
0
LINE
8
BLACK
6
CONTINUOUS
10
117.547
20
-161.758
11
117.642
21
-161.377
0
LINE
8
BLACK
6
CONTINUOUS
10
117.642
20
-161.377
11
117.737
21
-161.186
0
LINE
8
BLACK
6
CONTINUOUS
10
117.737
20
-161.186
11
117.832
21
-161.091
0
LINE
8
BLACK
6
CONTINUOUS
10
117.832
20
-161.091
11
118.023
21
-160.996
0
LINE
8
BLACK
6
CONTINUOUS
10
119.547
20
-162.805
11
119.642
21
-162.901
0
LINE
8
BLACK
6
CONTINUOUS
10
119.642
20
-162.901
11
119.547
21
-162.996
0
LINE
8
BLACK
6
CONTINUOUS
10
119.547
20
-162.996
11
119.452
21
-162.901
0
LINE
8
BLACK
6
CONTINUOUS
10
119.452
20
-162.901
11
119.547
21
-162.805
0
LINE
8
BLACK
6
CONTINUOUS
10
119.547
20
-162.805
11
119.547
21
-162.996
0
LINE
8
BLACK
6
CONTINUOUS
10
120.88
20
-160.996
11
121.071
21
-160.996
0
LINE
8
BLACK
6
CONTINUOUS
10
121.071
20
-160.996
11
121.261
21
-161.091
0
LINE
8
BLACK
6
CONTINUOUS
10
121.261
20
-161.091
11
121.356
21
-161.186
0
LINE
8
BLACK
6
CONTINUOUS
10
121.356
20
-161.186
11
121.452
21
-161.377
0
LINE
8
BLACK
6
CONTINUOUS
10
121.452
20
-161.377
11
121.547
21
-161.758
0
LINE
8
BLACK
6
CONTINUOUS
10
121.547
20
-161.758
11
121.547
21
-162.234
0
LINE
8
BLACK
6
CONTINUOUS
10
121.547
20
-162.234
11
121.452
21
-162.615
0
LINE
8
BLACK
6
CONTINUOUS
10
121.452
20
-162.615
11
121.356
21
-162.805
0
LINE
8
BLACK
6
CONTINUOUS
10
121.356
20
-162.805
11
121.261
21
-162.901
0
LINE
8
BLACK
6
CONTINUOUS
10
121.261
20
-162.901
11
121.071
21
-162.996
0
LINE
8
BLACK
6
CONTINUOUS
10
121.071
20
-162.996
11
120.88
21
-162.996
0
LINE
8
BLACK
6
CONTINUOUS
10
120.88
20
-162.996
11
120.69
21
-162.901
0
LINE
8
BLACK
6
CONTINUOUS
10
120.69
20
-162.901
11
120.594
21
-162.805
0
LINE
8
BLACK
6
CONTINUOUS
10
120.594
20
-162.805
11
120.499
21
-162.615
0
LINE
8
BLACK
6
CONTINUOUS
10
120.499
20
-162.615
11
120.404
21
-162.234
0
LINE
8
BLACK
6
CONTINUOUS
10
120.404
20
-162.234
11
120.404
21
-161.758
0
LINE
8
BLACK
6
CONTINUOUS
10
120.404
20
-161.758
11
120.499
21
-161.377
0
LINE
8
BLACK
6
CONTINUOUS
10
120.499
20
-161.377
11
120.594
21
-161.186
0
LINE
8
BLACK
6
CONTINUOUS
10
120.594
20
-161.186
11
120.69
21
-161.091
0
LINE
8
BLACK
6
CONTINUOUS
10
120.69
20
-161.091
11
120.88
21
-160.996
0
LINE
8
BLACK
6
CONTINUOUS
10
123.356
20
-160.996
11
122.404
21
-160.996
0
LINE
8
BLACK
6
CONTINUOUS
10
122.404
20
-160.996
11
122.309
21
-161.948
0
LINE
8
BLACK
6
CONTINUOUS
10
122.309
20
-161.948
11
122.404
21
-161.853
0
LINE
8
BLACK
6
CONTINUOUS
10
122.404
20
-161.853
11
122.594
21
-161.758
0
LINE
8
BLACK
6
CONTINUOUS
10
122.594
20
-161.758
11
123.071
21
-161.758
0
LINE
8
BLACK
6
CONTINUOUS
10
123.071
20
-161.758
11
123.261
21
-161.853
0
LINE
8
BLACK
6
CONTINUOUS
10
123.261
20
-161.853
11
123.356
21
-161.948
0
LINE
8
BLACK
6
CONTINUOUS
10
123.356
20
-161.948
11
123.452
21
-162.139
0
LINE
8
BLACK
6
CONTINUOUS
10
123.452
20
-162.139
11
123.452
21
-162.615
0
LINE
8
BLACK
6
CONTINUOUS
10
123.452
20
-162.615
11
123.356
21
-162.805
0
LINE
8
BLACK
6
CONTINUOUS
10
123.356
20
-162.805
11
123.261
21
-162.901
0
LINE
8
BLACK
6
CONTINUOUS
10
123.261
20
-162.901
11
123.071
21
-162.996
0
LINE
8
BLACK
6
CONTINUOUS
10
123.071
20
-162.996
11
122.594
21
-162.996
0
LINE
8
BLACK
6
CONTINUOUS
10
122.594
20
-162.996
11
122.404
21
-162.901
0
LINE
8
BLACK
6
CONTINUOUS
10
122.404
20
-162.901
11
122.309
21
-162.805
0
LINE
8
BLACK
6
CONTINUOUS
10
124.404
20
-162.996
11
124.785
21
-162.996
0
LINE
8
BLACK
6
CONTINUOUS
10
124.785
20
-162.996
11
124.975
21
-162.901
0
LINE
8
BLACK
6
CONTINUOUS
10
124.975
20
-162.901
11
125.071
21
-162.805
0
LINE
8
BLACK
6
CONTINUOUS
10
125.071
20
-162.805
11
125.261
21
-162.52
0
LINE
8
BLACK
6
CONTINUOUS
10
125.261
20
-162.52
11
125.356
21
-162.139
0
LINE
8
BLACK
6
CONTINUOUS
10
125.356
20
-162.139
11
125.356
21
-161.377
0
LINE
8
BLACK
6
CONTINUOUS
10
125.356
20
-161.377
11
125.261
21
-161.186
0
LINE
8
BLACK
6
CONTINUOUS
10
125.261
20
-161.186
11
125.166
21
-161.091
0
LINE
8
BLACK
6
CONTINUOUS
10
125.166
20
-161.091
11
124.975
21
-160.996
0
LINE
8
BLACK
6
CONTINUOUS
10
124.975
20
-160.996
11
124.594
21
-160.996
0
LINE
8
BLACK
6
CONTINUOUS
10
124.594
20
-160.996
11
124.404
21
-161.091
0
LINE
8
BLACK
6
CONTINUOUS
10
124.404
20
-161.091
11
124.309
21
-161.186
0
LINE
8
BLACK
6
CONTINUOUS
10
124.309
20
-161.186
11
124.213
21
-161.377
0
LINE
8
BLACK
6
CONTINUOUS
10
124.213
20
-161.377
11
124.213
21
-161.853
0
LINE
8
BLACK
6
CONTINUOUS
10
124.213
20
-161.853
11
124.309
21
-162.043
0
LINE
8
BLACK
6
CONTINUOUS
10
124.309
20
-162.043
11
124.404
21
-162.139
0
LINE
8
BLACK
6
CONTINUOUS
10
124.404
20
-162.139
11
124.594
21
-162.234
0
LINE
8
BLACK
6
CONTINUOUS
10
124.594
20
-162.234
11
124.975
21
-162.234
0
LINE
8
BLACK
6
CONTINUOUS
10
124.975
20
-162.234
11
125.166
21
-162.139
0
LINE
8
BLACK
6
CONTINUOUS
10
125.166
20
-162.139
11
125.261
21
-162.043
0
LINE
8
BLACK
6
CONTINUOUS
10
125.261
20
-162.043
11
125.356
21
-161.853
0
LINE
8
BLACK
6
CONTINUOUS
10
127.261
20
-162.996
11
126.118
21
-162.996
0
LINE
8
BLACK
6
CONTINUOUS
10
126.69
20
-162.996
11
126.69
21
-160.996
0
LINE
8
BLACK
6
CONTINUOUS
10
126.69
20
-160.996
11
126.499
21
-161.281
0
LINE
8
BLACK
6
CONTINUOUS
10
126.499
20
-161.281
11
126.309
21
-161.472
0
LINE
8
BLACK
6
CONTINUOUS
10
126.309
20
-161.472
11
126.118
21
-161.567
0
LINE
8
BLACK
6
CONTINUOUS
10
128.023
20
-160.996
11
128.023
21
-161.377
0
LINE
8
BLACK
6
CONTINUOUS
10
128.785
20
-160.996
11
128.785
21
-161.377
0
LINE
8
BLACK
6
CONTINUOUS
10
131.413
20
-163.758
11
131.318
21
-163.662
0
LINE
8
BLACK
6
CONTINUOUS
10
131.318
20
-163.662
11
131.128
21
-163.377
0
LINE
8
BLACK
6
CONTINUOUS
10
131.128
20
-163.377
11
131.032
21
-163.186
0
LINE
8
BLACK
6
CONTINUOUS
10
131.032
20
-163.186
11
130.937
21
-162.901
0
LINE
8
BLACK
6
CONTINUOUS
10
130.937
20
-162.901
11
130.842
21
-162.424
0
LINE
8
BLACK
6
CONTINUOUS
10
130.842
20
-162.424
11
130.842
21
-162.043
0
LINE
8
BLACK
6
CONTINUOUS
10
130.842
20
-162.043
11
130.937
21
-161.567
0
LINE
8
BLACK
6
CONTINUOUS
10
130.937
20
-161.567
11
131.032
21
-161.281
0
LINE
8
BLACK
6
CONTINUOUS
10
131.032
20
-161.281
11
131.128
21
-161.091
0
LINE
8
BLACK
6
CONTINUOUS
10
131.128
20
-161.091
11
131.318
21
-160.805
0
LINE
8
BLACK
6
CONTINUOUS
10
131.318
20
-160.805
11
131.413
21
-160.71
0
LINE
8
BLACK
6
CONTINUOUS
10
132.08
20
-161.186
11
132.175
21
-161.091
0
LINE
8
BLACK
6
CONTINUOUS
10
132.175
20
-161.091
11
132.366
21
-160.996
0
LINE
8
BLACK
6
CONTINUOUS
10
132.366
20
-160.996
11
132.842
21
-160.996
0
LINE
8
BLACK
6
CONTINUOUS
10
132.842
20
-160.996
11
133.032
21
-161.091
0
LINE
8
BLACK
6
CONTINUOUS
10
133.032
20
-161.091
11
133.128
21
-161.186
0
LINE
8
BLACK
6
CONTINUOUS
10
133.128
20
-161.186
11
133.223
21
-161.377
0
LINE
8
BLACK
6
CONTINUOUS
10
133.223
20
-161.377
11
133.223
21
-161.567
0
LINE
8
BLACK
6
CONTINUOUS
10
133.223
20
-161.567
11
133.128
21
-161.853
0
LINE
8
BLACK
6
CONTINUOUS
10
133.128
20
-161.853
11
131.985
21
-162.996
0
LINE
8
BLACK
6
CONTINUOUS
10
131.985
20
-162.996
11
133.223
21
-162.996
0
LINE
8
BLACK
6
CONTINUOUS
10
135.28
20
-162.996
11
135.28
21
-160.996
0
LINE
8
BLACK
6
CONTINUOUS
10
136.137
20
-162.996
11
136.137
21
-161.948
0
LINE
8
BLACK
6
CONTINUOUS
10
136.137
20
-161.948
11
136.042
21
-161.758
0
LINE
8
BLACK
6
CONTINUOUS
10
136.042
20
-161.758
11
135.852
21
-161.662
0
LINE
8
BLACK
6
CONTINUOUS
10
135.852
20
-161.662
11
135.566
21
-161.662
0
LINE
8
BLACK
6
CONTINUOUS
10
135.566
20
-161.662
11
135.375
21
-161.758
0
LINE
8
BLACK
6
CONTINUOUS
10
135.375
20
-161.758
11
135.28
21
-161.853
0
LINE
8
BLACK
6
CONTINUOUS
10
137.375
20
-162.996
11
137.185
21
-162.901
0
LINE
8
BLACK
6
CONTINUOUS
10
137.185
20
-162.901
11
137.09
21
-162.805
0
LINE
8
BLACK
6
CONTINUOUS
10
137.09
20
-162.805
11
136.994
21
-162.615
0
LINE
8
BLACK
6
CONTINUOUS
10
136.994
20
-162.615
11
136.994
21
-162.043
0
LINE
8
BLACK
6
CONTINUOUS
10
136.994
20
-162.043
11
137.09
21
-161.853
0
LINE
8
BLACK
6
CONTINUOUS
10
137.09
20
-161.853
11
137.185
21
-161.758
0
LINE
8
BLACK
6
CONTINUOUS
10
137.185
20
-161.758
11
137.375
21
-161.662
0
LINE
8
BLACK
6
CONTINUOUS
10
137.375
20
-161.662
11
137.661
21
-161.662
0
LINE
8
BLACK
6
CONTINUOUS
10
137.661
20
-161.662
11
137.852
21
-161.758
0
LINE
8
BLACK
6
CONTINUOUS
10
137.852
20
-161.758
11
137.947
21
-161.853
0
LINE
8
BLACK
6
CONTINUOUS
10
137.947
20
-161.853
11
138.042
21
-162.043
0
LINE
8
BLACK
6
CONTINUOUS
10
138.042
20
-162.043
11
138.042
21
-162.615
0
LINE
8
BLACK
6
CONTINUOUS
10
138.042
20
-162.615
11
137.947
21
-162.805
0
LINE
8
BLACK
6
CONTINUOUS
10
137.947
20
-162.805
11
137.852
21
-162.901
0
LINE
8
BLACK
6
CONTINUOUS
10
137.852
20
-162.901
11
137.661
21
-162.996
0
LINE
8
BLACK
6
CONTINUOUS
10
137.661
20
-162.996
11
137.375
21
-162.996
0
LINE
8
BLACK
6
CONTINUOUS
10
139.185
20
-162.996
11
138.994
21
-162.901
0
LINE
8
BLACK
6
CONTINUOUS
10
138.994
20
-162.901
11
138.899
21
-162.71
0
LINE
8
BLACK
6
CONTINUOUS
10
138.899
20
-162.71
11
138.899
21
-160.996
0
LINE
8
BLACK
6
CONTINUOUS
10
140.709
20
-162.901
11
140.518
21
-162.996
0
LINE
8
BLACK
6
CONTINUOUS
10
140.518
20
-162.996
11
140.137
21
-162.996
0
LINE
8
BLACK
6
CONTINUOUS
10
140.137
20
-162.996
11
139.947
21
-162.901
0
LINE
8
BLACK
6
CONTINUOUS
10
139.947
20
-162.901
11
139.852
21
-162.71
0
LINE
8
BLACK
6
CONTINUOUS
10
139.852
20
-162.71
11
139.852
21
-161.948
0
LINE
8
BLACK
6
CONTINUOUS
10
139.852
20
-161.948
11
139.947
21
-161.758
0
LINE
8
BLACK
6
CONTINUOUS
10
139.947
20
-161.758
11
140.137
21
-161.662
0
LINE
8
BLACK
6
CONTINUOUS
10
140.137
20
-161.662
11
140.518
21
-161.662
0
LINE
8
BLACK
6
CONTINUOUS
10
140.518
20
-161.662
11
140.709
21
-161.758
0
LINE
8
BLACK
6
CONTINUOUS
10
140.709
20
-161.758
11
140.804
21
-161.948
0
LINE
8
BLACK
6
CONTINUOUS
10
140.804
20
-161.948
11
140.804
21
-162.139
0
LINE
8
BLACK
6
CONTINUOUS
10
140.804
20
-162.139
11
139.852
21
-162.329
0
LINE
8
BLACK
6
CONTINUOUS
10
141.566
20
-162.901
11
141.756
21
-162.996
0
LINE
8
BLACK
6
CONTINUOUS
10
141.756
20
-162.996
11
142.137
21
-162.996
0
LINE
8
BLACK
6
CONTINUOUS
10
142.137
20
-162.996
11
142.328
21
-162.901
0
LINE
8
BLACK
6
CONTINUOUS
10
142.328
20
-162.901
11
142.423
21
-162.71
0
LINE
8
BLACK
6
CONTINUOUS
10
142.423
20
-162.71
11
142.423
21
-162.615
0
LINE
8
BLACK
6
CONTINUOUS
10
142.423
20
-162.615
11
142.328
21
-162.424
0
LINE
8
BLACK
6
CONTINUOUS
10
142.328
20
-162.424
11
142.137
21
-162.329
0
LINE
8
BLACK
6
CONTINUOUS
10
142.137
20
-162.329
11
141.852
21
-162.329
0
LINE
8
BLACK
6
CONTINUOUS
10
141.852
20
-162.329
11
141.661
21
-162.234
0
LINE
8
BLACK
6
CONTINUOUS
10
141.661
20
-162.234
11
141.566
21
-162.043
0
LINE
8
BLACK
6
CONTINUOUS
10
141.566
20
-162.043
11
141.566
21
-161.948
0
LINE
8
BLACK
6
CONTINUOUS
10
141.566
20
-161.948
11
141.661
21
-161.758
0
LINE
8
BLACK
6
CONTINUOUS
10
141.661
20
-161.758
11
141.852
21
-161.662
0
LINE
8
BLACK
6
CONTINUOUS
10
141.852
20
-161.662
11
142.137
21
-161.662
0
LINE
8
BLACK
6
CONTINUOUS
10
142.137
20
-161.662
11
142.328
21
-161.758
0
LINE
8
BLACK
6
CONTINUOUS
10
143.09
20
-163.758
11
143.185
21
-163.662
0
LINE
8
BLACK
6
CONTINUOUS
10
143.185
20
-163.662
11
143.375
21
-163.377
0
LINE
8
BLACK
6
CONTINUOUS
10
143.375
20
-163.377
11
143.471
21
-163.186
0
LINE
8
BLACK
6
CONTINUOUS
10
143.471
20
-163.186
11
143.566
21
-162.901
0
LINE
8
BLACK
6
CONTINUOUS
10
143.566
20
-162.901
11
143.661
21
-162.424
0
LINE
8
BLACK
6
CONTINUOUS
10
143.661
20
-162.424
11
143.661
21
-162.043
0
LINE
8
BLACK
6
CONTINUOUS
10
143.661
20
-162.043
11
143.566
21
-161.567
0
LINE
8
BLACK
6
CONTINUOUS
10
143.566
20
-161.567
11
143.471
21
-161.281
0
LINE
8
BLACK
6
CONTINUOUS
10
143.471
20
-161.281
11
143.375
21
-161.091
0
LINE
8
BLACK
6
CONTINUOUS
10
143.375
20
-161.091
11
143.185
21
-160.805
0
LINE
8
BLACK
6
CONTINUOUS
10
143.185
20
-160.805
11
143.09
21
-160.71
0
LINE
8
BLACK
6
CONTINUOUS
10
146.385
20
-163.758
11
146.29
21
-163.662
0
LINE
8
BLACK
6
CONTINUOUS
10
146.29
20
-163.662
11
146.099
21
-163.377
0
LINE
8
BLACK
6
CONTINUOUS
10
146.099
20
-163.377
11
146.004
21
-163.186
0
LINE
8
BLACK
6
CONTINUOUS
10
146.004
20
-163.186
11
145.909
21
-162.901
0
LINE
8
BLACK
6
CONTINUOUS
10
145.909
20
-162.901
11
145.813
21
-162.424
0
LINE
8
BLACK
6
CONTINUOUS
10
145.813
20
-162.424
11
145.813
21
-162.043
0
LINE
8
BLACK
6
CONTINUOUS
10
145.813
20
-162.043
11
145.909
21
-161.567
0
LINE
8
BLACK
6
CONTINUOUS
10
145.909
20
-161.567
11
146.004
21
-161.281
0
LINE
8
BLACK
6
CONTINUOUS
10
146.004
20
-161.281
11
146.099
21
-161.091
0
LINE
8
BLACK
6
CONTINUOUS
10
146.099
20
-161.091
11
146.29
21
-160.805
0
LINE
8
BLACK
6
CONTINUOUS
10
146.29
20
-160.805
11
146.385
21
-160.71
0
LINE
8
BLACK
6
CONTINUOUS
10
147.147
20
-161.662
11
147.147
21
-162.996
0
LINE
8
BLACK
6
CONTINUOUS
10
147.147
20
-161.853
11
147.242
21
-161.758
0
LINE
8
BLACK
6
CONTINUOUS
10
147.242
20
-161.758
11
147.432
21
-161.662
0
LINE
8
BLACK
6
CONTINUOUS
10
147.432
20
-161.662
11
147.718
21
-161.662
0
LINE
8
BLACK
6
CONTINUOUS
10
147.718
20
-161.662
11
147.909
21
-161.758
0
LINE
8
BLACK
6
CONTINUOUS
10
147.909
20
-161.758
11
148.004
21
-161.948
0
LINE
8
BLACK
6
CONTINUOUS
10
148.004
20
-161.948
11
148.004
21
-162.996
0
LINE
8
BLACK
6
CONTINUOUS
10
149.242
20
-162.996
11
149.052
21
-162.901
0
LINE
8
BLACK
6
CONTINUOUS
10
149.052
20
-162.901
11
148.956
21
-162.805
0
LINE
8
BLACK
6
CONTINUOUS
10
148.956
20
-162.805
11
148.861
21
-162.615
0
LINE
8
BLACK
6
CONTINUOUS
10
148.861
20
-162.615
11
148.861
21
-162.043
0
LINE
8
BLACK
6
CONTINUOUS
10
148.861
20
-162.043
11
148.956
21
-161.853
0
LINE
8
BLACK
6
CONTINUOUS
10
148.956
20
-161.853
11
149.052
21
-161.758
0
LINE
8
BLACK
6
CONTINUOUS
10
149.052
20
-161.758
11
149.242
21
-161.662
0
LINE
8
BLACK
6
CONTINUOUS
10
149.242
20
-161.662
11
149.528
21
-161.662
0
LINE
8
BLACK
6
CONTINUOUS
10
149.528
20
-161.662
11
149.718
21
-161.758
0
LINE
8
BLACK
6
CONTINUOUS
10
149.718
20
-161.758
11
149.813
21
-161.853
0
LINE
8
BLACK
6
CONTINUOUS
10
149.813
20
-161.853
11
149.909
21
-162.043
0
LINE
8
BLACK
6
CONTINUOUS
10
149.909
20
-162.043
11
149.909
21
-162.615
0
LINE
8
BLACK
6
CONTINUOUS
10
149.909
20
-162.615
11
149.813
21
-162.805
0
LINE
8
BLACK
6
CONTINUOUS
10
149.813
20
-162.805
11
149.718
21
-162.901
0
LINE
8
BLACK
6
CONTINUOUS
10
149.718
20
-162.901
11
149.528
21
-162.996
0
LINE
8
BLACK
6
CONTINUOUS
10
149.528
20
-162.996
11
149.242
21
-162.996
0
LINE
8
BLACK
6
CONTINUOUS
10
150.48
20
-161.662
11
151.242
21
-161.662
0
LINE
8
BLACK
6
CONTINUOUS
10
150.766
20
-160.996
11
150.766
21
-162.71
0
LINE
8
BLACK
6
CONTINUOUS
10
150.766
20
-162.71
11
150.861
21
-162.901
0
LINE
8
BLACK
6
CONTINUOUS
10
150.861
20
-162.901
11
151.052
21
-162.996
0
LINE
8
BLACK
6
CONTINUOUS
10
151.052
20
-162.996
11
151.242
21
-162.996
0
LINE
8
BLACK
6
CONTINUOUS
10
153.109
20
-161.662
11
153.109
21
-163.662
0
LINE
8
BLACK
6
CONTINUOUS
10
153.109
20
-161.758
11
153.299
21
-161.662
0
LINE
8
BLACK
6
CONTINUOUS
10
153.299
20
-161.662
11
153.68
21
-161.662
0
LINE
8
BLACK
6
CONTINUOUS
10
153.68
20
-161.662
11
153.871
21
-161.758
0
LINE
8
BLACK
6
CONTINUOUS
10
153.871
20
-161.758
11
153.966
21
-161.853
0
LINE
8
BLACK
6
CONTINUOUS
10
153.966
20
-161.853
11
154.061
21
-162.043
0
LINE
8
BLACK
6
CONTINUOUS
10
154.061
20
-162.043
11
154.061
21
-162.615
0
LINE
8
BLACK
6
CONTINUOUS
10
154.061
20
-162.615
11
153.966
21
-162.805
0
LINE
8
BLACK
6
CONTINUOUS
10
153.966
20
-162.805
11
153.871
21
-162.901
0
LINE
8
BLACK
6
CONTINUOUS
10
153.871
20
-162.901
11
153.68
21
-162.996
0
LINE
8
BLACK
6
CONTINUOUS
10
153.68
20
-162.996
11
153.299
21
-162.996
0
LINE
8
BLACK
6
CONTINUOUS
10
153.299
20
-162.996
11
153.109
21
-162.901
0
LINE
8
BLACK
6
CONTINUOUS
10
155.204
20
-162.996
11
155.013
21
-162.901
0
LINE
8
BLACK
6
CONTINUOUS
10
155.013
20
-162.901
11
154.918
21
-162.71
0
LINE
8
BLACK
6
CONTINUOUS
10
154.918
20
-162.71
11
154.918
21
-160.996
0
LINE
8
BLACK
6
CONTINUOUS
10
156.823
20
-162.996
11
156.823
21
-161.948
0
LINE
8
BLACK
6
CONTINUOUS
10
156.823
20
-161.948
11
156.728
21
-161.758
0
LINE
8
BLACK
6
CONTINUOUS
10
156.728
20
-161.758
11
156.537
21
-161.662
0
LINE
8
BLACK
6
CONTINUOUS
10
156.537
20
-161.662
11
156.156
21
-161.662
0
LINE
8
BLACK
6
CONTINUOUS
10
156.156
20
-161.662
11
155.966
21
-161.758
0
LINE
8
BLACK
6
CONTINUOUS
10
156.823
20
-162.901
11
156.632
21
-162.996
0
LINE
8
BLACK
6
CONTINUOUS
10
156.632
20
-162.996
11
156.156
21
-162.996
0
LINE
8
BLACK
6
CONTINUOUS
10
156.156
20
-162.996
11
155.966
21
-162.901
0
LINE
8
BLACK
6
CONTINUOUS
10
155.966
20
-162.901
11
155.871
21
-162.71
0
LINE
8
BLACK
6
CONTINUOUS
10
155.871
20
-162.71
11
155.871
21
-162.52
0
LINE
8
BLACK
6
CONTINUOUS
10
155.871
20
-162.52
11
155.966
21
-162.329
0
LINE
8
BLACK
6
CONTINUOUS
10
155.966
20
-162.329
11
156.156
21
-162.234
0
LINE
8
BLACK
6
CONTINUOUS
10
156.156
20
-162.234
11
156.632
21
-162.234
0
LINE
8
BLACK
6
CONTINUOUS
10
156.632
20
-162.234
11
156.823
21
-162.139
0
LINE
8
BLACK
6
CONTINUOUS
10
157.49
20
-161.662
11
158.252
21
-161.662
0
LINE
8
BLACK
6
CONTINUOUS
10
157.775
20
-160.996
11
157.775
21
-162.71
0
LINE
8
BLACK
6
CONTINUOUS
10
157.775
20
-162.71
11
157.871
21
-162.901
0
LINE
8
BLACK
6
CONTINUOUS
10
157.871
20
-162.901
11
158.061
21
-162.996
0
LINE
8
BLACK
6
CONTINUOUS
10
158.061
20
-162.996
11
158.252
21
-162.996
0
LINE
8
BLACK
6
CONTINUOUS
10
159.68
20
-162.901
11
159.49
21
-162.996
0
LINE
8
BLACK
6
CONTINUOUS
10
159.49
20
-162.996
11
159.109
21
-162.996
0
LINE
8
BLACK
6
CONTINUOUS
10
159.109
20
-162.996
11
158.918
21
-162.901
0
LINE
8
BLACK
6
CONTINUOUS
10
158.918
20
-162.901
11
158.823
21
-162.71
0
LINE
8
BLACK
6
CONTINUOUS
10
158.823
20
-162.71
11
158.823
21
-161.948
0
LINE
8
BLACK
6
CONTINUOUS
10
158.823
20
-161.948
11
158.918
21
-161.758
0
LINE
8
BLACK
6
CONTINUOUS
10
158.918
20
-161.758
11
159.109
21
-161.662
0
LINE
8
BLACK
6
CONTINUOUS
10
159.109
20
-161.662
11
159.49
21
-161.662
0
LINE
8
BLACK
6
CONTINUOUS
10
159.49
20
-161.662
11
159.68
21
-161.758
0
LINE
8
BLACK
6
CONTINUOUS
10
159.68
20
-161.758
11
159.775
21
-161.948
0
LINE
8
BLACK
6
CONTINUOUS
10
159.775
20
-161.948
11
159.775
21
-162.139
0
LINE
8
BLACK
6
CONTINUOUS
10
159.775
20
-162.139
11
158.823
21
-162.329
0
LINE
8
BLACK
6
CONTINUOUS
10
161.49
20
-162.996
11
161.49
21
-160.996
0
LINE
8
BLACK
6
CONTINUOUS
10
161.49
20
-162.901
11
161.299
21
-162.996
0
LINE
8
BLACK
6
CONTINUOUS
10
161.299
20
-162.996
11
160.918
21
-162.996
0
LINE
8
BLACK
6
CONTINUOUS
10
160.918
20
-162.996
11
160.728
21
-162.901
0
LINE
8
BLACK
6
CONTINUOUS
10
160.728
20
-162.901
11
160.632
21
-162.805
0
LINE
8
BLACK
6
CONTINUOUS
10
160.632
20
-162.805
11
160.537
21
-162.615
0
LINE
8
BLACK
6
CONTINUOUS
10
160.537
20
-162.615
11
160.537
21
-162.043
0
LINE
8
BLACK
6
CONTINUOUS
10
160.537
20
-162.043
11
160.632
21
-161.853
0
LINE
8
BLACK
6
CONTINUOUS
10
160.632
20
-161.853
11
160.728
21
-161.758
0
LINE
8
BLACK
6
CONTINUOUS
10
160.728
20
-161.758
11
160.918
21
-161.662
0
LINE
8
BLACK
6
CONTINUOUS
10
160.918
20
-161.662
11
161.299
21
-161.662
0
LINE
8
BLACK
6
CONTINUOUS
10
161.299
20
-161.662
11
161.49
21
-161.758
0
LINE
8
BLACK
6
CONTINUOUS
10
162.252
20
-163.758
11
162.347
21
-163.662
0
LINE
8
BLACK
6
CONTINUOUS
10
162.347
20
-163.662
11
162.537
21
-163.377
0
LINE
8
BLACK
6
CONTINUOUS
10
162.537
20
-163.377
11
162.632
21
-163.186
0
LINE
8
BLACK
6
CONTINUOUS
10
162.632
20
-163.186
11
162.728
21
-162.901
0
LINE
8
BLACK
6
CONTINUOUS
10
162.728
20
-162.901
11
162.823
21
-162.424
0
LINE
8
BLACK
6
CONTINUOUS
10
162.823
20
-162.424
11
162.823
21
-162.043
0
LINE
8
BLACK
6
CONTINUOUS
10
162.823
20
-162.043
11
162.728
21
-161.567
0
LINE
8
BLACK
6
CONTINUOUS
10
162.728
20
-161.567
11
162.632
21
-161.281
0
LINE
8
BLACK
6
CONTINUOUS
10
162.632
20
-161.281
11
162.537
21
-161.091
0
LINE
8
BLACK
6
CONTINUOUS
10
162.537
20
-161.091
11
162.347
21
-160.805
0
LINE
8
BLACK
6
CONTINUOUS
10
162.347
20
-160.805
11
162.252
21
-160.71
0
LINE
8
BLACK
6
CONTINUOUS
10
95.9658
20
-164.161
11
95.9658
21
-165.761
0
LINE
8
BLACK
6
CONTINUOUS
10
95.1658
20
-164.961
11
96.7658
21
-164.961
0
LINE
8
BLACK
6
CONTINUOUS
10
100.29
20
-165.696
11
99.1468
21
-165.696
0
LINE
8
BLACK
6
CONTINUOUS
10
99.7182
20
-165.696
11
99.7182
21
-163.696
0
LINE
8
BLACK
6
CONTINUOUS
10
99.7182
20
-163.696
11
99.5277
21
-163.981
0
LINE
8
BLACK
6
CONTINUOUS
10
99.5277
20
-163.981
11
99.3372
21
-164.172
0
LINE
8
BLACK
6
CONTINUOUS
10
99.3372
20
-164.172
11
99.1468
21
-164.267
0
LINE
8
BLACK
6
CONTINUOUS
10
101.147
20
-165.505
11
101.242
21
-165.601
0
LINE
8
BLACK
6
CONTINUOUS
10
101.242
20
-165.601
11
101.147
21
-165.696
0
LINE
8
BLACK
6
CONTINUOUS
10
101.147
20
-165.696
11
101.052
21
-165.601
0
LINE
8
BLACK
6
CONTINUOUS
10
101.052
20
-165.601
11
101.147
21
-165.505
0
LINE
8
BLACK
6
CONTINUOUS
10
101.147
20
-165.505
11
101.147
21
-165.696
0
LINE
8
BLACK
6
CONTINUOUS
10
102.956
20
-163.696
11
102.575
21
-163.696
0
LINE
8
BLACK
6
CONTINUOUS
10
102.575
20
-163.696
11
102.385
21
-163.791
0
LINE
8
BLACK
6
CONTINUOUS
10
102.385
20
-163.791
11
102.29
21
-163.886
0
LINE
8
BLACK
6
CONTINUOUS
10
102.29
20
-163.886
11
102.099
21
-164.172
0
LINE
8
BLACK
6
CONTINUOUS
10
102.099
20
-164.172
11
102.004
21
-164.553
0
LINE
8
BLACK
6
CONTINUOUS
10
102.004
20
-164.553
11
102.004
21
-165.315
0
LINE
8
BLACK
6
CONTINUOUS
10
102.004
20
-165.315
11
102.099
21
-165.505
0
LINE
8
BLACK
6
CONTINUOUS
10
102.099
20
-165.505
11
102.194
21
-165.601
0
LINE
8
BLACK
6
CONTINUOUS
10
102.194
20
-165.601
11
102.385
21
-165.696
0
LINE
8
BLACK
6
CONTINUOUS
10
102.385
20
-165.696
11
102.766
21
-165.696
0
LINE
8
BLACK
6
CONTINUOUS
10
102.766
20
-165.696
11
102.956
21
-165.601
0
LINE
8
BLACK
6
CONTINUOUS
10
102.956
20
-165.601
11
103.052
21
-165.505
0
LINE
8
BLACK
6
CONTINUOUS
10
103.052
20
-165.505
11
103.147
21
-165.315
0
LINE
8
BLACK
6
CONTINUOUS
10
103.147
20
-165.315
11
103.147
21
-164.839
0
LINE
8
BLACK
6
CONTINUOUS
10
103.147
20
-164.839
11
103.052
21
-164.648
0
LINE
8
BLACK
6
CONTINUOUS
10
103.052
20
-164.648
11
102.956
21
-164.553
0
LINE
8
BLACK
6
CONTINUOUS
10
102.956
20
-164.553
11
102.766
21
-164.458
0
LINE
8
BLACK
6
CONTINUOUS
10
102.766
20
-164.458
11
102.385
21
-164.458
0
LINE
8
BLACK
6
CONTINUOUS
10
102.385
20
-164.458
11
102.194
21
-164.553
0
LINE
8
BLACK
6
CONTINUOUS
10
102.194
20
-164.553
11
102.099
21
-164.648
0
LINE
8
BLACK
6
CONTINUOUS
10
102.099
20
-164.648
11
102.004
21
-164.839
0
LINE
8
BLACK
6
CONTINUOUS
10
104.385
20
-163.696
11
104.575
21
-163.696
0
LINE
8
BLACK
6
CONTINUOUS
10
104.575
20
-163.696
11
104.766
21
-163.791
0
LINE
8
BLACK
6
CONTINUOUS
10
104.766
20
-163.791
11
104.861
21
-163.886
0
LINE
8
BLACK
6
CONTINUOUS
10
104.861
20
-163.886
11
104.956
21
-164.077
0
LINE
8
BLACK
6
CONTINUOUS
10
104.956
20
-164.077
11
105.052
21
-164.458
0
LINE
8
BLACK
6
CONTINUOUS
10
105.052
20
-164.458
11
105.052
21
-164.934
0
LINE
8
BLACK
6
CONTINUOUS
10
105.052
20
-164.934
11
104.956
21
-165.315
0
LINE
8
BLACK
6
CONTINUOUS
10
104.956
20
-165.315
11
104.861
21
-165.505
0
LINE
8
BLACK
6
CONTINUOUS
10
104.861
20
-165.505
11
104.766
21
-165.601
0
LINE
8
BLACK
6
CONTINUOUS
10
104.766
20
-165.601
11
104.575
21
-165.696
0
LINE
8
BLACK
6
CONTINUOUS
10
104.575
20
-165.696
11
104.385
21
-165.696
0
LINE
8
BLACK
6
CONTINUOUS
10
104.385
20
-165.696
11
104.194
21
-165.601
0
LINE
8
BLACK
6
CONTINUOUS
10
104.194
20
-165.601
11
104.099
21
-165.505
0
LINE
8
BLACK
6
CONTINUOUS
10
104.099
20
-165.505
11
104.004
21
-165.315
0
LINE
8
BLACK
6
CONTINUOUS
10
104.004
20
-165.315
11
103.909
21
-164.934
0
LINE
8
BLACK
6
CONTINUOUS
10
103.909
20
-164.934
11
103.909
21
-164.458
0
LINE
8
BLACK
6
CONTINUOUS
10
103.909
20
-164.458
11
104.004
21
-164.077
0
LINE
8
BLACK
6
CONTINUOUS
10
104.004
20
-164.077
11
104.099
21
-163.886
0
LINE
8
BLACK
6
CONTINUOUS
10
104.099
20
-163.886
11
104.194
21
-163.791
0
LINE
8
BLACK
6
CONTINUOUS
10
104.194
20
-163.791
11
104.385
21
-163.696
0
LINE
8
BLACK
6
CONTINUOUS
10
106.29
20
-163.696
11
106.48
21
-163.696
0
LINE
8
BLACK
6
CONTINUOUS
10
106.48
20
-163.696
11
106.671
21
-163.791
0
LINE
8
BLACK
6
CONTINUOUS
10
106.671
20
-163.791
11
106.766
21
-163.886
0
LINE
8
BLACK
6
CONTINUOUS
10
106.766
20
-163.886
11
106.861
21
-164.077
0
LINE
8
BLACK
6
CONTINUOUS
10
106.861
20
-164.077
11
106.956
21
-164.458
0
LINE
8
BLACK
6
CONTINUOUS
10
106.956
20
-164.458
11
106.956
21
-164.934
0
LINE
8
BLACK
6
CONTINUOUS
10
106.956
20
-164.934
11
106.861
21
-165.315
0
LINE
8
BLACK
6
CONTINUOUS
10
106.861
20
-165.315
11
106.766
21
-165.505
0
LINE
8
BLACK
6
CONTINUOUS
10
106.766
20
-165.505
11
106.671
21
-165.601
0
LINE
8
BLACK
6
CONTINUOUS
10
106.671
20
-165.601
11
106.48
21
-165.696
0
LINE
8
BLACK
6
CONTINUOUS
10
106.48
20
-165.696
11
106.29
21
-165.696
0
LINE
8
BLACK
6
CONTINUOUS
10
106.29
20
-165.696
11
106.099
21
-165.601
0
LINE
8
BLACK
6
CONTINUOUS
10
106.099
20
-165.601
11
106.004
21
-165.505
0
LINE
8
BLACK
6
CONTINUOUS
10
106.004
20
-165.505
11
105.909
21
-165.315
0
LINE
8
BLACK
6
CONTINUOUS
10
105.909
20
-165.315
11
105.813
21
-164.934
0
LINE
8
BLACK
6
CONTINUOUS
10
105.813
20
-164.934
11
105.813
21
-164.458
0
LINE
8
BLACK
6
CONTINUOUS
10
105.813
20
-164.458
11
105.909
21
-164.077
0
LINE
8
BLACK
6
CONTINUOUS
10
105.909
20
-164.077
11
106.004
21
-163.886
0
LINE
8
BLACK
6
CONTINUOUS
10
106.004
20
-163.886
11
106.099
21
-163.791
0
LINE
8
BLACK
6
CONTINUOUS
10
106.099
20
-163.791
11
106.29
21
-163.696
0
LINE
8
BLACK
6
CONTINUOUS
10
107.813
20
-165.696
11
107.813
21
-164.362
0
LINE
8
BLACK
6
CONTINUOUS
10
107.813
20
-164.553
11
107.909
21
-164.458
0
LINE
8
BLACK
6
CONTINUOUS
10
107.909
20
-164.458
11
108.099
21
-164.362
0
LINE
8
BLACK
6
CONTINUOUS
10
108.099
20
-164.362
11
108.385
21
-164.362
0
LINE
8
BLACK
6
CONTINUOUS
10
108.385
20
-164.362
11
108.575
21
-164.458
0
LINE
8
BLACK
6
CONTINUOUS
10
108.575
20
-164.458
11
108.671
21
-164.648
0
LINE
8
BLACK
6
CONTINUOUS
10
108.671
20
-164.648
11
108.671
21
-165.696
0
LINE
8
BLACK
6
CONTINUOUS
10
108.671
20
-164.648
11
108.766
21
-164.458
0
LINE
8
BLACK
6
CONTINUOUS
10
108.766
20
-164.458
11
108.956
21
-164.362
0
LINE
8
BLACK
6
CONTINUOUS
10
108.956
20
-164.362
11
109.242
21
-164.362
0
LINE
8
BLACK
6
CONTINUOUS
10
109.242
20
-164.362
11
109.432
21
-164.458
0
LINE
8
BLACK
6
CONTINUOUS
10
109.432
20
-164.458
11
109.528
21
-164.648
0
LINE
8
BLACK
6
CONTINUOUS
10
109.528
20
-164.648
11
109.528
21
-165.696
0
LINE
8
BLACK
6
CONTINUOUS
10
110.48
20
-165.696
11
110.48
21
-164.362
0
LINE
8
BLACK
6
CONTINUOUS
10
110.48
20
-164.553
11
110.575
21
-164.458
0
LINE
8
BLACK
6
CONTINUOUS
10
110.575
20
-164.458
11
110.766
21
-164.362
0
LINE
8
BLACK
6
CONTINUOUS
10
110.766
20
-164.362
11
111.052
21
-164.362
0
LINE
8
BLACK
6
CONTINUOUS
10
111.052
20
-164.362
11
111.242
21
-164.458
0
LINE
8
BLACK
6
CONTINUOUS
10
111.242
20
-164.458
11
111.337
21
-164.648
0
LINE
8
BLACK
6
CONTINUOUS
10
111.337
20
-164.648
11
111.337
21
-165.696
0
LINE
8
BLACK
6
CONTINUOUS
10
111.337
20
-164.648
11
111.432
21
-164.458
0
LINE
8
BLACK
6
CONTINUOUS
10
111.432
20
-164.458
11
111.623
21
-164.362
0
LINE
8
BLACK
6
CONTINUOUS
10
111.623
20
-164.362
11
111.909
21
-164.362
0
LINE
8
BLACK
6
CONTINUOUS
10
111.909
20
-164.362
11
112.099
21
-164.458
0
LINE
8
BLACK
6
CONTINUOUS
10
112.099
20
-164.458
11
112.194
21
-164.648
0
LINE
8
BLACK
6
CONTINUOUS
10
112.194
20
-164.648
11
112.194
21
-165.696
0
LINE
8
BLACK
6
CONTINUOUS
10
115.775
20
-163.601
11
114.061
21
-166.172
0
LINE
8
BLACK
6
CONTINUOUS
10
118.023
20
-163.696
11
118.213
21
-163.696
0
LINE
8
BLACK
6
CONTINUOUS
10
118.213
20
-163.696
11
118.404
21
-163.791
0
LINE
8
BLACK
6
CONTINUOUS
10
118.404
20
-163.791
11
118.499
21
-163.886
0
LINE
8
BLACK
6
CONTINUOUS
10
118.499
20
-163.886
11
118.594
21
-164.077
0
LINE
8
BLACK
6
CONTINUOUS
10
118.594
20
-164.077
11
118.69
21
-164.458
0
LINE
8
BLACK
6
CONTINUOUS
10
118.69
20
-164.458
11
118.69
21
-164.934
0
LINE
8
BLACK
6
CONTINUOUS
10
118.69
20
-164.934
11
118.594
21
-165.315
0
LINE
8
BLACK
6
CONTINUOUS
10
118.594
20
-165.315
11
118.499
21
-165.505
0
LINE
8
BLACK
6
CONTINUOUS
10
118.499
20
-165.505
11
118.404
21
-165.601
0
LINE
8
BLACK
6
CONTINUOUS
10
118.404
20
-165.601
11
118.213
21
-165.696
0
LINE
8
BLACK
6
CONTINUOUS
10
118.213
20
-165.696
11
118.023
21
-165.696
0
LINE
8
BLACK
6
CONTINUOUS
10
118.023
20
-165.696
11
117.832
21
-165.601
0
LINE
8
BLACK
6
CONTINUOUS
10
117.832
20
-165.601
11
117.737
21
-165.505
0
LINE
8
BLACK
6
CONTINUOUS
10
117.737
20
-165.505
11
117.642
21
-165.315
0
LINE
8
BLACK
6
CONTINUOUS
10
117.642
20
-165.315
11
117.547
21
-164.934
0
LINE
8
BLACK
6
CONTINUOUS
10
117.547
20
-164.934
11
117.547
21
-164.458
0
LINE
8
BLACK
6
CONTINUOUS
10
117.547
20
-164.458
11
117.642
21
-164.077
0
LINE
8
BLACK
6
CONTINUOUS
10
117.642
20
-164.077
11
117.737
21
-163.886
0
LINE
8
BLACK
6
CONTINUOUS
10
117.737
20
-163.886
11
117.832
21
-163.791
0
LINE
8
BLACK
6
CONTINUOUS
10
117.832
20
-163.791
11
118.023
21
-163.696
0
LINE
8
BLACK
6
CONTINUOUS
10
119.547
20
-165.505
11
119.642
21
-165.601
0
LINE
8
BLACK
6
CONTINUOUS
10
119.642
20
-165.601
11
119.547
21
-165.696
0
LINE
8
BLACK
6
CONTINUOUS
10
119.547
20
-165.696
11
119.452
21
-165.601
0
LINE
8
BLACK
6
CONTINUOUS
10
119.452
20
-165.601
11
119.547
21
-165.505
0
LINE
8
BLACK
6
CONTINUOUS
10
119.547
20
-165.505
11
119.547
21
-165.696
0
LINE
8
BLACK
6
CONTINUOUS
10
120.88
20
-163.696
11
121.071
21
-163.696
0
LINE
8
BLACK
6
CONTINUOUS
10
121.071
20
-163.696
11
121.261
21
-163.791
0
LINE
8
BLACK
6
CONTINUOUS
10
121.261
20
-163.791
11
121.356
21
-163.886
0
LINE
8
BLACK
6
CONTINUOUS
10
121.356
20
-163.886
11
121.452
21
-164.077
0
LINE
8
BLACK
6
CONTINUOUS
10
121.452
20
-164.077
11
121.547
21
-164.458
0
LINE
8
BLACK
6
CONTINUOUS
10
121.547
20
-164.458
11
121.547
21
-164.934
0
LINE
8
BLACK
6
CONTINUOUS
10
121.547
20
-164.934
11
121.452
21
-165.315
0
LINE
8
BLACK
6
CONTINUOUS
10
121.452
20
-165.315
11
121.356
21
-165.505
0
LINE
8
BLACK
6
CONTINUOUS
10
121.356
20
-165.505
11
121.261
21
-165.601
0
LINE
8
BLACK
6
CONTINUOUS
10
121.261
20
-165.601
11
121.071
21
-165.696
0
LINE
8
BLACK
6
CONTINUOUS
10
121.071
20
-165.696
11
120.88
21
-165.696
0
LINE
8
BLACK
6
CONTINUOUS
10
120.88
20
-165.696
11
120.69
21
-165.601
0
LINE
8
BLACK
6
CONTINUOUS
10
120.69
20
-165.601
11
120.594
21
-165.505
0
LINE
8
BLACK
6
CONTINUOUS
10
120.594
20
-165.505
11
120.499
21
-165.315
0
LINE
8
BLACK
6
CONTINUOUS
10
120.499
20
-165.315
11
120.404
21
-164.934
0
LINE
8
BLACK
6
CONTINUOUS
10
120.404
20
-164.934
11
120.404
21
-164.458
0
LINE
8
BLACK
6
CONTINUOUS
10
120.404
20
-164.458
11
120.499
21
-164.077
0
LINE
8
BLACK
6
CONTINUOUS
10
120.499
20
-164.077
11
120.594
21
-163.886
0
LINE
8
BLACK
6
CONTINUOUS
10
120.594
20
-163.886
11
120.69
21
-163.791
0
LINE
8
BLACK
6
CONTINUOUS
10
120.69
20
-163.791
11
120.88
21
-163.696
0
LINE
8
BLACK
6
CONTINUOUS
10
123.261
20
-163.696
11
122.88
21
-163.696
0
LINE
8
BLACK
6
CONTINUOUS
10
122.88
20
-163.696
11
122.69
21
-163.791
0
LINE
8
BLACK
6
CONTINUOUS
10
122.69
20
-163.791
11
122.594
21
-163.886
0
LINE
8
BLACK
6
CONTINUOUS
10
122.594
20
-163.886
11
122.404
21
-164.172
0
LINE
8
BLACK
6
CONTINUOUS
10
122.404
20
-164.172
11
122.309
21
-164.553
0
LINE
8
BLACK
6
CONTINUOUS
10
122.309
20
-164.553
11
122.309
21
-165.315
0
LINE
8
BLACK
6
CONTINUOUS
10
122.309
20
-165.315
11
122.404
21
-165.505
0
LINE
8
BLACK
6
CONTINUOUS
10
122.404
20
-165.505
11
122.499
21
-165.601
0
LINE
8
BLACK
6
CONTINUOUS
10
122.499
20
-165.601
11
122.69
21
-165.696
0
LINE
8
BLACK
6
CONTINUOUS
10
122.69
20
-165.696
11
123.071
21
-165.696
0
LINE
8
BLACK
6
CONTINUOUS
10
123.071
20
-165.696
11
123.261
21
-165.601
0
LINE
8
BLACK
6
CONTINUOUS
10
123.261
20
-165.601
11
123.356
21
-165.505
0
LINE
8
BLACK
6
CONTINUOUS
10
123.356
20
-165.505
11
123.452
21
-165.315
0
LINE
8
BLACK
6
CONTINUOUS
10
123.452
20
-165.315
11
123.452
21
-164.839
0
LINE
8
BLACK
6
CONTINUOUS
10
123.452
20
-164.839
11
123.356
21
-164.648
0
LINE
8
BLACK
6
CONTINUOUS
10
123.356
20
-164.648
11
123.261
21
-164.553
0
LINE
8
BLACK
6
CONTINUOUS
10
123.261
20
-164.553
11
123.071
21
-164.458
0
LINE
8
BLACK
6
CONTINUOUS
10
123.071
20
-164.458
11
122.69
21
-164.458
0
LINE
8
BLACK
6
CONTINUOUS
10
122.69
20
-164.458
11
122.499
21
-164.553
0
LINE
8
BLACK
6
CONTINUOUS
10
122.499
20
-164.553
11
122.404
21
-164.648
0
LINE
8
BLACK
6
CONTINUOUS
10
122.404
20
-164.648
11
122.309
21
-164.839
0
LINE
8
BLACK
6
CONTINUOUS
10
124.118
20
-163.696
11
125.356
21
-163.696
0
LINE
8
BLACK
6
CONTINUOUS
10
125.356
20
-163.696
11
124.69
21
-164.458
0
LINE
8
BLACK
6
CONTINUOUS
10
124.69
20
-164.458
11
124.975
21
-164.458
0
LINE
8
BLACK
6
CONTINUOUS
10
124.975
20
-164.458
11
125.166
21
-164.553
0
LINE
8
BLACK
6
CONTINUOUS
10
125.166
20
-164.553
11
125.261
21
-164.648
0
LINE
8
BLACK
6
CONTINUOUS
10
125.261
20
-164.648
11
125.356
21
-164.839
0
LINE
8
BLACK
6
CONTINUOUS
10
125.356
20
-164.839
11
125.356
21
-165.315
0
LINE
8
BLACK
6
CONTINUOUS
10
125.356
20
-165.315
11
125.261
21
-165.505
0
LINE
8
BLACK
6
CONTINUOUS
10
125.261
20
-165.505
11
125.166
21
-165.601
0
LINE
8
BLACK
6
CONTINUOUS
10
125.166
20
-165.601
11
124.975
21
-165.696
0
LINE
8
BLACK
6
CONTINUOUS
10
124.975
20
-165.696
11
124.404
21
-165.696
0
LINE
8
BLACK
6
CONTINUOUS
10
124.404
20
-165.696
11
124.213
21
-165.601
0
LINE
8
BLACK
6
CONTINUOUS
10
124.213
20
-165.601
11
124.118
21
-165.505
0
LINE
8
BLACK
6
CONTINUOUS
10
126.594
20
-163.696
11
126.785
21
-163.696
0
LINE
8
BLACK
6
CONTINUOUS
10
126.785
20
-163.696
11
126.975
21
-163.791
0
LINE
8
BLACK
6
CONTINUOUS
10
126.975
20
-163.791
11
127.071
21
-163.886
0
LINE
8
BLACK
6
CONTINUOUS
10
127.071
20
-163.886
11
127.166
21
-164.077
0
LINE
8
BLACK
6
CONTINUOUS
10
127.166
20
-164.077
11
127.261
21
-164.458
0
LINE
8
BLACK
6
CONTINUOUS
10
127.261
20
-164.458
11
127.261
21
-164.934
0
LINE
8
BLACK
6
CONTINUOUS
10
127.261
20
-164.934
11
127.166
21
-165.315
0
LINE
8
BLACK
6
CONTINUOUS
10
127.166
20
-165.315
11
127.071
21
-165.505
0
LINE
8
BLACK
6
CONTINUOUS
10
127.071
20
-165.505
11
126.975
21
-165.601
0
LINE
8
BLACK
6
CONTINUOUS
10
126.975
20
-165.601
11
126.785
21
-165.696
0
LINE
8
BLACK
6
CONTINUOUS
10
126.785
20
-165.696
11
126.594
21
-165.696
0
LINE
8
BLACK
6
CONTINUOUS
10
126.594
20
-165.696
11
126.404
21
-165.601
0
LINE
8
BLACK
6
CONTINUOUS
10
126.404
20
-165.601
11
126.309
21
-165.505
0
LINE
8
BLACK
6
CONTINUOUS
10
126.309
20
-165.505
11
126.213
21
-165.315
0
LINE
8
BLACK
6
CONTINUOUS
10
126.213
20
-165.315
11
126.118
21
-164.934
0
LINE
8
BLACK
6
CONTINUOUS
10
126.118
20
-164.934
11
126.118
21
-164.458
0
LINE
8
BLACK
6
CONTINUOUS
10
126.118
20
-164.458
11
126.213
21
-164.077
0
LINE
8
BLACK
6
CONTINUOUS
10
126.213
20
-164.077
11
126.309
21
-163.886
0
LINE
8
BLACK
6
CONTINUOUS
10
126.309
20
-163.886
11
126.404
21
-163.791
0
LINE
8
BLACK
6
CONTINUOUS
10
126.404
20
-163.791
11
126.594
21
-163.696
0
LINE
8
BLACK
6
CONTINUOUS
10
128.023
20
-163.696
11
128.023
21
-164.077
0
LINE
8
BLACK
6
CONTINUOUS
10
128.785
20
-163.696
11
128.785
21
-164.077
0
LINE
8
BLACK
6
CONTINUOUS
10
131.413
20
-166.458
11
131.318
21
-166.362
0
LINE
8
BLACK
6
CONTINUOUS
10
131.318
20
-166.362
11
131.128
21
-166.077
0
LINE
8
BLACK
6
CONTINUOUS
10
131.128
20
-166.077
11
131.032
21
-165.886
0
LINE
8
BLACK
6
CONTINUOUS
10
131.032
20
-165.886
11
130.937
21
-165.601
0
LINE
8
BLACK
6
CONTINUOUS
10
130.937
20
-165.601
11
130.842
21
-165.124
0
LINE
8
BLACK
6
CONTINUOUS
10
130.842
20
-165.124
11
130.842
21
-164.743
0
LINE
8
BLACK
6
CONTINUOUS
10
130.842
20
-164.743
11
130.937
21
-164.267
0
LINE
8
BLACK
6
CONTINUOUS
10
130.937
20
-164.267
11
131.032
21
-163.981
0
LINE
8
BLACK
6
CONTINUOUS
10
131.032
20
-163.981
11
131.128
21
-163.791
0
LINE
8
BLACK
6
CONTINUOUS
10
131.128
20
-163.791
11
131.318
21
-163.505
0
LINE
8
BLACK
6
CONTINUOUS
10
131.318
20
-163.505
11
131.413
21
-163.41
0
LINE
8
BLACK
6
CONTINUOUS
10
133.223
20
-165.696
11
132.08
21
-165.696
0
LINE
8
BLACK
6
CONTINUOUS
10
132.652
20
-165.696
11
132.652
21
-163.696
0
LINE
8
BLACK
6
CONTINUOUS
10
132.652
20
-163.696
11
132.461
21
-163.981
0
LINE
8
BLACK
6
CONTINUOUS
10
132.461
20
-163.981
11
132.271
21
-164.172
0
LINE
8
BLACK
6
CONTINUOUS
10
132.271
20
-164.172
11
132.08
21
-164.267
0
LINE
8
BLACK
6
CONTINUOUS
10
135.28
20
-165.696
11
135.28
21
-163.696
0
LINE
8
BLACK
6
CONTINUOUS
10
136.137
20
-165.696
11
136.137
21
-164.648
0
LINE
8
BLACK
6
CONTINUOUS
10
136.137
20
-164.648
11
136.042
21
-164.458
0
LINE
8
BLACK
6
CONTINUOUS
10
136.042
20
-164.458
11
135.852
21
-164.362
0
LINE
8
BLACK
6
CONTINUOUS
10
135.852
20
-164.362
11
135.566
21
-164.362
0
LINE
8
BLACK
6
CONTINUOUS
10
135.566
20
-164.362
11
135.375
21
-164.458
0
LINE
8
BLACK
6
CONTINUOUS
10
135.375
20
-164.458
11
135.28
21
-164.553
0
LINE
8
BLACK
6
CONTINUOUS
10
137.375
20
-165.696
11
137.185
21
-165.601
0
LINE
8
BLACK
6
CONTINUOUS
10
137.185
20
-165.601
11
137.09
21
-165.505
0
LINE
8
BLACK
6
CONTINUOUS
10
137.09
20
-165.505
11
136.994
21
-165.315
0
LINE
8
BLACK
6
CONTINUOUS
10
136.994
20
-165.315
11
136.994
21
-164.743
0
LINE
8
BLACK
6
CONTINUOUS
10
136.994
20
-164.743
11
137.09
21
-164.553
0
LINE
8
BLACK
6
CONTINUOUS
10
137.09
20
-164.553
11
137.185
21
-164.458
0
LINE
8
BLACK
6
CONTINUOUS
10
137.185
20
-164.458
11
137.375
21
-164.362
0
LINE
8
BLACK
6
CONTINUOUS
10
137.375
20
-164.362
11
137.661
21
-164.362
0
LINE
8
BLACK
6
CONTINUOUS
10
137.661
20
-164.362
11
137.852
21
-164.458
0
LINE
8
BLACK
6
CONTINUOUS
10
137.852
20
-164.458
11
137.947
21
-164.553
0
LINE
8
BLACK
6
CONTINUOUS
10
137.947
20
-164.553
11
138.042
21
-164.743
0
LINE
8
BLACK
6
CONTINUOUS
10
138.042
20
-164.743
11
138.042
21
-165.315
0
LINE
8
BLACK
6
CONTINUOUS
10
138.042
20
-165.315
11
137.947
21
-165.505
0
LINE
8
BLACK
6
CONTINUOUS
10
137.947
20
-165.505
11
137.852
21
-165.601
0
LINE
8
BLACK
6
CONTINUOUS
10
137.852
20
-165.601
11
137.661
21
-165.696
0
LINE
8
BLACK
6
CONTINUOUS
10
137.661
20
-165.696
11
137.375
21
-165.696
0
LINE
8
BLACK
6
CONTINUOUS
10
139.185
20
-165.696
11
138.994
21
-165.601
0
LINE
8
BLACK
6
CONTINUOUS
10
138.994
20
-165.601
11
138.899
21
-165.41
0
LINE
8
BLACK
6
CONTINUOUS
10
138.899
20
-165.41
11
138.899
21
-163.696
0
LINE
8
BLACK
6
CONTINUOUS
10
140.709
20
-165.601
11
140.518
21
-165.696
0
LINE
8
BLACK
6
CONTINUOUS
10
140.518
20
-165.696
11
140.137
21
-165.696
0
LINE
8
BLACK
6
CONTINUOUS
10
140.137
20
-165.696
11
139.947
21
-165.601
0
LINE
8
BLACK
6
CONTINUOUS
10
139.947
20
-165.601
11
139.852
21
-165.41
0
LINE
8
BLACK
6
CONTINUOUS
10
139.852
20
-165.41
11
139.852
21
-164.648
0
LINE
8
BLACK
6
CONTINUOUS
10
139.852
20
-164.648
11
139.947
21
-164.458
0
LINE
8
BLACK
6
CONTINUOUS
10
139.947
20
-164.458
11
140.137
21
-164.362
0
LINE
8
BLACK
6
CONTINUOUS
10
140.137
20
-164.362
11
140.518
21
-164.362
0
LINE
8
BLACK
6
CONTINUOUS
10
140.518
20
-164.362
11
140.709
21
-164.458
0
LINE
8
BLACK
6
CONTINUOUS
10
140.709
20
-164.458
11
140.804
21
-164.648
0
LINE
8
BLACK
6
CONTINUOUS
10
140.804
20
-164.648
11
140.804
21
-164.839
0
LINE
8
BLACK
6
CONTINUOUS
10
140.804
20
-164.839
11
139.852
21
-165.029
0
LINE
8
BLACK
6
CONTINUOUS
10
141.471
20
-166.458
11
141.566
21
-166.362
0
LINE
8
BLACK
6
CONTINUOUS
10
141.566
20
-166.362
11
141.756
21
-166.077
0
LINE
8
BLACK
6
CONTINUOUS
10
141.756
20
-166.077
11
141.852
21
-165.886
0
LINE
8
BLACK
6
CONTINUOUS
10
141.852
20
-165.886
11
141.947
21
-165.601
0
LINE
8
BLACK
6
CONTINUOUS
10
141.947
20
-165.601
11
142.042
21
-165.124
0
LINE
8
BLACK
6
CONTINUOUS
10
142.042
20
-165.124
11
142.042
21
-164.743
0
LINE
8
BLACK
6
CONTINUOUS
10
142.042
20
-164.743
11
141.947
21
-164.267
0
LINE
8
BLACK
6
CONTINUOUS
10
141.947
20
-164.267
11
141.852
21
-163.981
0
LINE
8
BLACK
6
CONTINUOUS
10
141.852
20
-163.981
11
141.756
21
-163.791
0
LINE
8
BLACK
6
CONTINUOUS
10
141.756
20
-163.791
11
141.566
21
-163.505
0
LINE
8
BLACK
6
CONTINUOUS
10
141.566
20
-163.505
11
141.471
21
-163.41
0
LINE
8
BLACK
6
CONTINUOUS
10
144.766
20
-166.458
11
144.671
21
-166.362
0
LINE
8
BLACK
6
CONTINUOUS
10
144.671
20
-166.362
11
144.48
21
-166.077
0
LINE
8
BLACK
6
CONTINUOUS
10
144.48
20
-166.077
11
144.385
21
-165.886
0
LINE
8
BLACK
6
CONTINUOUS
10
144.385
20
-165.886
11
144.29
21
-165.601
0
LINE
8
BLACK
6
CONTINUOUS
10
144.29
20
-165.601
11
144.194
21
-165.124
0
LINE
8
BLACK
6
CONTINUOUS
10
144.194
20
-165.124
11
144.194
21
-164.743
0
LINE
8
BLACK
6
CONTINUOUS
10
144.194
20
-164.743
11
144.29
21
-164.267
0
LINE
8
BLACK
6
CONTINUOUS
10
144.29
20
-164.267
11
144.385
21
-163.981
0
LINE
8
BLACK
6
CONTINUOUS
10
144.385
20
-163.981
11
144.48
21
-163.791
0
LINE
8
BLACK
6
CONTINUOUS
10
144.48
20
-163.791
11
144.671
21
-163.505
0
LINE
8
BLACK
6
CONTINUOUS
10
144.671
20
-163.505
11
144.766
21
-163.41
0
LINE
8
BLACK
6
CONTINUOUS
10
145.528
20
-164.362
11
145.528
21
-165.696
0
LINE
8
BLACK
6
CONTINUOUS
10
145.528
20
-164.553
11
145.623
21
-164.458
0
LINE
8
BLACK
6
CONTINUOUS
10
145.623
20
-164.458
11
145.813
21
-164.362
0
LINE
8
BLACK
6
CONTINUOUS
10
145.813
20
-164.362
11
146.099
21
-164.362
0
LINE
8
BLACK
6
CONTINUOUS
10
146.099
20
-164.362
11
146.29
21
-164.458
0
LINE
8
BLACK
6
CONTINUOUS
10
146.29
20
-164.458
11
146.385
21
-164.648
0
LINE
8
BLACK
6
CONTINUOUS
10
146.385
20
-164.648
11
146.385
21
-165.696
0
LINE
8
BLACK
6
CONTINUOUS
10
147.623
20
-165.696
11
147.432
21
-165.601
0
LINE
8
BLACK
6
CONTINUOUS
10
147.432
20
-165.601
11
147.337
21
-165.505
0
LINE
8
BLACK
6
CONTINUOUS
10
147.337
20
-165.505
11
147.242
21
-165.315
0
LINE
8
BLACK
6
CONTINUOUS
10
147.242
20
-165.315
11
147.242
21
-164.743
0
LINE
8
BLACK
6
CONTINUOUS
10
147.242
20
-164.743
11
147.337
21
-164.553
0
LINE
8
BLACK
6
CONTINUOUS
10
147.337
20
-164.553
11
147.432
21
-164.458
0
LINE
8
BLACK
6
CONTINUOUS
10
147.432
20
-164.458
11
147.623
21
-164.362
0
LINE
8
BLACK
6
CONTINUOUS
10
147.623
20
-164.362
11
147.909
21
-164.362
0
LINE
8
BLACK
6
CONTINUOUS
10
147.909
20
-164.362
11
148.099
21
-164.458
0
LINE
8
BLACK
6
CONTINUOUS
10
148.099
20
-164.458
11
148.194
21
-164.553
0
LINE
8
BLACK
6
CONTINUOUS
10
148.194
20
-164.553
11
148.29
21
-164.743
0
LINE
8
BLACK
6
CONTINUOUS
10
148.29
20
-164.743
11
148.29
21
-165.315
0
LINE
8
BLACK
6
CONTINUOUS
10
148.29
20
-165.315
11
148.194
21
-165.505
0
LINE
8
BLACK
6
CONTINUOUS
10
148.194
20
-165.505
11
148.099
21
-165.601
0
LINE
8
BLACK
6
CONTINUOUS
10
148.099
20
-165.601
11
147.909
21
-165.696
0
LINE
8
BLACK
6
CONTINUOUS
10
147.909
20
-165.696
11
147.623
21
-165.696
0
LINE
8
BLACK
6
CONTINUOUS
10
148.861
20
-164.362
11
149.623
21
-164.362
0
LINE
8
BLACK
6
CONTINUOUS
10
149.147
20
-163.696
11
149.147
21
-165.41
0
LINE
8
BLACK
6
CONTINUOUS
10
149.147
20
-165.41
11
149.242
21
-165.601
0
LINE
8
BLACK
6
CONTINUOUS
10
149.242
20
-165.601
11
149.432
21
-165.696
0
LINE
8
BLACK
6
CONTINUOUS
10
149.432
20
-165.696
11
149.623
21
-165.696
0
LINE
8
BLACK
6
CONTINUOUS
10
151.49
20
-164.362
11
151.49
21
-166.362
0
LINE
8
BLACK
6
CONTINUOUS
10
151.49
20
-164.458
11
151.68
21
-164.362
0
LINE
8
BLACK
6
CONTINUOUS
10
151.68
20
-164.362
11
152.061
21
-164.362
0
LINE
8
BLACK
6
CONTINUOUS
10
152.061
20
-164.362
11
152.252
21
-164.458
0
LINE
8
BLACK
6
CONTINUOUS
10
152.252
20
-164.458
11
152.347
21
-164.553
0
LINE
8
BLACK
6
CONTINUOUS
10
152.347
20
-164.553
11
152.442
21
-164.743
0
LINE
8
BLACK
6
CONTINUOUS
10
152.442
20
-164.743
11
152.442
21
-165.315
0
LINE
8
BLACK
6
CONTINUOUS
10
152.442
20
-165.315
11
152.347
21
-165.505
0
LINE
8
BLACK
6
CONTINUOUS
10
152.347
20
-165.505
11
152.252
21
-165.601
0
LINE
8
BLACK
6
CONTINUOUS
10
152.252
20
-165.601
11
152.061
21
-165.696
0
LINE
8
BLACK
6
CONTINUOUS
10
152.061
20
-165.696
11
151.68
21
-165.696
0
LINE
8
BLACK
6
CONTINUOUS
10
151.68
20
-165.696
11
151.49
21
-165.601
0
LINE
8
BLACK
6
CONTINUOUS
10
153.585
20
-165.696
11
153.394
21
-165.601
0
LINE
8
BLACK
6
CONTINUOUS
10
153.394
20
-165.601
11
153.299
21
-165.41
0
LINE
8
BLACK
6
CONTINUOUS
10
153.299
20
-165.41
11
153.299
21
-163.696
0
LINE
8
BLACK
6
CONTINUOUS
10
155.204
20
-165.696
11
155.204
21
-164.648
0
LINE
8
BLACK
6
CONTINUOUS
10
155.204
20
-164.648
11
155.109
21
-164.458
0
LINE
8
BLACK
6
CONTINUOUS
10
155.109
20
-164.458
11
154.918
21
-164.362
0
LINE
8
BLACK
6
CONTINUOUS
10
154.918
20
-164.362
11
154.537
21
-164.362
0
LINE
8
BLACK
6
CONTINUOUS
10
154.537
20
-164.362
11
154.347
21
-164.458
0
LINE
8
BLACK
6
CONTINUOUS
10
155.204
20
-165.601
11
155.013
21
-165.696
0
LINE
8
BLACK
6
CONTINUOUS
10
155.013
20
-165.696
11
154.537
21
-165.696
0
LINE
8
BLACK
6
CONTINUOUS
10
154.537
20
-165.696
11
154.347
21
-165.601
0
LINE
8
BLACK
6
CONTINUOUS
10
154.347
20
-165.601
11
154.252
21
-165.41
0
LINE
8
BLACK
6
CONTINUOUS
10
154.252
20
-165.41
11
154.252
21
-165.22
0
LINE
8
BLACK
6
CONTINUOUS
10
154.252
20
-165.22
11
154.347
21
-165.029
0
LINE
8
BLACK
6
CONTINUOUS
10
154.347
20
-165.029
11
154.537
21
-164.934
0
LINE
8
BLACK
6
CONTINUOUS
10
154.537
20
-164.934
11
155.013
21
-164.934
0
LINE
8
BLACK
6
CONTINUOUS
10
155.013
20
-164.934
11
155.204
21
-164.839
0
LINE
8
BLACK
6
CONTINUOUS
10
155.871
20
-164.362
11
156.632
21
-164.362
0
LINE
8
BLACK
6
CONTINUOUS
10
156.156
20
-163.696
11
156.156
21
-165.41
0
LINE
8
BLACK
6
CONTINUOUS
10
156.156
20
-165.41
11
156.252
21
-165.601
0
LINE
8
BLACK
6
CONTINUOUS
10
156.252
20
-165.601
11
156.442
21
-165.696
0
LINE
8
BLACK
6
CONTINUOUS
10
156.442
20
-165.696
11
156.632
21
-165.696
0
LINE
8
BLACK
6
CONTINUOUS
10
158.061
20
-165.601
11
157.871
21
-165.696
0
LINE
8
BLACK
6
CONTINUOUS
10
157.871
20
-165.696
11
157.49
21
-165.696
0
LINE
8
BLACK
6
CONTINUOUS
10
157.49
20
-165.696
11
157.299
21
-165.601
0
LINE
8
BLACK
6
CONTINUOUS
10
157.299
20
-165.601
11
157.204
21
-165.41
0
LINE
8
BLACK
6
CONTINUOUS
10
157.204
20
-165.41
11
157.204
21
-164.648
0
LINE
8
BLACK
6
CONTINUOUS
10
157.204
20
-164.648
11
157.299
21
-164.458
0
LINE
8
BLACK
6
CONTINUOUS
10
157.299
20
-164.458
11
157.49
21
-164.362
0
LINE
8
BLACK
6
CONTINUOUS
10
157.49
20
-164.362
11
157.871
21
-164.362
0
LINE
8
BLACK
6
CONTINUOUS
10
157.871
20
-164.362
11
158.061
21
-164.458
0
LINE
8
BLACK
6
CONTINUOUS
10
158.061
20
-164.458
11
158.156
21
-164.648
0
LINE
8
BLACK
6
CONTINUOUS
10
158.156
20
-164.648
11
158.156
21
-164.839
0
LINE
8
BLACK
6
CONTINUOUS
10
158.156
20
-164.839
11
157.204
21
-165.029
0
LINE
8
BLACK
6
CONTINUOUS
10
159.871
20
-165.696
11
159.871
21
-163.696
0
LINE
8
BLACK
6
CONTINUOUS
10
159.871
20
-165.601
11
159.68
21
-165.696
0
LINE
8
BLACK
6
CONTINUOUS
10
159.68
20
-165.696
11
159.299
21
-165.696
0
LINE
8
BLACK
6
CONTINUOUS
10
159.299
20
-165.696
11
159.109
21
-165.601
0
LINE
8
BLACK
6
CONTINUOUS
10
159.109
20
-165.601
11
159.013
21
-165.505
0
LINE
8
BLACK
6
CONTINUOUS
10
159.013
20
-165.505
11
158.918
21
-165.315
0
LINE
8
BLACK
6
CONTINUOUS
10
158.918
20
-165.315
11
158.918
21
-164.743
0
LINE
8
BLACK
6
CONTINUOUS
10
158.918
20
-164.743
11
159.013
21
-164.553
0
LINE
8
BLACK
6
CONTINUOUS
10
159.013
20
-164.553
11
159.109
21
-164.458
0
LINE
8
BLACK
6
CONTINUOUS
10
159.109
20
-164.458
11
159.299
21
-164.362
0
LINE
8
BLACK
6
CONTINUOUS
10
159.299
20
-164.362
11
159.68
21
-164.362
0
LINE
8
BLACK
6
CONTINUOUS
10
159.68
20
-164.362
11
159.871
21
-164.458
0
LINE
8
BLACK
6
CONTINUOUS
10
160.632
20
-166.458
11
160.728
21
-166.362
0
LINE
8
BLACK
6
CONTINUOUS
10
160.728
20
-166.362
11
160.918
21
-166.077
0
LINE
8
BLACK
6
CONTINUOUS
10
160.918
20
-166.077
11
161.013
21
-165.886
0
LINE
8
BLACK
6
CONTINUOUS
10
161.013
20
-165.886
11
161.109
21
-165.601
0
LINE
8
BLACK
6
CONTINUOUS
10
161.109
20
-165.601
11
161.204
21
-165.124
0
LINE
8
BLACK
6
CONTINUOUS
10
161.204
20
-165.124
11
161.204
21
-164.743
0
LINE
8
BLACK
6
CONTINUOUS
10
161.204
20
-164.743
11
161.109
21
-164.267
0
LINE
8
BLACK
6
CONTINUOUS
10
161.109
20
-164.267
11
161.013
21
-163.981
0
LINE
8
BLACK
6
CONTINUOUS
10
161.013
20
-163.981
11
160.918
21
-163.791
0
LINE
8
BLACK
6
CONTINUOUS
10
160.918
20
-163.791
11
160.728
21
-163.505
0
LINE
8
BLACK
6
CONTINUOUS
10
160.728
20
-163.505
11
160.632
21
-163.41
0
LINE
8
BLACK
6
CONTINUOUS
10
96.4729
20
-168.468
11
96.4729
21
-167.054
0
LINE
8
BLACK
6
CONTINUOUS
10
96.4729
20
-167.054
11
95.0587
21
-167.054
0
LINE
8
BLACK
6
CONTINUOUS
10
95.0587
20
-167.054
11
95.0587
21
-168.468
0
LINE
8
BLACK
6
CONTINUOUS
10
95.0587
20
-168.468
11
96.4729
21
-168.468
0
LINE
8
BLACK
6
CONTINUOUS
10
99.1468
20
-166.686
11
99.242
21
-166.591
0
LINE
8
BLACK
6
CONTINUOUS
10
99.242
20
-166.591
11
99.4325
21
-166.496
0
LINE
8
BLACK
6
CONTINUOUS
10
99.4325
20
-166.496
11
99.9087
21
-166.496
0
LINE
8
BLACK
6
CONTINUOUS
10
99.9087
20
-166.496
11
100.099
21
-166.591
0
LINE
8
BLACK
6
CONTINUOUS
10
100.099
20
-166.591
11
100.194
21
-166.686
0
LINE
8
BLACK
6
CONTINUOUS
10
100.194
20
-166.686
11
100.29
21
-166.877
0
LINE
8
BLACK
6
CONTINUOUS
10
100.29
20
-166.877
11
100.29
21
-167.067
0
LINE
8
BLACK
6
CONTINUOUS
10
100.29
20
-167.067
11
100.194
21
-167.353
0
LINE
8
BLACK
6
CONTINUOUS
10
100.194
20
-167.353
11
99.0515
21
-168.496
0
LINE
8
BLACK
6
CONTINUOUS
10
99.0515
20
-168.496
11
100.29
21
-168.496
0
LINE
8
BLACK
6
CONTINUOUS
10
101.147
20
-168.305
11
101.242
21
-168.401
0
LINE
8
BLACK
6
CONTINUOUS
10
101.242
20
-168.401
11
101.147
21
-168.496
0
LINE
8
BLACK
6
CONTINUOUS
10
101.147
20
-168.496
11
101.052
21
-168.401
0
LINE
8
BLACK
6
CONTINUOUS
10
101.052
20
-168.401
11
101.147
21
-168.305
0
LINE
8
BLACK
6
CONTINUOUS
10
101.147
20
-168.305
11
101.147
21
-168.496
0
LINE
8
BLACK
6
CONTINUOUS
10
101.909
20
-166.496
11
103.242
21
-166.496
0
LINE
8
BLACK
6
CONTINUOUS
10
103.242
20
-166.496
11
102.385
21
-168.496
0
LINE
8
BLACK
6
CONTINUOUS
10
104.385
20
-166.496
11
104.575
21
-166.496
0
LINE
8
BLACK
6
CONTINUOUS
10
104.575
20
-166.496
11
104.766
21
-166.591
0
LINE
8
BLACK
6
CONTINUOUS
10
104.766
20
-166.591
11
104.861
21
-166.686
0
LINE
8
BLACK
6
CONTINUOUS
10
104.861
20
-166.686
11
104.956
21
-166.877
0
LINE
8
BLACK
6
CONTINUOUS
10
104.956
20
-166.877
11
105.052
21
-167.258
0
LINE
8
BLACK
6
CONTINUOUS
10
105.052
20
-167.258
11
105.052
21
-167.734
0
LINE
8
BLACK
6
CONTINUOUS
10
105.052
20
-167.734
11
104.956
21
-168.115
0
LINE
8
BLACK
6
CONTINUOUS
10
104.956
20
-168.115
11
104.861
21
-168.305
0
LINE
8
BLACK
6
CONTINUOUS
10
104.861
20
-168.305
11
104.766
21
-168.401
0
LINE
8
BLACK
6
CONTINUOUS
10
104.766
20
-168.401
11
104.575
21
-168.496
0
LINE
8
BLACK
6
CONTINUOUS
10
104.575
20
-168.496
11
104.385
21
-168.496
0
LINE
8
BLACK
6
CONTINUOUS
10
104.385
20
-168.496
11
104.194
21
-168.401
0
LINE
8
BLACK
6
CONTINUOUS
10
104.194
20
-168.401
11
104.099
21
-168.305
0
LINE
8
BLACK
6
CONTINUOUS
10
104.099
20
-168.305
11
104.004
21
-168.115
0
LINE
8
BLACK
6
CONTINUOUS
10
104.004
20
-168.115
11
103.909
21
-167.734
0
LINE
8
BLACK
6
CONTINUOUS
10
103.909
20
-167.734
11
103.909
21
-167.258
0
LINE
8
BLACK
6
CONTINUOUS
10
103.909
20
-167.258
11
104.004
21
-166.877
0
LINE
8
BLACK
6
CONTINUOUS
10
104.004
20
-166.877
11
104.099
21
-166.686
0
LINE
8
BLACK
6
CONTINUOUS
10
104.099
20
-166.686
11
104.194
21
-166.591
0
LINE
8
BLACK
6
CONTINUOUS
10
104.194
20
-166.591
11
104.385
21
-166.496
0
LINE
8
BLACK
6
CONTINUOUS
10
106.29
20
-166.496
11
106.48
21
-166.496
0
LINE
8
BLACK
6
CONTINUOUS
10
106.48
20
-166.496
11
106.671
21
-166.591
0
LINE
8
BLACK
6
CONTINUOUS
10
106.671
20
-166.591
11
106.766
21
-166.686
0
LINE
8
BLACK
6
CONTINUOUS
10
106.766
20
-166.686
11
106.861
21
-166.877
0
LINE
8
BLACK
6
CONTINUOUS
10
106.861
20
-166.877
11
106.956
21
-167.258
0
LINE
8
BLACK
6
CONTINUOUS
10
106.956
20
-167.258
11
106.956
21
-167.734
0
LINE
8
BLACK
6
CONTINUOUS
10
106.956
20
-167.734
11
106.861
21
-168.115
0
LINE
8
BLACK
6
CONTINUOUS
10
106.861
20
-168.115
11
106.766
21
-168.305
0
LINE
8
BLACK
6
CONTINUOUS
10
106.766
20
-168.305
11
106.671
21
-168.401
0
LINE
8
BLACK
6
CONTINUOUS
10
106.671
20
-168.401
11
106.48
21
-168.496
0
LINE
8
BLACK
6
CONTINUOUS
10
106.48
20
-168.496
11
106.29
21
-168.496
0
LINE
8
BLACK
6
CONTINUOUS
10
106.29
20
-168.496
11
106.099
21
-168.401
0
LINE
8
BLACK
6
CONTINUOUS
10
106.099
20
-168.401
11
106.004
21
-168.305
0
LINE
8
BLACK
6
CONTINUOUS
10
106.004
20
-168.305
11
105.909
21
-168.115
0
LINE
8
BLACK
6
CONTINUOUS
10
105.909
20
-168.115
11
105.813
21
-167.734
0
LINE
8
BLACK
6
CONTINUOUS
10
105.813
20
-167.734
11
105.813
21
-167.258
0
LINE
8
BLACK
6
CONTINUOUS
10
105.813
20
-167.258
11
105.909
21
-166.877
0
LINE
8
BLACK
6
CONTINUOUS
10
105.909
20
-166.877
11
106.004
21
-166.686
0
LINE
8
BLACK
6
CONTINUOUS
10
106.004
20
-166.686
11
106.099
21
-166.591
0
LINE
8
BLACK
6
CONTINUOUS
10
106.099
20
-166.591
11
106.29
21
-166.496
0
LINE
8
BLACK
6
CONTINUOUS
10
107.813
20
-168.496
11
107.813
21
-167.162
0
LINE
8
BLACK
6
CONTINUOUS
10
107.813
20
-167.353
11
107.909
21
-167.258
0
LINE
8
BLACK
6
CONTINUOUS
10
107.909
20
-167.258
11
108.099
21
-167.162
0
LINE
8
BLACK
6
CONTINUOUS
10
108.099
20
-167.162
11
108.385
21
-167.162
0
LINE
8
BLACK
6
CONTINUOUS
10
108.385
20
-167.162
11
108.575
21
-167.258
0
LINE
8
BLACK
6
CONTINUOUS
10
108.575
20
-167.258
11
108.671
21
-167.448
0
LINE
8
BLACK
6
CONTINUOUS
10
108.671
20
-167.448
11
108.671
21
-168.496
0
LINE
8
BLACK
6
CONTINUOUS
10
108.671
20
-167.448
11
108.766
21
-167.258
0
LINE
8
BLACK
6
CONTINUOUS
10
108.766
20
-167.258
11
108.956
21
-167.162
0
LINE
8
BLACK
6
CONTINUOUS
10
108.956
20
-167.162
11
109.242
21
-167.162
0
LINE
8
BLACK
6
CONTINUOUS
10
109.242
20
-167.162
11
109.432
21
-167.258
0
LINE
8
BLACK
6
CONTINUOUS
10
109.432
20
-167.258
11
109.528
21
-167.448
0
LINE
8
BLACK
6
CONTINUOUS
10
109.528
20
-167.448
11
109.528
21
-168.496
0
LINE
8
BLACK
6
CONTINUOUS
10
110.48
20
-168.496
11
110.48
21
-167.162
0
LINE
8
BLACK
6
CONTINUOUS
10
110.48
20
-167.353
11
110.575
21
-167.258
0
LINE
8
BLACK
6
CONTINUOUS
10
110.575
20
-167.258
11
110.766
21
-167.162
0
LINE
8
BLACK
6
CONTINUOUS
10
110.766
20
-167.162
11
111.052
21
-167.162
0
LINE
8
BLACK
6
CONTINUOUS
10
111.052
20
-167.162
11
111.242
21
-167.258
0
LINE
8
BLACK
6
CONTINUOUS
10
111.242
20
-167.258
11
111.337
21
-167.448
0
LINE
8
BLACK
6
CONTINUOUS
10
111.337
20
-167.448
11
111.337
21
-168.496
0
LINE
8
BLACK
6
CONTINUOUS
10
111.337
20
-167.448
11
111.432
21
-167.258
0
LINE
8
BLACK
6
CONTINUOUS
10
111.432
20
-167.258
11
111.623
21
-167.162
0
LINE
8
BLACK
6
CONTINUOUS
10
111.623
20
-167.162
11
111.909
21
-167.162
0
LINE
8
BLACK
6
CONTINUOUS
10
111.909
20
-167.162
11
112.099
21
-167.258
0
LINE
8
BLACK
6
CONTINUOUS
10
112.099
20
-167.258
11
112.194
21
-167.448
0
LINE
8
BLACK
6
CONTINUOUS
10
112.194
20
-167.448
11
112.194
21
-168.496
0
LINE
8
BLACK
6
CONTINUOUS
10
115.775
20
-166.401
11
114.061
21
-168.972
0
LINE
8
BLACK
6
CONTINUOUS
10
118.023
20
-166.496
11
118.213
21
-166.496
0
LINE
8
BLACK
6
CONTINUOUS
10
118.213
20
-166.496
11
118.404
21
-166.591
0
LINE
8
BLACK
6
CONTINUOUS
10
118.404
20
-166.591
11
118.499
21
-166.686
0
LINE
8
BLACK
6
CONTINUOUS
10
118.499
20
-166.686
11
118.594
21
-166.877
0
LINE
8
BLACK
6
CONTINUOUS
10
118.594
20
-166.877
11
118.69
21
-167.258
0
LINE
8
BLACK
6
CONTINUOUS
10
118.69
20
-167.258
11
118.69
21
-167.734
0
LINE
8
BLACK
6
CONTINUOUS
10
118.69
20
-167.734
11
118.594
21
-168.115
0
LINE
8
BLACK
6
CONTINUOUS
10
118.594
20
-168.115
11
118.499
21
-168.305
0
LINE
8
BLACK
6
CONTINUOUS
10
118.499
20
-168.305
11
118.404
21
-168.401
0
LINE
8
BLACK
6
CONTINUOUS
10
118.404
20
-168.401
11
118.213
21
-168.496
0
LINE
8
BLACK
6
CONTINUOUS
10
118.213
20
-168.496
11
118.023
21
-168.496
0
LINE
8
BLACK
6
CONTINUOUS
10
118.023
20
-168.496
11
117.832
21
-168.401
0
LINE
8
BLACK
6
CONTINUOUS
10
117.832
20
-168.401
11
117.737
21
-168.305
0
LINE
8
BLACK
6
CONTINUOUS
10
117.737
20
-168.305
11
117.642
21
-168.115
0
LINE
8
BLACK
6
CONTINUOUS
10
117.642
20
-168.115
11
117.547
21
-167.734
0
LINE
8
BLACK
6
CONTINUOUS
10
117.547
20
-167.734
11
117.547
21
-167.258
0
LINE
8
BLACK
6
CONTINUOUS
10
117.547
20
-167.258
11
117.642
21
-166.877
0
LINE
8
BLACK
6
CONTINUOUS
10
117.642
20
-166.877
11
117.737
21
-166.686
0
LINE
8
BLACK
6
CONTINUOUS
10
117.737
20
-166.686
11
117.832
21
-166.591
0
LINE
8
BLACK
6
CONTINUOUS
10
117.832
20
-166.591
11
118.023
21
-166.496
0
LINE
8
BLACK
6
CONTINUOUS
10
119.547
20
-168.305
11
119.642
21
-168.401
0
LINE
8
BLACK
6
CONTINUOUS
10
119.642
20
-168.401
11
119.547
21
-168.496
0
LINE
8
BLACK
6
CONTINUOUS
10
119.547
20
-168.496
11
119.452
21
-168.401
0
LINE
8
BLACK
6
CONTINUOUS
10
119.452
20
-168.401
11
119.547
21
-168.305
0
LINE
8
BLACK
6
CONTINUOUS
10
119.547
20
-168.305
11
119.547
21
-168.496
0
LINE
8
BLACK
6
CONTINUOUS
10
121.547
20
-168.496
11
120.404
21
-168.496
0
LINE
8
BLACK
6
CONTINUOUS
10
120.975
20
-168.496
11
120.975
21
-166.496
0
LINE
8
BLACK
6
CONTINUOUS
10
120.975
20
-166.496
11
120.785
21
-166.781
0
LINE
8
BLACK
6
CONTINUOUS
10
120.785
20
-166.781
11
120.594
21
-166.972
0
LINE
8
BLACK
6
CONTINUOUS
10
120.594
20
-166.972
11
120.404
21
-167.067
0
LINE
8
BLACK
6
CONTINUOUS
10
122.785
20
-166.496
11
122.975
21
-166.496
0
LINE
8
BLACK
6
CONTINUOUS
10
122.975
20
-166.496
11
123.166
21
-166.591
0
LINE
8
BLACK
6
CONTINUOUS
10
123.166
20
-166.591
11
123.261
21
-166.686
0
LINE
8
BLACK
6
CONTINUOUS
10
123.261
20
-166.686
11
123.356
21
-166.877
0
LINE
8
BLACK
6
CONTINUOUS
10
123.356
20
-166.877
11
123.452
21
-167.258
0
LINE
8
BLACK
6
CONTINUOUS
10
123.452
20
-167.258
11
123.452
21
-167.734
0
LINE
8
BLACK
6
CONTINUOUS
10
123.452
20
-167.734
11
123.356
21
-168.115
0
LINE
8
BLACK
6
CONTINUOUS
10
123.356
20
-168.115
11
123.261
21
-168.305
0
LINE
8
BLACK
6
CONTINUOUS
10
123.261
20
-168.305
11
123.166
21
-168.401
0
LINE
8
BLACK
6
CONTINUOUS
10
123.166
20
-168.401
11
122.975
21
-168.496
0
LINE
8
BLACK
6
CONTINUOUS
10
122.975
20
-168.496
11
122.785
21
-168.496
0
LINE
8
BLACK
6
CONTINUOUS
10
122.785
20
-168.496
11
122.594
21
-168.401
0
LINE
8
BLACK
6
CONTINUOUS
10
122.594
20
-168.401
11
122.499
21
-168.305
0
LINE
8
BLACK
6
CONTINUOUS
10
122.499
20
-168.305
11
122.404
21
-168.115
0
LINE
8
BLACK
6
CONTINUOUS
10
122.404
20
-168.115
11
122.309
21
-167.734
0
LINE
8
BLACK
6
CONTINUOUS
10
122.309
20
-167.734
11
122.309
21
-167.258
0
LINE
8
BLACK
6
CONTINUOUS
10
122.309
20
-167.258
11
122.404
21
-166.877
0
LINE
8
BLACK
6
CONTINUOUS
10
122.404
20
-166.877
11
122.499
21
-166.686
0
LINE
8
BLACK
6
CONTINUOUS
10
122.499
20
-166.686
11
122.594
21
-166.591
0
LINE
8
BLACK
6
CONTINUOUS
10
122.594
20
-166.591
11
122.785
21
-166.496
0
LINE
8
BLACK
6
CONTINUOUS
10
125.166
20
-166.496
11
124.785
21
-166.496
0
LINE
8
BLACK
6
CONTINUOUS
10
124.785
20
-166.496
11
124.594
21
-166.591
0
LINE
8
BLACK
6
CONTINUOUS
10
124.594
20
-166.591
11
124.499
21
-166.686
0
LINE
8
BLACK
6
CONTINUOUS
10
124.499
20
-166.686
11
124.309
21
-166.972
0
LINE
8
BLACK
6
CONTINUOUS
10
124.309
20
-166.972
11
124.213
21
-167.353
0
LINE
8
BLACK
6
CONTINUOUS
10
124.213
20
-167.353
11
124.213
21
-168.115
0
LINE
8
BLACK
6
CONTINUOUS
10
124.213
20
-168.115
11
124.309
21
-168.305
0
LINE
8
BLACK
6
CONTINUOUS
10
124.309
20
-168.305
11
124.404
21
-168.401
0
LINE
8
BLACK
6
CONTINUOUS
10
124.404
20
-168.401
11
124.594
21
-168.496
0
LINE
8
BLACK
6
CONTINUOUS
10
124.594
20
-168.496
11
124.975
21
-168.496
0
LINE
8
BLACK
6
CONTINUOUS
10
124.975
20
-168.496
11
125.166
21
-168.401
0
LINE
8
BLACK
6
CONTINUOUS
10
125.166
20
-168.401
11
125.261
21
-168.305
0
LINE
8
BLACK
6
CONTINUOUS
10
125.261
20
-168.305
11
125.356
21
-168.115
0
LINE
8
BLACK
6
CONTINUOUS
10
125.356
20
-168.115
11
125.356
21
-167.639
0
LINE
8
BLACK
6
CONTINUOUS
10
125.356
20
-167.639
11
125.261
21
-167.448
0
LINE
8
BLACK
6
CONTINUOUS
10
125.261
20
-167.448
11
125.166
21
-167.353
0
LINE
8
BLACK
6
CONTINUOUS
10
125.166
20
-167.353
11
124.975
21
-167.258
0
LINE
8
BLACK
6
CONTINUOUS
10
124.975
20
-167.258
11
124.594
21
-167.258
0
LINE
8
BLACK
6
CONTINUOUS
10
124.594
20
-167.258
11
124.404
21
-167.353
0
LINE
8
BLACK
6
CONTINUOUS
10
124.404
20
-167.353
11
124.309
21
-167.448
0
LINE
8
BLACK
6
CONTINUOUS
10
124.309
20
-167.448
11
124.213
21
-167.639
0
LINE
8
BLACK
6
CONTINUOUS
10
126.023
20
-166.496
11
127.261
21
-166.496
0
LINE
8
BLACK
6
CONTINUOUS
10
127.261
20
-166.496
11
126.594
21
-167.258
0
LINE
8
BLACK
6
CONTINUOUS
10
126.594
20
-167.258
11
126.88
21
-167.258
0
LINE
8
BLACK
6
CONTINUOUS
10
126.88
20
-167.258
11
127.071
21
-167.353
0
LINE
8
BLACK
6
CONTINUOUS
10
127.071
20
-167.353
11
127.166
21
-167.448
0
LINE
8
BLACK
6
CONTINUOUS
10
127.166
20
-167.448
11
127.261
21
-167.639
0
LINE
8
BLACK
6
CONTINUOUS
10
127.261
20
-167.639
11
127.261
21
-168.115
0
LINE
8
BLACK
6
CONTINUOUS
10
127.261
20
-168.115
11
127.166
21
-168.305
0
LINE
8
BLACK
6
CONTINUOUS
10
127.166
20
-168.305
11
127.071
21
-168.401
0
LINE
8
BLACK
6
CONTINUOUS
10
127.071
20
-168.401
11
126.88
21
-168.496
0
LINE
8
BLACK
6
CONTINUOUS
10
126.88
20
-168.496
11
126.309
21
-168.496
0
LINE
8
BLACK
6
CONTINUOUS
10
126.309
20
-168.496
11
126.118
21
-168.401
0
LINE
8
BLACK
6
CONTINUOUS
10
126.118
20
-168.401
11
126.023
21
-168.305
0
LINE
8
BLACK
6
CONTINUOUS
10
128.023
20
-166.496
11
128.023
21
-166.877
0
LINE
8
BLACK
6
CONTINUOUS
10
128.785
20
-166.496
11
128.785
21
-166.877
0
LINE
8
BLACK
6
CONTINUOUS
10
131.413
20
-169.258
11
131.318
21
-169.162
0
LINE
8
BLACK
6
CONTINUOUS
10
131.318
20
-169.162
11
131.128
21
-168.877
0
LINE
8
BLACK
6
CONTINUOUS
10
131.128
20
-168.877
11
131.032
21
-168.686
0
LINE
8
BLACK
6
CONTINUOUS
10
131.032
20
-168.686
11
130.937
21
-168.401
0
LINE
8
BLACK
6
CONTINUOUS
10
130.937
20
-168.401
11
130.842
21
-167.924
0
LINE
8
BLACK
6
CONTINUOUS
10
130.842
20
-167.924
11
130.842
21
-167.543
0
LINE
8
BLACK
6
CONTINUOUS
10
130.842
20
-167.543
11
130.937
21
-167.067
0
LINE
8
BLACK
6
CONTINUOUS
10
130.937
20
-167.067
11
131.032
21
-166.781
0
LINE
8
BLACK
6
CONTINUOUS
10
131.032
20
-166.781
11
131.128
21
-166.591
0
LINE
8
BLACK
6
CONTINUOUS
10
131.128
20
-166.591
11
131.318
21
-166.305
0
LINE
8
BLACK
6
CONTINUOUS
10
131.318
20
-166.305
11
131.413
21
-166.21
0
LINE
8
BLACK
6
CONTINUOUS
10
133.032
20
-167.162
11
133.032
21
-168.496
0
LINE
8
BLACK
6
CONTINUOUS
10
132.556
20
-166.401
11
132.08
21
-167.829
0
LINE
8
BLACK
6
CONTINUOUS
10
132.08
20
-167.829
11
133.318
21
-167.829
0
LINE
8
BLACK
6
CONTINUOUS
10
135.28
20
-168.496
11
135.28
21
-166.496
0
LINE
8
BLACK
6
CONTINUOUS
10
136.137
20
-168.496
11
136.137
21
-167.448
0
LINE
8
BLACK
6
CONTINUOUS
10
136.137
20
-167.448
11
136.042
21
-167.258
0
LINE
8
BLACK
6
CONTINUOUS
10
136.042
20
-167.258
11
135.852
21
-167.162
0
LINE
8
BLACK
6
CONTINUOUS
10
135.852
20
-167.162
11
135.566
21
-167.162
0
LINE
8
BLACK
6
CONTINUOUS
10
135.566
20
-167.162
11
135.375
21
-167.258
0
LINE
8
BLACK
6
CONTINUOUS
10
135.375
20
-167.258
11
135.28
21
-167.353
0
LINE
8
BLACK
6
CONTINUOUS
10
137.375
20
-168.496
11
137.185
21
-168.401
0
LINE
8
BLACK
6
CONTINUOUS
10
137.185
20
-168.401
11
137.09
21
-168.305
0
LINE
8
BLACK
6
CONTINUOUS
10
137.09
20
-168.305
11
136.994
21
-168.115
0
LINE
8
BLACK
6
CONTINUOUS
10
136.994
20
-168.115
11
136.994
21
-167.543
0
LINE
8
BLACK
6
CONTINUOUS
10
136.994
20
-167.543
11
137.09
21
-167.353
0
LINE
8
BLACK
6
CONTINUOUS
10
137.09
20
-167.353
11
137.185
21
-167.258
0
LINE
8
BLACK
6
CONTINUOUS
10
137.185
20
-167.258
11
137.375
21
-167.162
0
LINE
8
BLACK
6
CONTINUOUS
10
137.375
20
-167.162
11
137.661
21
-167.162
0
LINE
8
BLACK
6
CONTINUOUS
10
137.661
20
-167.162
11
137.852
21
-167.258
0
LINE
8
BLACK
6
CONTINUOUS
10
137.852
20
-167.258
11
137.947
21
-167.353
0
LINE
8
BLACK
6
CONTINUOUS
10
137.947
20
-167.353
11
138.042
21
-167.543
0
LINE
8
BLACK
6
CONTINUOUS
10
138.042
20
-167.543
11
138.042
21
-168.115
0
LINE
8
BLACK
6
CONTINUOUS
10
138.042
20
-168.115
11
137.947
21
-168.305
0
LINE
8
BLACK
6
CONTINUOUS
10
137.947
20
-168.305
11
137.852
21
-168.401
0
LINE
8
BLACK
6
CONTINUOUS
10
137.852
20
-168.401
11
137.661
21
-168.496
0
LINE
8
BLACK
6
CONTINUOUS
10
137.661
20
-168.496
11
137.375
21
-168.496
0
LINE
8
BLACK
6
CONTINUOUS
10
139.185
20
-168.496
11
138.994
21
-168.401
0
LINE
8
BLACK
6
CONTINUOUS
10
138.994
20
-168.401
11
138.899
21
-168.21
0
LINE
8
BLACK
6
CONTINUOUS
10
138.899
20
-168.21
11
138.899
21
-166.496
0
LINE
8
BLACK
6
CONTINUOUS
10
140.709
20
-168.401
11
140.518
21
-168.496
0
LINE
8
BLACK
6
CONTINUOUS
10
140.518
20
-168.496
11
140.137
21
-168.496
0
LINE
8
BLACK
6
CONTINUOUS
10
140.137
20
-168.496
11
139.947
21
-168.401
0
LINE
8
BLACK
6
CONTINUOUS
10
139.947
20
-168.401
11
139.852
21
-168.21
0
LINE
8
BLACK
6
CONTINUOUS
10
139.852
20
-168.21
11
139.852
21
-167.448
0
LINE
8
BLACK
6
CONTINUOUS
10
139.852
20
-167.448
11
139.947
21
-167.258
0
LINE
8
BLACK
6
CONTINUOUS
10
139.947
20
-167.258
11
140.137
21
-167.162
0
LINE
8
BLACK
6
CONTINUOUS
10
140.137
20
-167.162
11
140.518
21
-167.162
0
LINE
8
BLACK
6
CONTINUOUS
10
140.518
20
-167.162
11
140.709
21
-167.258
0
LINE
8
BLACK
6
CONTINUOUS
10
140.709
20
-167.258
11
140.804
21
-167.448
0
LINE
8
BLACK
6
CONTINUOUS
10
140.804
20
-167.448
11
140.804
21
-167.639
0
LINE
8
BLACK
6
CONTINUOUS
10
140.804
20
-167.639
11
139.852
21
-167.829
0
LINE
8
BLACK
6
CONTINUOUS
10
141.566
20
-168.401
11
141.756
21
-168.496
0
LINE
8
BLACK
6
CONTINUOUS
10
141.756
20
-168.496
11
142.137
21
-168.496
0
LINE
8
BLACK
6
CONTINUOUS
10
142.137
20
-168.496
11
142.328
21
-168.401
0
LINE
8
BLACK
6
CONTINUOUS
10
142.328
20
-168.401
11
142.423
21
-168.21
0
LINE
8
BLACK
6
CONTINUOUS
10
142.423
20
-168.21
11
142.423
21
-168.115
0
LINE
8
BLACK
6
CONTINUOUS
10
142.423
20
-168.115
11
142.328
21
-167.924
0
LINE
8
BLACK
6
CONTINUOUS
10
142.328
20
-167.924
11
142.137
21
-167.829
0
LINE
8
BLACK
6
CONTINUOUS
10
142.137
20
-167.829
11
141.852
21
-167.829
0
LINE
8
BLACK
6
CONTINUOUS
10
141.852
20
-167.829
11
141.661
21
-167.734
0
LINE
8
BLACK
6
CONTINUOUS
10
141.661
20
-167.734
11
141.566
21
-167.543
0
LINE
8
BLACK
6
CONTINUOUS
10
141.566
20
-167.543
11
141.566
21
-167.448
0
LINE
8
BLACK
6
CONTINUOUS
10
141.566
20
-167.448
11
141.661
21
-167.258
0
LINE
8
BLACK
6
CONTINUOUS
10
141.661
20
-167.258
11
141.852
21
-167.162
0
LINE
8
BLACK
6
CONTINUOUS
10
141.852
20
-167.162
11
142.137
21
-167.162
0
LINE
8
BLACK
6
CONTINUOUS
10
142.137
20
-167.162
11
142.328
21
-167.258
0
LINE
8
BLACK
6
CONTINUOUS
10
143.09
20
-169.258
11
143.185
21
-169.162
0
LINE
8
BLACK
6
CONTINUOUS
10
143.185
20
-169.162
11
143.375
21
-168.877
0
LINE
8
BLACK
6
CONTINUOUS
10
143.375
20
-168.877
11
143.471
21
-168.686
0
LINE
8
BLACK
6
CONTINUOUS
10
143.471
20
-168.686
11
143.566
21
-168.401
0
LINE
8
BLACK
6
CONTINUOUS
10
143.566
20
-168.401
11
143.661
21
-167.924
0
LINE
8
BLACK
6
CONTINUOUS
10
143.661
20
-167.924
11
143.661
21
-167.543
0
LINE
8
BLACK
6
CONTINUOUS
10
143.661
20
-167.543
11
143.566
21
-167.067
0
LINE
8
BLACK
6
CONTINUOUS
10
143.566
20
-167.067
11
143.471
21
-166.781
0
LINE
8
BLACK
6
CONTINUOUS
10
143.471
20
-166.781
11
143.375
21
-166.591
0
LINE
8
BLACK
6
CONTINUOUS
10
143.375
20
-166.591
11
143.185
21
-166.305
0
LINE
8
BLACK
6
CONTINUOUS
10
143.185
20
-166.305
11
143.09
21
-166.21
0
LINE
8
BLACK
6
CONTINUOUS
10
146.385
20
-169.258
11
146.29
21
-169.162
0
LINE
8
BLACK
6
CONTINUOUS
10
146.29
20
-169.162
11
146.099
21
-168.877
0
LINE
8
BLACK
6
CONTINUOUS
10
146.099
20
-168.877
11
146.004
21
-168.686
0
LINE
8
BLACK
6
CONTINUOUS
10
146.004
20
-168.686
11
145.909
21
-168.401
0
LINE
8
BLACK
6
CONTINUOUS
10
145.909
20
-168.401
11
145.813
21
-167.924
0
LINE
8
BLACK
6
CONTINUOUS
10
145.813
20
-167.924
11
145.813
21
-167.543
0
LINE
8
BLACK
6
CONTINUOUS
10
145.813
20
-167.543
11
145.909
21
-167.067
0
LINE
8
BLACK
6
CONTINUOUS
10
145.909
20
-167.067
11
146.004
21
-166.781
0
LINE
8
BLACK
6
CONTINUOUS
10
146.004
20
-166.781
11
146.099
21
-166.591
0
LINE
8
BLACK
6
CONTINUOUS
10
146.099
20
-166.591
11
146.29
21
-166.305
0
LINE
8
BLACK
6
CONTINUOUS
10
146.29
20
-166.305
11
146.385
21
-166.21
0
LINE
8
BLACK
6
CONTINUOUS
10
147.147
20
-167.162
11
147.147
21
-168.496
0
LINE
8
BLACK
6
CONTINUOUS
10
147.147
20
-167.353
11
147.242
21
-167.258
0
LINE
8
BLACK
6
CONTINUOUS
10
147.242
20
-167.258
11
147.432
21
-167.162
0
LINE
8
BLACK
6
CONTINUOUS
10
147.432
20
-167.162
11
147.718
21
-167.162
0
LINE
8
BLACK
6
CONTINUOUS
10
147.718
20
-167.162
11
147.909
21
-167.258
0
LINE
8
BLACK
6
CONTINUOUS
10
147.909
20
-167.258
11
148.004
21
-167.448
0
LINE
8
BLACK
6
CONTINUOUS
10
148.004
20
-167.448
11
148.004
21
-168.496
0
LINE
8
BLACK
6
CONTINUOUS
10
149.242
20
-168.496
11
149.052
21
-168.401
0
LINE
8
BLACK
6
CONTINUOUS
10
149.052
20
-168.401
11
148.956
21
-168.305
0
LINE
8
BLACK
6
CONTINUOUS
10
148.956
20
-168.305
11
148.861
21
-168.115
0
LINE
8
BLACK
6
CONTINUOUS
10
148.861
20
-168.115
11
148.861
21
-167.543
0
LINE
8
BLACK
6
CONTINUOUS
10
148.861
20
-167.543
11
148.956
21
-167.353
0
LINE
8
BLACK
6
CONTINUOUS
10
148.956
20
-167.353
11
149.052
21
-167.258
0
LINE
8
BLACK
6
CONTINUOUS
10
149.052
20
-167.258
11
149.242
21
-167.162
0
LINE
8
BLACK
6
CONTINUOUS
10
149.242
20
-167.162
11
149.528
21
-167.162
0
LINE
8
BLACK
6
CONTINUOUS
10
149.528
20
-167.162
11
149.718
21
-167.258
0
LINE
8
BLACK
6
CONTINUOUS
10
149.718
20
-167.258
11
149.813
21
-167.353
0
LINE
8
BLACK
6
CONTINUOUS
10
149.813
20
-167.353
11
149.909
21
-167.543
0
LINE
8
BLACK
6
CONTINUOUS
10
149.909
20
-167.543
11
149.909
21
-168.115
0
LINE
8
BLACK
6
CONTINUOUS
10
149.909
20
-168.115
11
149.813
21
-168.305
0
LINE
8
BLACK
6
CONTINUOUS
10
149.813
20
-168.305
11
149.718
21
-168.401
0
LINE
8
BLACK
6
CONTINUOUS
10
149.718
20
-168.401
11
149.528
21
-168.496
0
LINE
8
BLACK
6
CONTINUOUS
10
149.528
20
-168.496
11
149.242
21
-168.496
0
LINE
8
BLACK
6
CONTINUOUS
10
150.48
20
-167.162
11
151.242
21
-167.162
0
LINE
8
BLACK
6
CONTINUOUS
10
150.766
20
-166.496
11
150.766
21
-168.21
0
LINE
8
BLACK
6
CONTINUOUS
10
150.766
20
-168.21
11
150.861
21
-168.401
0
LINE
8
BLACK
6
CONTINUOUS
10
150.861
20
-168.401
11
151.052
21
-168.496
0
LINE
8
BLACK
6
CONTINUOUS
10
151.052
20
-168.496
11
151.242
21
-168.496
0
LINE
8
BLACK
6
CONTINUOUS
10
153.109
20
-167.162
11
153.109
21
-169.162
0
LINE
8
BLACK
6
CONTINUOUS
10
153.109
20
-167.258
11
153.299
21
-167.162
0
LINE
8
BLACK
6
CONTINUOUS
10
153.299
20
-167.162
11
153.68
21
-167.162
0
LINE
8
BLACK
6
CONTINUOUS
10
153.68
20
-167.162
11
153.871
21
-167.258
0
LINE
8
BLACK
6
CONTINUOUS
10
153.871
20
-167.258
11
153.966
21
-167.353
0
LINE
8
BLACK
6
CONTINUOUS
10
153.966
20
-167.353
11
154.061
21
-167.543
0
LINE
8
BLACK
6
CONTINUOUS
10
154.061
20
-167.543
11
154.061
21
-168.115
0
LINE
8
BLACK
6
CONTINUOUS
10
154.061
20
-168.115
11
153.966
21
-168.305
0
LINE
8
BLACK
6
CONTINUOUS
10
153.966
20
-168.305
11
153.871
21
-168.401
0
LINE
8
BLACK
6
CONTINUOUS
10
153.871
20
-168.401
11
153.68
21
-168.496
0
LINE
8
BLACK
6
CONTINUOUS
10
153.68
20
-168.496
11
153.299
21
-168.496
0
LINE
8
BLACK
6
CONTINUOUS
10
153.299
20
-168.496
11
153.109
21
-168.401
0
LINE
8
BLACK
6
CONTINUOUS
10
155.204
20
-168.496
11
155.013
21
-168.401
0
LINE
8
BLACK
6
CONTINUOUS
10
155.013
20
-168.401
11
154.918
21
-168.21
0
LINE
8
BLACK
6
CONTINUOUS
10
154.918
20
-168.21
11
154.918
21
-166.496
0
LINE
8
BLACK
6
CONTINUOUS
10
156.823
20
-168.496
11
156.823
21
-167.448
0
LINE
8
BLACK
6
CONTINUOUS
10
156.823
20
-167.448
11
156.728
21
-167.258
0
LINE
8
BLACK
6
CONTINUOUS
10
156.728
20
-167.258
11
156.537
21
-167.162
0
LINE
8
BLACK
6
CONTINUOUS
10
156.537
20
-167.162
11
156.156
21
-167.162
0
LINE
8
BLACK
6
CONTINUOUS
10
156.156
20
-167.162
11
155.966
21
-167.258
0
LINE
8
BLACK
6
CONTINUOUS
10
156.823
20
-168.401
11
156.632
21
-168.496
0
LINE
8
BLACK
6
CONTINUOUS
10
156.632
20
-168.496
11
156.156
21
-168.496
0
LINE
8
BLACK
6
CONTINUOUS
10
156.156
20
-168.496
11
155.966
21
-168.401
0
LINE
8
BLACK
6
CONTINUOUS
10
155.966
20
-168.401
11
155.871
21
-168.21
0
LINE
8
BLACK
6
CONTINUOUS
10
155.871
20
-168.21
11
155.871
21
-168.02
0
LINE
8
BLACK
6
CONTINUOUS
10
155.871
20
-168.02
11
155.966
21
-167.829
0
LINE
8
BLACK
6
CONTINUOUS
10
155.966
20
-167.829
11
156.156
21
-167.734
0
LINE
8
BLACK
6
CONTINUOUS
10
156.156
20
-167.734
11
156.632
21
-167.734
0
LINE
8
BLACK
6
CONTINUOUS
10
156.632
20
-167.734
11
156.823
21
-167.639
0
LINE
8
BLACK
6
CONTINUOUS
10
157.49
20
-167.162
11
158.252
21
-167.162
0
LINE
8
BLACK
6
CONTINUOUS
10
157.775
20
-166.496
11
157.775
21
-168.21
0
LINE
8
BLACK
6
CONTINUOUS
10
157.775
20
-168.21
11
157.871
21
-168.401
0
LINE
8
BLACK
6
CONTINUOUS
10
157.871
20
-168.401
11
158.061
21
-168.496
0
LINE
8
BLACK
6
CONTINUOUS
10
158.061
20
-168.496
11
158.252
21
-168.496
0
LINE
8
BLACK
6
CONTINUOUS
10
159.68
20
-168.401
11
159.49
21
-168.496
0
LINE
8
BLACK
6
CONTINUOUS
10
159.49
20
-168.496
11
159.109
21
-168.496
0
LINE
8
BLACK
6
CONTINUOUS
10
159.109
20
-168.496
11
158.918
21
-168.401
0
LINE
8
BLACK
6
CONTINUOUS
10
158.918
20
-168.401
11
158.823
21
-168.21
0
LINE
8
BLACK
6
CONTINUOUS
10
158.823
20
-168.21
11
158.823
21
-167.448
0
LINE
8
BLACK
6
CONTINUOUS
10
158.823
20
-167.448
11
158.918
21
-167.258
0
LINE
8
BLACK
6
CONTINUOUS
10
158.918
20
-167.258
11
159.109
21
-167.162
0
LINE
8
BLACK
6
CONTINUOUS
10
159.109
20
-167.162
11
159.49
21
-167.162
0
LINE
8
BLACK
6
CONTINUOUS
10
159.49
20
-167.162
11
159.68
21
-167.258
0
LINE
8
BLACK
6
CONTINUOUS
10
159.68
20
-167.258
11
159.775
21
-167.448
0
LINE
8
BLACK
6
CONTINUOUS
10
159.775
20
-167.448
11
159.775
21
-167.639
0
LINE
8
BLACK
6
CONTINUOUS
10
159.775
20
-167.639
11
158.823
21
-167.829
0
LINE
8
BLACK
6
CONTINUOUS
10
161.49
20
-168.496
11
161.49
21
-166.496
0
LINE
8
BLACK
6
CONTINUOUS
10
161.49
20
-168.401
11
161.299
21
-168.496
0
LINE
8
BLACK
6
CONTINUOUS
10
161.299
20
-168.496
11
160.918
21
-168.496
0
LINE
8
BLACK
6
CONTINUOUS
10
160.918
20
-168.496
11
160.728
21
-168.401
0
LINE
8
BLACK
6
CONTINUOUS
10
160.728
20
-168.401
11
160.632
21
-168.305
0
LINE
8
BLACK
6
CONTINUOUS
10
160.632
20
-168.305
11
160.537
21
-168.115
0
LINE
8
BLACK
6
CONTINUOUS
10
160.537
20
-168.115
11
160.537
21
-167.543
0
LINE
8
BLACK
6
CONTINUOUS
10
160.537
20
-167.543
11
160.632
21
-167.353
0
LINE
8
BLACK
6
CONTINUOUS
10
160.632
20
-167.353
11
160.728
21
-167.258
0
LINE
8
BLACK
6
CONTINUOUS
10
160.728
20
-167.258
11
160.918
21
-167.162
0
LINE
8
BLACK
6
CONTINUOUS
10
160.918
20
-167.162
11
161.299
21
-167.162
0
LINE
8
BLACK
6
CONTINUOUS
10
161.299
20
-167.162
11
161.49
21
-167.258
0
LINE
8
BLACK
6
CONTINUOUS
10
162.252
20
-169.258
11
162.347
21
-169.162
0
LINE
8
BLACK
6
CONTINUOUS
10
162.347
20
-169.162
11
162.537
21
-168.877
0
LINE
8
BLACK
6
CONTINUOUS
10
162.537
20
-168.877
11
162.632
21
-168.686
0
LINE
8
BLACK
6
CONTINUOUS
10
162.632
20
-168.686
11
162.728
21
-168.401
0
LINE
8
BLACK
6
CONTINUOUS
10
162.728
20
-168.401
11
162.823
21
-167.924
0
LINE
8
BLACK
6
CONTINUOUS
10
162.823
20
-167.924
11
162.823
21
-167.543
0
LINE
8
BLACK
6
CONTINUOUS
10
162.823
20
-167.543
11
162.728
21
-167.067
0
LINE
8
BLACK
6
CONTINUOUS
10
162.728
20
-167.067
11
162.632
21
-166.781
0
LINE
8
BLACK
6
CONTINUOUS
10
162.632
20
-166.781
11
162.537
21
-166.591
0
LINE
8
BLACK
6
CONTINUOUS
10
162.537
20
-166.591
11
162.347
21
-166.305
0
LINE
8
BLACK
6
CONTINUOUS
10
162.347
20
-166.305
11
162.252
21
-166.21
0
LINE
8
BLACK
6
CONTINUOUS
10
95.7658
20
-171.961
11
96.7658
21
-170.961
0
LINE
8
BLACK
6
CONTINUOUS
10
96.7658
20
-170.961
11
95.7658
21
-169.961
0
LINE
8
BLACK
6
CONTINUOUS
10
95.7658
20
-169.961
11
94.7658
21
-170.961
0
LINE
8
BLACK
6
CONTINUOUS
10
94.7658
20
-170.961
11
95.7658
21
-171.961
0
LINE
8
BLACK
6
CONTINUOUS
10
99.0515
20
-169.696
11
100.29
21
-169.696
0
LINE
8
BLACK
6
CONTINUOUS
10
100.29
20
-169.696
11
99.6229
21
-170.458
0
LINE
8
BLACK
6
CONTINUOUS
10
99.6229
20
-170.458
11
99.9087
21
-170.458
0
LINE
8
BLACK
6
CONTINUOUS
10
99.9087
20
-170.458
11
100.099
21
-170.553
0
LINE
8
BLACK
6
CONTINUOUS
10
100.099
20
-170.553
11
100.194
21
-170.648
0
LINE
8
BLACK
6
CONTINUOUS
10
100.194
20
-170.648
11
100.29
21
-170.839
0
LINE
8
BLACK
6
CONTINUOUS
10
100.29
20
-170.839
11
100.29
21
-171.315
0
LINE
8
BLACK
6
CONTINUOUS
10
100.29
20
-171.315
11
100.194
21
-171.505
0
LINE
8
BLACK
6
CONTINUOUS
10
100.194
20
-171.505
11
100.099
21
-171.601
0
LINE
8
BLACK
6
CONTINUOUS
10
100.099
20
-171.601
11
99.9087
21
-171.696
0
LINE
8
BLACK
6
CONTINUOUS
10
99.9087
20
-171.696
11
99.3372
21
-171.696
0
LINE
8
BLACK
6
CONTINUOUS
10
99.3372
20
-171.696
11
99.1468
21
-171.601
0
LINE
8
BLACK
6
CONTINUOUS
10
99.1468
20
-171.601
11
99.0515
21
-171.505
0
LINE
8
BLACK
6
CONTINUOUS
10
101.147
20
-171.505
11
101.242
21
-171.601
0
LINE
8
BLACK
6
CONTINUOUS
10
101.242
20
-171.601
11
101.147
21
-171.696
0
LINE
8
BLACK
6
CONTINUOUS
10
101.147
20
-171.696
11
101.052
21
-171.601
0
LINE
8
BLACK
6
CONTINUOUS
10
101.052
20
-171.601
11
101.147
21
-171.505
0
LINE
8
BLACK
6
CONTINUOUS
10
101.147
20
-171.505
11
101.147
21
-171.696
0
LINE
8
BLACK
6
CONTINUOUS
10
102.004
20
-169.886
11
102.099
21
-169.791
0
LINE
8
BLACK
6
CONTINUOUS
10
102.099
20
-169.791
11
102.29
21
-169.696
0
LINE
8
BLACK
6
CONTINUOUS
10
102.29
20
-169.696
11
102.766
21
-169.696
0
LINE
8
BLACK
6
CONTINUOUS
10
102.766
20
-169.696
11
102.956
21
-169.791
0
LINE
8
BLACK
6
CONTINUOUS
10
102.956
20
-169.791
11
103.052
21
-169.886
0
LINE
8
BLACK
6
CONTINUOUS
10
103.052
20
-169.886
11
103.147
21
-170.077
0
LINE
8
BLACK
6
CONTINUOUS
10
103.147
20
-170.077
11
103.147
21
-170.267
0
LINE
8
BLACK
6
CONTINUOUS
10
103.147
20
-170.267
11
103.052
21
-170.553
0
LINE
8
BLACK
6
CONTINUOUS
10
103.052
20
-170.553
11
101.909
21
-171.696
0
LINE
8
BLACK
6
CONTINUOUS
10
101.909
20
-171.696
11
103.147
21
-171.696
0
LINE
8
BLACK
6
CONTINUOUS
10
104.385
20
-169.696
11
104.575
21
-169.696
0
LINE
8
BLACK
6
CONTINUOUS
10
104.575
20
-169.696
11
104.766
21
-169.791
0
LINE
8
BLACK
6
CONTINUOUS
10
104.766
20
-169.791
11
104.861
21
-169.886
0
LINE
8
BLACK
6
CONTINUOUS
10
104.861
20
-169.886
11
104.956
21
-170.077
0
LINE
8
BLACK
6
CONTINUOUS
10
104.956
20
-170.077
11
105.052
21
-170.458
0
LINE
8
BLACK
6
CONTINUOUS
10
105.052
20
-170.458
11
105.052
21
-170.934
0
LINE
8
BLACK
6
CONTINUOUS
10
105.052
20
-170.934
11
104.956
21
-171.315
0
LINE
8
BLACK
6
CONTINUOUS
10
104.956
20
-171.315
11
104.861
21
-171.505
0
LINE
8
BLACK
6
CONTINUOUS
10
104.861
20
-171.505
11
104.766
21
-171.601
0
LINE
8
BLACK
6
CONTINUOUS
10
104.766
20
-171.601
11
104.575
21
-171.696
0
LINE
8
BLACK
6
CONTINUOUS
10
104.575
20
-171.696
11
104.385
21
-171.696
0
LINE
8
BLACK
6
CONTINUOUS
10
104.385
20
-171.696
11
104.194
21
-171.601
0
LINE
8
BLACK
6
CONTINUOUS
10
104.194
20
-171.601
11
104.099
21
-171.505
0
LINE
8
BLACK
6
CONTINUOUS
10
104.099
20
-171.505
11
104.004
21
-171.315
0
LINE
8
BLACK
6
CONTINUOUS
10
104.004
20
-171.315
11
103.909
21
-170.934
0
LINE
8
BLACK
6
CONTINUOUS
10
103.909
20
-170.934
11
103.909
21
-170.458
0
LINE
8
BLACK
6
CONTINUOUS
10
103.909
20
-170.458
11
104.004
21
-170.077
0
LINE
8
BLACK
6
CONTINUOUS
10
104.004
20
-170.077
11
104.099
21
-169.886
0
LINE
8
BLACK
6
CONTINUOUS
10
104.099
20
-169.886
11
104.194
21
-169.791
0
LINE
8
BLACK
6
CONTINUOUS
10
104.194
20
-169.791
11
104.385
21
-169.696
0
LINE
8
BLACK
6
CONTINUOUS
10
106.29
20
-169.696
11
106.48
21
-169.696
0
LINE
8
BLACK
6
CONTINUOUS
10
106.48
20
-169.696
11
106.671
21
-169.791
0
LINE
8
BLACK
6
CONTINUOUS
10
106.671
20
-169.791
11
106.766
21
-169.886
0
LINE
8
BLACK
6
CONTINUOUS
10
106.766
20
-169.886
11
106.861
21
-170.077
0
LINE
8
BLACK
6
CONTINUOUS
10
106.861
20
-170.077
11
106.956
21
-170.458
0
LINE
8
BLACK
6
CONTINUOUS
10
106.956
20
-170.458
11
106.956
21
-170.934
0
LINE
8
BLACK
6
CONTINUOUS
10
106.956
20
-170.934
11
106.861
21
-171.315
0
LINE
8
BLACK
6
CONTINUOUS
10
106.861
20
-171.315
11
106.766
21
-171.505
0
LINE
8
BLACK
6
CONTINUOUS
10
106.766
20
-171.505
11
106.671
21
-171.601
0
LINE
8
BLACK
6
CONTINUOUS
10
106.671
20
-171.601
11
106.48
21
-171.696
0
LINE
8
BLACK
6
CONTINUOUS
10
106.48
20
-171.696
11
106.29
21
-171.696
0
LINE
8
BLACK
6
CONTINUOUS
10
106.29
20
-171.696
11
106.099
21
-171.601
0
LINE
8
BLACK
6
CONTINUOUS
10
106.099
20
-171.601
11
106.004
21
-171.505
0
LINE
8
BLACK
6
CONTINUOUS
10
106.004
20
-171.505
11
105.909
21
-171.315
0
LINE
8
BLACK
6
CONTINUOUS
10
105.909
20
-171.315
11
105.813
21
-170.934
0
LINE
8
BLACK
6
CONTINUOUS
10
105.813
20
-170.934
11
105.813
21
-170.458
0
LINE
8
BLACK
6
CONTINUOUS
10
105.813
20
-170.458
11
105.909
21
-170.077
0
LINE
8
BLACK
6
CONTINUOUS
10
105.909
20
-170.077
11
106.004
21
-169.886
0
LINE
8
BLACK
6
CONTINUOUS
10
106.004
20
-169.886
11
106.099
21
-169.791
0
LINE
8
BLACK
6
CONTINUOUS
10
106.099
20
-169.791
11
106.29
21
-169.696
0
LINE
8
BLACK
6
CONTINUOUS
10
107.813
20
-171.696
11
107.813
21
-170.362
0
LINE
8
BLACK
6
CONTINUOUS
10
107.813
20
-170.553
11
107.909
21
-170.458
0
LINE
8
BLACK
6
CONTINUOUS
10
107.909
20
-170.458
11
108.099
21
-170.362
0
LINE
8
BLACK
6
CONTINUOUS
10
108.099
20
-170.362
11
108.385
21
-170.362
0
LINE
8
BLACK
6
CONTINUOUS
10
108.385
20
-170.362
11
108.575
21
-170.458
0
LINE
8
BLACK
6
CONTINUOUS
10
108.575
20
-170.458
11
108.671
21
-170.648
0
LINE
8
BLACK
6
CONTINUOUS
10
108.671
20
-170.648
11
108.671
21
-171.696
0
LINE
8
BLACK
6
CONTINUOUS
10
108.671
20
-170.648
11
108.766
21
-170.458
0
LINE
8
BLACK
6
CONTINUOUS
10
108.766
20
-170.458
11
108.956
21
-170.362
0
LINE
8
BLACK
6
CONTINUOUS
10
108.956
20
-170.362
11
109.242
21
-170.362
0
LINE
8
BLACK
6
CONTINUOUS
10
109.242
20
-170.362
11
109.432
21
-170.458
0
LINE
8
BLACK
6
CONTINUOUS
10
109.432
20
-170.458
11
109.528
21
-170.648
0
LINE
8
BLACK
6
CONTINUOUS
10
109.528
20
-170.648
11
109.528
21
-171.696
0
LINE
8
BLACK
6
CONTINUOUS
10
110.48
20
-171.696
11
110.48
21
-170.362
0
LINE
8
BLACK
6
CONTINUOUS
10
110.48
20
-170.553
11
110.575
21
-170.458
0
LINE
8
BLACK
6
CONTINUOUS
10
110.575
20
-170.458
11
110.766
21
-170.362
0
LINE
8
BLACK
6
CONTINUOUS
10
110.766
20
-170.362
11
111.052
21
-170.362
0
LINE
8
BLACK
6
CONTINUOUS
10
111.052
20
-170.362
11
111.242
21
-170.458
0
LINE
8
BLACK
6
CONTINUOUS
10
111.242
20
-170.458
11
111.337
21
-170.648
0
LINE
8
BLACK
6
CONTINUOUS
10
111.337
20
-170.648
11
111.337
21
-171.696
0
LINE
8
BLACK
6
CONTINUOUS
10
111.337
20
-170.648
11
111.432
21
-170.458
0
LINE
8
BLACK
6
CONTINUOUS
10
111.432
20
-170.458
11
111.623
21
-170.362
0
LINE
8
BLACK
6
CONTINUOUS
10
111.623
20
-170.362
11
111.909
21
-170.362
0
LINE
8
BLACK
6
CONTINUOUS
10
111.909
20
-170.362
11
112.099
21
-170.458
0
LINE
8
BLACK
6
CONTINUOUS
10
112.099
20
-170.458
11
112.194
21
-170.648
0
LINE
8
BLACK
6
CONTINUOUS
10
112.194
20
-170.648
11
112.194
21
-171.696
0
LINE
8
BLACK
6
CONTINUOUS
10
115.775
20
-169.601
11
114.061
21
-172.172
0
LINE
8
BLACK
6
CONTINUOUS
10
118.023
20
-169.696
11
118.213
21
-169.696
0
LINE
8
BLACK
6
CONTINUOUS
10
118.213
20
-169.696
11
118.404
21
-169.791
0
LINE
8
BLACK
6
CONTINUOUS
10
118.404
20
-169.791
11
118.499
21
-169.886
0
LINE
8
BLACK
6
CONTINUOUS
10
118.499
20
-169.886
11
118.594
21
-170.077
0
LINE
8
BLACK
6
CONTINUOUS
10
118.594
20
-170.077
11
118.69
21
-170.458
0
LINE
8
BLACK
6
CONTINUOUS
10
118.69
20
-170.458
11
118.69
21
-170.934
0
LINE
8
BLACK
6
CONTINUOUS
10
118.69
20
-170.934
11
118.594
21
-171.315
0
LINE
8
BLACK
6
CONTINUOUS
10
118.594
20
-171.315
11
118.499
21
-171.505
0
LINE
8
BLACK
6
CONTINUOUS
10
118.499
20
-171.505
11
118.404
21
-171.601
0
LINE
8
BLACK
6
CONTINUOUS
10
118.404
20
-171.601
11
118.213
21
-171.696
0
LINE
8
BLACK
6
CONTINUOUS
10
118.213
20
-171.696
11
118.023
21
-171.696
0
LINE
8
BLACK
6
CONTINUOUS
10
118.023
20
-171.696
11
117.832
21
-171.601
0
LINE
8
BLACK
6
CONTINUOUS
10
117.832
20
-171.601
11
117.737
21
-171.505
0
LINE
8
BLACK
6
CONTINUOUS
10
117.737
20
-171.505
11
117.642
21
-171.315
0
LINE
8
BLACK
6
CONTINUOUS
10
117.642
20
-171.315
11
117.547
21
-170.934
0
LINE
8
BLACK
6
CONTINUOUS
10
117.547
20
-170.934
11
117.547
21
-170.458
0
LINE
8
BLACK
6
CONTINUOUS
10
117.547
20
-170.458
11
117.642
21
-170.077
0
LINE
8
BLACK
6
CONTINUOUS
10
117.642
20
-170.077
11
117.737
21
-169.886
0
LINE
8
BLACK
6
CONTINUOUS
10
117.737
20
-169.886
11
117.832
21
-169.791
0
LINE
8
BLACK
6
CONTINUOUS
10
117.832
20
-169.791
11
118.023
21
-169.696
0
LINE
8
BLACK
6
CONTINUOUS
10
119.547
20
-171.505
11
119.642
21
-171.601
0
LINE
8
BLACK
6
CONTINUOUS
10
119.642
20
-171.601
11
119.547
21
-171.696
0
LINE
8
BLACK
6
CONTINUOUS
10
119.547
20
-171.696
11
119.452
21
-171.601
0
LINE
8
BLACK
6
CONTINUOUS
10
119.452
20
-171.601
11
119.547
21
-171.505
0
LINE
8
BLACK
6
CONTINUOUS
10
119.547
20
-171.505
11
119.547
21
-171.696
0
LINE
8
BLACK
6
CONTINUOUS
10
121.547
20
-171.696
11
120.404
21
-171.696
0
LINE
8
BLACK
6
CONTINUOUS
10
120.975
20
-171.696
11
120.975
21
-169.696
0
LINE
8
BLACK
6
CONTINUOUS
10
120.975
20
-169.696
11
120.785
21
-169.981
0
LINE
8
BLACK
6
CONTINUOUS
10
120.785
20
-169.981
11
120.594
21
-170.172
0
LINE
8
BLACK
6
CONTINUOUS
10
120.594
20
-170.172
11
120.404
21
-170.267
0
LINE
8
BLACK
6
CONTINUOUS
10
122.309
20
-169.886
11
122.404
21
-169.791
0
LINE
8
BLACK
6
CONTINUOUS
10
122.404
20
-169.791
11
122.594
21
-169.696
0
LINE
8
BLACK
6
CONTINUOUS
10
122.594
20
-169.696
11
123.071
21
-169.696
0
LINE
8
BLACK
6
CONTINUOUS
10
123.071
20
-169.696
11
123.261
21
-169.791
0
LINE
8
BLACK
6
CONTINUOUS
10
123.261
20
-169.791
11
123.356
21
-169.886
0
LINE
8
BLACK
6
CONTINUOUS
10
123.356
20
-169.886
11
123.452
21
-170.077
0
LINE
8
BLACK
6
CONTINUOUS
10
123.452
20
-170.077
11
123.452
21
-170.267
0
LINE
8
BLACK
6
CONTINUOUS
10
123.452
20
-170.267
11
123.356
21
-170.553
0
LINE
8
BLACK
6
CONTINUOUS
10
123.356
20
-170.553
11
122.213
21
-171.696
0
LINE
8
BLACK
6
CONTINUOUS
10
122.213
20
-171.696
11
123.452
21
-171.696
0
LINE
8
BLACK
6
CONTINUOUS
10
125.166
20
-169.696
11
124.785
21
-169.696
0
LINE
8
BLACK
6
CONTINUOUS
10
124.785
20
-169.696
11
124.594
21
-169.791
0
LINE
8
BLACK
6
CONTINUOUS
10
124.594
20
-169.791
11
124.499
21
-169.886
0
LINE
8
BLACK
6
CONTINUOUS
10
124.499
20
-169.886
11
124.309
21
-170.172
0
LINE
8
BLACK
6
CONTINUOUS
10
124.309
20
-170.172
11
124.213
21
-170.553
0
LINE
8
BLACK
6
CONTINUOUS
10
124.213
20
-170.553
11
124.213
21
-171.315
0
LINE
8
BLACK
6
CONTINUOUS
10
124.213
20
-171.315
11
124.309
21
-171.505
0
LINE
8
BLACK
6
CONTINUOUS
10
124.309
20
-171.505
11
124.404
21
-171.601
0
LINE
8
BLACK
6
CONTINUOUS
10
124.404
20
-171.601
11
124.594
21
-171.696
0
LINE
8
BLACK
6
CONTINUOUS
10
124.594
20
-171.696
11
124.975
21
-171.696
0
LINE
8
BLACK
6
CONTINUOUS
10
124.975
20
-171.696
11
125.166
21
-171.601
0
LINE
8
BLACK
6
CONTINUOUS
10
125.166
20
-171.601
11
125.261
21
-171.505
0
LINE
8
BLACK
6
CONTINUOUS
10
125.261
20
-171.505
11
125.356
21
-171.315
0
LINE
8
BLACK
6
CONTINUOUS
10
125.356
20
-171.315
11
125.356
21
-170.839
0
LINE
8
BLACK
6
CONTINUOUS
10
125.356
20
-170.839
11
125.261
21
-170.648
0
LINE
8
BLACK
6
CONTINUOUS
10
125.261
20
-170.648
11
125.166
21
-170.553
0
LINE
8
BLACK
6
CONTINUOUS
10
125.166
20
-170.553
11
124.975
21
-170.458
0
LINE
8
BLACK
6
CONTINUOUS
10
124.975
20
-170.458
11
124.594
21
-170.458
0
LINE
8
BLACK
6
CONTINUOUS
10
124.594
20
-170.458
11
124.404
21
-170.553
0
LINE
8
BLACK
6
CONTINUOUS
10
124.404
20
-170.553
11
124.309
21
-170.648
0
LINE
8
BLACK
6
CONTINUOUS
10
124.309
20
-170.648
11
124.213
21
-170.839
0
LINE
8
BLACK
6
CONTINUOUS
10
126.594
20
-169.696
11
126.785
21
-169.696
0
LINE
8
BLACK
6
CONTINUOUS
10
126.785
20
-169.696
11
126.975
21
-169.791
0
LINE
8
BLACK
6
CONTINUOUS
10
126.975
20
-169.791
11
127.071
21
-169.886
0
LINE
8
BLACK
6
CONTINUOUS
10
127.071
20
-169.886
11
127.166
21
-170.077
0
LINE
8
BLACK
6
CONTINUOUS
10
127.166
20
-170.077
11
127.261
21
-170.458
0
LINE
8
BLACK
6
CONTINUOUS
10
127.261
20
-170.458
11
127.261
21
-170.934
0
LINE
8
BLACK
6
CONTINUOUS
10
127.261
20
-170.934
11
127.166
21
-171.315
0
LINE
8
BLACK
6
CONTINUOUS
10
127.166
20
-171.315
11
127.071
21
-171.505
0
LINE
8
BLACK
6
CONTINUOUS
10
127.071
20
-171.505
11
126.975
21
-171.601
0
LINE
8
BLACK
6
CONTINUOUS
10
126.975
20
-171.601
11
126.785
21
-171.696
0
LINE
8
BLACK
6
CONTINUOUS
10
126.785
20
-171.696
11
126.594
21
-171.696
0
LINE
8
BLACK
6
CONTINUOUS
10
126.594
20
-171.696
11
126.404
21
-171.601
0
LINE
8
BLACK
6
CONTINUOUS
10
126.404
20
-171.601
11
126.309
21
-171.505
0
LINE
8
BLACK
6
CONTINUOUS
10
126.309
20
-171.505
11
126.213
21
-171.315
0
LINE
8
BLACK
6
CONTINUOUS
10
126.213
20
-171.315
11
126.118
21
-170.934
0
LINE
8
BLACK
6
CONTINUOUS
10
126.118
20
-170.934
11
126.118
21
-170.458
0
LINE
8
BLACK
6
CONTINUOUS
10
126.118
20
-170.458
11
126.213
21
-170.077
0
LINE
8
BLACK
6
CONTINUOUS
10
126.213
20
-170.077
11
126.309
21
-169.886
0
LINE
8
BLACK
6
CONTINUOUS
10
126.309
20
-169.886
11
126.404
21
-169.791
0
LINE
8
BLACK
6
CONTINUOUS
10
126.404
20
-169.791
11
126.594
21
-169.696
0
LINE
8
BLACK
6
CONTINUOUS
10
128.023
20
-169.696
11
128.023
21
-170.077
0
LINE
8
BLACK
6
CONTINUOUS
10
128.785
20
-169.696
11
128.785
21
-170.077
0
LINE
8
BLACK
6
CONTINUOUS
10
131.413
20
-172.458
11
131.318
21
-172.362
0
LINE
8
BLACK
6
CONTINUOUS
10
131.318
20
-172.362
11
131.128
21
-172.077
0
LINE
8
BLACK
6
CONTINUOUS
10
131.128
20
-172.077
11
131.032
21
-171.886
0
LINE
8
BLACK
6
CONTINUOUS
10
131.032
20
-171.886
11
130.937
21
-171.601
0
LINE
8
BLACK
6
CONTINUOUS
10
130.937
20
-171.601
11
130.842
21
-171.124
0
LINE
8
BLACK
6
CONTINUOUS
10
130.842
20
-171.124
11
130.842
21
-170.743
0
LINE
8
BLACK
6
CONTINUOUS
10
130.842
20
-170.743
11
130.937
21
-170.267
0
LINE
8
BLACK
6
CONTINUOUS
10
130.937
20
-170.267
11
131.032
21
-169.981
0
LINE
8
BLACK
6
CONTINUOUS
10
131.032
20
-169.981
11
131.128
21
-169.791
0
LINE
8
BLACK
6
CONTINUOUS
10
131.128
20
-169.791
11
131.318
21
-169.505
0
LINE
8
BLACK
6
CONTINUOUS
10
131.318
20
-169.505
11
131.413
21
-169.41
0
LINE
8
BLACK
6
CONTINUOUS
10
132.08
20
-169.886
11
132.175
21
-169.791
0
LINE
8
BLACK
6
CONTINUOUS
10
132.175
20
-169.791
11
132.366
21
-169.696
0
LINE
8
BLACK
6
CONTINUOUS
10
132.366
20
-169.696
11
132.842
21
-169.696
0
LINE
8
BLACK
6
CONTINUOUS
10
132.842
20
-169.696
11
133.032
21
-169.791
0
LINE
8
BLACK
6
CONTINUOUS
10
133.032
20
-169.791
11
133.128
21
-169.886
0
LINE
8
BLACK
6
CONTINUOUS
10
133.128
20
-169.886
11
133.223
21
-170.077
0
LINE
8
BLACK
6
CONTINUOUS
10
133.223
20
-170.077
11
133.223
21
-170.267
0
LINE
8
BLACK
6
CONTINUOUS
10
133.223
20
-170.267
11
133.128
21
-170.553
0
LINE
8
BLACK
6
CONTINUOUS
10
133.128
20
-170.553
11
131.985
21
-171.696
0
LINE
8
BLACK
6
CONTINUOUS
10
131.985
20
-171.696
11
133.223
21
-171.696
0
LINE
8
BLACK
6
CONTINUOUS
10
135.28
20
-171.696
11
135.28
21
-169.696
0
LINE
8
BLACK
6
CONTINUOUS
10
136.137
20
-171.696
11
136.137
21
-170.648
0
LINE
8
BLACK
6
CONTINUOUS
10
136.137
20
-170.648
11
136.042
21
-170.458
0
LINE
8
BLACK
6
CONTINUOUS
10
136.042
20
-170.458
11
135.852
21
-170.362
0
LINE
8
BLACK
6
CONTINUOUS
10
135.852
20
-170.362
11
135.566
21
-170.362
0
LINE
8
BLACK
6
CONTINUOUS
10
135.566
20
-170.362
11
135.375
21
-170.458
0
LINE
8
BLACK
6
CONTINUOUS
10
135.375
20
-170.458
11
135.28
21
-170.553
0
LINE
8
BLACK
6
CONTINUOUS
10
137.375
20
-171.696
11
137.185
21
-171.601
0
LINE
8
BLACK
6
CONTINUOUS
10
137.185
20
-171.601
11
137.09
21
-171.505
0
LINE
8
BLACK
6
CONTINUOUS
10
137.09
20
-171.505
11
136.994
21
-171.315
0
LINE
8
BLACK
6
CONTINUOUS
10
136.994
20
-171.315
11
136.994
21
-170.743
0
LINE
8
BLACK
6
CONTINUOUS
10
136.994
20
-170.743
11
137.09
21
-170.553
0
LINE
8
BLACK
6
CONTINUOUS
10
137.09
20
-170.553
11
137.185
21
-170.458
0
LINE
8
BLACK
6
CONTINUOUS
10
137.185
20
-170.458
11
137.375
21
-170.362
0
LINE
8
BLACK
6
CONTINUOUS
10
137.375
20
-170.362
11
137.661
21
-170.362
0
LINE
8
BLACK
6
CONTINUOUS
10
137.661
20
-170.362
11
137.852
21
-170.458
0
LINE
8
BLACK
6
CONTINUOUS
10
137.852
20
-170.458
11
137.947
21
-170.553
0
LINE
8
BLACK
6
CONTINUOUS
10
137.947
20
-170.553
11
138.042
21
-170.743
0
LINE
8
BLACK
6
CONTINUOUS
10
138.042
20
-170.743
11
138.042
21
-171.315
0
LINE
8
BLACK
6
CONTINUOUS
10
138.042
20
-171.315
11
137.947
21
-171.505
0
LINE
8
BLACK
6
CONTINUOUS
10
137.947
20
-171.505
11
137.852
21
-171.601
0
LINE
8
BLACK
6
CONTINUOUS
10
137.852
20
-171.601
11
137.661
21
-171.696
0
LINE
8
BLACK
6
CONTINUOUS
10
137.661
20
-171.696
11
137.375
21
-171.696
0
LINE
8
BLACK
6
CONTINUOUS
10
139.185
20
-171.696
11
138.994
21
-171.601
0
LINE
8
BLACK
6
CONTINUOUS
10
138.994
20
-171.601
11
138.899
21
-171.41
0
LINE
8
BLACK
6
CONTINUOUS
10
138.899
20
-171.41
11
138.899
21
-169.696
0
LINE
8
BLACK
6
CONTINUOUS
10
140.709
20
-171.601
11
140.518
21
-171.696
0
LINE
8
BLACK
6
CONTINUOUS
10
140.518
20
-171.696
11
140.137
21
-171.696
0
LINE
8
BLACK
6
CONTINUOUS
10
140.137
20
-171.696
11
139.947
21
-171.601
0
LINE
8
BLACK
6
CONTINUOUS
10
139.947
20
-171.601
11
139.852
21
-171.41
0
LINE
8
BLACK
6
CONTINUOUS
10
139.852
20
-171.41
11
139.852
21
-170.648
0
LINE
8
BLACK
6
CONTINUOUS
10
139.852
20
-170.648
11
139.947
21
-170.458
0
LINE
8
BLACK
6
CONTINUOUS
10
139.947
20
-170.458
11
140.137
21
-170.362
0
LINE
8
BLACK
6
CONTINUOUS
10
140.137
20
-170.362
11
140.518
21
-170.362
0
LINE
8
BLACK
6
CONTINUOUS
10
140.518
20
-170.362
11
140.709
21
-170.458
0
LINE
8
BLACK
6
CONTINUOUS
10
140.709
20
-170.458
11
140.804
21
-170.648
0
LINE
8
BLACK
6
CONTINUOUS
10
140.804
20
-170.648
11
140.804
21
-170.839
0
LINE
8
BLACK
6
CONTINUOUS
10
140.804
20
-170.839
11
139.852
21
-171.029
0
LINE
8
BLACK
6
CONTINUOUS
10
141.566
20
-171.601
11
141.756
21
-171.696
0
LINE
8
BLACK
6
CONTINUOUS
10
141.756
20
-171.696
11
142.137
21
-171.696
0
LINE
8
BLACK
6
CONTINUOUS
10
142.137
20
-171.696
11
142.328
21
-171.601
0
LINE
8
BLACK
6
CONTINUOUS
10
142.328
20
-171.601
11
142.423
21
-171.41
0
LINE
8
BLACK
6
CONTINUOUS
10
142.423
20
-171.41
11
142.423
21
-171.315
0
LINE
8
BLACK
6
CONTINUOUS
10
142.423
20
-171.315
11
142.328
21
-171.124
0
LINE
8
BLACK
6
CONTINUOUS
10
142.328
20
-171.124
11
142.137
21
-171.029
0
LINE
8
BLACK
6
CONTINUOUS
10
142.137
20
-171.029
11
141.852
21
-171.029
0
LINE
8
BLACK
6
CONTINUOUS
10
141.852
20
-171.029
11
141.661
21
-170.934
0
LINE
8
BLACK
6
CONTINUOUS
10
141.661
20
-170.934
11
141.566
21
-170.743
0
LINE
8
BLACK
6
CONTINUOUS
10
141.566
20
-170.743
11
141.566
21
-170.648
0
LINE
8
BLACK
6
CONTINUOUS
10
141.566
20
-170.648
11
141.661
21
-170.458
0
LINE
8
BLACK
6
CONTINUOUS
10
141.661
20
-170.458
11
141.852
21
-170.362
0
LINE
8
BLACK
6
CONTINUOUS
10
141.852
20
-170.362
11
142.137
21
-170.362
0
LINE
8
BLACK
6
CONTINUOUS
10
142.137
20
-170.362
11
142.328
21
-170.458
0
LINE
8
BLACK
6
CONTINUOUS
10
143.09
20
-172.458
11
143.185
21
-172.362
0
LINE
8
BLACK
6
CONTINUOUS
10
143.185
20
-172.362
11
143.375
21
-172.077
0
LINE
8
BLACK
6
CONTINUOUS
10
143.375
20
-172.077
11
143.471
21
-171.886
0
LINE
8
BLACK
6
CONTINUOUS
10
143.471
20
-171.886
11
143.566
21
-171.601
0
LINE
8
BLACK
6
CONTINUOUS
10
143.566
20
-171.601
11
143.661
21
-171.124
0
LINE
8
BLACK
6
CONTINUOUS
10
143.661
20
-171.124
11
143.661
21
-170.743
0
LINE
8
BLACK
6
CONTINUOUS
10
143.661
20
-170.743
11
143.566
21
-170.267
0
LINE
8
BLACK
6
CONTINUOUS
10
143.566
20
-170.267
11
143.471
21
-169.981
0
LINE
8
BLACK
6
CONTINUOUS
10
143.471
20
-169.981
11
143.375
21
-169.791
0
LINE
8
BLACK
6
CONTINUOUS
10
143.375
20
-169.791
11
143.185
21
-169.505
0
LINE
8
BLACK
6
CONTINUOUS
10
143.185
20
-169.505
11
143.09
21
-169.41
0
LINE
8
BLACK
6
CONTINUOUS
10
146.385
20
-172.458
11
146.29
21
-172.362
0
LINE
8
BLACK
6
CONTINUOUS
10
146.29
20
-172.362
11
146.099
21
-172.077
0
LINE
8
BLACK
6
CONTINUOUS
10
146.099
20
-172.077
11
146.004
21
-171.886
0
LINE
8
BLACK
6
CONTINUOUS
10
146.004
20
-171.886
11
145.909
21
-171.601
0
LINE
8
BLACK
6
CONTINUOUS
10
145.909
20
-171.601
11
145.813
21
-171.124
0
LINE
8
BLACK
6
CONTINUOUS
10
145.813
20
-171.124
11
145.813
21
-170.743
0
LINE
8
BLACK
6
CONTINUOUS
10
145.813
20
-170.743
11
145.909
21
-170.267
0
LINE
8
BLACK
6
CONTINUOUS
10
145.909
20
-170.267
11
146.004
21
-169.981
0
LINE
8
BLACK
6
CONTINUOUS
10
146.004
20
-169.981
11
146.099
21
-169.791
0
LINE
8
BLACK
6
CONTINUOUS
10
146.099
20
-169.791
11
146.29
21
-169.505
0
LINE
8
BLACK
6
CONTINUOUS
10
146.29
20
-169.505
11
146.385
21
-169.41
0
LINE
8
BLACK
6
CONTINUOUS
10
147.147
20
-170.362
11
147.147
21
-171.696
0
LINE
8
BLACK
6
CONTINUOUS
10
147.147
20
-170.553
11
147.242
21
-170.458
0
LINE
8
BLACK
6
CONTINUOUS
10
147.242
20
-170.458
11
147.432
21
-170.362
0
LINE
8
BLACK
6
CONTINUOUS
10
147.432
20
-170.362
11
147.718
21
-170.362
0
LINE
8
BLACK
6
CONTINUOUS
10
147.718
20
-170.362
11
147.909
21
-170.458
0
LINE
8
BLACK
6
CONTINUOUS
10
147.909
20
-170.458
11
148.004
21
-170.648
0
LINE
8
BLACK
6
CONTINUOUS
10
148.004
20
-170.648
11
148.004
21
-171.696
0
LINE
8
BLACK
6
CONTINUOUS
10
149.242
20
-171.696
11
149.052
21
-171.601
0
LINE
8
BLACK
6
CONTINUOUS
10
149.052
20
-171.601
11
148.956
21
-171.505
0
LINE
8
BLACK
6
CONTINUOUS
10
148.956
20
-171.505
11
148.861
21
-171.315
0
LINE
8
BLACK
6
CONTINUOUS
10
148.861
20
-171.315
11
148.861
21
-170.743
0
LINE
8
BLACK
6
CONTINUOUS
10
148.861
20
-170.743
11
148.956
21
-170.553
0
LINE
8
BLACK
6
CONTINUOUS
10
148.956
20
-170.553
11
149.052
21
-170.458
0
LINE
8
BLACK
6
CONTINUOUS
10
149.052
20
-170.458
11
149.242
21
-170.362
0
LINE
8
BLACK
6
CONTINUOUS
10
149.242
20
-170.362
11
149.528
21
-170.362
0
LINE
8
BLACK
6
CONTINUOUS
10
149.528
20
-170.362
11
149.718
21
-170.458
0
LINE
8
BLACK
6
CONTINUOUS
10
149.718
20
-170.458
11
149.813
21
-170.553
0
LINE
8
BLACK
6
CONTINUOUS
10
149.813
20
-170.553
11
149.909
21
-170.743
0
LINE
8
BLACK
6
CONTINUOUS
10
149.909
20
-170.743
11
149.909
21
-171.315
0
LINE
8
BLACK
6
CONTINUOUS
10
149.909
20
-171.315
11
149.813
21
-171.505
0
LINE
8
BLACK
6
CONTINUOUS
10
149.813
20
-171.505
11
149.718
21
-171.601
0
LINE
8
BLACK
6
CONTINUOUS
10
149.718
20
-171.601
11
149.528
21
-171.696
0
LINE
8
BLACK
6
CONTINUOUS
10
149.528
20
-171.696
11
149.242
21
-171.696
0
LINE
8
BLACK
6
CONTINUOUS
10
150.48
20
-170.362
11
151.242
21
-170.362
0
LINE
8
BLACK
6
CONTINUOUS
10
150.766
20
-169.696
11
150.766
21
-171.41
0
LINE
8
BLACK
6
CONTINUOUS
10
150.766
20
-171.41
11
150.861
21
-171.601
0
LINE
8
BLACK
6
CONTINUOUS
10
150.861
20
-171.601
11
151.052
21
-171.696
0
LINE
8
BLACK
6
CONTINUOUS
10
151.052
20
-171.696
11
151.242
21
-171.696
0
LINE
8
BLACK
6
CONTINUOUS
10
153.109
20
-170.362
11
153.109
21
-172.362
0
LINE
8
BLACK
6
CONTINUOUS
10
153.109
20
-170.458
11
153.299
21
-170.362
0
LINE
8
BLACK
6
CONTINUOUS
10
153.299
20
-170.362
11
153.68
21
-170.362
0
LINE
8
BLACK
6
CONTINUOUS
10
153.68
20
-170.362
11
153.871
21
-170.458
0
LINE
8
BLACK
6
CONTINUOUS
10
153.871
20
-170.458
11
153.966
21
-170.553
0
LINE
8
BLACK
6
CONTINUOUS
10
153.966
20
-170.553
11
154.061
21
-170.743
0
LINE
8
BLACK
6
CONTINUOUS
10
154.061
20
-170.743
11
154.061
21
-171.315
0
LINE
8
BLACK
6
CONTINUOUS
10
154.061
20
-171.315
11
153.966
21
-171.505
0
LINE
8
BLACK
6
CONTINUOUS
10
153.966
20
-171.505
11
153.871
21
-171.601
0
LINE
8
BLACK
6
CONTINUOUS
10
153.871
20
-171.601
11
153.68
21
-171.696
0
LINE
8
BLACK
6
CONTINUOUS
10
153.68
20
-171.696
11
153.299
21
-171.696
0
LINE
8
BLACK
6
CONTINUOUS
10
153.299
20
-171.696
11
153.109
21
-171.601
0
LINE
8
BLACK
6
CONTINUOUS
10
155.204
20
-171.696
11
155.013
21
-171.601
0
LINE
8
BLACK
6
CONTINUOUS
10
155.013
20
-171.601
11
154.918
21
-171.41
0
LINE
8
BLACK
6
CONTINUOUS
10
154.918
20
-171.41
11
154.918
21
-169.696
0
LINE
8
BLACK
6
CONTINUOUS
10
156.823
20
-171.696
11
156.823
21
-170.648
0
LINE
8
BLACK
6
CONTINUOUS
10
156.823
20
-170.648
11
156.728
21
-170.458
0
LINE
8
BLACK
6
CONTINUOUS
10
156.728
20
-170.458
11
156.537
21
-170.362
0
LINE
8
BLACK
6
CONTINUOUS
10
156.537
20
-170.362
11
156.156
21
-170.362
0
LINE
8
BLACK
6
CONTINUOUS
10
156.156
20
-170.362
11
155.966
21
-170.458
0
LINE
8
BLACK
6
CONTINUOUS
10
156.823
20
-171.601
11
156.632
21
-171.696
0
LINE
8
BLACK
6
CONTINUOUS
10
156.632
20
-171.696
11
156.156
21
-171.696
0
LINE
8
BLACK
6
CONTINUOUS
10
156.156
20
-171.696
11
155.966
21
-171.601
0
LINE
8
BLACK
6
CONTINUOUS
10
155.966
20
-171.601
11
155.871
21
-171.41
0
LINE
8
BLACK
6
CONTINUOUS
10
155.871
20
-171.41
11
155.871
21
-171.22
0
LINE
8
BLACK
6
CONTINUOUS
10
155.871
20
-171.22
11
155.966
21
-171.029
0
LINE
8
BLACK
6
CONTINUOUS
10
155.966
20
-171.029
11
156.156
21
-170.934
0
LINE
8
BLACK
6
CONTINUOUS
10
156.156
20
-170.934
11
156.632
21
-170.934
0
LINE
8
BLACK
6
CONTINUOUS
10
156.632
20
-170.934
11
156.823
21
-170.839
0
LINE
8
BLACK
6
CONTINUOUS
10
157.49
20
-170.362
11
158.252
21
-170.362
0
LINE
8
BLACK
6
CONTINUOUS
10
157.775
20
-169.696
11
157.775
21
-171.41
0
LINE
8
BLACK
6
CONTINUOUS
10
157.775
20
-171.41
11
157.871
21
-171.601
0
LINE
8
BLACK
6
CONTINUOUS
10
157.871
20
-171.601
11
158.061
21
-171.696
0
LINE
8
BLACK
6
CONTINUOUS
10
158.061
20
-171.696
11
158.252
21
-171.696
0
LINE
8
BLACK
6
CONTINUOUS
10
159.68
20
-171.601
11
159.49
21
-171.696
0
LINE
8
BLACK
6
CONTINUOUS
10
159.49
20
-171.696
11
159.109
21
-171.696
0
LINE
8
BLACK
6
CONTINUOUS
10
159.109
20
-171.696
11
158.918
21
-171.601
0
LINE
8
BLACK
6
CONTINUOUS
10
158.918
20
-171.601
11
158.823
21
-171.41
0
LINE
8
BLACK
6
CONTINUOUS
10
158.823
20
-171.41
11
158.823
21
-170.648
0
LINE
8
BLACK
6
CONTINUOUS
10
158.823
20
-170.648
11
158.918
21
-170.458
0
LINE
8
BLACK
6
CONTINUOUS
10
158.918
20
-170.458
11
159.109
21
-170.362
0
LINE
8
BLACK
6
CONTINUOUS
10
159.109
20
-170.362
11
159.49
21
-170.362
0
LINE
8
BLACK
6
CONTINUOUS
10
159.49
20
-170.362
11
159.68
21
-170.458
0
LINE
8
BLACK
6
CONTINUOUS
10
159.68
20
-170.458
11
159.775
21
-170.648
0
LINE
8
BLACK
6
CONTINUOUS
10
159.775
20
-170.648
11
159.775
21
-170.839
0
LINE
8
BLACK
6
CONTINUOUS
10
159.775
20
-170.839
11
158.823
21
-171.029
0
LINE
8
BLACK
6
CONTINUOUS
10
161.49
20
-171.696
11
161.49
21
-169.696
0
LINE
8
BLACK
6
CONTINUOUS
10
161.49
20
-171.601
11
161.299
21
-171.696
0
LINE
8
BLACK
6
CONTINUOUS
10
161.299
20
-171.696
11
160.918
21
-171.696
0
LINE
8
BLACK
6
CONTINUOUS
10
160.918
20
-171.696
11
160.728
21
-171.601
0
LINE
8
BLACK
6
CONTINUOUS
10
160.728
20
-171.601
11
160.632
21
-171.505
0
LINE
8
BLACK
6
CONTINUOUS
10
160.632
20
-171.505
11
160.537
21
-171.315
0
LINE
8
BLACK
6
CONTINUOUS
10
160.537
20
-171.315
11
160.537
21
-170.743
0
LINE
8
BLACK
6
CONTINUOUS
10
160.537
20
-170.743
11
160.632
21
-170.553
0
LINE
8
BLACK
6
CONTINUOUS
10
160.632
20
-170.553
11
160.728
21
-170.458
0
LINE
8
BLACK
6
CONTINUOUS
10
160.728
20
-170.458
11
160.918
21
-170.362
0
LINE
8
BLACK
6
CONTINUOUS
10
160.918
20
-170.362
11
161.299
21
-170.362
0
LINE
8
BLACK
6
CONTINUOUS
10
161.299
20
-170.362
11
161.49
21
-170.458
0
LINE
8
BLACK
6
CONTINUOUS
10
162.252
20
-172.458
11
162.347
21
-172.362
0
LINE
8
BLACK
6
CONTINUOUS
10
162.347
20
-172.362
11
162.537
21
-172.077
0
LINE
8
BLACK
6
CONTINUOUS
10
162.537
20
-172.077
11
162.632
21
-171.886
0
LINE
8
BLACK
6
CONTINUOUS
10
162.632
20
-171.886
11
162.728
21
-171.601
0
LINE
8
BLACK
6
CONTINUOUS
10
162.728
20
-171.601
11
162.823
21
-171.124
0
LINE
8
BLACK
6
CONTINUOUS
10
162.823
20
-171.124
11
162.823
21
-170.743
0
LINE
8
BLACK
6
CONTINUOUS
10
162.823
20
-170.743
11
162.728
21
-170.267
0
LINE
8
BLACK
6
CONTINUOUS
10
162.728
20
-170.267
11
162.632
21
-169.981
0
LINE
8
BLACK
6
CONTINUOUS
10
162.632
20
-169.981
11
162.537
21
-169.791
0
LINE
8
BLACK
6
CONTINUOUS
10
162.537
20
-169.791
11
162.347
21
-169.505
0
LINE
8
BLACK
6
CONTINUOUS
10
162.347
20
-169.505
11
162.252
21
-169.41
0
LINE
8
BLACK
6
CONTINUOUS
10
94.7658
20
-173.161
11
96.7658
21
-175.161
0
LINE
8
BLACK
6
CONTINUOUS
10
96.7658
20
-173.161
11
94.7658
21
-175.161
0
CIRCLE
8
BLACK
10
95.7658
20
-174.161
40
1
0
LINE
8
BLACK
6
CONTINUOUS
10
99.0515
20
-172.896
11
100.29
21
-172.896
0
LINE
8
BLACK
6
CONTINUOUS
10
100.29
20
-172.896
11
99.6229
21
-173.658
0
LINE
8
BLACK
6
CONTINUOUS
10
99.6229
20
-173.658
11
99.9087
21
-173.658
0
LINE
8
BLACK
6
CONTINUOUS
10
99.9087
20
-173.658
11
100.099
21
-173.753
0
LINE
8
BLACK
6
CONTINUOUS
10
100.099
20
-173.753
11
100.194
21
-173.848
0
LINE
8
BLACK
6
CONTINUOUS
10
100.194
20
-173.848
11
100.29
21
-174.039
0
LINE
8
BLACK
6
CONTINUOUS
10
100.29
20
-174.039
11
100.29
21
-174.515
0
LINE
8
BLACK
6
CONTINUOUS
10
100.29
20
-174.515
11
100.194
21
-174.705
0
LINE
8
BLACK
6
CONTINUOUS
10
100.194
20
-174.705
11
100.099
21
-174.801
0
LINE
8
BLACK
6
CONTINUOUS
10
100.099
20
-174.801
11
99.9087
21
-174.896
0
LINE
8
BLACK
6
CONTINUOUS
10
99.9087
20
-174.896
11
99.3372
21
-174.896
0
LINE
8
BLACK
6
CONTINUOUS
10
99.3372
20
-174.896
11
99.1468
21
-174.801
0
LINE
8
BLACK
6
CONTINUOUS
10
99.1468
20
-174.801
11
99.0515
21
-174.705
0
LINE
8
BLACK
6
CONTINUOUS
10
101.147
20
-174.705
11
101.242
21
-174.801
0
LINE
8
BLACK
6
CONTINUOUS
10
101.242
20
-174.801
11
101.147
21
-174.896
0
LINE
8
BLACK
6
CONTINUOUS
10
101.147
20
-174.896
11
101.052
21
-174.801
0
LINE
8
BLACK
6
CONTINUOUS
10
101.052
20
-174.801
11
101.147
21
-174.705
0
LINE
8
BLACK
6
CONTINUOUS
10
101.147
20
-174.705
11
101.147
21
-174.896
0
LINE
8
BLACK
6
CONTINUOUS
10
103.052
20
-172.896
11
102.099
21
-172.896
0
LINE
8
BLACK
6
CONTINUOUS
10
102.099
20
-172.896
11
102.004
21
-173.848
0
LINE
8
BLACK
6
CONTINUOUS
10
102.004
20
-173.848
11
102.099
21
-173.753
0
LINE
8
BLACK
6
CONTINUOUS
10
102.099
20
-173.753
11
102.29
21
-173.658
0
LINE
8
BLACK
6
CONTINUOUS
10
102.29
20
-173.658
11
102.766
21
-173.658
0
LINE
8
BLACK
6
CONTINUOUS
10
102.766
20
-173.658
11
102.956
21
-173.753
0
LINE
8
BLACK
6
CONTINUOUS
10
102.956
20
-173.753
11
103.052
21
-173.848
0
LINE
8
BLACK
6
CONTINUOUS
10
103.052
20
-173.848
11
103.147
21
-174.039
0
LINE
8
BLACK
6
CONTINUOUS
10
103.147
20
-174.039
11
103.147
21
-174.515
0
LINE
8
BLACK
6
CONTINUOUS
10
103.147
20
-174.515
11
103.052
21
-174.705
0
LINE
8
BLACK
6
CONTINUOUS
10
103.052
20
-174.705
11
102.956
21
-174.801
0
LINE
8
BLACK
6
CONTINUOUS
10
102.956
20
-174.801
11
102.766
21
-174.896
0
LINE
8
BLACK
6
CONTINUOUS
10
102.766
20
-174.896
11
102.29
21
-174.896
0
LINE
8
BLACK
6
CONTINUOUS
10
102.29
20
-174.896
11
102.099
21
-174.801
0
LINE
8
BLACK
6
CONTINUOUS
10
102.099
20
-174.801
11
102.004
21
-174.705
0
LINE
8
BLACK
6
CONTINUOUS
10
104.385
20
-172.896
11
104.575
21
-172.896
0
LINE
8
BLACK
6
CONTINUOUS
10
104.575
20
-172.896
11
104.766
21
-172.991
0
LINE
8
BLACK
6
CONTINUOUS
10
104.766
20
-172.991
11
104.861
21
-173.086
0
LINE
8
BLACK
6
CONTINUOUS
10
104.861
20
-173.086
11
104.956
21
-173.277
0
LINE
8
BLACK
6
CONTINUOUS
10
104.956
20
-173.277
11
105.052
21
-173.658
0
LINE
8
BLACK
6
CONTINUOUS
10
105.052
20
-173.658
11
105.052
21
-174.134
0
LINE
8
BLACK
6
CONTINUOUS
10
105.052
20
-174.134
11
104.956
21
-174.515
0
LINE
8
BLACK
6
CONTINUOUS
10
104.956
20
-174.515
11
104.861
21
-174.705
0
LINE
8
BLACK
6
CONTINUOUS
10
104.861
20
-174.705
11
104.766
21
-174.801
0
LINE
8
BLACK
6
CONTINUOUS
10
104.766
20
-174.801
11
104.575
21
-174.896
0
LINE
8
BLACK
6
CONTINUOUS
10
104.575
20
-174.896
11
104.385
21
-174.896
0
LINE
8
BLACK
6
CONTINUOUS
10
104.385
20
-174.896
11
104.194
21
-174.801
0
LINE
8
BLACK
6
CONTINUOUS
10
104.194
20
-174.801
11
104.099
21
-174.705
0
LINE
8
BLACK
6
CONTINUOUS
10
104.099
20
-174.705
11
104.004
21
-174.515
0
LINE
8
BLACK
6
CONTINUOUS
10
104.004
20
-174.515
11
103.909
21
-174.134
0
LINE
8
BLACK
6
CONTINUOUS
10
103.909
20
-174.134
11
103.909
21
-173.658
0
LINE
8
BLACK
6
CONTINUOUS
10
103.909
20
-173.658
11
104.004
21
-173.277
0
LINE
8
BLACK
6
CONTINUOUS
10
104.004
20
-173.277
11
104.099
21
-173.086
0
LINE
8
BLACK
6
CONTINUOUS
10
104.099
20
-173.086
11
104.194
21
-172.991
0
LINE
8
BLACK
6
CONTINUOUS
10
104.194
20
-172.991
11
104.385
21
-172.896
0
LINE
8
BLACK
6
CONTINUOUS
10
106.29
20
-172.896
11
106.48
21
-172.896
0
LINE
8
BLACK
6
CONTINUOUS
10
106.48
20
-172.896
11
106.671
21
-172.991
0
LINE
8
BLACK
6
CONTINUOUS
10
106.671
20
-172.991
11
106.766
21
-173.086
0
LINE
8
BLACK
6
CONTINUOUS
10
106.766
20
-173.086
11
106.861
21
-173.277
0
LINE
8
BLACK
6
CONTINUOUS
10
106.861
20
-173.277
11
106.956
21
-173.658
0
LINE
8
BLACK
6
CONTINUOUS
10
106.956
20
-173.658
11
106.956
21
-174.134
0
LINE
8
BLACK
6
CONTINUOUS
10
106.956
20
-174.134
11
106.861
21
-174.515
0
LINE
8
BLACK
6
CONTINUOUS
10
106.861
20
-174.515
11
106.766
21
-174.705
0
LINE
8
BLACK
6
CONTINUOUS
10
106.766
20
-174.705
11
106.671
21
-174.801
0
LINE
8
BLACK
6
CONTINUOUS
10
106.671
20
-174.801
11
106.48
21
-174.896
0
LINE
8
BLACK
6
CONTINUOUS
10
106.48
20
-174.896
11
106.29
21
-174.896
0
LINE
8
BLACK
6
CONTINUOUS
10
106.29
20
-174.896
11
106.099
21
-174.801
0
LINE
8
BLACK
6
CONTINUOUS
10
106.099
20
-174.801
11
106.004
21
-174.705
0
LINE
8
BLACK
6
CONTINUOUS
10
106.004
20
-174.705
11
105.909
21
-174.515
0
LINE
8
BLACK
6
CONTINUOUS
10
105.909
20
-174.515
11
105.813
21
-174.134
0
LINE
8
BLACK
6
CONTINUOUS
10
105.813
20
-174.134
11
105.813
21
-173.658
0
LINE
8
BLACK
6
CONTINUOUS
10
105.813
20
-173.658
11
105.909
21
-173.277
0
LINE
8
BLACK
6
CONTINUOUS
10
105.909
20
-173.277
11
106.004
21
-173.086
0
LINE
8
BLACK
6
CONTINUOUS
10
106.004
20
-173.086
11
106.099
21
-172.991
0
LINE
8
BLACK
6
CONTINUOUS
10
106.099
20
-172.991
11
106.29
21
-172.896
0
LINE
8
BLACK
6
CONTINUOUS
10
107.813
20
-174.896
11
107.813
21
-173.562
0
LINE
8
BLACK
6
CONTINUOUS
10
107.813
20
-173.753
11
107.909
21
-173.658
0
LINE
8
BLACK
6
CONTINUOUS
10
107.909
20
-173.658
11
108.099
21
-173.562
0
LINE
8
BLACK
6
CONTINUOUS
10
108.099
20
-173.562
11
108.385
21
-173.562
0
LINE
8
BLACK
6
CONTINUOUS
10
108.385
20
-173.562
11
108.575
21
-173.658
0
LINE
8
BLACK
6
CONTINUOUS
10
108.575
20
-173.658
11
108.671
21
-173.848
0
LINE
8
BLACK
6
CONTINUOUS
10
108.671
20
-173.848
11
108.671
21
-174.896
0
LINE
8
BLACK
6
CONTINUOUS
10
108.671
20
-173.848
11
108.766
21
-173.658
0
LINE
8
BLACK
6
CONTINUOUS
10
108.766
20
-173.658
11
108.956
21
-173.562
0
LINE
8
BLACK
6
CONTINUOUS
10
108.956
20
-173.562
11
109.242
21
-173.562
0
LINE
8
BLACK
6
CONTINUOUS
10
109.242
20
-173.562
11
109.432
21
-173.658
0
LINE
8
BLACK
6
CONTINUOUS
10
109.432
20
-173.658
11
109.528
21
-173.848
0
LINE
8
BLACK
6
CONTINUOUS
10
109.528
20
-173.848
11
109.528
21
-174.896
0
LINE
8
BLACK
6
CONTINUOUS
10
110.48
20
-174.896
11
110.48
21
-173.562
0
LINE
8
BLACK
6
CONTINUOUS
10
110.48
20
-173.753
11
110.575
21
-173.658
0
LINE
8
BLACK
6
CONTINUOUS
10
110.575
20
-173.658
11
110.766
21
-173.562
0
LINE
8
BLACK
6
CONTINUOUS
10
110.766
20
-173.562
11
111.052
21
-173.562
0
LINE
8
BLACK
6
CONTINUOUS
10
111.052
20
-173.562
11
111.242
21
-173.658
0
LINE
8
BLACK
6
CONTINUOUS
10
111.242
20
-173.658
11
111.337
21
-173.848
0
LINE
8
BLACK
6
CONTINUOUS
10
111.337
20
-173.848
11
111.337
21
-174.896
0
LINE
8
BLACK
6
CONTINUOUS
10
111.337
20
-173.848
11
111.432
21
-173.658
0
LINE
8
BLACK
6
CONTINUOUS
10
111.432
20
-173.658
11
111.623
21
-173.562
0
LINE
8
BLACK
6
CONTINUOUS
10
111.623
20
-173.562
11
111.909
21
-173.562
0
LINE
8
BLACK
6
CONTINUOUS
10
111.909
20
-173.562
11
112.099
21
-173.658
0
LINE
8
BLACK
6
CONTINUOUS
10
112.099
20
-173.658
11
112.194
21
-173.848
0
LINE
8
BLACK
6
CONTINUOUS
10
112.194
20
-173.848
11
112.194
21
-174.896
0
LINE
8
BLACK
6
CONTINUOUS
10
115.775
20
-172.801
11
114.061
21
-175.372
0
LINE
8
BLACK
6
CONTINUOUS
10
118.023
20
-172.896
11
118.213
21
-172.896
0
LINE
8
BLACK
6
CONTINUOUS
10
118.213
20
-172.896
11
118.404
21
-172.991
0
LINE
8
BLACK
6
CONTINUOUS
10
118.404
20
-172.991
11
118.499
21
-173.086
0
LINE
8
BLACK
6
CONTINUOUS
10
118.499
20
-173.086
11
118.594
21
-173.277
0
LINE
8
BLACK
6
CONTINUOUS
10
118.594
20
-173.277
11
118.69
21
-173.658
0
LINE
8
BLACK
6
CONTINUOUS
10
118.69
20
-173.658
11
118.69
21
-174.134
0
LINE
8
BLACK
6
CONTINUOUS
10
118.69
20
-174.134
11
118.594
21
-174.515
0
LINE
8
BLACK
6
CONTINUOUS
10
118.594
20
-174.515
11
118.499
21
-174.705
0
LINE
8
BLACK
6
CONTINUOUS
10
118.499
20
-174.705
11
118.404
21
-174.801
0
LINE
8
BLACK
6
CONTINUOUS
10
118.404
20
-174.801
11
118.213
21
-174.896
0
LINE
8
BLACK
6
CONTINUOUS
10
118.213
20
-174.896
11
118.023
21
-174.896
0
LINE
8
BLACK
6
CONTINUOUS
10
118.023
20
-174.896
11
117.832
21
-174.801
0
LINE
8
BLACK
6
CONTINUOUS
10
117.832
20
-174.801
11
117.737
21
-174.705
0
LINE
8
BLACK
6
CONTINUOUS
10
117.737
20
-174.705
11
117.642
21
-174.515
0
LINE
8
BLACK
6
CONTINUOUS
10
117.642
20
-174.515
11
117.547
21
-174.134
0
LINE
8
BLACK
6
CONTINUOUS
10
117.547
20
-174.134
11
117.547
21
-173.658
0
LINE
8
BLACK
6
CONTINUOUS
10
117.547
20
-173.658
11
117.642
21
-173.277
0
LINE
8
BLACK
6
CONTINUOUS
10
117.642
20
-173.277
11
117.737
21
-173.086
0
LINE
8
BLACK
6
CONTINUOUS
10
117.737
20
-173.086
11
117.832
21
-172.991
0
LINE
8
BLACK
6
CONTINUOUS
10
117.832
20
-172.991
11
118.023
21
-172.896
0
LINE
8
BLACK
6
CONTINUOUS
10
119.547
20
-174.705
11
119.642
21
-174.801
0
LINE
8
BLACK
6
CONTINUOUS
10
119.642
20
-174.801
11
119.547
21
-174.896
0
LINE
8
BLACK
6
CONTINUOUS
10
119.547
20
-174.896
11
119.452
21
-174.801
0
LINE
8
BLACK
6
CONTINUOUS
10
119.452
20
-174.801
11
119.547
21
-174.705
0
LINE
8
BLACK
6
CONTINUOUS
10
119.547
20
-174.705
11
119.547
21
-174.896
0
LINE
8
BLACK
6
CONTINUOUS
10
121.547
20
-174.896
11
120.404
21
-174.896
0
LINE
8
BLACK
6
CONTINUOUS
10
120.975
20
-174.896
11
120.975
21
-172.896
0
LINE
8
BLACK
6
CONTINUOUS
10
120.975
20
-172.896
11
120.785
21
-173.181
0
LINE
8
BLACK
6
CONTINUOUS
10
120.785
20
-173.181
11
120.594
21
-173.372
0
LINE
8
BLACK
6
CONTINUOUS
10
120.594
20
-173.372
11
120.404
21
-173.467
0
LINE
8
BLACK
6
CONTINUOUS
10
122.213
20
-172.896
11
123.452
21
-172.896
0
LINE
8
BLACK
6
CONTINUOUS
10
123.452
20
-172.896
11
122.785
21
-173.658
0
LINE
8
BLACK
6
CONTINUOUS
10
122.785
20
-173.658
11
123.071
21
-173.658
0
LINE
8
BLACK
6
CONTINUOUS
10
123.071
20
-173.658
11
123.261
21
-173.753
0
LINE
8
BLACK
6
CONTINUOUS
10
123.261
20
-173.753
11
123.356
21
-173.848
0
LINE
8
BLACK
6
CONTINUOUS
10
123.356
20
-173.848
11
123.452
21
-174.039
0
LINE
8
BLACK
6
CONTINUOUS
10
123.452
20
-174.039
11
123.452
21
-174.515
0
LINE
8
BLACK
6
CONTINUOUS
10
123.452
20
-174.515
11
123.356
21
-174.705
0
LINE
8
BLACK
6
CONTINUOUS
10
123.356
20
-174.705
11
123.261
21
-174.801
0
LINE
8
BLACK
6
CONTINUOUS
10
123.261
20
-174.801
11
123.071
21
-174.896
0
LINE
8
BLACK
6
CONTINUOUS
10
123.071
20
-174.896
11
122.499
21
-174.896
0
LINE
8
BLACK
6
CONTINUOUS
10
122.499
20
-174.896
11
122.309
21
-174.801
0
LINE
8
BLACK
6
CONTINUOUS
10
122.309
20
-174.801
11
122.213
21
-174.705
0
LINE
8
BLACK
6
CONTINUOUS
10
124.118
20
-172.896
11
125.452
21
-172.896
0
LINE
8
BLACK
6
CONTINUOUS
10
125.452
20
-172.896
11
124.594
21
-174.896
0
LINE
8
BLACK
6
CONTINUOUS
10
126.499
20
-173.753
11
126.309
21
-173.658
0
LINE
8
BLACK
6
CONTINUOUS
10
126.309
20
-173.658
11
126.213
21
-173.562
0
LINE
8
BLACK
6
CONTINUOUS
10
126.213
20
-173.562
11
126.118
21
-173.372
0
LINE
8
BLACK
6
CONTINUOUS
10
126.118
20
-173.372
11
126.118
21
-173.277
0
LINE
8
BLACK
6
CONTINUOUS
10
126.118
20
-173.277
11
126.213
21
-173.086
0
LINE
8
BLACK
6
CONTINUOUS
10
126.213
20
-173.086
11
126.309
21
-172.991
0
LINE
8
BLACK
6
CONTINUOUS
10
126.309
20
-172.991
11
126.499
21
-172.896
0
LINE
8
BLACK
6
CONTINUOUS
10
126.499
20
-172.896
11
126.88
21
-172.896
0
LINE
8
BLACK
6
CONTINUOUS
10
126.88
20
-172.896
11
127.071
21
-172.991
0
LINE
8
BLACK
6
CONTINUOUS
10
127.071
20
-172.991
11
127.166
21
-173.086
0
LINE
8
BLACK
6
CONTINUOUS
10
127.166
20
-173.086
11
127.261
21
-173.277
0
LINE
8
BLACK
6
CONTINUOUS
10
127.261
20
-173.277
11
127.261
21
-173.372
0
LINE
8
BLACK
6
CONTINUOUS
10
127.261
20
-173.372
11
127.166
21
-173.562
0
LINE
8
BLACK
6
CONTINUOUS
10
127.166
20
-173.562
11
127.071
21
-173.658
0
LINE
8
BLACK
6
CONTINUOUS
10
127.071
20
-173.658
11
126.88
21
-173.753
0
LINE
8
BLACK
6
CONTINUOUS
10
126.88
20
-173.753
11
126.499
21
-173.753
0
LINE
8
BLACK
6
CONTINUOUS
10
126.499
20
-173.753
11
126.309
21
-173.848
0
LINE
8
BLACK
6
CONTINUOUS
10
126.309
20
-173.848
11
126.213
21
-173.943
0
LINE
8
BLACK
6
CONTINUOUS
10
126.213
20
-173.943
11
126.118
21
-174.134
0
LINE
8
BLACK
6
CONTINUOUS
10
126.118
20
-174.134
11
126.118
21
-174.515
0
LINE
8
BLACK
6
CONTINUOUS
10
126.118
20
-174.515
11
126.213
21
-174.705
0
LINE
8
BLACK
6
CONTINUOUS
10
126.213
20
-174.705
11
126.309
21
-174.801
0
LINE
8
BLACK
6
CONTINUOUS
10
126.309
20
-174.801
11
126.499
21
-174.896
0
LINE
8
BLACK
6
CONTINUOUS
10
126.499
20
-174.896
11
126.88
21
-174.896
0
LINE
8
BLACK
6
CONTINUOUS
10
126.88
20
-174.896
11
127.071
21
-174.801
0
LINE
8
BLACK
6
CONTINUOUS
10
127.071
20
-174.801
11
127.166
21
-174.705
0
LINE
8
BLACK
6
CONTINUOUS
10
127.166
20
-174.705
11
127.261
21
-174.515
0
LINE
8
BLACK
6
CONTINUOUS
10
127.261
20
-174.515
11
127.261
21
-174.134
0
LINE
8
BLACK
6
CONTINUOUS
10
127.261
20
-174.134
11
127.166
21
-173.943
0
LINE
8
BLACK
6
CONTINUOUS
10
127.166
20
-173.943
11
127.071
21
-173.848
0
LINE
8
BLACK
6
CONTINUOUS
10
127.071
20
-173.848
11
126.88
21
-173.753
0
LINE
8
BLACK
6
CONTINUOUS
10
128.023
20
-172.896
11
128.023
21
-173.277
0
LINE
8
BLACK
6
CONTINUOUS
10
128.785
20
-172.896
11
128.785
21
-173.277
0
LINE
8
BLACK
6
CONTINUOUS
10
131.413
20
-175.658
11
131.318
21
-175.562
0
LINE
8
BLACK
6
CONTINUOUS
10
131.318
20
-175.562
11
131.128
21
-175.277
0
LINE
8
BLACK
6
CONTINUOUS
10
131.128
20
-175.277
11
131.032
21
-175.086
0
LINE
8
BLACK
6
CONTINUOUS
10
131.032
20
-175.086
11
130.937
21
-174.801
0
LINE
8
BLACK
6
CONTINUOUS
10
130.937
20
-174.801
11
130.842
21
-174.324
0
LINE
8
BLACK
6
CONTINUOUS
10
130.842
20
-174.324
11
130.842
21
-173.943
0
LINE
8
BLACK
6
CONTINUOUS
10
130.842
20
-173.943
11
130.937
21
-173.467
0
LINE
8
BLACK
6
CONTINUOUS
10
130.937
20
-173.467
11
131.032
21
-173.181
0
LINE
8
BLACK
6
CONTINUOUS
10
131.032
20
-173.181
11
131.128
21
-172.991
0
LINE
8
BLACK
6
CONTINUOUS
10
131.128
20
-172.991
11
131.318
21
-172.705
0
LINE
8
BLACK
6
CONTINUOUS
10
131.318
20
-172.705
11
131.413
21
-172.61
0
LINE
8
BLACK
6
CONTINUOUS
10
132.08
20
-173.086
11
132.175
21
-172.991
0
LINE
8
BLACK
6
CONTINUOUS
10
132.175
20
-172.991
11
132.366
21
-172.896
0
LINE
8
BLACK
6
CONTINUOUS
10
132.366
20
-172.896
11
132.842
21
-172.896
0
LINE
8
BLACK
6
CONTINUOUS
10
132.842
20
-172.896
11
133.032
21
-172.991
0
LINE
8
BLACK
6
CONTINUOUS
10
133.032
20
-172.991
11
133.128
21
-173.086
0
LINE
8
BLACK
6
CONTINUOUS
10
133.128
20
-173.086
11
133.223
21
-173.277
0
LINE
8
BLACK
6
CONTINUOUS
10
133.223
20
-173.277
11
133.223
21
-173.467
0
LINE
8
BLACK
6
CONTINUOUS
10
133.223
20
-173.467
11
133.128
21
-173.753
0
LINE
8
BLACK
6
CONTINUOUS
10
133.128
20
-173.753
11
131.985
21
-174.896
0
LINE
8
BLACK
6
CONTINUOUS
10
131.985
20
-174.896
11
133.223
21
-174.896
0
LINE
8
BLACK
6
CONTINUOUS
10
135.28
20
-174.896
11
135.28
21
-172.896
0
LINE
8
BLACK
6
CONTINUOUS
10
136.137
20
-174.896
11
136.137
21
-173.848
0
LINE
8
BLACK
6
CONTINUOUS
10
136.137
20
-173.848
11
136.042
21
-173.658
0
LINE
8
BLACK
6
CONTINUOUS
10
136.042
20
-173.658
11
135.852
21
-173.562
0
LINE
8
BLACK
6
CONTINUOUS
10
135.852
20
-173.562
11
135.566
21
-173.562
0
LINE
8
BLACK
6
CONTINUOUS
10
135.566
20
-173.562
11
135.375
21
-173.658
0
LINE
8
BLACK
6
CONTINUOUS
10
135.375
20
-173.658
11
135.28
21
-173.753
0
LINE
8
BLACK
6
CONTINUOUS
10
137.375
20
-174.896
11
137.185
21
-174.801
0
LINE
8
BLACK
6
CONTINUOUS
10
137.185
20
-174.801
11
137.09
21
-174.705
0
LINE
8
BLACK
6
CONTINUOUS
10
137.09
20
-174.705
11
136.994
21
-174.515
0
LINE
8
BLACK
6
CONTINUOUS
10
136.994
20
-174.515
11
136.994
21
-173.943
0
LINE
8
BLACK
6
CONTINUOUS
10
136.994
20
-173.943
11
137.09
21
-173.753
0
LINE
8
BLACK
6
CONTINUOUS
10
137.09
20
-173.753
11
137.185
21
-173.658
0
LINE
8
BLACK
6
CONTINUOUS
10
137.185
20
-173.658
11
137.375
21
-173.562
0
LINE
8
BLACK
6
CONTINUOUS
10
137.375
20
-173.562
11
137.661
21
-173.562
0
LINE
8
BLACK
6
CONTINUOUS
10
137.661
20
-173.562
11
137.852
21
-173.658
0
LINE
8
BLACK
6
CONTINUOUS
10
137.852
20
-173.658
11
137.947
21
-173.753
0
LINE
8
BLACK
6
CONTINUOUS
10
137.947
20
-173.753
11
138.042
21
-173.943
0
LINE
8
BLACK
6
CONTINUOUS
10
138.042
20
-173.943
11
138.042
21
-174.515
0
LINE
8
BLACK
6
CONTINUOUS
10
138.042
20
-174.515
11
137.947
21
-174.705
0
LINE
8
BLACK
6
CONTINUOUS
10
137.947
20
-174.705
11
137.852
21
-174.801
0
LINE
8
BLACK
6
CONTINUOUS
10
137.852
20
-174.801
11
137.661
21
-174.896
0
LINE
8
BLACK
6
CONTINUOUS
10
137.661
20
-174.896
11
137.375
21
-174.896
0
LINE
8
BLACK
6
CONTINUOUS
10
139.185
20
-174.896
11
138.994
21
-174.801
0
LINE
8
BLACK
6
CONTINUOUS
10
138.994
20
-174.801
11
138.899
21
-174.61
0
LINE
8
BLACK
6
CONTINUOUS
10
138.899
20
-174.61
11
138.899
21
-172.896
0
LINE
8
BLACK
6
CONTINUOUS
10
140.709
20
-174.801
11
140.518
21
-174.896
0
LINE
8
BLACK
6
CONTINUOUS
10
140.518
20
-174.896
11
140.137
21
-174.896
0
LINE
8
BLACK
6
CONTINUOUS
10
140.137
20
-174.896
11
139.947
21
-174.801
0
LINE
8
BLACK
6
CONTINUOUS
10
139.947
20
-174.801
11
139.852
21
-174.61
0
LINE
8
BLACK
6
CONTINUOUS
10
139.852
20
-174.61
11
139.852
21
-173.848
0
LINE
8
BLACK
6
CONTINUOUS
10
139.852
20
-173.848
11
139.947
21
-173.658
0
LINE
8
BLACK
6
CONTINUOUS
10
139.947
20
-173.658
11
140.137
21
-173.562
0
LINE
8
BLACK
6
CONTINUOUS
10
140.137
20
-173.562
11
140.518
21
-173.562
0
LINE
8
BLACK
6
CONTINUOUS
10
140.518
20
-173.562
11
140.709
21
-173.658
0
LINE
8
BLACK
6
CONTINUOUS
10
140.709
20
-173.658
11
140.804
21
-173.848
0
LINE
8
BLACK
6
CONTINUOUS
10
140.804
20
-173.848
11
140.804
21
-174.039
0
LINE
8
BLACK
6
CONTINUOUS
10
140.804
20
-174.039
11
139.852
21
-174.229
0
LINE
8
BLACK
6
CONTINUOUS
10
141.566
20
-174.801
11
141.756
21
-174.896
0
LINE
8
BLACK
6
CONTINUOUS
10
141.756
20
-174.896
11
142.137
21
-174.896
0
LINE
8
BLACK
6
CONTINUOUS
10
142.137
20
-174.896
11
142.328
21
-174.801
0
LINE
8
BLACK
6
CONTINUOUS
10
142.328
20
-174.801
11
142.423
21
-174.61
0
LINE
8
BLACK
6
CONTINUOUS
10
142.423
20
-174.61
11
142.423
21
-174.515
0
LINE
8
BLACK
6
CONTINUOUS
10
142.423
20
-174.515
11
142.328
21
-174.324
0
LINE
8
BLACK
6
CONTINUOUS
10
142.328
20
-174.324
11
142.137
21
-174.229
0
LINE
8
BLACK
6
CONTINUOUS
10
142.137
20
-174.229
11
141.852
21
-174.229
0
LINE
8
BLACK
6
CONTINUOUS
10
141.852
20
-174.229
11
141.661
21
-174.134
0
LINE
8
BLACK
6
CONTINUOUS
10
141.661
20
-174.134
11
141.566
21
-173.943
0
LINE
8
BLACK
6
CONTINUOUS
10
141.566
20
-173.943
11
141.566
21
-173.848
0
LINE
8
BLACK
6
CONTINUOUS
10
141.566
20
-173.848
11
141.661
21
-173.658
0
LINE
8
BLACK
6
CONTINUOUS
10
141.661
20
-173.658
11
141.852
21
-173.562
0
LINE
8
BLACK
6
CONTINUOUS
10
141.852
20
-173.562
11
142.137
21
-173.562
0
LINE
8
BLACK
6
CONTINUOUS
10
142.137
20
-173.562
11
142.328
21
-173.658
0
LINE
8
BLACK
6
CONTINUOUS
10
143.09
20
-175.658
11
143.185
21
-175.562
0
LINE
8
BLACK
6
CONTINUOUS
10
143.185
20
-175.562
11
143.375
21
-175.277
0
LINE
8
BLACK
6
CONTINUOUS
10
143.375
20
-175.277
11
143.471
21
-175.086
0
LINE
8
BLACK
6
CONTINUOUS
10
143.471
20
-175.086
11
143.566
21
-174.801
0
LINE
8
BLACK
6
CONTINUOUS
10
143.566
20
-174.801
11
143.661
21
-174.324
0
LINE
8
BLACK
6
CONTINUOUS
10
143.661
20
-174.324
11
143.661
21
-173.943
0
LINE
8
BLACK
6
CONTINUOUS
10
143.661
20
-173.943
11
143.566
21
-173.467
0
LINE
8
BLACK
6
CONTINUOUS
10
143.566
20
-173.467
11
143.471
21
-173.181
0
LINE
8
BLACK
6
CONTINUOUS
10
143.471
20
-173.181
11
143.375
21
-172.991
0
LINE
8
BLACK
6
CONTINUOUS
10
143.375
20
-172.991
11
143.185
21
-172.705
0
LINE
8
BLACK
6
CONTINUOUS
10
143.185
20
-172.705
11
143.09
21
-172.61
0
LINE
8
BLACK
6
CONTINUOUS
10
146.385
20
-175.658
11
146.29
21
-175.562
0
LINE
8
BLACK
6
CONTINUOUS
10
146.29
20
-175.562
11
146.099
21
-175.277
0
LINE
8
BLACK
6
CONTINUOUS
10
146.099
20
-175.277
11
146.004
21
-175.086
0
LINE
8
BLACK
6
CONTINUOUS
10
146.004
20
-175.086
11
145.909
21
-174.801
0
LINE
8
BLACK
6
CONTINUOUS
10
145.909
20
-174.801
11
145.813
21
-174.324
0
LINE
8
BLACK
6
CONTINUOUS
10
145.813
20
-174.324
11
145.813
21
-173.943
0
LINE
8
BLACK
6
CONTINUOUS
10
145.813
20
-173.943
11
145.909
21
-173.467
0
LINE
8
BLACK
6
CONTINUOUS
10
145.909
20
-173.467
11
146.004
21
-173.181
0
LINE
8
BLACK
6
CONTINUOUS
10
146.004
20
-173.181
11
146.099
21
-172.991
0
LINE
8
BLACK
6
CONTINUOUS
10
146.099
20
-172.991
11
146.29
21
-172.705
0
LINE
8
BLACK
6
CONTINUOUS
10
146.29
20
-172.705
11
146.385
21
-172.61
0
LINE
8
BLACK
6
CONTINUOUS
10
147.147
20
-173.562
11
147.147
21
-174.896
0
LINE
8
BLACK
6
CONTINUOUS
10
147.147
20
-173.753
11
147.242
21
-173.658
0
LINE
8
BLACK
6
CONTINUOUS
10
147.242
20
-173.658
11
147.432
21
-173.562
0
LINE
8
BLACK
6
CONTINUOUS
10
147.432
20
-173.562
11
147.718
21
-173.562
0
LINE
8
BLACK
6
CONTINUOUS
10
147.718
20
-173.562
11
147.909
21
-173.658
0
LINE
8
BLACK
6
CONTINUOUS
10
147.909
20
-173.658
11
148.004
21
-173.848
0
LINE
8
BLACK
6
CONTINUOUS
10
148.004
20
-173.848
11
148.004
21
-174.896
0
LINE
8
BLACK
6
CONTINUOUS
10
149.242
20
-174.896
11
149.052
21
-174.801
0
LINE
8
BLACK
6
CONTINUOUS
10
149.052
20
-174.801
11
148.956
21
-174.705
0
LINE
8
BLACK
6
CONTINUOUS
10
148.956
20
-174.705
11
148.861
21
-174.515
0
LINE
8
BLACK
6
CONTINUOUS
10
148.861
20
-174.515
11
148.861
21
-173.943
0
LINE
8
BLACK
6
CONTINUOUS
10
148.861
20
-173.943
11
148.956
21
-173.753
0
LINE
8
BLACK
6
CONTINUOUS
10
148.956
20
-173.753
11
149.052
21
-173.658
0
LINE
8
BLACK
6
CONTINUOUS
10
149.052
20
-173.658
11
149.242
21
-173.562
0
LINE
8
BLACK
6
CONTINUOUS
10
149.242
20
-173.562
11
149.528
21
-173.562
0
LINE
8
BLACK
6
CONTINUOUS
10
149.528
20
-173.562
11
149.718
21
-173.658
0
LINE
8
BLACK
6
CONTINUOUS
10
149.718
20
-173.658
11
149.813
21
-173.753
0
LINE
8
BLACK
6
CONTINUOUS
10
149.813
20
-173.753
11
149.909
21
-173.943
0
LINE
8
BLACK
6
CONTINUOUS
10
149.909
20
-173.943
11
149.909
21
-174.515
0
LINE
8
BLACK
6
CONTINUOUS
10
149.909
20
-174.515
11
149.813
21
-174.705
0
LINE
8
BLACK
6
CONTINUOUS
10
149.813
20
-174.705
11
149.718
21
-174.801
0
LINE
8
BLACK
6
CONTINUOUS
10
149.718
20
-174.801
11
149.528
21
-174.896
0
LINE
8
BLACK
6
CONTINUOUS
10
149.528
20
-174.896
11
149.242
21
-174.896
0
LINE
8
BLACK
6
CONTINUOUS
10
150.48
20
-173.562
11
151.242
21
-173.562
0
LINE
8
BLACK
6
CONTINUOUS
10
150.766
20
-172.896
11
150.766
21
-174.61
0
LINE
8
BLACK
6
CONTINUOUS
10
150.766
20
-174.61
11
150.861
21
-174.801
0
LINE
8
BLACK
6
CONTINUOUS
10
150.861
20
-174.801
11
151.052
21
-174.896
0
LINE
8
BLACK
6
CONTINUOUS
10
151.052
20
-174.896
11
151.242
21
-174.896
0
LINE
8
BLACK
6
CONTINUOUS
10
153.109
20
-173.562
11
153.109
21
-175.562
0
LINE
8
BLACK
6
CONTINUOUS
10
153.109
20
-173.658
11
153.299
21
-173.562
0
LINE
8
BLACK
6
CONTINUOUS
10
153.299
20
-173.562
11
153.68
21
-173.562
0
LINE
8
BLACK
6
CONTINUOUS
10
153.68
20
-173.562
11
153.871
21
-173.658
0
LINE
8
BLACK
6
CONTINUOUS
10
153.871
20
-173.658
11
153.966
21
-173.753
0
LINE
8
BLACK
6
CONTINUOUS
10
153.966
20
-173.753
11
154.061
21
-173.943
0
LINE
8
BLACK
6
CONTINUOUS
10
154.061
20
-173.943
11
154.061
21
-174.515
0
LINE
8
BLACK
6
CONTINUOUS
10
154.061
20
-174.515
11
153.966
21
-174.705
0
LINE
8
BLACK
6
CONTINUOUS
10
153.966
20
-174.705
11
153.871
21
-174.801
0
LINE
8
BLACK
6
CONTINUOUS
10
153.871
20
-174.801
11
153.68
21
-174.896
0
LINE
8
BLACK
6
CONTINUOUS
10
153.68
20
-174.896
11
153.299
21
-174.896
0
LINE
8
BLACK
6
CONTINUOUS
10
153.299
20
-174.896
11
153.109
21
-174.801
0
LINE
8
BLACK
6
CONTINUOUS
10
155.204
20
-174.896
11
155.013
21
-174.801
0
LINE
8
BLACK
6
CONTINUOUS
10
155.013
20
-174.801
11
154.918
21
-174.61
0
LINE
8
BLACK
6
CONTINUOUS
10
154.918
20
-174.61
11
154.918
21
-172.896
0
LINE
8
BLACK
6
CONTINUOUS
10
156.823
20
-174.896
11
156.823
21
-173.848
0
LINE
8
BLACK
6
CONTINUOUS
10
156.823
20
-173.848
11
156.728
21
-173.658
0
LINE
8
BLACK
6
CONTINUOUS
10
156.728
20
-173.658
11
156.537
21
-173.562
0
LINE
8
BLACK
6
CONTINUOUS
10
156.537
20
-173.562
11
156.156
21
-173.562
0
LINE
8
BLACK
6
CONTINUOUS
10
156.156
20
-173.562
11
155.966
21
-173.658
0
LINE
8
BLACK
6
CONTINUOUS
10
156.823
20
-174.801
11
156.632
21
-174.896
0
LINE
8
BLACK
6
CONTINUOUS
10
156.632
20
-174.896
11
156.156
21
-174.896
0
LINE
8
BLACK
6
CONTINUOUS
10
156.156
20
-174.896
11
155.966
21
-174.801
0
LINE
8
BLACK
6
CONTINUOUS
10
155.966
20
-174.801
11
155.871
21
-174.61
0
LINE
8
BLACK
6
CONTINUOUS
10
155.871
20
-174.61
11
155.871
21
-174.42
0
LINE
8
BLACK
6
CONTINUOUS
10
155.871
20
-174.42
11
155.966
21
-174.229
0
LINE
8
BLACK
6
CONTINUOUS
10
155.966
20
-174.229
11
156.156
21
-174.134
0
LINE
8
BLACK
6
CONTINUOUS
10
156.156
20
-174.134
11
156.632
21
-174.134
0
LINE
8
BLACK
6
CONTINUOUS
10
156.632
20
-174.134
11
156.823
21
-174.039
0
LINE
8
BLACK
6
CONTINUOUS
10
157.49
20
-173.562
11
158.252
21
-173.562
0
LINE
8
BLACK
6
CONTINUOUS
10
157.775
20
-172.896
11
157.775
21
-174.61
0
LINE
8
BLACK
6
CONTINUOUS
10
157.775
20
-174.61
11
157.871
21
-174.801
0
LINE
8
BLACK
6
CONTINUOUS
10
157.871
20
-174.801
11
158.061
21
-174.896
0
LINE
8
BLACK
6
CONTINUOUS
10
158.061
20
-174.896
11
158.252
21
-174.896
0
LINE
8
BLACK
6
CONTINUOUS
10
159.68
20
-174.801
11
159.49
21
-174.896
0
LINE
8
BLACK
6
CONTINUOUS
10
159.49
20
-174.896
11
159.109
21
-174.896
0
LINE
8
BLACK
6
CONTINUOUS
10
159.109
20
-174.896
11
158.918
21
-174.801
0
LINE
8
BLACK
6
CONTINUOUS
10
158.918
20
-174.801
11
158.823
21
-174.61
0
LINE
8
BLACK
6
CONTINUOUS
10
158.823
20
-174.61
11
158.823
21
-173.848
0
LINE
8
BLACK
6
CONTINUOUS
10
158.823
20
-173.848
11
158.918
21
-173.658
0
LINE
8
BLACK
6
CONTINUOUS
10
158.918
20
-173.658
11
159.109
21
-173.562
0
LINE
8
BLACK
6
CONTINUOUS
10
159.109
20
-173.562
11
159.49
21
-173.562
0
LINE
8
BLACK
6
CONTINUOUS
10
159.49
20
-173.562
11
159.68
21
-173.658
0
LINE
8
BLACK
6
CONTINUOUS
10
159.68
20
-173.658
11
159.775
21
-173.848
0
LINE
8
BLACK
6
CONTINUOUS
10
159.775
20
-173.848
11
159.775
21
-174.039
0
LINE
8
BLACK
6
CONTINUOUS
10
159.775
20
-174.039
11
158.823
21
-174.229
0
LINE
8
BLACK
6
CONTINUOUS
10
161.49
20
-174.896
11
161.49
21
-172.896
0
LINE
8
BLACK
6
CONTINUOUS
10
161.49
20
-174.801
11
161.299
21
-174.896
0
LINE
8
BLACK
6
CONTINUOUS
10
161.299
20
-174.896
11
160.918
21
-174.896
0
LINE
8
BLACK
6
CONTINUOUS
10
160.918
20
-174.896
11
160.728
21
-174.801
0
LINE
8
BLACK
6
CONTINUOUS
10
160.728
20
-174.801
11
160.632
21
-174.705
0
LINE
8
BLACK
6
CONTINUOUS
10
160.632
20
-174.705
11
160.537
21
-174.515
0
LINE
8
BLACK
6
CONTINUOUS
10
160.537
20
-174.515
11
160.537
21
-173.943
0
LINE
8
BLACK
6
CONTINUOUS
10
160.537
20
-173.943
11
160.632
21
-173.753
0
LINE
8
BLACK
6
CONTINUOUS
10
160.632
20
-173.753
11
160.728
21
-173.658
0
LINE
8
BLACK
6
CONTINUOUS
10
160.728
20
-173.658
11
160.918
21
-173.562
0
LINE
8
BLACK
6
CONTINUOUS
10
160.918
20
-173.562
11
161.299
21
-173.562
0
LINE
8
BLACK
6
CONTINUOUS
10
161.299
20
-173.562
11
161.49
21
-173.658
0
LINE
8
BLACK
6
CONTINUOUS
10
162.252
20
-175.658
11
162.347
21
-175.562
0
LINE
8
BLACK
6
CONTINUOUS
10
162.347
20
-175.562
11
162.537
21
-175.277
0
LINE
8
BLACK
6
CONTINUOUS
10
162.537
20
-175.277
11
162.632
21
-175.086
0
LINE
8
BLACK
6
CONTINUOUS
10
162.632
20
-175.086
11
162.728
21
-174.801
0
LINE
8
BLACK
6
CONTINUOUS
10
162.728
20
-174.801
11
162.823
21
-174.324
0
LINE
8
BLACK
6
CONTINUOUS
10
162.823
20
-174.324
11
162.823
21
-173.943
0
LINE
8
BLACK
6
CONTINUOUS
10
162.823
20
-173.943
11
162.728
21
-173.467
0
LINE
8
BLACK
6
CONTINUOUS
10
162.728
20
-173.467
11
162.632
21
-173.181
0
LINE
8
BLACK
6
CONTINUOUS
10
162.632
20
-173.181
11
162.537
21
-172.991
0
LINE
8
BLACK
6
CONTINUOUS
10
162.537
20
-172.991
11
162.347
21
-172.705
0
LINE
8
BLACK
6
CONTINUOUS
10
162.347
20
-172.705
11
162.252
21
-172.61
  0
ENDSEC
  0
EOF
