G04 #@! TF.GenerationSoftware,KiCad,Pcbnew,(6.99.0-3780-g6ddc5c1a6e)*
G04 #@! TF.CreationDate,2022-10-07T14:26:14+02:00*
G04 #@! TF.ProjectId,Unifying,556e6966-7969-46e6-972e-6b696361645f,rev?*
G04 #@! TF.SameCoordinates,Original*
G04 #@! TF.FileFunction,Paste,Top*
G04 #@! TF.FilePolarity,Positive*
%FSLAX46Y46*%
G04 Gerber Fmt 4.6, Leading zero omitted, Abs format (unit mm)*
G04 Created by KiCad (PCBNEW (6.99.0-3780-g6ddc5c1a6e)) date 2022-10-07 14:26:14*
%MOMM*%
%LPD*%
G01*
G04 APERTURE LIST*
G04 Aperture macros list*
%AMRoundRect*
0 Rectangle with rounded corners*
0 $1 Rounding radius*
0 $2 $3 $4 $5 $6 $7 $8 $9 X,Y pos of 4 corners*
0 Add a 4 corners polygon primitive as box body*
4,1,4,$2,$3,$4,$5,$6,$7,$8,$9,$2,$3,0*
0 Add four circle primitives for the rounded corners*
1,1,$1+$1,$2,$3*
1,1,$1+$1,$4,$5*
1,1,$1+$1,$6,$7*
1,1,$1+$1,$8,$9*
0 Add four rect primitives between the rounded corners*
20,1,$1+$1,$2,$3,$4,$5,0*
20,1,$1+$1,$4,$5,$6,$7,0*
20,1,$1+$1,$6,$7,$8,$9,0*
20,1,$1+$1,$8,$9,$2,$3,0*%
G04 Aperture macros list end*
%ADD10C,0.100000*%
%ADD11RoundRect,0.140000X0.140000X0.170000X-0.140000X0.170000X-0.140000X-0.170000X0.140000X-0.170000X0*%
%ADD12RoundRect,0.135000X0.185000X-0.135000X0.185000X0.135000X-0.185000X0.135000X-0.185000X-0.135000X0*%
%ADD13RoundRect,0.135000X0.135000X0.185000X-0.135000X0.185000X-0.135000X-0.185000X0.135000X-0.185000X0*%
%ADD14R,0.300000X1.300000*%
%ADD15R,1.800000X2.200000*%
%ADD16RoundRect,0.135000X-0.185000X0.135000X-0.185000X-0.135000X0.185000X-0.135000X0.185000X0.135000X0*%
%ADD17R,0.400000X0.650000*%
%ADD18RoundRect,0.250000X0.475000X-0.250000X0.475000X0.250000X-0.475000X0.250000X-0.475000X-0.250000X0*%
%ADD19RoundRect,0.150000X-0.587500X-0.150000X0.587500X-0.150000X0.587500X0.150000X-0.587500X0.150000X0*%
%ADD20RoundRect,0.250000X-0.475000X0.250000X-0.475000X-0.250000X0.475000X-0.250000X0.475000X0.250000X0*%
%ADD21RoundRect,0.135000X-0.135000X-0.185000X0.135000X-0.185000X0.135000X0.185000X-0.135000X0.185000X0*%
%ADD22R,0.600000X1.000000*%
%ADD23R,0.700000X0.420000*%
%ADD24RoundRect,0.250000X-0.450000X0.350000X-0.450000X-0.350000X0.450000X-0.350000X0.450000X0.350000X0*%
%ADD25R,1.800000X1.500000*%
%ADD26R,3.500000X2.950000*%
%ADD27RoundRect,0.250000X-1.025000X0.787500X-1.025000X-0.787500X1.025000X-0.787500X1.025000X0.787500X0*%
%ADD28RoundRect,0.140000X-0.170000X0.140000X-0.170000X-0.140000X0.170000X-0.140000X0.170000X0.140000X0*%
%ADD29R,0.900000X0.800000*%
%ADD30RoundRect,0.140000X0.170000X-0.140000X0.170000X0.140000X-0.170000X0.140000X-0.170000X-0.140000X0*%
%ADD31RoundRect,0.250000X0.450000X-0.350000X0.450000X0.350000X-0.450000X0.350000X-0.450000X-0.350000X0*%
%ADD32R,1.400000X0.300000*%
%ADD33RoundRect,0.079000X-0.079000X0.343500X-0.079000X-0.343500X0.079000X-0.343500X0.079000X0.343500X0*%
%ADD34RoundRect,0.140000X-0.140000X-0.170000X0.140000X-0.170000X0.140000X0.170000X-0.140000X0.170000X0*%
%ADD35RoundRect,0.150000X-0.512500X-0.150000X0.512500X-0.150000X0.512500X0.150000X-0.512500X0.150000X0*%
%ADD36RoundRect,0.250000X-0.315000X-0.460000X0.315000X-0.460000X0.315000X0.460000X-0.315000X0.460000X0*%
%ADD37RoundRect,0.150000X-0.737500X-0.150000X0.737500X-0.150000X0.737500X0.150000X-0.737500X0.150000X0*%
%ADD38RoundRect,0.247500X-0.247500X-0.247500X0.247500X-0.247500X0.247500X0.247500X-0.247500X0.247500X0*%
%ADD39RoundRect,0.062500X-0.350000X-0.062500X0.350000X-0.062500X0.350000X0.062500X-0.350000X0.062500X0*%
%ADD40RoundRect,0.062500X-0.062500X-0.350000X0.062500X-0.350000X0.062500X0.350000X-0.062500X0.350000X0*%
%ADD41RoundRect,0.218750X0.256250X-0.218750X0.256250X0.218750X-0.256250X0.218750X-0.256250X-0.218750X0*%
%ADD42RoundRect,0.218750X-0.381250X0.218750X-0.381250X-0.218750X0.381250X-0.218750X0.381250X0.218750X0*%
%ADD43RoundRect,0.218750X0.381250X-0.218750X0.381250X0.218750X-0.381250X0.218750X-0.381250X-0.218750X0*%
%ADD44R,2.750000X1.200000*%
%ADD45R,1.550000X0.300000*%
%ADD46RoundRect,0.249999X-1.500001X1.025001X-1.500001X-1.025001X1.500001X-1.025001X1.500001X1.025001X0*%
%ADD47RoundRect,0.150000X0.587500X0.150000X-0.587500X0.150000X-0.587500X-0.150000X0.587500X-0.150000X0*%
G04 APERTURE END LIST*
G36*
X99110000Y-96920000D02*
G01*
X99410000Y-97120000D01*
X99410000Y-97420000D01*
X98910000Y-97120000D01*
X98610000Y-96620000D01*
X98910000Y-96620000D01*
X99110000Y-96920000D01*
G37*
D10*
X99110000Y-96920000D02*
X99410000Y-97120000D01*
X99410000Y-97420000D01*
X98910000Y-97120000D01*
X98610000Y-96620000D01*
X98910000Y-96620000D01*
X99110000Y-96920000D01*
G36*
X100310000Y-97120000D02*
G01*
X99810000Y-97420000D01*
X99810000Y-97120000D01*
X100110000Y-96920000D01*
X100310000Y-96620000D01*
X100610000Y-96620000D01*
X100310000Y-97120000D01*
G37*
X100310000Y-97120000D02*
X99810000Y-97420000D01*
X99810000Y-97120000D01*
X100110000Y-96920000D01*
X100310000Y-96620000D01*
X100610000Y-96620000D01*
X100310000Y-97120000D01*
G36*
X104010000Y-96320000D02*
G01*
X104310000Y-96520000D01*
X104310000Y-96820000D01*
X103810000Y-96520000D01*
X103510000Y-96020000D01*
X103810000Y-96020000D01*
X104010000Y-96320000D01*
G37*
X104010000Y-96320000D02*
X104310000Y-96520000D01*
X104310000Y-96820000D01*
X103810000Y-96520000D01*
X103510000Y-96020000D01*
X103810000Y-96020000D01*
X104010000Y-96320000D01*
G36*
X105210000Y-96520000D02*
G01*
X104710000Y-96820000D01*
X104710000Y-96520000D01*
X105010000Y-96320000D01*
X105210000Y-96020000D01*
X105510000Y-96020000D01*
X105210000Y-96520000D01*
G37*
X105210000Y-96520000D02*
X104710000Y-96820000D01*
X104710000Y-96520000D01*
X105010000Y-96320000D01*
X105210000Y-96020000D01*
X105510000Y-96020000D01*
X105210000Y-96520000D01*
G36*
X99410000Y-95720000D02*
G01*
X99110000Y-95920000D01*
X98910000Y-96220000D01*
X98610000Y-96220000D01*
X98910000Y-95720000D01*
X99410000Y-95420000D01*
X99410000Y-95720000D01*
G37*
X99410000Y-95720000D02*
X99110000Y-95920000D01*
X98910000Y-96220000D01*
X98610000Y-96220000D01*
X98910000Y-95720000D01*
X99410000Y-95420000D01*
X99410000Y-95720000D01*
G36*
X100310000Y-95720000D02*
G01*
X100610000Y-96220000D01*
X100310000Y-96220000D01*
X100110000Y-95920000D01*
X99810000Y-95720000D01*
X99810000Y-95420000D01*
X100310000Y-95720000D01*
G37*
X100310000Y-95720000D02*
X100610000Y-96220000D01*
X100310000Y-96220000D01*
X100110000Y-95920000D01*
X99810000Y-95720000D01*
X99810000Y-95420000D01*
X100310000Y-95720000D01*
G36*
X104310000Y-95120000D02*
G01*
X104010000Y-95320000D01*
X103810000Y-95620000D01*
X103510000Y-95620000D01*
X103810000Y-95120000D01*
X104310000Y-94820000D01*
X104310000Y-95120000D01*
G37*
X104310000Y-95120000D02*
X104010000Y-95320000D01*
X103810000Y-95620000D01*
X103510000Y-95620000D01*
X103810000Y-95120000D01*
X104310000Y-94820000D01*
X104310000Y-95120000D01*
G36*
X105210000Y-95120000D02*
G01*
X105510000Y-95620000D01*
X105210000Y-95620000D01*
X105010000Y-95320000D01*
X104710000Y-95120000D01*
X104710000Y-94820000D01*
X105210000Y-95120000D01*
G37*
X105210000Y-95120000D02*
X105510000Y-95620000D01*
X105210000Y-95620000D01*
X105010000Y-95320000D01*
X104710000Y-95120000D01*
X104710000Y-94820000D01*
X105210000Y-95120000D01*
G36*
X104010000Y-81820000D02*
G01*
X104310000Y-82020000D01*
X104310000Y-82320000D01*
X103810000Y-82020000D01*
X103510000Y-81520000D01*
X103810000Y-81520000D01*
X104010000Y-81820000D01*
G37*
X104010000Y-81820000D02*
X104310000Y-82020000D01*
X104310000Y-82320000D01*
X103810000Y-82020000D01*
X103510000Y-81520000D01*
X103810000Y-81520000D01*
X104010000Y-81820000D01*
G36*
X105210000Y-82020000D02*
G01*
X104710000Y-82320000D01*
X104710000Y-82020000D01*
X105010000Y-81820000D01*
X105210000Y-81520000D01*
X105510000Y-81520000D01*
X105210000Y-82020000D01*
G37*
X105210000Y-82020000D02*
X104710000Y-82320000D01*
X104710000Y-82020000D01*
X105010000Y-81820000D01*
X105210000Y-81520000D01*
X105510000Y-81520000D01*
X105210000Y-82020000D01*
G36*
X99110000Y-81220000D02*
G01*
X99410000Y-81420000D01*
X99410000Y-81720000D01*
X98910000Y-81420000D01*
X98610000Y-80920000D01*
X98910000Y-80920000D01*
X99110000Y-81220000D01*
G37*
X99110000Y-81220000D02*
X99410000Y-81420000D01*
X99410000Y-81720000D01*
X98910000Y-81420000D01*
X98610000Y-80920000D01*
X98910000Y-80920000D01*
X99110000Y-81220000D01*
G36*
X100310000Y-81420000D02*
G01*
X99810000Y-81720000D01*
X99810000Y-81420000D01*
X100110000Y-81220000D01*
X100310000Y-80920000D01*
X100610000Y-80920000D01*
X100310000Y-81420000D01*
G37*
X100310000Y-81420000D02*
X99810000Y-81720000D01*
X99810000Y-81420000D01*
X100110000Y-81220000D01*
X100310000Y-80920000D01*
X100610000Y-80920000D01*
X100310000Y-81420000D01*
G36*
X104310000Y-80620000D02*
G01*
X104010000Y-80820000D01*
X103810000Y-81120000D01*
X103510000Y-81120000D01*
X103810000Y-80620000D01*
X104310000Y-80320000D01*
X104310000Y-80620000D01*
G37*
X104310000Y-80620000D02*
X104010000Y-80820000D01*
X103810000Y-81120000D01*
X103510000Y-81120000D01*
X103810000Y-80620000D01*
X104310000Y-80320000D01*
X104310000Y-80620000D01*
G36*
X105210000Y-80620000D02*
G01*
X105510000Y-81120000D01*
X105210000Y-81120000D01*
X105010000Y-80820000D01*
X104710000Y-80620000D01*
X104710000Y-80320000D01*
X105210000Y-80620000D01*
G37*
X105210000Y-80620000D02*
X105510000Y-81120000D01*
X105210000Y-81120000D01*
X105010000Y-80820000D01*
X104710000Y-80620000D01*
X104710000Y-80320000D01*
X105210000Y-80620000D01*
G36*
X99410000Y-80020000D02*
G01*
X99110000Y-80220000D01*
X98910000Y-80520000D01*
X98610000Y-80520000D01*
X98910000Y-80020000D01*
X99410000Y-79720000D01*
X99410000Y-80020000D01*
G37*
X99410000Y-80020000D02*
X99110000Y-80220000D01*
X98910000Y-80520000D01*
X98610000Y-80520000D01*
X98910000Y-80020000D01*
X99410000Y-79720000D01*
X99410000Y-80020000D01*
G36*
X100310000Y-80020000D02*
G01*
X100610000Y-80520000D01*
X100310000Y-80520000D01*
X100110000Y-80220000D01*
X99810000Y-80020000D01*
X99810000Y-79720000D01*
X100310000Y-80020000D01*
G37*
X100310000Y-80020000D02*
X100610000Y-80520000D01*
X100310000Y-80520000D01*
X100110000Y-80220000D01*
X99810000Y-80020000D01*
X99810000Y-79720000D01*
X100310000Y-80020000D01*
G36*
X120290000Y-76420000D02*
G01*
X119990000Y-76620000D01*
X119790000Y-76920000D01*
X119490000Y-76920000D01*
X119790000Y-76420000D01*
X120290000Y-76120000D01*
X120290000Y-76420000D01*
G37*
X120290000Y-76420000D02*
X119990000Y-76620000D01*
X119790000Y-76920000D01*
X119490000Y-76920000D01*
X119790000Y-76420000D01*
X120290000Y-76120000D01*
X120290000Y-76420000D01*
G36*
X119990000Y-77620000D02*
G01*
X120290000Y-77820000D01*
X120290000Y-78120000D01*
X119790000Y-77820000D01*
X119490000Y-77320000D01*
X119790000Y-77320000D01*
X119990000Y-77620000D01*
G37*
X119990000Y-77620000D02*
X120290000Y-77820000D01*
X120290000Y-78120000D01*
X119790000Y-77820000D01*
X119490000Y-77320000D01*
X119790000Y-77320000D01*
X119990000Y-77620000D01*
G36*
X120890000Y-81320000D02*
G01*
X120590000Y-81520000D01*
X120390000Y-81820000D01*
X120090000Y-81820000D01*
X120390000Y-81320000D01*
X120890000Y-81020000D01*
X120890000Y-81320000D01*
G37*
X120890000Y-81320000D02*
X120590000Y-81520000D01*
X120390000Y-81820000D01*
X120090000Y-81820000D01*
X120390000Y-81320000D01*
X120890000Y-81020000D01*
X120890000Y-81320000D01*
G36*
X120590000Y-82520000D02*
G01*
X120890000Y-82720000D01*
X120890000Y-83020000D01*
X120390000Y-82720000D01*
X120090000Y-82220000D01*
X120390000Y-82220000D01*
X120590000Y-82520000D01*
G37*
X120590000Y-82520000D02*
X120890000Y-82720000D01*
X120890000Y-83020000D01*
X120390000Y-82720000D01*
X120090000Y-82220000D01*
X120390000Y-82220000D01*
X120590000Y-82520000D01*
G36*
X121190000Y-76420000D02*
G01*
X121490000Y-76920000D01*
X121190000Y-76920000D01*
X120990000Y-76620000D01*
X120690000Y-76420000D01*
X120690000Y-76120000D01*
X121190000Y-76420000D01*
G37*
X121190000Y-76420000D02*
X121490000Y-76920000D01*
X121190000Y-76920000D01*
X120990000Y-76620000D01*
X120690000Y-76420000D01*
X120690000Y-76120000D01*
X121190000Y-76420000D01*
G36*
X121190000Y-77820000D02*
G01*
X120690000Y-78120000D01*
X120690000Y-77820000D01*
X120990000Y-77620000D01*
X121190000Y-77320000D01*
X121490000Y-77320000D01*
X121190000Y-77820000D01*
G37*
X121190000Y-77820000D02*
X120690000Y-78120000D01*
X120690000Y-77820000D01*
X120990000Y-77620000D01*
X121190000Y-77320000D01*
X121490000Y-77320000D01*
X121190000Y-77820000D01*
G36*
X121790000Y-81320000D02*
G01*
X122090000Y-81820000D01*
X121790000Y-81820000D01*
X121590000Y-81520000D01*
X121290000Y-81320000D01*
X121290000Y-81020000D01*
X121790000Y-81320000D01*
G37*
X121790000Y-81320000D02*
X122090000Y-81820000D01*
X121790000Y-81820000D01*
X121590000Y-81520000D01*
X121290000Y-81320000D01*
X121290000Y-81020000D01*
X121790000Y-81320000D01*
G36*
X121790000Y-82720000D02*
G01*
X121290000Y-83020000D01*
X121290000Y-82720000D01*
X121590000Y-82520000D01*
X121790000Y-82220000D01*
X122090000Y-82220000D01*
X121790000Y-82720000D01*
G37*
X121790000Y-82720000D02*
X121290000Y-83020000D01*
X121290000Y-82720000D01*
X121590000Y-82520000D01*
X121790000Y-82220000D01*
X122090000Y-82220000D01*
X121790000Y-82720000D01*
G36*
X135390000Y-81320000D02*
G01*
X135090000Y-81520000D01*
X134890000Y-81820000D01*
X134590000Y-81820000D01*
X134890000Y-81320000D01*
X135390000Y-81020000D01*
X135390000Y-81320000D01*
G37*
X135390000Y-81320000D02*
X135090000Y-81520000D01*
X134890000Y-81820000D01*
X134590000Y-81820000D01*
X134890000Y-81320000D01*
X135390000Y-81020000D01*
X135390000Y-81320000D01*
G36*
X135090000Y-82520000D02*
G01*
X135390000Y-82720000D01*
X135390000Y-83020000D01*
X134890000Y-82720000D01*
X134590000Y-82220000D01*
X134890000Y-82220000D01*
X135090000Y-82520000D01*
G37*
X135090000Y-82520000D02*
X135390000Y-82720000D01*
X135390000Y-83020000D01*
X134890000Y-82720000D01*
X134590000Y-82220000D01*
X134890000Y-82220000D01*
X135090000Y-82520000D01*
G36*
X135990000Y-76420000D02*
G01*
X135690000Y-76620000D01*
X135490000Y-76920000D01*
X135190000Y-76920000D01*
X135490000Y-76420000D01*
X135990000Y-76120000D01*
X135990000Y-76420000D01*
G37*
X135990000Y-76420000D02*
X135690000Y-76620000D01*
X135490000Y-76920000D01*
X135190000Y-76920000D01*
X135490000Y-76420000D01*
X135990000Y-76120000D01*
X135990000Y-76420000D01*
G36*
X135690000Y-77620000D02*
G01*
X135990000Y-77820000D01*
X135990000Y-78120000D01*
X135490000Y-77820000D01*
X135190000Y-77320000D01*
X135490000Y-77320000D01*
X135690000Y-77620000D01*
G37*
X135690000Y-77620000D02*
X135990000Y-77820000D01*
X135990000Y-78120000D01*
X135490000Y-77820000D01*
X135190000Y-77320000D01*
X135490000Y-77320000D01*
X135690000Y-77620000D01*
G36*
X136290000Y-81320000D02*
G01*
X136590000Y-81820000D01*
X136290000Y-81820000D01*
X136090000Y-81520000D01*
X135790000Y-81320000D01*
X135790000Y-81020000D01*
X136290000Y-81320000D01*
G37*
X136290000Y-81320000D02*
X136590000Y-81820000D01*
X136290000Y-81820000D01*
X136090000Y-81520000D01*
X135790000Y-81320000D01*
X135790000Y-81020000D01*
X136290000Y-81320000D01*
G36*
X136290000Y-82720000D02*
G01*
X135790000Y-83020000D01*
X135790000Y-82720000D01*
X136090000Y-82520000D01*
X136290000Y-82220000D01*
X136590000Y-82220000D01*
X136290000Y-82720000D01*
G37*
X136290000Y-82720000D02*
X135790000Y-83020000D01*
X135790000Y-82720000D01*
X136090000Y-82520000D01*
X136290000Y-82220000D01*
X136590000Y-82220000D01*
X136290000Y-82720000D01*
G36*
X136890000Y-76420000D02*
G01*
X137190000Y-76920000D01*
X136890000Y-76920000D01*
X136690000Y-76620000D01*
X136390000Y-76420000D01*
X136390000Y-76120000D01*
X136890000Y-76420000D01*
G37*
X136890000Y-76420000D02*
X137190000Y-76920000D01*
X136890000Y-76920000D01*
X136690000Y-76620000D01*
X136390000Y-76420000D01*
X136390000Y-76120000D01*
X136890000Y-76420000D01*
G36*
X136890000Y-77820000D02*
G01*
X136390000Y-78120000D01*
X136390000Y-77820000D01*
X136690000Y-77620000D01*
X136890000Y-77320000D01*
X137190000Y-77320000D01*
X136890000Y-77820000D01*
G37*
X136890000Y-77820000D02*
X136390000Y-78120000D01*
X136390000Y-77820000D01*
X136690000Y-77620000D01*
X136890000Y-77320000D01*
X137190000Y-77320000D01*
X136890000Y-77820000D01*
D11*
X193910000Y-84550000D03*
X192950000Y-84550000D03*
D12*
X154650000Y-93000000D03*
X154650000Y-91980000D03*
X153510000Y-93010000D03*
X153510000Y-91990000D03*
D13*
X198910000Y-148570000D03*
X199930000Y-148570000D03*
D14*
X154713999Y-88895999D03*
X154213999Y-88895999D03*
X153713999Y-88895999D03*
X153213999Y-88895999D03*
X152713999Y-88895999D03*
X152213999Y-88895999D03*
X151713999Y-88895999D03*
X151213999Y-88895999D03*
X150713999Y-88895999D03*
X150213999Y-88895999D03*
X149713999Y-88895999D03*
X149213999Y-88895999D03*
X148713999Y-88895999D03*
X148213999Y-88895999D03*
X147713999Y-88895999D03*
X147213999Y-88895999D03*
X146713999Y-88895999D03*
X146213999Y-88895999D03*
X145713999Y-88895999D03*
X145213999Y-88895999D03*
X144713999Y-88895999D03*
X144213999Y-88895999D03*
D15*
X156613999Y-85645999D03*
X142313999Y-85645999D03*
D16*
X187564000Y-128004000D03*
X187564000Y-129024000D03*
X195710000Y-148760000D03*
X195710000Y-149780000D03*
X165085000Y-130925000D03*
X165085000Y-131945000D03*
X138796000Y-129274000D03*
X138796000Y-130294000D03*
D12*
X187564000Y-132072000D03*
X187564000Y-131052000D03*
D17*
X177164999Y-121594999D03*
X176514999Y-121594999D03*
X175864999Y-121594999D03*
X175864999Y-123494999D03*
X177164999Y-123494999D03*
D18*
X161275000Y-123495000D03*
X161275000Y-121595000D03*
D11*
X166200000Y-128260000D03*
X165240000Y-128260000D03*
D12*
X123340000Y-95550000D03*
X123340000Y-94530000D03*
D19*
X178498500Y-125786000D03*
X178498500Y-127686000D03*
X180373500Y-126736000D03*
D18*
X129525000Y-124130000D03*
X129525000Y-122230000D03*
D13*
X136850000Y-132490000D03*
X135830000Y-132490000D03*
D20*
X147940000Y-129850000D03*
X147940000Y-131750000D03*
D21*
X183498000Y-119878000D03*
X184518000Y-119878000D03*
D13*
X180200000Y-110480000D03*
X179180000Y-110480000D03*
D14*
X174017999Y-88895999D03*
X173517999Y-88895999D03*
X173017999Y-88895999D03*
X172517999Y-88895999D03*
X172017999Y-88895999D03*
X171517999Y-88895999D03*
X171017999Y-88895999D03*
X170517999Y-88895999D03*
X170017999Y-88895999D03*
X169517999Y-88895999D03*
X169017999Y-88895999D03*
X168517999Y-88895999D03*
X168017999Y-88895999D03*
X167517999Y-88895999D03*
X167017999Y-88895999D03*
X166517999Y-88895999D03*
X166017999Y-88895999D03*
X165517999Y-88895999D03*
X165017999Y-88895999D03*
X164517999Y-88895999D03*
X164017999Y-88895999D03*
X163517999Y-88895999D03*
D15*
X175917999Y-85645999D03*
X161617999Y-85645999D03*
D21*
X175370000Y-128260000D03*
X176390000Y-128260000D03*
D16*
X126096000Y-124194000D03*
X126096000Y-125214000D03*
D18*
X131572000Y-124130000D03*
X131572000Y-122230000D03*
D22*
X126075999Y-121712999D03*
X126075999Y-120582999D03*
X125365999Y-121712999D03*
X125365999Y-120582999D03*
D23*
X124595999Y-122122999D03*
X124595999Y-121472999D03*
X124595999Y-120822999D03*
X124595999Y-120172999D03*
X127595999Y-122122999D03*
X127595999Y-121472999D03*
X127595999Y-120822999D03*
X127595999Y-120172999D03*
D20*
X158735000Y-129850000D03*
X158735000Y-131750000D03*
D18*
X158735000Y-123495000D03*
X158735000Y-121595000D03*
D24*
X170165000Y-115195000D03*
X170165000Y-117195000D03*
D25*
X166524999Y-122759999D03*
X168724999Y-122759999D03*
X168724999Y-121059999D03*
X166524999Y-121059999D03*
D18*
X139340000Y-124760000D03*
X139340000Y-122860000D03*
D13*
X135750000Y-125720000D03*
X134730000Y-125720000D03*
D26*
X143049999Y-127374999D03*
X143049999Y-132824999D03*
D27*
X154544000Y-126163500D03*
X154544000Y-132388500D03*
D28*
X166355000Y-130955000D03*
X166355000Y-131915000D03*
D29*
X127635999Y-128701999D03*
X129635999Y-127751999D03*
X127635999Y-126801999D03*
D12*
X166510000Y-113920000D03*
X166510000Y-112900000D03*
D20*
X189610000Y-147520000D03*
X189610000Y-149420000D03*
D30*
X179690000Y-124422000D03*
X179690000Y-123462000D03*
D18*
X150480000Y-128194000D03*
X150480000Y-126294000D03*
D28*
X138796000Y-131336000D03*
X138796000Y-132296000D03*
D21*
X165210000Y-125085000D03*
X166230000Y-125085000D03*
D30*
X164450000Y-122390000D03*
X164450000Y-121430000D03*
D28*
X124572000Y-124224000D03*
X124572000Y-125184000D03*
D31*
X172705000Y-117195000D03*
X172705000Y-115195000D03*
D20*
X182738000Y-123754000D03*
X182738000Y-125654000D03*
D13*
X180200000Y-98415000D03*
X179180000Y-98415000D03*
D18*
X160640000Y-127305000D03*
X160640000Y-125405000D03*
X141590000Y-124765000D03*
X141590000Y-122865000D03*
D32*
X161299999Y-119299999D03*
X161299999Y-118799999D03*
X161299999Y-118299999D03*
X161299999Y-117799999D03*
X161299999Y-117299999D03*
X156899999Y-117299999D03*
X156899999Y-117799999D03*
X156899999Y-118299999D03*
X156899999Y-118799999D03*
X156899999Y-119299999D03*
D33*
X181976000Y-120894000D03*
X181468000Y-120894000D03*
X180925000Y-120894000D03*
X180925000Y-122418000D03*
X181468000Y-122418000D03*
X181976000Y-122418000D03*
D11*
X128100000Y-124196000D03*
X127140000Y-124196000D03*
X184488000Y-121148000D03*
X183528000Y-121148000D03*
D18*
X144130000Y-124765000D03*
X144130000Y-122865000D03*
D28*
X170800000Y-121430000D03*
X170800000Y-122390000D03*
D21*
X158240000Y-115316000D03*
X159260000Y-115316000D03*
D30*
X172070000Y-123660000D03*
X172070000Y-122700000D03*
D18*
X163180000Y-127305000D03*
X163180000Y-125405000D03*
D13*
X134734000Y-132832000D03*
X133714000Y-132832000D03*
D18*
X177850000Y-136150000D03*
X177850000Y-134250000D03*
D13*
X180200000Y-93970000D03*
X179180000Y-93970000D03*
D34*
X110250000Y-94500000D03*
X111210000Y-94500000D03*
D21*
X198910000Y-149630000D03*
X199930000Y-149630000D03*
D35*
X191862500Y-147570000D03*
X191862500Y-148520000D03*
X191862500Y-149470000D03*
X194137500Y-149470000D03*
X194137500Y-147570000D03*
D11*
X129624000Y-130292000D03*
X128664000Y-130292000D03*
D21*
X199910000Y-147480000D03*
X198890000Y-147480000D03*
D36*
X133544000Y-128426000D03*
X133544000Y-130126000D03*
X134904000Y-128426000D03*
X134904000Y-130126000D03*
D37*
X131661500Y-127371000D03*
X131661500Y-128641000D03*
X131661500Y-129911000D03*
X131661500Y-131181000D03*
X136786500Y-131181000D03*
X136786500Y-129911000D03*
X136786500Y-128641000D03*
X136786500Y-127371000D03*
D38*
X169570000Y-127030000D03*
X169570000Y-128260000D03*
X169570000Y-129490000D03*
X170800000Y-127030000D03*
X170800000Y-128260000D03*
X170800000Y-129490000D03*
X172030000Y-127030000D03*
X172030000Y-128260000D03*
X172030000Y-129490000D03*
D39*
X167862500Y-126260000D03*
X167862500Y-126760000D03*
X167862500Y-127260000D03*
X167862500Y-127760000D03*
X167862500Y-128260000D03*
X167862500Y-128760000D03*
X167862500Y-129260000D03*
X167862500Y-129760000D03*
X167862500Y-130260000D03*
D40*
X168800000Y-131197500D03*
X169300000Y-131197500D03*
X169800000Y-131197500D03*
X170300000Y-131197500D03*
X170800000Y-131197500D03*
X171300000Y-131197500D03*
X171800000Y-131197500D03*
X172300000Y-131197500D03*
X172800000Y-131197500D03*
D39*
X173737500Y-130260000D03*
X173737500Y-129760000D03*
X173737500Y-129260000D03*
X173737500Y-128760000D03*
X173737500Y-128260000D03*
X173737500Y-127760000D03*
X173737500Y-127260000D03*
X173737500Y-126760000D03*
X173737500Y-126260000D03*
D40*
X172800000Y-125322500D03*
X172300000Y-125322500D03*
X171800000Y-125322500D03*
X171300000Y-125322500D03*
X170800000Y-125322500D03*
X170300000Y-125322500D03*
X169800000Y-125322500D03*
X169300000Y-125322500D03*
X168800000Y-125322500D03*
D18*
X153655000Y-123495000D03*
X153655000Y-121595000D03*
D12*
X162814000Y-118366000D03*
X162814000Y-117346000D03*
D11*
X133180000Y-125720000D03*
X132220000Y-125720000D03*
D41*
X163540000Y-114717500D03*
X163540000Y-113142500D03*
D12*
X162120000Y-112870000D03*
X162120000Y-113890000D03*
D16*
X180960000Y-123432000D03*
X180960000Y-124452000D03*
D42*
X177750000Y-129887500D03*
X177750000Y-132012500D03*
D28*
X179690000Y-121430000D03*
X179690000Y-122390000D03*
D17*
X163559999Y-109769999D03*
X162909999Y-109769999D03*
X162259999Y-109769999D03*
X162259999Y-111669999D03*
X163559999Y-111669999D03*
D21*
X183498000Y-122418000D03*
X184518000Y-122418000D03*
D20*
X185024000Y-123754000D03*
X185024000Y-125654000D03*
D12*
X173848000Y-123690000D03*
X173848000Y-122670000D03*
D18*
X146670000Y-124765000D03*
X146670000Y-122865000D03*
X156195000Y-123495000D03*
X156195000Y-121595000D03*
X147940000Y-128194000D03*
X147940000Y-126294000D03*
D43*
X175950000Y-133562500D03*
X175950000Y-131437500D03*
D44*
X176569999Y-92509999D03*
X176569999Y-113209999D03*
D45*
X177344999Y-93609999D03*
X169794999Y-93859999D03*
X177344999Y-94109999D03*
X169794999Y-94359999D03*
X177344999Y-94609999D03*
X169794999Y-94859999D03*
X177344999Y-95109999D03*
X169794999Y-95359999D03*
X177344999Y-95609999D03*
X169794999Y-95859999D03*
X177344999Y-96109999D03*
X169794999Y-96359999D03*
X177344999Y-96609999D03*
X169794999Y-96859999D03*
X177344999Y-97109999D03*
X169794999Y-97359999D03*
X177344999Y-97609999D03*
X169794999Y-97859999D03*
X177344999Y-98109999D03*
X169794999Y-98359999D03*
X177344999Y-98609999D03*
X169794999Y-98859999D03*
X177344999Y-99109999D03*
X169794999Y-99359999D03*
X177344999Y-99609999D03*
X169794999Y-99859999D03*
X177344999Y-100109999D03*
X169794999Y-100359999D03*
X177344999Y-100609999D03*
X169794999Y-100859999D03*
X177344999Y-101109999D03*
X169794999Y-101359999D03*
X177344999Y-101609999D03*
X169794999Y-101859999D03*
X177344999Y-102109999D03*
X169794999Y-102359999D03*
X177344999Y-102609999D03*
X169794999Y-102859999D03*
X177344999Y-103109999D03*
X169794999Y-103359999D03*
X177344999Y-103609999D03*
X169794999Y-103859999D03*
X177344999Y-104109999D03*
X169794999Y-104359999D03*
X177344999Y-104609999D03*
X169794999Y-104859999D03*
X177344999Y-105109999D03*
X169794999Y-105359999D03*
X177344999Y-105609999D03*
X169794999Y-105859999D03*
X177344999Y-106109999D03*
X169794999Y-106359999D03*
X177344999Y-106609999D03*
X169794999Y-106859999D03*
X177344999Y-107109999D03*
X169794999Y-107359999D03*
X177344999Y-107609999D03*
X169794999Y-107859999D03*
X177344999Y-108109999D03*
X169794999Y-108359999D03*
X177344999Y-108609999D03*
X169794999Y-108859999D03*
X177344999Y-109109999D03*
X169794999Y-109359999D03*
X177344999Y-109609999D03*
X169794999Y-109859999D03*
X177344999Y-110109999D03*
X169794999Y-110359999D03*
X177344999Y-110609999D03*
X169794999Y-110859999D03*
X177344999Y-111109999D03*
X169794999Y-111359999D03*
X177344999Y-111609999D03*
X169794999Y-111859999D03*
X177344999Y-112109999D03*
D46*
X134620000Y-117875000D03*
X134620000Y-123425000D03*
D34*
X175400000Y-125720000D03*
X176360000Y-125720000D03*
D47*
X119437500Y-95600000D03*
X119437500Y-93700000D03*
X117562500Y-94650000D03*
D12*
X167250000Y-96060000D03*
X167250000Y-95040000D03*
D11*
X166200000Y-126355000D03*
X165240000Y-126355000D03*
D13*
X180200000Y-111750000D03*
X179180000Y-111750000D03*
D35*
X160772500Y-129850000D03*
X160772500Y-130800000D03*
X160772500Y-131750000D03*
X163047500Y-131750000D03*
X163047500Y-130800000D03*
X163047500Y-129850000D03*
D21*
X175370000Y-129530000D03*
X176390000Y-129530000D03*
D41*
X165220000Y-114737500D03*
X165220000Y-113162500D03*
D16*
X178420000Y-123432000D03*
X178420000Y-124452000D03*
D20*
X150480000Y-129850000D03*
X150480000Y-131750000D03*
D21*
X175370000Y-126990000D03*
X176390000Y-126990000D03*
D30*
X121400000Y-95530000D03*
X121400000Y-94570000D03*
M02*
