G04 #@! TF.GenerationSoftware,KiCad,Pcbnew,(6.99.0-3780-g6ddc5c1a6e)*
G04 #@! TF.CreationDate,2022-10-07T14:26:14+02:00*
G04 #@! TF.ProjectId,Unifying,556e6966-7969-46e6-972e-6b696361645f,rev?*
G04 #@! TF.SameCoordinates,Original*
G04 #@! TF.FileFunction,Paste,Bot*
G04 #@! TF.FilePolarity,Positive*
%FSLAX46Y46*%
G04 Gerber Fmt 4.6, Leading zero omitted, Abs format (unit mm)*
G04 Created by KiCad (PCBNEW (6.99.0-3780-g6ddc5c1a6e)) date 2022-10-07 14:26:14*
%MOMM*%
%LPD*%
G01*
G04 APERTURE LIST*
G04 Aperture macros list*
%AMRoundRect*
0 Rectangle with rounded corners*
0 $1 Rounding radius*
0 $2 $3 $4 $5 $6 $7 $8 $9 X,Y pos of 4 corners*
0 Add a 4 corners polygon primitive as box body*
4,1,4,$2,$3,$4,$5,$6,$7,$8,$9,$2,$3,0*
0 Add four circle primitives for the rounded corners*
1,1,$1+$1,$2,$3*
1,1,$1+$1,$4,$5*
1,1,$1+$1,$6,$7*
1,1,$1+$1,$8,$9*
0 Add four rect primitives between the rounded corners*
20,1,$1+$1,$2,$3,$4,$5,0*
20,1,$1+$1,$4,$5,$6,$7,0*
20,1,$1+$1,$6,$7,$8,$9,0*
20,1,$1+$1,$8,$9,$2,$3,0*%
G04 Aperture macros list end*
%ADD10C,0.100000*%
%ADD11R,0.550000X0.300000*%
%ADD12R,0.550000X0.400000*%
%ADD13RoundRect,0.135000X0.135000X0.185000X-0.135000X0.185000X-0.135000X-0.185000X0.135000X-0.185000X0*%
%ADD14R,1.750000X0.400000*%
%ADD15R,0.700000X1.825000*%
%ADD16R,1.400000X2.000000*%
%ADD17R,2.000000X1.300000*%
%ADD18R,2.500000X1.425000*%
%ADD19R,1.900000X0.300000*%
%ADD20R,1.500000X2.000000*%
%ADD21R,1.100000X0.700000*%
%ADD22R,0.930000X0.900000*%
%ADD23R,0.780000X1.050000*%
%ADD24R,3.330000X0.700000*%
%ADD25R,1.830000X1.140000*%
%ADD26R,2.800000X0.860000*%
%ADD27R,0.700000X0.200000*%
%ADD28R,0.300000X1.900000*%
G04 APERTURE END LIST*
G36*
X99410000Y-96820000D02*
G01*
X99410000Y-97420000D01*
X98910000Y-97120000D01*
X98610000Y-96620000D01*
X99210000Y-96620000D01*
X99410000Y-96820000D01*
G37*
D10*
X99410000Y-96820000D02*
X99410000Y-97420000D01*
X98910000Y-97120000D01*
X98610000Y-96620000D01*
X99210000Y-96620000D01*
X99410000Y-96820000D01*
G36*
X100310000Y-97120000D02*
G01*
X99810000Y-97420000D01*
X99810000Y-96820000D01*
X100010000Y-96620000D01*
X100610000Y-96620000D01*
X100310000Y-97120000D01*
G37*
X100310000Y-97120000D02*
X99810000Y-97420000D01*
X99810000Y-96820000D01*
X100010000Y-96620000D01*
X100610000Y-96620000D01*
X100310000Y-97120000D01*
G36*
X104310000Y-96220000D02*
G01*
X104310000Y-96820000D01*
X103810000Y-96520000D01*
X103510000Y-96020000D01*
X104110000Y-96020000D01*
X104310000Y-96220000D01*
G37*
X104310000Y-96220000D02*
X104310000Y-96820000D01*
X103810000Y-96520000D01*
X103510000Y-96020000D01*
X104110000Y-96020000D01*
X104310000Y-96220000D01*
G36*
X105210000Y-96520000D02*
G01*
X104710000Y-96820000D01*
X104710000Y-96220000D01*
X104910000Y-96020000D01*
X105510000Y-96020000D01*
X105210000Y-96520000D01*
G37*
X105210000Y-96520000D02*
X104710000Y-96820000D01*
X104710000Y-96220000D01*
X104910000Y-96020000D01*
X105510000Y-96020000D01*
X105210000Y-96520000D01*
G36*
X99410000Y-96020000D02*
G01*
X99210000Y-96220000D01*
X98610000Y-96220000D01*
X98910000Y-95720000D01*
X99410000Y-95420000D01*
X99410000Y-96020000D01*
G37*
X99410000Y-96020000D02*
X99210000Y-96220000D01*
X98610000Y-96220000D01*
X98910000Y-95720000D01*
X99410000Y-95420000D01*
X99410000Y-96020000D01*
G36*
X100310000Y-95720000D02*
G01*
X100610000Y-96220000D01*
X100010000Y-96220000D01*
X99810000Y-96020000D01*
X99810000Y-95420000D01*
X100310000Y-95720000D01*
G37*
X100310000Y-95720000D02*
X100610000Y-96220000D01*
X100010000Y-96220000D01*
X99810000Y-96020000D01*
X99810000Y-95420000D01*
X100310000Y-95720000D01*
G36*
X104310000Y-95420000D02*
G01*
X104110000Y-95620000D01*
X103510000Y-95620000D01*
X103810000Y-95120000D01*
X104310000Y-94820000D01*
X104310000Y-95420000D01*
G37*
X104310000Y-95420000D02*
X104110000Y-95620000D01*
X103510000Y-95620000D01*
X103810000Y-95120000D01*
X104310000Y-94820000D01*
X104310000Y-95420000D01*
G36*
X105210000Y-95120000D02*
G01*
X105510000Y-95620000D01*
X104910000Y-95620000D01*
X104710000Y-95420000D01*
X104710000Y-94820000D01*
X105210000Y-95120000D01*
G37*
X105210000Y-95120000D02*
X105510000Y-95620000D01*
X104910000Y-95620000D01*
X104710000Y-95420000D01*
X104710000Y-94820000D01*
X105210000Y-95120000D01*
G36*
X104310000Y-81720000D02*
G01*
X104310000Y-82320000D01*
X103810000Y-82020000D01*
X103510000Y-81520000D01*
X104110000Y-81520000D01*
X104310000Y-81720000D01*
G37*
X104310000Y-81720000D02*
X104310000Y-82320000D01*
X103810000Y-82020000D01*
X103510000Y-81520000D01*
X104110000Y-81520000D01*
X104310000Y-81720000D01*
G36*
X105210000Y-82020000D02*
G01*
X104710000Y-82320000D01*
X104710000Y-81720000D01*
X104910000Y-81520000D01*
X105510000Y-81520000D01*
X105210000Y-82020000D01*
G37*
X105210000Y-82020000D02*
X104710000Y-82320000D01*
X104710000Y-81720000D01*
X104910000Y-81520000D01*
X105510000Y-81520000D01*
X105210000Y-82020000D01*
G36*
X99410000Y-81120000D02*
G01*
X99410000Y-81720000D01*
X98910000Y-81420000D01*
X98610000Y-80920000D01*
X99210000Y-80920000D01*
X99410000Y-81120000D01*
G37*
X99410000Y-81120000D02*
X99410000Y-81720000D01*
X98910000Y-81420000D01*
X98610000Y-80920000D01*
X99210000Y-80920000D01*
X99410000Y-81120000D01*
G36*
X100310000Y-81420000D02*
G01*
X99810000Y-81720000D01*
X99810000Y-81120000D01*
X100010000Y-80920000D01*
X100610000Y-80920000D01*
X100310000Y-81420000D01*
G37*
X100310000Y-81420000D02*
X99810000Y-81720000D01*
X99810000Y-81120000D01*
X100010000Y-80920000D01*
X100610000Y-80920000D01*
X100310000Y-81420000D01*
G36*
X104310000Y-80920000D02*
G01*
X104110000Y-81120000D01*
X103510000Y-81120000D01*
X103810000Y-80620000D01*
X104310000Y-80320000D01*
X104310000Y-80920000D01*
G37*
X104310000Y-80920000D02*
X104110000Y-81120000D01*
X103510000Y-81120000D01*
X103810000Y-80620000D01*
X104310000Y-80320000D01*
X104310000Y-80920000D01*
G36*
X105210000Y-80620000D02*
G01*
X105510000Y-81120000D01*
X104910000Y-81120000D01*
X104710000Y-80920000D01*
X104710000Y-80320000D01*
X105210000Y-80620000D01*
G37*
X105210000Y-80620000D02*
X105510000Y-81120000D01*
X104910000Y-81120000D01*
X104710000Y-80920000D01*
X104710000Y-80320000D01*
X105210000Y-80620000D01*
G36*
X99410000Y-80320000D02*
G01*
X99210000Y-80520000D01*
X98610000Y-80520000D01*
X98910000Y-80020000D01*
X99410000Y-79720000D01*
X99410000Y-80320000D01*
G37*
X99410000Y-80320000D02*
X99210000Y-80520000D01*
X98610000Y-80520000D01*
X98910000Y-80020000D01*
X99410000Y-79720000D01*
X99410000Y-80320000D01*
G36*
X100310000Y-80020000D02*
G01*
X100610000Y-80520000D01*
X100010000Y-80520000D01*
X99810000Y-80320000D01*
X99810000Y-79720000D01*
X100310000Y-80020000D01*
G37*
X100310000Y-80020000D02*
X100610000Y-80520000D01*
X100010000Y-80520000D01*
X99810000Y-80320000D01*
X99810000Y-79720000D01*
X100310000Y-80020000D01*
G36*
X120290000Y-76720000D02*
G01*
X120090000Y-76920000D01*
X119490000Y-76920000D01*
X119790000Y-76420000D01*
X120290000Y-76120000D01*
X120290000Y-76720000D01*
G37*
X120290000Y-76720000D02*
X120090000Y-76920000D01*
X119490000Y-76920000D01*
X119790000Y-76420000D01*
X120290000Y-76120000D01*
X120290000Y-76720000D01*
G36*
X120290000Y-77520000D02*
G01*
X120290000Y-78120000D01*
X119790000Y-77820000D01*
X119490000Y-77320000D01*
X120090000Y-77320000D01*
X120290000Y-77520000D01*
G37*
X120290000Y-77520000D02*
X120290000Y-78120000D01*
X119790000Y-77820000D01*
X119490000Y-77320000D01*
X120090000Y-77320000D01*
X120290000Y-77520000D01*
G36*
X120890000Y-81620000D02*
G01*
X120690000Y-81820000D01*
X120090000Y-81820000D01*
X120390000Y-81320000D01*
X120890000Y-81020000D01*
X120890000Y-81620000D01*
G37*
X120890000Y-81620000D02*
X120690000Y-81820000D01*
X120090000Y-81820000D01*
X120390000Y-81320000D01*
X120890000Y-81020000D01*
X120890000Y-81620000D01*
G36*
X120890000Y-82420000D02*
G01*
X120890000Y-83020000D01*
X120390000Y-82720000D01*
X120090000Y-82220000D01*
X120690000Y-82220000D01*
X120890000Y-82420000D01*
G37*
X120890000Y-82420000D02*
X120890000Y-83020000D01*
X120390000Y-82720000D01*
X120090000Y-82220000D01*
X120690000Y-82220000D01*
X120890000Y-82420000D01*
G36*
X121190000Y-76420000D02*
G01*
X121490000Y-76920000D01*
X120890000Y-76920000D01*
X120690000Y-76720000D01*
X120690000Y-76120000D01*
X121190000Y-76420000D01*
G37*
X121190000Y-76420000D02*
X121490000Y-76920000D01*
X120890000Y-76920000D01*
X120690000Y-76720000D01*
X120690000Y-76120000D01*
X121190000Y-76420000D01*
G36*
X121190000Y-77820000D02*
G01*
X120690000Y-78120000D01*
X120690000Y-77520000D01*
X120890000Y-77320000D01*
X121490000Y-77320000D01*
X121190000Y-77820000D01*
G37*
X121190000Y-77820000D02*
X120690000Y-78120000D01*
X120690000Y-77520000D01*
X120890000Y-77320000D01*
X121490000Y-77320000D01*
X121190000Y-77820000D01*
G36*
X121790000Y-81320000D02*
G01*
X122090000Y-81820000D01*
X121490000Y-81820000D01*
X121290000Y-81620000D01*
X121290000Y-81020000D01*
X121790000Y-81320000D01*
G37*
X121790000Y-81320000D02*
X122090000Y-81820000D01*
X121490000Y-81820000D01*
X121290000Y-81620000D01*
X121290000Y-81020000D01*
X121790000Y-81320000D01*
G36*
X121790000Y-82720000D02*
G01*
X121290000Y-83020000D01*
X121290000Y-82420000D01*
X121490000Y-82220000D01*
X122090000Y-82220000D01*
X121790000Y-82720000D01*
G37*
X121790000Y-82720000D02*
X121290000Y-83020000D01*
X121290000Y-82420000D01*
X121490000Y-82220000D01*
X122090000Y-82220000D01*
X121790000Y-82720000D01*
G36*
X135390000Y-81620000D02*
G01*
X135190000Y-81820000D01*
X134590000Y-81820000D01*
X134890000Y-81320000D01*
X135390000Y-81020000D01*
X135390000Y-81620000D01*
G37*
X135390000Y-81620000D02*
X135190000Y-81820000D01*
X134590000Y-81820000D01*
X134890000Y-81320000D01*
X135390000Y-81020000D01*
X135390000Y-81620000D01*
G36*
X135390000Y-82420000D02*
G01*
X135390000Y-83020000D01*
X134890000Y-82720000D01*
X134590000Y-82220000D01*
X135190000Y-82220000D01*
X135390000Y-82420000D01*
G37*
X135390000Y-82420000D02*
X135390000Y-83020000D01*
X134890000Y-82720000D01*
X134590000Y-82220000D01*
X135190000Y-82220000D01*
X135390000Y-82420000D01*
G36*
X135990000Y-76720000D02*
G01*
X135790000Y-76920000D01*
X135190000Y-76920000D01*
X135490000Y-76420000D01*
X135990000Y-76120000D01*
X135990000Y-76720000D01*
G37*
X135990000Y-76720000D02*
X135790000Y-76920000D01*
X135190000Y-76920000D01*
X135490000Y-76420000D01*
X135990000Y-76120000D01*
X135990000Y-76720000D01*
G36*
X135990000Y-77520000D02*
G01*
X135990000Y-78120000D01*
X135490000Y-77820000D01*
X135190000Y-77320000D01*
X135790000Y-77320000D01*
X135990000Y-77520000D01*
G37*
X135990000Y-77520000D02*
X135990000Y-78120000D01*
X135490000Y-77820000D01*
X135190000Y-77320000D01*
X135790000Y-77320000D01*
X135990000Y-77520000D01*
G36*
X136290000Y-81320000D02*
G01*
X136590000Y-81820000D01*
X135990000Y-81820000D01*
X135790000Y-81620000D01*
X135790000Y-81020000D01*
X136290000Y-81320000D01*
G37*
X136290000Y-81320000D02*
X136590000Y-81820000D01*
X135990000Y-81820000D01*
X135790000Y-81620000D01*
X135790000Y-81020000D01*
X136290000Y-81320000D01*
G36*
X136290000Y-82720000D02*
G01*
X135790000Y-83020000D01*
X135790000Y-82420000D01*
X135990000Y-82220000D01*
X136590000Y-82220000D01*
X136290000Y-82720000D01*
G37*
X136290000Y-82720000D02*
X135790000Y-83020000D01*
X135790000Y-82420000D01*
X135990000Y-82220000D01*
X136590000Y-82220000D01*
X136290000Y-82720000D01*
G36*
X136890000Y-76420000D02*
G01*
X137190000Y-76920000D01*
X136590000Y-76920000D01*
X136390000Y-76720000D01*
X136390000Y-76120000D01*
X136890000Y-76420000D01*
G37*
X136890000Y-76420000D02*
X137190000Y-76920000D01*
X136590000Y-76920000D01*
X136390000Y-76720000D01*
X136390000Y-76120000D01*
X136890000Y-76420000D01*
G36*
X136890000Y-77820000D02*
G01*
X136390000Y-78120000D01*
X136390000Y-77520000D01*
X136590000Y-77320000D01*
X137190000Y-77320000D01*
X136890000Y-77820000D01*
G37*
X136890000Y-77820000D02*
X136390000Y-78120000D01*
X136390000Y-77520000D01*
X136590000Y-77320000D01*
X137190000Y-77320000D01*
X136890000Y-77820000D01*
D11*
X192009999Y-80719999D03*
X192009999Y-81219999D03*
D12*
X192009999Y-81719999D03*
D11*
X192009999Y-82219999D03*
X192009999Y-82719999D03*
X192779999Y-82719999D03*
X192779999Y-82219999D03*
D12*
X192779999Y-81719999D03*
D11*
X192779999Y-81219999D03*
X192779999Y-80719999D03*
X193044999Y-88589999D03*
X193044999Y-88089999D03*
D12*
X193044999Y-87589999D03*
D11*
X193044999Y-87089999D03*
X193044999Y-86589999D03*
X192274999Y-86589999D03*
X192274999Y-87089999D03*
D12*
X192274999Y-87589999D03*
D11*
X192274999Y-88089999D03*
X192274999Y-88589999D03*
D13*
X192140000Y-89660000D03*
X193160000Y-89660000D03*
X193150000Y-90700000D03*
X192130000Y-90700000D03*
D14*
X101311999Y-113811999D03*
X101311999Y-113161999D03*
X101311999Y-112511999D03*
X101311999Y-111861999D03*
X101311999Y-111211999D03*
D15*
X100191999Y-115499499D03*
D16*
X101551999Y-115361999D03*
D17*
X99421999Y-115236999D03*
D18*
X98241999Y-113474499D03*
X98241999Y-111549499D03*
D17*
X99421999Y-109786999D03*
D16*
X101551999Y-109611999D03*
D15*
X100191999Y-109524499D03*
D19*
X105509999Y-83819999D03*
X105509999Y-84319999D03*
X105509999Y-84819999D03*
X105509999Y-85319999D03*
X105509999Y-85819999D03*
X105509999Y-86319999D03*
X105509999Y-86819999D03*
X105509999Y-87319999D03*
X105509999Y-87819999D03*
X105509999Y-88319999D03*
X105509999Y-88819999D03*
X105509999Y-89319999D03*
X105509999Y-89819999D03*
X105509999Y-90319999D03*
X105509999Y-90819999D03*
X105509999Y-91319999D03*
X105509999Y-91819999D03*
X105509999Y-92319999D03*
X105509999Y-92819999D03*
D20*
X213359999Y-136799999D03*
X213359999Y-129799999D03*
X209959999Y-136799999D03*
X206159999Y-129799999D03*
X203959999Y-129799999D03*
X204459999Y-136799999D03*
D21*
X214272499Y-148225999D03*
X214272499Y-147125999D03*
X214272499Y-146025999D03*
X214272499Y-144925999D03*
X214272499Y-143825999D03*
X214272499Y-142725999D03*
X214272499Y-141625999D03*
X214272499Y-140525999D03*
D22*
X201807499Y-150015999D03*
D23*
X201732499Y-145750999D03*
D24*
X203007499Y-152325999D03*
D25*
X214257499Y-152105999D03*
D26*
X213772499Y-139445999D03*
D24*
X203007499Y-139365999D03*
D27*
X177615999Y-99623999D03*
X174535999Y-99623999D03*
X177615999Y-100023999D03*
X174535999Y-100023999D03*
X177615999Y-100423999D03*
X174535999Y-100423999D03*
X177615999Y-100823999D03*
X174535999Y-100823999D03*
X177615999Y-101223999D03*
X174535999Y-101223999D03*
X177615999Y-101623999D03*
X174535999Y-101623999D03*
X177615999Y-102023999D03*
X174535999Y-102023999D03*
X177615999Y-102423999D03*
X174535999Y-102423999D03*
X177615999Y-102823999D03*
X174535999Y-102823999D03*
X177615999Y-103223999D03*
X174535999Y-103223999D03*
X177615999Y-103623999D03*
X174535999Y-103623999D03*
X177615999Y-104023999D03*
X174535999Y-104023999D03*
X177615999Y-104423999D03*
X174535999Y-104423999D03*
X177615999Y-104823999D03*
X174535999Y-104823999D03*
X177615999Y-105223999D03*
X174535999Y-105223999D03*
X177615999Y-105623999D03*
X174535999Y-105623999D03*
X177615999Y-106023999D03*
X174535999Y-106023999D03*
X177615999Y-106423999D03*
X174535999Y-106423999D03*
X177615999Y-106823999D03*
X174535999Y-106823999D03*
X177615999Y-107223999D03*
X174535999Y-107223999D03*
X177615999Y-107623999D03*
X174535999Y-107623999D03*
X177615999Y-108023999D03*
X174535999Y-108023999D03*
X177615999Y-108423999D03*
X174535999Y-108423999D03*
X177615999Y-108823999D03*
X174535999Y-108823999D03*
X177615999Y-109223999D03*
X174535999Y-109223999D03*
X177615999Y-109623999D03*
X174535999Y-109623999D03*
X177615999Y-110023999D03*
X174535999Y-110023999D03*
X177615999Y-110423999D03*
X174535999Y-110423999D03*
X177615999Y-110823999D03*
X174535999Y-110823999D03*
X177615999Y-111223999D03*
X174535999Y-111223999D03*
X177615999Y-111623999D03*
X174535999Y-111623999D03*
X177615999Y-112023999D03*
X174535999Y-112023999D03*
X177615999Y-112423999D03*
X174535999Y-112423999D03*
X177615999Y-112823999D03*
X174535999Y-112823999D03*
X177615999Y-113223999D03*
X174535999Y-113223999D03*
X177615999Y-113623999D03*
X174535999Y-113623999D03*
X177615999Y-114023999D03*
X174535999Y-114023999D03*
X177615999Y-114423999D03*
X174535999Y-114423999D03*
X177615999Y-114823999D03*
X174535999Y-114823999D03*
X177615999Y-115223999D03*
X174535999Y-115223999D03*
X177615999Y-115623999D03*
X174535999Y-115623999D03*
X177615999Y-116023999D03*
X174535999Y-116023999D03*
X177615999Y-116423999D03*
X174535999Y-116423999D03*
X177615999Y-116823999D03*
X174535999Y-116823999D03*
X177615999Y-117223999D03*
X174535999Y-117223999D03*
X177615999Y-117623999D03*
X174535999Y-117623999D03*
X177615999Y-118023999D03*
X174535999Y-118023999D03*
X177615999Y-118423999D03*
X174535999Y-118423999D03*
X177615999Y-118823999D03*
X174535999Y-118823999D03*
X177615999Y-119223999D03*
X174535999Y-119223999D03*
X143695999Y-99623999D03*
X140615999Y-99623999D03*
X143695999Y-100023999D03*
X140615999Y-100023999D03*
X143695999Y-100423999D03*
X140615999Y-100423999D03*
X143695999Y-100823999D03*
X140615999Y-100823999D03*
X143695999Y-101223999D03*
X140615999Y-101223999D03*
X143695999Y-101623999D03*
X140615999Y-101623999D03*
X143695999Y-102023999D03*
X140615999Y-102023999D03*
X143695999Y-102423999D03*
X140615999Y-102423999D03*
X143695999Y-102823999D03*
X140615999Y-102823999D03*
X143695999Y-103223999D03*
X140615999Y-103223999D03*
X143695999Y-103623999D03*
X140615999Y-103623999D03*
X143695999Y-104023999D03*
X140615999Y-104023999D03*
X143695999Y-104423999D03*
X140615999Y-104423999D03*
X143695999Y-104823999D03*
X140615999Y-104823999D03*
X143695999Y-105223999D03*
X140615999Y-105223999D03*
X143695999Y-105623999D03*
X140615999Y-105623999D03*
X143695999Y-106023999D03*
X140615999Y-106023999D03*
X143695999Y-106423999D03*
X140615999Y-106423999D03*
X143695999Y-106823999D03*
X140615999Y-106823999D03*
X143695999Y-107223999D03*
X140615999Y-107223999D03*
X143695999Y-107623999D03*
X140615999Y-107623999D03*
X143695999Y-108023999D03*
X140615999Y-108023999D03*
X143695999Y-108423999D03*
X140615999Y-108423999D03*
X143695999Y-108823999D03*
X140615999Y-108823999D03*
X143695999Y-109223999D03*
X140615999Y-109223999D03*
X143695999Y-109623999D03*
X140615999Y-109623999D03*
X143695999Y-110023999D03*
X140615999Y-110023999D03*
X143695999Y-110423999D03*
X140615999Y-110423999D03*
X143695999Y-110823999D03*
X140615999Y-110823999D03*
X143695999Y-111223999D03*
X140615999Y-111223999D03*
X143695999Y-111623999D03*
X140615999Y-111623999D03*
X143695999Y-112023999D03*
X140615999Y-112023999D03*
X143695999Y-112423999D03*
X140615999Y-112423999D03*
X143695999Y-112823999D03*
X140615999Y-112823999D03*
X143695999Y-113223999D03*
X140615999Y-113223999D03*
X143695999Y-113623999D03*
X140615999Y-113623999D03*
X143695999Y-114023999D03*
X140615999Y-114023999D03*
X143695999Y-114423999D03*
X140615999Y-114423999D03*
X143695999Y-114823999D03*
X140615999Y-114823999D03*
X143695999Y-115223999D03*
X140615999Y-115223999D03*
X143695999Y-115623999D03*
X140615999Y-115623999D03*
X143695999Y-116023999D03*
X140615999Y-116023999D03*
X143695999Y-116423999D03*
X140615999Y-116423999D03*
X143695999Y-116823999D03*
X140615999Y-116823999D03*
X143695999Y-117223999D03*
X140615999Y-117223999D03*
X143695999Y-117623999D03*
X140615999Y-117623999D03*
X143695999Y-118023999D03*
X140615999Y-118023999D03*
X143695999Y-118423999D03*
X140615999Y-118423999D03*
X143695999Y-118823999D03*
X140615999Y-118823999D03*
X143695999Y-119223999D03*
X140615999Y-119223999D03*
D14*
X101295999Y-104159999D03*
X101295999Y-103509999D03*
X101295999Y-102859999D03*
X101295999Y-102209999D03*
X101295999Y-101559999D03*
D15*
X100175999Y-105847499D03*
D16*
X101535999Y-105709999D03*
D17*
X99405999Y-105584999D03*
D18*
X98225999Y-103822499D03*
X98225999Y-101897499D03*
D17*
X99405999Y-100134999D03*
D16*
X101535999Y-99959999D03*
D15*
X100175999Y-99872499D03*
D28*
X133089999Y-83019999D03*
X132589999Y-83019999D03*
X132089999Y-83019999D03*
X131589999Y-83019999D03*
X131089999Y-83019999D03*
X130589999Y-83019999D03*
X130089999Y-83019999D03*
X129589999Y-83019999D03*
X129089999Y-83019999D03*
X128589999Y-83019999D03*
X128089999Y-83019999D03*
X127589999Y-83019999D03*
X127089999Y-83019999D03*
X126589999Y-83019999D03*
X126089999Y-83019999D03*
X125589999Y-83019999D03*
X125089999Y-83019999D03*
X124589999Y-83019999D03*
X124089999Y-83019999D03*
M02*
