G04 #@! TF.GenerationSoftware,KiCad,Pcbnew,(6.99.0-1603-g82820d4b1c)*
G04 #@! TF.CreationDate,2022-06-17T10:58:42+02:00*
G04 #@! TF.ProjectId,Unifying,556e6966-7969-46e6-972e-6b696361645f,rev?*
G04 #@! TF.SameCoordinates,Original*
G04 #@! TF.FileFunction,Legend,Bot*
G04 #@! TF.FilePolarity,Positive*
%FSLAX46Y46*%
G04 Gerber Fmt 4.6, Leading zero omitted, Abs format (unit mm)*
G04 Created by KiCad (PCBNEW (6.99.0-1603-g82820d4b1c)) date 2022-06-17 10:58:42*
%MOMM*%
%LPD*%
G01*
G04 APERTURE LIST*
G04 Aperture macros list*
%AMRoundRect*
0 Rectangle with rounded corners*
0 $1 Rounding radius*
0 $2 $3 $4 $5 $6 $7 $8 $9 X,Y pos of 4 corners*
0 Add a 4 corners polygon primitive as box body*
4,1,4,$2,$3,$4,$5,$6,$7,$8,$9,$2,$3,0*
0 Add four circle primitives for the rounded corners*
1,1,$1+$1,$2,$3*
1,1,$1+$1,$4,$5*
1,1,$1+$1,$6,$7*
1,1,$1+$1,$8,$9*
0 Add four rect primitives between the rounded corners*
20,1,$1+$1,$2,$3,$4,$5,0*
20,1,$1+$1,$4,$5,$6,$7,0*
20,1,$1+$1,$6,$7,$8,$9,0*
20,1,$1+$1,$8,$9,$2,$3,0*%
G04 Aperture macros list end*
%ADD10C,0.200000*%
%ADD11C,0.150000*%
%ADD12C,0.300000*%
%ADD13C,0.100000*%
%ADD14C,0.120000*%
%ADD15C,0.127000*%
%ADD16C,0.010000*%
%ADD17C,2.700000*%
%ADD18R,0.850000X0.850000*%
%ADD19O,0.850000X0.850000*%
%ADD20C,3.500000*%
%ADD21R,3.000000X3.000000*%
%ADD22C,3.000000*%
%ADD23R,1.700000X1.700000*%
%ADD24O,1.700000X1.700000*%
%ADD25RoundRect,0.079000X-0.079000X0.343500X-0.079000X-0.343500X0.079000X-0.343500X0.079000X0.343500X0*%
%ADD26R,1.750000X0.400000*%
%ADD27R,0.700000X1.825000*%
%ADD28R,1.400000X2.000000*%
%ADD29O,1.700000X1.300000*%
%ADD30R,2.000000X1.300000*%
%ADD31O,1.400000X1.000000*%
%ADD32R,2.500000X1.425000*%
%ADD33R,1.350000X1.350000*%
%ADD34O,1.350000X1.350000*%
%ADD35R,0.300000X2.600000*%
%ADD36O,1.500000X2.300000*%
%ADD37O,1.500000X3.300000*%
%ADD38C,1.500000*%
%ADD39R,1.500000X2.000000*%
%ADD40R,1.500000X1.600000*%
%ADD41C,1.600000*%
%ADD42R,1.100000X0.700000*%
%ADD43R,0.930000X0.900000*%
%ADD44R,0.780000X1.050000*%
%ADD45R,3.330000X0.700000*%
%ADD46R,1.830000X1.140000*%
%ADD47R,2.800000X0.860000*%
%ADD48R,0.700000X0.200000*%
%ADD49R,2.600000X0.300000*%
%ADD50O,2.300000X1.500000*%
%ADD51O,3.300000X1.500000*%
G04 APERTURE END LIST*
D10*
X103761380Y-109723333D02*
X104570904Y-109723333D01*
X104570904Y-109723333D02*
X104666142Y-109770952D01*
X104666142Y-109770952D02*
X104713761Y-109818571D01*
X104713761Y-109818571D02*
X104761380Y-109913809D01*
X104761380Y-109913809D02*
X104761380Y-110104285D01*
X104761380Y-110104285D02*
X104713761Y-110199523D01*
X104713761Y-110199523D02*
X104666142Y-110247142D01*
X104666142Y-110247142D02*
X104570904Y-110294761D01*
X104570904Y-110294761D02*
X103761380Y-110294761D01*
X104713761Y-110723333D02*
X104761380Y-110866190D01*
X104761380Y-110866190D02*
X104761380Y-111104285D01*
X104761380Y-111104285D02*
X104713761Y-111199523D01*
X104713761Y-111199523D02*
X104666142Y-111247142D01*
X104666142Y-111247142D02*
X104570904Y-111294761D01*
X104570904Y-111294761D02*
X104475666Y-111294761D01*
X104475666Y-111294761D02*
X104380428Y-111247142D01*
X104380428Y-111247142D02*
X104332809Y-111199523D01*
X104332809Y-111199523D02*
X104285190Y-111104285D01*
X104285190Y-111104285D02*
X104237571Y-110913809D01*
X104237571Y-110913809D02*
X104189952Y-110818571D01*
X104189952Y-110818571D02*
X104142333Y-110770952D01*
X104142333Y-110770952D02*
X104047095Y-110723333D01*
X104047095Y-110723333D02*
X103951857Y-110723333D01*
X103951857Y-110723333D02*
X103856619Y-110770952D01*
X103856619Y-110770952D02*
X103809000Y-110818571D01*
X103809000Y-110818571D02*
X103761380Y-110913809D01*
X103761380Y-110913809D02*
X103761380Y-111151904D01*
X103761380Y-111151904D02*
X103809000Y-111294761D01*
X104237571Y-112056666D02*
X104285190Y-112199523D01*
X104285190Y-112199523D02*
X104332809Y-112247142D01*
X104332809Y-112247142D02*
X104428047Y-112294761D01*
X104428047Y-112294761D02*
X104570904Y-112294761D01*
X104570904Y-112294761D02*
X104666142Y-112247142D01*
X104666142Y-112247142D02*
X104713761Y-112199523D01*
X104713761Y-112199523D02*
X104761380Y-112104285D01*
X104761380Y-112104285D02*
X104761380Y-111723333D01*
X104761380Y-111723333D02*
X103761380Y-111723333D01*
X103761380Y-111723333D02*
X103761380Y-112056666D01*
X103761380Y-112056666D02*
X103809000Y-112151904D01*
X103809000Y-112151904D02*
X103856619Y-112199523D01*
X103856619Y-112199523D02*
X103951857Y-112247142D01*
X103951857Y-112247142D02*
X104047095Y-112247142D01*
X104047095Y-112247142D02*
X104142333Y-112199523D01*
X104142333Y-112199523D02*
X104189952Y-112151904D01*
X104189952Y-112151904D02*
X104237571Y-112056666D01*
X104237571Y-112056666D02*
X104237571Y-111723333D01*
X103761380Y-112913809D02*
X103761380Y-113104285D01*
X103761380Y-113104285D02*
X103809000Y-113199523D01*
X103809000Y-113199523D02*
X103904238Y-113294761D01*
X103904238Y-113294761D02*
X104094714Y-113342380D01*
X104094714Y-113342380D02*
X104428047Y-113342380D01*
X104428047Y-113342380D02*
X104618523Y-113294761D01*
X104618523Y-113294761D02*
X104713761Y-113199523D01*
X104713761Y-113199523D02*
X104761380Y-113104285D01*
X104761380Y-113104285D02*
X104761380Y-112913809D01*
X104761380Y-112913809D02*
X104713761Y-112818571D01*
X104713761Y-112818571D02*
X104618523Y-112723333D01*
X104618523Y-112723333D02*
X104428047Y-112675714D01*
X104428047Y-112675714D02*
X104094714Y-112675714D01*
X104094714Y-112675714D02*
X103904238Y-112723333D01*
X103904238Y-112723333D02*
X103809000Y-112818571D01*
X103809000Y-112818571D02*
X103761380Y-112913809D01*
X103761380Y-113628095D02*
X103761380Y-114199523D01*
X104761380Y-113913809D02*
X103761380Y-113913809D01*
X103809000Y-115056666D02*
X103761380Y-114961428D01*
X103761380Y-114961428D02*
X103761380Y-114818571D01*
X103761380Y-114818571D02*
X103809000Y-114675714D01*
X103809000Y-114675714D02*
X103904238Y-114580476D01*
X103904238Y-114580476D02*
X103999476Y-114532857D01*
X103999476Y-114532857D02*
X104189952Y-114485238D01*
X104189952Y-114485238D02*
X104332809Y-114485238D01*
X104332809Y-114485238D02*
X104523285Y-114532857D01*
X104523285Y-114532857D02*
X104618523Y-114580476D01*
X104618523Y-114580476D02*
X104713761Y-114675714D01*
X104713761Y-114675714D02*
X104761380Y-114818571D01*
X104761380Y-114818571D02*
X104761380Y-114913809D01*
X104761380Y-114913809D02*
X104713761Y-115056666D01*
X104713761Y-115056666D02*
X104666142Y-115104285D01*
X104666142Y-115104285D02*
X104332809Y-115104285D01*
X104332809Y-115104285D02*
X104332809Y-114913809D01*
X106207380Y-101181905D02*
X107016904Y-101181905D01*
X107016904Y-101181905D02*
X107112142Y-101229524D01*
X107112142Y-101229524D02*
X107159761Y-101277143D01*
X107159761Y-101277143D02*
X107207380Y-101372381D01*
X107207380Y-101372381D02*
X107207380Y-101562857D01*
X107207380Y-101562857D02*
X107159761Y-101658095D01*
X107159761Y-101658095D02*
X107112142Y-101705714D01*
X107112142Y-101705714D02*
X107016904Y-101753333D01*
X107016904Y-101753333D02*
X106207380Y-101753333D01*
X107159761Y-102181905D02*
X107207380Y-102324762D01*
X107207380Y-102324762D02*
X107207380Y-102562857D01*
X107207380Y-102562857D02*
X107159761Y-102658095D01*
X107159761Y-102658095D02*
X107112142Y-102705714D01*
X107112142Y-102705714D02*
X107016904Y-102753333D01*
X107016904Y-102753333D02*
X106921666Y-102753333D01*
X106921666Y-102753333D02*
X106826428Y-102705714D01*
X106826428Y-102705714D02*
X106778809Y-102658095D01*
X106778809Y-102658095D02*
X106731190Y-102562857D01*
X106731190Y-102562857D02*
X106683571Y-102372381D01*
X106683571Y-102372381D02*
X106635952Y-102277143D01*
X106635952Y-102277143D02*
X106588333Y-102229524D01*
X106588333Y-102229524D02*
X106493095Y-102181905D01*
X106493095Y-102181905D02*
X106397857Y-102181905D01*
X106397857Y-102181905D02*
X106302619Y-102229524D01*
X106302619Y-102229524D02*
X106255000Y-102277143D01*
X106255000Y-102277143D02*
X106207380Y-102372381D01*
X106207380Y-102372381D02*
X106207380Y-102610476D01*
X106207380Y-102610476D02*
X106255000Y-102753333D01*
X106683571Y-103515238D02*
X106731190Y-103658095D01*
X106731190Y-103658095D02*
X106778809Y-103705714D01*
X106778809Y-103705714D02*
X106874047Y-103753333D01*
X106874047Y-103753333D02*
X107016904Y-103753333D01*
X107016904Y-103753333D02*
X107112142Y-103705714D01*
X107112142Y-103705714D02*
X107159761Y-103658095D01*
X107159761Y-103658095D02*
X107207380Y-103562857D01*
X107207380Y-103562857D02*
X107207380Y-103181905D01*
X107207380Y-103181905D02*
X106207380Y-103181905D01*
X106207380Y-103181905D02*
X106207380Y-103515238D01*
X106207380Y-103515238D02*
X106255000Y-103610476D01*
X106255000Y-103610476D02*
X106302619Y-103658095D01*
X106302619Y-103658095D02*
X106397857Y-103705714D01*
X106397857Y-103705714D02*
X106493095Y-103705714D01*
X106493095Y-103705714D02*
X106588333Y-103658095D01*
X106588333Y-103658095D02*
X106635952Y-103610476D01*
X106635952Y-103610476D02*
X106683571Y-103515238D01*
X106683571Y-103515238D02*
X106683571Y-103181905D01*
X106540714Y-104610476D02*
X107207380Y-104610476D01*
X106159761Y-104372381D02*
X106874047Y-104134286D01*
X106874047Y-104134286D02*
X106874047Y-104753333D01*
D11*
X101993571Y-120580951D02*
X101993571Y-119819047D01*
X101612619Y-120199999D02*
X102374523Y-120199999D01*
D10*
X135682380Y-92355000D02*
X135777618Y-92307380D01*
X135777618Y-92307380D02*
X135920475Y-92307380D01*
X135920475Y-92307380D02*
X136063332Y-92355000D01*
X136063332Y-92355000D02*
X136158570Y-92450238D01*
X136158570Y-92450238D02*
X136206189Y-92545476D01*
X136206189Y-92545476D02*
X136253808Y-92735952D01*
X136253808Y-92735952D02*
X136253808Y-92878809D01*
X136253808Y-92878809D02*
X136206189Y-93069285D01*
X136206189Y-93069285D02*
X136158570Y-93164523D01*
X136158570Y-93164523D02*
X136063332Y-93259761D01*
X136063332Y-93259761D02*
X135920475Y-93307380D01*
X135920475Y-93307380D02*
X135825237Y-93307380D01*
X135825237Y-93307380D02*
X135682380Y-93259761D01*
X135682380Y-93259761D02*
X135634761Y-93212142D01*
X135634761Y-93212142D02*
X135634761Y-92878809D01*
X135634761Y-92878809D02*
X135825237Y-92878809D01*
X135206189Y-93307380D02*
X135206189Y-92307380D01*
X135206189Y-92307380D02*
X134825237Y-92307380D01*
X134825237Y-92307380D02*
X134729999Y-92355000D01*
X134729999Y-92355000D02*
X134682380Y-92402619D01*
X134682380Y-92402619D02*
X134634761Y-92497857D01*
X134634761Y-92497857D02*
X134634761Y-92640714D01*
X134634761Y-92640714D02*
X134682380Y-92735952D01*
X134682380Y-92735952D02*
X134729999Y-92783571D01*
X134729999Y-92783571D02*
X134825237Y-92831190D01*
X134825237Y-92831190D02*
X135206189Y-92831190D01*
X134206189Y-93307380D02*
X134206189Y-92307380D01*
X134206189Y-92307380D02*
X133968094Y-92307380D01*
X133968094Y-92307380D02*
X133825237Y-92355000D01*
X133825237Y-92355000D02*
X133729999Y-92450238D01*
X133729999Y-92450238D02*
X133682380Y-92545476D01*
X133682380Y-92545476D02*
X133634761Y-92735952D01*
X133634761Y-92735952D02*
X133634761Y-92878809D01*
X133634761Y-92878809D02*
X133682380Y-93069285D01*
X133682380Y-93069285D02*
X133729999Y-93164523D01*
X133729999Y-93164523D02*
X133825237Y-93259761D01*
X133825237Y-93259761D02*
X133968094Y-93307380D01*
X133968094Y-93307380D02*
X134206189Y-93307380D01*
X133206189Y-93307380D02*
X133206189Y-92307380D01*
X132206190Y-93307380D02*
X132777618Y-93307380D01*
X132491904Y-93307380D02*
X132491904Y-92307380D01*
X132491904Y-92307380D02*
X132587142Y-92450238D01*
X132587142Y-92450238D02*
X132682380Y-92545476D01*
X132682380Y-92545476D02*
X132777618Y-92593095D01*
X195567380Y-98691905D02*
X196376904Y-98691905D01*
X196376904Y-98691905D02*
X196472142Y-98739524D01*
X196472142Y-98739524D02*
X196519761Y-98787143D01*
X196519761Y-98787143D02*
X196567380Y-98882381D01*
X196567380Y-98882381D02*
X196567380Y-99072857D01*
X196567380Y-99072857D02*
X196519761Y-99168095D01*
X196519761Y-99168095D02*
X196472142Y-99215714D01*
X196472142Y-99215714D02*
X196376904Y-99263333D01*
X196376904Y-99263333D02*
X195567380Y-99263333D01*
X196519761Y-99691905D02*
X196567380Y-99834762D01*
X196567380Y-99834762D02*
X196567380Y-100072857D01*
X196567380Y-100072857D02*
X196519761Y-100168095D01*
X196519761Y-100168095D02*
X196472142Y-100215714D01*
X196472142Y-100215714D02*
X196376904Y-100263333D01*
X196376904Y-100263333D02*
X196281666Y-100263333D01*
X196281666Y-100263333D02*
X196186428Y-100215714D01*
X196186428Y-100215714D02*
X196138809Y-100168095D01*
X196138809Y-100168095D02*
X196091190Y-100072857D01*
X196091190Y-100072857D02*
X196043571Y-99882381D01*
X196043571Y-99882381D02*
X195995952Y-99787143D01*
X195995952Y-99787143D02*
X195948333Y-99739524D01*
X195948333Y-99739524D02*
X195853095Y-99691905D01*
X195853095Y-99691905D02*
X195757857Y-99691905D01*
X195757857Y-99691905D02*
X195662619Y-99739524D01*
X195662619Y-99739524D02*
X195615000Y-99787143D01*
X195615000Y-99787143D02*
X195567380Y-99882381D01*
X195567380Y-99882381D02*
X195567380Y-100120476D01*
X195567380Y-100120476D02*
X195615000Y-100263333D01*
X196043571Y-101025238D02*
X196091190Y-101168095D01*
X196091190Y-101168095D02*
X196138809Y-101215714D01*
X196138809Y-101215714D02*
X196234047Y-101263333D01*
X196234047Y-101263333D02*
X196376904Y-101263333D01*
X196376904Y-101263333D02*
X196472142Y-101215714D01*
X196472142Y-101215714D02*
X196519761Y-101168095D01*
X196519761Y-101168095D02*
X196567380Y-101072857D01*
X196567380Y-101072857D02*
X196567380Y-100691905D01*
X196567380Y-100691905D02*
X195567380Y-100691905D01*
X195567380Y-100691905D02*
X195567380Y-101025238D01*
X195567380Y-101025238D02*
X195615000Y-101120476D01*
X195615000Y-101120476D02*
X195662619Y-101168095D01*
X195662619Y-101168095D02*
X195757857Y-101215714D01*
X195757857Y-101215714D02*
X195853095Y-101215714D01*
X195853095Y-101215714D02*
X195948333Y-101168095D01*
X195948333Y-101168095D02*
X195995952Y-101120476D01*
X195995952Y-101120476D02*
X196043571Y-101025238D01*
X196043571Y-101025238D02*
X196043571Y-100691905D01*
X195567380Y-101596667D02*
X195567380Y-102215714D01*
X195567380Y-102215714D02*
X195948333Y-101882381D01*
X195948333Y-101882381D02*
X195948333Y-102025238D01*
X195948333Y-102025238D02*
X195995952Y-102120476D01*
X195995952Y-102120476D02*
X196043571Y-102168095D01*
X196043571Y-102168095D02*
X196138809Y-102215714D01*
X196138809Y-102215714D02*
X196376904Y-102215714D01*
X196376904Y-102215714D02*
X196472142Y-102168095D01*
X196472142Y-102168095D02*
X196519761Y-102120476D01*
X196519761Y-102120476D02*
X196567380Y-102025238D01*
X196567380Y-102025238D02*
X196567380Y-101739524D01*
X196567380Y-101739524D02*
X196519761Y-101644286D01*
X196519761Y-101644286D02*
X196472142Y-101596667D01*
X197089285Y-92370476D02*
X196422619Y-92370476D01*
X197089285Y-92799047D02*
X196565476Y-92799047D01*
X196565476Y-92799047D02*
X196470238Y-92751428D01*
X196470238Y-92751428D02*
X196422619Y-92656190D01*
X196422619Y-92656190D02*
X196422619Y-92513333D01*
X196422619Y-92513333D02*
X196470238Y-92418095D01*
X196470238Y-92418095D02*
X196517857Y-92370476D01*
X196470238Y-91941904D02*
X196422619Y-91799047D01*
X196422619Y-91799047D02*
X196422619Y-91560952D01*
X196422619Y-91560952D02*
X196470238Y-91465714D01*
X196470238Y-91465714D02*
X196517857Y-91418095D01*
X196517857Y-91418095D02*
X196613095Y-91370476D01*
X196613095Y-91370476D02*
X196708333Y-91370476D01*
X196708333Y-91370476D02*
X196803571Y-91418095D01*
X196803571Y-91418095D02*
X196851190Y-91465714D01*
X196851190Y-91465714D02*
X196898809Y-91560952D01*
X196898809Y-91560952D02*
X196946428Y-91751428D01*
X196946428Y-91751428D02*
X196994047Y-91846666D01*
X196994047Y-91846666D02*
X197041666Y-91894285D01*
X197041666Y-91894285D02*
X197136904Y-91941904D01*
X197136904Y-91941904D02*
X197232142Y-91941904D01*
X197232142Y-91941904D02*
X197327380Y-91894285D01*
X197327380Y-91894285D02*
X197375000Y-91846666D01*
X197375000Y-91846666D02*
X197422619Y-91751428D01*
X197422619Y-91751428D02*
X197422619Y-91513333D01*
X197422619Y-91513333D02*
X197375000Y-91370476D01*
X196422619Y-90941904D02*
X197422619Y-90941904D01*
X197422619Y-90941904D02*
X197422619Y-90703809D01*
X197422619Y-90703809D02*
X197375000Y-90560952D01*
X197375000Y-90560952D02*
X197279761Y-90465714D01*
X197279761Y-90465714D02*
X197184523Y-90418095D01*
X197184523Y-90418095D02*
X196994047Y-90370476D01*
X196994047Y-90370476D02*
X196851190Y-90370476D01*
X196851190Y-90370476D02*
X196660714Y-90418095D01*
X196660714Y-90418095D02*
X196565476Y-90465714D01*
X196565476Y-90465714D02*
X196470238Y-90560952D01*
X196470238Y-90560952D02*
X196422619Y-90703809D01*
X196422619Y-90703809D02*
X196422619Y-90941904D01*
X196517857Y-89370476D02*
X196470238Y-89418095D01*
X196470238Y-89418095D02*
X196422619Y-89560952D01*
X196422619Y-89560952D02*
X196422619Y-89656190D01*
X196422619Y-89656190D02*
X196470238Y-89799047D01*
X196470238Y-89799047D02*
X196565476Y-89894285D01*
X196565476Y-89894285D02*
X196660714Y-89941904D01*
X196660714Y-89941904D02*
X196851190Y-89989523D01*
X196851190Y-89989523D02*
X196994047Y-89989523D01*
X196994047Y-89989523D02*
X197184523Y-89941904D01*
X197184523Y-89941904D02*
X197279761Y-89894285D01*
X197279761Y-89894285D02*
X197375000Y-89799047D01*
X197375000Y-89799047D02*
X197422619Y-89656190D01*
X197422619Y-89656190D02*
X197422619Y-89560952D01*
X197422619Y-89560952D02*
X197375000Y-89418095D01*
X197375000Y-89418095D02*
X197327380Y-89370476D01*
X196708333Y-88989523D02*
X196708333Y-88513333D01*
X196422619Y-89084761D02*
X197422619Y-88751428D01*
X197422619Y-88751428D02*
X196422619Y-88418095D01*
X196422619Y-87513333D02*
X196898809Y-87846666D01*
X196422619Y-88084761D02*
X197422619Y-88084761D01*
X197422619Y-88084761D02*
X197422619Y-87703809D01*
X197422619Y-87703809D02*
X197375000Y-87608571D01*
X197375000Y-87608571D02*
X197327380Y-87560952D01*
X197327380Y-87560952D02*
X197232142Y-87513333D01*
X197232142Y-87513333D02*
X197089285Y-87513333D01*
X197089285Y-87513333D02*
X196994047Y-87560952D01*
X196994047Y-87560952D02*
X196946428Y-87608571D01*
X196946428Y-87608571D02*
X196898809Y-87703809D01*
X196898809Y-87703809D02*
X196898809Y-88084761D01*
X196422619Y-87084761D02*
X197422619Y-87084761D01*
X197422619Y-87084761D02*
X197422619Y-86846666D01*
X197422619Y-86846666D02*
X197375000Y-86703809D01*
X197375000Y-86703809D02*
X197279761Y-86608571D01*
X197279761Y-86608571D02*
X197184523Y-86560952D01*
X197184523Y-86560952D02*
X196994047Y-86513333D01*
X196994047Y-86513333D02*
X196851190Y-86513333D01*
X196851190Y-86513333D02*
X196660714Y-86560952D01*
X196660714Y-86560952D02*
X196565476Y-86608571D01*
X196565476Y-86608571D02*
X196470238Y-86703809D01*
X196470238Y-86703809D02*
X196422619Y-86846666D01*
X196422619Y-86846666D02*
X196422619Y-87084761D01*
X109435000Y-81277619D02*
X109387380Y-81182381D01*
X109387380Y-81182381D02*
X109387380Y-81039524D01*
X109387380Y-81039524D02*
X109435000Y-80896667D01*
X109435000Y-80896667D02*
X109530238Y-80801429D01*
X109530238Y-80801429D02*
X109625476Y-80753810D01*
X109625476Y-80753810D02*
X109815952Y-80706191D01*
X109815952Y-80706191D02*
X109958809Y-80706191D01*
X109958809Y-80706191D02*
X110149285Y-80753810D01*
X110149285Y-80753810D02*
X110244523Y-80801429D01*
X110244523Y-80801429D02*
X110339761Y-80896667D01*
X110339761Y-80896667D02*
X110387380Y-81039524D01*
X110387380Y-81039524D02*
X110387380Y-81134762D01*
X110387380Y-81134762D02*
X110339761Y-81277619D01*
X110339761Y-81277619D02*
X110292142Y-81325238D01*
X110292142Y-81325238D02*
X109958809Y-81325238D01*
X109958809Y-81325238D02*
X109958809Y-81134762D01*
X110387380Y-81753810D02*
X109387380Y-81753810D01*
X109387380Y-81753810D02*
X109387380Y-82134762D01*
X109387380Y-82134762D02*
X109435000Y-82230000D01*
X109435000Y-82230000D02*
X109482619Y-82277619D01*
X109482619Y-82277619D02*
X109577857Y-82325238D01*
X109577857Y-82325238D02*
X109720714Y-82325238D01*
X109720714Y-82325238D02*
X109815952Y-82277619D01*
X109815952Y-82277619D02*
X109863571Y-82230000D01*
X109863571Y-82230000D02*
X109911190Y-82134762D01*
X109911190Y-82134762D02*
X109911190Y-81753810D01*
X110387380Y-82753810D02*
X109387380Y-82753810D01*
X109387380Y-82753810D02*
X109387380Y-82991905D01*
X109387380Y-82991905D02*
X109435000Y-83134762D01*
X109435000Y-83134762D02*
X109530238Y-83230000D01*
X109530238Y-83230000D02*
X109625476Y-83277619D01*
X109625476Y-83277619D02*
X109815952Y-83325238D01*
X109815952Y-83325238D02*
X109958809Y-83325238D01*
X109958809Y-83325238D02*
X110149285Y-83277619D01*
X110149285Y-83277619D02*
X110244523Y-83230000D01*
X110244523Y-83230000D02*
X110339761Y-83134762D01*
X110339761Y-83134762D02*
X110387380Y-82991905D01*
X110387380Y-82991905D02*
X110387380Y-82753810D01*
X110387380Y-83753810D02*
X109387380Y-83753810D01*
X109387380Y-84420476D02*
X109387380Y-84515714D01*
X109387380Y-84515714D02*
X109435000Y-84610952D01*
X109435000Y-84610952D02*
X109482619Y-84658571D01*
X109482619Y-84658571D02*
X109577857Y-84706190D01*
X109577857Y-84706190D02*
X109768333Y-84753809D01*
X109768333Y-84753809D02*
X110006428Y-84753809D01*
X110006428Y-84753809D02*
X110196904Y-84706190D01*
X110196904Y-84706190D02*
X110292142Y-84658571D01*
X110292142Y-84658571D02*
X110339761Y-84610952D01*
X110339761Y-84610952D02*
X110387380Y-84515714D01*
X110387380Y-84515714D02*
X110387380Y-84420476D01*
X110387380Y-84420476D02*
X110339761Y-84325238D01*
X110339761Y-84325238D02*
X110292142Y-84277619D01*
X110292142Y-84277619D02*
X110196904Y-84230000D01*
X110196904Y-84230000D02*
X110006428Y-84182381D01*
X110006428Y-84182381D02*
X109768333Y-84182381D01*
X109768333Y-84182381D02*
X109577857Y-84230000D01*
X109577857Y-84230000D02*
X109482619Y-84277619D01*
X109482619Y-84277619D02*
X109435000Y-84325238D01*
X109435000Y-84325238D02*
X109387380Y-84420476D01*
X195567380Y-115521905D02*
X196376904Y-115521905D01*
X196376904Y-115521905D02*
X196472142Y-115569524D01*
X196472142Y-115569524D02*
X196519761Y-115617143D01*
X196519761Y-115617143D02*
X196567380Y-115712381D01*
X196567380Y-115712381D02*
X196567380Y-115902857D01*
X196567380Y-115902857D02*
X196519761Y-115998095D01*
X196519761Y-115998095D02*
X196472142Y-116045714D01*
X196472142Y-116045714D02*
X196376904Y-116093333D01*
X196376904Y-116093333D02*
X195567380Y-116093333D01*
X196519761Y-116521905D02*
X196567380Y-116664762D01*
X196567380Y-116664762D02*
X196567380Y-116902857D01*
X196567380Y-116902857D02*
X196519761Y-116998095D01*
X196519761Y-116998095D02*
X196472142Y-117045714D01*
X196472142Y-117045714D02*
X196376904Y-117093333D01*
X196376904Y-117093333D02*
X196281666Y-117093333D01*
X196281666Y-117093333D02*
X196186428Y-117045714D01*
X196186428Y-117045714D02*
X196138809Y-116998095D01*
X196138809Y-116998095D02*
X196091190Y-116902857D01*
X196091190Y-116902857D02*
X196043571Y-116712381D01*
X196043571Y-116712381D02*
X195995952Y-116617143D01*
X195995952Y-116617143D02*
X195948333Y-116569524D01*
X195948333Y-116569524D02*
X195853095Y-116521905D01*
X195853095Y-116521905D02*
X195757857Y-116521905D01*
X195757857Y-116521905D02*
X195662619Y-116569524D01*
X195662619Y-116569524D02*
X195615000Y-116617143D01*
X195615000Y-116617143D02*
X195567380Y-116712381D01*
X195567380Y-116712381D02*
X195567380Y-116950476D01*
X195567380Y-116950476D02*
X195615000Y-117093333D01*
X196043571Y-117855238D02*
X196091190Y-117998095D01*
X196091190Y-117998095D02*
X196138809Y-118045714D01*
X196138809Y-118045714D02*
X196234047Y-118093333D01*
X196234047Y-118093333D02*
X196376904Y-118093333D01*
X196376904Y-118093333D02*
X196472142Y-118045714D01*
X196472142Y-118045714D02*
X196519761Y-117998095D01*
X196519761Y-117998095D02*
X196567380Y-117902857D01*
X196567380Y-117902857D02*
X196567380Y-117521905D01*
X196567380Y-117521905D02*
X195567380Y-117521905D01*
X195567380Y-117521905D02*
X195567380Y-117855238D01*
X195567380Y-117855238D02*
X195615000Y-117950476D01*
X195615000Y-117950476D02*
X195662619Y-117998095D01*
X195662619Y-117998095D02*
X195757857Y-118045714D01*
X195757857Y-118045714D02*
X195853095Y-118045714D01*
X195853095Y-118045714D02*
X195948333Y-117998095D01*
X195948333Y-117998095D02*
X195995952Y-117950476D01*
X195995952Y-117950476D02*
X196043571Y-117855238D01*
X196043571Y-117855238D02*
X196043571Y-117521905D01*
X195662619Y-118474286D02*
X195615000Y-118521905D01*
X195615000Y-118521905D02*
X195567380Y-118617143D01*
X195567380Y-118617143D02*
X195567380Y-118855238D01*
X195567380Y-118855238D02*
X195615000Y-118950476D01*
X195615000Y-118950476D02*
X195662619Y-118998095D01*
X195662619Y-118998095D02*
X195757857Y-119045714D01*
X195757857Y-119045714D02*
X195853095Y-119045714D01*
X195853095Y-119045714D02*
X195995952Y-118998095D01*
X195995952Y-118998095D02*
X196567380Y-118426667D01*
X196567380Y-118426667D02*
X196567380Y-119045714D01*
D11*
X101833571Y-125610951D02*
X101833571Y-124849047D01*
D12*
X171617619Y-83084285D02*
X171712857Y-83179523D01*
X171712857Y-83179523D02*
X171998571Y-83274761D01*
X171998571Y-83274761D02*
X172189047Y-83274761D01*
X172189047Y-83274761D02*
X172474762Y-83179523D01*
X172474762Y-83179523D02*
X172665238Y-82989047D01*
X172665238Y-82989047D02*
X172760476Y-82798571D01*
X172760476Y-82798571D02*
X172855714Y-82417619D01*
X172855714Y-82417619D02*
X172855714Y-82131904D01*
X172855714Y-82131904D02*
X172760476Y-81750952D01*
X172760476Y-81750952D02*
X172665238Y-81560476D01*
X172665238Y-81560476D02*
X172474762Y-81370000D01*
X172474762Y-81370000D02*
X172189047Y-81274761D01*
X172189047Y-81274761D02*
X171998571Y-81274761D01*
X171998571Y-81274761D02*
X171712857Y-81370000D01*
X171712857Y-81370000D02*
X171617619Y-81465238D01*
X170474762Y-83274761D02*
X170665238Y-83179523D01*
X170665238Y-83179523D02*
X170760476Y-83084285D01*
X170760476Y-83084285D02*
X170855714Y-82893809D01*
X170855714Y-82893809D02*
X170855714Y-82322380D01*
X170855714Y-82322380D02*
X170760476Y-82131904D01*
X170760476Y-82131904D02*
X170665238Y-82036666D01*
X170665238Y-82036666D02*
X170474762Y-81941428D01*
X170474762Y-81941428D02*
X170189047Y-81941428D01*
X170189047Y-81941428D02*
X169998571Y-82036666D01*
X169998571Y-82036666D02*
X169903333Y-82131904D01*
X169903333Y-82131904D02*
X169808095Y-82322380D01*
X169808095Y-82322380D02*
X169808095Y-82893809D01*
X169808095Y-82893809D02*
X169903333Y-83084285D01*
X169903333Y-83084285D02*
X169998571Y-83179523D01*
X169998571Y-83179523D02*
X170189047Y-83274761D01*
X170189047Y-83274761D02*
X170474762Y-83274761D01*
X168950952Y-83274761D02*
X168950952Y-81941428D01*
X168950952Y-82131904D02*
X168855714Y-82036666D01*
X168855714Y-82036666D02*
X168665238Y-81941428D01*
X168665238Y-81941428D02*
X168379523Y-81941428D01*
X168379523Y-81941428D02*
X168189047Y-82036666D01*
X168189047Y-82036666D02*
X168093809Y-82227142D01*
X168093809Y-82227142D02*
X168093809Y-83274761D01*
X168093809Y-82227142D02*
X167998571Y-82036666D01*
X167998571Y-82036666D02*
X167808095Y-81941428D01*
X167808095Y-81941428D02*
X167522381Y-81941428D01*
X167522381Y-81941428D02*
X167331904Y-82036666D01*
X167331904Y-82036666D02*
X167236666Y-82227142D01*
X167236666Y-82227142D02*
X167236666Y-83274761D01*
X166284285Y-81941428D02*
X166284285Y-83941428D01*
X166284285Y-82036666D02*
X166093809Y-81941428D01*
X166093809Y-81941428D02*
X165712856Y-81941428D01*
X165712856Y-81941428D02*
X165522380Y-82036666D01*
X165522380Y-82036666D02*
X165427142Y-82131904D01*
X165427142Y-82131904D02*
X165331904Y-82322380D01*
X165331904Y-82322380D02*
X165331904Y-82893809D01*
X165331904Y-82893809D02*
X165427142Y-83084285D01*
X165427142Y-83084285D02*
X165522380Y-83179523D01*
X165522380Y-83179523D02*
X165712856Y-83274761D01*
X165712856Y-83274761D02*
X166093809Y-83274761D01*
X166093809Y-83274761D02*
X166284285Y-83179523D01*
X163617618Y-81941428D02*
X163617618Y-83274761D01*
X164474761Y-81941428D02*
X164474761Y-82989047D01*
X164474761Y-82989047D02*
X164379523Y-83179523D01*
X164379523Y-83179523D02*
X164189047Y-83274761D01*
X164189047Y-83274761D02*
X163903332Y-83274761D01*
X163903332Y-83274761D02*
X163712856Y-83179523D01*
X163712856Y-83179523D02*
X163617618Y-83084285D01*
X162950951Y-81941428D02*
X162189047Y-81941428D01*
X162665237Y-81274761D02*
X162665237Y-82989047D01*
X162665237Y-82989047D02*
X162569999Y-83179523D01*
X162569999Y-83179523D02*
X162379523Y-83274761D01*
X162379523Y-83274761D02*
X162189047Y-83274761D01*
X160760475Y-83179523D02*
X160950951Y-83274761D01*
X160950951Y-83274761D02*
X161331904Y-83274761D01*
X161331904Y-83274761D02*
X161522380Y-83179523D01*
X161522380Y-83179523D02*
X161617618Y-82989047D01*
X161617618Y-82989047D02*
X161617618Y-82227142D01*
X161617618Y-82227142D02*
X161522380Y-82036666D01*
X161522380Y-82036666D02*
X161331904Y-81941428D01*
X161331904Y-81941428D02*
X160950951Y-81941428D01*
X160950951Y-81941428D02*
X160760475Y-82036666D01*
X160760475Y-82036666D02*
X160665237Y-82227142D01*
X160665237Y-82227142D02*
X160665237Y-82417619D01*
X160665237Y-82417619D02*
X161617618Y-82608095D01*
X158608094Y-83274761D02*
X158608094Y-81274761D01*
X158608094Y-81274761D02*
X157941427Y-82703333D01*
X157941427Y-82703333D02*
X157274761Y-81274761D01*
X157274761Y-81274761D02*
X157274761Y-83274761D01*
X156036666Y-83274761D02*
X156227142Y-83179523D01*
X156227142Y-83179523D02*
X156322380Y-83084285D01*
X156322380Y-83084285D02*
X156417618Y-82893809D01*
X156417618Y-82893809D02*
X156417618Y-82322380D01*
X156417618Y-82322380D02*
X156322380Y-82131904D01*
X156322380Y-82131904D02*
X156227142Y-82036666D01*
X156227142Y-82036666D02*
X156036666Y-81941428D01*
X156036666Y-81941428D02*
X155750951Y-81941428D01*
X155750951Y-81941428D02*
X155560475Y-82036666D01*
X155560475Y-82036666D02*
X155465237Y-82131904D01*
X155465237Y-82131904D02*
X155369999Y-82322380D01*
X155369999Y-82322380D02*
X155369999Y-82893809D01*
X155369999Y-82893809D02*
X155465237Y-83084285D01*
X155465237Y-83084285D02*
X155560475Y-83179523D01*
X155560475Y-83179523D02*
X155750951Y-83274761D01*
X155750951Y-83274761D02*
X156036666Y-83274761D01*
X153655713Y-83274761D02*
X153655713Y-81274761D01*
X153655713Y-83179523D02*
X153846189Y-83274761D01*
X153846189Y-83274761D02*
X154227142Y-83274761D01*
X154227142Y-83274761D02*
X154417618Y-83179523D01*
X154417618Y-83179523D02*
X154512856Y-83084285D01*
X154512856Y-83084285D02*
X154608094Y-82893809D01*
X154608094Y-82893809D02*
X154608094Y-82322380D01*
X154608094Y-82322380D02*
X154512856Y-82131904D01*
X154512856Y-82131904D02*
X154417618Y-82036666D01*
X154417618Y-82036666D02*
X154227142Y-81941428D01*
X154227142Y-81941428D02*
X153846189Y-81941428D01*
X153846189Y-81941428D02*
X153655713Y-82036666D01*
X151846189Y-81941428D02*
X151846189Y-83274761D01*
X152703332Y-81941428D02*
X152703332Y-82989047D01*
X152703332Y-82989047D02*
X152608094Y-83179523D01*
X152608094Y-83179523D02*
X152417618Y-83274761D01*
X152417618Y-83274761D02*
X152131903Y-83274761D01*
X152131903Y-83274761D02*
X151941427Y-83179523D01*
X151941427Y-83179523D02*
X151846189Y-83084285D01*
X150608094Y-83274761D02*
X150798570Y-83179523D01*
X150798570Y-83179523D02*
X150893808Y-82989047D01*
X150893808Y-82989047D02*
X150893808Y-81274761D01*
X149084284Y-83179523D02*
X149274760Y-83274761D01*
X149274760Y-83274761D02*
X149655713Y-83274761D01*
X149655713Y-83274761D02*
X149846189Y-83179523D01*
X149846189Y-83179523D02*
X149941427Y-82989047D01*
X149941427Y-82989047D02*
X149941427Y-82227142D01*
X149941427Y-82227142D02*
X149846189Y-82036666D01*
X149846189Y-82036666D02*
X149655713Y-81941428D01*
X149655713Y-81941428D02*
X149274760Y-81941428D01*
X149274760Y-81941428D02*
X149084284Y-82036666D01*
X149084284Y-82036666D02*
X148989046Y-82227142D01*
X148989046Y-82227142D02*
X148989046Y-82417619D01*
X148989046Y-82417619D02*
X149941427Y-82608095D01*
X146074760Y-81941428D02*
X146074760Y-83274761D01*
X146550951Y-81179523D02*
X147027141Y-82608095D01*
X147027141Y-82608095D02*
X145789046Y-82608095D01*
D11*
X102103523Y-128542380D02*
X102103523Y-129256666D01*
X102103523Y-129256666D02*
X102151142Y-129399523D01*
X102151142Y-129399523D02*
X102246380Y-129494761D01*
X102246380Y-129494761D02*
X102389237Y-129542380D01*
X102389237Y-129542380D02*
X102484475Y-129542380D01*
X101103523Y-129542380D02*
X101674951Y-129542380D01*
X101389237Y-129542380D02*
X101389237Y-128542380D01*
X101389237Y-128542380D02*
X101484475Y-128685238D01*
X101484475Y-128685238D02*
X101579713Y-128780476D01*
X101579713Y-128780476D02*
X101674951Y-128828095D01*
X100627332Y-129542380D02*
X100436856Y-129542380D01*
X100436856Y-129542380D02*
X100341618Y-129494761D01*
X100341618Y-129494761D02*
X100293999Y-129447142D01*
X100293999Y-129447142D02*
X100198761Y-129304285D01*
X100198761Y-129304285D02*
X100151142Y-129113809D01*
X100151142Y-129113809D02*
X100151142Y-128732857D01*
X100151142Y-128732857D02*
X100198761Y-128637619D01*
X100198761Y-128637619D02*
X100246380Y-128590000D01*
X100246380Y-128590000D02*
X100341618Y-128542380D01*
X100341618Y-128542380D02*
X100532094Y-128542380D01*
X100532094Y-128542380D02*
X100627332Y-128590000D01*
X100627332Y-128590000D02*
X100674951Y-128637619D01*
X100674951Y-128637619D02*
X100722570Y-128732857D01*
X100722570Y-128732857D02*
X100722570Y-128970952D01*
X100722570Y-128970952D02*
X100674951Y-129066190D01*
X100674951Y-129066190D02*
X100627332Y-129113809D01*
X100627332Y-129113809D02*
X100532094Y-129161428D01*
X100532094Y-129161428D02*
X100341618Y-129161428D01*
X100341618Y-129161428D02*
X100246380Y-129113809D01*
X100246380Y-129113809D02*
X100198761Y-129066190D01*
X100198761Y-129066190D02*
X100151142Y-128970952D01*
X132927380Y-88930476D02*
X133641666Y-88930476D01*
X133641666Y-88930476D02*
X133784523Y-88882857D01*
X133784523Y-88882857D02*
X133879761Y-88787619D01*
X133879761Y-88787619D02*
X133927380Y-88644762D01*
X133927380Y-88644762D02*
X133927380Y-88549524D01*
X133927380Y-89930476D02*
X133927380Y-89359048D01*
X133927380Y-89644762D02*
X132927380Y-89644762D01*
X132927380Y-89644762D02*
X133070238Y-89549524D01*
X133070238Y-89549524D02*
X133165476Y-89454286D01*
X133165476Y-89454286D02*
X133213095Y-89359048D01*
X133927380Y-90882857D02*
X133927380Y-90311429D01*
X133927380Y-90597143D02*
X132927380Y-90597143D01*
X132927380Y-90597143D02*
X133070238Y-90501905D01*
X133070238Y-90501905D02*
X133165476Y-90406667D01*
X133165476Y-90406667D02*
X133213095Y-90311429D01*
D13*
X129973808Y-87783690D02*
X129973808Y-87283690D01*
X129973808Y-87521785D02*
X129688094Y-87521785D01*
X129688094Y-87783690D02*
X129688094Y-87283690D01*
X129449998Y-87783690D02*
X129449998Y-87283690D01*
X129449998Y-87283690D02*
X129330950Y-87283690D01*
X129330950Y-87283690D02*
X129259522Y-87307500D01*
X129259522Y-87307500D02*
X129211903Y-87355119D01*
X129211903Y-87355119D02*
X129188093Y-87402738D01*
X129188093Y-87402738D02*
X129164284Y-87497976D01*
X129164284Y-87497976D02*
X129164284Y-87569404D01*
X129164284Y-87569404D02*
X129188093Y-87664642D01*
X129188093Y-87664642D02*
X129211903Y-87712261D01*
X129211903Y-87712261D02*
X129259522Y-87759880D01*
X129259522Y-87759880D02*
X129330950Y-87783690D01*
X129330950Y-87783690D02*
X129449998Y-87783690D01*
X128949998Y-87783690D02*
X128949998Y-87283690D01*
X128949998Y-87283690D02*
X128783331Y-87640833D01*
X128783331Y-87640833D02*
X128616665Y-87283690D01*
X128616665Y-87283690D02*
X128616665Y-87783690D01*
X128378569Y-87783690D02*
X128378569Y-87283690D01*
X128259522Y-87831309D02*
X127878569Y-87831309D01*
X127473808Y-87736071D02*
X127497617Y-87759880D01*
X127497617Y-87759880D02*
X127569046Y-87783690D01*
X127569046Y-87783690D02*
X127616665Y-87783690D01*
X127616665Y-87783690D02*
X127688093Y-87759880D01*
X127688093Y-87759880D02*
X127735712Y-87712261D01*
X127735712Y-87712261D02*
X127759522Y-87664642D01*
X127759522Y-87664642D02*
X127783331Y-87569404D01*
X127783331Y-87569404D02*
X127783331Y-87497976D01*
X127783331Y-87497976D02*
X127759522Y-87402738D01*
X127759522Y-87402738D02*
X127735712Y-87355119D01*
X127735712Y-87355119D02*
X127688093Y-87307500D01*
X127688093Y-87307500D02*
X127616665Y-87283690D01*
X127616665Y-87283690D02*
X127569046Y-87283690D01*
X127569046Y-87283690D02*
X127497617Y-87307500D01*
X127497617Y-87307500D02*
X127473808Y-87331309D01*
X127378570Y-87831309D02*
X126997617Y-87831309D01*
X126616665Y-87783690D02*
X126902379Y-87783690D01*
X126759522Y-87783690D02*
X126759522Y-87283690D01*
X126759522Y-87283690D02*
X126807141Y-87355119D01*
X126807141Y-87355119D02*
X126854760Y-87402738D01*
X126854760Y-87402738D02*
X126902379Y-87426547D01*
X126402380Y-87736071D02*
X126378570Y-87759880D01*
X126378570Y-87759880D02*
X126402380Y-87783690D01*
X126402380Y-87783690D02*
X126426189Y-87759880D01*
X126426189Y-87759880D02*
X126402380Y-87736071D01*
X126402380Y-87736071D02*
X126402380Y-87783690D01*
X125949999Y-87450357D02*
X125949999Y-87783690D01*
X126069047Y-87259880D02*
X126188094Y-87617023D01*
X126188094Y-87617023D02*
X125878571Y-87617023D01*
D11*
X203387380Y-132460476D02*
X204101666Y-132460476D01*
X204101666Y-132460476D02*
X204244523Y-132412857D01*
X204244523Y-132412857D02*
X204339761Y-132317619D01*
X204339761Y-132317619D02*
X204387380Y-132174762D01*
X204387380Y-132174762D02*
X204387380Y-132079524D01*
X204387380Y-133460476D02*
X204387380Y-132889048D01*
X204387380Y-133174762D02*
X203387380Y-133174762D01*
X203387380Y-133174762D02*
X203530238Y-133079524D01*
X203530238Y-133079524D02*
X203625476Y-132984286D01*
X203625476Y-132984286D02*
X203673095Y-132889048D01*
X203387380Y-134365238D02*
X203387380Y-133889048D01*
X203387380Y-133889048D02*
X203863571Y-133841429D01*
X203863571Y-133841429D02*
X203815952Y-133889048D01*
X203815952Y-133889048D02*
X203768333Y-133984286D01*
X203768333Y-133984286D02*
X203768333Y-134222381D01*
X203768333Y-134222381D02*
X203815952Y-134317619D01*
X203815952Y-134317619D02*
X203863571Y-134365238D01*
X203863571Y-134365238D02*
X203958809Y-134412857D01*
X203958809Y-134412857D02*
X204196904Y-134412857D01*
X204196904Y-134412857D02*
X204292142Y-134365238D01*
X204292142Y-134365238D02*
X204339761Y-134317619D01*
X204339761Y-134317619D02*
X204387380Y-134222381D01*
X204387380Y-134222381D02*
X204387380Y-133984286D01*
X204387380Y-133984286D02*
X204339761Y-133889048D01*
X204339761Y-133889048D02*
X204292142Y-133841429D01*
X197403333Y-136865904D02*
X197403333Y-136389714D01*
X197117619Y-136961142D02*
X198117619Y-136627809D01*
X198117619Y-136627809D02*
X197117619Y-136294476D01*
X197784285Y-135532571D02*
X197117619Y-135532571D01*
X197784285Y-135961142D02*
X197260476Y-135961142D01*
X197260476Y-135961142D02*
X197165238Y-135913523D01*
X197165238Y-135913523D02*
X197117619Y-135818285D01*
X197117619Y-135818285D02*
X197117619Y-135675428D01*
X197117619Y-135675428D02*
X197165238Y-135580190D01*
X197165238Y-135580190D02*
X197212857Y-135532571D01*
X197117619Y-134627809D02*
X198117619Y-134627809D01*
X197165238Y-134627809D02*
X197117619Y-134723047D01*
X197117619Y-134723047D02*
X197117619Y-134913523D01*
X197117619Y-134913523D02*
X197165238Y-135008761D01*
X197165238Y-135008761D02*
X197212857Y-135056380D01*
X197212857Y-135056380D02*
X197308095Y-135103999D01*
X197308095Y-135103999D02*
X197593809Y-135103999D01*
X197593809Y-135103999D02*
X197689047Y-135056380D01*
X197689047Y-135056380D02*
X197736666Y-135008761D01*
X197736666Y-135008761D02*
X197784285Y-134913523D01*
X197784285Y-134913523D02*
X197784285Y-134723047D01*
X197784285Y-134723047D02*
X197736666Y-134627809D01*
X197117619Y-134151618D02*
X197784285Y-134151618D01*
X198117619Y-134151618D02*
X198070000Y-134199237D01*
X198070000Y-134199237D02*
X198022380Y-134151618D01*
X198022380Y-134151618D02*
X198070000Y-134103999D01*
X198070000Y-134103999D02*
X198117619Y-134151618D01*
X198117619Y-134151618D02*
X198022380Y-134151618D01*
X197117619Y-133532571D02*
X197165238Y-133627809D01*
X197165238Y-133627809D02*
X197212857Y-133675428D01*
X197212857Y-133675428D02*
X197308095Y-133723047D01*
X197308095Y-133723047D02*
X197593809Y-133723047D01*
X197593809Y-133723047D02*
X197689047Y-133675428D01*
X197689047Y-133675428D02*
X197736666Y-133627809D01*
X197736666Y-133627809D02*
X197784285Y-133532571D01*
X197784285Y-133532571D02*
X197784285Y-133389714D01*
X197784285Y-133389714D02*
X197736666Y-133294476D01*
X197736666Y-133294476D02*
X197689047Y-133246857D01*
X197689047Y-133246857D02*
X197593809Y-133199238D01*
X197593809Y-133199238D02*
X197308095Y-133199238D01*
X197308095Y-133199238D02*
X197212857Y-133246857D01*
X197212857Y-133246857D02*
X197165238Y-133294476D01*
X197165238Y-133294476D02*
X197117619Y-133389714D01*
X197117619Y-133389714D02*
X197117619Y-133532571D01*
X198117619Y-132580190D02*
X198117619Y-132389714D01*
X198117619Y-132389714D02*
X198070000Y-132294476D01*
X198070000Y-132294476D02*
X197974761Y-132199238D01*
X197974761Y-132199238D02*
X197784285Y-132151619D01*
X197784285Y-132151619D02*
X197450952Y-132151619D01*
X197450952Y-132151619D02*
X197260476Y-132199238D01*
X197260476Y-132199238D02*
X197165238Y-132294476D01*
X197165238Y-132294476D02*
X197117619Y-132389714D01*
X197117619Y-132389714D02*
X197117619Y-132580190D01*
X197117619Y-132580190D02*
X197165238Y-132675428D01*
X197165238Y-132675428D02*
X197260476Y-132770666D01*
X197260476Y-132770666D02*
X197450952Y-132818285D01*
X197450952Y-132818285D02*
X197784285Y-132818285D01*
X197784285Y-132818285D02*
X197974761Y-132770666D01*
X197974761Y-132770666D02*
X198070000Y-132675428D01*
X198070000Y-132675428D02*
X198117619Y-132580190D01*
X198117619Y-131723047D02*
X197308095Y-131723047D01*
X197308095Y-131723047D02*
X197212857Y-131675428D01*
X197212857Y-131675428D02*
X197165238Y-131627809D01*
X197165238Y-131627809D02*
X197117619Y-131532571D01*
X197117619Y-131532571D02*
X197117619Y-131342095D01*
X197117619Y-131342095D02*
X197165238Y-131246857D01*
X197165238Y-131246857D02*
X197212857Y-131199238D01*
X197212857Y-131199238D02*
X197308095Y-131151619D01*
X197308095Y-131151619D02*
X198117619Y-131151619D01*
X198117619Y-130818285D02*
X198117619Y-130246857D01*
X197117619Y-130532571D02*
X198117619Y-130532571D01*
X197798380Y-124754666D02*
X198512666Y-124754666D01*
X198512666Y-124754666D02*
X198655523Y-124707047D01*
X198655523Y-124707047D02*
X198750761Y-124611809D01*
X198750761Y-124611809D02*
X198798380Y-124468952D01*
X198798380Y-124468952D02*
X198798380Y-124373714D01*
X197798380Y-125707047D02*
X197798380Y-125230857D01*
X197798380Y-125230857D02*
X198274571Y-125183238D01*
X198274571Y-125183238D02*
X198226952Y-125230857D01*
X198226952Y-125230857D02*
X198179333Y-125326095D01*
X198179333Y-125326095D02*
X198179333Y-125564190D01*
X198179333Y-125564190D02*
X198226952Y-125659428D01*
X198226952Y-125659428D02*
X198274571Y-125707047D01*
X198274571Y-125707047D02*
X198369809Y-125754666D01*
X198369809Y-125754666D02*
X198607904Y-125754666D01*
X198607904Y-125754666D02*
X198703142Y-125707047D01*
X198703142Y-125707047D02*
X198750761Y-125659428D01*
X198750761Y-125659428D02*
X198798380Y-125564190D01*
X198798380Y-125564190D02*
X198798380Y-125326095D01*
X198798380Y-125326095D02*
X198750761Y-125230857D01*
X198750761Y-125230857D02*
X198703142Y-125183238D01*
X163243142Y-85701380D02*
X163243142Y-84701380D01*
X163243142Y-84701380D02*
X162909809Y-85415666D01*
X162909809Y-85415666D02*
X162576476Y-84701380D01*
X162576476Y-84701380D02*
X162576476Y-85701380D01*
X161957428Y-85701380D02*
X162052666Y-85653761D01*
X162052666Y-85653761D02*
X162100285Y-85606142D01*
X162100285Y-85606142D02*
X162147904Y-85510904D01*
X162147904Y-85510904D02*
X162147904Y-85225190D01*
X162147904Y-85225190D02*
X162100285Y-85129952D01*
X162100285Y-85129952D02*
X162052666Y-85082333D01*
X162052666Y-85082333D02*
X161957428Y-85034714D01*
X161957428Y-85034714D02*
X161814571Y-85034714D01*
X161814571Y-85034714D02*
X161719333Y-85082333D01*
X161719333Y-85082333D02*
X161671714Y-85129952D01*
X161671714Y-85129952D02*
X161624095Y-85225190D01*
X161624095Y-85225190D02*
X161624095Y-85510904D01*
X161624095Y-85510904D02*
X161671714Y-85606142D01*
X161671714Y-85606142D02*
X161719333Y-85653761D01*
X161719333Y-85653761D02*
X161814571Y-85701380D01*
X161814571Y-85701380D02*
X161957428Y-85701380D01*
X160766952Y-85701380D02*
X160766952Y-84701380D01*
X160766952Y-85653761D02*
X160862190Y-85701380D01*
X160862190Y-85701380D02*
X161052666Y-85701380D01*
X161052666Y-85701380D02*
X161147904Y-85653761D01*
X161147904Y-85653761D02*
X161195523Y-85606142D01*
X161195523Y-85606142D02*
X161243142Y-85510904D01*
X161243142Y-85510904D02*
X161243142Y-85225190D01*
X161243142Y-85225190D02*
X161195523Y-85129952D01*
X161195523Y-85129952D02*
X161147904Y-85082333D01*
X161147904Y-85082333D02*
X161052666Y-85034714D01*
X161052666Y-85034714D02*
X160862190Y-85034714D01*
X160862190Y-85034714D02*
X160766952Y-85082333D01*
X159862190Y-85034714D02*
X159862190Y-85701380D01*
X160290761Y-85034714D02*
X160290761Y-85558523D01*
X160290761Y-85558523D02*
X160243142Y-85653761D01*
X160243142Y-85653761D02*
X160147904Y-85701380D01*
X160147904Y-85701380D02*
X160005047Y-85701380D01*
X160005047Y-85701380D02*
X159909809Y-85653761D01*
X159909809Y-85653761D02*
X159862190Y-85606142D01*
X159243142Y-85701380D02*
X159338380Y-85653761D01*
X159338380Y-85653761D02*
X159385999Y-85558523D01*
X159385999Y-85558523D02*
X159385999Y-84701380D01*
X158481237Y-85653761D02*
X158576475Y-85701380D01*
X158576475Y-85701380D02*
X158766951Y-85701380D01*
X158766951Y-85701380D02*
X158862189Y-85653761D01*
X158862189Y-85653761D02*
X158909808Y-85558523D01*
X158909808Y-85558523D02*
X158909808Y-85177571D01*
X158909808Y-85177571D02*
X158862189Y-85082333D01*
X158862189Y-85082333D02*
X158766951Y-85034714D01*
X158766951Y-85034714D02*
X158576475Y-85034714D01*
X158576475Y-85034714D02*
X158481237Y-85082333D01*
X158481237Y-85082333D02*
X158433618Y-85177571D01*
X158433618Y-85177571D02*
X158433618Y-85272809D01*
X158433618Y-85272809D02*
X158909808Y-85368047D01*
X157481237Y-85701380D02*
X158052665Y-85701380D01*
X157766951Y-85701380D02*
X157766951Y-84701380D01*
X157766951Y-84701380D02*
X157862189Y-84844238D01*
X157862189Y-84844238D02*
X157957427Y-84939476D01*
X157957427Y-84939476D02*
X158052665Y-84987095D01*
X107579523Y-93797380D02*
X107579523Y-94511666D01*
X107579523Y-94511666D02*
X107627142Y-94654523D01*
X107627142Y-94654523D02*
X107722380Y-94749761D01*
X107722380Y-94749761D02*
X107865237Y-94797380D01*
X107865237Y-94797380D02*
X107960475Y-94797380D01*
X106579523Y-94797380D02*
X107150951Y-94797380D01*
X106865237Y-94797380D02*
X106865237Y-93797380D01*
X106865237Y-93797380D02*
X106960475Y-93940238D01*
X106960475Y-93940238D02*
X107055713Y-94035476D01*
X107055713Y-94035476D02*
X107150951Y-94083095D01*
X105960475Y-93797380D02*
X105865237Y-93797380D01*
X105865237Y-93797380D02*
X105769999Y-93845000D01*
X105769999Y-93845000D02*
X105722380Y-93892619D01*
X105722380Y-93892619D02*
X105674761Y-93987857D01*
X105674761Y-93987857D02*
X105627142Y-94178333D01*
X105627142Y-94178333D02*
X105627142Y-94416428D01*
X105627142Y-94416428D02*
X105674761Y-94606904D01*
X105674761Y-94606904D02*
X105722380Y-94702142D01*
X105722380Y-94702142D02*
X105769999Y-94749761D01*
X105769999Y-94749761D02*
X105865237Y-94797380D01*
X105865237Y-94797380D02*
X105960475Y-94797380D01*
X105960475Y-94797380D02*
X106055713Y-94749761D01*
X106055713Y-94749761D02*
X106103332Y-94702142D01*
X106103332Y-94702142D02*
X106150951Y-94606904D01*
X106150951Y-94606904D02*
X106198570Y-94416428D01*
X106198570Y-94416428D02*
X106198570Y-94178333D01*
X106198570Y-94178333D02*
X106150951Y-93987857D01*
X106150951Y-93987857D02*
X106103332Y-93892619D01*
X106103332Y-93892619D02*
X106055713Y-93845000D01*
X106055713Y-93845000D02*
X105960475Y-93797380D01*
D13*
X104833690Y-86726191D02*
X104333690Y-86726191D01*
X104571785Y-86726191D02*
X104571785Y-87011905D01*
X104833690Y-87011905D02*
X104333690Y-87011905D01*
X104833690Y-87250001D02*
X104333690Y-87250001D01*
X104333690Y-87250001D02*
X104333690Y-87369049D01*
X104333690Y-87369049D02*
X104357500Y-87440477D01*
X104357500Y-87440477D02*
X104405119Y-87488096D01*
X104405119Y-87488096D02*
X104452738Y-87511906D01*
X104452738Y-87511906D02*
X104547976Y-87535715D01*
X104547976Y-87535715D02*
X104619404Y-87535715D01*
X104619404Y-87535715D02*
X104714642Y-87511906D01*
X104714642Y-87511906D02*
X104762261Y-87488096D01*
X104762261Y-87488096D02*
X104809880Y-87440477D01*
X104809880Y-87440477D02*
X104833690Y-87369049D01*
X104833690Y-87369049D02*
X104833690Y-87250001D01*
X104833690Y-87750001D02*
X104333690Y-87750001D01*
X104333690Y-87750001D02*
X104690833Y-87916668D01*
X104690833Y-87916668D02*
X104333690Y-88083334D01*
X104333690Y-88083334D02*
X104833690Y-88083334D01*
X104833690Y-88321430D02*
X104333690Y-88321430D01*
X104881309Y-88440478D02*
X104881309Y-88821430D01*
X104786071Y-89226191D02*
X104809880Y-89202382D01*
X104809880Y-89202382D02*
X104833690Y-89130953D01*
X104833690Y-89130953D02*
X104833690Y-89083334D01*
X104833690Y-89083334D02*
X104809880Y-89011906D01*
X104809880Y-89011906D02*
X104762261Y-88964287D01*
X104762261Y-88964287D02*
X104714642Y-88940477D01*
X104714642Y-88940477D02*
X104619404Y-88916668D01*
X104619404Y-88916668D02*
X104547976Y-88916668D01*
X104547976Y-88916668D02*
X104452738Y-88940477D01*
X104452738Y-88940477D02*
X104405119Y-88964287D01*
X104405119Y-88964287D02*
X104357500Y-89011906D01*
X104357500Y-89011906D02*
X104333690Y-89083334D01*
X104333690Y-89083334D02*
X104333690Y-89130953D01*
X104333690Y-89130953D02*
X104357500Y-89202382D01*
X104357500Y-89202382D02*
X104381309Y-89226191D01*
X104881309Y-89321430D02*
X104881309Y-89702382D01*
X104833690Y-90083334D02*
X104833690Y-89797620D01*
X104833690Y-89940477D02*
X104333690Y-89940477D01*
X104333690Y-89940477D02*
X104405119Y-89892858D01*
X104405119Y-89892858D02*
X104452738Y-89845239D01*
X104452738Y-89845239D02*
X104476547Y-89797620D01*
X104786071Y-90297619D02*
X104809880Y-90321429D01*
X104809880Y-90321429D02*
X104833690Y-90297619D01*
X104833690Y-90297619D02*
X104809880Y-90273810D01*
X104809880Y-90273810D02*
X104786071Y-90297619D01*
X104786071Y-90297619D02*
X104833690Y-90297619D01*
X104500357Y-90750000D02*
X104833690Y-90750000D01*
X104309880Y-90630952D02*
X104667023Y-90511905D01*
X104667023Y-90511905D02*
X104667023Y-90821428D01*
D11*
X197747380Y-107304666D02*
X198461666Y-107304666D01*
X198461666Y-107304666D02*
X198604523Y-107257047D01*
X198604523Y-107257047D02*
X198699761Y-107161809D01*
X198699761Y-107161809D02*
X198747380Y-107018952D01*
X198747380Y-107018952D02*
X198747380Y-106923714D01*
X197747380Y-108209428D02*
X197747380Y-108018952D01*
X197747380Y-108018952D02*
X197795000Y-107923714D01*
X197795000Y-107923714D02*
X197842619Y-107876095D01*
X197842619Y-107876095D02*
X197985476Y-107780857D01*
X197985476Y-107780857D02*
X198175952Y-107733238D01*
X198175952Y-107733238D02*
X198556904Y-107733238D01*
X198556904Y-107733238D02*
X198652142Y-107780857D01*
X198652142Y-107780857D02*
X198699761Y-107828476D01*
X198699761Y-107828476D02*
X198747380Y-107923714D01*
X198747380Y-107923714D02*
X198747380Y-108114190D01*
X198747380Y-108114190D02*
X198699761Y-108209428D01*
X198699761Y-108209428D02*
X198652142Y-108257047D01*
X198652142Y-108257047D02*
X198556904Y-108304666D01*
X198556904Y-108304666D02*
X198318809Y-108304666D01*
X198318809Y-108304666D02*
X198223571Y-108257047D01*
X198223571Y-108257047D02*
X198175952Y-108209428D01*
X198175952Y-108209428D02*
X198128333Y-108114190D01*
X198128333Y-108114190D02*
X198128333Y-107923714D01*
X198128333Y-107923714D02*
X198175952Y-107828476D01*
X198175952Y-107828476D02*
X198223571Y-107780857D01*
X198223571Y-107780857D02*
X198318809Y-107733238D01*
D14*
X99672000Y-116662000D02*
X101222000Y-116662000D01*
X99672000Y-116662000D02*
X99672000Y-116362000D01*
X96872000Y-116362000D02*
X99672000Y-116362000D01*
X102922000Y-114212000D02*
X102922000Y-113412000D01*
X102472000Y-113812000D02*
X102922000Y-114212000D01*
X102922000Y-113412000D02*
X102472000Y-113812000D01*
X96872000Y-108662000D02*
X99672000Y-108662000D01*
X99672000Y-108662000D02*
X99672000Y-108362000D01*
X99672000Y-108362000D02*
X101222000Y-108362000D01*
G36*
X112105754Y-135301012D02*
G01*
X112092309Y-135462186D01*
X112072602Y-135709881D01*
X113291576Y-135709881D01*
X113189215Y-135604271D01*
X113086853Y-135498661D01*
X113269119Y-135316395D01*
X113537165Y-135589956D01*
X113550118Y-135603193D01*
X113650468Y-135707039D01*
X113733431Y-135795096D01*
X113790704Y-135858420D01*
X113813981Y-135888069D01*
X113813667Y-135891405D01*
X113788692Y-135929658D01*
X113730863Y-136000100D01*
X113697289Y-136037967D01*
X113647602Y-136094007D01*
X113546330Y-136202656D01*
X113269909Y-136492691D01*
X113172873Y-136398641D01*
X113075838Y-136304591D01*
X113192830Y-136198896D01*
X113236470Y-136157544D01*
X113289231Y-136100259D01*
X113309821Y-136066671D01*
X113307526Y-136064386D01*
X113263838Y-136056668D01*
X113171416Y-136050006D01*
X113039107Y-136044778D01*
X112875761Y-136041364D01*
X112690223Y-136040141D01*
X112070625Y-136040141D01*
X112091602Y-136332872D01*
X112103923Y-136492491D01*
X112116658Y-136610993D01*
X112124424Y-136650182D01*
X112132060Y-136688711D01*
X112153060Y-136735473D01*
X112182589Y-136761110D01*
X112223578Y-136775452D01*
X112328382Y-136809728D01*
X112475056Y-136874183D01*
X112624764Y-136953647D01*
X112757352Y-137037268D01*
X112852668Y-137114194D01*
X112895871Y-137162520D01*
X112977625Y-137300072D01*
X113017603Y-137447511D01*
X113017278Y-137467725D01*
X113015281Y-137592113D01*
X112970141Y-137721152D01*
X112881659Y-137821907D01*
X112809015Y-137861813D01*
X112671503Y-137893676D01*
X112523241Y-137888690D01*
X112387286Y-137845742D01*
X112362302Y-137832051D01*
X112223489Y-137721022D01*
X112094935Y-137559951D01*
X111982408Y-137357266D01*
X111891672Y-137121392D01*
X111888215Y-137110177D01*
X111887089Y-137106751D01*
X112233204Y-137106751D01*
X112235694Y-137141250D01*
X112263858Y-137209693D01*
X112309109Y-137296393D01*
X112362713Y-137385805D01*
X112415938Y-137462383D01*
X112460053Y-137510581D01*
X112533473Y-137554506D01*
X112613566Y-137566729D01*
X112668021Y-137535462D01*
X112686817Y-137467725D01*
X112659932Y-137370540D01*
X112638705Y-137335705D01*
X112559821Y-137261437D01*
X112430195Y-137186062D01*
X112426588Y-137184278D01*
X112333448Y-137140736D01*
X112264058Y-137112909D01*
X112233204Y-137106751D01*
X111887089Y-137106751D01*
X111874010Y-137066970D01*
X111855878Y-137035820D01*
X111824520Y-137013694D01*
X111770635Y-136997557D01*
X111684921Y-136984376D01*
X111558077Y-136971115D01*
X111380802Y-136954742D01*
X111178142Y-136936071D01*
X111178142Y-137553946D01*
X111178222Y-137605927D01*
X111179800Y-137785991D01*
X111183156Y-137941411D01*
X111187966Y-138063336D01*
X111193909Y-138142916D01*
X111200660Y-138171301D01*
X111202891Y-138170973D01*
X111240066Y-138146817D01*
X111293882Y-138096242D01*
X111337169Y-138052825D01*
X111381430Y-138027746D01*
X111425041Y-138045281D01*
X111488341Y-138106502D01*
X111569585Y-138191303D01*
X111280056Y-138467361D01*
X111231389Y-138513582D01*
X111125426Y-138611700D01*
X111051173Y-138674527D01*
X111000950Y-138707469D01*
X110967074Y-138715930D01*
X110941865Y-138705314D01*
X110909477Y-138677203D01*
X110840676Y-138614043D01*
X110748926Y-138527905D01*
X110645113Y-138428928D01*
X110397022Y-138190646D01*
X110477951Y-138106174D01*
X110521096Y-138062364D01*
X110566855Y-138029053D01*
X110604860Y-138034206D01*
X110654963Y-138074243D01*
X110688953Y-138105192D01*
X110734674Y-138145845D01*
X110768138Y-138167537D01*
X110791243Y-138164399D01*
X110805888Y-138130564D01*
X110813974Y-138060162D01*
X110817398Y-137947327D01*
X110818060Y-137786190D01*
X110817859Y-137570882D01*
X110817859Y-136932568D01*
X110585175Y-136952340D01*
X110449939Y-136964064D01*
X110307741Y-136978185D01*
X110209832Y-136992263D01*
X110147166Y-137008971D01*
X110110695Y-137030986D01*
X110091370Y-137060980D01*
X110080145Y-137101630D01*
X110071514Y-137134852D01*
X110070109Y-137140261D01*
X110021215Y-137272223D01*
X109950967Y-137420297D01*
X109870938Y-137561487D01*
X109792699Y-137672801D01*
X109728364Y-137739592D01*
X109587682Y-137835355D01*
X109432700Y-137889246D01*
X109277294Y-137897401D01*
X109135338Y-137855953D01*
X109075086Y-137809309D01*
X109002088Y-137715105D01*
X108947828Y-137605396D01*
X108927029Y-137504990D01*
X108934116Y-137468450D01*
X109286653Y-137468450D01*
X109289273Y-137521864D01*
X109307909Y-137561545D01*
X109354206Y-137570396D01*
X109374907Y-137568777D01*
X109474424Y-137527928D01*
X109570955Y-137439608D01*
X109655631Y-137313772D01*
X109719579Y-137160373D01*
X109727022Y-137134852D01*
X109725929Y-137110734D01*
X109694844Y-137113750D01*
X109620862Y-137141423D01*
X109597647Y-137151302D01*
X109491466Y-137208827D01*
X109394249Y-137276864D01*
X109342581Y-137323810D01*
X109298437Y-137389936D01*
X109286653Y-137468450D01*
X108934116Y-137468450D01*
X108945359Y-137410486D01*
X108995315Y-137291524D01*
X109065050Y-137175490D01*
X109142697Y-137085467D01*
X109150680Y-137078542D01*
X109243686Y-137011817D01*
X109368281Y-136937764D01*
X109504349Y-136866936D01*
X109631774Y-136809885D01*
X109730439Y-136777163D01*
X109800172Y-136749310D01*
X109840101Y-136710031D01*
X109846222Y-136682561D01*
X109849715Y-136655626D01*
X110198994Y-136655626D01*
X110214898Y-136654307D01*
X110279531Y-136648680D01*
X110382159Y-136639649D01*
X110510116Y-136628325D01*
X110710010Y-136610591D01*
X111178142Y-136610591D01*
X111275719Y-136610804D01*
X111346484Y-136613238D01*
X111458705Y-136620399D01*
X111580692Y-136630600D01*
X111788088Y-136650182D01*
X111768340Y-136506101D01*
X111763019Y-136461307D01*
X111752693Y-136328910D01*
X111748591Y-136201081D01*
X111748591Y-136040141D01*
X111178142Y-136040141D01*
X111178142Y-136610591D01*
X110710010Y-136610591D01*
X110817859Y-136601023D01*
X110817859Y-136037967D01*
X110525128Y-136046560D01*
X110232398Y-136055153D01*
X110214006Y-136355390D01*
X110208788Y-136442987D01*
X110202758Y-136552671D01*
X110199283Y-136627775D01*
X110198994Y-136655626D01*
X109849715Y-136655626D01*
X109856694Y-136601808D01*
X109867539Y-136486452D01*
X109877195Y-136351582D01*
X109896251Y-136040141D01*
X109275949Y-136040141D01*
X109109380Y-136040222D01*
X108943768Y-136040948D01*
X108825467Y-136043060D01*
X108747320Y-136047293D01*
X108702171Y-136054385D01*
X108682864Y-136065073D01*
X108682241Y-136080095D01*
X108693148Y-136100189D01*
X108720965Y-136137839D01*
X108749996Y-136160236D01*
X108750338Y-136160248D01*
X108779059Y-136183567D01*
X108820392Y-136238143D01*
X108820784Y-136238743D01*
X108852402Y-136295148D01*
X108847762Y-136335250D01*
X108803599Y-136388261D01*
X108800701Y-136391312D01*
X108743527Y-136440261D01*
X108699312Y-136460472D01*
X108685361Y-136454127D01*
X108635075Y-136413681D01*
X108560915Y-136344473D01*
X108472482Y-136256552D01*
X108379375Y-136159966D01*
X108291196Y-136064761D01*
X108217545Y-135980985D01*
X108168022Y-135918686D01*
X108152228Y-135887911D01*
X108152978Y-135886418D01*
X108180714Y-135852432D01*
X108241235Y-135785634D01*
X108326299Y-135694961D01*
X108427664Y-135589346D01*
X108694561Y-135314098D01*
X108879124Y-135498661D01*
X108776762Y-135604271D01*
X108674401Y-135709881D01*
X109896182Y-135709881D01*
X109877807Y-135430149D01*
X109873279Y-135366827D01*
X109862528Y-135246309D01*
X109851529Y-135154444D01*
X110194020Y-135154444D01*
X110208110Y-135394633D01*
X110209825Y-135422796D01*
X110218139Y-135537130D01*
X110226686Y-135626081D01*
X110233862Y-135672352D01*
X110240306Y-135681263D01*
X110287043Y-135697635D01*
X110382294Y-135706938D01*
X110531692Y-135709881D01*
X110817859Y-135709881D01*
X111178142Y-135709881D01*
X111748591Y-135709881D01*
X111748852Y-135582281D01*
X111749445Y-135547226D01*
X111755921Y-135425233D01*
X111767176Y-135304407D01*
X111785238Y-135154134D01*
X111178142Y-135209822D01*
X111178142Y-135709881D01*
X110817859Y-135709881D01*
X110817859Y-135208940D01*
X110505939Y-135181692D01*
X110194020Y-135154444D01*
X109851529Y-135154444D01*
X109851399Y-135153358D01*
X109841686Y-135104171D01*
X109833295Y-135091509D01*
X109779413Y-135053788D01*
X109697909Y-135021314D01*
X109686206Y-135017690D01*
X109592304Y-134980644D01*
X109473656Y-134924847D01*
X109353051Y-134860899D01*
X109191559Y-134752348D01*
X109053892Y-134615344D01*
X108967474Y-134468512D01*
X108939777Y-134338572D01*
X109286653Y-134338572D01*
X109308444Y-134434972D01*
X109382152Y-134525068D01*
X109511830Y-134606703D01*
X109593370Y-134643625D01*
X109669484Y-134672295D01*
X109707929Y-134681922D01*
X109723857Y-134668845D01*
X109706988Y-134614030D01*
X109647735Y-134482155D01*
X109560936Y-134350821D01*
X109466979Y-134267724D01*
X109371107Y-134238723D01*
X109320664Y-134243041D01*
X109292564Y-134270159D01*
X109286653Y-134338572D01*
X108939777Y-134338572D01*
X108935157Y-134316899D01*
X108959797Y-134165554D01*
X108965059Y-134151491D01*
X109036474Y-134026621D01*
X109139286Y-133950259D01*
X109282173Y-133915678D01*
X109333946Y-133912194D01*
X109497463Y-133928140D01*
X109637471Y-133992770D01*
X109767863Y-134111688D01*
X109775806Y-134120868D01*
X109870183Y-134250832D01*
X109960647Y-134408162D01*
X110034811Y-134569135D01*
X110066994Y-134668845D01*
X110080287Y-134710029D01*
X110084252Y-134728622D01*
X110092972Y-134759097D01*
X110109703Y-134781575D01*
X110143063Y-134798417D01*
X110201674Y-134811989D01*
X110294154Y-134824653D01*
X110429122Y-134838774D01*
X110615199Y-134856715D01*
X110817859Y-134876215D01*
X110817859Y-133566016D01*
X110697341Y-133683698D01*
X110576824Y-133801380D01*
X110391809Y-133616365D01*
X110672387Y-133344932D01*
X110690441Y-133327506D01*
X110795499Y-133227669D01*
X110884445Y-133145711D01*
X110948370Y-133089702D01*
X110978371Y-133067710D01*
X110981423Y-133068176D01*
X111018949Y-133093993D01*
X111088257Y-133153119D01*
X111180664Y-133237889D01*
X111287484Y-133340631D01*
X111571191Y-133619342D01*
X111389647Y-133800886D01*
X111304770Y-133719568D01*
X111288328Y-133704178D01*
X111232123Y-133657177D01*
X111199017Y-133638250D01*
X111197336Y-133640241D01*
X111191230Y-133682895D01*
X111185956Y-133774413D01*
X111181816Y-133905916D01*
X111179111Y-134068522D01*
X111178142Y-134253352D01*
X111178142Y-134868454D01*
X111410825Y-134850264D01*
X111527891Y-134841019D01*
X111660287Y-134827825D01*
X111751600Y-134810094D01*
X111813048Y-134781878D01*
X111855849Y-134737231D01*
X111889815Y-134672870D01*
X112228970Y-134672870D01*
X112230441Y-134680441D01*
X112252609Y-134686673D01*
X112308825Y-134669578D01*
X112408572Y-134626720D01*
X112531446Y-134562372D01*
X112627552Y-134484746D01*
X112681928Y-134396608D01*
X112687049Y-134381836D01*
X112691759Y-134302447D01*
X112656390Y-134252969D01*
X112593266Y-134237130D01*
X112514709Y-134258660D01*
X112433044Y-134321288D01*
X112392921Y-134371356D01*
X112337487Y-134454443D01*
X112284442Y-134544868D01*
X112244648Y-134623915D01*
X112228970Y-134672870D01*
X111889815Y-134672870D01*
X111891220Y-134670207D01*
X111930381Y-134574859D01*
X111979252Y-134459250D01*
X112082649Y-134257130D01*
X112191089Y-134106977D01*
X112310089Y-134003364D01*
X112445161Y-133940864D01*
X112601820Y-133914050D01*
X112684304Y-133910227D01*
X112763629Y-133915331D01*
X112822204Y-133937537D01*
X112882606Y-133982337D01*
X112951295Y-134059428D01*
X113008158Y-134191939D01*
X113016609Y-134302447D01*
X113019626Y-134341890D01*
X112985257Y-134496061D01*
X112904609Y-134641232D01*
X112876969Y-134671780D01*
X112785651Y-134747015D01*
X112662639Y-134829411D01*
X112524384Y-134909147D01*
X112387333Y-134976401D01*
X112267936Y-135021354D01*
X112249440Y-135026776D01*
X112196606Y-135045632D01*
X112159991Y-135072016D01*
X112135424Y-135116395D01*
X112126778Y-135154134D01*
X112118735Y-135189237D01*
X112105754Y-135301012D01*
G37*
X105394000Y-131175000D02*
X105394000Y-130175000D01*
X105394000Y-130175000D02*
X104394000Y-130175000D01*
X103511886Y-137485000D02*
X102954000Y-137485000D01*
X103511886Y-136865000D02*
X102954000Y-136865000D01*
X103511886Y-135485000D02*
X102954000Y-135485000D01*
X103511886Y-134865000D02*
X102954000Y-134865000D01*
X103511886Y-133485000D02*
X102954000Y-133485000D01*
X103511886Y-132865000D02*
X102954000Y-132865000D01*
X103459000Y-131485000D02*
X102954000Y-131485000D01*
X103459000Y-130865000D02*
X102954000Y-130865000D01*
X102954000Y-138235000D02*
X101334000Y-138235000D01*
X102954000Y-136175000D02*
X101334000Y-136175000D01*
X102954000Y-134175000D02*
X101334000Y-134175000D01*
X102954000Y-132175000D02*
X101334000Y-132175000D01*
X102954000Y-130115000D02*
X102954000Y-138235000D01*
X101334000Y-138235000D02*
X101334000Y-130115000D01*
X101334000Y-136865000D02*
X97134000Y-136865000D01*
X101334000Y-134865000D02*
X97134000Y-134865000D01*
X101334000Y-132865000D02*
X97134000Y-132865000D01*
X101334000Y-131405000D02*
X97134000Y-131405000D01*
X101334000Y-131285000D02*
X97134000Y-131285000D01*
X101334000Y-131165000D02*
X97134000Y-131165000D01*
X101334000Y-131045000D02*
X97134000Y-131045000D01*
X101334000Y-130925000D02*
X97134000Y-130925000D01*
X101334000Y-130865000D02*
X97134000Y-130865000D01*
X101334000Y-130115000D02*
X102954000Y-130115000D01*
X97134000Y-137485000D02*
X101334000Y-137485000D01*
X97134000Y-136865000D02*
X97134000Y-137485000D01*
X97134000Y-135485000D02*
X101334000Y-135485000D01*
X97134000Y-134865000D02*
X97134000Y-135485000D01*
X97134000Y-133485000D02*
X101334000Y-133485000D01*
X97134000Y-132865000D02*
X97134000Y-133485000D01*
X97134000Y-131485000D02*
X101334000Y-131485000D01*
X97134000Y-130865000D02*
X97134000Y-131485000D01*
D15*
X119875000Y-79706750D02*
X119875000Y-82056750D01*
X119875000Y-79706750D02*
X136075000Y-79706750D01*
X119875000Y-84556750D02*
X119875000Y-87456750D01*
X121275000Y-91256750D02*
X122775000Y-91256750D01*
X133575000Y-91256750D02*
X134675000Y-91256750D01*
X136075000Y-82156750D02*
X136075000Y-79706750D01*
X136075000Y-87356750D02*
X136075000Y-84556750D01*
D10*
X133375000Y-91756750D02*
G75*
G03*
X133375000Y-91756750I-100000J0D01*
G01*
G36*
X119741501Y-138116476D02*
G01*
X119822167Y-138146440D01*
X119855714Y-138168954D01*
X119889687Y-138201212D01*
X119913919Y-138242246D01*
X119930001Y-138298108D01*
X119939521Y-138374851D01*
X119944068Y-138478525D01*
X119945231Y-138615184D01*
X119945003Y-138685805D01*
X119943860Y-138782308D01*
X119941919Y-138859323D01*
X119939365Y-138910319D01*
X119936381Y-138928769D01*
X119916962Y-138922667D01*
X119877766Y-138906095D01*
X119876589Y-138905558D01*
X119856235Y-138894903D01*
X119842546Y-138880282D01*
X119834199Y-138854673D01*
X119829874Y-138811054D01*
X119828248Y-138742403D01*
X119828000Y-138641698D01*
X119827500Y-138577813D01*
X119822164Y-138457751D01*
X119809945Y-138369809D01*
X119789552Y-138309375D01*
X119759695Y-138271836D01*
X119719082Y-138252581D01*
X119713448Y-138251239D01*
X119637378Y-138250191D01*
X119578052Y-138284271D01*
X119537077Y-138352598D01*
X119529770Y-138372351D01*
X119513114Y-138416066D01*
X119504679Y-138436155D01*
X119487356Y-138433387D01*
X119449525Y-138418365D01*
X119414240Y-138393556D01*
X119398154Y-138346670D01*
X119402952Y-138313087D01*
X119432431Y-138244967D01*
X119480098Y-138181134D01*
X119535839Y-138136988D01*
X119559193Y-138126782D01*
X119647619Y-138109718D01*
X119741501Y-138116476D01*
G37*
D16*
X119741501Y-138116476D02*
X119822167Y-138146440D01*
X119855714Y-138168954D01*
X119889687Y-138201212D01*
X119913919Y-138242246D01*
X119930001Y-138298108D01*
X119939521Y-138374851D01*
X119944068Y-138478525D01*
X119945231Y-138615184D01*
X119945003Y-138685805D01*
X119943860Y-138782308D01*
X119941919Y-138859323D01*
X119939365Y-138910319D01*
X119936381Y-138928769D01*
X119916962Y-138922667D01*
X119877766Y-138906095D01*
X119876589Y-138905558D01*
X119856235Y-138894903D01*
X119842546Y-138880282D01*
X119834199Y-138854673D01*
X119829874Y-138811054D01*
X119828248Y-138742403D01*
X119828000Y-138641698D01*
X119827500Y-138577813D01*
X119822164Y-138457751D01*
X119809945Y-138369809D01*
X119789552Y-138309375D01*
X119759695Y-138271836D01*
X119719082Y-138252581D01*
X119713448Y-138251239D01*
X119637378Y-138250191D01*
X119578052Y-138284271D01*
X119537077Y-138352598D01*
X119529770Y-138372351D01*
X119513114Y-138416066D01*
X119504679Y-138436155D01*
X119487356Y-138433387D01*
X119449525Y-138418365D01*
X119414240Y-138393556D01*
X119398154Y-138346670D01*
X119402952Y-138313087D01*
X119432431Y-138244967D01*
X119480098Y-138181134D01*
X119535839Y-138136988D01*
X119559193Y-138126782D01*
X119647619Y-138109718D01*
X119741501Y-138116476D01*
G36*
X125056372Y-138071684D02*
G01*
X125147629Y-138114569D01*
X125222416Y-138188729D01*
X125237917Y-138211944D01*
X125250774Y-138238256D01*
X125259893Y-138271420D01*
X125266102Y-138317881D01*
X125270233Y-138384082D01*
X125273116Y-138476468D01*
X125275579Y-138601485D01*
X125281697Y-138948278D01*
X125230303Y-138928738D01*
X125183246Y-138910787D01*
X125148015Y-138893511D01*
X125125017Y-138871242D01*
X125111655Y-138837165D01*
X125105328Y-138784463D01*
X125103437Y-138706323D01*
X125103385Y-138595928D01*
X125103117Y-138507935D01*
X125101521Y-138423502D01*
X125097712Y-138365834D01*
X125090820Y-138327988D01*
X125079975Y-138303024D01*
X125064308Y-138284000D01*
X125025792Y-138257153D01*
X124961091Y-138247034D01*
X124897081Y-138272606D01*
X124892856Y-138275880D01*
X124879689Y-138291007D01*
X124869975Y-138315268D01*
X124862903Y-138354650D01*
X124857656Y-138415141D01*
X124853421Y-138502729D01*
X124849385Y-138623402D01*
X124839615Y-138946515D01*
X124673539Y-138872065D01*
X124673539Y-138577062D01*
X124673883Y-138496919D01*
X124676847Y-138385431D01*
X124684351Y-138302421D01*
X124698190Y-138241199D01*
X124720155Y-138195075D01*
X124752039Y-138157358D01*
X124795633Y-138121358D01*
X124858336Y-138085089D01*
X124957117Y-138061412D01*
X125056372Y-138071684D01*
G37*
X125056372Y-138071684D02*
X125147629Y-138114569D01*
X125222416Y-138188729D01*
X125237917Y-138211944D01*
X125250774Y-138238256D01*
X125259893Y-138271420D01*
X125266102Y-138317881D01*
X125270233Y-138384082D01*
X125273116Y-138476468D01*
X125275579Y-138601485D01*
X125281697Y-138948278D01*
X125230303Y-138928738D01*
X125183246Y-138910787D01*
X125148015Y-138893511D01*
X125125017Y-138871242D01*
X125111655Y-138837165D01*
X125105328Y-138784463D01*
X125103437Y-138706323D01*
X125103385Y-138595928D01*
X125103117Y-138507935D01*
X125101521Y-138423502D01*
X125097712Y-138365834D01*
X125090820Y-138327988D01*
X125079975Y-138303024D01*
X125064308Y-138284000D01*
X125025792Y-138257153D01*
X124961091Y-138247034D01*
X124897081Y-138272606D01*
X124892856Y-138275880D01*
X124879689Y-138291007D01*
X124869975Y-138315268D01*
X124862903Y-138354650D01*
X124857656Y-138415141D01*
X124853421Y-138502729D01*
X124849385Y-138623402D01*
X124839615Y-138946515D01*
X124673539Y-138872065D01*
X124673539Y-138577062D01*
X124673883Y-138496919D01*
X124676847Y-138385431D01*
X124684351Y-138302421D01*
X124698190Y-138241199D01*
X124720155Y-138195075D01*
X124752039Y-138157358D01*
X124795633Y-138121358D01*
X124858336Y-138085089D01*
X124957117Y-138061412D01*
X125056372Y-138071684D01*
G36*
X122601892Y-138137167D02*
G01*
X122608060Y-138140581D01*
X122658447Y-138179692D01*
X122703498Y-138229975D01*
X122711355Y-138241339D01*
X122726376Y-138267860D01*
X122737107Y-138299336D01*
X122744486Y-138342591D01*
X122749452Y-138404449D01*
X122752942Y-138491733D01*
X122755893Y-138611269D01*
X122756311Y-138631478D01*
X122757654Y-138762499D01*
X122755761Y-138855296D01*
X122750605Y-138910507D01*
X122742158Y-138928769D01*
X122716594Y-138923301D01*
X122673166Y-138906733D01*
X122662940Y-138901888D01*
X122646967Y-138890920D01*
X122635954Y-138872890D01*
X122628750Y-138841396D01*
X122624208Y-138790036D01*
X122621180Y-138712410D01*
X122618516Y-138602115D01*
X122617785Y-138569875D01*
X122614965Y-138468050D01*
X122611304Y-138396788D01*
X122605694Y-138349332D01*
X122597029Y-138318925D01*
X122584202Y-138298810D01*
X122566105Y-138282229D01*
X122512525Y-138253161D01*
X122446612Y-138247564D01*
X122387635Y-138269807D01*
X122345203Y-138315859D01*
X122328923Y-138381692D01*
X122328470Y-138399587D01*
X122319578Y-138431982D01*
X122293325Y-138436925D01*
X122241919Y-138417633D01*
X122230013Y-138411446D01*
X122197835Y-138375058D01*
X122197198Y-138320954D01*
X122227856Y-138246128D01*
X122255978Y-138205350D01*
X122327883Y-138147421D01*
X122416638Y-138114670D01*
X122511542Y-138110212D01*
X122601892Y-138137167D01*
G37*
X122601892Y-138137167D02*
X122608060Y-138140581D01*
X122658447Y-138179692D01*
X122703498Y-138229975D01*
X122711355Y-138241339D01*
X122726376Y-138267860D01*
X122737107Y-138299336D01*
X122744486Y-138342591D01*
X122749452Y-138404449D01*
X122752942Y-138491733D01*
X122755893Y-138611269D01*
X122756311Y-138631478D01*
X122757654Y-138762499D01*
X122755761Y-138855296D01*
X122750605Y-138910507D01*
X122742158Y-138928769D01*
X122716594Y-138923301D01*
X122673166Y-138906733D01*
X122662940Y-138901888D01*
X122646967Y-138890920D01*
X122635954Y-138872890D01*
X122628750Y-138841396D01*
X122624208Y-138790036D01*
X122621180Y-138712410D01*
X122618516Y-138602115D01*
X122617785Y-138569875D01*
X122614965Y-138468050D01*
X122611304Y-138396788D01*
X122605694Y-138349332D01*
X122597029Y-138318925D01*
X122584202Y-138298810D01*
X122566105Y-138282229D01*
X122512525Y-138253161D01*
X122446612Y-138247564D01*
X122387635Y-138269807D01*
X122345203Y-138315859D01*
X122328923Y-138381692D01*
X122328470Y-138399587D01*
X122319578Y-138431982D01*
X122293325Y-138436925D01*
X122241919Y-138417633D01*
X122230013Y-138411446D01*
X122197835Y-138375058D01*
X122197198Y-138320954D01*
X122227856Y-138246128D01*
X122255978Y-138205350D01*
X122327883Y-138147421D01*
X122416638Y-138114670D01*
X122511542Y-138110212D01*
X122601892Y-138137167D01*
G36*
X124106923Y-137871806D02*
G01*
X124106923Y-138406455D01*
X124106660Y-138545094D01*
X124105958Y-138669805D01*
X124104883Y-138775557D01*
X124103500Y-138857322D01*
X124101874Y-138910069D01*
X124100070Y-138928769D01*
X124099364Y-138928706D01*
X124075387Y-138921912D01*
X124031685Y-138907320D01*
X123970154Y-138885870D01*
X123970154Y-138610617D01*
X123969763Y-138502466D01*
X123967946Y-138424026D01*
X123963767Y-138370647D01*
X123956286Y-138335256D01*
X123944567Y-138310779D01*
X123927671Y-138290144D01*
X123916152Y-138279170D01*
X123853864Y-138248775D01*
X123785211Y-138251466D01*
X123722298Y-138287406D01*
X123713139Y-138296325D01*
X123698471Y-138314844D01*
X123688433Y-138339326D01*
X123682151Y-138376393D01*
X123678748Y-138432667D01*
X123677349Y-138514771D01*
X123677077Y-138629329D01*
X123676947Y-138687430D01*
X123676099Y-138782993D01*
X123674594Y-138859526D01*
X123672585Y-138910345D01*
X123670223Y-138928769D01*
X123669518Y-138928706D01*
X123645541Y-138921912D01*
X123601839Y-138907320D01*
X123540308Y-138885870D01*
X123540338Y-138609358D01*
X123540384Y-138584742D01*
X123542970Y-138456419D01*
X123550913Y-138359384D01*
X123566155Y-138287057D01*
X123590636Y-138232855D01*
X123626298Y-138190198D01*
X123675082Y-138152505D01*
X123722661Y-138128910D01*
X123798732Y-138110672D01*
X123873556Y-138109636D01*
X123931077Y-138127378D01*
X123935402Y-138129829D01*
X123948738Y-138129566D01*
X123957851Y-138109039D01*
X123964428Y-138061980D01*
X123970154Y-137982120D01*
X123979923Y-137818236D01*
X124106923Y-137871806D01*
G37*
X124106923Y-137871806D02*
X124106923Y-138406455D01*
X124106660Y-138545094D01*
X124105958Y-138669805D01*
X124104883Y-138775557D01*
X124103500Y-138857322D01*
X124101874Y-138910069D01*
X124100070Y-138928769D01*
X124099364Y-138928706D01*
X124075387Y-138921912D01*
X124031685Y-138907320D01*
X123970154Y-138885870D01*
X123970154Y-138610617D01*
X123969763Y-138502466D01*
X123967946Y-138424026D01*
X123963767Y-138370647D01*
X123956286Y-138335256D01*
X123944567Y-138310779D01*
X123927671Y-138290144D01*
X123916152Y-138279170D01*
X123853864Y-138248775D01*
X123785211Y-138251466D01*
X123722298Y-138287406D01*
X123713139Y-138296325D01*
X123698471Y-138314844D01*
X123688433Y-138339326D01*
X123682151Y-138376393D01*
X123678748Y-138432667D01*
X123677349Y-138514771D01*
X123677077Y-138629329D01*
X123676947Y-138687430D01*
X123676099Y-138782993D01*
X123674594Y-138859526D01*
X123672585Y-138910345D01*
X123670223Y-138928769D01*
X123669518Y-138928706D01*
X123645541Y-138921912D01*
X123601839Y-138907320D01*
X123540308Y-138885870D01*
X123540338Y-138609358D01*
X123540384Y-138584742D01*
X123542970Y-138456419D01*
X123550913Y-138359384D01*
X123566155Y-138287057D01*
X123590636Y-138232855D01*
X123626298Y-138190198D01*
X123675082Y-138152505D01*
X123722661Y-138128910D01*
X123798732Y-138110672D01*
X123873556Y-138109636D01*
X123931077Y-138127378D01*
X123935402Y-138129829D01*
X123948738Y-138129566D01*
X123957851Y-138109039D01*
X123964428Y-138061980D01*
X123970154Y-137982120D01*
X123979923Y-137818236D01*
X124106923Y-137871806D01*
G36*
X121317998Y-138114034D02*
G01*
X121360850Y-138130829D01*
X121410615Y-138153503D01*
X121410615Y-138808533D01*
X121348785Y-138870363D01*
X121334662Y-138884228D01*
X121295536Y-138915046D01*
X121256078Y-138925028D01*
X121197362Y-138920433D01*
X121173456Y-138917462D01*
X121111801Y-138911176D01*
X121068692Y-138908672D01*
X121055905Y-138909055D01*
X121003446Y-138913200D01*
X120940022Y-138920433D01*
X120919730Y-138922918D01*
X120868610Y-138923895D01*
X120831207Y-138908462D01*
X120788599Y-138870363D01*
X120726769Y-138808533D01*
X120726769Y-138458343D01*
X120727251Y-138354857D01*
X120728753Y-138256192D01*
X120731089Y-138178068D01*
X120734071Y-138126662D01*
X120737509Y-138108154D01*
X120738230Y-138108204D01*
X120763203Y-138117413D01*
X120805399Y-138137707D01*
X120862549Y-138167261D01*
X120867928Y-138474746D01*
X120873308Y-138782231D01*
X120990539Y-138782231D01*
X120995885Y-138445192D01*
X120997579Y-138353574D01*
X121000005Y-138255649D01*
X121002634Y-138177906D01*
X121005246Y-138126642D01*
X121007623Y-138108154D01*
X121008306Y-138108219D01*
X121031996Y-138115020D01*
X121075546Y-138129604D01*
X121137077Y-138151054D01*
X121137376Y-138447104D01*
X121137676Y-138498532D01*
X121139754Y-138598466D01*
X121143470Y-138681925D01*
X121148430Y-138741377D01*
X121154240Y-138769287D01*
X121175024Y-138784214D01*
X121217440Y-138788825D01*
X121264077Y-138782231D01*
X121269423Y-138445192D01*
X121271336Y-138359546D01*
X121275303Y-138258172D01*
X121280491Y-138178655D01*
X121286499Y-138126736D01*
X121292927Y-138108154D01*
X121317998Y-138114034D01*
G37*
X121317998Y-138114034D02*
X121360850Y-138130829D01*
X121410615Y-138153503D01*
X121410615Y-138808533D01*
X121348785Y-138870363D01*
X121334662Y-138884228D01*
X121295536Y-138915046D01*
X121256078Y-138925028D01*
X121197362Y-138920433D01*
X121173456Y-138917462D01*
X121111801Y-138911176D01*
X121068692Y-138908672D01*
X121055905Y-138909055D01*
X121003446Y-138913200D01*
X120940022Y-138920433D01*
X120919730Y-138922918D01*
X120868610Y-138923895D01*
X120831207Y-138908462D01*
X120788599Y-138870363D01*
X120726769Y-138808533D01*
X120726769Y-138458343D01*
X120727251Y-138354857D01*
X120728753Y-138256192D01*
X120731089Y-138178068D01*
X120734071Y-138126662D01*
X120737509Y-138108154D01*
X120738230Y-138108204D01*
X120763203Y-138117413D01*
X120805399Y-138137707D01*
X120862549Y-138167261D01*
X120867928Y-138474746D01*
X120873308Y-138782231D01*
X120990539Y-138782231D01*
X120995885Y-138445192D01*
X120997579Y-138353574D01*
X121000005Y-138255649D01*
X121002634Y-138177906D01*
X121005246Y-138126642D01*
X121007623Y-138108154D01*
X121008306Y-138108219D01*
X121031996Y-138115020D01*
X121075546Y-138129604D01*
X121137077Y-138151054D01*
X121137376Y-138447104D01*
X121137676Y-138498532D01*
X121139754Y-138598466D01*
X121143470Y-138681925D01*
X121148430Y-138741377D01*
X121154240Y-138769287D01*
X121175024Y-138784214D01*
X121217440Y-138788825D01*
X121264077Y-138782231D01*
X121269423Y-138445192D01*
X121271336Y-138359546D01*
X121275303Y-138258172D01*
X121280491Y-138178655D01*
X121286499Y-138126736D01*
X121292927Y-138108154D01*
X121317998Y-138114034D01*
G36*
X127526135Y-138520105D02*
G01*
X127525076Y-138614584D01*
X127521436Y-138680414D01*
X127513892Y-138726394D01*
X127501122Y-138761321D01*
X127481803Y-138793995D01*
X127477050Y-138800775D01*
X127426759Y-138854231D01*
X127369457Y-138894547D01*
X127340032Y-138907629D01*
X127234299Y-138929450D01*
X127129734Y-138915336D01*
X127033368Y-138867105D01*
X126952235Y-138786579D01*
X126945385Y-138775791D01*
X126923097Y-138713153D01*
X126908079Y-138625935D01*
X126900792Y-138525210D01*
X126901611Y-138432037D01*
X127098796Y-138432037D01*
X127100349Y-138561114D01*
X127100974Y-138569420D01*
X127110077Y-138640643D01*
X127126288Y-138685809D01*
X127153660Y-138716752D01*
X127199553Y-138745737D01*
X127244942Y-138747261D01*
X127291692Y-138713846D01*
X127299824Y-138705053D01*
X127315754Y-138678741D01*
X127325159Y-138640520D01*
X127329632Y-138581349D01*
X127330769Y-138492182D01*
X127328822Y-138408664D01*
X127319105Y-138329095D01*
X127299047Y-138278808D01*
X127266240Y-138252513D01*
X127218280Y-138244923D01*
X127200016Y-138246432D01*
X127148848Y-138274107D01*
X127115035Y-138336172D01*
X127098796Y-138432037D01*
X126901611Y-138432037D01*
X126901699Y-138422052D01*
X126911262Y-138327533D01*
X126929943Y-138252727D01*
X126953951Y-138202905D01*
X127021536Y-138125409D01*
X127113114Y-138077256D01*
X127225213Y-138060703D01*
X127255151Y-138061599D01*
X127343315Y-138079929D01*
X127415733Y-138126104D01*
X127482192Y-138205648D01*
X127486147Y-138211548D01*
X127504040Y-138243288D01*
X127515678Y-138279163D01*
X127522371Y-138327906D01*
X127525426Y-138398249D01*
X127526106Y-138492182D01*
X127526154Y-138498923D01*
X127526135Y-138520105D01*
G37*
X127526135Y-138520105D02*
X127525076Y-138614584D01*
X127521436Y-138680414D01*
X127513892Y-138726394D01*
X127501122Y-138761321D01*
X127481803Y-138793995D01*
X127477050Y-138800775D01*
X127426759Y-138854231D01*
X127369457Y-138894547D01*
X127340032Y-138907629D01*
X127234299Y-138929450D01*
X127129734Y-138915336D01*
X127033368Y-138867105D01*
X126952235Y-138786579D01*
X126945385Y-138775791D01*
X126923097Y-138713153D01*
X126908079Y-138625935D01*
X126900792Y-138525210D01*
X126901611Y-138432037D01*
X127098796Y-138432037D01*
X127100349Y-138561114D01*
X127100974Y-138569420D01*
X127110077Y-138640643D01*
X127126288Y-138685809D01*
X127153660Y-138716752D01*
X127199553Y-138745737D01*
X127244942Y-138747261D01*
X127291692Y-138713846D01*
X127299824Y-138705053D01*
X127315754Y-138678741D01*
X127325159Y-138640520D01*
X127329632Y-138581349D01*
X127330769Y-138492182D01*
X127328822Y-138408664D01*
X127319105Y-138329095D01*
X127299047Y-138278808D01*
X127266240Y-138252513D01*
X127218280Y-138244923D01*
X127200016Y-138246432D01*
X127148848Y-138274107D01*
X127115035Y-138336172D01*
X127098796Y-138432037D01*
X126901611Y-138432037D01*
X126901699Y-138422052D01*
X126911262Y-138327533D01*
X126929943Y-138252727D01*
X126953951Y-138202905D01*
X127021536Y-138125409D01*
X127113114Y-138077256D01*
X127225213Y-138060703D01*
X127255151Y-138061599D01*
X127343315Y-138079929D01*
X127415733Y-138126104D01*
X127482192Y-138205648D01*
X127486147Y-138211548D01*
X127504040Y-138243288D01*
X127515678Y-138279163D01*
X127522371Y-138327906D01*
X127525426Y-138398249D01*
X127526106Y-138492182D01*
X127526154Y-138498923D01*
X127526135Y-138520105D01*
G36*
X119280413Y-138574449D02*
G01*
X119275641Y-138677047D01*
X119263150Y-138752126D01*
X119240121Y-138807748D01*
X119203732Y-138851975D01*
X119151162Y-138892869D01*
X119117714Y-138911466D01*
X119064098Y-138923991D01*
X118988780Y-138923003D01*
X118946672Y-138919035D01*
X118895879Y-138906920D01*
X118855280Y-138880585D01*
X118808049Y-138831514D01*
X118801738Y-138824346D01*
X118759277Y-138769189D01*
X118739018Y-138721150D01*
X118733846Y-138664184D01*
X118733846Y-138580471D01*
X118792346Y-138602552D01*
X118834994Y-138628364D01*
X118872064Y-138688928D01*
X118879803Y-138708320D01*
X118923074Y-138763235D01*
X118981976Y-138790879D01*
X119046111Y-138788393D01*
X119105077Y-138752923D01*
X119125342Y-138730805D01*
X119143720Y-138697436D01*
X119137971Y-138667117D01*
X119104887Y-138635913D01*
X119041261Y-138599887D01*
X118943885Y-138555103D01*
X118743615Y-138467445D01*
X118738301Y-138380607D01*
X118740299Y-138325296D01*
X118870783Y-138325296D01*
X118880688Y-138359538D01*
X118925756Y-138396096D01*
X119007557Y-138437692D01*
X119021092Y-138443718D01*
X119085818Y-138471753D01*
X119134247Y-138491472D01*
X119156751Y-138498923D01*
X119160161Y-138493438D01*
X119161529Y-138459948D01*
X119156651Y-138406116D01*
X119144364Y-138353473D01*
X119106041Y-138287151D01*
X119050720Y-138249780D01*
X118984640Y-138244721D01*
X118914040Y-138275339D01*
X118894474Y-138290648D01*
X118870783Y-138325296D01*
X118740299Y-138325296D01*
X118740647Y-138315663D01*
X118770186Y-138233590D01*
X118807472Y-138188361D01*
X118884776Y-138137838D01*
X118976478Y-138112316D01*
X119071274Y-138114336D01*
X119157859Y-138146440D01*
X119176920Y-138158767D01*
X119220640Y-138196912D01*
X119250540Y-138245167D01*
X119268968Y-138310710D01*
X119278270Y-138400720D01*
X119279499Y-138459948D01*
X119280794Y-138522376D01*
X119280413Y-138574449D01*
G37*
X119280413Y-138574449D02*
X119275641Y-138677047D01*
X119263150Y-138752126D01*
X119240121Y-138807748D01*
X119203732Y-138851975D01*
X119151162Y-138892869D01*
X119117714Y-138911466D01*
X119064098Y-138923991D01*
X118988780Y-138923003D01*
X118946672Y-138919035D01*
X118895879Y-138906920D01*
X118855280Y-138880585D01*
X118808049Y-138831514D01*
X118801738Y-138824346D01*
X118759277Y-138769189D01*
X118739018Y-138721150D01*
X118733846Y-138664184D01*
X118733846Y-138580471D01*
X118792346Y-138602552D01*
X118834994Y-138628364D01*
X118872064Y-138688928D01*
X118879803Y-138708320D01*
X118923074Y-138763235D01*
X118981976Y-138790879D01*
X119046111Y-138788393D01*
X119105077Y-138752923D01*
X119125342Y-138730805D01*
X119143720Y-138697436D01*
X119137971Y-138667117D01*
X119104887Y-138635913D01*
X119041261Y-138599887D01*
X118943885Y-138555103D01*
X118743615Y-138467445D01*
X118738301Y-138380607D01*
X118740299Y-138325296D01*
X118870783Y-138325296D01*
X118880688Y-138359538D01*
X118925756Y-138396096D01*
X119007557Y-138437692D01*
X119021092Y-138443718D01*
X119085818Y-138471753D01*
X119134247Y-138491472D01*
X119156751Y-138498923D01*
X119160161Y-138493438D01*
X119161529Y-138459948D01*
X119156651Y-138406116D01*
X119144364Y-138353473D01*
X119106041Y-138287151D01*
X119050720Y-138249780D01*
X118984640Y-138244721D01*
X118914040Y-138275339D01*
X118894474Y-138290648D01*
X118870783Y-138325296D01*
X118740299Y-138325296D01*
X118740647Y-138315663D01*
X118770186Y-138233590D01*
X118807472Y-138188361D01*
X118884776Y-138137838D01*
X118976478Y-138112316D01*
X119071274Y-138114336D01*
X119157859Y-138146440D01*
X119176920Y-138158767D01*
X119220640Y-138196912D01*
X119250540Y-138245167D01*
X119268968Y-138310710D01*
X119278270Y-138400720D01*
X119279499Y-138459948D01*
X119280794Y-138522376D01*
X119280413Y-138574449D01*
G36*
X122092839Y-138594652D02*
G01*
X122081810Y-138698507D01*
X122057814Y-138776333D01*
X122018043Y-138835760D01*
X121959688Y-138884418D01*
X121904100Y-138912546D01*
X121810751Y-138928199D01*
X121717530Y-138911084D01*
X121633272Y-138863388D01*
X121566818Y-138787294D01*
X121558793Y-138773262D01*
X121548196Y-138748679D01*
X121540335Y-138717309D01*
X121534807Y-138673769D01*
X121531206Y-138612678D01*
X121529128Y-138528655D01*
X121529064Y-138521200D01*
X121664615Y-138521200D01*
X121665077Y-138592316D01*
X121667999Y-138656641D01*
X121675221Y-138698166D01*
X121688561Y-138726067D01*
X121709836Y-138749517D01*
X121714821Y-138754025D01*
X121778863Y-138787295D01*
X121846625Y-138783890D01*
X121909734Y-138744042D01*
X121928526Y-138723398D01*
X121944254Y-138696029D01*
X121953039Y-138658192D01*
X121956859Y-138600355D01*
X121957692Y-138512986D01*
X121957281Y-138446319D01*
X121954434Y-138381245D01*
X121947256Y-138339251D01*
X121933889Y-138311063D01*
X121912472Y-138287406D01*
X121899890Y-138276753D01*
X121834699Y-138248057D01*
X121766400Y-138252575D01*
X121707098Y-138290144D01*
X121694333Y-138305040D01*
X121678764Y-138333089D01*
X121669762Y-138372258D01*
X121665617Y-138431858D01*
X121664615Y-138521200D01*
X121529064Y-138521200D01*
X121528167Y-138416320D01*
X121527919Y-138270289D01*
X121527846Y-137816963D01*
X121591346Y-137843564D01*
X121608136Y-137850845D01*
X121634859Y-137867287D01*
X121650156Y-137892187D01*
X121658563Y-137935732D01*
X121664615Y-138008106D01*
X121670144Y-138073089D01*
X121677450Y-138115750D01*
X121687918Y-138131670D01*
X121703692Y-138127400D01*
X121743890Y-138112397D01*
X121815728Y-138108678D01*
X121893010Y-138122572D01*
X121959688Y-138152505D01*
X121996371Y-138180211D01*
X122043472Y-138234269D01*
X122073638Y-138303577D01*
X122089678Y-138395765D01*
X122094191Y-138512986D01*
X122094401Y-138518462D01*
X122092839Y-138594652D01*
G37*
X122092839Y-138594652D02*
X122081810Y-138698507D01*
X122057814Y-138776333D01*
X122018043Y-138835760D01*
X121959688Y-138884418D01*
X121904100Y-138912546D01*
X121810751Y-138928199D01*
X121717530Y-138911084D01*
X121633272Y-138863388D01*
X121566818Y-138787294D01*
X121558793Y-138773262D01*
X121548196Y-138748679D01*
X121540335Y-138717309D01*
X121534807Y-138673769D01*
X121531206Y-138612678D01*
X121529128Y-138528655D01*
X121529064Y-138521200D01*
X121664615Y-138521200D01*
X121665077Y-138592316D01*
X121667999Y-138656641D01*
X121675221Y-138698166D01*
X121688561Y-138726067D01*
X121709836Y-138749517D01*
X121714821Y-138754025D01*
X121778863Y-138787295D01*
X121846625Y-138783890D01*
X121909734Y-138744042D01*
X121928526Y-138723398D01*
X121944254Y-138696029D01*
X121953039Y-138658192D01*
X121956859Y-138600355D01*
X121957692Y-138512986D01*
X121957281Y-138446319D01*
X121954434Y-138381245D01*
X121947256Y-138339251D01*
X121933889Y-138311063D01*
X121912472Y-138287406D01*
X121899890Y-138276753D01*
X121834699Y-138248057D01*
X121766400Y-138252575D01*
X121707098Y-138290144D01*
X121694333Y-138305040D01*
X121678764Y-138333089D01*
X121669762Y-138372258D01*
X121665617Y-138431858D01*
X121664615Y-138521200D01*
X121529064Y-138521200D01*
X121528167Y-138416320D01*
X121527919Y-138270289D01*
X121527846Y-137816963D01*
X121591346Y-137843564D01*
X121608136Y-137850845D01*
X121634859Y-137867287D01*
X121650156Y-137892187D01*
X121658563Y-137935732D01*
X121664615Y-138008106D01*
X121670144Y-138073089D01*
X121677450Y-138115750D01*
X121687918Y-138131670D01*
X121703692Y-138127400D01*
X121743890Y-138112397D01*
X121815728Y-138108678D01*
X121893010Y-138122572D01*
X121959688Y-138152505D01*
X121996371Y-138180211D01*
X122043472Y-138234269D01*
X122073638Y-138303577D01*
X122089678Y-138395765D01*
X122094191Y-138512986D01*
X122094401Y-138518462D01*
X122092839Y-138594652D01*
G36*
X126034574Y-138591643D02*
G01*
X126031066Y-138623021D01*
X126004927Y-138734705D01*
X125957694Y-138819642D01*
X125885862Y-138884741D01*
X125881802Y-138887428D01*
X125790487Y-138925634D01*
X125695144Y-138929034D01*
X125603274Y-138899939D01*
X125522379Y-138840660D01*
X125459962Y-138753510D01*
X125458914Y-138751409D01*
X125438173Y-138697289D01*
X125422980Y-138635781D01*
X125414921Y-138578039D01*
X125415582Y-138535215D01*
X125426548Y-138518462D01*
X125436290Y-138519480D01*
X125482877Y-138538009D01*
X125535682Y-138572081D01*
X125580603Y-138611522D01*
X125603535Y-138646155D01*
X125627373Y-138693133D01*
X125676230Y-138735862D01*
X125732963Y-138752923D01*
X125753758Y-138747990D01*
X125794804Y-138723157D01*
X125830557Y-138688685D01*
X125845846Y-138657411D01*
X125845842Y-138657295D01*
X125828495Y-138642933D01*
X125782247Y-138617025D01*
X125714067Y-138583210D01*
X125630923Y-138545129D01*
X125630466Y-138544927D01*
X125540138Y-138504709D01*
X125479592Y-138475733D01*
X125442888Y-138453474D01*
X125424086Y-138433407D01*
X125417246Y-138411009D01*
X125416429Y-138381756D01*
X125422113Y-138326363D01*
X125615000Y-138326363D01*
X125634911Y-138343777D01*
X125684521Y-138369872D01*
X125685976Y-138370610D01*
X125744506Y-138398483D01*
X125796868Y-138420719D01*
X125830086Y-138430126D01*
X125843410Y-138417552D01*
X125845846Y-138374468D01*
X125835724Y-138320847D01*
X125800631Y-138272119D01*
X125749823Y-138246856D01*
X125693181Y-138249406D01*
X125640584Y-138284120D01*
X125619910Y-138308107D01*
X125615000Y-138326363D01*
X125422113Y-138326363D01*
X125423622Y-138311654D01*
X125459184Y-138216412D01*
X125518714Y-138141567D01*
X125595746Y-138089745D01*
X125683815Y-138063573D01*
X125776454Y-138065676D01*
X125867198Y-138098681D01*
X125949579Y-138165215D01*
X125995222Y-138231055D01*
X126028008Y-138325036D01*
X126033339Y-138374468D01*
X126040787Y-138443536D01*
X126034574Y-138591643D01*
G37*
X126034574Y-138591643D02*
X126031066Y-138623021D01*
X126004927Y-138734705D01*
X125957694Y-138819642D01*
X125885862Y-138884741D01*
X125881802Y-138887428D01*
X125790487Y-138925634D01*
X125695144Y-138929034D01*
X125603274Y-138899939D01*
X125522379Y-138840660D01*
X125459962Y-138753510D01*
X125458914Y-138751409D01*
X125438173Y-138697289D01*
X125422980Y-138635781D01*
X125414921Y-138578039D01*
X125415582Y-138535215D01*
X125426548Y-138518462D01*
X125436290Y-138519480D01*
X125482877Y-138538009D01*
X125535682Y-138572081D01*
X125580603Y-138611522D01*
X125603535Y-138646155D01*
X125627373Y-138693133D01*
X125676230Y-138735862D01*
X125732963Y-138752923D01*
X125753758Y-138747990D01*
X125794804Y-138723157D01*
X125830557Y-138688685D01*
X125845846Y-138657411D01*
X125845842Y-138657295D01*
X125828495Y-138642933D01*
X125782247Y-138617025D01*
X125714067Y-138583210D01*
X125630923Y-138545129D01*
X125630466Y-138544927D01*
X125540138Y-138504709D01*
X125479592Y-138475733D01*
X125442888Y-138453474D01*
X125424086Y-138433407D01*
X125417246Y-138411009D01*
X125416429Y-138381756D01*
X125422113Y-138326363D01*
X125615000Y-138326363D01*
X125634911Y-138343777D01*
X125684521Y-138369872D01*
X125685976Y-138370610D01*
X125744506Y-138398483D01*
X125796868Y-138420719D01*
X125830086Y-138430126D01*
X125843410Y-138417552D01*
X125845846Y-138374468D01*
X125835724Y-138320847D01*
X125800631Y-138272119D01*
X125749823Y-138246856D01*
X125693181Y-138249406D01*
X125640584Y-138284120D01*
X125619910Y-138308107D01*
X125615000Y-138326363D01*
X125422113Y-138326363D01*
X125423622Y-138311654D01*
X125459184Y-138216412D01*
X125518714Y-138141567D01*
X125595746Y-138089745D01*
X125683815Y-138063573D01*
X125776454Y-138065676D01*
X125867198Y-138098681D01*
X125949579Y-138165215D01*
X125995222Y-138231055D01*
X126028008Y-138325036D01*
X126033339Y-138374468D01*
X126040787Y-138443536D01*
X126034574Y-138591643D01*
G36*
X123250458Y-138129228D02*
G01*
X123317622Y-138168389D01*
X123347169Y-138198902D01*
X123403948Y-138290110D01*
X123423077Y-138389548D01*
X123423077Y-138457960D01*
X123360191Y-138431518D01*
X123316700Y-138404837D01*
X123282426Y-138349446D01*
X123278907Y-138338024D01*
X123241028Y-138279838D01*
X123183936Y-138248407D01*
X123118383Y-138247058D01*
X123055117Y-138279116D01*
X123045672Y-138287383D01*
X123014087Y-138323311D01*
X123008871Y-138354635D01*
X123032765Y-138385391D01*
X123088510Y-138419617D01*
X123178846Y-138461350D01*
X123184956Y-138463993D01*
X123285241Y-138510755D01*
X123353735Y-138552181D01*
X123395899Y-138593542D01*
X123417193Y-138640111D01*
X123423077Y-138697160D01*
X123415366Y-138760408D01*
X123376430Y-138841364D01*
X123307932Y-138899522D01*
X123258388Y-138916983D01*
X123188469Y-138926537D01*
X123120575Y-138924496D01*
X123072093Y-138910082D01*
X123066943Y-138906493D01*
X123053267Y-138881416D01*
X123062757Y-138837218D01*
X123079246Y-138802527D01*
X123105687Y-138788084D01*
X123155834Y-138788803D01*
X123225453Y-138784660D01*
X123270943Y-138756054D01*
X123286308Y-138703104D01*
X123286294Y-138701582D01*
X123276983Y-138670845D01*
X123245311Y-138642643D01*
X123183731Y-138610136D01*
X123099986Y-138570998D01*
X123044518Y-138549706D01*
X123012497Y-138551079D01*
X122997534Y-138579203D01*
X122993242Y-138638170D01*
X122993231Y-138732068D01*
X122992752Y-138790031D01*
X122990556Y-138861612D01*
X122986986Y-138910606D01*
X122982491Y-138928769D01*
X122981290Y-138928646D01*
X122955319Y-138918802D01*
X122912305Y-138898028D01*
X122852859Y-138867287D01*
X122859923Y-138590298D01*
X122860414Y-138571928D01*
X122866025Y-138442992D01*
X122875938Y-138345814D01*
X122892175Y-138273925D01*
X122916759Y-138220852D01*
X122951715Y-138180127D01*
X122999064Y-138145279D01*
X122999940Y-138144733D01*
X123076499Y-138116303D01*
X123165044Y-138111500D01*
X123250458Y-138129228D01*
G37*
X123250458Y-138129228D02*
X123317622Y-138168389D01*
X123347169Y-138198902D01*
X123403948Y-138290110D01*
X123423077Y-138389548D01*
X123423077Y-138457960D01*
X123360191Y-138431518D01*
X123316700Y-138404837D01*
X123282426Y-138349446D01*
X123278907Y-138338024D01*
X123241028Y-138279838D01*
X123183936Y-138248407D01*
X123118383Y-138247058D01*
X123055117Y-138279116D01*
X123045672Y-138287383D01*
X123014087Y-138323311D01*
X123008871Y-138354635D01*
X123032765Y-138385391D01*
X123088510Y-138419617D01*
X123178846Y-138461350D01*
X123184956Y-138463993D01*
X123285241Y-138510755D01*
X123353735Y-138552181D01*
X123395899Y-138593542D01*
X123417193Y-138640111D01*
X123423077Y-138697160D01*
X123415366Y-138760408D01*
X123376430Y-138841364D01*
X123307932Y-138899522D01*
X123258388Y-138916983D01*
X123188469Y-138926537D01*
X123120575Y-138924496D01*
X123072093Y-138910082D01*
X123066943Y-138906493D01*
X123053267Y-138881416D01*
X123062757Y-138837218D01*
X123079246Y-138802527D01*
X123105687Y-138788084D01*
X123155834Y-138788803D01*
X123225453Y-138784660D01*
X123270943Y-138756054D01*
X123286308Y-138703104D01*
X123286294Y-138701582D01*
X123276983Y-138670845D01*
X123245311Y-138642643D01*
X123183731Y-138610136D01*
X123099986Y-138570998D01*
X123044518Y-138549706D01*
X123012497Y-138551079D01*
X122997534Y-138579203D01*
X122993242Y-138638170D01*
X122993231Y-138732068D01*
X122992752Y-138790031D01*
X122990556Y-138861612D01*
X122986986Y-138910606D01*
X122982491Y-138928769D01*
X122981290Y-138928646D01*
X122955319Y-138918802D01*
X122912305Y-138898028D01*
X122852859Y-138867287D01*
X122859923Y-138590298D01*
X122860414Y-138571928D01*
X122866025Y-138442992D01*
X122875938Y-138345814D01*
X122892175Y-138273925D01*
X122916759Y-138220852D01*
X122951715Y-138180127D01*
X122999064Y-138145279D01*
X122999940Y-138144733D01*
X123076499Y-138116303D01*
X123165044Y-138111500D01*
X123250458Y-138129228D01*
G36*
X126779763Y-138738269D02*
G01*
X126780300Y-138781802D01*
X126782019Y-138927344D01*
X126782365Y-139038711D01*
X126780277Y-139119804D01*
X126774698Y-139174522D01*
X126764567Y-139206761D01*
X126748826Y-139220422D01*
X126726417Y-139219403D01*
X126696280Y-139207603D01*
X126657355Y-139188920D01*
X126649038Y-139184933D01*
X126614402Y-139165419D01*
X126596314Y-139142202D01*
X126589392Y-139103492D01*
X126588256Y-139037497D01*
X126588205Y-138919000D01*
X126466141Y-138919000D01*
X126391055Y-138915712D01*
X126332015Y-138902377D01*
X126282986Y-138875423D01*
X126279330Y-138872788D01*
X126229581Y-138828286D01*
X126194959Y-138774523D01*
X126173123Y-138704154D01*
X126161737Y-138609830D01*
X126158959Y-138503271D01*
X126353846Y-138503271D01*
X126353880Y-138521131D01*
X126355735Y-138601748D01*
X126361693Y-138654447D01*
X126373506Y-138688668D01*
X126392923Y-138713846D01*
X126394133Y-138715049D01*
X126441858Y-138747628D01*
X126488110Y-138744417D01*
X126540350Y-138704965D01*
X126553128Y-138691482D01*
X126571949Y-138663837D01*
X126582562Y-138627880D01*
X126587252Y-138573364D01*
X126588308Y-138490042D01*
X126587394Y-138439598D01*
X126577477Y-138347857D01*
X126554842Y-138287752D01*
X126517238Y-138254900D01*
X126462416Y-138244923D01*
X126439317Y-138247050D01*
X126399350Y-138268147D01*
X126372926Y-138315161D01*
X126358330Y-138392175D01*
X126353846Y-138503271D01*
X126158959Y-138503271D01*
X126158462Y-138484206D01*
X126159187Y-138392536D01*
X126162490Y-138323098D01*
X126169828Y-138274945D01*
X126182655Y-138238866D01*
X126202423Y-138205648D01*
X126220569Y-138180261D01*
X126286461Y-138111727D01*
X126361114Y-138074505D01*
X126454904Y-138062722D01*
X126562240Y-138074467D01*
X126655031Y-138116595D01*
X126728421Y-138190898D01*
X126733954Y-138198764D01*
X126746857Y-138219668D01*
X126756742Y-138243555D01*
X126764093Y-138275582D01*
X126769394Y-138320905D01*
X126773127Y-138384679D01*
X126775778Y-138472060D01*
X126776096Y-138490042D01*
X126777828Y-138588205D01*
X126779763Y-138738269D01*
G37*
X126779763Y-138738269D02*
X126780300Y-138781802D01*
X126782019Y-138927344D01*
X126782365Y-139038711D01*
X126780277Y-139119804D01*
X126774698Y-139174522D01*
X126764567Y-139206761D01*
X126748826Y-139220422D01*
X126726417Y-139219403D01*
X126696280Y-139207603D01*
X126657355Y-139188920D01*
X126649038Y-139184933D01*
X126614402Y-139165419D01*
X126596314Y-139142202D01*
X126589392Y-139103492D01*
X126588256Y-139037497D01*
X126588205Y-138919000D01*
X126466141Y-138919000D01*
X126391055Y-138915712D01*
X126332015Y-138902377D01*
X126282986Y-138875423D01*
X126279330Y-138872788D01*
X126229581Y-138828286D01*
X126194959Y-138774523D01*
X126173123Y-138704154D01*
X126161737Y-138609830D01*
X126158959Y-138503271D01*
X126353846Y-138503271D01*
X126353880Y-138521131D01*
X126355735Y-138601748D01*
X126361693Y-138654447D01*
X126373506Y-138688668D01*
X126392923Y-138713846D01*
X126394133Y-138715049D01*
X126441858Y-138747628D01*
X126488110Y-138744417D01*
X126540350Y-138704965D01*
X126553128Y-138691482D01*
X126571949Y-138663837D01*
X126582562Y-138627880D01*
X126587252Y-138573364D01*
X126588308Y-138490042D01*
X126587394Y-138439598D01*
X126577477Y-138347857D01*
X126554842Y-138287752D01*
X126517238Y-138254900D01*
X126462416Y-138244923D01*
X126439317Y-138247050D01*
X126399350Y-138268147D01*
X126372926Y-138315161D01*
X126358330Y-138392175D01*
X126353846Y-138503271D01*
X126158959Y-138503271D01*
X126158462Y-138484206D01*
X126159187Y-138392536D01*
X126162490Y-138323098D01*
X126169828Y-138274945D01*
X126182655Y-138238866D01*
X126202423Y-138205648D01*
X126220569Y-138180261D01*
X126286461Y-138111727D01*
X126361114Y-138074505D01*
X126454904Y-138062722D01*
X126562240Y-138074467D01*
X126655031Y-138116595D01*
X126728421Y-138190898D01*
X126733954Y-138198764D01*
X126746857Y-138219668D01*
X126756742Y-138243555D01*
X126764093Y-138275582D01*
X126769394Y-138320905D01*
X126773127Y-138384679D01*
X126775778Y-138472060D01*
X126776096Y-138490042D01*
X126777828Y-138588205D01*
X126779763Y-138738269D01*
G36*
X120393936Y-138109911D02*
G01*
X120435807Y-138120547D01*
X120474791Y-138147062D01*
X120524965Y-138196420D01*
X120557232Y-138231279D01*
X120590844Y-138276534D01*
X120606003Y-138318951D01*
X120609539Y-138372768D01*
X120609539Y-138460850D01*
X120549470Y-138429787D01*
X120501867Y-138391936D01*
X120469261Y-138340950D01*
X120463661Y-138327088D01*
X120420992Y-138273358D01*
X120361707Y-138246417D01*
X120297061Y-138249039D01*
X120238308Y-138284000D01*
X120213450Y-138312394D01*
X120198970Y-138348718D01*
X120214470Y-138381046D01*
X120262667Y-138413565D01*
X120346274Y-138450461D01*
X120358962Y-138455557D01*
X120435078Y-138488907D01*
X120500396Y-138521793D01*
X120541953Y-138547769D01*
X120583576Y-138594167D01*
X120611247Y-138668211D01*
X120608310Y-138747670D01*
X120575571Y-138822868D01*
X120513841Y-138884131D01*
X120463858Y-138910210D01*
X120367303Y-138928470D01*
X120313647Y-138926007D01*
X120263976Y-138912687D01*
X120244919Y-138884739D01*
X120252045Y-138838710D01*
X120254118Y-138832624D01*
X120270556Y-138800349D01*
X120297926Y-138788133D01*
X120350068Y-138788950D01*
X120386884Y-138790061D01*
X120429961Y-138780528D01*
X120459475Y-138752026D01*
X120476286Y-138716935D01*
X120478161Y-138680175D01*
X120478074Y-138679961D01*
X120456279Y-138660098D01*
X120409632Y-138631192D01*
X120349278Y-138598886D01*
X120286360Y-138568823D01*
X120232023Y-138546646D01*
X120197410Y-138538000D01*
X120192260Y-138546467D01*
X120185778Y-138586309D01*
X120181339Y-138651371D01*
X120179692Y-138733385D01*
X120179309Y-138790153D01*
X120177505Y-138861648D01*
X120174558Y-138910610D01*
X120170843Y-138928769D01*
X120151424Y-138922667D01*
X120112227Y-138906095D01*
X120062462Y-138883420D01*
X120062462Y-138592509D01*
X120062780Y-138517940D01*
X120065789Y-138404701D01*
X120073454Y-138320692D01*
X120087562Y-138259520D01*
X120109899Y-138214795D01*
X120142253Y-138180124D01*
X120186410Y-138149117D01*
X120242667Y-138123528D01*
X120346540Y-138108154D01*
X120393936Y-138109911D01*
G37*
X120393936Y-138109911D02*
X120435807Y-138120547D01*
X120474791Y-138147062D01*
X120524965Y-138196420D01*
X120557232Y-138231279D01*
X120590844Y-138276534D01*
X120606003Y-138318951D01*
X120609539Y-138372768D01*
X120609539Y-138460850D01*
X120549470Y-138429787D01*
X120501867Y-138391936D01*
X120469261Y-138340950D01*
X120463661Y-138327088D01*
X120420992Y-138273358D01*
X120361707Y-138246417D01*
X120297061Y-138249039D01*
X120238308Y-138284000D01*
X120213450Y-138312394D01*
X120198970Y-138348718D01*
X120214470Y-138381046D01*
X120262667Y-138413565D01*
X120346274Y-138450461D01*
X120358962Y-138455557D01*
X120435078Y-138488907D01*
X120500396Y-138521793D01*
X120541953Y-138547769D01*
X120583576Y-138594167D01*
X120611247Y-138668211D01*
X120608310Y-138747670D01*
X120575571Y-138822868D01*
X120513841Y-138884131D01*
X120463858Y-138910210D01*
X120367303Y-138928470D01*
X120313647Y-138926007D01*
X120263976Y-138912687D01*
X120244919Y-138884739D01*
X120252045Y-138838710D01*
X120254118Y-138832624D01*
X120270556Y-138800349D01*
X120297926Y-138788133D01*
X120350068Y-138788950D01*
X120386884Y-138790061D01*
X120429961Y-138780528D01*
X120459475Y-138752026D01*
X120476286Y-138716935D01*
X120478161Y-138680175D01*
X120478074Y-138679961D01*
X120456279Y-138660098D01*
X120409632Y-138631192D01*
X120349278Y-138598886D01*
X120286360Y-138568823D01*
X120232023Y-138546646D01*
X120197410Y-138538000D01*
X120192260Y-138546467D01*
X120185778Y-138586309D01*
X120181339Y-138651371D01*
X120179692Y-138733385D01*
X120179309Y-138790153D01*
X120177505Y-138861648D01*
X120174558Y-138910610D01*
X120170843Y-138928769D01*
X120151424Y-138922667D01*
X120112227Y-138906095D01*
X120062462Y-138883420D01*
X120062462Y-138592509D01*
X120062780Y-138517940D01*
X120065789Y-138404701D01*
X120073454Y-138320692D01*
X120087562Y-138259520D01*
X120109899Y-138214795D01*
X120142253Y-138180124D01*
X120186410Y-138149117D01*
X120242667Y-138123528D01*
X120346540Y-138108154D01*
X120393936Y-138109911D01*
G36*
X123147575Y-131777693D02*
G01*
X123283371Y-131777807D01*
X123385576Y-131778472D01*
X123459122Y-131780182D01*
X123508942Y-131783429D01*
X123539967Y-131788706D01*
X123557129Y-131796507D01*
X123565361Y-131807325D01*
X123569594Y-131821654D01*
X123569716Y-131822168D01*
X123576672Y-131855851D01*
X123589320Y-131920917D01*
X123606360Y-132010542D01*
X123626496Y-132117904D01*
X123648429Y-132236178D01*
X123650218Y-132245856D01*
X123672083Y-132360650D01*
X123692430Y-132461480D01*
X123709934Y-132542217D01*
X123723271Y-132596734D01*
X123731116Y-132618901D01*
X123731158Y-132618936D01*
X123755884Y-132631200D01*
X123806631Y-132651576D01*
X123872462Y-132675674D01*
X123876169Y-132676983D01*
X123960331Y-132708791D01*
X124058230Y-132748685D01*
X124149435Y-132788353D01*
X124299407Y-132856420D01*
X124631499Y-132629639D01*
X124654889Y-132613688D01*
X124755080Y-132545890D01*
X124844480Y-132486208D01*
X124917745Y-132438156D01*
X124969527Y-132405250D01*
X124994480Y-132391004D01*
X125011577Y-132394270D01*
X125050395Y-132419571D01*
X125110385Y-132469675D01*
X125193210Y-132545989D01*
X125300535Y-132649922D01*
X125310139Y-132659382D01*
X125395302Y-132744145D01*
X125470949Y-132820937D01*
X125532449Y-132884947D01*
X125575173Y-132931361D01*
X125594489Y-132955369D01*
X125594552Y-132955485D01*
X125597006Y-132973763D01*
X125587956Y-133003411D01*
X125565119Y-133048486D01*
X125526213Y-133113044D01*
X125468954Y-133201140D01*
X125391059Y-133316830D01*
X125377785Y-133336357D01*
X125310652Y-133435278D01*
X125251410Y-133522848D01*
X125203588Y-133593831D01*
X125170715Y-133642991D01*
X125156318Y-133665095D01*
X125155232Y-133669777D01*
X125162044Y-133704710D01*
X125182450Y-133761753D01*
X125213123Y-133831172D01*
X125254808Y-133921959D01*
X125301352Y-134029686D01*
X125340877Y-134127192D01*
X125350676Y-134152430D01*
X125376340Y-134216870D01*
X125395193Y-134261763D01*
X125403710Y-134278616D01*
X125413111Y-134279875D01*
X125455363Y-134287159D01*
X125524521Y-134299739D01*
X125613387Y-134316246D01*
X125714768Y-134335312D01*
X125821467Y-134355569D01*
X125926288Y-134375647D01*
X126022036Y-134394179D01*
X126101516Y-134409795D01*
X126157530Y-134421127D01*
X126182885Y-134426807D01*
X126187088Y-134428408D01*
X126197334Y-134437045D01*
X126204957Y-134455433D01*
X126210338Y-134488460D01*
X126213859Y-134541013D01*
X126215901Y-134617979D01*
X126216847Y-134724246D01*
X126217077Y-134864701D01*
X126217077Y-135291845D01*
X126114500Y-135312091D01*
X126102092Y-135314518D01*
X126036199Y-135327088D01*
X125945084Y-135344170D01*
X125839104Y-135363829D01*
X125728615Y-135384132D01*
X125685105Y-135392299D01*
X125587882Y-135412167D01*
X125506858Y-135430954D01*
X125449477Y-135446859D01*
X125423187Y-135458079D01*
X125411273Y-135476411D01*
X125389583Y-135524916D01*
X125367395Y-135587692D01*
X125359585Y-135611200D01*
X125330835Y-135688366D01*
X125293752Y-135779694D01*
X125254375Y-135870093D01*
X125233315Y-135917310D01*
X125203311Y-135987837D01*
X125182692Y-136040655D01*
X125175026Y-136066912D01*
X125175452Y-136068894D01*
X125189993Y-136096751D01*
X125222783Y-136150510D01*
X125270493Y-136224963D01*
X125329798Y-136314897D01*
X125397369Y-136415104D01*
X125619713Y-136741416D01*
X125327601Y-137034016D01*
X125299349Y-137062171D01*
X125212961Y-137146449D01*
X125135756Y-137219128D01*
X125072258Y-137276112D01*
X125026990Y-137313307D01*
X125004474Y-137326616D01*
X124980023Y-137316490D01*
X124928819Y-137287421D01*
X124856747Y-137242896D01*
X124769460Y-137186411D01*
X124672612Y-137121462D01*
X124577486Y-137057314D01*
X124491669Y-137000827D01*
X124421652Y-136956184D01*
X124372876Y-136926855D01*
X124350783Y-136916308D01*
X124349488Y-136916404D01*
X124320139Y-136926802D01*
X124268093Y-136951012D01*
X124203708Y-136984249D01*
X124203032Y-136984613D01*
X124117521Y-137027441D01*
X124058926Y-137048365D01*
X124022571Y-137048423D01*
X124003775Y-137028654D01*
X123995819Y-137009195D01*
X123974347Y-136957080D01*
X123941273Y-136876964D01*
X123898356Y-136773107D01*
X123847356Y-136649767D01*
X123790033Y-136511201D01*
X123728146Y-136361670D01*
X123672052Y-136225636D01*
X123614977Y-136086050D01*
X123564479Y-135961315D01*
X123522254Y-135855672D01*
X123489995Y-135773365D01*
X123469397Y-135718635D01*
X123462154Y-135695726D01*
X123475986Y-135674718D01*
X123514412Y-135639642D01*
X123568807Y-135598887D01*
X123699395Y-135492267D01*
X123816260Y-135356025D01*
X123901780Y-135206118D01*
X123955431Y-135046971D01*
X123976684Y-134883012D01*
X123965014Y-134718667D01*
X123919894Y-134558361D01*
X123840797Y-134406520D01*
X123727197Y-134267572D01*
X123667965Y-134213460D01*
X123526054Y-134117782D01*
X123374206Y-134055405D01*
X123216861Y-134024844D01*
X123058456Y-134024615D01*
X122903429Y-134053232D01*
X122756220Y-134109210D01*
X122621266Y-134191064D01*
X122503005Y-134297309D01*
X122405877Y-134426459D01*
X122334318Y-134577031D01*
X122292769Y-134747539D01*
X122285143Y-134829722D01*
X122295634Y-135007775D01*
X122342882Y-135176704D01*
X122425489Y-135333522D01*
X122542059Y-135475245D01*
X122691193Y-135598887D01*
X122743561Y-135637982D01*
X122782832Y-135673443D01*
X122797846Y-135695692D01*
X122791859Y-135715088D01*
X122772432Y-135767059D01*
X122741194Y-135847002D01*
X122699839Y-135950673D01*
X122650061Y-136073832D01*
X122593553Y-136212234D01*
X122532009Y-136361637D01*
X122476008Y-136497020D01*
X122418184Y-136636852D01*
X122366500Y-136761872D01*
X122322718Y-136867822D01*
X122288597Y-136950441D01*
X122265898Y-137005472D01*
X122256380Y-137028654D01*
X122256269Y-137028928D01*
X122237228Y-137048503D01*
X122200694Y-137048279D01*
X122141954Y-137027210D01*
X122056292Y-136984249D01*
X122049549Y-136980631D01*
X121985938Y-136948087D01*
X121935707Y-136925050D01*
X121909218Y-136916308D01*
X121887506Y-136926639D01*
X121838984Y-136955788D01*
X121769163Y-137000287D01*
X121683484Y-137056668D01*
X121587388Y-137121462D01*
X121492706Y-137184984D01*
X121405132Y-137241705D01*
X121332642Y-137286547D01*
X121280889Y-137316016D01*
X121255526Y-137326616D01*
X121251206Y-137325270D01*
X121221092Y-137304056D01*
X121169640Y-137260237D01*
X121101375Y-137197909D01*
X121020820Y-137121170D01*
X120932500Y-137034116D01*
X120640488Y-136741617D01*
X121095360Y-136072525D01*
X121026208Y-135922916D01*
X121026003Y-135922473D01*
X120984477Y-135827101D01*
X120942044Y-135720896D01*
X120907858Y-135626769D01*
X120902684Y-135611588D01*
X120876601Y-135541109D01*
X120853081Y-135486342D01*
X120836677Y-135458079D01*
X120829996Y-135454088D01*
X120789892Y-135440697D01*
X120721795Y-135423373D01*
X120633145Y-135403917D01*
X120531385Y-135384132D01*
X120500904Y-135378551D01*
X120390628Y-135358233D01*
X120287731Y-135339095D01*
X120202569Y-135323070D01*
X120145500Y-135312091D01*
X120042923Y-135291845D01*
X120042923Y-134864701D01*
X120042946Y-134812180D01*
X120043379Y-134684047D01*
X120044659Y-134588420D01*
X120047168Y-134520411D01*
X120051286Y-134475133D01*
X120057395Y-134447697D01*
X120065878Y-134433218D01*
X120077115Y-134426807D01*
X120087994Y-134424209D01*
X120132347Y-134415022D01*
X120203106Y-134400991D01*
X120293074Y-134383486D01*
X120395056Y-134363874D01*
X120501857Y-134343525D01*
X120606281Y-134323807D01*
X120701132Y-134306089D01*
X120779214Y-134291738D01*
X120833332Y-134282124D01*
X120856291Y-134278616D01*
X120857842Y-134276497D01*
X120870325Y-134249006D01*
X120891927Y-134196406D01*
X120919123Y-134127192D01*
X120956866Y-134033937D01*
X121003328Y-133926159D01*
X121046878Y-133831172D01*
X121056858Y-133809851D01*
X121084862Y-133743086D01*
X121101641Y-133691590D01*
X121103854Y-133665095D01*
X121102713Y-133663218D01*
X121084584Y-133635565D01*
X121048644Y-133581849D01*
X120998418Y-133507303D01*
X120937430Y-133417162D01*
X120869205Y-133316657D01*
X120792330Y-133202470D01*
X120734663Y-133113770D01*
X120695426Y-133048721D01*
X120672350Y-133003295D01*
X120663166Y-132973463D01*
X120665604Y-132955195D01*
X120666424Y-132953825D01*
X120688477Y-132927205D01*
X120733436Y-132878697D01*
X120796673Y-132813108D01*
X120873559Y-132735247D01*
X120959465Y-132649922D01*
X121048579Y-132563334D01*
X121135872Y-132481947D01*
X121200018Y-132427035D01*
X121242679Y-132397190D01*
X121265521Y-132391004D01*
X121268505Y-132392394D01*
X121299936Y-132411127D01*
X121356997Y-132447733D01*
X121434343Y-132498697D01*
X121526626Y-132560504D01*
X121628502Y-132629639D01*
X121960593Y-132856420D01*
X122110566Y-132788353D01*
X122114923Y-132786381D01*
X122207000Y-132746491D01*
X122304683Y-132706818D01*
X122387539Y-132675674D01*
X122387905Y-132675545D01*
X122453685Y-132651456D01*
X122504323Y-132631110D01*
X122528884Y-132618901D01*
X122529282Y-132618458D01*
X122537619Y-132593456D01*
X122551341Y-132536598D01*
X122569123Y-132454014D01*
X122589641Y-132351831D01*
X122611571Y-132236178D01*
X122612336Y-132232033D01*
X122634229Y-132114019D01*
X122654281Y-132007151D01*
X122671192Y-131918252D01*
X122683667Y-131854145D01*
X122690406Y-131821654D01*
X122690837Y-131819853D01*
X122695273Y-131805944D01*
X122704263Y-131795489D01*
X122722737Y-131787996D01*
X122755628Y-131782972D01*
X122807868Y-131779922D01*
X122884388Y-131778355D01*
X122990122Y-131777776D01*
X123130000Y-131777692D01*
X123147575Y-131777693D01*
G37*
X123147575Y-131777693D02*
X123283371Y-131777807D01*
X123385576Y-131778472D01*
X123459122Y-131780182D01*
X123508942Y-131783429D01*
X123539967Y-131788706D01*
X123557129Y-131796507D01*
X123565361Y-131807325D01*
X123569594Y-131821654D01*
X123569716Y-131822168D01*
X123576672Y-131855851D01*
X123589320Y-131920917D01*
X123606360Y-132010542D01*
X123626496Y-132117904D01*
X123648429Y-132236178D01*
X123650218Y-132245856D01*
X123672083Y-132360650D01*
X123692430Y-132461480D01*
X123709934Y-132542217D01*
X123723271Y-132596734D01*
X123731116Y-132618901D01*
X123731158Y-132618936D01*
X123755884Y-132631200D01*
X123806631Y-132651576D01*
X123872462Y-132675674D01*
X123876169Y-132676983D01*
X123960331Y-132708791D01*
X124058230Y-132748685D01*
X124149435Y-132788353D01*
X124299407Y-132856420D01*
X124631499Y-132629639D01*
X124654889Y-132613688D01*
X124755080Y-132545890D01*
X124844480Y-132486208D01*
X124917745Y-132438156D01*
X124969527Y-132405250D01*
X124994480Y-132391004D01*
X125011577Y-132394270D01*
X125050395Y-132419571D01*
X125110385Y-132469675D01*
X125193210Y-132545989D01*
X125300535Y-132649922D01*
X125310139Y-132659382D01*
X125395302Y-132744145D01*
X125470949Y-132820937D01*
X125532449Y-132884947D01*
X125575173Y-132931361D01*
X125594489Y-132955369D01*
X125594552Y-132955485D01*
X125597006Y-132973763D01*
X125587956Y-133003411D01*
X125565119Y-133048486D01*
X125526213Y-133113044D01*
X125468954Y-133201140D01*
X125391059Y-133316830D01*
X125377785Y-133336357D01*
X125310652Y-133435278D01*
X125251410Y-133522848D01*
X125203588Y-133593831D01*
X125170715Y-133642991D01*
X125156318Y-133665095D01*
X125155232Y-133669777D01*
X125162044Y-133704710D01*
X125182450Y-133761753D01*
X125213123Y-133831172D01*
X125254808Y-133921959D01*
X125301352Y-134029686D01*
X125340877Y-134127192D01*
X125350676Y-134152430D01*
X125376340Y-134216870D01*
X125395193Y-134261763D01*
X125403710Y-134278616D01*
X125413111Y-134279875D01*
X125455363Y-134287159D01*
X125524521Y-134299739D01*
X125613387Y-134316246D01*
X125714768Y-134335312D01*
X125821467Y-134355569D01*
X125926288Y-134375647D01*
X126022036Y-134394179D01*
X126101516Y-134409795D01*
X126157530Y-134421127D01*
X126182885Y-134426807D01*
X126187088Y-134428408D01*
X126197334Y-134437045D01*
X126204957Y-134455433D01*
X126210338Y-134488460D01*
X126213859Y-134541013D01*
X126215901Y-134617979D01*
X126216847Y-134724246D01*
X126217077Y-134864701D01*
X126217077Y-135291845D01*
X126114500Y-135312091D01*
X126102092Y-135314518D01*
X126036199Y-135327088D01*
X125945084Y-135344170D01*
X125839104Y-135363829D01*
X125728615Y-135384132D01*
X125685105Y-135392299D01*
X125587882Y-135412167D01*
X125506858Y-135430954D01*
X125449477Y-135446859D01*
X125423187Y-135458079D01*
X125411273Y-135476411D01*
X125389583Y-135524916D01*
X125367395Y-135587692D01*
X125359585Y-135611200D01*
X125330835Y-135688366D01*
X125293752Y-135779694D01*
X125254375Y-135870093D01*
X125233315Y-135917310D01*
X125203311Y-135987837D01*
X125182692Y-136040655D01*
X125175026Y-136066912D01*
X125175452Y-136068894D01*
X125189993Y-136096751D01*
X125222783Y-136150510D01*
X125270493Y-136224963D01*
X125329798Y-136314897D01*
X125397369Y-136415104D01*
X125619713Y-136741416D01*
X125327601Y-137034016D01*
X125299349Y-137062171D01*
X125212961Y-137146449D01*
X125135756Y-137219128D01*
X125072258Y-137276112D01*
X125026990Y-137313307D01*
X125004474Y-137326616D01*
X124980023Y-137316490D01*
X124928819Y-137287421D01*
X124856747Y-137242896D01*
X124769460Y-137186411D01*
X124672612Y-137121462D01*
X124577486Y-137057314D01*
X124491669Y-137000827D01*
X124421652Y-136956184D01*
X124372876Y-136926855D01*
X124350783Y-136916308D01*
X124349488Y-136916404D01*
X124320139Y-136926802D01*
X124268093Y-136951012D01*
X124203708Y-136984249D01*
X124203032Y-136984613D01*
X124117521Y-137027441D01*
X124058926Y-137048365D01*
X124022571Y-137048423D01*
X124003775Y-137028654D01*
X123995819Y-137009195D01*
X123974347Y-136957080D01*
X123941273Y-136876964D01*
X123898356Y-136773107D01*
X123847356Y-136649767D01*
X123790033Y-136511201D01*
X123728146Y-136361670D01*
X123672052Y-136225636D01*
X123614977Y-136086050D01*
X123564479Y-135961315D01*
X123522254Y-135855672D01*
X123489995Y-135773365D01*
X123469397Y-135718635D01*
X123462154Y-135695726D01*
X123475986Y-135674718D01*
X123514412Y-135639642D01*
X123568807Y-135598887D01*
X123699395Y-135492267D01*
X123816260Y-135356025D01*
X123901780Y-135206118D01*
X123955431Y-135046971D01*
X123976684Y-134883012D01*
X123965014Y-134718667D01*
X123919894Y-134558361D01*
X123840797Y-134406520D01*
X123727197Y-134267572D01*
X123667965Y-134213460D01*
X123526054Y-134117782D01*
X123374206Y-134055405D01*
X123216861Y-134024844D01*
X123058456Y-134024615D01*
X122903429Y-134053232D01*
X122756220Y-134109210D01*
X122621266Y-134191064D01*
X122503005Y-134297309D01*
X122405877Y-134426459D01*
X122334318Y-134577031D01*
X122292769Y-134747539D01*
X122285143Y-134829722D01*
X122295634Y-135007775D01*
X122342882Y-135176704D01*
X122425489Y-135333522D01*
X122542059Y-135475245D01*
X122691193Y-135598887D01*
X122743561Y-135637982D01*
X122782832Y-135673443D01*
X122797846Y-135695692D01*
X122791859Y-135715088D01*
X122772432Y-135767059D01*
X122741194Y-135847002D01*
X122699839Y-135950673D01*
X122650061Y-136073832D01*
X122593553Y-136212234D01*
X122532009Y-136361637D01*
X122476008Y-136497020D01*
X122418184Y-136636852D01*
X122366500Y-136761872D01*
X122322718Y-136867822D01*
X122288597Y-136950441D01*
X122265898Y-137005472D01*
X122256380Y-137028654D01*
X122256269Y-137028928D01*
X122237228Y-137048503D01*
X122200694Y-137048279D01*
X122141954Y-137027210D01*
X122056292Y-136984249D01*
X122049549Y-136980631D01*
X121985938Y-136948087D01*
X121935707Y-136925050D01*
X121909218Y-136916308D01*
X121887506Y-136926639D01*
X121838984Y-136955788D01*
X121769163Y-137000287D01*
X121683484Y-137056668D01*
X121587388Y-137121462D01*
X121492706Y-137184984D01*
X121405132Y-137241705D01*
X121332642Y-137286547D01*
X121280889Y-137316016D01*
X121255526Y-137326616D01*
X121251206Y-137325270D01*
X121221092Y-137304056D01*
X121169640Y-137260237D01*
X121101375Y-137197909D01*
X121020820Y-137121170D01*
X120932500Y-137034116D01*
X120640488Y-136741617D01*
X121095360Y-136072525D01*
X121026208Y-135922916D01*
X121026003Y-135922473D01*
X120984477Y-135827101D01*
X120942044Y-135720896D01*
X120907858Y-135626769D01*
X120902684Y-135611588D01*
X120876601Y-135541109D01*
X120853081Y-135486342D01*
X120836677Y-135458079D01*
X120829996Y-135454088D01*
X120789892Y-135440697D01*
X120721795Y-135423373D01*
X120633145Y-135403917D01*
X120531385Y-135384132D01*
X120500904Y-135378551D01*
X120390628Y-135358233D01*
X120287731Y-135339095D01*
X120202569Y-135323070D01*
X120145500Y-135312091D01*
X120042923Y-135291845D01*
X120042923Y-134864701D01*
X120042946Y-134812180D01*
X120043379Y-134684047D01*
X120044659Y-134588420D01*
X120047168Y-134520411D01*
X120051286Y-134475133D01*
X120057395Y-134447697D01*
X120065878Y-134433218D01*
X120077115Y-134426807D01*
X120087994Y-134424209D01*
X120132347Y-134415022D01*
X120203106Y-134400991D01*
X120293074Y-134383486D01*
X120395056Y-134363874D01*
X120501857Y-134343525D01*
X120606281Y-134323807D01*
X120701132Y-134306089D01*
X120779214Y-134291738D01*
X120833332Y-134282124D01*
X120856291Y-134278616D01*
X120857842Y-134276497D01*
X120870325Y-134249006D01*
X120891927Y-134196406D01*
X120919123Y-134127192D01*
X120956866Y-134033937D01*
X121003328Y-133926159D01*
X121046878Y-133831172D01*
X121056858Y-133809851D01*
X121084862Y-133743086D01*
X121101641Y-133691590D01*
X121103854Y-133665095D01*
X121102713Y-133663218D01*
X121084584Y-133635565D01*
X121048644Y-133581849D01*
X120998418Y-133507303D01*
X120937430Y-133417162D01*
X120869205Y-133316657D01*
X120792330Y-133202470D01*
X120734663Y-133113770D01*
X120695426Y-133048721D01*
X120672350Y-133003295D01*
X120663166Y-132973463D01*
X120665604Y-132955195D01*
X120666424Y-132953825D01*
X120688477Y-132927205D01*
X120733436Y-132878697D01*
X120796673Y-132813108D01*
X120873559Y-132735247D01*
X120959465Y-132649922D01*
X121048579Y-132563334D01*
X121135872Y-132481947D01*
X121200018Y-132427035D01*
X121242679Y-132397190D01*
X121265521Y-132391004D01*
X121268505Y-132392394D01*
X121299936Y-132411127D01*
X121356997Y-132447733D01*
X121434343Y-132498697D01*
X121526626Y-132560504D01*
X121628502Y-132629639D01*
X121960593Y-132856420D01*
X122110566Y-132788353D01*
X122114923Y-132786381D01*
X122207000Y-132746491D01*
X122304683Y-132706818D01*
X122387539Y-132675674D01*
X122387905Y-132675545D01*
X122453685Y-132651456D01*
X122504323Y-132631110D01*
X122528884Y-132618901D01*
X122529282Y-132618458D01*
X122537619Y-132593456D01*
X122551341Y-132536598D01*
X122569123Y-132454014D01*
X122589641Y-132351831D01*
X122611571Y-132236178D01*
X122612336Y-132232033D01*
X122634229Y-132114019D01*
X122654281Y-132007151D01*
X122671192Y-131918252D01*
X122683667Y-131854145D01*
X122690406Y-131821654D01*
X122690837Y-131819853D01*
X122695273Y-131805944D01*
X122704263Y-131795489D01*
X122722737Y-131787996D01*
X122755628Y-131782972D01*
X122807868Y-131779922D01*
X122884388Y-131778355D01*
X122990122Y-131777776D01*
X123130000Y-131777692D01*
X123147575Y-131777693D01*
D14*
X200765000Y-136400000D02*
X204365000Y-136400000D01*
X206265000Y-136400000D02*
X207765000Y-136400000D01*
X207765000Y-136400000D02*
X207765000Y-137750000D01*
X209615000Y-136400000D02*
X209615000Y-137750000D01*
X209615000Y-136400000D02*
X210915000Y-136400000D01*
X210915000Y-136400000D02*
X210915000Y-135900000D01*
X210915000Y-135900000D02*
X212915000Y-135900000D01*
X212915000Y-135900000D02*
X212915000Y-130700000D01*
X198715000Y-130950000D02*
X198715000Y-136400000D01*
X210915000Y-130700000D02*
X210915000Y-130200000D01*
X212915000Y-130700000D02*
X210915000Y-130700000D01*
X200565000Y-130200000D02*
X200265000Y-130200000D01*
X207765000Y-130200000D02*
X202515000Y-130200000D01*
X210915000Y-130200000D02*
X209715000Y-130200000D01*
X212871000Y-112268000D02*
X212871000Y-126888000D01*
X212351000Y-112268000D02*
X212871000Y-112268000D01*
X212351000Y-112918000D02*
X212351000Y-112268000D01*
X212351000Y-112918000D02*
X204241000Y-112918000D01*
X197391000Y-112918000D02*
X200721000Y-112918000D01*
X197391000Y-112918000D02*
X197391000Y-126238000D01*
X197171000Y-115178000D02*
X197171000Y-116978000D01*
X204241000Y-126238000D02*
X212351000Y-126238000D01*
X197391000Y-126238000D02*
X200721000Y-126238000D01*
X212871000Y-126888000D02*
X212351000Y-126888000D01*
X212351000Y-126888000D02*
X212351000Y-126238000D01*
D15*
X203609000Y-92646000D02*
X201509000Y-92646000D01*
X209509000Y-92646000D02*
X206609000Y-92646000D01*
X212209000Y-92646000D02*
X212209000Y-79546000D01*
X198159000Y-91972000D02*
X198159000Y-90970000D01*
X198159000Y-85222000D02*
X198159000Y-80220000D01*
D10*
X212759000Y-88476000D02*
G75*
G03*
X212759000Y-88476000I-100000J0D01*
G01*
D14*
X179116000Y-82924000D02*
X179116000Y-130924000D01*
X177966000Y-120824000D02*
X177966000Y-119824000D01*
X177966000Y-120824000D02*
X174186000Y-120824000D01*
X177966000Y-98024000D02*
X174186000Y-98024000D01*
X175616000Y-134424000D02*
X142616000Y-134424000D01*
X174186000Y-120824000D02*
X174186000Y-119824000D01*
X144046000Y-120824000D02*
X144046000Y-119824000D01*
X144046000Y-120824000D02*
X140266000Y-120824000D01*
X144046000Y-98024000D02*
X144046000Y-99024000D01*
X144046000Y-98024000D02*
X140266000Y-98024000D01*
X142616000Y-79424000D02*
X175616000Y-79424000D01*
X140266000Y-120824000D02*
X140266000Y-119824000D01*
X140266000Y-98024000D02*
X140266000Y-99024000D01*
X139116000Y-130924000D02*
X139116000Y-82924000D01*
X175616000Y-134424000D02*
G75*
G03*
X179116000Y-130924000I1J3499999D01*
G01*
X179116000Y-82924000D02*
G75*
G03*
X175616000Y-79424000I-3499999J1D01*
G01*
X139116000Y-130924000D02*
G75*
G03*
X142616000Y-134424000I3500000J0D01*
G01*
X142616000Y-79424000D02*
G75*
G03*
X139116000Y-82924000I0J-3500000D01*
G01*
X105445000Y-99860000D02*
X105445000Y-98860000D01*
X105445000Y-98860000D02*
X104445000Y-98860000D01*
X103562886Y-106170000D02*
X103005000Y-106170000D01*
X103562886Y-105550000D02*
X103005000Y-105550000D01*
X103562886Y-104170000D02*
X103005000Y-104170000D01*
X103562886Y-103550000D02*
X103005000Y-103550000D01*
X103562886Y-102170000D02*
X103005000Y-102170000D01*
X103562886Y-101550000D02*
X103005000Y-101550000D01*
X103510000Y-100170000D02*
X103005000Y-100170000D01*
X103510000Y-99550000D02*
X103005000Y-99550000D01*
X103005000Y-106920000D02*
X101385000Y-106920000D01*
X103005000Y-104860000D02*
X101385000Y-104860000D01*
X103005000Y-102860000D02*
X101385000Y-102860000D01*
X103005000Y-100860000D02*
X101385000Y-100860000D01*
X103005000Y-98800000D02*
X103005000Y-106920000D01*
X101385000Y-106920000D02*
X101385000Y-98800000D01*
X101385000Y-105550000D02*
X97185000Y-105550000D01*
X101385000Y-103550000D02*
X97185000Y-103550000D01*
X101385000Y-101550000D02*
X97185000Y-101550000D01*
X101385000Y-100090000D02*
X97185000Y-100090000D01*
X101385000Y-99970000D02*
X97185000Y-99970000D01*
X101385000Y-99850000D02*
X97185000Y-99850000D01*
X101385000Y-99730000D02*
X97185000Y-99730000D01*
X101385000Y-99610000D02*
X97185000Y-99610000D01*
X101385000Y-99550000D02*
X97185000Y-99550000D01*
X101385000Y-98800000D02*
X103005000Y-98800000D01*
X97185000Y-106170000D02*
X101385000Y-106170000D01*
X97185000Y-105550000D02*
X97185000Y-106170000D01*
X97185000Y-104170000D02*
X101385000Y-104170000D01*
X97185000Y-103550000D02*
X97185000Y-104170000D01*
X97185000Y-102170000D02*
X101385000Y-102170000D01*
X97185000Y-101550000D02*
X97185000Y-102170000D01*
X97185000Y-100170000D02*
X101385000Y-100170000D01*
X97185000Y-99550000D02*
X97185000Y-100170000D01*
X99656000Y-107010000D02*
X101206000Y-107010000D01*
X99656000Y-107010000D02*
X99656000Y-106710000D01*
X96856000Y-106710000D02*
X99656000Y-106710000D01*
X102906000Y-104560000D02*
X102906000Y-103760000D01*
X102456000Y-104160000D02*
X102906000Y-104560000D01*
X102906000Y-103760000D02*
X102456000Y-104160000D01*
X96856000Y-99010000D02*
X99656000Y-99010000D01*
X99656000Y-99010000D02*
X99656000Y-98710000D01*
X99656000Y-98710000D02*
X101206000Y-98710000D01*
D15*
X96756750Y-96875000D02*
X99106750Y-96875000D01*
X96756750Y-96875000D02*
X96756750Y-80675000D01*
X101606750Y-96875000D02*
X104506750Y-96875000D01*
X108306750Y-95475000D02*
X108306750Y-93975000D01*
X108306750Y-83175000D02*
X108306750Y-82075000D01*
X99206750Y-80675000D02*
X96756750Y-80675000D01*
X104406750Y-80675000D02*
X101606750Y-80675000D01*
D10*
X108906750Y-83475000D02*
G75*
G03*
X108906750Y-83475000I-100000J0D01*
G01*
D14*
X212890000Y-94798000D02*
X212890000Y-109418000D01*
X212370000Y-94798000D02*
X212890000Y-94798000D01*
X212370000Y-95448000D02*
X212370000Y-94798000D01*
X212370000Y-95448000D02*
X204260000Y-95448000D01*
X197410000Y-95448000D02*
X200740000Y-95448000D01*
X197410000Y-95448000D02*
X197410000Y-108768000D01*
X197190000Y-97708000D02*
X197190000Y-99508000D01*
X204260000Y-108768000D02*
X212370000Y-108768000D01*
X197410000Y-108768000D02*
X200740000Y-108768000D01*
X212890000Y-109418000D02*
X212370000Y-109418000D01*
X212370000Y-109418000D02*
X212370000Y-108768000D01*
%LPC*%
D17*
X182484000Y-131308000D03*
D18*
X172749999Y-120199999D03*
D19*
X172749999Y-119199999D03*
D20*
X111999000Y-102860000D03*
D21*
X99491999Y-120131999D03*
D22*
X99492000Y-125212000D03*
D18*
X186799999Y-119599999D03*
D19*
X186799999Y-118599999D03*
D23*
X193699999Y-129499999D03*
D24*
X191159999Y-129499999D03*
X193699999Y-126959999D03*
X191159999Y-126959999D03*
X193699999Y-124419999D03*
X191159999Y-124419999D03*
X193699999Y-121879999D03*
X191159999Y-121879999D03*
X193699999Y-119339999D03*
X191159999Y-119339999D03*
X193699999Y-116799999D03*
X191159999Y-116799999D03*
X193699999Y-114259999D03*
X191159999Y-114259999D03*
X193699999Y-111719999D03*
X191159999Y-111719999D03*
X193699999Y-109179999D03*
X191159999Y-109179999D03*
X193699999Y-106639999D03*
X191159999Y-106639999D03*
X193699999Y-104099999D03*
X191159999Y-104099999D03*
X193699999Y-101559999D03*
X191159999Y-101559999D03*
X193699999Y-99019999D03*
X191159999Y-99019999D03*
X193699999Y-96479999D03*
X191159999Y-96479999D03*
X193699999Y-93939999D03*
X191159999Y-93939999D03*
X193699999Y-91399999D03*
X191159999Y-91399999D03*
X193699999Y-88859999D03*
X191159999Y-88859999D03*
X193699999Y-86319999D03*
X191159999Y-86319999D03*
X193699999Y-83779999D03*
X191159999Y-83779999D03*
X193699999Y-81239999D03*
X191159999Y-81239999D03*
D25*
X181468000Y-120894000D03*
X180925000Y-120894000D03*
X180925000Y-122418000D03*
X181468000Y-122418000D03*
D20*
X130033000Y-102860000D03*
D17*
X182484000Y-82032000D03*
X114572000Y-131308000D03*
D23*
X186549999Y-109549999D03*
D24*
X186549999Y-112089999D03*
X186549999Y-114629999D03*
D23*
X182799999Y-109569999D03*
D24*
X182799999Y-112109999D03*
X182799999Y-114649999D03*
D17*
X114572000Y-82032000D03*
D26*
X101311999Y-113811999D03*
X101311999Y-113161999D03*
X101311999Y-112511999D03*
X101311999Y-111861999D03*
X101311999Y-111211999D03*
D27*
X100191999Y-115499499D03*
D28*
X101551999Y-115361999D03*
D29*
X98491999Y-115236999D03*
D30*
X99421999Y-115236999D03*
D31*
X101521999Y-114936999D03*
D32*
X98241999Y-113474499D03*
X98241999Y-111549499D03*
D31*
X101521999Y-110086999D03*
D29*
X98491999Y-109786999D03*
D30*
X99421999Y-109786999D03*
D28*
X101551999Y-109611999D03*
D27*
X100191999Y-109524499D03*
D33*
X104393999Y-131174999D03*
D34*
X104393999Y-133174999D03*
X104393999Y-135174999D03*
X104393999Y-137174999D03*
D35*
X132474999Y-89986749D03*
X131974999Y-89986749D03*
X131474999Y-89986749D03*
X130974999Y-89986749D03*
X130474999Y-89986749D03*
X129974999Y-89986749D03*
X129474999Y-89986749D03*
X128974999Y-89986749D03*
X128474999Y-89986749D03*
X127974999Y-89986749D03*
X127474999Y-89986749D03*
X126974999Y-89986749D03*
X126474999Y-89986749D03*
X125974999Y-89986749D03*
X125474999Y-89986749D03*
X124974999Y-89986749D03*
X124474999Y-89986749D03*
X123974999Y-89986749D03*
X123474999Y-89986749D03*
D36*
X120724999Y-83296749D03*
D37*
X120724999Y-89256749D03*
D36*
X135224999Y-83296749D03*
D37*
X135224999Y-89256749D03*
D38*
X201315000Y-133300000D03*
X208315000Y-133300000D03*
D39*
X208714999Y-136799999D03*
X208714999Y-129799999D03*
X205314999Y-136799999D03*
X201514999Y-129799999D03*
X199314999Y-129799999D03*
X199814999Y-136799999D03*
D40*
X199770999Y-116077999D03*
D41*
X199771000Y-118578000D03*
X199771000Y-120578000D03*
X199771000Y-123078000D03*
D22*
X202481000Y-113008000D03*
X202481000Y-126148000D03*
D42*
X210808999Y-88475999D03*
X210808999Y-87375999D03*
X210808999Y-86275999D03*
X210808999Y-85175999D03*
X210808999Y-84075999D03*
X210808999Y-82975999D03*
X210808999Y-81875999D03*
X210808999Y-80775999D03*
D43*
X198343999Y-90265999D03*
D44*
X198268999Y-86000999D03*
D45*
X199543999Y-92575999D03*
D46*
X210793999Y-92355999D03*
D47*
X210308999Y-79695999D03*
D45*
X199543999Y-79615999D03*
D48*
X177615999Y-99623999D03*
X174535999Y-99623999D03*
X177615999Y-100023999D03*
X174535999Y-100023999D03*
X177615999Y-100423999D03*
X174535999Y-100423999D03*
X177615999Y-100823999D03*
X174535999Y-100823999D03*
X177615999Y-101223999D03*
X174535999Y-101223999D03*
X177615999Y-101623999D03*
X174535999Y-101623999D03*
X177615999Y-102023999D03*
X174535999Y-102023999D03*
X177615999Y-102423999D03*
X174535999Y-102423999D03*
X177615999Y-102823999D03*
X174535999Y-102823999D03*
X177615999Y-103223999D03*
X174535999Y-103223999D03*
X177615999Y-103623999D03*
X174535999Y-103623999D03*
X177615999Y-104023999D03*
X174535999Y-104023999D03*
X177615999Y-104423999D03*
X174535999Y-104423999D03*
X177615999Y-104823999D03*
X174535999Y-104823999D03*
X177615999Y-105223999D03*
X174535999Y-105223999D03*
X177615999Y-105623999D03*
X174535999Y-105623999D03*
X177615999Y-106023999D03*
X174535999Y-106023999D03*
X177615999Y-106423999D03*
X174535999Y-106423999D03*
X177615999Y-106823999D03*
X174535999Y-106823999D03*
X177615999Y-107223999D03*
X174535999Y-107223999D03*
X177615999Y-107623999D03*
X174535999Y-107623999D03*
X177615999Y-108023999D03*
X174535999Y-108023999D03*
X177615999Y-108423999D03*
X174535999Y-108423999D03*
X177615999Y-108823999D03*
X174535999Y-108823999D03*
X177615999Y-109223999D03*
X174535999Y-109223999D03*
X177615999Y-109623999D03*
X174535999Y-109623999D03*
X177615999Y-110023999D03*
X174535999Y-110023999D03*
X177615999Y-110423999D03*
X174535999Y-110423999D03*
X177615999Y-110823999D03*
X174535999Y-110823999D03*
X177615999Y-111223999D03*
X174535999Y-111223999D03*
X177615999Y-111623999D03*
X174535999Y-111623999D03*
X177615999Y-112023999D03*
X174535999Y-112023999D03*
X177615999Y-112423999D03*
X174535999Y-112423999D03*
X177615999Y-112823999D03*
X174535999Y-112823999D03*
X177615999Y-113223999D03*
X174535999Y-113223999D03*
X177615999Y-113623999D03*
X174535999Y-113623999D03*
X177615999Y-114023999D03*
X174535999Y-114023999D03*
X177615999Y-114423999D03*
X174535999Y-114423999D03*
X177615999Y-114823999D03*
X174535999Y-114823999D03*
X177615999Y-115223999D03*
X174535999Y-115223999D03*
X177615999Y-115623999D03*
X174535999Y-115623999D03*
X177615999Y-116023999D03*
X174535999Y-116023999D03*
X177615999Y-116423999D03*
X174535999Y-116423999D03*
X177615999Y-116823999D03*
X174535999Y-116823999D03*
X177615999Y-117223999D03*
X174535999Y-117223999D03*
X177615999Y-117623999D03*
X174535999Y-117623999D03*
X177615999Y-118023999D03*
X174535999Y-118023999D03*
X177615999Y-118423999D03*
X174535999Y-118423999D03*
X177615999Y-118823999D03*
X174535999Y-118823999D03*
X177615999Y-119223999D03*
X174535999Y-119223999D03*
X143695999Y-99623999D03*
X140615999Y-99623999D03*
X143695999Y-100023999D03*
X140615999Y-100023999D03*
X143695999Y-100423999D03*
X140615999Y-100423999D03*
X143695999Y-100823999D03*
X140615999Y-100823999D03*
X143695999Y-101223999D03*
X140615999Y-101223999D03*
X143695999Y-101623999D03*
X140615999Y-101623999D03*
X143695999Y-102023999D03*
X140615999Y-102023999D03*
X143695999Y-102423999D03*
X140615999Y-102423999D03*
X143695999Y-102823999D03*
X140615999Y-102823999D03*
X143695999Y-103223999D03*
X140615999Y-103223999D03*
X143695999Y-103623999D03*
X140615999Y-103623999D03*
X143695999Y-104023999D03*
X140615999Y-104023999D03*
X143695999Y-104423999D03*
X140615999Y-104423999D03*
X143695999Y-104823999D03*
X140615999Y-104823999D03*
X143695999Y-105223999D03*
X140615999Y-105223999D03*
X143695999Y-105623999D03*
X140615999Y-105623999D03*
X143695999Y-106023999D03*
X140615999Y-106023999D03*
X143695999Y-106423999D03*
X140615999Y-106423999D03*
X143695999Y-106823999D03*
X140615999Y-106823999D03*
X143695999Y-107223999D03*
X140615999Y-107223999D03*
X143695999Y-107623999D03*
X140615999Y-107623999D03*
X143695999Y-108023999D03*
X140615999Y-108023999D03*
X143695999Y-108423999D03*
X140615999Y-108423999D03*
X143695999Y-108823999D03*
X140615999Y-108823999D03*
X143695999Y-109223999D03*
X140615999Y-109223999D03*
X143695999Y-109623999D03*
X140615999Y-109623999D03*
X143695999Y-110023999D03*
X140615999Y-110023999D03*
X143695999Y-110423999D03*
X140615999Y-110423999D03*
X143695999Y-110823999D03*
X140615999Y-110823999D03*
X143695999Y-111223999D03*
X140615999Y-111223999D03*
X143695999Y-111623999D03*
X140615999Y-111623999D03*
X143695999Y-112023999D03*
X140615999Y-112023999D03*
X143695999Y-112423999D03*
X140615999Y-112423999D03*
X143695999Y-112823999D03*
X140615999Y-112823999D03*
X143695999Y-113223999D03*
X140615999Y-113223999D03*
X143695999Y-113623999D03*
X140615999Y-113623999D03*
X143695999Y-114023999D03*
X140615999Y-114023999D03*
X143695999Y-114423999D03*
X140615999Y-114423999D03*
X143695999Y-114823999D03*
X140615999Y-114823999D03*
X143695999Y-115223999D03*
X140615999Y-115223999D03*
X143695999Y-115623999D03*
X140615999Y-115623999D03*
X143695999Y-116023999D03*
X140615999Y-116023999D03*
X143695999Y-116423999D03*
X140615999Y-116423999D03*
X143695999Y-116823999D03*
X140615999Y-116823999D03*
X143695999Y-117223999D03*
X140615999Y-117223999D03*
X143695999Y-117623999D03*
X140615999Y-117623999D03*
X143695999Y-118023999D03*
X140615999Y-118023999D03*
X143695999Y-118423999D03*
X140615999Y-118423999D03*
X143695999Y-118823999D03*
X140615999Y-118823999D03*
X143695999Y-119223999D03*
X140615999Y-119223999D03*
D33*
X104444999Y-99859999D03*
D34*
X104444999Y-101859999D03*
X104444999Y-103859999D03*
X104444999Y-105859999D03*
D26*
X101295999Y-104159999D03*
X101295999Y-103509999D03*
X101295999Y-102859999D03*
X101295999Y-102209999D03*
X101295999Y-101559999D03*
D27*
X100175999Y-105847499D03*
D28*
X101535999Y-105709999D03*
D29*
X98475999Y-105584999D03*
D30*
X99405999Y-105584999D03*
D31*
X101505999Y-105284999D03*
D32*
X98225999Y-103822499D03*
X98225999Y-101897499D03*
D31*
X101505999Y-100434999D03*
D29*
X98475999Y-100134999D03*
D30*
X99405999Y-100134999D03*
D28*
X101535999Y-99959999D03*
D27*
X100175999Y-99872499D03*
D49*
X107036749Y-84274999D03*
X107036749Y-84774999D03*
X107036749Y-85274999D03*
X107036749Y-85774999D03*
X107036749Y-86274999D03*
X107036749Y-86774999D03*
X107036749Y-87274999D03*
X107036749Y-87774999D03*
X107036749Y-88274999D03*
X107036749Y-88774999D03*
X107036749Y-89274999D03*
X107036749Y-89774999D03*
X107036749Y-90274999D03*
X107036749Y-90774999D03*
X107036749Y-91274999D03*
X107036749Y-91774999D03*
X107036749Y-92274999D03*
X107036749Y-92774999D03*
X107036749Y-93274999D03*
D50*
X100346749Y-96024999D03*
D51*
X106306749Y-96024999D03*
D50*
X100346749Y-81524999D03*
D51*
X106306749Y-81524999D03*
D40*
X199789999Y-98607999D03*
D41*
X199790000Y-101108000D03*
X199790000Y-103108000D03*
X199790000Y-105608000D03*
D22*
X202500000Y-95538000D03*
X202500000Y-108678000D03*
M02*
