G04 #@! TF.GenerationSoftware,KiCad,Pcbnew,(6.99.0-3780-g6ddc5c1a6e)*
G04 #@! TF.CreationDate,2022-10-07T14:26:14+02:00*
G04 #@! TF.ProjectId,Unifying,556e6966-7969-46e6-972e-6b696361645f,rev?*
G04 #@! TF.SameCoordinates,Original*
G04 #@! TF.FileFunction,Legend,Bot*
G04 #@! TF.FilePolarity,Positive*
%FSLAX46Y46*%
G04 Gerber Fmt 4.6, Leading zero omitted, Abs format (unit mm)*
G04 Created by KiCad (PCBNEW (6.99.0-3780-g6ddc5c1a6e)) date 2022-10-07 14:26:14*
%MOMM*%
%LPD*%
G01*
G04 APERTURE LIST*
G04 Aperture macros list*
%AMRoundRect*
0 Rectangle with rounded corners*
0 $1 Rounding radius*
0 $2 $3 $4 $5 $6 $7 $8 $9 X,Y pos of 4 corners*
0 Add a 4 corners polygon primitive as box body*
4,1,4,$2,$3,$4,$5,$6,$7,$8,$9,$2,$3,0*
0 Add four circle primitives for the rounded corners*
1,1,$1+$1,$2,$3*
1,1,$1+$1,$4,$5*
1,1,$1+$1,$6,$7*
1,1,$1+$1,$8,$9*
0 Add four rect primitives between the rounded corners*
20,1,$1+$1,$2,$3,$4,$5,0*
20,1,$1+$1,$4,$5,$6,$7,0*
20,1,$1+$1,$6,$7,$8,$9,0*
20,1,$1+$1,$8,$9,$2,$3,0*%
G04 Aperture macros list end*
%ADD10C,0.200000*%
%ADD11C,0.150000*%
%ADD12C,0.300000*%
%ADD13C,0.100000*%
%ADD14C,0.120000*%
%ADD15C,0.010000*%
%ADD16C,0.127000*%
%ADD17C,1.500000*%
%ADD18C,2.500000*%
%ADD19RoundRect,0.250500X-0.499500X0.499500X-0.499500X-0.499500X0.499500X-0.499500X0.499500X0.499500X0*%
%ADD20C,3.200000*%
%ADD21O,1.700000X1.700000*%
%ADD22R,1.700000X1.700000*%
%ADD23R,0.550000X0.300000*%
%ADD24R,0.550000X0.400000*%
%ADD25RoundRect,0.135000X0.135000X0.185000X-0.135000X0.185000X-0.135000X-0.185000X0.135000X-0.185000X0*%
%ADD26C,2.700000*%
%ADD27R,0.850000X0.850000*%
%ADD28O,0.850000X0.850000*%
%ADD29C,3.500000*%
%ADD30R,3.000000X3.000000*%
%ADD31C,3.000000*%
%ADD32RoundRect,0.079000X-0.079000X0.343500X-0.079000X-0.343500X0.079000X-0.343500X0.079000X0.343500X0*%
%ADD33R,1.750000X0.400000*%
%ADD34R,0.700000X1.825000*%
%ADD35R,1.400000X2.000000*%
%ADD36O,1.700000X1.300000*%
%ADD37R,2.000000X1.300000*%
%ADD38O,1.400000X1.000000*%
%ADD39R,2.500000X1.425000*%
%ADD40C,2.000000*%
%ADD41R,1.900000X0.300000*%
%ADD42R,1.350000X1.350000*%
%ADD43O,1.350000X1.350000*%
%ADD44R,1.500000X2.000000*%
%ADD45R,1.500000X1.600000*%
%ADD46C,1.600000*%
%ADD47R,1.100000X0.700000*%
%ADD48R,0.930000X0.900000*%
%ADD49R,0.780000X1.050000*%
%ADD50R,3.330000X0.700000*%
%ADD51R,1.830000X1.140000*%
%ADD52R,2.800000X0.860000*%
%ADD53R,0.700000X0.200000*%
%ADD54R,0.300000X1.900000*%
G04 APERTURE END LIST*
D10*
X113381904Y-140202380D02*
X113381904Y-139202380D01*
X113381904Y-139202380D02*
X113048571Y-139916666D01*
X113048571Y-139916666D02*
X112715238Y-139202380D01*
X112715238Y-139202380D02*
X112715238Y-140202380D01*
X112239047Y-140202380D02*
X112239047Y-139535714D01*
X112239047Y-139202380D02*
X112286666Y-139250000D01*
X112286666Y-139250000D02*
X112239047Y-139297619D01*
X112239047Y-139297619D02*
X112191428Y-139250000D01*
X112191428Y-139250000D02*
X112239047Y-139202380D01*
X112239047Y-139202380D02*
X112239047Y-139297619D01*
X111334286Y-140154761D02*
X111429524Y-140202380D01*
X111429524Y-140202380D02*
X111620000Y-140202380D01*
X111620000Y-140202380D02*
X111715238Y-140154761D01*
X111715238Y-140154761D02*
X111762857Y-140107142D01*
X111762857Y-140107142D02*
X111810476Y-140011904D01*
X111810476Y-140011904D02*
X111810476Y-139726190D01*
X111810476Y-139726190D02*
X111762857Y-139630952D01*
X111762857Y-139630952D02*
X111715238Y-139583333D01*
X111715238Y-139583333D02*
X111620000Y-139535714D01*
X111620000Y-139535714D02*
X111429524Y-139535714D01*
X111429524Y-139535714D02*
X111334286Y-139583333D01*
X110905714Y-140202380D02*
X110905714Y-139535714D01*
X110905714Y-139726190D02*
X110858095Y-139630952D01*
X110858095Y-139630952D02*
X110810476Y-139583333D01*
X110810476Y-139583333D02*
X110715238Y-139535714D01*
X110715238Y-139535714D02*
X110620000Y-139535714D01*
X110143809Y-140202380D02*
X110239047Y-140154761D01*
X110239047Y-140154761D02*
X110286666Y-140107142D01*
X110286666Y-140107142D02*
X110334285Y-140011904D01*
X110334285Y-140011904D02*
X110334285Y-139726190D01*
X110334285Y-139726190D02*
X110286666Y-139630952D01*
X110286666Y-139630952D02*
X110239047Y-139583333D01*
X110239047Y-139583333D02*
X110143809Y-139535714D01*
X110143809Y-139535714D02*
X110000952Y-139535714D01*
X110000952Y-139535714D02*
X109905714Y-139583333D01*
X109905714Y-139583333D02*
X109858095Y-139630952D01*
X109858095Y-139630952D02*
X109810476Y-139726190D01*
X109810476Y-139726190D02*
X109810476Y-140011904D01*
X109810476Y-140011904D02*
X109858095Y-140107142D01*
X109858095Y-140107142D02*
X109905714Y-140154761D01*
X109905714Y-140154761D02*
X110000952Y-140202380D01*
X110000952Y-140202380D02*
X110143809Y-140202380D01*
X109381904Y-139535714D02*
X109381904Y-140535714D01*
X109381904Y-139583333D02*
X109286666Y-139535714D01*
X109286666Y-139535714D02*
X109096190Y-139535714D01*
X109096190Y-139535714D02*
X109000952Y-139583333D01*
X109000952Y-139583333D02*
X108953333Y-139630952D01*
X108953333Y-139630952D02*
X108905714Y-139726190D01*
X108905714Y-139726190D02*
X108905714Y-140011904D01*
X108905714Y-140011904D02*
X108953333Y-140107142D01*
X108953333Y-140107142D02*
X109000952Y-140154761D01*
X109000952Y-140154761D02*
X109096190Y-140202380D01*
X109096190Y-140202380D02*
X109286666Y-140202380D01*
X109286666Y-140202380D02*
X109381904Y-140154761D01*
X108477142Y-140202380D02*
X108477142Y-139202380D01*
X108048571Y-140202380D02*
X108048571Y-139678571D01*
X108048571Y-139678571D02*
X108096190Y-139583333D01*
X108096190Y-139583333D02*
X108191428Y-139535714D01*
X108191428Y-139535714D02*
X108334285Y-139535714D01*
X108334285Y-139535714D02*
X108429523Y-139583333D01*
X108429523Y-139583333D02*
X108477142Y-139630952D01*
X107429523Y-140202380D02*
X107524761Y-140154761D01*
X107524761Y-140154761D02*
X107572380Y-140107142D01*
X107572380Y-140107142D02*
X107619999Y-140011904D01*
X107619999Y-140011904D02*
X107619999Y-139726190D01*
X107619999Y-139726190D02*
X107572380Y-139630952D01*
X107572380Y-139630952D02*
X107524761Y-139583333D01*
X107524761Y-139583333D02*
X107429523Y-139535714D01*
X107429523Y-139535714D02*
X107286666Y-139535714D01*
X107286666Y-139535714D02*
X107191428Y-139583333D01*
X107191428Y-139583333D02*
X107143809Y-139630952D01*
X107143809Y-139630952D02*
X107096190Y-139726190D01*
X107096190Y-139726190D02*
X107096190Y-140011904D01*
X107096190Y-140011904D02*
X107143809Y-140107142D01*
X107143809Y-140107142D02*
X107191428Y-140154761D01*
X107191428Y-140154761D02*
X107286666Y-140202380D01*
X107286666Y-140202380D02*
X107429523Y-140202380D01*
X106667618Y-139535714D02*
X106667618Y-140202380D01*
X106667618Y-139630952D02*
X106619999Y-139583333D01*
X106619999Y-139583333D02*
X106524761Y-139535714D01*
X106524761Y-139535714D02*
X106381904Y-139535714D01*
X106381904Y-139535714D02*
X106286666Y-139583333D01*
X106286666Y-139583333D02*
X106239047Y-139678571D01*
X106239047Y-139678571D02*
X106239047Y-140202380D01*
X105381904Y-140154761D02*
X105477142Y-140202380D01*
X105477142Y-140202380D02*
X105667618Y-140202380D01*
X105667618Y-140202380D02*
X105762856Y-140154761D01*
X105762856Y-140154761D02*
X105810475Y-140059523D01*
X105810475Y-140059523D02*
X105810475Y-139678571D01*
X105810475Y-139678571D02*
X105762856Y-139583333D01*
X105762856Y-139583333D02*
X105667618Y-139535714D01*
X105667618Y-139535714D02*
X105477142Y-139535714D01*
X105477142Y-139535714D02*
X105381904Y-139583333D01*
X105381904Y-139583333D02*
X105334285Y-139678571D01*
X105334285Y-139678571D02*
X105334285Y-139773809D01*
X105334285Y-139773809D02*
X105810475Y-139869047D01*
X103761380Y-109723333D02*
X104570904Y-109723333D01*
X104570904Y-109723333D02*
X104666142Y-109770952D01*
X104666142Y-109770952D02*
X104713761Y-109818571D01*
X104713761Y-109818571D02*
X104761380Y-109913809D01*
X104761380Y-109913809D02*
X104761380Y-110104285D01*
X104761380Y-110104285D02*
X104713761Y-110199523D01*
X104713761Y-110199523D02*
X104666142Y-110247142D01*
X104666142Y-110247142D02*
X104570904Y-110294761D01*
X104570904Y-110294761D02*
X103761380Y-110294761D01*
X104713761Y-110723333D02*
X104761380Y-110866190D01*
X104761380Y-110866190D02*
X104761380Y-111104285D01*
X104761380Y-111104285D02*
X104713761Y-111199523D01*
X104713761Y-111199523D02*
X104666142Y-111247142D01*
X104666142Y-111247142D02*
X104570904Y-111294761D01*
X104570904Y-111294761D02*
X104475666Y-111294761D01*
X104475666Y-111294761D02*
X104380428Y-111247142D01*
X104380428Y-111247142D02*
X104332809Y-111199523D01*
X104332809Y-111199523D02*
X104285190Y-111104285D01*
X104285190Y-111104285D02*
X104237571Y-110913809D01*
X104237571Y-110913809D02*
X104189952Y-110818571D01*
X104189952Y-110818571D02*
X104142333Y-110770952D01*
X104142333Y-110770952D02*
X104047095Y-110723333D01*
X104047095Y-110723333D02*
X103951857Y-110723333D01*
X103951857Y-110723333D02*
X103856619Y-110770952D01*
X103856619Y-110770952D02*
X103809000Y-110818571D01*
X103809000Y-110818571D02*
X103761380Y-110913809D01*
X103761380Y-110913809D02*
X103761380Y-111151904D01*
X103761380Y-111151904D02*
X103809000Y-111294761D01*
X104237571Y-112056666D02*
X104285190Y-112199523D01*
X104285190Y-112199523D02*
X104332809Y-112247142D01*
X104332809Y-112247142D02*
X104428047Y-112294761D01*
X104428047Y-112294761D02*
X104570904Y-112294761D01*
X104570904Y-112294761D02*
X104666142Y-112247142D01*
X104666142Y-112247142D02*
X104713761Y-112199523D01*
X104713761Y-112199523D02*
X104761380Y-112104285D01*
X104761380Y-112104285D02*
X104761380Y-111723333D01*
X104761380Y-111723333D02*
X103761380Y-111723333D01*
X103761380Y-111723333D02*
X103761380Y-112056666D01*
X103761380Y-112056666D02*
X103809000Y-112151904D01*
X103809000Y-112151904D02*
X103856619Y-112199523D01*
X103856619Y-112199523D02*
X103951857Y-112247142D01*
X103951857Y-112247142D02*
X104047095Y-112247142D01*
X104047095Y-112247142D02*
X104142333Y-112199523D01*
X104142333Y-112199523D02*
X104189952Y-112151904D01*
X104189952Y-112151904D02*
X104237571Y-112056666D01*
X104237571Y-112056666D02*
X104237571Y-111723333D01*
X103761380Y-112913809D02*
X103761380Y-113104285D01*
X103761380Y-113104285D02*
X103809000Y-113199523D01*
X103809000Y-113199523D02*
X103904238Y-113294761D01*
X103904238Y-113294761D02*
X104094714Y-113342380D01*
X104094714Y-113342380D02*
X104428047Y-113342380D01*
X104428047Y-113342380D02*
X104618523Y-113294761D01*
X104618523Y-113294761D02*
X104713761Y-113199523D01*
X104713761Y-113199523D02*
X104761380Y-113104285D01*
X104761380Y-113104285D02*
X104761380Y-112913809D01*
X104761380Y-112913809D02*
X104713761Y-112818571D01*
X104713761Y-112818571D02*
X104618523Y-112723333D01*
X104618523Y-112723333D02*
X104428047Y-112675714D01*
X104428047Y-112675714D02*
X104094714Y-112675714D01*
X104094714Y-112675714D02*
X103904238Y-112723333D01*
X103904238Y-112723333D02*
X103809000Y-112818571D01*
X103809000Y-112818571D02*
X103761380Y-112913809D01*
X103761380Y-113628095D02*
X103761380Y-114199523D01*
X104761380Y-113913809D02*
X103761380Y-113913809D01*
X103809000Y-115056666D02*
X103761380Y-114961428D01*
X103761380Y-114961428D02*
X103761380Y-114818571D01*
X103761380Y-114818571D02*
X103809000Y-114675714D01*
X103809000Y-114675714D02*
X103904238Y-114580476D01*
X103904238Y-114580476D02*
X103999476Y-114532857D01*
X103999476Y-114532857D02*
X104189952Y-114485238D01*
X104189952Y-114485238D02*
X104332809Y-114485238D01*
X104332809Y-114485238D02*
X104523285Y-114532857D01*
X104523285Y-114532857D02*
X104618523Y-114580476D01*
X104618523Y-114580476D02*
X104713761Y-114675714D01*
X104713761Y-114675714D02*
X104761380Y-114818571D01*
X104761380Y-114818571D02*
X104761380Y-114913809D01*
X104761380Y-114913809D02*
X104713761Y-115056666D01*
X104713761Y-115056666D02*
X104666142Y-115104285D01*
X104666142Y-115104285D02*
X104332809Y-115104285D01*
X104332809Y-115104285D02*
X104332809Y-114913809D01*
X106207380Y-101181905D02*
X107016904Y-101181905D01*
X107016904Y-101181905D02*
X107112142Y-101229524D01*
X107112142Y-101229524D02*
X107159761Y-101277143D01*
X107159761Y-101277143D02*
X107207380Y-101372381D01*
X107207380Y-101372381D02*
X107207380Y-101562857D01*
X107207380Y-101562857D02*
X107159761Y-101658095D01*
X107159761Y-101658095D02*
X107112142Y-101705714D01*
X107112142Y-101705714D02*
X107016904Y-101753333D01*
X107016904Y-101753333D02*
X106207380Y-101753333D01*
X107159761Y-102181905D02*
X107207380Y-102324762D01*
X107207380Y-102324762D02*
X107207380Y-102562857D01*
X107207380Y-102562857D02*
X107159761Y-102658095D01*
X107159761Y-102658095D02*
X107112142Y-102705714D01*
X107112142Y-102705714D02*
X107016904Y-102753333D01*
X107016904Y-102753333D02*
X106921666Y-102753333D01*
X106921666Y-102753333D02*
X106826428Y-102705714D01*
X106826428Y-102705714D02*
X106778809Y-102658095D01*
X106778809Y-102658095D02*
X106731190Y-102562857D01*
X106731190Y-102562857D02*
X106683571Y-102372381D01*
X106683571Y-102372381D02*
X106635952Y-102277143D01*
X106635952Y-102277143D02*
X106588333Y-102229524D01*
X106588333Y-102229524D02*
X106493095Y-102181905D01*
X106493095Y-102181905D02*
X106397857Y-102181905D01*
X106397857Y-102181905D02*
X106302619Y-102229524D01*
X106302619Y-102229524D02*
X106255000Y-102277143D01*
X106255000Y-102277143D02*
X106207380Y-102372381D01*
X106207380Y-102372381D02*
X106207380Y-102610476D01*
X106207380Y-102610476D02*
X106255000Y-102753333D01*
X106683571Y-103515238D02*
X106731190Y-103658095D01*
X106731190Y-103658095D02*
X106778809Y-103705714D01*
X106778809Y-103705714D02*
X106874047Y-103753333D01*
X106874047Y-103753333D02*
X107016904Y-103753333D01*
X107016904Y-103753333D02*
X107112142Y-103705714D01*
X107112142Y-103705714D02*
X107159761Y-103658095D01*
X107159761Y-103658095D02*
X107207380Y-103562857D01*
X107207380Y-103562857D02*
X107207380Y-103181905D01*
X107207380Y-103181905D02*
X106207380Y-103181905D01*
X106207380Y-103181905D02*
X106207380Y-103515238D01*
X106207380Y-103515238D02*
X106255000Y-103610476D01*
X106255000Y-103610476D02*
X106302619Y-103658095D01*
X106302619Y-103658095D02*
X106397857Y-103705714D01*
X106397857Y-103705714D02*
X106493095Y-103705714D01*
X106493095Y-103705714D02*
X106588333Y-103658095D01*
X106588333Y-103658095D02*
X106635952Y-103610476D01*
X106635952Y-103610476D02*
X106683571Y-103515238D01*
X106683571Y-103515238D02*
X106683571Y-103181905D01*
X106540714Y-104610476D02*
X107207380Y-104610476D01*
X106159761Y-104372381D02*
X106874047Y-104134286D01*
X106874047Y-104134286D02*
X106874047Y-104753333D01*
D11*
X101993571Y-120580951D02*
X101993571Y-119819047D01*
X101612619Y-120199999D02*
X102374523Y-120199999D01*
D10*
X136912380Y-84705000D02*
X137007618Y-84657380D01*
X137007618Y-84657380D02*
X137150475Y-84657380D01*
X137150475Y-84657380D02*
X137293332Y-84705000D01*
X137293332Y-84705000D02*
X137388570Y-84800238D01*
X137388570Y-84800238D02*
X137436189Y-84895476D01*
X137436189Y-84895476D02*
X137483808Y-85085952D01*
X137483808Y-85085952D02*
X137483808Y-85228809D01*
X137483808Y-85228809D02*
X137436189Y-85419285D01*
X137436189Y-85419285D02*
X137388570Y-85514523D01*
X137388570Y-85514523D02*
X137293332Y-85609761D01*
X137293332Y-85609761D02*
X137150475Y-85657380D01*
X137150475Y-85657380D02*
X137055237Y-85657380D01*
X137055237Y-85657380D02*
X136912380Y-85609761D01*
X136912380Y-85609761D02*
X136864761Y-85562142D01*
X136864761Y-85562142D02*
X136864761Y-85228809D01*
X136864761Y-85228809D02*
X137055237Y-85228809D01*
X136436189Y-85657380D02*
X136436189Y-84657380D01*
X136436189Y-84657380D02*
X136055237Y-84657380D01*
X136055237Y-84657380D02*
X135959999Y-84705000D01*
X135959999Y-84705000D02*
X135912380Y-84752619D01*
X135912380Y-84752619D02*
X135864761Y-84847857D01*
X135864761Y-84847857D02*
X135864761Y-84990714D01*
X135864761Y-84990714D02*
X135912380Y-85085952D01*
X135912380Y-85085952D02*
X135959999Y-85133571D01*
X135959999Y-85133571D02*
X136055237Y-85181190D01*
X136055237Y-85181190D02*
X136436189Y-85181190D01*
X135436189Y-85657380D02*
X135436189Y-84657380D01*
X135436189Y-84657380D02*
X135198094Y-84657380D01*
X135198094Y-84657380D02*
X135055237Y-84705000D01*
X135055237Y-84705000D02*
X134959999Y-84800238D01*
X134959999Y-84800238D02*
X134912380Y-84895476D01*
X134912380Y-84895476D02*
X134864761Y-85085952D01*
X134864761Y-85085952D02*
X134864761Y-85228809D01*
X134864761Y-85228809D02*
X134912380Y-85419285D01*
X134912380Y-85419285D02*
X134959999Y-85514523D01*
X134959999Y-85514523D02*
X135055237Y-85609761D01*
X135055237Y-85609761D02*
X135198094Y-85657380D01*
X135198094Y-85657380D02*
X135436189Y-85657380D01*
X134436189Y-85657380D02*
X134436189Y-84657380D01*
X133436190Y-85657380D02*
X134007618Y-85657380D01*
X133721904Y-85657380D02*
X133721904Y-84657380D01*
X133721904Y-84657380D02*
X133817142Y-84800238D01*
X133817142Y-84800238D02*
X133912380Y-84895476D01*
X133912380Y-84895476D02*
X134007618Y-84943095D01*
X214238094Y-93877380D02*
X214238094Y-94686904D01*
X214238094Y-94686904D02*
X214190475Y-94782142D01*
X214190475Y-94782142D02*
X214142856Y-94829761D01*
X214142856Y-94829761D02*
X214047618Y-94877380D01*
X214047618Y-94877380D02*
X213857142Y-94877380D01*
X213857142Y-94877380D02*
X213761904Y-94829761D01*
X213761904Y-94829761D02*
X213714285Y-94782142D01*
X213714285Y-94782142D02*
X213666666Y-94686904D01*
X213666666Y-94686904D02*
X213666666Y-93877380D01*
X213238094Y-94829761D02*
X213095237Y-94877380D01*
X213095237Y-94877380D02*
X212857142Y-94877380D01*
X212857142Y-94877380D02*
X212761904Y-94829761D01*
X212761904Y-94829761D02*
X212714285Y-94782142D01*
X212714285Y-94782142D02*
X212666666Y-94686904D01*
X212666666Y-94686904D02*
X212666666Y-94591666D01*
X212666666Y-94591666D02*
X212714285Y-94496428D01*
X212714285Y-94496428D02*
X212761904Y-94448809D01*
X212761904Y-94448809D02*
X212857142Y-94401190D01*
X212857142Y-94401190D02*
X213047618Y-94353571D01*
X213047618Y-94353571D02*
X213142856Y-94305952D01*
X213142856Y-94305952D02*
X213190475Y-94258333D01*
X213190475Y-94258333D02*
X213238094Y-94163095D01*
X213238094Y-94163095D02*
X213238094Y-94067857D01*
X213238094Y-94067857D02*
X213190475Y-93972619D01*
X213190475Y-93972619D02*
X213142856Y-93925000D01*
X213142856Y-93925000D02*
X213047618Y-93877380D01*
X213047618Y-93877380D02*
X212809523Y-93877380D01*
X212809523Y-93877380D02*
X212666666Y-93925000D01*
X211904761Y-94353571D02*
X211761904Y-94401190D01*
X211761904Y-94401190D02*
X211714285Y-94448809D01*
X211714285Y-94448809D02*
X211666666Y-94544047D01*
X211666666Y-94544047D02*
X211666666Y-94686904D01*
X211666666Y-94686904D02*
X211714285Y-94782142D01*
X211714285Y-94782142D02*
X211761904Y-94829761D01*
X211761904Y-94829761D02*
X211857142Y-94877380D01*
X211857142Y-94877380D02*
X212238094Y-94877380D01*
X212238094Y-94877380D02*
X212238094Y-93877380D01*
X212238094Y-93877380D02*
X211904761Y-93877380D01*
X211904761Y-93877380D02*
X211809523Y-93925000D01*
X211809523Y-93925000D02*
X211761904Y-93972619D01*
X211761904Y-93972619D02*
X211714285Y-94067857D01*
X211714285Y-94067857D02*
X211714285Y-94163095D01*
X211714285Y-94163095D02*
X211761904Y-94258333D01*
X211761904Y-94258333D02*
X211809523Y-94305952D01*
X211809523Y-94305952D02*
X211904761Y-94353571D01*
X211904761Y-94353571D02*
X212238094Y-94353571D01*
X211333332Y-93877380D02*
X210714285Y-93877380D01*
X210714285Y-93877380D02*
X211047618Y-94258333D01*
X211047618Y-94258333D02*
X210904761Y-94258333D01*
X210904761Y-94258333D02*
X210809523Y-94305952D01*
X210809523Y-94305952D02*
X210761904Y-94353571D01*
X210761904Y-94353571D02*
X210714285Y-94448809D01*
X210714285Y-94448809D02*
X210714285Y-94686904D01*
X210714285Y-94686904D02*
X210761904Y-94782142D01*
X210761904Y-94782142D02*
X210809523Y-94829761D01*
X210809523Y-94829761D02*
X210904761Y-94877380D01*
X210904761Y-94877380D02*
X211190475Y-94877380D01*
X211190475Y-94877380D02*
X211285713Y-94829761D01*
X211285713Y-94829761D02*
X211333332Y-94782142D01*
X217069285Y-150170476D02*
X216402619Y-150170476D01*
X217069285Y-150599047D02*
X216545476Y-150599047D01*
X216545476Y-150599047D02*
X216450238Y-150551428D01*
X216450238Y-150551428D02*
X216402619Y-150456190D01*
X216402619Y-150456190D02*
X216402619Y-150313333D01*
X216402619Y-150313333D02*
X216450238Y-150218095D01*
X216450238Y-150218095D02*
X216497857Y-150170476D01*
X216450238Y-149741904D02*
X216402619Y-149599047D01*
X216402619Y-149599047D02*
X216402619Y-149360952D01*
X216402619Y-149360952D02*
X216450238Y-149265714D01*
X216450238Y-149265714D02*
X216497857Y-149218095D01*
X216497857Y-149218095D02*
X216593095Y-149170476D01*
X216593095Y-149170476D02*
X216688333Y-149170476D01*
X216688333Y-149170476D02*
X216783571Y-149218095D01*
X216783571Y-149218095D02*
X216831190Y-149265714D01*
X216831190Y-149265714D02*
X216878809Y-149360952D01*
X216878809Y-149360952D02*
X216926428Y-149551428D01*
X216926428Y-149551428D02*
X216974047Y-149646666D01*
X216974047Y-149646666D02*
X217021666Y-149694285D01*
X217021666Y-149694285D02*
X217116904Y-149741904D01*
X217116904Y-149741904D02*
X217212142Y-149741904D01*
X217212142Y-149741904D02*
X217307380Y-149694285D01*
X217307380Y-149694285D02*
X217355000Y-149646666D01*
X217355000Y-149646666D02*
X217402619Y-149551428D01*
X217402619Y-149551428D02*
X217402619Y-149313333D01*
X217402619Y-149313333D02*
X217355000Y-149170476D01*
X216402619Y-148741904D02*
X217402619Y-148741904D01*
X217402619Y-148741904D02*
X217402619Y-148503809D01*
X217402619Y-148503809D02*
X217355000Y-148360952D01*
X217355000Y-148360952D02*
X217259761Y-148265714D01*
X217259761Y-148265714D02*
X217164523Y-148218095D01*
X217164523Y-148218095D02*
X216974047Y-148170476D01*
X216974047Y-148170476D02*
X216831190Y-148170476D01*
X216831190Y-148170476D02*
X216640714Y-148218095D01*
X216640714Y-148218095D02*
X216545476Y-148265714D01*
X216545476Y-148265714D02*
X216450238Y-148360952D01*
X216450238Y-148360952D02*
X216402619Y-148503809D01*
X216402619Y-148503809D02*
X216402619Y-148741904D01*
X216497857Y-147170476D02*
X216450238Y-147218095D01*
X216450238Y-147218095D02*
X216402619Y-147360952D01*
X216402619Y-147360952D02*
X216402619Y-147456190D01*
X216402619Y-147456190D02*
X216450238Y-147599047D01*
X216450238Y-147599047D02*
X216545476Y-147694285D01*
X216545476Y-147694285D02*
X216640714Y-147741904D01*
X216640714Y-147741904D02*
X216831190Y-147789523D01*
X216831190Y-147789523D02*
X216974047Y-147789523D01*
X216974047Y-147789523D02*
X217164523Y-147741904D01*
X217164523Y-147741904D02*
X217259761Y-147694285D01*
X217259761Y-147694285D02*
X217355000Y-147599047D01*
X217355000Y-147599047D02*
X217402619Y-147456190D01*
X217402619Y-147456190D02*
X217402619Y-147360952D01*
X217402619Y-147360952D02*
X217355000Y-147218095D01*
X217355000Y-147218095D02*
X217307380Y-147170476D01*
X216688333Y-146789523D02*
X216688333Y-146313333D01*
X216402619Y-146884761D02*
X217402619Y-146551428D01*
X217402619Y-146551428D02*
X216402619Y-146218095D01*
X216402619Y-145313333D02*
X216878809Y-145646666D01*
X216402619Y-145884761D02*
X217402619Y-145884761D01*
X217402619Y-145884761D02*
X217402619Y-145503809D01*
X217402619Y-145503809D02*
X217355000Y-145408571D01*
X217355000Y-145408571D02*
X217307380Y-145360952D01*
X217307380Y-145360952D02*
X217212142Y-145313333D01*
X217212142Y-145313333D02*
X217069285Y-145313333D01*
X217069285Y-145313333D02*
X216974047Y-145360952D01*
X216974047Y-145360952D02*
X216926428Y-145408571D01*
X216926428Y-145408571D02*
X216878809Y-145503809D01*
X216878809Y-145503809D02*
X216878809Y-145884761D01*
X216402619Y-144884761D02*
X217402619Y-144884761D01*
X217402619Y-144884761D02*
X217402619Y-144646666D01*
X217402619Y-144646666D02*
X217355000Y-144503809D01*
X217355000Y-144503809D02*
X217259761Y-144408571D01*
X217259761Y-144408571D02*
X217164523Y-144360952D01*
X217164523Y-144360952D02*
X216974047Y-144313333D01*
X216974047Y-144313333D02*
X216831190Y-144313333D01*
X216831190Y-144313333D02*
X216640714Y-144360952D01*
X216640714Y-144360952D02*
X216545476Y-144408571D01*
X216545476Y-144408571D02*
X216450238Y-144503809D01*
X216450238Y-144503809D02*
X216402619Y-144646666D01*
X216402619Y-144646666D02*
X216402619Y-144884761D01*
X107245000Y-80207619D02*
X107197380Y-80112381D01*
X107197380Y-80112381D02*
X107197380Y-79969524D01*
X107197380Y-79969524D02*
X107245000Y-79826667D01*
X107245000Y-79826667D02*
X107340238Y-79731429D01*
X107340238Y-79731429D02*
X107435476Y-79683810D01*
X107435476Y-79683810D02*
X107625952Y-79636191D01*
X107625952Y-79636191D02*
X107768809Y-79636191D01*
X107768809Y-79636191D02*
X107959285Y-79683810D01*
X107959285Y-79683810D02*
X108054523Y-79731429D01*
X108054523Y-79731429D02*
X108149761Y-79826667D01*
X108149761Y-79826667D02*
X108197380Y-79969524D01*
X108197380Y-79969524D02*
X108197380Y-80064762D01*
X108197380Y-80064762D02*
X108149761Y-80207619D01*
X108149761Y-80207619D02*
X108102142Y-80255238D01*
X108102142Y-80255238D02*
X107768809Y-80255238D01*
X107768809Y-80255238D02*
X107768809Y-80064762D01*
X108197380Y-80683810D02*
X107197380Y-80683810D01*
X107197380Y-80683810D02*
X107197380Y-81064762D01*
X107197380Y-81064762D02*
X107245000Y-81160000D01*
X107245000Y-81160000D02*
X107292619Y-81207619D01*
X107292619Y-81207619D02*
X107387857Y-81255238D01*
X107387857Y-81255238D02*
X107530714Y-81255238D01*
X107530714Y-81255238D02*
X107625952Y-81207619D01*
X107625952Y-81207619D02*
X107673571Y-81160000D01*
X107673571Y-81160000D02*
X107721190Y-81064762D01*
X107721190Y-81064762D02*
X107721190Y-80683810D01*
X108197380Y-81683810D02*
X107197380Y-81683810D01*
X107197380Y-81683810D02*
X107197380Y-81921905D01*
X107197380Y-81921905D02*
X107245000Y-82064762D01*
X107245000Y-82064762D02*
X107340238Y-82160000D01*
X107340238Y-82160000D02*
X107435476Y-82207619D01*
X107435476Y-82207619D02*
X107625952Y-82255238D01*
X107625952Y-82255238D02*
X107768809Y-82255238D01*
X107768809Y-82255238D02*
X107959285Y-82207619D01*
X107959285Y-82207619D02*
X108054523Y-82160000D01*
X108054523Y-82160000D02*
X108149761Y-82064762D01*
X108149761Y-82064762D02*
X108197380Y-81921905D01*
X108197380Y-81921905D02*
X108197380Y-81683810D01*
X108197380Y-82683810D02*
X107197380Y-82683810D01*
X107197380Y-83350476D02*
X107197380Y-83445714D01*
X107197380Y-83445714D02*
X107245000Y-83540952D01*
X107245000Y-83540952D02*
X107292619Y-83588571D01*
X107292619Y-83588571D02*
X107387857Y-83636190D01*
X107387857Y-83636190D02*
X107578333Y-83683809D01*
X107578333Y-83683809D02*
X107816428Y-83683809D01*
X107816428Y-83683809D02*
X108006904Y-83636190D01*
X108006904Y-83636190D02*
X108102142Y-83588571D01*
X108102142Y-83588571D02*
X108149761Y-83540952D01*
X108149761Y-83540952D02*
X108197380Y-83445714D01*
X108197380Y-83445714D02*
X108197380Y-83350476D01*
X108197380Y-83350476D02*
X108149761Y-83255238D01*
X108149761Y-83255238D02*
X108102142Y-83207619D01*
X108102142Y-83207619D02*
X108006904Y-83160000D01*
X108006904Y-83160000D02*
X107816428Y-83112381D01*
X107816428Y-83112381D02*
X107578333Y-83112381D01*
X107578333Y-83112381D02*
X107387857Y-83160000D01*
X107387857Y-83160000D02*
X107292619Y-83207619D01*
X107292619Y-83207619D02*
X107245000Y-83255238D01*
X107245000Y-83255238D02*
X107197380Y-83350476D01*
X214358094Y-111637380D02*
X214358094Y-112446904D01*
X214358094Y-112446904D02*
X214310475Y-112542142D01*
X214310475Y-112542142D02*
X214262856Y-112589761D01*
X214262856Y-112589761D02*
X214167618Y-112637380D01*
X214167618Y-112637380D02*
X213977142Y-112637380D01*
X213977142Y-112637380D02*
X213881904Y-112589761D01*
X213881904Y-112589761D02*
X213834285Y-112542142D01*
X213834285Y-112542142D02*
X213786666Y-112446904D01*
X213786666Y-112446904D02*
X213786666Y-111637380D01*
X213358094Y-112589761D02*
X213215237Y-112637380D01*
X213215237Y-112637380D02*
X212977142Y-112637380D01*
X212977142Y-112637380D02*
X212881904Y-112589761D01*
X212881904Y-112589761D02*
X212834285Y-112542142D01*
X212834285Y-112542142D02*
X212786666Y-112446904D01*
X212786666Y-112446904D02*
X212786666Y-112351666D01*
X212786666Y-112351666D02*
X212834285Y-112256428D01*
X212834285Y-112256428D02*
X212881904Y-112208809D01*
X212881904Y-112208809D02*
X212977142Y-112161190D01*
X212977142Y-112161190D02*
X213167618Y-112113571D01*
X213167618Y-112113571D02*
X213262856Y-112065952D01*
X213262856Y-112065952D02*
X213310475Y-112018333D01*
X213310475Y-112018333D02*
X213358094Y-111923095D01*
X213358094Y-111923095D02*
X213358094Y-111827857D01*
X213358094Y-111827857D02*
X213310475Y-111732619D01*
X213310475Y-111732619D02*
X213262856Y-111685000D01*
X213262856Y-111685000D02*
X213167618Y-111637380D01*
X213167618Y-111637380D02*
X212929523Y-111637380D01*
X212929523Y-111637380D02*
X212786666Y-111685000D01*
X212024761Y-112113571D02*
X211881904Y-112161190D01*
X211881904Y-112161190D02*
X211834285Y-112208809D01*
X211834285Y-112208809D02*
X211786666Y-112304047D01*
X211786666Y-112304047D02*
X211786666Y-112446904D01*
X211786666Y-112446904D02*
X211834285Y-112542142D01*
X211834285Y-112542142D02*
X211881904Y-112589761D01*
X211881904Y-112589761D02*
X211977142Y-112637380D01*
X211977142Y-112637380D02*
X212358094Y-112637380D01*
X212358094Y-112637380D02*
X212358094Y-111637380D01*
X212358094Y-111637380D02*
X212024761Y-111637380D01*
X212024761Y-111637380D02*
X211929523Y-111685000D01*
X211929523Y-111685000D02*
X211881904Y-111732619D01*
X211881904Y-111732619D02*
X211834285Y-111827857D01*
X211834285Y-111827857D02*
X211834285Y-111923095D01*
X211834285Y-111923095D02*
X211881904Y-112018333D01*
X211881904Y-112018333D02*
X211929523Y-112065952D01*
X211929523Y-112065952D02*
X212024761Y-112113571D01*
X212024761Y-112113571D02*
X212358094Y-112113571D01*
X211405713Y-111732619D02*
X211358094Y-111685000D01*
X211358094Y-111685000D02*
X211262856Y-111637380D01*
X211262856Y-111637380D02*
X211024761Y-111637380D01*
X211024761Y-111637380D02*
X210929523Y-111685000D01*
X210929523Y-111685000D02*
X210881904Y-111732619D01*
X210881904Y-111732619D02*
X210834285Y-111827857D01*
X210834285Y-111827857D02*
X210834285Y-111923095D01*
X210834285Y-111923095D02*
X210881904Y-112065952D01*
X210881904Y-112065952D02*
X211453332Y-112637380D01*
X211453332Y-112637380D02*
X210834285Y-112637380D01*
D11*
X101833571Y-125610951D02*
X101833571Y-124849047D01*
D12*
X171617619Y-83084285D02*
X171712857Y-83179523D01*
X171712857Y-83179523D02*
X171998571Y-83274761D01*
X171998571Y-83274761D02*
X172189047Y-83274761D01*
X172189047Y-83274761D02*
X172474762Y-83179523D01*
X172474762Y-83179523D02*
X172665238Y-82989047D01*
X172665238Y-82989047D02*
X172760476Y-82798571D01*
X172760476Y-82798571D02*
X172855714Y-82417619D01*
X172855714Y-82417619D02*
X172855714Y-82131904D01*
X172855714Y-82131904D02*
X172760476Y-81750952D01*
X172760476Y-81750952D02*
X172665238Y-81560476D01*
X172665238Y-81560476D02*
X172474762Y-81370000D01*
X172474762Y-81370000D02*
X172189047Y-81274761D01*
X172189047Y-81274761D02*
X171998571Y-81274761D01*
X171998571Y-81274761D02*
X171712857Y-81370000D01*
X171712857Y-81370000D02*
X171617619Y-81465238D01*
X170474762Y-83274761D02*
X170665238Y-83179523D01*
X170665238Y-83179523D02*
X170760476Y-83084285D01*
X170760476Y-83084285D02*
X170855714Y-82893809D01*
X170855714Y-82893809D02*
X170855714Y-82322380D01*
X170855714Y-82322380D02*
X170760476Y-82131904D01*
X170760476Y-82131904D02*
X170665238Y-82036666D01*
X170665238Y-82036666D02*
X170474762Y-81941428D01*
X170474762Y-81941428D02*
X170189047Y-81941428D01*
X170189047Y-81941428D02*
X169998571Y-82036666D01*
X169998571Y-82036666D02*
X169903333Y-82131904D01*
X169903333Y-82131904D02*
X169808095Y-82322380D01*
X169808095Y-82322380D02*
X169808095Y-82893809D01*
X169808095Y-82893809D02*
X169903333Y-83084285D01*
X169903333Y-83084285D02*
X169998571Y-83179523D01*
X169998571Y-83179523D02*
X170189047Y-83274761D01*
X170189047Y-83274761D02*
X170474762Y-83274761D01*
X168950952Y-83274761D02*
X168950952Y-81941428D01*
X168950952Y-82131904D02*
X168855714Y-82036666D01*
X168855714Y-82036666D02*
X168665238Y-81941428D01*
X168665238Y-81941428D02*
X168379523Y-81941428D01*
X168379523Y-81941428D02*
X168189047Y-82036666D01*
X168189047Y-82036666D02*
X168093809Y-82227142D01*
X168093809Y-82227142D02*
X168093809Y-83274761D01*
X168093809Y-82227142D02*
X167998571Y-82036666D01*
X167998571Y-82036666D02*
X167808095Y-81941428D01*
X167808095Y-81941428D02*
X167522381Y-81941428D01*
X167522381Y-81941428D02*
X167331904Y-82036666D01*
X167331904Y-82036666D02*
X167236666Y-82227142D01*
X167236666Y-82227142D02*
X167236666Y-83274761D01*
X166284285Y-81941428D02*
X166284285Y-83941428D01*
X166284285Y-82036666D02*
X166093809Y-81941428D01*
X166093809Y-81941428D02*
X165712856Y-81941428D01*
X165712856Y-81941428D02*
X165522380Y-82036666D01*
X165522380Y-82036666D02*
X165427142Y-82131904D01*
X165427142Y-82131904D02*
X165331904Y-82322380D01*
X165331904Y-82322380D02*
X165331904Y-82893809D01*
X165331904Y-82893809D02*
X165427142Y-83084285D01*
X165427142Y-83084285D02*
X165522380Y-83179523D01*
X165522380Y-83179523D02*
X165712856Y-83274761D01*
X165712856Y-83274761D02*
X166093809Y-83274761D01*
X166093809Y-83274761D02*
X166284285Y-83179523D01*
X163617618Y-81941428D02*
X163617618Y-83274761D01*
X164474761Y-81941428D02*
X164474761Y-82989047D01*
X164474761Y-82989047D02*
X164379523Y-83179523D01*
X164379523Y-83179523D02*
X164189047Y-83274761D01*
X164189047Y-83274761D02*
X163903332Y-83274761D01*
X163903332Y-83274761D02*
X163712856Y-83179523D01*
X163712856Y-83179523D02*
X163617618Y-83084285D01*
X162950951Y-81941428D02*
X162189047Y-81941428D01*
X162665237Y-81274761D02*
X162665237Y-82989047D01*
X162665237Y-82989047D02*
X162569999Y-83179523D01*
X162569999Y-83179523D02*
X162379523Y-83274761D01*
X162379523Y-83274761D02*
X162189047Y-83274761D01*
X160760475Y-83179523D02*
X160950951Y-83274761D01*
X160950951Y-83274761D02*
X161331904Y-83274761D01*
X161331904Y-83274761D02*
X161522380Y-83179523D01*
X161522380Y-83179523D02*
X161617618Y-82989047D01*
X161617618Y-82989047D02*
X161617618Y-82227142D01*
X161617618Y-82227142D02*
X161522380Y-82036666D01*
X161522380Y-82036666D02*
X161331904Y-81941428D01*
X161331904Y-81941428D02*
X160950951Y-81941428D01*
X160950951Y-81941428D02*
X160760475Y-82036666D01*
X160760475Y-82036666D02*
X160665237Y-82227142D01*
X160665237Y-82227142D02*
X160665237Y-82417619D01*
X160665237Y-82417619D02*
X161617618Y-82608095D01*
X158608094Y-83274761D02*
X158608094Y-81274761D01*
X158608094Y-81274761D02*
X157941427Y-82703333D01*
X157941427Y-82703333D02*
X157274761Y-81274761D01*
X157274761Y-81274761D02*
X157274761Y-83274761D01*
X156036666Y-83274761D02*
X156227142Y-83179523D01*
X156227142Y-83179523D02*
X156322380Y-83084285D01*
X156322380Y-83084285D02*
X156417618Y-82893809D01*
X156417618Y-82893809D02*
X156417618Y-82322380D01*
X156417618Y-82322380D02*
X156322380Y-82131904D01*
X156322380Y-82131904D02*
X156227142Y-82036666D01*
X156227142Y-82036666D02*
X156036666Y-81941428D01*
X156036666Y-81941428D02*
X155750951Y-81941428D01*
X155750951Y-81941428D02*
X155560475Y-82036666D01*
X155560475Y-82036666D02*
X155465237Y-82131904D01*
X155465237Y-82131904D02*
X155369999Y-82322380D01*
X155369999Y-82322380D02*
X155369999Y-82893809D01*
X155369999Y-82893809D02*
X155465237Y-83084285D01*
X155465237Y-83084285D02*
X155560475Y-83179523D01*
X155560475Y-83179523D02*
X155750951Y-83274761D01*
X155750951Y-83274761D02*
X156036666Y-83274761D01*
X153655713Y-83274761D02*
X153655713Y-81274761D01*
X153655713Y-83179523D02*
X153846189Y-83274761D01*
X153846189Y-83274761D02*
X154227142Y-83274761D01*
X154227142Y-83274761D02*
X154417618Y-83179523D01*
X154417618Y-83179523D02*
X154512856Y-83084285D01*
X154512856Y-83084285D02*
X154608094Y-82893809D01*
X154608094Y-82893809D02*
X154608094Y-82322380D01*
X154608094Y-82322380D02*
X154512856Y-82131904D01*
X154512856Y-82131904D02*
X154417618Y-82036666D01*
X154417618Y-82036666D02*
X154227142Y-81941428D01*
X154227142Y-81941428D02*
X153846189Y-81941428D01*
X153846189Y-81941428D02*
X153655713Y-82036666D01*
X151846189Y-81941428D02*
X151846189Y-83274761D01*
X152703332Y-81941428D02*
X152703332Y-82989047D01*
X152703332Y-82989047D02*
X152608094Y-83179523D01*
X152608094Y-83179523D02*
X152417618Y-83274761D01*
X152417618Y-83274761D02*
X152131903Y-83274761D01*
X152131903Y-83274761D02*
X151941427Y-83179523D01*
X151941427Y-83179523D02*
X151846189Y-83084285D01*
X150608094Y-83274761D02*
X150798570Y-83179523D01*
X150798570Y-83179523D02*
X150893808Y-82989047D01*
X150893808Y-82989047D02*
X150893808Y-81274761D01*
X149084284Y-83179523D02*
X149274760Y-83274761D01*
X149274760Y-83274761D02*
X149655713Y-83274761D01*
X149655713Y-83274761D02*
X149846189Y-83179523D01*
X149846189Y-83179523D02*
X149941427Y-82989047D01*
X149941427Y-82989047D02*
X149941427Y-82227142D01*
X149941427Y-82227142D02*
X149846189Y-82036666D01*
X149846189Y-82036666D02*
X149655713Y-81941428D01*
X149655713Y-81941428D02*
X149274760Y-81941428D01*
X149274760Y-81941428D02*
X149084284Y-82036666D01*
X149084284Y-82036666D02*
X148989046Y-82227142D01*
X148989046Y-82227142D02*
X148989046Y-82417619D01*
X148989046Y-82417619D02*
X149941427Y-82608095D01*
X146074760Y-81941428D02*
X146074760Y-83274761D01*
X146550951Y-81179523D02*
X147027141Y-82608095D01*
X147027141Y-82608095D02*
X145789046Y-82608095D01*
D11*
X194747380Y-75991905D02*
X195556904Y-75991905D01*
X195556904Y-75991905D02*
X195652142Y-76039524D01*
X195652142Y-76039524D02*
X195699761Y-76087143D01*
X195699761Y-76087143D02*
X195747380Y-76182381D01*
X195747380Y-76182381D02*
X195747380Y-76372857D01*
X195747380Y-76372857D02*
X195699761Y-76468095D01*
X195699761Y-76468095D02*
X195652142Y-76515714D01*
X195652142Y-76515714D02*
X195556904Y-76563333D01*
X195556904Y-76563333D02*
X194747380Y-76563333D01*
X195747380Y-77563333D02*
X195747380Y-76991905D01*
X195747380Y-77277619D02*
X194747380Y-77277619D01*
X194747380Y-77277619D02*
X194890238Y-77182381D01*
X194890238Y-77182381D02*
X194985476Y-77087143D01*
X194985476Y-77087143D02*
X195033095Y-76991905D01*
X194842619Y-77944286D02*
X194795000Y-77991905D01*
X194795000Y-77991905D02*
X194747380Y-78087143D01*
X194747380Y-78087143D02*
X194747380Y-78325238D01*
X194747380Y-78325238D02*
X194795000Y-78420476D01*
X194795000Y-78420476D02*
X194842619Y-78468095D01*
X194842619Y-78468095D02*
X194937857Y-78515714D01*
X194937857Y-78515714D02*
X195033095Y-78515714D01*
X195033095Y-78515714D02*
X195175952Y-78468095D01*
X195175952Y-78468095D02*
X195747380Y-77896667D01*
X195747380Y-77896667D02*
X195747380Y-78515714D01*
X157374523Y-136262380D02*
X157374523Y-136976666D01*
X157374523Y-136976666D02*
X157422142Y-137119523D01*
X157422142Y-137119523D02*
X157517380Y-137214761D01*
X157517380Y-137214761D02*
X157660237Y-137262380D01*
X157660237Y-137262380D02*
X157755475Y-137262380D01*
X156945951Y-136357619D02*
X156898332Y-136310000D01*
X156898332Y-136310000D02*
X156803094Y-136262380D01*
X156803094Y-136262380D02*
X156564999Y-136262380D01*
X156564999Y-136262380D02*
X156469761Y-136310000D01*
X156469761Y-136310000D02*
X156422142Y-136357619D01*
X156422142Y-136357619D02*
X156374523Y-136452857D01*
X156374523Y-136452857D02*
X156374523Y-136548095D01*
X156374523Y-136548095D02*
X156422142Y-136690952D01*
X156422142Y-136690952D02*
X156993570Y-137262380D01*
X156993570Y-137262380D02*
X156374523Y-137262380D01*
X155422142Y-137262380D02*
X155993570Y-137262380D01*
X155707856Y-137262380D02*
X155707856Y-136262380D01*
X155707856Y-136262380D02*
X155803094Y-136405238D01*
X155803094Y-136405238D02*
X155898332Y-136500476D01*
X155898332Y-136500476D02*
X155993570Y-136548095D01*
D13*
X193280952Y-79623690D02*
X193280952Y-80028452D01*
X193280952Y-80028452D02*
X193257142Y-80076071D01*
X193257142Y-80076071D02*
X193233333Y-80099880D01*
X193233333Y-80099880D02*
X193185714Y-80123690D01*
X193185714Y-80123690D02*
X193090476Y-80123690D01*
X193090476Y-80123690D02*
X193042857Y-80099880D01*
X193042857Y-80099880D02*
X193019047Y-80076071D01*
X193019047Y-80076071D02*
X192995238Y-80028452D01*
X192995238Y-80028452D02*
X192995238Y-79623690D01*
X192519047Y-79623690D02*
X192757142Y-79623690D01*
X192757142Y-79623690D02*
X192780951Y-79861785D01*
X192780951Y-79861785D02*
X192757142Y-79837976D01*
X192757142Y-79837976D02*
X192709523Y-79814166D01*
X192709523Y-79814166D02*
X192590475Y-79814166D01*
X192590475Y-79814166D02*
X192542856Y-79837976D01*
X192542856Y-79837976D02*
X192519047Y-79861785D01*
X192519047Y-79861785D02*
X192495237Y-79909404D01*
X192495237Y-79909404D02*
X192495237Y-80028452D01*
X192495237Y-80028452D02*
X192519047Y-80076071D01*
X192519047Y-80076071D02*
X192542856Y-80099880D01*
X192542856Y-80099880D02*
X192590475Y-80123690D01*
X192590475Y-80123690D02*
X192709523Y-80123690D01*
X192709523Y-80123690D02*
X192757142Y-80099880D01*
X192757142Y-80099880D02*
X192780951Y-80076071D01*
X191620952Y-88543690D02*
X191620952Y-88948452D01*
X191620952Y-88948452D02*
X191597142Y-88996071D01*
X191597142Y-88996071D02*
X191573333Y-89019880D01*
X191573333Y-89019880D02*
X191525714Y-89043690D01*
X191525714Y-89043690D02*
X191430476Y-89043690D01*
X191430476Y-89043690D02*
X191382857Y-89019880D01*
X191382857Y-89019880D02*
X191359047Y-88996071D01*
X191359047Y-88996071D02*
X191335238Y-88948452D01*
X191335238Y-88948452D02*
X191335238Y-88543690D01*
X190835237Y-89043690D02*
X191120951Y-89043690D01*
X190978094Y-89043690D02*
X190978094Y-88543690D01*
X190978094Y-88543690D02*
X191025713Y-88615119D01*
X191025713Y-88615119D02*
X191073332Y-88662738D01*
X191073332Y-88662738D02*
X191120951Y-88686547D01*
X194711428Y-89883690D02*
X194878094Y-89645595D01*
X194997142Y-89883690D02*
X194997142Y-89383690D01*
X194997142Y-89383690D02*
X194806666Y-89383690D01*
X194806666Y-89383690D02*
X194759047Y-89407500D01*
X194759047Y-89407500D02*
X194735237Y-89431309D01*
X194735237Y-89431309D02*
X194711428Y-89478928D01*
X194711428Y-89478928D02*
X194711428Y-89550357D01*
X194711428Y-89550357D02*
X194735237Y-89597976D01*
X194735237Y-89597976D02*
X194759047Y-89621785D01*
X194759047Y-89621785D02*
X194806666Y-89645595D01*
X194806666Y-89645595D02*
X194997142Y-89645595D01*
X194544761Y-89383690D02*
X194235237Y-89383690D01*
X194235237Y-89383690D02*
X194401904Y-89574166D01*
X194401904Y-89574166D02*
X194330475Y-89574166D01*
X194330475Y-89574166D02*
X194282856Y-89597976D01*
X194282856Y-89597976D02*
X194259047Y-89621785D01*
X194259047Y-89621785D02*
X194235237Y-89669404D01*
X194235237Y-89669404D02*
X194235237Y-89788452D01*
X194235237Y-89788452D02*
X194259047Y-89836071D01*
X194259047Y-89836071D02*
X194282856Y-89859880D01*
X194282856Y-89859880D02*
X194330475Y-89883690D01*
X194330475Y-89883690D02*
X194473332Y-89883690D01*
X194473332Y-89883690D02*
X194520951Y-89859880D01*
X194520951Y-89859880D02*
X194544761Y-89836071D01*
X194068571Y-89383690D02*
X193735238Y-89383690D01*
X193735238Y-89383690D02*
X193949523Y-89883690D01*
X194711428Y-90793690D02*
X194878094Y-90555595D01*
X194997142Y-90793690D02*
X194997142Y-90293690D01*
X194997142Y-90293690D02*
X194806666Y-90293690D01*
X194806666Y-90293690D02*
X194759047Y-90317500D01*
X194759047Y-90317500D02*
X194735237Y-90341309D01*
X194735237Y-90341309D02*
X194711428Y-90388928D01*
X194711428Y-90388928D02*
X194711428Y-90460357D01*
X194711428Y-90460357D02*
X194735237Y-90507976D01*
X194735237Y-90507976D02*
X194759047Y-90531785D01*
X194759047Y-90531785D02*
X194806666Y-90555595D01*
X194806666Y-90555595D02*
X194997142Y-90555595D01*
X194544761Y-90293690D02*
X194235237Y-90293690D01*
X194235237Y-90293690D02*
X194401904Y-90484166D01*
X194401904Y-90484166D02*
X194330475Y-90484166D01*
X194330475Y-90484166D02*
X194282856Y-90507976D01*
X194282856Y-90507976D02*
X194259047Y-90531785D01*
X194259047Y-90531785D02*
X194235237Y-90579404D01*
X194235237Y-90579404D02*
X194235237Y-90698452D01*
X194235237Y-90698452D02*
X194259047Y-90746071D01*
X194259047Y-90746071D02*
X194282856Y-90769880D01*
X194282856Y-90769880D02*
X194330475Y-90793690D01*
X194330475Y-90793690D02*
X194473332Y-90793690D01*
X194473332Y-90793690D02*
X194520951Y-90769880D01*
X194520951Y-90769880D02*
X194544761Y-90746071D01*
X193806666Y-90293690D02*
X193901904Y-90293690D01*
X193901904Y-90293690D02*
X193949523Y-90317500D01*
X193949523Y-90317500D02*
X193973333Y-90341309D01*
X193973333Y-90341309D02*
X194020952Y-90412738D01*
X194020952Y-90412738D02*
X194044761Y-90507976D01*
X194044761Y-90507976D02*
X194044761Y-90698452D01*
X194044761Y-90698452D02*
X194020952Y-90746071D01*
X194020952Y-90746071D02*
X193997142Y-90769880D01*
X193997142Y-90769880D02*
X193949523Y-90793690D01*
X193949523Y-90793690D02*
X193854285Y-90793690D01*
X193854285Y-90793690D02*
X193806666Y-90769880D01*
X193806666Y-90769880D02*
X193782857Y-90746071D01*
X193782857Y-90746071D02*
X193759047Y-90698452D01*
X193759047Y-90698452D02*
X193759047Y-90579404D01*
X193759047Y-90579404D02*
X193782857Y-90531785D01*
X193782857Y-90531785D02*
X193806666Y-90507976D01*
X193806666Y-90507976D02*
X193854285Y-90484166D01*
X193854285Y-90484166D02*
X193949523Y-90484166D01*
X193949523Y-90484166D02*
X193997142Y-90507976D01*
X193997142Y-90507976D02*
X194020952Y-90531785D01*
X194020952Y-90531785D02*
X194044761Y-90579404D01*
X191593690Y-75055238D02*
X191950833Y-75055238D01*
X191950833Y-75055238D02*
X192022261Y-75031429D01*
X192022261Y-75031429D02*
X192069880Y-74983810D01*
X192069880Y-74983810D02*
X192093690Y-74912381D01*
X192093690Y-74912381D02*
X192093690Y-74864762D01*
X191641309Y-75269524D02*
X191617500Y-75293333D01*
X191617500Y-75293333D02*
X191593690Y-75340952D01*
X191593690Y-75340952D02*
X191593690Y-75460000D01*
X191593690Y-75460000D02*
X191617500Y-75507619D01*
X191617500Y-75507619D02*
X191641309Y-75531428D01*
X191641309Y-75531428D02*
X191688928Y-75555238D01*
X191688928Y-75555238D02*
X191736547Y-75555238D01*
X191736547Y-75555238D02*
X191807976Y-75531428D01*
X191807976Y-75531428D02*
X192093690Y-75245714D01*
X192093690Y-75245714D02*
X192093690Y-75555238D01*
X191593690Y-75864761D02*
X191593690Y-75912380D01*
X191593690Y-75912380D02*
X191617500Y-75959999D01*
X191617500Y-75959999D02*
X191641309Y-75983809D01*
X191641309Y-75983809D02*
X191688928Y-76007618D01*
X191688928Y-76007618D02*
X191784166Y-76031428D01*
X191784166Y-76031428D02*
X191903214Y-76031428D01*
X191903214Y-76031428D02*
X191998452Y-76007618D01*
X191998452Y-76007618D02*
X192046071Y-75983809D01*
X192046071Y-75983809D02*
X192069880Y-75959999D01*
X192069880Y-75959999D02*
X192093690Y-75912380D01*
X192093690Y-75912380D02*
X192093690Y-75864761D01*
X192093690Y-75864761D02*
X192069880Y-75817142D01*
X192069880Y-75817142D02*
X192046071Y-75793333D01*
X192046071Y-75793333D02*
X191998452Y-75769523D01*
X191998452Y-75769523D02*
X191903214Y-75745714D01*
X191903214Y-75745714D02*
X191784166Y-75745714D01*
X191784166Y-75745714D02*
X191688928Y-75769523D01*
X191688928Y-75769523D02*
X191641309Y-75793333D01*
X191641309Y-75793333D02*
X191617500Y-75817142D01*
X191617500Y-75817142D02*
X191593690Y-75864761D01*
D11*
X106988880Y-87760476D02*
X107703166Y-87760476D01*
X107703166Y-87760476D02*
X107846023Y-87712857D01*
X107846023Y-87712857D02*
X107941261Y-87617619D01*
X107941261Y-87617619D02*
X107988880Y-87474762D01*
X107988880Y-87474762D02*
X107988880Y-87379524D01*
X107988880Y-88760476D02*
X107988880Y-88189048D01*
X107988880Y-88474762D02*
X106988880Y-88474762D01*
X106988880Y-88474762D02*
X107131738Y-88379524D01*
X107131738Y-88379524D02*
X107226976Y-88284286D01*
X107226976Y-88284286D02*
X107274595Y-88189048D01*
X106988880Y-89379524D02*
X106988880Y-89474762D01*
X106988880Y-89474762D02*
X107036500Y-89570000D01*
X107036500Y-89570000D02*
X107084119Y-89617619D01*
X107084119Y-89617619D02*
X107179357Y-89665238D01*
X107179357Y-89665238D02*
X107369833Y-89712857D01*
X107369833Y-89712857D02*
X107607928Y-89712857D01*
X107607928Y-89712857D02*
X107798404Y-89665238D01*
X107798404Y-89665238D02*
X107893642Y-89617619D01*
X107893642Y-89617619D02*
X107941261Y-89570000D01*
X107941261Y-89570000D02*
X107988880Y-89474762D01*
X107988880Y-89474762D02*
X107988880Y-89379524D01*
X107988880Y-89379524D02*
X107941261Y-89284286D01*
X107941261Y-89284286D02*
X107893642Y-89236667D01*
X107893642Y-89236667D02*
X107798404Y-89189048D01*
X107798404Y-89189048D02*
X107607928Y-89141429D01*
X107607928Y-89141429D02*
X107369833Y-89141429D01*
X107369833Y-89141429D02*
X107179357Y-89189048D01*
X107179357Y-89189048D02*
X107084119Y-89236667D01*
X107084119Y-89236667D02*
X107036500Y-89284286D01*
X107036500Y-89284286D02*
X106988880Y-89379524D01*
X102103523Y-128542380D02*
X102103523Y-129256666D01*
X102103523Y-129256666D02*
X102151142Y-129399523D01*
X102151142Y-129399523D02*
X102246380Y-129494761D01*
X102246380Y-129494761D02*
X102389237Y-129542380D01*
X102389237Y-129542380D02*
X102484475Y-129542380D01*
X101103523Y-129542380D02*
X101674951Y-129542380D01*
X101389237Y-129542380D02*
X101389237Y-128542380D01*
X101389237Y-128542380D02*
X101484475Y-128685238D01*
X101484475Y-128685238D02*
X101579713Y-128780476D01*
X101579713Y-128780476D02*
X101674951Y-128828095D01*
X100627332Y-129542380D02*
X100436856Y-129542380D01*
X100436856Y-129542380D02*
X100341618Y-129494761D01*
X100341618Y-129494761D02*
X100293999Y-129447142D01*
X100293999Y-129447142D02*
X100198761Y-129304285D01*
X100198761Y-129304285D02*
X100151142Y-129113809D01*
X100151142Y-129113809D02*
X100151142Y-128732857D01*
X100151142Y-128732857D02*
X100198761Y-128637619D01*
X100198761Y-128637619D02*
X100246380Y-128590000D01*
X100246380Y-128590000D02*
X100341618Y-128542380D01*
X100341618Y-128542380D02*
X100532094Y-128542380D01*
X100532094Y-128542380D02*
X100627332Y-128590000D01*
X100627332Y-128590000D02*
X100674951Y-128637619D01*
X100674951Y-128637619D02*
X100722570Y-128732857D01*
X100722570Y-128732857D02*
X100722570Y-128970952D01*
X100722570Y-128970952D02*
X100674951Y-129066190D01*
X100674951Y-129066190D02*
X100627332Y-129113809D01*
X100627332Y-129113809D02*
X100532094Y-129161428D01*
X100532094Y-129161428D02*
X100341618Y-129161428D01*
X100341618Y-129161428D02*
X100246380Y-129113809D01*
X100246380Y-129113809D02*
X100198761Y-129066190D01*
X100198761Y-129066190D02*
X100151142Y-128970952D01*
X204859523Y-127077380D02*
X204859523Y-127791666D01*
X204859523Y-127791666D02*
X204907142Y-127934523D01*
X204907142Y-127934523D02*
X205002380Y-128029761D01*
X205002380Y-128029761D02*
X205145237Y-128077380D01*
X205145237Y-128077380D02*
X205240475Y-128077380D01*
X203859523Y-128077380D02*
X204430951Y-128077380D01*
X204145237Y-128077380D02*
X204145237Y-127077380D01*
X204145237Y-127077380D02*
X204240475Y-127220238D01*
X204240475Y-127220238D02*
X204335713Y-127315476D01*
X204335713Y-127315476D02*
X204430951Y-127363095D01*
X202954761Y-127077380D02*
X203430951Y-127077380D01*
X203430951Y-127077380D02*
X203478570Y-127553571D01*
X203478570Y-127553571D02*
X203430951Y-127505952D01*
X203430951Y-127505952D02*
X203335713Y-127458333D01*
X203335713Y-127458333D02*
X203097618Y-127458333D01*
X203097618Y-127458333D02*
X203002380Y-127505952D01*
X203002380Y-127505952D02*
X202954761Y-127553571D01*
X202954761Y-127553571D02*
X202907142Y-127648809D01*
X202907142Y-127648809D02*
X202907142Y-127886904D01*
X202907142Y-127886904D02*
X202954761Y-127982142D01*
X202954761Y-127982142D02*
X203002380Y-128029761D01*
X203002380Y-128029761D02*
X203097618Y-128077380D01*
X203097618Y-128077380D02*
X203335713Y-128077380D01*
X203335713Y-128077380D02*
X203430951Y-128029761D01*
X203430951Y-128029761D02*
X203478570Y-127982142D01*
X202048333Y-136865904D02*
X202048333Y-136389714D01*
X201762619Y-136961142D02*
X202762619Y-136627809D01*
X202762619Y-136627809D02*
X201762619Y-136294476D01*
X202429285Y-135532571D02*
X201762619Y-135532571D01*
X202429285Y-135961142D02*
X201905476Y-135961142D01*
X201905476Y-135961142D02*
X201810238Y-135913523D01*
X201810238Y-135913523D02*
X201762619Y-135818285D01*
X201762619Y-135818285D02*
X201762619Y-135675428D01*
X201762619Y-135675428D02*
X201810238Y-135580190D01*
X201810238Y-135580190D02*
X201857857Y-135532571D01*
X201762619Y-134627809D02*
X202762619Y-134627809D01*
X201810238Y-134627809D02*
X201762619Y-134723047D01*
X201762619Y-134723047D02*
X201762619Y-134913523D01*
X201762619Y-134913523D02*
X201810238Y-135008761D01*
X201810238Y-135008761D02*
X201857857Y-135056380D01*
X201857857Y-135056380D02*
X201953095Y-135103999D01*
X201953095Y-135103999D02*
X202238809Y-135103999D01*
X202238809Y-135103999D02*
X202334047Y-135056380D01*
X202334047Y-135056380D02*
X202381666Y-135008761D01*
X202381666Y-135008761D02*
X202429285Y-134913523D01*
X202429285Y-134913523D02*
X202429285Y-134723047D01*
X202429285Y-134723047D02*
X202381666Y-134627809D01*
X201762619Y-134151618D02*
X202429285Y-134151618D01*
X202762619Y-134151618D02*
X202715000Y-134199237D01*
X202715000Y-134199237D02*
X202667380Y-134151618D01*
X202667380Y-134151618D02*
X202715000Y-134103999D01*
X202715000Y-134103999D02*
X202762619Y-134151618D01*
X202762619Y-134151618D02*
X202667380Y-134151618D01*
X201762619Y-133532571D02*
X201810238Y-133627809D01*
X201810238Y-133627809D02*
X201857857Y-133675428D01*
X201857857Y-133675428D02*
X201953095Y-133723047D01*
X201953095Y-133723047D02*
X202238809Y-133723047D01*
X202238809Y-133723047D02*
X202334047Y-133675428D01*
X202334047Y-133675428D02*
X202381666Y-133627809D01*
X202381666Y-133627809D02*
X202429285Y-133532571D01*
X202429285Y-133532571D02*
X202429285Y-133389714D01*
X202429285Y-133389714D02*
X202381666Y-133294476D01*
X202381666Y-133294476D02*
X202334047Y-133246857D01*
X202334047Y-133246857D02*
X202238809Y-133199238D01*
X202238809Y-133199238D02*
X201953095Y-133199238D01*
X201953095Y-133199238D02*
X201857857Y-133246857D01*
X201857857Y-133246857D02*
X201810238Y-133294476D01*
X201810238Y-133294476D02*
X201762619Y-133389714D01*
X201762619Y-133389714D02*
X201762619Y-133532571D01*
X202762619Y-132580190D02*
X202762619Y-132389714D01*
X202762619Y-132389714D02*
X202715000Y-132294476D01*
X202715000Y-132294476D02*
X202619761Y-132199238D01*
X202619761Y-132199238D02*
X202429285Y-132151619D01*
X202429285Y-132151619D02*
X202095952Y-132151619D01*
X202095952Y-132151619D02*
X201905476Y-132199238D01*
X201905476Y-132199238D02*
X201810238Y-132294476D01*
X201810238Y-132294476D02*
X201762619Y-132389714D01*
X201762619Y-132389714D02*
X201762619Y-132580190D01*
X201762619Y-132580190D02*
X201810238Y-132675428D01*
X201810238Y-132675428D02*
X201905476Y-132770666D01*
X201905476Y-132770666D02*
X202095952Y-132818285D01*
X202095952Y-132818285D02*
X202429285Y-132818285D01*
X202429285Y-132818285D02*
X202619761Y-132770666D01*
X202619761Y-132770666D02*
X202715000Y-132675428D01*
X202715000Y-132675428D02*
X202762619Y-132580190D01*
X202762619Y-131723047D02*
X201953095Y-131723047D01*
X201953095Y-131723047D02*
X201857857Y-131675428D01*
X201857857Y-131675428D02*
X201810238Y-131627809D01*
X201810238Y-131627809D02*
X201762619Y-131532571D01*
X201762619Y-131532571D02*
X201762619Y-131342095D01*
X201762619Y-131342095D02*
X201810238Y-131246857D01*
X201810238Y-131246857D02*
X201857857Y-131199238D01*
X201857857Y-131199238D02*
X201953095Y-131151619D01*
X201953095Y-131151619D02*
X202762619Y-131151619D01*
X202762619Y-130818285D02*
X202762619Y-130246857D01*
X201762619Y-130532571D02*
X202762619Y-130532571D01*
X202447380Y-124736666D02*
X203161666Y-124736666D01*
X203161666Y-124736666D02*
X203304523Y-124689047D01*
X203304523Y-124689047D02*
X203399761Y-124593809D01*
X203399761Y-124593809D02*
X203447380Y-124450952D01*
X203447380Y-124450952D02*
X203447380Y-124355714D01*
X202447380Y-125689047D02*
X202447380Y-125212857D01*
X202447380Y-125212857D02*
X202923571Y-125165238D01*
X202923571Y-125165238D02*
X202875952Y-125212857D01*
X202875952Y-125212857D02*
X202828333Y-125308095D01*
X202828333Y-125308095D02*
X202828333Y-125546190D01*
X202828333Y-125546190D02*
X202875952Y-125641428D01*
X202875952Y-125641428D02*
X202923571Y-125689047D01*
X202923571Y-125689047D02*
X203018809Y-125736666D01*
X203018809Y-125736666D02*
X203256904Y-125736666D01*
X203256904Y-125736666D02*
X203352142Y-125689047D01*
X203352142Y-125689047D02*
X203399761Y-125641428D01*
X203399761Y-125641428D02*
X203447380Y-125546190D01*
X203447380Y-125546190D02*
X203447380Y-125308095D01*
X203447380Y-125308095D02*
X203399761Y-125212857D01*
X203399761Y-125212857D02*
X203352142Y-125165238D01*
X163243142Y-85701380D02*
X163243142Y-84701380D01*
X163243142Y-84701380D02*
X162909809Y-85415666D01*
X162909809Y-85415666D02*
X162576476Y-84701380D01*
X162576476Y-84701380D02*
X162576476Y-85701380D01*
X161957428Y-85701380D02*
X162052666Y-85653761D01*
X162052666Y-85653761D02*
X162100285Y-85606142D01*
X162100285Y-85606142D02*
X162147904Y-85510904D01*
X162147904Y-85510904D02*
X162147904Y-85225190D01*
X162147904Y-85225190D02*
X162100285Y-85129952D01*
X162100285Y-85129952D02*
X162052666Y-85082333D01*
X162052666Y-85082333D02*
X161957428Y-85034714D01*
X161957428Y-85034714D02*
X161814571Y-85034714D01*
X161814571Y-85034714D02*
X161719333Y-85082333D01*
X161719333Y-85082333D02*
X161671714Y-85129952D01*
X161671714Y-85129952D02*
X161624095Y-85225190D01*
X161624095Y-85225190D02*
X161624095Y-85510904D01*
X161624095Y-85510904D02*
X161671714Y-85606142D01*
X161671714Y-85606142D02*
X161719333Y-85653761D01*
X161719333Y-85653761D02*
X161814571Y-85701380D01*
X161814571Y-85701380D02*
X161957428Y-85701380D01*
X160766952Y-85701380D02*
X160766952Y-84701380D01*
X160766952Y-85653761D02*
X160862190Y-85701380D01*
X160862190Y-85701380D02*
X161052666Y-85701380D01*
X161052666Y-85701380D02*
X161147904Y-85653761D01*
X161147904Y-85653761D02*
X161195523Y-85606142D01*
X161195523Y-85606142D02*
X161243142Y-85510904D01*
X161243142Y-85510904D02*
X161243142Y-85225190D01*
X161243142Y-85225190D02*
X161195523Y-85129952D01*
X161195523Y-85129952D02*
X161147904Y-85082333D01*
X161147904Y-85082333D02*
X161052666Y-85034714D01*
X161052666Y-85034714D02*
X160862190Y-85034714D01*
X160862190Y-85034714D02*
X160766952Y-85082333D01*
X159862190Y-85034714D02*
X159862190Y-85701380D01*
X160290761Y-85034714D02*
X160290761Y-85558523D01*
X160290761Y-85558523D02*
X160243142Y-85653761D01*
X160243142Y-85653761D02*
X160147904Y-85701380D01*
X160147904Y-85701380D02*
X160005047Y-85701380D01*
X160005047Y-85701380D02*
X159909809Y-85653761D01*
X159909809Y-85653761D02*
X159862190Y-85606142D01*
X159243142Y-85701380D02*
X159338380Y-85653761D01*
X159338380Y-85653761D02*
X159385999Y-85558523D01*
X159385999Y-85558523D02*
X159385999Y-84701380D01*
X158481237Y-85653761D02*
X158576475Y-85701380D01*
X158576475Y-85701380D02*
X158766951Y-85701380D01*
X158766951Y-85701380D02*
X158862189Y-85653761D01*
X158862189Y-85653761D02*
X158909808Y-85558523D01*
X158909808Y-85558523D02*
X158909808Y-85177571D01*
X158909808Y-85177571D02*
X158862189Y-85082333D01*
X158862189Y-85082333D02*
X158766951Y-85034714D01*
X158766951Y-85034714D02*
X158576475Y-85034714D01*
X158576475Y-85034714D02*
X158481237Y-85082333D01*
X158481237Y-85082333D02*
X158433618Y-85177571D01*
X158433618Y-85177571D02*
X158433618Y-85272809D01*
X158433618Y-85272809D02*
X158909808Y-85368047D01*
X157481237Y-85701380D02*
X158052665Y-85701380D01*
X157766951Y-85701380D02*
X157766951Y-84701380D01*
X157766951Y-84701380D02*
X157862189Y-84844238D01*
X157862189Y-84844238D02*
X157957427Y-84939476D01*
X157957427Y-84939476D02*
X158052665Y-84987095D01*
X129149523Y-84498880D02*
X129149523Y-85213166D01*
X129149523Y-85213166D02*
X129197142Y-85356023D01*
X129197142Y-85356023D02*
X129292380Y-85451261D01*
X129292380Y-85451261D02*
X129435237Y-85498880D01*
X129435237Y-85498880D02*
X129530475Y-85498880D01*
X128149523Y-85498880D02*
X128720951Y-85498880D01*
X128435237Y-85498880D02*
X128435237Y-84498880D01*
X128435237Y-84498880D02*
X128530475Y-84641738D01*
X128530475Y-84641738D02*
X128625713Y-84736976D01*
X128625713Y-84736976D02*
X128720951Y-84784595D01*
X127197142Y-85498880D02*
X127768570Y-85498880D01*
X127482856Y-85498880D02*
X127482856Y-84498880D01*
X127482856Y-84498880D02*
X127578094Y-84641738D01*
X127578094Y-84641738D02*
X127673332Y-84736976D01*
X127673332Y-84736976D02*
X127768570Y-84784595D01*
X202427380Y-107304666D02*
X203141666Y-107304666D01*
X203141666Y-107304666D02*
X203284523Y-107257047D01*
X203284523Y-107257047D02*
X203379761Y-107161809D01*
X203379761Y-107161809D02*
X203427380Y-107018952D01*
X203427380Y-107018952D02*
X203427380Y-106923714D01*
X202427380Y-108209428D02*
X202427380Y-108018952D01*
X202427380Y-108018952D02*
X202475000Y-107923714D01*
X202475000Y-107923714D02*
X202522619Y-107876095D01*
X202522619Y-107876095D02*
X202665476Y-107780857D01*
X202665476Y-107780857D02*
X202855952Y-107733238D01*
X202855952Y-107733238D02*
X203236904Y-107733238D01*
X203236904Y-107733238D02*
X203332142Y-107780857D01*
X203332142Y-107780857D02*
X203379761Y-107828476D01*
X203379761Y-107828476D02*
X203427380Y-107923714D01*
X203427380Y-107923714D02*
X203427380Y-108114190D01*
X203427380Y-108114190D02*
X203379761Y-108209428D01*
X203379761Y-108209428D02*
X203332142Y-108257047D01*
X203332142Y-108257047D02*
X203236904Y-108304666D01*
X203236904Y-108304666D02*
X202998809Y-108304666D01*
X202998809Y-108304666D02*
X202903571Y-108257047D01*
X202903571Y-108257047D02*
X202855952Y-108209428D01*
X202855952Y-108209428D02*
X202808333Y-108114190D01*
X202808333Y-108114190D02*
X202808333Y-107923714D01*
X202808333Y-107923714D02*
X202855952Y-107828476D01*
X202855952Y-107828476D02*
X202903571Y-107780857D01*
X202903571Y-107780857D02*
X202998809Y-107733238D01*
G36*
X101377754Y-149391012D02*
G01*
X101364309Y-149552186D01*
X101344602Y-149799881D01*
X102563576Y-149799881D01*
X102461215Y-149694271D01*
X102358853Y-149588661D01*
X102541119Y-149406395D01*
X102809165Y-149679956D01*
X102822118Y-149693193D01*
X102922468Y-149797039D01*
X103005431Y-149885096D01*
X103062704Y-149948420D01*
X103085981Y-149978069D01*
X103085667Y-149981405D01*
X103060692Y-150019658D01*
X103002863Y-150090100D01*
X102969289Y-150127967D01*
X102919602Y-150184007D01*
X102818330Y-150292656D01*
X102541909Y-150582691D01*
X102444873Y-150488641D01*
X102347838Y-150394591D01*
X102464830Y-150288896D01*
X102508470Y-150247544D01*
X102561231Y-150190259D01*
X102581821Y-150156671D01*
X102579526Y-150154386D01*
X102535838Y-150146668D01*
X102443416Y-150140006D01*
X102311107Y-150134778D01*
X102147761Y-150131364D01*
X101962223Y-150130141D01*
X101342625Y-150130141D01*
X101363602Y-150422872D01*
X101375923Y-150582491D01*
X101388658Y-150700993D01*
X101396424Y-150740182D01*
X101404060Y-150778711D01*
X101425060Y-150825473D01*
X101454589Y-150851110D01*
X101495578Y-150865452D01*
X101600382Y-150899728D01*
X101747056Y-150964183D01*
X101896764Y-151043647D01*
X102029352Y-151127268D01*
X102124668Y-151204194D01*
X102167871Y-151252520D01*
X102249625Y-151390072D01*
X102289603Y-151537511D01*
X102289278Y-151557725D01*
X102287281Y-151682113D01*
X102242141Y-151811152D01*
X102153659Y-151911907D01*
X102081015Y-151951813D01*
X101943503Y-151983676D01*
X101795241Y-151978690D01*
X101659286Y-151935742D01*
X101634302Y-151922051D01*
X101495489Y-151811022D01*
X101366935Y-151649951D01*
X101254408Y-151447266D01*
X101163672Y-151211392D01*
X101160215Y-151200177D01*
X101159089Y-151196751D01*
X101505204Y-151196751D01*
X101507694Y-151231250D01*
X101535858Y-151299693D01*
X101581109Y-151386393D01*
X101634713Y-151475805D01*
X101687938Y-151552383D01*
X101732053Y-151600581D01*
X101805473Y-151644506D01*
X101885566Y-151656729D01*
X101940021Y-151625462D01*
X101958817Y-151557725D01*
X101931932Y-151460540D01*
X101910705Y-151425705D01*
X101831821Y-151351437D01*
X101702195Y-151276062D01*
X101698588Y-151274278D01*
X101605448Y-151230736D01*
X101536058Y-151202909D01*
X101505204Y-151196751D01*
X101159089Y-151196751D01*
X101146010Y-151156970D01*
X101127878Y-151125820D01*
X101096520Y-151103694D01*
X101042635Y-151087557D01*
X100956921Y-151074376D01*
X100830077Y-151061115D01*
X100652802Y-151044742D01*
X100450142Y-151026071D01*
X100450142Y-151643946D01*
X100450222Y-151695927D01*
X100451800Y-151875991D01*
X100455156Y-152031411D01*
X100459966Y-152153336D01*
X100465909Y-152232916D01*
X100472660Y-152261301D01*
X100474891Y-152260973D01*
X100512066Y-152236817D01*
X100565882Y-152186242D01*
X100609169Y-152142825D01*
X100653430Y-152117746D01*
X100697041Y-152135281D01*
X100760341Y-152196502D01*
X100841585Y-152281303D01*
X100552056Y-152557361D01*
X100503389Y-152603582D01*
X100397426Y-152701700D01*
X100323173Y-152764527D01*
X100272950Y-152797469D01*
X100239074Y-152805930D01*
X100213865Y-152795314D01*
X100181477Y-152767203D01*
X100112676Y-152704043D01*
X100020926Y-152617905D01*
X99917113Y-152518928D01*
X99669022Y-152280646D01*
X99749951Y-152196174D01*
X99793096Y-152152364D01*
X99838855Y-152119053D01*
X99876860Y-152124206D01*
X99926963Y-152164243D01*
X99960953Y-152195192D01*
X100006674Y-152235845D01*
X100040138Y-152257537D01*
X100063243Y-152254399D01*
X100077888Y-152220564D01*
X100085974Y-152150162D01*
X100089398Y-152037327D01*
X100090060Y-151876190D01*
X100089859Y-151660882D01*
X100089859Y-151022568D01*
X99857175Y-151042340D01*
X99721939Y-151054064D01*
X99579741Y-151068185D01*
X99481832Y-151082263D01*
X99419166Y-151098971D01*
X99382695Y-151120986D01*
X99363370Y-151150980D01*
X99352145Y-151191630D01*
X99343514Y-151224852D01*
X99342109Y-151230261D01*
X99293215Y-151362223D01*
X99222967Y-151510297D01*
X99142938Y-151651487D01*
X99064699Y-151762801D01*
X99000364Y-151829592D01*
X98859682Y-151925355D01*
X98704700Y-151979246D01*
X98549294Y-151987401D01*
X98407338Y-151945953D01*
X98347086Y-151899309D01*
X98274088Y-151805105D01*
X98219828Y-151695396D01*
X98199029Y-151594990D01*
X98206116Y-151558450D01*
X98558653Y-151558450D01*
X98561273Y-151611864D01*
X98579909Y-151651545D01*
X98626206Y-151660396D01*
X98646907Y-151658777D01*
X98746424Y-151617928D01*
X98842955Y-151529608D01*
X98927631Y-151403772D01*
X98991579Y-151250373D01*
X98999022Y-151224852D01*
X98997929Y-151200734D01*
X98966844Y-151203750D01*
X98892862Y-151231423D01*
X98869647Y-151241302D01*
X98763466Y-151298827D01*
X98666249Y-151366864D01*
X98614581Y-151413810D01*
X98570437Y-151479936D01*
X98558653Y-151558450D01*
X98206116Y-151558450D01*
X98217359Y-151500486D01*
X98267315Y-151381524D01*
X98337050Y-151265490D01*
X98414697Y-151175467D01*
X98422680Y-151168542D01*
X98515686Y-151101817D01*
X98640281Y-151027764D01*
X98776349Y-150956936D01*
X98903774Y-150899885D01*
X99002439Y-150867163D01*
X99072172Y-150839310D01*
X99112101Y-150800031D01*
X99118222Y-150772561D01*
X99121715Y-150745626D01*
X99470994Y-150745626D01*
X99486898Y-150744307D01*
X99551531Y-150738680D01*
X99654159Y-150729649D01*
X99782116Y-150718325D01*
X99982010Y-150700591D01*
X100450142Y-150700591D01*
X100547719Y-150700804D01*
X100618484Y-150703238D01*
X100730705Y-150710399D01*
X100852692Y-150720600D01*
X101060088Y-150740182D01*
X101040340Y-150596101D01*
X101035019Y-150551307D01*
X101024693Y-150418910D01*
X101020591Y-150291081D01*
X101020591Y-150130141D01*
X100450142Y-150130141D01*
X100450142Y-150700591D01*
X99982010Y-150700591D01*
X100089859Y-150691023D01*
X100089859Y-150127967D01*
X99797128Y-150136560D01*
X99504398Y-150145153D01*
X99486006Y-150445390D01*
X99480788Y-150532987D01*
X99474758Y-150642671D01*
X99471283Y-150717775D01*
X99470994Y-150745626D01*
X99121715Y-150745626D01*
X99128694Y-150691808D01*
X99139539Y-150576452D01*
X99149195Y-150441582D01*
X99168251Y-150130141D01*
X98547949Y-150130141D01*
X98381380Y-150130222D01*
X98215768Y-150130948D01*
X98097467Y-150133060D01*
X98019320Y-150137293D01*
X97974171Y-150144385D01*
X97954864Y-150155073D01*
X97954241Y-150170095D01*
X97965148Y-150190189D01*
X97992965Y-150227839D01*
X98021996Y-150250236D01*
X98022338Y-150250248D01*
X98051059Y-150273567D01*
X98092392Y-150328143D01*
X98092784Y-150328743D01*
X98124402Y-150385148D01*
X98119762Y-150425250D01*
X98075599Y-150478261D01*
X98072701Y-150481312D01*
X98015527Y-150530261D01*
X97971312Y-150550472D01*
X97957361Y-150544127D01*
X97907075Y-150503681D01*
X97832915Y-150434473D01*
X97744482Y-150346552D01*
X97651375Y-150249966D01*
X97563196Y-150154761D01*
X97489545Y-150070985D01*
X97440022Y-150008686D01*
X97424228Y-149977911D01*
X97424978Y-149976418D01*
X97452714Y-149942432D01*
X97513235Y-149875634D01*
X97598299Y-149784961D01*
X97699664Y-149679346D01*
X97966561Y-149404098D01*
X98151124Y-149588661D01*
X98048762Y-149694271D01*
X97946401Y-149799881D01*
X99168182Y-149799881D01*
X99149807Y-149520149D01*
X99145279Y-149456827D01*
X99134528Y-149336309D01*
X99123529Y-149244444D01*
X99466020Y-149244444D01*
X99480110Y-149484633D01*
X99481825Y-149512796D01*
X99490139Y-149627130D01*
X99498686Y-149716081D01*
X99505862Y-149762352D01*
X99512306Y-149771263D01*
X99559043Y-149787635D01*
X99654294Y-149796938D01*
X99803692Y-149799881D01*
X100089859Y-149799881D01*
X100450142Y-149799881D01*
X101020591Y-149799881D01*
X101020852Y-149672281D01*
X101021445Y-149637226D01*
X101027921Y-149515233D01*
X101039176Y-149394407D01*
X101057238Y-149244134D01*
X100450142Y-149299822D01*
X100450142Y-149799881D01*
X100089859Y-149799881D01*
X100089859Y-149298940D01*
X99777939Y-149271692D01*
X99466020Y-149244444D01*
X99123529Y-149244444D01*
X99123399Y-149243358D01*
X99113686Y-149194171D01*
X99105295Y-149181509D01*
X99051413Y-149143788D01*
X98969909Y-149111314D01*
X98958206Y-149107690D01*
X98864304Y-149070644D01*
X98745656Y-149014847D01*
X98625051Y-148950899D01*
X98463559Y-148842348D01*
X98325892Y-148705344D01*
X98239474Y-148558512D01*
X98211777Y-148428572D01*
X98558653Y-148428572D01*
X98580444Y-148524972D01*
X98654152Y-148615068D01*
X98783830Y-148696703D01*
X98865370Y-148733625D01*
X98941484Y-148762295D01*
X98979929Y-148771922D01*
X98995857Y-148758845D01*
X98978988Y-148704030D01*
X98919735Y-148572155D01*
X98832936Y-148440821D01*
X98738979Y-148357724D01*
X98643107Y-148328723D01*
X98592664Y-148333041D01*
X98564564Y-148360159D01*
X98558653Y-148428572D01*
X98211777Y-148428572D01*
X98207157Y-148406899D01*
X98231797Y-148255554D01*
X98237059Y-148241491D01*
X98308474Y-148116621D01*
X98411286Y-148040259D01*
X98554173Y-148005678D01*
X98605946Y-148002194D01*
X98769463Y-148018140D01*
X98909471Y-148082770D01*
X99039863Y-148201688D01*
X99047806Y-148210868D01*
X99142183Y-148340832D01*
X99232647Y-148498162D01*
X99306811Y-148659135D01*
X99338994Y-148758845D01*
X99352287Y-148800029D01*
X99356252Y-148818622D01*
X99364972Y-148849097D01*
X99381703Y-148871575D01*
X99415063Y-148888417D01*
X99473674Y-148901989D01*
X99566154Y-148914653D01*
X99701122Y-148928774D01*
X99887199Y-148946715D01*
X100089859Y-148966215D01*
X100089859Y-147656016D01*
X99969341Y-147773698D01*
X99848824Y-147891380D01*
X99663809Y-147706365D01*
X99944387Y-147434932D01*
X99962441Y-147417506D01*
X100067499Y-147317669D01*
X100156445Y-147235711D01*
X100220370Y-147179702D01*
X100250371Y-147157710D01*
X100253423Y-147158176D01*
X100290949Y-147183993D01*
X100360257Y-147243119D01*
X100452664Y-147327889D01*
X100559484Y-147430631D01*
X100843191Y-147709342D01*
X100661647Y-147890886D01*
X100576770Y-147809568D01*
X100560328Y-147794178D01*
X100504123Y-147747177D01*
X100471017Y-147728250D01*
X100469336Y-147730241D01*
X100463230Y-147772895D01*
X100457956Y-147864413D01*
X100453816Y-147995916D01*
X100451111Y-148158522D01*
X100450142Y-148343352D01*
X100450142Y-148958454D01*
X100682825Y-148940264D01*
X100799891Y-148931019D01*
X100932287Y-148917825D01*
X101023600Y-148900094D01*
X101085048Y-148871878D01*
X101127849Y-148827231D01*
X101161815Y-148762870D01*
X101500970Y-148762870D01*
X101502441Y-148770441D01*
X101524609Y-148776673D01*
X101580825Y-148759578D01*
X101680572Y-148716720D01*
X101803446Y-148652372D01*
X101899552Y-148574746D01*
X101953928Y-148486608D01*
X101959049Y-148471836D01*
X101963759Y-148392447D01*
X101928390Y-148342969D01*
X101865266Y-148327130D01*
X101786709Y-148348660D01*
X101705044Y-148411288D01*
X101664921Y-148461356D01*
X101609487Y-148544443D01*
X101556442Y-148634868D01*
X101516648Y-148713915D01*
X101500970Y-148762870D01*
X101161815Y-148762870D01*
X101163220Y-148760207D01*
X101202381Y-148664859D01*
X101251252Y-148549250D01*
X101354649Y-148347130D01*
X101463089Y-148196977D01*
X101582089Y-148093364D01*
X101717161Y-148030864D01*
X101873820Y-148004050D01*
X101956304Y-148000227D01*
X102035629Y-148005331D01*
X102094204Y-148027537D01*
X102154606Y-148072337D01*
X102223295Y-148149428D01*
X102280158Y-148281939D01*
X102288609Y-148392447D01*
X102291626Y-148431890D01*
X102257257Y-148586061D01*
X102176609Y-148731232D01*
X102148969Y-148761780D01*
X102057651Y-148837015D01*
X101934639Y-148919411D01*
X101796384Y-148999147D01*
X101659333Y-149066401D01*
X101539936Y-149111354D01*
X101521440Y-149116776D01*
X101468606Y-149135632D01*
X101431991Y-149162016D01*
X101407424Y-149206395D01*
X101398778Y-149244134D01*
X101390735Y-149279237D01*
X101377754Y-149391012D01*
G37*
D14*
X217672500Y-76170000D02*
X217922500Y-76170000D01*
X217522500Y-76070000D02*
X217522500Y-75820000D01*
X205342500Y-92190000D02*
X217792500Y-92190000D01*
X217792500Y-92190000D02*
X217792500Y-75950000D01*
X205342500Y-75950000D02*
X217792500Y-75950000D01*
X196152500Y-75950000D02*
X202062500Y-75950000D01*
X196152500Y-92190000D02*
X202062500Y-92190000D01*
X196152500Y-75950000D02*
X196152500Y-92190000D01*
X155915000Y-139495000D02*
X155915000Y-140825000D01*
X158515000Y-138165000D02*
X158515000Y-140825000D01*
X158515000Y-140825000D02*
X171275000Y-140825000D01*
X155915000Y-140825000D02*
X157245000Y-140825000D01*
X158515000Y-138165000D02*
X171275000Y-138165000D01*
X171275000Y-138165000D02*
X171275000Y-140825000D01*
X191895000Y-80320000D02*
X193195000Y-80320000D01*
X191895000Y-83120000D02*
X192895000Y-83120000D01*
X193160000Y-88990000D02*
X191860000Y-88990000D01*
X193160000Y-86190000D02*
X192160000Y-86190000D01*
X192803641Y-90040000D02*
X192496359Y-90040000D01*
X192803641Y-89280000D02*
X192496359Y-89280000D01*
X192793641Y-90320000D02*
X192486359Y-90320000D01*
X192793641Y-91080000D02*
X192486359Y-91080000D01*
X190940000Y-77670000D02*
X190940000Y-80270000D01*
X190940000Y-77670000D02*
X188340000Y-77670000D01*
X188340000Y-75070000D02*
X185740000Y-75070000D01*
X188340000Y-77670000D02*
X188340000Y-75070000D01*
X190940000Y-75070000D02*
X189610000Y-75070000D01*
X190940000Y-80270000D02*
X185740000Y-80270000D01*
X185740000Y-75070000D02*
X185740000Y-80270000D01*
X190940000Y-76400000D02*
X190940000Y-75070000D01*
X99672000Y-116662000D02*
X101222000Y-116662000D01*
X99672000Y-116662000D02*
X99672000Y-116362000D01*
X96872000Y-116362000D02*
X99672000Y-116362000D01*
X102922000Y-114212000D02*
X102922000Y-113412000D01*
X102472000Y-113812000D02*
X102922000Y-114212000D01*
X102922000Y-113412000D02*
X102472000Y-113812000D01*
X96872000Y-108662000D02*
X99672000Y-108662000D01*
X99672000Y-108662000D02*
X99672000Y-108362000D01*
X99672000Y-108362000D02*
X101222000Y-108362000D01*
X105394000Y-131175000D02*
X105394000Y-130175000D01*
X105394000Y-130175000D02*
X104394000Y-130175000D01*
X103511886Y-137485000D02*
X102954000Y-137485000D01*
X103511886Y-136865000D02*
X102954000Y-136865000D01*
X103511886Y-135485000D02*
X102954000Y-135485000D01*
X103511886Y-134865000D02*
X102954000Y-134865000D01*
X103511886Y-133485000D02*
X102954000Y-133485000D01*
X103511886Y-132865000D02*
X102954000Y-132865000D01*
X103459000Y-131485000D02*
X102954000Y-131485000D01*
X103459000Y-130865000D02*
X102954000Y-130865000D01*
X102954000Y-138235000D02*
X101334000Y-138235000D01*
X102954000Y-136175000D02*
X101334000Y-136175000D01*
X102954000Y-134175000D02*
X101334000Y-134175000D01*
X102954000Y-132175000D02*
X101334000Y-132175000D01*
X102954000Y-130115000D02*
X102954000Y-138235000D01*
X101334000Y-138235000D02*
X101334000Y-130115000D01*
X101334000Y-136865000D02*
X97134000Y-136865000D01*
X101334000Y-134865000D02*
X97134000Y-134865000D01*
X101334000Y-132865000D02*
X97134000Y-132865000D01*
X101334000Y-131405000D02*
X97134000Y-131405000D01*
X101334000Y-131285000D02*
X97134000Y-131285000D01*
X101334000Y-131165000D02*
X97134000Y-131165000D01*
X101334000Y-131045000D02*
X97134000Y-131045000D01*
X101334000Y-130925000D02*
X97134000Y-130925000D01*
X101334000Y-130865000D02*
X97134000Y-130865000D01*
X101334000Y-130115000D02*
X102954000Y-130115000D01*
X97134000Y-137485000D02*
X101334000Y-137485000D01*
X97134000Y-136865000D02*
X97134000Y-137485000D01*
X97134000Y-135485000D02*
X101334000Y-135485000D01*
X97134000Y-134865000D02*
X97134000Y-135485000D01*
X97134000Y-133485000D02*
X101334000Y-133485000D01*
X97134000Y-132865000D02*
X97134000Y-133485000D01*
X97134000Y-131485000D02*
X101334000Y-131485000D01*
X97134000Y-130865000D02*
X97134000Y-131485000D01*
G36*
X104531501Y-151646476D02*
G01*
X104612167Y-151676440D01*
X104645714Y-151698954D01*
X104679687Y-151731212D01*
X104703919Y-151772246D01*
X104720001Y-151828108D01*
X104729521Y-151904851D01*
X104734068Y-152008525D01*
X104735231Y-152145184D01*
X104735003Y-152215805D01*
X104733860Y-152312308D01*
X104731919Y-152389323D01*
X104729365Y-152440319D01*
X104726381Y-152458769D01*
X104706962Y-152452667D01*
X104667766Y-152436095D01*
X104666589Y-152435558D01*
X104646235Y-152424903D01*
X104632546Y-152410282D01*
X104624199Y-152384673D01*
X104619874Y-152341054D01*
X104618248Y-152272403D01*
X104618000Y-152171698D01*
X104617500Y-152107813D01*
X104612164Y-151987751D01*
X104599945Y-151899809D01*
X104579552Y-151839375D01*
X104549695Y-151801836D01*
X104509082Y-151782581D01*
X104503448Y-151781239D01*
X104427378Y-151780191D01*
X104368052Y-151814271D01*
X104327077Y-151882598D01*
X104319770Y-151902351D01*
X104303114Y-151946066D01*
X104294679Y-151966155D01*
X104277356Y-151963387D01*
X104239525Y-151948365D01*
X104204240Y-151923556D01*
X104188154Y-151876670D01*
X104192952Y-151843087D01*
X104222431Y-151774967D01*
X104270098Y-151711134D01*
X104325839Y-151666988D01*
X104349193Y-151656782D01*
X104437619Y-151639718D01*
X104531501Y-151646476D01*
G37*
D15*
X104531501Y-151646476D02*
X104612167Y-151676440D01*
X104645714Y-151698954D01*
X104679687Y-151731212D01*
X104703919Y-151772246D01*
X104720001Y-151828108D01*
X104729521Y-151904851D01*
X104734068Y-152008525D01*
X104735231Y-152145184D01*
X104735003Y-152215805D01*
X104733860Y-152312308D01*
X104731919Y-152389323D01*
X104729365Y-152440319D01*
X104726381Y-152458769D01*
X104706962Y-152452667D01*
X104667766Y-152436095D01*
X104666589Y-152435558D01*
X104646235Y-152424903D01*
X104632546Y-152410282D01*
X104624199Y-152384673D01*
X104619874Y-152341054D01*
X104618248Y-152272403D01*
X104618000Y-152171698D01*
X104617500Y-152107813D01*
X104612164Y-151987751D01*
X104599945Y-151899809D01*
X104579552Y-151839375D01*
X104549695Y-151801836D01*
X104509082Y-151782581D01*
X104503448Y-151781239D01*
X104427378Y-151780191D01*
X104368052Y-151814271D01*
X104327077Y-151882598D01*
X104319770Y-151902351D01*
X104303114Y-151946066D01*
X104294679Y-151966155D01*
X104277356Y-151963387D01*
X104239525Y-151948365D01*
X104204240Y-151923556D01*
X104188154Y-151876670D01*
X104192952Y-151843087D01*
X104222431Y-151774967D01*
X104270098Y-151711134D01*
X104325839Y-151666988D01*
X104349193Y-151656782D01*
X104437619Y-151639718D01*
X104531501Y-151646476D01*
G36*
X109846372Y-151601684D02*
G01*
X109937629Y-151644569D01*
X110012416Y-151718729D01*
X110027917Y-151741944D01*
X110040774Y-151768256D01*
X110049893Y-151801420D01*
X110056102Y-151847881D01*
X110060233Y-151914082D01*
X110063116Y-152006468D01*
X110065579Y-152131485D01*
X110071697Y-152478278D01*
X110020303Y-152458738D01*
X109973246Y-152440787D01*
X109938015Y-152423511D01*
X109915017Y-152401242D01*
X109901655Y-152367165D01*
X109895328Y-152314463D01*
X109893437Y-152236323D01*
X109893385Y-152125928D01*
X109893117Y-152037935D01*
X109891521Y-151953502D01*
X109887712Y-151895834D01*
X109880820Y-151857988D01*
X109869975Y-151833024D01*
X109854308Y-151814000D01*
X109815792Y-151787153D01*
X109751091Y-151777034D01*
X109687081Y-151802606D01*
X109682856Y-151805880D01*
X109669689Y-151821007D01*
X109659975Y-151845268D01*
X109652903Y-151884650D01*
X109647656Y-151945141D01*
X109643421Y-152032729D01*
X109639385Y-152153402D01*
X109629615Y-152476515D01*
X109463539Y-152402065D01*
X109463539Y-152107062D01*
X109463883Y-152026919D01*
X109466847Y-151915431D01*
X109474351Y-151832421D01*
X109488190Y-151771199D01*
X109510155Y-151725075D01*
X109542039Y-151687358D01*
X109585633Y-151651358D01*
X109648336Y-151615089D01*
X109747117Y-151591412D01*
X109846372Y-151601684D01*
G37*
X109846372Y-151601684D02*
X109937629Y-151644569D01*
X110012416Y-151718729D01*
X110027917Y-151741944D01*
X110040774Y-151768256D01*
X110049893Y-151801420D01*
X110056102Y-151847881D01*
X110060233Y-151914082D01*
X110063116Y-152006468D01*
X110065579Y-152131485D01*
X110071697Y-152478278D01*
X110020303Y-152458738D01*
X109973246Y-152440787D01*
X109938015Y-152423511D01*
X109915017Y-152401242D01*
X109901655Y-152367165D01*
X109895328Y-152314463D01*
X109893437Y-152236323D01*
X109893385Y-152125928D01*
X109893117Y-152037935D01*
X109891521Y-151953502D01*
X109887712Y-151895834D01*
X109880820Y-151857988D01*
X109869975Y-151833024D01*
X109854308Y-151814000D01*
X109815792Y-151787153D01*
X109751091Y-151777034D01*
X109687081Y-151802606D01*
X109682856Y-151805880D01*
X109669689Y-151821007D01*
X109659975Y-151845268D01*
X109652903Y-151884650D01*
X109647656Y-151945141D01*
X109643421Y-152032729D01*
X109639385Y-152153402D01*
X109629615Y-152476515D01*
X109463539Y-152402065D01*
X109463539Y-152107062D01*
X109463883Y-152026919D01*
X109466847Y-151915431D01*
X109474351Y-151832421D01*
X109488190Y-151771199D01*
X109510155Y-151725075D01*
X109542039Y-151687358D01*
X109585633Y-151651358D01*
X109648336Y-151615089D01*
X109747117Y-151591412D01*
X109846372Y-151601684D01*
G36*
X107391892Y-151667167D02*
G01*
X107398060Y-151670581D01*
X107448447Y-151709692D01*
X107493498Y-151759975D01*
X107501355Y-151771339D01*
X107516376Y-151797860D01*
X107527107Y-151829336D01*
X107534486Y-151872591D01*
X107539452Y-151934449D01*
X107542942Y-152021733D01*
X107545893Y-152141269D01*
X107546311Y-152161478D01*
X107547654Y-152292499D01*
X107545761Y-152385296D01*
X107540605Y-152440507D01*
X107532158Y-152458769D01*
X107506594Y-152453301D01*
X107463166Y-152436733D01*
X107452940Y-152431888D01*
X107436967Y-152420920D01*
X107425954Y-152402890D01*
X107418750Y-152371396D01*
X107414208Y-152320036D01*
X107411180Y-152242410D01*
X107408516Y-152132115D01*
X107407785Y-152099875D01*
X107404965Y-151998050D01*
X107401304Y-151926788D01*
X107395694Y-151879332D01*
X107387029Y-151848925D01*
X107374202Y-151828810D01*
X107356105Y-151812229D01*
X107302525Y-151783161D01*
X107236612Y-151777564D01*
X107177635Y-151799807D01*
X107135203Y-151845859D01*
X107118923Y-151911692D01*
X107118470Y-151929587D01*
X107109578Y-151961982D01*
X107083325Y-151966925D01*
X107031919Y-151947633D01*
X107020013Y-151941446D01*
X106987835Y-151905058D01*
X106987198Y-151850954D01*
X107017856Y-151776128D01*
X107045978Y-151735350D01*
X107117883Y-151677421D01*
X107206638Y-151644670D01*
X107301542Y-151640212D01*
X107391892Y-151667167D01*
G37*
X107391892Y-151667167D02*
X107398060Y-151670581D01*
X107448447Y-151709692D01*
X107493498Y-151759975D01*
X107501355Y-151771339D01*
X107516376Y-151797860D01*
X107527107Y-151829336D01*
X107534486Y-151872591D01*
X107539452Y-151934449D01*
X107542942Y-152021733D01*
X107545893Y-152141269D01*
X107546311Y-152161478D01*
X107547654Y-152292499D01*
X107545761Y-152385296D01*
X107540605Y-152440507D01*
X107532158Y-152458769D01*
X107506594Y-152453301D01*
X107463166Y-152436733D01*
X107452940Y-152431888D01*
X107436967Y-152420920D01*
X107425954Y-152402890D01*
X107418750Y-152371396D01*
X107414208Y-152320036D01*
X107411180Y-152242410D01*
X107408516Y-152132115D01*
X107407785Y-152099875D01*
X107404965Y-151998050D01*
X107401304Y-151926788D01*
X107395694Y-151879332D01*
X107387029Y-151848925D01*
X107374202Y-151828810D01*
X107356105Y-151812229D01*
X107302525Y-151783161D01*
X107236612Y-151777564D01*
X107177635Y-151799807D01*
X107135203Y-151845859D01*
X107118923Y-151911692D01*
X107118470Y-151929587D01*
X107109578Y-151961982D01*
X107083325Y-151966925D01*
X107031919Y-151947633D01*
X107020013Y-151941446D01*
X106987835Y-151905058D01*
X106987198Y-151850954D01*
X107017856Y-151776128D01*
X107045978Y-151735350D01*
X107117883Y-151677421D01*
X107206638Y-151644670D01*
X107301542Y-151640212D01*
X107391892Y-151667167D01*
G36*
X108896923Y-151401806D02*
G01*
X108896923Y-151936455D01*
X108896660Y-152075094D01*
X108895958Y-152199805D01*
X108894883Y-152305557D01*
X108893500Y-152387322D01*
X108891874Y-152440069D01*
X108890070Y-152458769D01*
X108889364Y-152458706D01*
X108865387Y-152451912D01*
X108821685Y-152437320D01*
X108760154Y-152415870D01*
X108760154Y-152140617D01*
X108759763Y-152032466D01*
X108757946Y-151954026D01*
X108753767Y-151900647D01*
X108746286Y-151865256D01*
X108734567Y-151840779D01*
X108717671Y-151820144D01*
X108706152Y-151809170D01*
X108643864Y-151778775D01*
X108575211Y-151781466D01*
X108512298Y-151817406D01*
X108503139Y-151826325D01*
X108488471Y-151844844D01*
X108478433Y-151869326D01*
X108472151Y-151906393D01*
X108468748Y-151962667D01*
X108467349Y-152044771D01*
X108467077Y-152159329D01*
X108466947Y-152217430D01*
X108466099Y-152312993D01*
X108464594Y-152389526D01*
X108462585Y-152440345D01*
X108460223Y-152458769D01*
X108459518Y-152458706D01*
X108435541Y-152451912D01*
X108391839Y-152437320D01*
X108330308Y-152415870D01*
X108330338Y-152139358D01*
X108330384Y-152114742D01*
X108332970Y-151986419D01*
X108340913Y-151889384D01*
X108356155Y-151817057D01*
X108380636Y-151762855D01*
X108416298Y-151720198D01*
X108465082Y-151682505D01*
X108512661Y-151658910D01*
X108588732Y-151640672D01*
X108663556Y-151639636D01*
X108721077Y-151657378D01*
X108725402Y-151659829D01*
X108738738Y-151659566D01*
X108747851Y-151639039D01*
X108754428Y-151591980D01*
X108760154Y-151512120D01*
X108769923Y-151348236D01*
X108896923Y-151401806D01*
G37*
X108896923Y-151401806D02*
X108896923Y-151936455D01*
X108896660Y-152075094D01*
X108895958Y-152199805D01*
X108894883Y-152305557D01*
X108893500Y-152387322D01*
X108891874Y-152440069D01*
X108890070Y-152458769D01*
X108889364Y-152458706D01*
X108865387Y-152451912D01*
X108821685Y-152437320D01*
X108760154Y-152415870D01*
X108760154Y-152140617D01*
X108759763Y-152032466D01*
X108757946Y-151954026D01*
X108753767Y-151900647D01*
X108746286Y-151865256D01*
X108734567Y-151840779D01*
X108717671Y-151820144D01*
X108706152Y-151809170D01*
X108643864Y-151778775D01*
X108575211Y-151781466D01*
X108512298Y-151817406D01*
X108503139Y-151826325D01*
X108488471Y-151844844D01*
X108478433Y-151869326D01*
X108472151Y-151906393D01*
X108468748Y-151962667D01*
X108467349Y-152044771D01*
X108467077Y-152159329D01*
X108466947Y-152217430D01*
X108466099Y-152312993D01*
X108464594Y-152389526D01*
X108462585Y-152440345D01*
X108460223Y-152458769D01*
X108459518Y-152458706D01*
X108435541Y-152451912D01*
X108391839Y-152437320D01*
X108330308Y-152415870D01*
X108330338Y-152139358D01*
X108330384Y-152114742D01*
X108332970Y-151986419D01*
X108340913Y-151889384D01*
X108356155Y-151817057D01*
X108380636Y-151762855D01*
X108416298Y-151720198D01*
X108465082Y-151682505D01*
X108512661Y-151658910D01*
X108588732Y-151640672D01*
X108663556Y-151639636D01*
X108721077Y-151657378D01*
X108725402Y-151659829D01*
X108738738Y-151659566D01*
X108747851Y-151639039D01*
X108754428Y-151591980D01*
X108760154Y-151512120D01*
X108769923Y-151348236D01*
X108896923Y-151401806D01*
G36*
X106107998Y-151644034D02*
G01*
X106150850Y-151660829D01*
X106200615Y-151683503D01*
X106200615Y-152338533D01*
X106138785Y-152400363D01*
X106124662Y-152414228D01*
X106085536Y-152445046D01*
X106046078Y-152455028D01*
X105987362Y-152450433D01*
X105963456Y-152447462D01*
X105901801Y-152441176D01*
X105858692Y-152438672D01*
X105845905Y-152439055D01*
X105793446Y-152443200D01*
X105730022Y-152450433D01*
X105709730Y-152452918D01*
X105658610Y-152453895D01*
X105621207Y-152438462D01*
X105578599Y-152400363D01*
X105516769Y-152338533D01*
X105516769Y-151988343D01*
X105517251Y-151884857D01*
X105518753Y-151786192D01*
X105521089Y-151708068D01*
X105524071Y-151656662D01*
X105527509Y-151638154D01*
X105528230Y-151638204D01*
X105553203Y-151647413D01*
X105595399Y-151667707D01*
X105652549Y-151697261D01*
X105657928Y-152004746D01*
X105663308Y-152312231D01*
X105780539Y-152312231D01*
X105785885Y-151975192D01*
X105787579Y-151883574D01*
X105790005Y-151785649D01*
X105792634Y-151707906D01*
X105795246Y-151656642D01*
X105797623Y-151638154D01*
X105798306Y-151638219D01*
X105821996Y-151645020D01*
X105865546Y-151659604D01*
X105927077Y-151681054D01*
X105927376Y-151977104D01*
X105927676Y-152028532D01*
X105929754Y-152128466D01*
X105933470Y-152211925D01*
X105938430Y-152271377D01*
X105944240Y-152299287D01*
X105965024Y-152314214D01*
X106007440Y-152318825D01*
X106054077Y-152312231D01*
X106059423Y-151975192D01*
X106061336Y-151889546D01*
X106065303Y-151788172D01*
X106070491Y-151708655D01*
X106076499Y-151656736D01*
X106082927Y-151638154D01*
X106107998Y-151644034D01*
G37*
X106107998Y-151644034D02*
X106150850Y-151660829D01*
X106200615Y-151683503D01*
X106200615Y-152338533D01*
X106138785Y-152400363D01*
X106124662Y-152414228D01*
X106085536Y-152445046D01*
X106046078Y-152455028D01*
X105987362Y-152450433D01*
X105963456Y-152447462D01*
X105901801Y-152441176D01*
X105858692Y-152438672D01*
X105845905Y-152439055D01*
X105793446Y-152443200D01*
X105730022Y-152450433D01*
X105709730Y-152452918D01*
X105658610Y-152453895D01*
X105621207Y-152438462D01*
X105578599Y-152400363D01*
X105516769Y-152338533D01*
X105516769Y-151988343D01*
X105517251Y-151884857D01*
X105518753Y-151786192D01*
X105521089Y-151708068D01*
X105524071Y-151656662D01*
X105527509Y-151638154D01*
X105528230Y-151638204D01*
X105553203Y-151647413D01*
X105595399Y-151667707D01*
X105652549Y-151697261D01*
X105657928Y-152004746D01*
X105663308Y-152312231D01*
X105780539Y-152312231D01*
X105785885Y-151975192D01*
X105787579Y-151883574D01*
X105790005Y-151785649D01*
X105792634Y-151707906D01*
X105795246Y-151656642D01*
X105797623Y-151638154D01*
X105798306Y-151638219D01*
X105821996Y-151645020D01*
X105865546Y-151659604D01*
X105927077Y-151681054D01*
X105927376Y-151977104D01*
X105927676Y-152028532D01*
X105929754Y-152128466D01*
X105933470Y-152211925D01*
X105938430Y-152271377D01*
X105944240Y-152299287D01*
X105965024Y-152314214D01*
X106007440Y-152318825D01*
X106054077Y-152312231D01*
X106059423Y-151975192D01*
X106061336Y-151889546D01*
X106065303Y-151788172D01*
X106070491Y-151708655D01*
X106076499Y-151656736D01*
X106082927Y-151638154D01*
X106107998Y-151644034D01*
G36*
X112316135Y-152050105D02*
G01*
X112315076Y-152144584D01*
X112311436Y-152210414D01*
X112303892Y-152256394D01*
X112291122Y-152291321D01*
X112271803Y-152323995D01*
X112267050Y-152330775D01*
X112216759Y-152384231D01*
X112159457Y-152424547D01*
X112130032Y-152437629D01*
X112024299Y-152459450D01*
X111919734Y-152445336D01*
X111823368Y-152397105D01*
X111742235Y-152316579D01*
X111735385Y-152305791D01*
X111713097Y-152243153D01*
X111698079Y-152155935D01*
X111690792Y-152055210D01*
X111691611Y-151962037D01*
X111888796Y-151962037D01*
X111890349Y-152091114D01*
X111890974Y-152099420D01*
X111900077Y-152170643D01*
X111916288Y-152215809D01*
X111943660Y-152246752D01*
X111989553Y-152275737D01*
X112034942Y-152277261D01*
X112081692Y-152243846D01*
X112089824Y-152235053D01*
X112105754Y-152208741D01*
X112115159Y-152170520D01*
X112119632Y-152111349D01*
X112120769Y-152022182D01*
X112118822Y-151938664D01*
X112109105Y-151859095D01*
X112089047Y-151808808D01*
X112056240Y-151782513D01*
X112008280Y-151774923D01*
X111990016Y-151776432D01*
X111938848Y-151804107D01*
X111905035Y-151866172D01*
X111888796Y-151962037D01*
X111691611Y-151962037D01*
X111691699Y-151952052D01*
X111701262Y-151857533D01*
X111719943Y-151782727D01*
X111743951Y-151732905D01*
X111811536Y-151655409D01*
X111903114Y-151607256D01*
X112015213Y-151590703D01*
X112045151Y-151591599D01*
X112133315Y-151609929D01*
X112205733Y-151656104D01*
X112272192Y-151735648D01*
X112276147Y-151741548D01*
X112294040Y-151773288D01*
X112305678Y-151809163D01*
X112312371Y-151857906D01*
X112315426Y-151928249D01*
X112316106Y-152022182D01*
X112316154Y-152028923D01*
X112316135Y-152050105D01*
G37*
X112316135Y-152050105D02*
X112315076Y-152144584D01*
X112311436Y-152210414D01*
X112303892Y-152256394D01*
X112291122Y-152291321D01*
X112271803Y-152323995D01*
X112267050Y-152330775D01*
X112216759Y-152384231D01*
X112159457Y-152424547D01*
X112130032Y-152437629D01*
X112024299Y-152459450D01*
X111919734Y-152445336D01*
X111823368Y-152397105D01*
X111742235Y-152316579D01*
X111735385Y-152305791D01*
X111713097Y-152243153D01*
X111698079Y-152155935D01*
X111690792Y-152055210D01*
X111691611Y-151962037D01*
X111888796Y-151962037D01*
X111890349Y-152091114D01*
X111890974Y-152099420D01*
X111900077Y-152170643D01*
X111916288Y-152215809D01*
X111943660Y-152246752D01*
X111989553Y-152275737D01*
X112034942Y-152277261D01*
X112081692Y-152243846D01*
X112089824Y-152235053D01*
X112105754Y-152208741D01*
X112115159Y-152170520D01*
X112119632Y-152111349D01*
X112120769Y-152022182D01*
X112118822Y-151938664D01*
X112109105Y-151859095D01*
X112089047Y-151808808D01*
X112056240Y-151782513D01*
X112008280Y-151774923D01*
X111990016Y-151776432D01*
X111938848Y-151804107D01*
X111905035Y-151866172D01*
X111888796Y-151962037D01*
X111691611Y-151962037D01*
X111691699Y-151952052D01*
X111701262Y-151857533D01*
X111719943Y-151782727D01*
X111743951Y-151732905D01*
X111811536Y-151655409D01*
X111903114Y-151607256D01*
X112015213Y-151590703D01*
X112045151Y-151591599D01*
X112133315Y-151609929D01*
X112205733Y-151656104D01*
X112272192Y-151735648D01*
X112276147Y-151741548D01*
X112294040Y-151773288D01*
X112305678Y-151809163D01*
X112312371Y-151857906D01*
X112315426Y-151928249D01*
X112316106Y-152022182D01*
X112316154Y-152028923D01*
X112316135Y-152050105D01*
G36*
X104070413Y-152104449D02*
G01*
X104065641Y-152207047D01*
X104053150Y-152282126D01*
X104030121Y-152337748D01*
X103993732Y-152381975D01*
X103941162Y-152422869D01*
X103907714Y-152441466D01*
X103854098Y-152453991D01*
X103778780Y-152453003D01*
X103736672Y-152449035D01*
X103685879Y-152436920D01*
X103645280Y-152410585D01*
X103598049Y-152361514D01*
X103591738Y-152354346D01*
X103549277Y-152299189D01*
X103529018Y-152251150D01*
X103523846Y-152194184D01*
X103523846Y-152110471D01*
X103582346Y-152132552D01*
X103624994Y-152158364D01*
X103662064Y-152218928D01*
X103669803Y-152238320D01*
X103713074Y-152293235D01*
X103771976Y-152320879D01*
X103836111Y-152318393D01*
X103895077Y-152282923D01*
X103915342Y-152260805D01*
X103933720Y-152227436D01*
X103927971Y-152197117D01*
X103894887Y-152165913D01*
X103831261Y-152129887D01*
X103733885Y-152085103D01*
X103533615Y-151997445D01*
X103528301Y-151910607D01*
X103530299Y-151855296D01*
X103660783Y-151855296D01*
X103670688Y-151889538D01*
X103715756Y-151926096D01*
X103797557Y-151967692D01*
X103811092Y-151973718D01*
X103875818Y-152001753D01*
X103924247Y-152021472D01*
X103946751Y-152028923D01*
X103950161Y-152023438D01*
X103951529Y-151989948D01*
X103946651Y-151936116D01*
X103934364Y-151883473D01*
X103896041Y-151817151D01*
X103840720Y-151779780D01*
X103774640Y-151774721D01*
X103704040Y-151805339D01*
X103684474Y-151820648D01*
X103660783Y-151855296D01*
X103530299Y-151855296D01*
X103530647Y-151845663D01*
X103560186Y-151763590D01*
X103597472Y-151718361D01*
X103674776Y-151667838D01*
X103766478Y-151642316D01*
X103861274Y-151644336D01*
X103947859Y-151676440D01*
X103966920Y-151688767D01*
X104010640Y-151726912D01*
X104040540Y-151775167D01*
X104058968Y-151840710D01*
X104068270Y-151930720D01*
X104069499Y-151989948D01*
X104070794Y-152052376D01*
X104070413Y-152104449D01*
G37*
X104070413Y-152104449D02*
X104065641Y-152207047D01*
X104053150Y-152282126D01*
X104030121Y-152337748D01*
X103993732Y-152381975D01*
X103941162Y-152422869D01*
X103907714Y-152441466D01*
X103854098Y-152453991D01*
X103778780Y-152453003D01*
X103736672Y-152449035D01*
X103685879Y-152436920D01*
X103645280Y-152410585D01*
X103598049Y-152361514D01*
X103591738Y-152354346D01*
X103549277Y-152299189D01*
X103529018Y-152251150D01*
X103523846Y-152194184D01*
X103523846Y-152110471D01*
X103582346Y-152132552D01*
X103624994Y-152158364D01*
X103662064Y-152218928D01*
X103669803Y-152238320D01*
X103713074Y-152293235D01*
X103771976Y-152320879D01*
X103836111Y-152318393D01*
X103895077Y-152282923D01*
X103915342Y-152260805D01*
X103933720Y-152227436D01*
X103927971Y-152197117D01*
X103894887Y-152165913D01*
X103831261Y-152129887D01*
X103733885Y-152085103D01*
X103533615Y-151997445D01*
X103528301Y-151910607D01*
X103530299Y-151855296D01*
X103660783Y-151855296D01*
X103670688Y-151889538D01*
X103715756Y-151926096D01*
X103797557Y-151967692D01*
X103811092Y-151973718D01*
X103875818Y-152001753D01*
X103924247Y-152021472D01*
X103946751Y-152028923D01*
X103950161Y-152023438D01*
X103951529Y-151989948D01*
X103946651Y-151936116D01*
X103934364Y-151883473D01*
X103896041Y-151817151D01*
X103840720Y-151779780D01*
X103774640Y-151774721D01*
X103704040Y-151805339D01*
X103684474Y-151820648D01*
X103660783Y-151855296D01*
X103530299Y-151855296D01*
X103530647Y-151845663D01*
X103560186Y-151763590D01*
X103597472Y-151718361D01*
X103674776Y-151667838D01*
X103766478Y-151642316D01*
X103861274Y-151644336D01*
X103947859Y-151676440D01*
X103966920Y-151688767D01*
X104010640Y-151726912D01*
X104040540Y-151775167D01*
X104058968Y-151840710D01*
X104068270Y-151930720D01*
X104069499Y-151989948D01*
X104070794Y-152052376D01*
X104070413Y-152104449D01*
G36*
X106882839Y-152124652D02*
G01*
X106871810Y-152228507D01*
X106847814Y-152306333D01*
X106808043Y-152365760D01*
X106749688Y-152414418D01*
X106694100Y-152442546D01*
X106600751Y-152458199D01*
X106507530Y-152441084D01*
X106423272Y-152393388D01*
X106356818Y-152317294D01*
X106348793Y-152303262D01*
X106338196Y-152278679D01*
X106330335Y-152247309D01*
X106324807Y-152203769D01*
X106321206Y-152142678D01*
X106319128Y-152058655D01*
X106319064Y-152051200D01*
X106454615Y-152051200D01*
X106455077Y-152122316D01*
X106457999Y-152186641D01*
X106465221Y-152228166D01*
X106478561Y-152256067D01*
X106499836Y-152279517D01*
X106504821Y-152284025D01*
X106568863Y-152317295D01*
X106636625Y-152313890D01*
X106699734Y-152274042D01*
X106718526Y-152253398D01*
X106734254Y-152226029D01*
X106743039Y-152188192D01*
X106746859Y-152130355D01*
X106747692Y-152042986D01*
X106747281Y-151976319D01*
X106744434Y-151911245D01*
X106737256Y-151869251D01*
X106723889Y-151841063D01*
X106702472Y-151817406D01*
X106689890Y-151806753D01*
X106624699Y-151778057D01*
X106556400Y-151782575D01*
X106497098Y-151820144D01*
X106484333Y-151835040D01*
X106468764Y-151863089D01*
X106459762Y-151902258D01*
X106455617Y-151961858D01*
X106454615Y-152051200D01*
X106319064Y-152051200D01*
X106318167Y-151946320D01*
X106317919Y-151800289D01*
X106317846Y-151346963D01*
X106381346Y-151373564D01*
X106398136Y-151380845D01*
X106424859Y-151397287D01*
X106440156Y-151422187D01*
X106448563Y-151465732D01*
X106454615Y-151538106D01*
X106460144Y-151603089D01*
X106467450Y-151645750D01*
X106477918Y-151661670D01*
X106493692Y-151657400D01*
X106533890Y-151642397D01*
X106605728Y-151638678D01*
X106683010Y-151652572D01*
X106749688Y-151682505D01*
X106786371Y-151710211D01*
X106833472Y-151764269D01*
X106863638Y-151833577D01*
X106879678Y-151925765D01*
X106884191Y-152042986D01*
X106884401Y-152048462D01*
X106882839Y-152124652D01*
G37*
X106882839Y-152124652D02*
X106871810Y-152228507D01*
X106847814Y-152306333D01*
X106808043Y-152365760D01*
X106749688Y-152414418D01*
X106694100Y-152442546D01*
X106600751Y-152458199D01*
X106507530Y-152441084D01*
X106423272Y-152393388D01*
X106356818Y-152317294D01*
X106348793Y-152303262D01*
X106338196Y-152278679D01*
X106330335Y-152247309D01*
X106324807Y-152203769D01*
X106321206Y-152142678D01*
X106319128Y-152058655D01*
X106319064Y-152051200D01*
X106454615Y-152051200D01*
X106455077Y-152122316D01*
X106457999Y-152186641D01*
X106465221Y-152228166D01*
X106478561Y-152256067D01*
X106499836Y-152279517D01*
X106504821Y-152284025D01*
X106568863Y-152317295D01*
X106636625Y-152313890D01*
X106699734Y-152274042D01*
X106718526Y-152253398D01*
X106734254Y-152226029D01*
X106743039Y-152188192D01*
X106746859Y-152130355D01*
X106747692Y-152042986D01*
X106747281Y-151976319D01*
X106744434Y-151911245D01*
X106737256Y-151869251D01*
X106723889Y-151841063D01*
X106702472Y-151817406D01*
X106689890Y-151806753D01*
X106624699Y-151778057D01*
X106556400Y-151782575D01*
X106497098Y-151820144D01*
X106484333Y-151835040D01*
X106468764Y-151863089D01*
X106459762Y-151902258D01*
X106455617Y-151961858D01*
X106454615Y-152051200D01*
X106319064Y-152051200D01*
X106318167Y-151946320D01*
X106317919Y-151800289D01*
X106317846Y-151346963D01*
X106381346Y-151373564D01*
X106398136Y-151380845D01*
X106424859Y-151397287D01*
X106440156Y-151422187D01*
X106448563Y-151465732D01*
X106454615Y-151538106D01*
X106460144Y-151603089D01*
X106467450Y-151645750D01*
X106477918Y-151661670D01*
X106493692Y-151657400D01*
X106533890Y-151642397D01*
X106605728Y-151638678D01*
X106683010Y-151652572D01*
X106749688Y-151682505D01*
X106786371Y-151710211D01*
X106833472Y-151764269D01*
X106863638Y-151833577D01*
X106879678Y-151925765D01*
X106884191Y-152042986D01*
X106884401Y-152048462D01*
X106882839Y-152124652D01*
G36*
X110824574Y-152121643D02*
G01*
X110821066Y-152153021D01*
X110794927Y-152264705D01*
X110747694Y-152349642D01*
X110675862Y-152414741D01*
X110671802Y-152417428D01*
X110580487Y-152455634D01*
X110485144Y-152459034D01*
X110393274Y-152429939D01*
X110312379Y-152370660D01*
X110249962Y-152283510D01*
X110248914Y-152281409D01*
X110228173Y-152227289D01*
X110212980Y-152165781D01*
X110204921Y-152108039D01*
X110205582Y-152065215D01*
X110216548Y-152048462D01*
X110226290Y-152049480D01*
X110272877Y-152068009D01*
X110325682Y-152102081D01*
X110370603Y-152141522D01*
X110393535Y-152176155D01*
X110417373Y-152223133D01*
X110466230Y-152265862D01*
X110522963Y-152282923D01*
X110543758Y-152277990D01*
X110584804Y-152253157D01*
X110620557Y-152218685D01*
X110635846Y-152187411D01*
X110635842Y-152187295D01*
X110618495Y-152172933D01*
X110572247Y-152147025D01*
X110504067Y-152113210D01*
X110420923Y-152075129D01*
X110420466Y-152074927D01*
X110330138Y-152034709D01*
X110269592Y-152005733D01*
X110232888Y-151983474D01*
X110214086Y-151963407D01*
X110207246Y-151941009D01*
X110206429Y-151911756D01*
X110212113Y-151856363D01*
X110405000Y-151856363D01*
X110424911Y-151873777D01*
X110474521Y-151899872D01*
X110475976Y-151900610D01*
X110534506Y-151928483D01*
X110586868Y-151950719D01*
X110620086Y-151960126D01*
X110633410Y-151947552D01*
X110635846Y-151904468D01*
X110625724Y-151850847D01*
X110590631Y-151802119D01*
X110539823Y-151776856D01*
X110483181Y-151779406D01*
X110430584Y-151814120D01*
X110409910Y-151838107D01*
X110405000Y-151856363D01*
X110212113Y-151856363D01*
X110213622Y-151841654D01*
X110249184Y-151746412D01*
X110308714Y-151671567D01*
X110385746Y-151619745D01*
X110473815Y-151593573D01*
X110566454Y-151595676D01*
X110657198Y-151628681D01*
X110739579Y-151695215D01*
X110785222Y-151761055D01*
X110818008Y-151855036D01*
X110823339Y-151904468D01*
X110830787Y-151973536D01*
X110824574Y-152121643D01*
G37*
X110824574Y-152121643D02*
X110821066Y-152153021D01*
X110794927Y-152264705D01*
X110747694Y-152349642D01*
X110675862Y-152414741D01*
X110671802Y-152417428D01*
X110580487Y-152455634D01*
X110485144Y-152459034D01*
X110393274Y-152429939D01*
X110312379Y-152370660D01*
X110249962Y-152283510D01*
X110248914Y-152281409D01*
X110228173Y-152227289D01*
X110212980Y-152165781D01*
X110204921Y-152108039D01*
X110205582Y-152065215D01*
X110216548Y-152048462D01*
X110226290Y-152049480D01*
X110272877Y-152068009D01*
X110325682Y-152102081D01*
X110370603Y-152141522D01*
X110393535Y-152176155D01*
X110417373Y-152223133D01*
X110466230Y-152265862D01*
X110522963Y-152282923D01*
X110543758Y-152277990D01*
X110584804Y-152253157D01*
X110620557Y-152218685D01*
X110635846Y-152187411D01*
X110635842Y-152187295D01*
X110618495Y-152172933D01*
X110572247Y-152147025D01*
X110504067Y-152113210D01*
X110420923Y-152075129D01*
X110420466Y-152074927D01*
X110330138Y-152034709D01*
X110269592Y-152005733D01*
X110232888Y-151983474D01*
X110214086Y-151963407D01*
X110207246Y-151941009D01*
X110206429Y-151911756D01*
X110212113Y-151856363D01*
X110405000Y-151856363D01*
X110424911Y-151873777D01*
X110474521Y-151899872D01*
X110475976Y-151900610D01*
X110534506Y-151928483D01*
X110586868Y-151950719D01*
X110620086Y-151960126D01*
X110633410Y-151947552D01*
X110635846Y-151904468D01*
X110625724Y-151850847D01*
X110590631Y-151802119D01*
X110539823Y-151776856D01*
X110483181Y-151779406D01*
X110430584Y-151814120D01*
X110409910Y-151838107D01*
X110405000Y-151856363D01*
X110212113Y-151856363D01*
X110213622Y-151841654D01*
X110249184Y-151746412D01*
X110308714Y-151671567D01*
X110385746Y-151619745D01*
X110473815Y-151593573D01*
X110566454Y-151595676D01*
X110657198Y-151628681D01*
X110739579Y-151695215D01*
X110785222Y-151761055D01*
X110818008Y-151855036D01*
X110823339Y-151904468D01*
X110830787Y-151973536D01*
X110824574Y-152121643D01*
G36*
X108040458Y-151659228D02*
G01*
X108107622Y-151698389D01*
X108137169Y-151728902D01*
X108193948Y-151820110D01*
X108213077Y-151919548D01*
X108213077Y-151987960D01*
X108150191Y-151961518D01*
X108106700Y-151934837D01*
X108072426Y-151879446D01*
X108068907Y-151868024D01*
X108031028Y-151809838D01*
X107973936Y-151778407D01*
X107908383Y-151777058D01*
X107845117Y-151809116D01*
X107835672Y-151817383D01*
X107804087Y-151853311D01*
X107798871Y-151884635D01*
X107822765Y-151915391D01*
X107878510Y-151949617D01*
X107968846Y-151991350D01*
X107974956Y-151993993D01*
X108075241Y-152040755D01*
X108143735Y-152082181D01*
X108185899Y-152123542D01*
X108207193Y-152170111D01*
X108213077Y-152227160D01*
X108205366Y-152290408D01*
X108166430Y-152371364D01*
X108097932Y-152429522D01*
X108048388Y-152446983D01*
X107978469Y-152456537D01*
X107910575Y-152454496D01*
X107862093Y-152440082D01*
X107856943Y-152436493D01*
X107843267Y-152411416D01*
X107852757Y-152367218D01*
X107869246Y-152332527D01*
X107895687Y-152318084D01*
X107945834Y-152318803D01*
X108015453Y-152314660D01*
X108060943Y-152286054D01*
X108076308Y-152233104D01*
X108076294Y-152231582D01*
X108066983Y-152200845D01*
X108035311Y-152172643D01*
X107973731Y-152140136D01*
X107889986Y-152100998D01*
X107834518Y-152079706D01*
X107802497Y-152081079D01*
X107787534Y-152109203D01*
X107783242Y-152168170D01*
X107783231Y-152262068D01*
X107782752Y-152320031D01*
X107780556Y-152391612D01*
X107776986Y-152440606D01*
X107772491Y-152458769D01*
X107771290Y-152458646D01*
X107745319Y-152448802D01*
X107702305Y-152428028D01*
X107642859Y-152397287D01*
X107649923Y-152120298D01*
X107650414Y-152101928D01*
X107656025Y-151972992D01*
X107665938Y-151875814D01*
X107682175Y-151803925D01*
X107706759Y-151750852D01*
X107741715Y-151710127D01*
X107789064Y-151675279D01*
X107789940Y-151674733D01*
X107866499Y-151646303D01*
X107955044Y-151641500D01*
X108040458Y-151659228D01*
G37*
X108040458Y-151659228D02*
X108107622Y-151698389D01*
X108137169Y-151728902D01*
X108193948Y-151820110D01*
X108213077Y-151919548D01*
X108213077Y-151987960D01*
X108150191Y-151961518D01*
X108106700Y-151934837D01*
X108072426Y-151879446D01*
X108068907Y-151868024D01*
X108031028Y-151809838D01*
X107973936Y-151778407D01*
X107908383Y-151777058D01*
X107845117Y-151809116D01*
X107835672Y-151817383D01*
X107804087Y-151853311D01*
X107798871Y-151884635D01*
X107822765Y-151915391D01*
X107878510Y-151949617D01*
X107968846Y-151991350D01*
X107974956Y-151993993D01*
X108075241Y-152040755D01*
X108143735Y-152082181D01*
X108185899Y-152123542D01*
X108207193Y-152170111D01*
X108213077Y-152227160D01*
X108205366Y-152290408D01*
X108166430Y-152371364D01*
X108097932Y-152429522D01*
X108048388Y-152446983D01*
X107978469Y-152456537D01*
X107910575Y-152454496D01*
X107862093Y-152440082D01*
X107856943Y-152436493D01*
X107843267Y-152411416D01*
X107852757Y-152367218D01*
X107869246Y-152332527D01*
X107895687Y-152318084D01*
X107945834Y-152318803D01*
X108015453Y-152314660D01*
X108060943Y-152286054D01*
X108076308Y-152233104D01*
X108076294Y-152231582D01*
X108066983Y-152200845D01*
X108035311Y-152172643D01*
X107973731Y-152140136D01*
X107889986Y-152100998D01*
X107834518Y-152079706D01*
X107802497Y-152081079D01*
X107787534Y-152109203D01*
X107783242Y-152168170D01*
X107783231Y-152262068D01*
X107782752Y-152320031D01*
X107780556Y-152391612D01*
X107776986Y-152440606D01*
X107772491Y-152458769D01*
X107771290Y-152458646D01*
X107745319Y-152448802D01*
X107702305Y-152428028D01*
X107642859Y-152397287D01*
X107649923Y-152120298D01*
X107650414Y-152101928D01*
X107656025Y-151972992D01*
X107665938Y-151875814D01*
X107682175Y-151803925D01*
X107706759Y-151750852D01*
X107741715Y-151710127D01*
X107789064Y-151675279D01*
X107789940Y-151674733D01*
X107866499Y-151646303D01*
X107955044Y-151641500D01*
X108040458Y-151659228D01*
G36*
X111569763Y-152268269D02*
G01*
X111570300Y-152311802D01*
X111572019Y-152457344D01*
X111572365Y-152568711D01*
X111570277Y-152649804D01*
X111564698Y-152704522D01*
X111554567Y-152736761D01*
X111538826Y-152750422D01*
X111516417Y-152749403D01*
X111486280Y-152737603D01*
X111447355Y-152718920D01*
X111439038Y-152714933D01*
X111404402Y-152695419D01*
X111386314Y-152672202D01*
X111379392Y-152633492D01*
X111378256Y-152567497D01*
X111378205Y-152449000D01*
X111256141Y-152449000D01*
X111181055Y-152445712D01*
X111122015Y-152432377D01*
X111072986Y-152405423D01*
X111069330Y-152402788D01*
X111019581Y-152358286D01*
X110984959Y-152304523D01*
X110963123Y-152234154D01*
X110951737Y-152139830D01*
X110948959Y-152033271D01*
X111143846Y-152033271D01*
X111143880Y-152051131D01*
X111145735Y-152131748D01*
X111151693Y-152184447D01*
X111163506Y-152218668D01*
X111182923Y-152243846D01*
X111184133Y-152245049D01*
X111231858Y-152277628D01*
X111278110Y-152274417D01*
X111330350Y-152234965D01*
X111343128Y-152221482D01*
X111361949Y-152193837D01*
X111372562Y-152157880D01*
X111377252Y-152103364D01*
X111378308Y-152020042D01*
X111377394Y-151969598D01*
X111367477Y-151877857D01*
X111344842Y-151817752D01*
X111307238Y-151784900D01*
X111252416Y-151774923D01*
X111229317Y-151777050D01*
X111189350Y-151798147D01*
X111162926Y-151845161D01*
X111148330Y-151922175D01*
X111143846Y-152033271D01*
X110948959Y-152033271D01*
X110948462Y-152014206D01*
X110949187Y-151922536D01*
X110952490Y-151853098D01*
X110959828Y-151804945D01*
X110972655Y-151768866D01*
X110992423Y-151735648D01*
X111010569Y-151710261D01*
X111076461Y-151641727D01*
X111151114Y-151604505D01*
X111244904Y-151592722D01*
X111352240Y-151604467D01*
X111445031Y-151646595D01*
X111518421Y-151720898D01*
X111523954Y-151728764D01*
X111536857Y-151749668D01*
X111546742Y-151773555D01*
X111554093Y-151805582D01*
X111559394Y-151850905D01*
X111563127Y-151914679D01*
X111565778Y-152002060D01*
X111566096Y-152020042D01*
X111567828Y-152118205D01*
X111569763Y-152268269D01*
G37*
X111569763Y-152268269D02*
X111570300Y-152311802D01*
X111572019Y-152457344D01*
X111572365Y-152568711D01*
X111570277Y-152649804D01*
X111564698Y-152704522D01*
X111554567Y-152736761D01*
X111538826Y-152750422D01*
X111516417Y-152749403D01*
X111486280Y-152737603D01*
X111447355Y-152718920D01*
X111439038Y-152714933D01*
X111404402Y-152695419D01*
X111386314Y-152672202D01*
X111379392Y-152633492D01*
X111378256Y-152567497D01*
X111378205Y-152449000D01*
X111256141Y-152449000D01*
X111181055Y-152445712D01*
X111122015Y-152432377D01*
X111072986Y-152405423D01*
X111069330Y-152402788D01*
X111019581Y-152358286D01*
X110984959Y-152304523D01*
X110963123Y-152234154D01*
X110951737Y-152139830D01*
X110948959Y-152033271D01*
X111143846Y-152033271D01*
X111143880Y-152051131D01*
X111145735Y-152131748D01*
X111151693Y-152184447D01*
X111163506Y-152218668D01*
X111182923Y-152243846D01*
X111184133Y-152245049D01*
X111231858Y-152277628D01*
X111278110Y-152274417D01*
X111330350Y-152234965D01*
X111343128Y-152221482D01*
X111361949Y-152193837D01*
X111372562Y-152157880D01*
X111377252Y-152103364D01*
X111378308Y-152020042D01*
X111377394Y-151969598D01*
X111367477Y-151877857D01*
X111344842Y-151817752D01*
X111307238Y-151784900D01*
X111252416Y-151774923D01*
X111229317Y-151777050D01*
X111189350Y-151798147D01*
X111162926Y-151845161D01*
X111148330Y-151922175D01*
X111143846Y-152033271D01*
X110948959Y-152033271D01*
X110948462Y-152014206D01*
X110949187Y-151922536D01*
X110952490Y-151853098D01*
X110959828Y-151804945D01*
X110972655Y-151768866D01*
X110992423Y-151735648D01*
X111010569Y-151710261D01*
X111076461Y-151641727D01*
X111151114Y-151604505D01*
X111244904Y-151592722D01*
X111352240Y-151604467D01*
X111445031Y-151646595D01*
X111518421Y-151720898D01*
X111523954Y-151728764D01*
X111536857Y-151749668D01*
X111546742Y-151773555D01*
X111554093Y-151805582D01*
X111559394Y-151850905D01*
X111563127Y-151914679D01*
X111565778Y-152002060D01*
X111566096Y-152020042D01*
X111567828Y-152118205D01*
X111569763Y-152268269D01*
G36*
X105183936Y-151639911D02*
G01*
X105225807Y-151650547D01*
X105264791Y-151677062D01*
X105314965Y-151726420D01*
X105347232Y-151761279D01*
X105380844Y-151806534D01*
X105396003Y-151848951D01*
X105399539Y-151902768D01*
X105399539Y-151990850D01*
X105339470Y-151959787D01*
X105291867Y-151921936D01*
X105259261Y-151870950D01*
X105253661Y-151857088D01*
X105210992Y-151803358D01*
X105151707Y-151776417D01*
X105087061Y-151779039D01*
X105028308Y-151814000D01*
X105003450Y-151842394D01*
X104988970Y-151878718D01*
X105004470Y-151911046D01*
X105052667Y-151943565D01*
X105136274Y-151980461D01*
X105148962Y-151985557D01*
X105225078Y-152018907D01*
X105290396Y-152051793D01*
X105331953Y-152077769D01*
X105373576Y-152124167D01*
X105401247Y-152198211D01*
X105398310Y-152277670D01*
X105365571Y-152352868D01*
X105303841Y-152414131D01*
X105253858Y-152440210D01*
X105157303Y-152458470D01*
X105103647Y-152456007D01*
X105053976Y-152442687D01*
X105034919Y-152414739D01*
X105042045Y-152368710D01*
X105044118Y-152362624D01*
X105060556Y-152330349D01*
X105087926Y-152318133D01*
X105140068Y-152318950D01*
X105176884Y-152320061D01*
X105219961Y-152310528D01*
X105249475Y-152282026D01*
X105266286Y-152246935D01*
X105268161Y-152210175D01*
X105268074Y-152209961D01*
X105246279Y-152190098D01*
X105199632Y-152161192D01*
X105139278Y-152128886D01*
X105076360Y-152098823D01*
X105022023Y-152076646D01*
X104987410Y-152068000D01*
X104982260Y-152076467D01*
X104975778Y-152116309D01*
X104971339Y-152181371D01*
X104969692Y-152263385D01*
X104969309Y-152320153D01*
X104967505Y-152391648D01*
X104964558Y-152440610D01*
X104960843Y-152458769D01*
X104941424Y-152452667D01*
X104902227Y-152436095D01*
X104852462Y-152413420D01*
X104852462Y-152122509D01*
X104852780Y-152047940D01*
X104855789Y-151934701D01*
X104863454Y-151850692D01*
X104877562Y-151789520D01*
X104899899Y-151744795D01*
X104932253Y-151710124D01*
X104976410Y-151679117D01*
X105032667Y-151653528D01*
X105136540Y-151638154D01*
X105183936Y-151639911D01*
G37*
X105183936Y-151639911D02*
X105225807Y-151650547D01*
X105264791Y-151677062D01*
X105314965Y-151726420D01*
X105347232Y-151761279D01*
X105380844Y-151806534D01*
X105396003Y-151848951D01*
X105399539Y-151902768D01*
X105399539Y-151990850D01*
X105339470Y-151959787D01*
X105291867Y-151921936D01*
X105259261Y-151870950D01*
X105253661Y-151857088D01*
X105210992Y-151803358D01*
X105151707Y-151776417D01*
X105087061Y-151779039D01*
X105028308Y-151814000D01*
X105003450Y-151842394D01*
X104988970Y-151878718D01*
X105004470Y-151911046D01*
X105052667Y-151943565D01*
X105136274Y-151980461D01*
X105148962Y-151985557D01*
X105225078Y-152018907D01*
X105290396Y-152051793D01*
X105331953Y-152077769D01*
X105373576Y-152124167D01*
X105401247Y-152198211D01*
X105398310Y-152277670D01*
X105365571Y-152352868D01*
X105303841Y-152414131D01*
X105253858Y-152440210D01*
X105157303Y-152458470D01*
X105103647Y-152456007D01*
X105053976Y-152442687D01*
X105034919Y-152414739D01*
X105042045Y-152368710D01*
X105044118Y-152362624D01*
X105060556Y-152330349D01*
X105087926Y-152318133D01*
X105140068Y-152318950D01*
X105176884Y-152320061D01*
X105219961Y-152310528D01*
X105249475Y-152282026D01*
X105266286Y-152246935D01*
X105268161Y-152210175D01*
X105268074Y-152209961D01*
X105246279Y-152190098D01*
X105199632Y-152161192D01*
X105139278Y-152128886D01*
X105076360Y-152098823D01*
X105022023Y-152076646D01*
X104987410Y-152068000D01*
X104982260Y-152076467D01*
X104975778Y-152116309D01*
X104971339Y-152181371D01*
X104969692Y-152263385D01*
X104969309Y-152320153D01*
X104967505Y-152391648D01*
X104964558Y-152440610D01*
X104960843Y-152458769D01*
X104941424Y-152452667D01*
X104902227Y-152436095D01*
X104852462Y-152413420D01*
X104852462Y-152122509D01*
X104852780Y-152047940D01*
X104855789Y-151934701D01*
X104863454Y-151850692D01*
X104877562Y-151789520D01*
X104899899Y-151744795D01*
X104932253Y-151710124D01*
X104976410Y-151679117D01*
X105032667Y-151653528D01*
X105136540Y-151638154D01*
X105183936Y-151639911D01*
G36*
X107937575Y-145307693D02*
G01*
X108073371Y-145307807D01*
X108175576Y-145308472D01*
X108249122Y-145310182D01*
X108298942Y-145313429D01*
X108329967Y-145318706D01*
X108347129Y-145326507D01*
X108355361Y-145337325D01*
X108359594Y-145351654D01*
X108359716Y-145352168D01*
X108366672Y-145385851D01*
X108379320Y-145450917D01*
X108396360Y-145540542D01*
X108416496Y-145647904D01*
X108438429Y-145766178D01*
X108440218Y-145775856D01*
X108462083Y-145890650D01*
X108482430Y-145991480D01*
X108499934Y-146072217D01*
X108513271Y-146126734D01*
X108521116Y-146148901D01*
X108521158Y-146148936D01*
X108545884Y-146161200D01*
X108596631Y-146181576D01*
X108662462Y-146205674D01*
X108666169Y-146206983D01*
X108750331Y-146238791D01*
X108848230Y-146278685D01*
X108939435Y-146318353D01*
X109089407Y-146386420D01*
X109421499Y-146159639D01*
X109444889Y-146143688D01*
X109545080Y-146075890D01*
X109634480Y-146016208D01*
X109707745Y-145968156D01*
X109759527Y-145935250D01*
X109784480Y-145921004D01*
X109801577Y-145924270D01*
X109840395Y-145949571D01*
X109900385Y-145999675D01*
X109983210Y-146075989D01*
X110090535Y-146179922D01*
X110100139Y-146189382D01*
X110185302Y-146274145D01*
X110260949Y-146350937D01*
X110322449Y-146414947D01*
X110365173Y-146461361D01*
X110384489Y-146485369D01*
X110384552Y-146485485D01*
X110387006Y-146503763D01*
X110377956Y-146533411D01*
X110355119Y-146578486D01*
X110316213Y-146643044D01*
X110258954Y-146731140D01*
X110181059Y-146846830D01*
X110167785Y-146866357D01*
X110100652Y-146965278D01*
X110041410Y-147052848D01*
X109993588Y-147123831D01*
X109960715Y-147172991D01*
X109946318Y-147195095D01*
X109945232Y-147199777D01*
X109952044Y-147234710D01*
X109972450Y-147291753D01*
X110003123Y-147361172D01*
X110044808Y-147451959D01*
X110091352Y-147559686D01*
X110130877Y-147657192D01*
X110140676Y-147682430D01*
X110166340Y-147746870D01*
X110185193Y-147791763D01*
X110193710Y-147808616D01*
X110203111Y-147809875D01*
X110245363Y-147817159D01*
X110314521Y-147829739D01*
X110403387Y-147846246D01*
X110504768Y-147865312D01*
X110611467Y-147885569D01*
X110716288Y-147905647D01*
X110812036Y-147924179D01*
X110891516Y-147939795D01*
X110947530Y-147951127D01*
X110972885Y-147956807D01*
X110977088Y-147958408D01*
X110987334Y-147967045D01*
X110994957Y-147985433D01*
X111000338Y-148018460D01*
X111003859Y-148071013D01*
X111005901Y-148147979D01*
X111006847Y-148254246D01*
X111007077Y-148394701D01*
X111007077Y-148821845D01*
X110904500Y-148842091D01*
X110892092Y-148844518D01*
X110826199Y-148857088D01*
X110735084Y-148874170D01*
X110629104Y-148893829D01*
X110518615Y-148914132D01*
X110475105Y-148922299D01*
X110377882Y-148942167D01*
X110296858Y-148960954D01*
X110239477Y-148976859D01*
X110213187Y-148988079D01*
X110201273Y-149006411D01*
X110179583Y-149054916D01*
X110157395Y-149117692D01*
X110149585Y-149141200D01*
X110120835Y-149218366D01*
X110083752Y-149309694D01*
X110044375Y-149400093D01*
X110023315Y-149447310D01*
X109993311Y-149517837D01*
X109972692Y-149570655D01*
X109965026Y-149596912D01*
X109965452Y-149598894D01*
X109979993Y-149626751D01*
X110012783Y-149680510D01*
X110060493Y-149754963D01*
X110119798Y-149844897D01*
X110187369Y-149945104D01*
X110409713Y-150271416D01*
X110117601Y-150564016D01*
X110089349Y-150592171D01*
X110002961Y-150676449D01*
X109925756Y-150749128D01*
X109862258Y-150806112D01*
X109816990Y-150843307D01*
X109794474Y-150856616D01*
X109770023Y-150846490D01*
X109718819Y-150817421D01*
X109646747Y-150772896D01*
X109559460Y-150716411D01*
X109462612Y-150651462D01*
X109367486Y-150587314D01*
X109281669Y-150530827D01*
X109211652Y-150486184D01*
X109162876Y-150456855D01*
X109140783Y-150446308D01*
X109139488Y-150446404D01*
X109110139Y-150456802D01*
X109058093Y-150481012D01*
X108993708Y-150514249D01*
X108993032Y-150514613D01*
X108907521Y-150557441D01*
X108848926Y-150578365D01*
X108812571Y-150578423D01*
X108793775Y-150558654D01*
X108785819Y-150539195D01*
X108764347Y-150487080D01*
X108731273Y-150406964D01*
X108688356Y-150303107D01*
X108637356Y-150179767D01*
X108580033Y-150041201D01*
X108518146Y-149891670D01*
X108462052Y-149755636D01*
X108404977Y-149616050D01*
X108354479Y-149491315D01*
X108312254Y-149385672D01*
X108279995Y-149303365D01*
X108259397Y-149248635D01*
X108252154Y-149225726D01*
X108265986Y-149204718D01*
X108304412Y-149169642D01*
X108358807Y-149128887D01*
X108489395Y-149022267D01*
X108606260Y-148886025D01*
X108691780Y-148736118D01*
X108745431Y-148576971D01*
X108766684Y-148413012D01*
X108755014Y-148248667D01*
X108709894Y-148088361D01*
X108630797Y-147936520D01*
X108517197Y-147797572D01*
X108457965Y-147743460D01*
X108316054Y-147647782D01*
X108164206Y-147585405D01*
X108006861Y-147554844D01*
X107848456Y-147554615D01*
X107693429Y-147583232D01*
X107546220Y-147639210D01*
X107411266Y-147721064D01*
X107293005Y-147827309D01*
X107195877Y-147956459D01*
X107124318Y-148107031D01*
X107082769Y-148277539D01*
X107075143Y-148359722D01*
X107085634Y-148537775D01*
X107132882Y-148706704D01*
X107215489Y-148863522D01*
X107332059Y-149005245D01*
X107481193Y-149128887D01*
X107533561Y-149167982D01*
X107572832Y-149203443D01*
X107587846Y-149225692D01*
X107581859Y-149245088D01*
X107562432Y-149297059D01*
X107531194Y-149377002D01*
X107489839Y-149480673D01*
X107440061Y-149603832D01*
X107383553Y-149742234D01*
X107322009Y-149891637D01*
X107266008Y-150027020D01*
X107208184Y-150166852D01*
X107156500Y-150291872D01*
X107112718Y-150397822D01*
X107078597Y-150480441D01*
X107055898Y-150535472D01*
X107046380Y-150558654D01*
X107046269Y-150558928D01*
X107027228Y-150578503D01*
X106990694Y-150578279D01*
X106931954Y-150557210D01*
X106846292Y-150514249D01*
X106839549Y-150510631D01*
X106775938Y-150478087D01*
X106725707Y-150455050D01*
X106699218Y-150446308D01*
X106677506Y-150456639D01*
X106628984Y-150485788D01*
X106559163Y-150530287D01*
X106473484Y-150586668D01*
X106377388Y-150651462D01*
X106282706Y-150714984D01*
X106195132Y-150771705D01*
X106122642Y-150816547D01*
X106070889Y-150846016D01*
X106045526Y-150856616D01*
X106041206Y-150855270D01*
X106011092Y-150834056D01*
X105959640Y-150790237D01*
X105891375Y-150727909D01*
X105810820Y-150651170D01*
X105722500Y-150564116D01*
X105430488Y-150271617D01*
X105885360Y-149602525D01*
X105816208Y-149452916D01*
X105816003Y-149452473D01*
X105774477Y-149357101D01*
X105732044Y-149250896D01*
X105697858Y-149156769D01*
X105692684Y-149141588D01*
X105666601Y-149071109D01*
X105643081Y-149016342D01*
X105626677Y-148988079D01*
X105619996Y-148984088D01*
X105579892Y-148970697D01*
X105511795Y-148953373D01*
X105423145Y-148933917D01*
X105321385Y-148914132D01*
X105290904Y-148908551D01*
X105180628Y-148888233D01*
X105077731Y-148869095D01*
X104992569Y-148853070D01*
X104935500Y-148842091D01*
X104832923Y-148821845D01*
X104832923Y-148394701D01*
X104832946Y-148342180D01*
X104833379Y-148214047D01*
X104834659Y-148118420D01*
X104837168Y-148050411D01*
X104841286Y-148005133D01*
X104847395Y-147977697D01*
X104855878Y-147963218D01*
X104867115Y-147956807D01*
X104877994Y-147954209D01*
X104922347Y-147945022D01*
X104993106Y-147930991D01*
X105083074Y-147913486D01*
X105185056Y-147893874D01*
X105291857Y-147873525D01*
X105396281Y-147853807D01*
X105491132Y-147836089D01*
X105569214Y-147821738D01*
X105623332Y-147812124D01*
X105646291Y-147808616D01*
X105647842Y-147806497D01*
X105660325Y-147779006D01*
X105681927Y-147726406D01*
X105709123Y-147657192D01*
X105746866Y-147563937D01*
X105793328Y-147456159D01*
X105836878Y-147361172D01*
X105846858Y-147339851D01*
X105874862Y-147273086D01*
X105891641Y-147221590D01*
X105893854Y-147195095D01*
X105892713Y-147193218D01*
X105874584Y-147165565D01*
X105838644Y-147111849D01*
X105788418Y-147037303D01*
X105727430Y-146947162D01*
X105659205Y-146846657D01*
X105582330Y-146732470D01*
X105524663Y-146643770D01*
X105485426Y-146578721D01*
X105462350Y-146533295D01*
X105453166Y-146503463D01*
X105455604Y-146485195D01*
X105456424Y-146483825D01*
X105478477Y-146457205D01*
X105523436Y-146408697D01*
X105586673Y-146343108D01*
X105663559Y-146265247D01*
X105749465Y-146179922D01*
X105838579Y-146093334D01*
X105925872Y-146011947D01*
X105990018Y-145957035D01*
X106032679Y-145927190D01*
X106055521Y-145921004D01*
X106058505Y-145922394D01*
X106089936Y-145941127D01*
X106146997Y-145977733D01*
X106224343Y-146028697D01*
X106316626Y-146090504D01*
X106418502Y-146159639D01*
X106750593Y-146386420D01*
X106900566Y-146318353D01*
X106904923Y-146316381D01*
X106997000Y-146276491D01*
X107094683Y-146236818D01*
X107177539Y-146205674D01*
X107177905Y-146205545D01*
X107243685Y-146181456D01*
X107294323Y-146161110D01*
X107318884Y-146148901D01*
X107319282Y-146148458D01*
X107327619Y-146123456D01*
X107341341Y-146066598D01*
X107359123Y-145984014D01*
X107379641Y-145881831D01*
X107401571Y-145766178D01*
X107402336Y-145762033D01*
X107424229Y-145644019D01*
X107444281Y-145537151D01*
X107461192Y-145448252D01*
X107473667Y-145384145D01*
X107480406Y-145351654D01*
X107480837Y-145349853D01*
X107485273Y-145335944D01*
X107494263Y-145325489D01*
X107512737Y-145317996D01*
X107545628Y-145312972D01*
X107597868Y-145309922D01*
X107674388Y-145308355D01*
X107780122Y-145307776D01*
X107920000Y-145307692D01*
X107937575Y-145307693D01*
G37*
X107937575Y-145307693D02*
X108073371Y-145307807D01*
X108175576Y-145308472D01*
X108249122Y-145310182D01*
X108298942Y-145313429D01*
X108329967Y-145318706D01*
X108347129Y-145326507D01*
X108355361Y-145337325D01*
X108359594Y-145351654D01*
X108359716Y-145352168D01*
X108366672Y-145385851D01*
X108379320Y-145450917D01*
X108396360Y-145540542D01*
X108416496Y-145647904D01*
X108438429Y-145766178D01*
X108440218Y-145775856D01*
X108462083Y-145890650D01*
X108482430Y-145991480D01*
X108499934Y-146072217D01*
X108513271Y-146126734D01*
X108521116Y-146148901D01*
X108521158Y-146148936D01*
X108545884Y-146161200D01*
X108596631Y-146181576D01*
X108662462Y-146205674D01*
X108666169Y-146206983D01*
X108750331Y-146238791D01*
X108848230Y-146278685D01*
X108939435Y-146318353D01*
X109089407Y-146386420D01*
X109421499Y-146159639D01*
X109444889Y-146143688D01*
X109545080Y-146075890D01*
X109634480Y-146016208D01*
X109707745Y-145968156D01*
X109759527Y-145935250D01*
X109784480Y-145921004D01*
X109801577Y-145924270D01*
X109840395Y-145949571D01*
X109900385Y-145999675D01*
X109983210Y-146075989D01*
X110090535Y-146179922D01*
X110100139Y-146189382D01*
X110185302Y-146274145D01*
X110260949Y-146350937D01*
X110322449Y-146414947D01*
X110365173Y-146461361D01*
X110384489Y-146485369D01*
X110384552Y-146485485D01*
X110387006Y-146503763D01*
X110377956Y-146533411D01*
X110355119Y-146578486D01*
X110316213Y-146643044D01*
X110258954Y-146731140D01*
X110181059Y-146846830D01*
X110167785Y-146866357D01*
X110100652Y-146965278D01*
X110041410Y-147052848D01*
X109993588Y-147123831D01*
X109960715Y-147172991D01*
X109946318Y-147195095D01*
X109945232Y-147199777D01*
X109952044Y-147234710D01*
X109972450Y-147291753D01*
X110003123Y-147361172D01*
X110044808Y-147451959D01*
X110091352Y-147559686D01*
X110130877Y-147657192D01*
X110140676Y-147682430D01*
X110166340Y-147746870D01*
X110185193Y-147791763D01*
X110193710Y-147808616D01*
X110203111Y-147809875D01*
X110245363Y-147817159D01*
X110314521Y-147829739D01*
X110403387Y-147846246D01*
X110504768Y-147865312D01*
X110611467Y-147885569D01*
X110716288Y-147905647D01*
X110812036Y-147924179D01*
X110891516Y-147939795D01*
X110947530Y-147951127D01*
X110972885Y-147956807D01*
X110977088Y-147958408D01*
X110987334Y-147967045D01*
X110994957Y-147985433D01*
X111000338Y-148018460D01*
X111003859Y-148071013D01*
X111005901Y-148147979D01*
X111006847Y-148254246D01*
X111007077Y-148394701D01*
X111007077Y-148821845D01*
X110904500Y-148842091D01*
X110892092Y-148844518D01*
X110826199Y-148857088D01*
X110735084Y-148874170D01*
X110629104Y-148893829D01*
X110518615Y-148914132D01*
X110475105Y-148922299D01*
X110377882Y-148942167D01*
X110296858Y-148960954D01*
X110239477Y-148976859D01*
X110213187Y-148988079D01*
X110201273Y-149006411D01*
X110179583Y-149054916D01*
X110157395Y-149117692D01*
X110149585Y-149141200D01*
X110120835Y-149218366D01*
X110083752Y-149309694D01*
X110044375Y-149400093D01*
X110023315Y-149447310D01*
X109993311Y-149517837D01*
X109972692Y-149570655D01*
X109965026Y-149596912D01*
X109965452Y-149598894D01*
X109979993Y-149626751D01*
X110012783Y-149680510D01*
X110060493Y-149754963D01*
X110119798Y-149844897D01*
X110187369Y-149945104D01*
X110409713Y-150271416D01*
X110117601Y-150564016D01*
X110089349Y-150592171D01*
X110002961Y-150676449D01*
X109925756Y-150749128D01*
X109862258Y-150806112D01*
X109816990Y-150843307D01*
X109794474Y-150856616D01*
X109770023Y-150846490D01*
X109718819Y-150817421D01*
X109646747Y-150772896D01*
X109559460Y-150716411D01*
X109462612Y-150651462D01*
X109367486Y-150587314D01*
X109281669Y-150530827D01*
X109211652Y-150486184D01*
X109162876Y-150456855D01*
X109140783Y-150446308D01*
X109139488Y-150446404D01*
X109110139Y-150456802D01*
X109058093Y-150481012D01*
X108993708Y-150514249D01*
X108993032Y-150514613D01*
X108907521Y-150557441D01*
X108848926Y-150578365D01*
X108812571Y-150578423D01*
X108793775Y-150558654D01*
X108785819Y-150539195D01*
X108764347Y-150487080D01*
X108731273Y-150406964D01*
X108688356Y-150303107D01*
X108637356Y-150179767D01*
X108580033Y-150041201D01*
X108518146Y-149891670D01*
X108462052Y-149755636D01*
X108404977Y-149616050D01*
X108354479Y-149491315D01*
X108312254Y-149385672D01*
X108279995Y-149303365D01*
X108259397Y-149248635D01*
X108252154Y-149225726D01*
X108265986Y-149204718D01*
X108304412Y-149169642D01*
X108358807Y-149128887D01*
X108489395Y-149022267D01*
X108606260Y-148886025D01*
X108691780Y-148736118D01*
X108745431Y-148576971D01*
X108766684Y-148413012D01*
X108755014Y-148248667D01*
X108709894Y-148088361D01*
X108630797Y-147936520D01*
X108517197Y-147797572D01*
X108457965Y-147743460D01*
X108316054Y-147647782D01*
X108164206Y-147585405D01*
X108006861Y-147554844D01*
X107848456Y-147554615D01*
X107693429Y-147583232D01*
X107546220Y-147639210D01*
X107411266Y-147721064D01*
X107293005Y-147827309D01*
X107195877Y-147956459D01*
X107124318Y-148107031D01*
X107082769Y-148277539D01*
X107075143Y-148359722D01*
X107085634Y-148537775D01*
X107132882Y-148706704D01*
X107215489Y-148863522D01*
X107332059Y-149005245D01*
X107481193Y-149128887D01*
X107533561Y-149167982D01*
X107572832Y-149203443D01*
X107587846Y-149225692D01*
X107581859Y-149245088D01*
X107562432Y-149297059D01*
X107531194Y-149377002D01*
X107489839Y-149480673D01*
X107440061Y-149603832D01*
X107383553Y-149742234D01*
X107322009Y-149891637D01*
X107266008Y-150027020D01*
X107208184Y-150166852D01*
X107156500Y-150291872D01*
X107112718Y-150397822D01*
X107078597Y-150480441D01*
X107055898Y-150535472D01*
X107046380Y-150558654D01*
X107046269Y-150558928D01*
X107027228Y-150578503D01*
X106990694Y-150578279D01*
X106931954Y-150557210D01*
X106846292Y-150514249D01*
X106839549Y-150510631D01*
X106775938Y-150478087D01*
X106725707Y-150455050D01*
X106699218Y-150446308D01*
X106677506Y-150456639D01*
X106628984Y-150485788D01*
X106559163Y-150530287D01*
X106473484Y-150586668D01*
X106377388Y-150651462D01*
X106282706Y-150714984D01*
X106195132Y-150771705D01*
X106122642Y-150816547D01*
X106070889Y-150846016D01*
X106045526Y-150856616D01*
X106041206Y-150855270D01*
X106011092Y-150834056D01*
X105959640Y-150790237D01*
X105891375Y-150727909D01*
X105810820Y-150651170D01*
X105722500Y-150564116D01*
X105430488Y-150271617D01*
X105885360Y-149602525D01*
X105816208Y-149452916D01*
X105816003Y-149452473D01*
X105774477Y-149357101D01*
X105732044Y-149250896D01*
X105697858Y-149156769D01*
X105692684Y-149141588D01*
X105666601Y-149071109D01*
X105643081Y-149016342D01*
X105626677Y-148988079D01*
X105619996Y-148984088D01*
X105579892Y-148970697D01*
X105511795Y-148953373D01*
X105423145Y-148933917D01*
X105321385Y-148914132D01*
X105290904Y-148908551D01*
X105180628Y-148888233D01*
X105077731Y-148869095D01*
X104992569Y-148853070D01*
X104935500Y-148842091D01*
X104832923Y-148821845D01*
X104832923Y-148394701D01*
X104832946Y-148342180D01*
X104833379Y-148214047D01*
X104834659Y-148118420D01*
X104837168Y-148050411D01*
X104841286Y-148005133D01*
X104847395Y-147977697D01*
X104855878Y-147963218D01*
X104867115Y-147956807D01*
X104877994Y-147954209D01*
X104922347Y-147945022D01*
X104993106Y-147930991D01*
X105083074Y-147913486D01*
X105185056Y-147893874D01*
X105291857Y-147873525D01*
X105396281Y-147853807D01*
X105491132Y-147836089D01*
X105569214Y-147821738D01*
X105623332Y-147812124D01*
X105646291Y-147808616D01*
X105647842Y-147806497D01*
X105660325Y-147779006D01*
X105681927Y-147726406D01*
X105709123Y-147657192D01*
X105746866Y-147563937D01*
X105793328Y-147456159D01*
X105836878Y-147361172D01*
X105846858Y-147339851D01*
X105874862Y-147273086D01*
X105891641Y-147221590D01*
X105893854Y-147195095D01*
X105892713Y-147193218D01*
X105874584Y-147165565D01*
X105838644Y-147111849D01*
X105788418Y-147037303D01*
X105727430Y-146947162D01*
X105659205Y-146846657D01*
X105582330Y-146732470D01*
X105524663Y-146643770D01*
X105485426Y-146578721D01*
X105462350Y-146533295D01*
X105453166Y-146503463D01*
X105455604Y-146485195D01*
X105456424Y-146483825D01*
X105478477Y-146457205D01*
X105523436Y-146408697D01*
X105586673Y-146343108D01*
X105663559Y-146265247D01*
X105749465Y-146179922D01*
X105838579Y-146093334D01*
X105925872Y-146011947D01*
X105990018Y-145957035D01*
X106032679Y-145927190D01*
X106055521Y-145921004D01*
X106058505Y-145922394D01*
X106089936Y-145941127D01*
X106146997Y-145977733D01*
X106224343Y-146028697D01*
X106316626Y-146090504D01*
X106418502Y-146159639D01*
X106750593Y-146386420D01*
X106900566Y-146318353D01*
X106904923Y-146316381D01*
X106997000Y-146276491D01*
X107094683Y-146236818D01*
X107177539Y-146205674D01*
X107177905Y-146205545D01*
X107243685Y-146181456D01*
X107294323Y-146161110D01*
X107318884Y-146148901D01*
X107319282Y-146148458D01*
X107327619Y-146123456D01*
X107341341Y-146066598D01*
X107359123Y-145984014D01*
X107379641Y-145881831D01*
X107401571Y-145766178D01*
X107402336Y-145762033D01*
X107424229Y-145644019D01*
X107444281Y-145537151D01*
X107461192Y-145448252D01*
X107473667Y-145384145D01*
X107480406Y-145351654D01*
X107480837Y-145349853D01*
X107485273Y-145335944D01*
X107494263Y-145325489D01*
X107512737Y-145317996D01*
X107545628Y-145312972D01*
X107597868Y-145309922D01*
X107674388Y-145308355D01*
X107780122Y-145307776D01*
X107920000Y-145307692D01*
X107937575Y-145307693D01*
D14*
X205410000Y-136400000D02*
X209010000Y-136400000D01*
X210910000Y-136400000D02*
X212410000Y-136400000D01*
X212410000Y-136400000D02*
X212410000Y-137750000D01*
X214260000Y-136400000D02*
X214260000Y-137750000D01*
X214260000Y-136400000D02*
X215560000Y-136400000D01*
X215560000Y-136400000D02*
X215560000Y-135900000D01*
X215560000Y-135900000D02*
X217560000Y-135900000D01*
X217560000Y-135900000D02*
X217560000Y-130700000D01*
X203360000Y-130950000D02*
X203360000Y-136400000D01*
X215560000Y-130700000D02*
X215560000Y-130200000D01*
X217560000Y-130700000D02*
X215560000Y-130700000D01*
X205210000Y-130200000D02*
X204910000Y-130200000D01*
X212410000Y-130200000D02*
X207160000Y-130200000D01*
X215560000Y-130200000D02*
X214360000Y-130200000D01*
X217520000Y-112250000D02*
X217520000Y-126870000D01*
X217000000Y-112250000D02*
X217520000Y-112250000D01*
X217000000Y-112900000D02*
X217000000Y-112250000D01*
X217000000Y-112900000D02*
X208890000Y-112900000D01*
X202040000Y-112900000D02*
X205370000Y-112900000D01*
X202040000Y-112900000D02*
X202040000Y-126220000D01*
X201820000Y-115160000D02*
X201820000Y-116960000D01*
X208890000Y-126220000D02*
X217000000Y-126220000D01*
X202040000Y-126220000D02*
X205370000Y-126220000D01*
X217520000Y-126870000D02*
X217000000Y-126870000D01*
X217000000Y-126870000D02*
X217000000Y-126220000D01*
D16*
X207072500Y-152396000D02*
X204972500Y-152396000D01*
X212972500Y-152396000D02*
X210072500Y-152396000D01*
X215672500Y-152396000D02*
X215672500Y-139296000D01*
X201622500Y-151722000D02*
X201622500Y-150720000D01*
X201622500Y-144972000D02*
X201622500Y-139970000D01*
D10*
X216222500Y-148226000D02*
G75*
G03*
X216222500Y-148226000I-100000J0D01*
G01*
D14*
X179116000Y-82924000D02*
X179116000Y-130924000D01*
X177966000Y-120824000D02*
X177966000Y-119824000D01*
X177966000Y-120824000D02*
X174186000Y-120824000D01*
X177966000Y-98024000D02*
X174186000Y-98024000D01*
X175616000Y-134424000D02*
X142616000Y-134424000D01*
X174186000Y-120824000D02*
X174186000Y-119824000D01*
X144046000Y-120824000D02*
X144046000Y-119824000D01*
X144046000Y-120824000D02*
X140266000Y-120824000D01*
X144046000Y-98024000D02*
X144046000Y-99024000D01*
X144046000Y-98024000D02*
X140266000Y-98024000D01*
X142616000Y-79424000D02*
X175616000Y-79424000D01*
X140266000Y-120824000D02*
X140266000Y-119824000D01*
X140266000Y-98024000D02*
X140266000Y-99024000D01*
X139116000Y-130924000D02*
X139116000Y-82924000D01*
X175616000Y-134424000D02*
G75*
G03*
X179116000Y-130924000I1J3499999D01*
G01*
X179116000Y-82924000D02*
G75*
G03*
X175616000Y-79424000I-3499999J1D01*
G01*
X139116000Y-130924000D02*
G75*
G03*
X142616000Y-134424000I3500000J0D01*
G01*
X142616000Y-79424000D02*
G75*
G03*
X139116000Y-82924000I0J-3500000D01*
G01*
X105445000Y-99860000D02*
X105445000Y-98860000D01*
X105445000Y-98860000D02*
X104445000Y-98860000D01*
X103562886Y-106170000D02*
X103005000Y-106170000D01*
X103562886Y-105550000D02*
X103005000Y-105550000D01*
X103562886Y-104170000D02*
X103005000Y-104170000D01*
X103562886Y-103550000D02*
X103005000Y-103550000D01*
X103562886Y-102170000D02*
X103005000Y-102170000D01*
X103562886Y-101550000D02*
X103005000Y-101550000D01*
X103510000Y-100170000D02*
X103005000Y-100170000D01*
X103510000Y-99550000D02*
X103005000Y-99550000D01*
X103005000Y-106920000D02*
X101385000Y-106920000D01*
X103005000Y-104860000D02*
X101385000Y-104860000D01*
X103005000Y-102860000D02*
X101385000Y-102860000D01*
X103005000Y-100860000D02*
X101385000Y-100860000D01*
X103005000Y-98800000D02*
X103005000Y-106920000D01*
X101385000Y-106920000D02*
X101385000Y-98800000D01*
X101385000Y-105550000D02*
X97185000Y-105550000D01*
X101385000Y-103550000D02*
X97185000Y-103550000D01*
X101385000Y-101550000D02*
X97185000Y-101550000D01*
X101385000Y-100090000D02*
X97185000Y-100090000D01*
X101385000Y-99970000D02*
X97185000Y-99970000D01*
X101385000Y-99850000D02*
X97185000Y-99850000D01*
X101385000Y-99730000D02*
X97185000Y-99730000D01*
X101385000Y-99610000D02*
X97185000Y-99610000D01*
X101385000Y-99550000D02*
X97185000Y-99550000D01*
X101385000Y-98800000D02*
X103005000Y-98800000D01*
X97185000Y-106170000D02*
X101385000Y-106170000D01*
X97185000Y-105550000D02*
X97185000Y-106170000D01*
X97185000Y-104170000D02*
X101385000Y-104170000D01*
X97185000Y-103550000D02*
X97185000Y-104170000D01*
X97185000Y-102170000D02*
X101385000Y-102170000D01*
X97185000Y-101550000D02*
X97185000Y-102170000D01*
X97185000Y-100170000D02*
X101385000Y-100170000D01*
X97185000Y-99550000D02*
X97185000Y-100170000D01*
X99656000Y-107010000D02*
X101206000Y-107010000D01*
X99656000Y-107010000D02*
X99656000Y-106710000D01*
X96856000Y-106710000D02*
X99656000Y-106710000D01*
X102906000Y-104560000D02*
X102906000Y-103760000D01*
X102456000Y-104160000D02*
X102906000Y-104560000D01*
X102906000Y-103760000D02*
X102456000Y-104160000D01*
X96856000Y-99010000D02*
X99656000Y-99010000D01*
X99656000Y-99010000D02*
X99656000Y-98710000D01*
X99656000Y-98710000D02*
X101206000Y-98710000D01*
X217050000Y-109418000D02*
X217050000Y-108768000D01*
X217570000Y-109418000D02*
X217050000Y-109418000D01*
X202090000Y-108768000D02*
X205420000Y-108768000D01*
X208940000Y-108768000D02*
X217050000Y-108768000D01*
X201870000Y-97708000D02*
X201870000Y-99508000D01*
X202090000Y-95448000D02*
X202090000Y-108768000D01*
X202090000Y-95448000D02*
X205420000Y-95448000D01*
X217050000Y-95448000D02*
X208940000Y-95448000D01*
X217050000Y-95448000D02*
X217050000Y-94798000D01*
X217050000Y-94798000D02*
X217570000Y-94798000D01*
X217570000Y-94798000D02*
X217570000Y-109418000D01*
%LPC*%
D17*
X210832500Y-88160000D03*
X210832500Y-90700000D03*
X210832500Y-79980000D03*
X210832500Y-77440000D03*
D18*
X203722500Y-91945000D03*
D17*
X200422500Y-87245000D03*
D18*
X203722500Y-76195000D03*
D17*
X197882500Y-85975000D03*
X200422500Y-84705000D03*
X197882500Y-83435000D03*
X200422500Y-82165000D03*
X197882500Y-80895000D03*
X200422500Y-79625000D03*
D19*
X197882500Y-78355000D03*
D20*
X206772500Y-78355000D03*
X206772500Y-89785000D03*
D17*
X197882500Y-88515000D03*
X200422500Y-89785000D03*
X202942500Y-78355000D03*
X204212500Y-80895000D03*
X204212500Y-87245000D03*
X202942500Y-89785000D03*
D21*
X169944999Y-139494999D03*
X167404999Y-139494999D03*
X164864999Y-139494999D03*
X162324999Y-139494999D03*
X159784999Y-139494999D03*
D22*
X157244999Y-139494999D03*
D23*
X192009999Y-80719999D03*
X192009999Y-81219999D03*
D24*
X192009999Y-81719999D03*
D23*
X192009999Y-82219999D03*
X192009999Y-82719999D03*
X192779999Y-82719999D03*
X192779999Y-82219999D03*
D24*
X192779999Y-81719999D03*
D23*
X192779999Y-81219999D03*
X192779999Y-80719999D03*
X193044999Y-88589999D03*
X193044999Y-88089999D03*
D24*
X193044999Y-87589999D03*
D23*
X193044999Y-87089999D03*
X193044999Y-86589999D03*
X192274999Y-86589999D03*
X192274999Y-87089999D03*
D24*
X192274999Y-87589999D03*
D23*
X192274999Y-88089999D03*
X192274999Y-88589999D03*
D25*
X192140000Y-89660000D03*
X193160000Y-89660000D03*
X193150000Y-90700000D03*
X192130000Y-90700000D03*
D22*
X189609999Y-76399999D03*
D21*
X187069999Y-76399999D03*
X189609999Y-78939999D03*
X187069999Y-78939999D03*
D26*
X182484000Y-131308000D03*
D27*
X172749999Y-120199999D03*
D28*
X172749999Y-119199999D03*
D29*
X111999000Y-102860000D03*
D30*
X99491999Y-120131999D03*
D31*
X99492000Y-125212000D03*
D27*
X186799999Y-119599999D03*
D28*
X186799999Y-118599999D03*
D22*
X194189999Y-142049999D03*
D21*
X191649999Y-142049999D03*
X194189999Y-139509999D03*
X191649999Y-139509999D03*
X194189999Y-136969999D03*
X191649999Y-136969999D03*
X194189999Y-134429999D03*
X191649999Y-134429999D03*
X194189999Y-131889999D03*
X191649999Y-131889999D03*
X194189999Y-129349999D03*
X191649999Y-129349999D03*
X194189999Y-126809999D03*
X191649999Y-126809999D03*
X194189999Y-124269999D03*
X191649999Y-124269999D03*
X194189999Y-121729999D03*
X191649999Y-121729999D03*
X194189999Y-119189999D03*
X191649999Y-119189999D03*
X194189999Y-116649999D03*
X191649999Y-116649999D03*
X194189999Y-114109999D03*
X191649999Y-114109999D03*
X194189999Y-111569999D03*
X191649999Y-111569999D03*
X194189999Y-109029999D03*
X191649999Y-109029999D03*
X194189999Y-106489999D03*
X191649999Y-106489999D03*
X194189999Y-103949999D03*
X191649999Y-103949999D03*
X194189999Y-101409999D03*
X191649999Y-101409999D03*
X194189999Y-98869999D03*
X191649999Y-98869999D03*
X194189999Y-96329999D03*
X191649999Y-96329999D03*
X194189999Y-93789999D03*
X191649999Y-93789999D03*
D32*
X181468000Y-120894000D03*
X180925000Y-120894000D03*
X180925000Y-122418000D03*
X181468000Y-122418000D03*
D29*
X130033000Y-102860000D03*
D26*
X182484000Y-82032000D03*
X114572000Y-131308000D03*
D22*
X186549999Y-109549999D03*
D21*
X186549999Y-112089999D03*
X186549999Y-114629999D03*
D22*
X182799999Y-109569999D03*
D21*
X182799999Y-112109999D03*
X182799999Y-114649999D03*
D26*
X114572000Y-82032000D03*
D33*
X101311999Y-113811999D03*
X101311999Y-113161999D03*
X101311999Y-112511999D03*
X101311999Y-111861999D03*
X101311999Y-111211999D03*
D34*
X100191999Y-115499499D03*
D35*
X101551999Y-115361999D03*
D36*
X98491999Y-115236999D03*
D37*
X99421999Y-115236999D03*
D38*
X101521999Y-114936999D03*
D39*
X98241999Y-113474499D03*
X98241999Y-111549499D03*
D38*
X101521999Y-110086999D03*
D36*
X98491999Y-109786999D03*
D37*
X99421999Y-109786999D03*
D35*
X101551999Y-109611999D03*
D34*
X100191999Y-109524499D03*
D40*
X99610000Y-96420000D03*
X104510000Y-95820000D03*
X104510000Y-81320000D03*
X99610000Y-80720000D03*
D41*
X105509999Y-83819999D03*
X105509999Y-84319999D03*
X105509999Y-84819999D03*
X105509999Y-85319999D03*
X105509999Y-85819999D03*
X105509999Y-86319999D03*
X105509999Y-86819999D03*
X105509999Y-87319999D03*
X105509999Y-87819999D03*
X105509999Y-88319999D03*
X105509999Y-88819999D03*
X105509999Y-89319999D03*
X105509999Y-89819999D03*
X105509999Y-90319999D03*
X105509999Y-90819999D03*
X105509999Y-91319999D03*
X105509999Y-91819999D03*
X105509999Y-92319999D03*
X105509999Y-92819999D03*
D42*
X104393999Y-131174999D03*
D43*
X104393999Y-133174999D03*
X104393999Y-135174999D03*
X104393999Y-137174999D03*
D17*
X205960000Y-133300000D03*
X212960000Y-133300000D03*
D44*
X213359999Y-136799999D03*
X213359999Y-129799999D03*
X209959999Y-136799999D03*
X206159999Y-129799999D03*
X203959999Y-129799999D03*
X204459999Y-136799999D03*
D45*
X204419999Y-116059999D03*
D46*
X204420000Y-118560000D03*
X204420000Y-120560000D03*
X204420000Y-123060000D03*
D31*
X207130000Y-112990000D03*
X207130000Y-126130000D03*
D47*
X214272499Y-148225999D03*
X214272499Y-147125999D03*
X214272499Y-146025999D03*
X214272499Y-144925999D03*
X214272499Y-143825999D03*
X214272499Y-142725999D03*
X214272499Y-141625999D03*
X214272499Y-140525999D03*
D48*
X201807499Y-150015999D03*
D49*
X201732499Y-145750999D03*
D50*
X203007499Y-152325999D03*
D51*
X214257499Y-152105999D03*
D52*
X213772499Y-139445999D03*
D50*
X203007499Y-139365999D03*
D53*
X177615999Y-99623999D03*
X174535999Y-99623999D03*
X177615999Y-100023999D03*
X174535999Y-100023999D03*
X177615999Y-100423999D03*
X174535999Y-100423999D03*
X177615999Y-100823999D03*
X174535999Y-100823999D03*
X177615999Y-101223999D03*
X174535999Y-101223999D03*
X177615999Y-101623999D03*
X174535999Y-101623999D03*
X177615999Y-102023999D03*
X174535999Y-102023999D03*
X177615999Y-102423999D03*
X174535999Y-102423999D03*
X177615999Y-102823999D03*
X174535999Y-102823999D03*
X177615999Y-103223999D03*
X174535999Y-103223999D03*
X177615999Y-103623999D03*
X174535999Y-103623999D03*
X177615999Y-104023999D03*
X174535999Y-104023999D03*
X177615999Y-104423999D03*
X174535999Y-104423999D03*
X177615999Y-104823999D03*
X174535999Y-104823999D03*
X177615999Y-105223999D03*
X174535999Y-105223999D03*
X177615999Y-105623999D03*
X174535999Y-105623999D03*
X177615999Y-106023999D03*
X174535999Y-106023999D03*
X177615999Y-106423999D03*
X174535999Y-106423999D03*
X177615999Y-106823999D03*
X174535999Y-106823999D03*
X177615999Y-107223999D03*
X174535999Y-107223999D03*
X177615999Y-107623999D03*
X174535999Y-107623999D03*
X177615999Y-108023999D03*
X174535999Y-108023999D03*
X177615999Y-108423999D03*
X174535999Y-108423999D03*
X177615999Y-108823999D03*
X174535999Y-108823999D03*
X177615999Y-109223999D03*
X174535999Y-109223999D03*
X177615999Y-109623999D03*
X174535999Y-109623999D03*
X177615999Y-110023999D03*
X174535999Y-110023999D03*
X177615999Y-110423999D03*
X174535999Y-110423999D03*
X177615999Y-110823999D03*
X174535999Y-110823999D03*
X177615999Y-111223999D03*
X174535999Y-111223999D03*
X177615999Y-111623999D03*
X174535999Y-111623999D03*
X177615999Y-112023999D03*
X174535999Y-112023999D03*
X177615999Y-112423999D03*
X174535999Y-112423999D03*
X177615999Y-112823999D03*
X174535999Y-112823999D03*
X177615999Y-113223999D03*
X174535999Y-113223999D03*
X177615999Y-113623999D03*
X174535999Y-113623999D03*
X177615999Y-114023999D03*
X174535999Y-114023999D03*
X177615999Y-114423999D03*
X174535999Y-114423999D03*
X177615999Y-114823999D03*
X174535999Y-114823999D03*
X177615999Y-115223999D03*
X174535999Y-115223999D03*
X177615999Y-115623999D03*
X174535999Y-115623999D03*
X177615999Y-116023999D03*
X174535999Y-116023999D03*
X177615999Y-116423999D03*
X174535999Y-116423999D03*
X177615999Y-116823999D03*
X174535999Y-116823999D03*
X177615999Y-117223999D03*
X174535999Y-117223999D03*
X177615999Y-117623999D03*
X174535999Y-117623999D03*
X177615999Y-118023999D03*
X174535999Y-118023999D03*
X177615999Y-118423999D03*
X174535999Y-118423999D03*
X177615999Y-118823999D03*
X174535999Y-118823999D03*
X177615999Y-119223999D03*
X174535999Y-119223999D03*
X143695999Y-99623999D03*
X140615999Y-99623999D03*
X143695999Y-100023999D03*
X140615999Y-100023999D03*
X143695999Y-100423999D03*
X140615999Y-100423999D03*
X143695999Y-100823999D03*
X140615999Y-100823999D03*
X143695999Y-101223999D03*
X140615999Y-101223999D03*
X143695999Y-101623999D03*
X140615999Y-101623999D03*
X143695999Y-102023999D03*
X140615999Y-102023999D03*
X143695999Y-102423999D03*
X140615999Y-102423999D03*
X143695999Y-102823999D03*
X140615999Y-102823999D03*
X143695999Y-103223999D03*
X140615999Y-103223999D03*
X143695999Y-103623999D03*
X140615999Y-103623999D03*
X143695999Y-104023999D03*
X140615999Y-104023999D03*
X143695999Y-104423999D03*
X140615999Y-104423999D03*
X143695999Y-104823999D03*
X140615999Y-104823999D03*
X143695999Y-105223999D03*
X140615999Y-105223999D03*
X143695999Y-105623999D03*
X140615999Y-105623999D03*
X143695999Y-106023999D03*
X140615999Y-106023999D03*
X143695999Y-106423999D03*
X140615999Y-106423999D03*
X143695999Y-106823999D03*
X140615999Y-106823999D03*
X143695999Y-107223999D03*
X140615999Y-107223999D03*
X143695999Y-107623999D03*
X140615999Y-107623999D03*
X143695999Y-108023999D03*
X140615999Y-108023999D03*
X143695999Y-108423999D03*
X140615999Y-108423999D03*
X143695999Y-108823999D03*
X140615999Y-108823999D03*
X143695999Y-109223999D03*
X140615999Y-109223999D03*
X143695999Y-109623999D03*
X140615999Y-109623999D03*
X143695999Y-110023999D03*
X140615999Y-110023999D03*
X143695999Y-110423999D03*
X140615999Y-110423999D03*
X143695999Y-110823999D03*
X140615999Y-110823999D03*
X143695999Y-111223999D03*
X140615999Y-111223999D03*
X143695999Y-111623999D03*
X140615999Y-111623999D03*
X143695999Y-112023999D03*
X140615999Y-112023999D03*
X143695999Y-112423999D03*
X140615999Y-112423999D03*
X143695999Y-112823999D03*
X140615999Y-112823999D03*
X143695999Y-113223999D03*
X140615999Y-113223999D03*
X143695999Y-113623999D03*
X140615999Y-113623999D03*
X143695999Y-114023999D03*
X140615999Y-114023999D03*
X143695999Y-114423999D03*
X140615999Y-114423999D03*
X143695999Y-114823999D03*
X140615999Y-114823999D03*
X143695999Y-115223999D03*
X140615999Y-115223999D03*
X143695999Y-115623999D03*
X140615999Y-115623999D03*
X143695999Y-116023999D03*
X140615999Y-116023999D03*
X143695999Y-116423999D03*
X140615999Y-116423999D03*
X143695999Y-116823999D03*
X140615999Y-116823999D03*
X143695999Y-117223999D03*
X140615999Y-117223999D03*
X143695999Y-117623999D03*
X140615999Y-117623999D03*
X143695999Y-118023999D03*
X140615999Y-118023999D03*
X143695999Y-118423999D03*
X140615999Y-118423999D03*
X143695999Y-118823999D03*
X140615999Y-118823999D03*
X143695999Y-119223999D03*
X140615999Y-119223999D03*
D42*
X104444999Y-99859999D03*
D43*
X104444999Y-101859999D03*
X104444999Y-103859999D03*
X104444999Y-105859999D03*
D33*
X101295999Y-104159999D03*
X101295999Y-103509999D03*
X101295999Y-102859999D03*
X101295999Y-102209999D03*
X101295999Y-101559999D03*
D34*
X100175999Y-105847499D03*
D35*
X101535999Y-105709999D03*
D36*
X98475999Y-105584999D03*
D37*
X99405999Y-105584999D03*
D38*
X101505999Y-105284999D03*
D39*
X98225999Y-103822499D03*
X98225999Y-101897499D03*
D38*
X101505999Y-100434999D03*
D36*
X98475999Y-100134999D03*
D37*
X99405999Y-100134999D03*
D35*
X101535999Y-99959999D03*
D34*
X100175999Y-99872499D03*
D40*
X120490000Y-77120000D03*
X121090000Y-82020000D03*
X135590000Y-82020000D03*
X136190000Y-77120000D03*
D54*
X133089999Y-83019999D03*
X132589999Y-83019999D03*
X132089999Y-83019999D03*
X131589999Y-83019999D03*
X131089999Y-83019999D03*
X130589999Y-83019999D03*
X130089999Y-83019999D03*
X129589999Y-83019999D03*
X129089999Y-83019999D03*
X128589999Y-83019999D03*
X128089999Y-83019999D03*
X127589999Y-83019999D03*
X127089999Y-83019999D03*
X126589999Y-83019999D03*
X126089999Y-83019999D03*
X125589999Y-83019999D03*
X125089999Y-83019999D03*
X124589999Y-83019999D03*
X124089999Y-83019999D03*
D31*
X207180000Y-108678000D03*
X207180000Y-95538000D03*
D46*
X204470000Y-105608000D03*
X204470000Y-103108000D03*
X204470000Y-101108000D03*
D45*
X204469999Y-98607999D03*
M02*
